<?xml version="1.0" encoding="UTF-8" standalone="no"?>
<svg
   xmlns:dc="http://purl.org/dc/elements/1.1/"
   xmlns:cc="http://creativecommons.org/ns#"
   xmlns:rdf="http://www.w3.org/1999/02/22-rdf-syntax-ns#"
   xmlns:svg="http://www.w3.org/2000/svg"
   xmlns="http://www.w3.org/2000/svg"
   xmlns:sodipodi="http://sodipodi.sourceforge.net/DTD/sodipodi-0.dtd"
   xmlns:inkscape="http://www.inkscape.org/namespaces/inkscape"
   width="64mm"
   height="28mm"
   viewBox="-32 -53 64 28"
   version="1.1"
   id="svg2"
   inkscape:version="0.91 r13725"
   sodipodi:docname="Nose.svg">
  <metadata
     id="metadata14">
    <rdf:RDF>
      <cc:Work
         rdf:about="">
        <dc:format>image/svg+xml</dc:format>
        <dc:type
           rdf:resource="http://purl.org/dc/dcmitype/StillImage" />
      </cc:Work>
    </rdf:RDF>
  </metadata>
  <defs
     id="defs12" />
  <sodipodi:namedview
     pagecolor="#ffffff"
     bordercolor="#666666"
     borderopacity="1"
     objecttolerance="10"
     gridtolerance="10"
     guidetolerance="10"
     inkscape:pageopacity="0"
     inkscape:pageshadow="2"
     inkscape:window-width="1304"
     inkscape:window-height="746"
     id="namedview10"
     showgrid="false"
     inkscape:zoom="2.6105556"
     inkscape:cx="113.38583"
     inkscape:cy="48.840179"
     inkscape:window-x="54"
     inkscape:window-y="-8"
     inkscape:window-maximized="1"
     inkscape:current-layer="svg2" />
  <title
     id="title4">svgOutput</title>
  <desc
     id="desc6">made with tinkercad</desc>
  <path
     d="M -23 -26 L -23.784000396728516 -26.038999557495117 L -24.56100082397461 -26.15399932861328 L -25.32200050354004 -26.3439998626709 L -26.06100082397461 -26.608999252319336 L -26.770999908447266 -26.94499969482422 L -27.44499969482422 -27.347999572753906 L -28.075000762939453 -27.81599998474121 L -28.656999588012695 -28.343000411987305 L -29.18400001525879 -28.924999237060547 L -29.652000427246094 -29.55500030517578 L -30.05500030517578 -30.229000091552734 L -30.391000747680664 -30.93899917602539 L -30.6560001373291 -31.67799949645996 L -30.84600067138672 -32.43899917602539 L -30.89469337463379 -32.768001556396484 L -30.961000442504883 -33.215999603271484 L -31 -34 L -31 -36.86399841308594 L -31 -40.959999084472656 L -31 -44 L -30.961000442504883 -44.784000396728516 L -30.84600067138672 -45.56100082397461 L -30.6560001373291 -46.321998596191406 L -30.391000747680664 -47.06100082397461 L -30.05500030517578 -47.770999908447266 L -29.652000427246094 -48.44499969482422 L -29.18400001525879 -49.07500076293945 L -29.114276885986328 -49.152000427246094 L -28.656999588012695 -49.65700149536133 L -28.075000762939453 -50.183998107910156 L -27.44499969482422 -50.652000427246094 L -26.770999908447266 -51.05500030517578 L -26.06100082397461 -51.39099884033203 L -25.32200050354004 -51.65599822998047 L -24.56100082397461 -51.84600067138672 L -23.784000396728516 -51.96099853515625 L -23 -52 L -16.384000778198242 -52 L 0 -52 L 16.384000778198242 -52 L 23 -52 L 23.784000396728516 -51.96099853515625 L 24.56100082397461 -51.84600067138672 L 25.32200050354004 -51.65599822998047 L 26.06100082397461 -51.39099884033203 L 26.770999908447266 -51.05500030517578 L 27.44499969482422 -50.652000427246094 L 28.075000762939453 -50.183998107910156 L 28.656999588012695 -49.65700149536133 L 29.114276885986328 -49.152000427246094 L 29.18400001525879 -49.07500076293945 L 29.652000427246094 -48.44499969482422 L 30.05500030517578 -47.770999908447266 L 30.391000747680664 -47.06100082397461 L 30.6560001373291 -46.321998596191406 L 30.84600067138672 -45.56100082397461 L 30.961000442504883 -44.784000396728516 L 31 -44 L 31 -40.959999084472656 L 31 -36.86399841308594 L 31 -34 L 30.961000442504883 -33.215999603271484 L 30.89469337463379 -32.768001556396484 L 30.84600067138672 -32.43899917602539 L 30.6560001373291 -31.67799949645996 L 30.391000747680664 -30.93899917602539 L 30.05500030517578 -30.229000091552734 L 29.652000427246094 -29.55500030517578 L 29.18400001525879 -28.924999237060547 L 28.656999588012695 -28.343000411987305 L 28.075000762939453 -27.81599998474121 L 27.44499969482422 -27.347999572753906 L 26.770999908447266 -26.94499969482422 L 26.06100082397461 -26.608999252319336 L 25.32200050354004 -26.3439998626709 L 24.56100082397461 -26.15399932861328 L 23.784000396728516 -26.038999557495117 L 23 -26 L 16.384000778198242 -26 L 0 -26 L -16.384000778198242 -26 L -23 -26 M -23.704999923706055 -39.435001373291016 L -23.865999221801758 -39.84299850463867 L -24.124000549316406 -40.198001861572266 L -24.461999893188477 -40.47800064086914 L -24.576000213623047 -40.531410217285156 L -24.858999252319336 -40.66400146484375 L -25.290000915527344 -40.74700164794922 L -25.72800064086914 -40.71900177001953 L -26.145000457763672 -40.58300018310547 L -26.514999389648438 -40.347999572753906 L -26.81599998474121 -40.02899932861328 L -27.027000427246094 -39.64400100708008 L -27.13599967956543 -39.21900177001953 L -27.13599967956543 -38.9119987487793 L -27.13599967956543 -38.78099822998047 L -27.027000427246094 -38.35599899291992 L -26.81599998474121 -37.97100067138672 L -26.514999389648438 -37.652000427246094 L -26.145000457763672 -37.41699981689453 L -25.72800064086914 -37.28099822998047 L -25.290000915527344 -37.25299835205078 L -24.858999252319336 -37.33599853515625 L -24.576000213623047 -37.468589782714844 L -24.461999893188477 -37.52199935913086 L -24.124000549316406 -37.801998138427734 L -23.865999221801758 -38.15700149536133 L -23.704999923706055 -38.564998626708984 L -23.649999618530273 -39 L -23.704999923706055 -39.435001373291016 M 27.094999313354492 -39.435001373291016 L 26.93400001525879 -39.84299850463867 L 26.676000595092773 -40.198001861572266 L 26.33799934387207 -40.47800064086914 L 25.94099998474121 -40.66400146484375 L 25.510000228881836 -40.74700164794922 L 25.07200050354004 -40.71900177001953 L 24.655000686645508 -40.58300018310547 L 24.576000213623047 -40.5328254699707 L 24.28499984741211 -40.347999572753906 L 23.983999252319336 -40.02899932861328 L 23.773000717163086 -39.64400100708008 L 23.663999557495117 -39.21900177001953 L 23.663999557495117 -38.78099822998047 L 23.773000717163086 -38.35599899291992 L 23.983999252319336 -37.97100067138672 L 24.28499984741211 -37.652000427246094 L 24.576000213623047 -37.4671745300293 L 24.655000686645508 -37.41699981689453 L 25.07200050354004 -37.28099822998047 L 25.510000228881836 -37.25299835205078 L 25.94099998474121 -37.33599853515625 L 26.33799934387207 -37.52199935913086 L 26.676000595092773 -37.801998138427734 L 26.93400001525879 -38.15700149536133 L 27.094999313354492 -38.564998626708984 L 27.138874053955078 -38.9119987487793 L 27.149999618530273 -39 L 27.094999313354492 -39.435001373291016 z"
     fill="none"
     stroke="rgb(0,0,255)"
     stroke-width="0.01mm"
     id="path8"
     style="stroke-width:0.28222222;stroke:#333333" />
</svg>
