%
M48
METRIC,000.000
T01C0.79
T02C0.81
T03C0.81
T04C0.99
T05C0.99
T06C1.02
T07C1.19
T08C3.25
T10C0.50
%
T01
X011430Y011430
X011430Y006985
X012700Y038100
X012700Y035560
X012700Y033020
X012700Y030480
X012700Y027940
X012700Y025400
X012700Y022860
X012700Y020320
X012700Y017780
X013929Y011430
X017145Y013335
X017145Y006985
X019685Y013335
X019685Y006985
X020320Y046990
X020320Y044490
X020320Y038100
X020320Y035560
X020320Y033020
X020320Y030480
X020320Y027940
X020320Y025400
X020320Y022860
X020320Y020320
X020320Y017780
X047569Y072430
X052014Y072430
X020899Y073700
X023439Y073700
X025979Y073700
X028519Y073700
X031059Y073700
X033599Y073700
X036139Y073700
X038679Y073700
X041219Y073700
X047569Y074929
X045664Y078145
X052014Y078145
X045664Y080685
X052014Y080685
X012009Y081320
X014509Y081320
X020899Y081320
X023439Y081320
X025979Y081320
X028519Y081320
X031059Y081320
X033599Y081320
X036139Y081320
X038679Y081320
X041219Y081320
X045430Y011430
X045430Y006985
X046700Y038100
X046700Y035560
X046700Y033020
X046700Y030480
X046700Y027940
X046700Y025400
X046700Y022860
X046700Y020320
X046700Y017780
X047929Y011430
X051145Y013335
X051145Y006985
X053685Y013335
X053685Y006985
X054320Y046990
X054320Y044490
X054320Y038100
X054320Y035560
X054320Y033020
X054320Y030480
X054320Y027940
X054320Y025400
X054320Y022860
X054320Y020320
X054320Y017780
X079430Y011430
X079430Y006985
X080700Y038100
X080700Y035560
X080700Y033020
X080700Y030480
X080700Y027940
X080700Y025400
X080700Y022860
X080700Y020320
X080700Y017780
X081929Y011430
X085145Y013335
X085145Y006985
X087685Y013335
X087685Y006985
X088320Y046990
X088320Y044490
X088320Y038100
X088320Y035560
X088320Y033020
X088320Y030480
X088320Y027940
X088320Y025400
X088320Y022860
X088320Y020320
X088320Y017780
T02
X011430Y004485
X054514Y072430
X004389Y071160
X004389Y073700
X004389Y076240
X002484Y087670
X005024Y087670
X054554Y087670
X057094Y087670
X045430Y004485
X044160Y054610
X046700Y054610
X049240Y054610
X060670Y056515
X060670Y053975
X060670Y004445
X060670Y001905
X079430Y004485
X078160Y054610
X080700Y054610
X083240Y054610
X094670Y056515
X094670Y053975
X094670Y004445
X094670Y001905
T03
X010160Y054610
X012700Y054610
X015240Y054610
X026670Y056515
X026670Y053975
X026670Y004445
X026670Y001905
T04
X002540Y034129
X002540Y031630
X002540Y029131
X002540Y026629
X002540Y024130
X002540Y016349
X002540Y013850
X002540Y011351
X002540Y008849
X002540Y006350
X007620Y035560
X007620Y033020
X007620Y030480
X007620Y027940
X007620Y025400
X007620Y022860
X007620Y020320
X007620Y017780
X007620Y015240
X007620Y012700
X007620Y010160
X007620Y007620
X007620Y005080
X007620Y002540
X022860Y035560
X022860Y033020
X022860Y030480
X022860Y027940
X022860Y025400
X022860Y022860
X022860Y020320
X022860Y017780
X022860Y015240
X022860Y012700
X022860Y010160
X022860Y007620
X022860Y005080
X022860Y002540
X025689Y032461
X025689Y025958
X030190Y032461
X030190Y025958
X024870Y063540
X027369Y063540
X029868Y063540
X032369Y063540
X034869Y063540
X042650Y063540
X045149Y063540
X047648Y063540
X050150Y063540
X052649Y063540
X023439Y068620
X025979Y068620
X028519Y068620
X031059Y068620
X033599Y068620
X036139Y068620
X038679Y068620
X041219Y068620
X043759Y068620
X046299Y068620
X048839Y068620
X051379Y068620
X053919Y068620
X056459Y068620
X023439Y083860
X025979Y083860
X028519Y083860
X031059Y083860
X033599Y083860
X036139Y083860
X038679Y083860
X041219Y083860
X043759Y083860
X046299Y083860
X048839Y083860
X051379Y083860
X053919Y083860
X056459Y083860
X026538Y086689
X033041Y086689
X026538Y091190
X033041Y091190
X007564Y087670
X010104Y087670
X012644Y087670
X015184Y087670
X017724Y087670
X024074Y087670
X035504Y087670
X041854Y087670
X044394Y087670
X046934Y087670
X049474Y087670
X052014Y087670
X017724Y090210
X024074Y090210
X035504Y090210
X041854Y090210
X036540Y034129
X036540Y031630
X036540Y029131
X036540Y026629
X036540Y024130
X036540Y016349
X036540Y013850
X036540Y011351
X036540Y008849
X036540Y006350
X041620Y035560
X041620Y033020
X041620Y030480
X041620Y027940
X041620Y025400
X041620Y022860
X041620Y020320
X041620Y017780
X041620Y015240
X041620Y012700
X041620Y010160
X041620Y007620
X041620Y005080
X041620Y002540
X056860Y035560
X056860Y033020
X056860Y030480
X056860Y027940
X056860Y025400
X056860Y022860
X056860Y020320
X056860Y017780
X056860Y015240
X056860Y012700
X056860Y010160
X056860Y007620
X056860Y005080
X056860Y002540
X059689Y032461
X059689Y025958
X064190Y032461
X064190Y025958
X060670Y051435
X060670Y048895
X060670Y046355
X060670Y043815
X060670Y041275
X060670Y034925
X060670Y023495
X060670Y017145
X060670Y014605
X060670Y012065
X060670Y009525
X060670Y006985
X063210Y041275
X063210Y034925
X063210Y023495
X063210Y017145
X070540Y034129
X070540Y031630
X070540Y029131
X070540Y026629
X070540Y024130
X070540Y016349
X070540Y013850
X070540Y011351
X070540Y008849
X070540Y006350
X075620Y035560
X075620Y033020
X075620Y030480
X075620Y027940
X075620Y025400
X075620Y022860
X075620Y020320
X075620Y017780
X075620Y015240
X075620Y012700
X075620Y010160
X075620Y007620
X075620Y005080
X075620Y002540
X090860Y035560
X090860Y033020
X090860Y030480
X090860Y027940
X090860Y025400
X090860Y022860
X090860Y020320
X090860Y017780
X090860Y015240
X090860Y012700
X090860Y010160
X090860Y007620
X090860Y005080
X090860Y002540
X093689Y032461
X093689Y025958
X098190Y032461
X098190Y025958
X094670Y051435
X094670Y048895
X094670Y046355
X094670Y043815
X094670Y041275
X094670Y034925
X094670Y023495
X094670Y017145
X094670Y014605
X094670Y012065
X094670Y009525
X094670Y006985
X097210Y041275
X097210Y034925
X097210Y023495
X097210Y017145
T05
X026670Y051435
X026670Y048895
X026670Y046355
X026670Y043815
X026670Y041275
X026670Y034925
X026670Y023495
X026670Y017145
X026670Y014605
X026670Y012065
X026670Y009525
X026670Y006985
X029210Y041275
X029210Y034925
X029210Y023495
X029210Y017145
T06
X012700Y048260
X012700Y045720
X012700Y043180
X010739Y073700
X013279Y073700
X015819Y073700
X046700Y048260
X046700Y045720
X046700Y043180
X080700Y048260
X080700Y045720
X080700Y043180
T07
X006096Y050038
X006096Y046537
X006096Y042672
X006096Y039171
X008961Y067096
X012462Y067096
X016327Y067096
X019828Y067096
X040096Y050038
X040096Y046537
X040096Y042672
X040096Y039171
X074096Y050038
X074096Y046537
X074096Y042672
X074096Y039171
T08
X003810Y054610
X015240Y003810
X021590Y054610
X004389Y064810
X055189Y076240
X004389Y082590
X037810Y054610
X049240Y003810
X055590Y054610
X071810Y054610
X083240Y003810
X089590Y054610
T10
X012488Y058669
X011488Y058669
X010488Y058669
X009488Y058669
X008488Y058669
X007488Y058669
X007833Y060750
X008833Y060750
X009833Y060750
X010833Y060750
X011833Y060750
X041833Y060750
X042833Y060750
X043833Y060750
X044833Y060750
X045833Y060750
X046488Y058669
X045488Y058669
X044488Y058669
X043488Y058669
X042488Y058669
X041488Y058669
X031999Y045435
X031999Y046435
X031999Y047435
X031999Y048435
X031999Y049435
X031999Y050435
X033750Y050662
X033750Y049662
X033750Y048662
X033750Y047662
X033750Y046662
X033750Y045662
X065999Y045435
X065999Y046435
X065999Y047435
X065999Y048435
X065999Y049435
X065999Y050435
X067750Y050662
X067750Y049662
X067750Y048662
X067750Y047662
X067750Y046662
X067750Y045662
X065999Y007435
X065999Y008435
X065999Y009435
X065999Y010435
X065999Y011435
X065999Y012435
X067750Y012662
X067750Y011662
X067750Y010662
X067750Y009662
X067750Y008662
X067750Y007662
X031999Y007435
X031999Y008435
X031999Y009435
X031999Y010435
X031999Y011435
X031999Y012435
X033750Y012662
X033750Y011662
X033750Y010662
X033750Y009662
X033750Y008662
X033750Y007662
M30