%MOIN*%
%OFA0B0*%
%FSLAX44Y44*%
%IPPOS*%
%LPD*%
%ADD10C,0*%
D10*
X00005013Y00024015D02*
X00005013Y00024015D01*
X00018086Y00024015D01*
X00018112Y00024014D01*
X00018139Y00024012D01*
X00018165Y00024007D01*
X00018190Y00024001D01*
X00018216Y00023993D01*
X00018241Y00023983D01*
X00018265Y00023972D01*
X00018288Y00023959D01*
X00018310Y00023945D01*
X00018331Y00023929D01*
X00018352Y00023912D01*
X00018370Y00023893D01*
X00018388Y00023873D01*
X00018404Y00023853D01*
X00018419Y00023831D01*
X00018433Y00023808D01*
X00018444Y00023784D01*
X00018454Y00023759D01*
X00018463Y00023734D01*
X00018470Y00023708D01*
X00018521Y00023480D01*
X00018528Y00023445D01*
X00018531Y00023410D01*
X00018531Y00023375D01*
X00018527Y00023340D01*
X00018521Y00023305D01*
X00018512Y00023271D01*
X00018499Y00023238D01*
X00018484Y00023206D01*
X00018466Y00023176D01*
X00018445Y00023147D01*
X00018422Y00023121D01*
X00018396Y00023097D01*
X00018368Y00023075D01*
X00018339Y00023055D01*
X00018308Y00023038D01*
X00018275Y00023025D01*
X00018242Y00023014D01*
X00018207Y00023006D01*
X00018173Y00023001D01*
X00018137Y00023000D01*
X00014885Y00023000D01*
X00014717Y00022990D01*
X00014552Y00022962D01*
X00014390Y00022915D01*
X00014234Y00022851D01*
X00014087Y00022770D01*
X00013950Y00022672D01*
X00013825Y00022560D01*
X00013713Y00022435D01*
X00013615Y00022298D01*
X00013534Y00022150D01*
X00013469Y00021995D01*
X00013423Y00021833D01*
X00013395Y00021667D01*
X00013385Y00021500D01*
X00013385Y00013000D01*
X00013383Y00012960D01*
X00013377Y00012921D01*
X00013367Y00012883D01*
X00013354Y00012845D01*
X00013336Y00012810D01*
X00013315Y00012776D01*
X00013291Y00012744D01*
X00013264Y00012715D01*
X00013234Y00012689D01*
X00013201Y00012667D01*
X00013166Y00012647D01*
X00013130Y00012631D01*
X00013092Y00012619D01*
X00013053Y00012611D01*
X00013014Y00012607D01*
X00012974Y00012607D01*
X00012934Y00012610D01*
X00012895Y00012618D01*
X00012857Y00012630D01*
X00012821Y00012645D01*
X00012722Y00012693D01*
X00012703Y00012703D01*
X00012684Y00012714D01*
X00012665Y00012726D01*
X00012648Y00012740D01*
X00012631Y00012754D01*
X00012615Y00012769D01*
X00012600Y00012785D01*
X00012585Y00012802D01*
X00012572Y00012820D01*
X00012560Y00012838D01*
X00012549Y00012857D01*
X00012538Y00012877D01*
X00012529Y00012897D01*
X00012522Y00012917D01*
X00012515Y00012938D01*
X00012509Y00012960D01*
X00012505Y00012981D01*
X00012502Y00013003D01*
X00012500Y00013025D01*
X00012499Y00013047D01*
X00012499Y00021500D01*
X00012490Y00021667D01*
X00012462Y00021833D01*
X00012415Y00021995D01*
X00012351Y00022150D01*
X00012270Y00022298D01*
X00012172Y00022435D01*
X00012060Y00022560D01*
X00011935Y00022672D01*
X00011798Y00022770D01*
X00011650Y00022851D01*
X00011495Y00022915D01*
X00011333Y00022962D01*
X00011167Y00022990D01*
X00011000Y00023000D01*
X00004961Y00023000D01*
X00004926Y00023001D01*
X00004891Y00023006D01*
X00004857Y00023014D01*
X00004823Y00023025D01*
X00004791Y00023038D01*
X00004759Y00023055D01*
X00004730Y00023075D01*
X00004702Y00023097D01*
X00004677Y00023121D01*
X00004654Y00023147D01*
X00004633Y00023176D01*
X00004615Y00023206D01*
X00004599Y00023238D01*
X00004587Y00023271D01*
X00004577Y00023305D01*
X00004571Y00023340D01*
X00004568Y00023375D01*
X00004568Y00023410D01*
X00004571Y00023445D01*
X00004577Y00023480D01*
X00004629Y00023708D01*
X00004636Y00023734D01*
X00004644Y00023759D01*
X00004654Y00023784D01*
X00004666Y00023808D01*
X00004679Y00023831D01*
X00004694Y00023853D01*
X00004710Y00023873D01*
X00004728Y00023893D01*
X00004747Y00023912D01*
X00004767Y00023929D01*
X00004788Y00023945D01*
X00004811Y00023959D01*
X00004834Y00023972D01*
X00004858Y00023983D01*
X00004883Y00023993D01*
X00004908Y00024001D01*
X00004934Y00024007D01*
X00004960Y00024012D01*
X00004986Y00024014D01*
X00005013Y00024015D01*
X00025885Y00002997D02*
X00025885Y00002997D01*
X00025888Y00003041D01*
X00025895Y00003084D01*
X00025907Y00003126D01*
X00025924Y00003167D01*
X00025945Y00003205D01*
X00025970Y00003241D01*
X00025999Y00003274D01*
X00026032Y00003303D01*
X00026067Y00003329D01*
X00026105Y00003350D01*
X00026146Y00003368D01*
X00026188Y00003380D01*
X00026231Y00003388D01*
X00026274Y00003391D01*
X00026318Y00003389D01*
X00026362Y00003382D01*
X00026404Y00003371D01*
X00026445Y00003354D01*
X00026483Y00003334D01*
X00026519Y00003309D01*
X00026618Y00003233D01*
X00026632Y00003222D01*
X00026645Y00003210D01*
X00026658Y00003197D01*
X00026670Y00003184D01*
X00026682Y00003171D01*
X00026693Y00003156D01*
X00026704Y00003142D01*
X00026713Y00003127D01*
X00026722Y00003111D01*
X00026731Y00003095D01*
X00026738Y00003079D01*
X00026745Y00003062D01*
X00026751Y00003045D01*
X00026756Y00003028D01*
X00026761Y00003011D01*
X00026765Y00002993D01*
X00026767Y00002975D01*
X00026770Y00002957D01*
X00026771Y00002939D01*
X00026771Y00002921D01*
X00026771Y00001499D01*
X00026781Y00001332D01*
X00026809Y00001166D01*
X00026855Y00001004D01*
X00026920Y00000849D01*
X00027001Y00000701D01*
X00027098Y00000564D01*
X00027210Y00000439D01*
X00027336Y00000327D01*
X00027473Y00000229D01*
X00027620Y00000148D01*
X00027776Y00000084D01*
X00027937Y00000037D01*
X00028103Y00000009D01*
X00028271Y00000000D01*
X00037771Y00000000D01*
X00037939Y00000009D01*
X00038105Y00000037D01*
X00038267Y00000084D01*
X00038422Y00000148D01*
X00038569Y00000229D01*
X00038706Y00000327D01*
X00038832Y00000439D01*
X00038944Y00000564D01*
X00039041Y00000701D01*
X00039123Y00000849D01*
X00039187Y00001004D01*
X00039234Y00001166D01*
X00039262Y00001332D01*
X00039271Y00001499D01*
X00039271Y00021500D01*
X00039262Y00021667D01*
X00039234Y00021833D01*
X00039187Y00021995D01*
X00039123Y00022150D01*
X00039041Y00022298D01*
X00038944Y00022435D01*
X00038832Y00022560D01*
X00038706Y00022672D01*
X00038569Y00022770D01*
X00038422Y00022851D01*
X00038267Y00022915D01*
X00038105Y00022962D01*
X00037939Y00022990D01*
X00037771Y00023000D01*
X00028271Y00023000D01*
X00028103Y00022990D01*
X00027937Y00022962D01*
X00027776Y00022915D01*
X00027620Y00022851D01*
X00027473Y00022770D01*
X00027336Y00022672D01*
X00027210Y00022560D01*
X00027098Y00022435D01*
X00027001Y00022298D01*
X00026920Y00022150D01*
X00026855Y00021995D01*
X00026809Y00021833D01*
X00026781Y00021667D01*
X00026771Y00021500D01*
X00026771Y00020050D01*
X00026771Y00020032D01*
X00026770Y00020014D01*
X00026767Y00019996D01*
X00026765Y00019978D01*
X00026761Y00019961D01*
X00026756Y00019943D01*
X00026751Y00019926D01*
X00026745Y00019909D01*
X00026738Y00019893D01*
X00026731Y00019876D01*
X00026722Y00019860D01*
X00026713Y00019845D01*
X00026704Y00019830D01*
X00026693Y00019815D01*
X00026682Y00019801D01*
X00026670Y00019787D01*
X00026658Y00019774D01*
X00026645Y00019761D01*
X00026632Y00019749D01*
X00026618Y00019738D01*
X00026519Y00019662D01*
X00026483Y00019638D01*
X00026445Y00019617D01*
X00026404Y00019601D01*
X00026362Y00019589D01*
X00026318Y00019582D01*
X00026274Y00019581D01*
X00026231Y00019583D01*
X00026188Y00019591D01*
X00026146Y00019604D01*
X00026105Y00019621D01*
X00026067Y00019642D01*
X00026032Y00019668D01*
X00025999Y00019697D01*
X00025970Y00019730D01*
X00025945Y00019766D01*
X00025924Y00019805D01*
X00025907Y00019845D01*
X00025895Y00019887D01*
X00025888Y00019930D01*
X00025885Y00019974D01*
X00025885Y00021500D01*
X00025876Y00021667D01*
X00025848Y00021833D01*
X00025801Y00021995D01*
X00025737Y00022150D01*
X00025655Y00022298D01*
X00025558Y00022435D01*
X00025446Y00022560D01*
X00025321Y00022672D01*
X00025183Y00022770D01*
X00025036Y00022851D01*
X00024881Y00022915D01*
X00024719Y00022962D01*
X00024553Y00022990D01*
X00024385Y00023000D01*
X00020215Y00023000D01*
X00020180Y00023001D01*
X00020145Y00023006D01*
X00020110Y00023014D01*
X00020077Y00023025D01*
X00020044Y00023038D01*
X00020013Y00023055D01*
X00019984Y00023075D01*
X00019956Y00023097D01*
X00019931Y00023121D01*
X00019907Y00023147D01*
X00019887Y00023176D01*
X00019868Y00023206D01*
X00019853Y00023238D01*
X00019841Y00023271D01*
X00019831Y00023305D01*
X00019825Y00023340D01*
X00019822Y00023375D01*
X00019822Y00023410D01*
X00019825Y00023445D01*
X00019831Y00023480D01*
X00019883Y00023708D01*
X00019889Y00023734D01*
X00019898Y00023759D01*
X00019908Y00023784D01*
X00019920Y00023808D01*
X00019933Y00023831D01*
X00019948Y00023853D01*
X00019964Y00023873D01*
X00019982Y00023893D01*
X00020001Y00023912D01*
X00020021Y00023929D01*
X00020042Y00023945D01*
X00020064Y00023959D01*
X00020088Y00023972D01*
X00020112Y00023983D01*
X00020136Y00023993D01*
X00020162Y00024001D01*
X00020187Y00024007D01*
X00020214Y00024012D01*
X00020240Y00024014D01*
X00020267Y00024015D01*
X00021728Y00024015D01*
X00021896Y00024025D01*
X00022062Y00024053D01*
X00022223Y00024099D01*
X00022379Y00024164D01*
X00022526Y00024245D01*
X00022663Y00024343D01*
X00022789Y00024455D01*
X00022901Y00024580D01*
X00022998Y00024717D01*
X00023079Y00024864D01*
X00023144Y00025020D01*
X00023190Y00025181D01*
X00023218Y00025347D01*
X00023228Y00025515D01*
X00023228Y00035015D01*
X00023218Y00035183D01*
X00023190Y00035349D01*
X00023144Y00035511D01*
X00023079Y00035666D01*
X00022998Y00035813D01*
X00022901Y00035950D01*
X00022789Y00036076D01*
X00022663Y00036188D01*
X00022526Y00036285D01*
X00022379Y00036367D01*
X00022223Y00036431D01*
X00022062Y00036478D01*
X00021896Y00036506D01*
X00021728Y00036515D01*
X00001728Y00036515D01*
X00001560Y00036506D01*
X00001394Y00036478D01*
X00001232Y00036431D01*
X00001077Y00036367D01*
X00000930Y00036285D01*
X00000793Y00036188D01*
X00000667Y00036076D01*
X00000555Y00035950D01*
X00000458Y00035813D01*
X00000376Y00035666D01*
X00000312Y00035511D01*
X00000265Y00035349D01*
X00000237Y00035183D01*
X00000228Y00035015D01*
X00000228Y00025515D01*
X00000237Y00025347D01*
X00000265Y00025181D01*
X00000312Y00025020D01*
X00000376Y00024864D01*
X00000458Y00024717D01*
X00000555Y00024580D01*
X00000667Y00024455D01*
X00000793Y00024343D01*
X00000930Y00024245D01*
X00001077Y00024164D01*
X00001232Y00024099D01*
X00001394Y00024053D01*
X00001560Y00024025D01*
X00001728Y00024015D01*
X00002832Y00024015D01*
X00002858Y00024014D01*
X00002885Y00024012D01*
X00002911Y00024007D01*
X00002937Y00024001D01*
X00002962Y00023993D01*
X00002987Y00023983D01*
X00003011Y00023972D01*
X00003034Y00023959D01*
X00003056Y00023945D01*
X00003078Y00023929D01*
X00003098Y00023912D01*
X00003117Y00023893D01*
X00003134Y00023873D01*
X00003151Y00023853D01*
X00003166Y00023831D01*
X00003179Y00023808D01*
X00003191Y00023784D01*
X00003201Y00023759D01*
X00003209Y00023734D01*
X00003216Y00023708D01*
X00003268Y00023480D01*
X00003274Y00023445D01*
X00003277Y00023410D01*
X00003277Y00023375D01*
X00003274Y00023340D01*
X00003267Y00023305D01*
X00003258Y00023271D01*
X00003245Y00023238D01*
X00003230Y00023206D01*
X00003212Y00023176D01*
X00003191Y00023147D01*
X00003168Y00023121D01*
X00003142Y00023097D01*
X00003115Y00023075D01*
X00003085Y00023055D01*
X00003054Y00023038D01*
X00003022Y00023025D01*
X00002988Y00023014D01*
X00002954Y00023006D01*
X00002919Y00023001D01*
X00002884Y00023000D01*
X00001500Y00023000D01*
X00001332Y00022990D01*
X00001166Y00022962D01*
X00001004Y00022915D01*
X00000849Y00022851D01*
X00000701Y00022770D01*
X00000564Y00022672D01*
X00000439Y00022560D01*
X00000327Y00022435D01*
X00000229Y00022298D01*
X00000148Y00022150D01*
X00000084Y00021995D01*
X00000037Y00021833D01*
X00000009Y00021667D01*
X00000000Y00021500D01*
X00000000Y00001499D01*
X00000009Y00001332D01*
X00000037Y00001166D01*
X00000084Y00001004D01*
X00000148Y00000849D01*
X00000229Y00000701D01*
X00000327Y00000564D01*
X00000439Y00000439D01*
X00000564Y00000327D01*
X00000701Y00000229D01*
X00000849Y00000148D01*
X00001004Y00000084D01*
X00001166Y00000037D01*
X00001332Y00000009D01*
X00001500Y00000000D01*
X00011000Y00000000D01*
X00011167Y00000009D01*
X00011333Y00000037D01*
X00011495Y00000084D01*
X00011650Y00000148D01*
X00011798Y00000229D01*
X00011935Y00000327D01*
X00012060Y00000439D01*
X00012172Y00000564D01*
X00012270Y00000701D01*
X00012351Y00000849D01*
X00012415Y00001004D01*
X00012462Y00001166D01*
X00012490Y00001332D01*
X00012499Y00001499D01*
X00012499Y00010814D01*
X00012500Y00010836D01*
X00012502Y00010858D01*
X00012505Y00010880D01*
X00012509Y00010901D01*
X00012515Y00010923D01*
X00012522Y00010944D01*
X00012529Y00010964D01*
X00012538Y00010985D01*
X00012549Y00011004D01*
X00012560Y00011023D01*
X00012572Y00011042D01*
X00012585Y00011059D01*
X00012600Y00011076D01*
X00012615Y00011092D01*
X00012631Y00011107D01*
X00012648Y00011122D01*
X00012665Y00011135D01*
X00012684Y00011147D01*
X00012703Y00011158D01*
X00012722Y00011169D01*
X00012821Y00011216D01*
X00012857Y00011231D01*
X00012895Y00011243D01*
X00012934Y00011251D01*
X00012974Y00011254D01*
X00013014Y00011254D01*
X00013053Y00011250D01*
X00013092Y00011242D01*
X00013130Y00011230D01*
X00013166Y00011214D01*
X00013201Y00011195D01*
X00013234Y00011172D01*
X00013264Y00011146D01*
X00013291Y00011117D01*
X00013315Y00011085D01*
X00013336Y00011052D01*
X00013354Y00011016D01*
X00013367Y00010979D01*
X00013377Y00010940D01*
X00013383Y00010901D01*
X00013385Y00010861D01*
X00013385Y00001499D01*
X00013395Y00001332D01*
X00013423Y00001166D01*
X00013469Y00001004D01*
X00013534Y00000849D01*
X00013615Y00000701D01*
X00013713Y00000564D01*
X00013825Y00000439D01*
X00013950Y00000327D01*
X00014087Y00000229D01*
X00014234Y00000148D01*
X00014390Y00000084D01*
X00014552Y00000037D01*
X00014717Y00000009D01*
X00014885Y00000000D01*
X00024385Y00000000D01*
X00024553Y00000009D01*
X00024719Y00000037D01*
X00024881Y00000084D01*
X00025036Y00000148D01*
X00025183Y00000229D01*
X00025321Y00000327D01*
X00025446Y00000439D01*
X00025558Y00000564D01*
X00025655Y00000701D01*
X00025737Y00000849D01*
X00025801Y00001004D01*
X00025848Y00001166D01*
X00025876Y00001332D01*
X00025885Y00001499D01*
X00025885Y00002997D01*
X00025885Y00017870D02*
X00025885Y00017870D01*
X00025888Y00017913D01*
X00025895Y00017956D01*
X00025907Y00017999D01*
X00025924Y00018039D01*
X00025945Y00018078D01*
X00025970Y00018113D01*
X00025999Y00018146D01*
X00026032Y00018176D01*
X00026067Y00018201D01*
X00026105Y00018223D01*
X00026146Y00018240D01*
X00026188Y00018252D01*
X00026231Y00018260D01*
X00026274Y00018263D01*
X00026318Y00018261D01*
X00026362Y00018254D01*
X00026404Y00018243D01*
X00026445Y00018227D01*
X00026483Y00018206D01*
X00026519Y00018181D01*
X00026618Y00018106D01*
X00026632Y00018094D01*
X00026645Y00018082D01*
X00026658Y00018070D01*
X00026670Y00018057D01*
X00026682Y00018043D01*
X00026693Y00018029D01*
X00026704Y00018014D01*
X00026713Y00017999D01*
X00026722Y00017983D01*
X00026731Y00017967D01*
X00026738Y00017951D01*
X00026745Y00017934D01*
X00026751Y00017918D01*
X00026756Y00017900D01*
X00026761Y00017883D01*
X00026765Y00017865D01*
X00026767Y00017847D01*
X00026770Y00017830D01*
X00026771Y00017812D01*
X00026771Y00017794D01*
X00026771Y00005178D01*
X00026771Y00005160D01*
X00026770Y00005142D01*
X00026767Y00005124D01*
X00026765Y00005106D01*
X00026761Y00005088D01*
X00026756Y00005071D01*
X00026751Y00005054D01*
X00026745Y00005037D01*
X00026738Y00005020D01*
X00026731Y00005004D01*
X00026722Y00004988D01*
X00026713Y00004972D01*
X00026704Y00004957D01*
X00026693Y00004943D01*
X00026682Y00004928D01*
X00026670Y00004915D01*
X00026658Y00004902D01*
X00026645Y00004889D01*
X00026632Y00004877D01*
X00026618Y00004866D01*
X00026519Y00004790D01*
X00026483Y00004765D01*
X00026445Y00004745D01*
X00026404Y00004728D01*
X00026362Y00004717D01*
X00026318Y00004710D01*
X00026274Y00004708D01*
X00026231Y00004711D01*
X00026188Y00004719D01*
X00026146Y00004731D01*
X00026105Y00004749D01*
X00026067Y00004770D01*
X00026032Y00004796D01*
X00025999Y00004825D01*
X00025970Y00004858D01*
X00025945Y00004894D01*
X00025924Y00004932D01*
X00025907Y00004973D01*
X00025895Y00005015D01*
X00025888Y00005058D01*
X00025885Y00005102D01*
X00025885Y00017870D01*
M02*