%MOIN*%
%OFA0B0*%
%FSLAX46Y46*%
%IPPOS*%
%LPD*%
%ADD10C,0.0039370078740157488*%
%ADD11R,0.07874015748031496X0.07874015748031496*%
%ADD12C,0.07874015748031496*%
%ADD13C,0.043307086614173235*%
%ADD14R,0.08X0.068*%
%ADD15O,0.08X0.068*%
%ADD16O,0.086614173228346469X0.066929133858267723*%
%ADD17C,0.066*%
%ADD18R,0.070866141732283464X0.070866141732283464*%
%ADD19C,0.070866141732283464*%
%ADD20O,0.07874015748031496X0.062992125984251982*%
%ADD21C,0.12795275590551181*%
%ADD22C,0.062992125984251982*%
%ADD23R,0.062992125984251982X0.062992125984251982*%
%ADD24C,0.094488188976377951*%
%ADD25R,0.094488188976377951X0.094488188976377951*%
%ADD26R,0.015748031496062995X0.023622047244094488*%
%ADD27C,0.0787*%
%ADD38C,0.0039370078740157488*%
%ADD39R,0.07874015748031496X0.07874015748031496*%
%ADD40C,0.07874015748031496*%
%ADD41C,0.043307086614173235*%
%ADD42R,0.068X0.08*%
%ADD43O,0.068X0.08*%
%ADD44O,0.066929133858267723X0.086614173228346469*%
%ADD45C,0.066*%
%ADD46R,0.070866141732283464X0.070866141732283464*%
%ADD47C,0.070866141732283464*%
%ADD48O,0.062992125984251982X0.07874015748031496*%
%ADD49C,0.12795275590551181*%
%ADD50C,0.062992125984251982*%
%ADD51R,0.062992125984251982X0.062992125984251982*%
%ADD52C,0.094488188976377951*%
%ADD53R,0.094488188976377951X0.094488188976377951*%
%ADD54R,0.023622047244094488X0.015748031496062995*%
%ADD55C,0.0787*%
%ADD56C,0.0039370078740157488*%
%ADD57R,0.07874015748031496X0.07874015748031496*%
%ADD58C,0.07874015748031496*%
%ADD59C,0.043307086614173235*%
%ADD60R,0.08X0.068*%
%ADD61O,0.08X0.068*%
%ADD62O,0.086614173228346469X0.066929133858267723*%
%ADD63C,0.066*%
%ADD64R,0.070866141732283464X0.070866141732283464*%
%ADD65C,0.070866141732283464*%
%ADD66O,0.07874015748031496X0.062992125984251982*%
%ADD67C,0.12795275590551181*%
%ADD68C,0.062992125984251982*%
%ADD69R,0.062992125984251982X0.062992125984251982*%
%ADD70C,0.094488188976377951*%
%ADD71R,0.094488188976377951X0.094488188976377951*%
%ADD72R,0.015748031496062995X0.023622047244094488*%
%ADD73C,0.0787*%
%ADD74C,0.0039370078740157488*%
%ADD75R,0.07874015748031496X0.07874015748031496*%
%ADD76C,0.07874015748031496*%
%ADD77C,0.043307086614173235*%
%ADD78R,0.08X0.068*%
%ADD79O,0.08X0.068*%
%ADD80O,0.086614173228346469X0.066929133858267723*%
%ADD81C,0.066*%
%ADD82R,0.070866141732283464X0.070866141732283464*%
%ADD83C,0.070866141732283464*%
%ADD84O,0.07874015748031496X0.062992125984251982*%
%ADD85C,0.12795275590551181*%
%ADD86C,0.062992125984251982*%
%ADD87R,0.062992125984251982X0.062992125984251982*%
%ADD88C,0.094488188976377951*%
%ADD89R,0.094488188976377951X0.094488188976377951*%
%ADD90R,0.015748031496062995X0.023622047244094488*%
%ADD91C,0.0787*%
G01*
D10*
D11*
X-0004799999Y0004650000D02*
X0000100000Y0000250000D03*
D12*
X0000100000Y0000348425D03*
X0000100000Y0000446850D03*
X0000100000Y0000545275D03*
X0000100000Y0000643700D03*
D13*
X0000178740Y0000187007D03*
D14*
X0000500000Y0001700000D03*
D15*
X0000500000Y0001800000D03*
X0000500000Y0001900000D03*
D16*
X0000300000Y0000100000D03*
X0000300000Y0000200000D03*
X0000300000Y0000300000D03*
X0000300000Y0000400000D03*
X0000300000Y0000500000D03*
X0000300000Y0000600000D03*
X0000300000Y0000700000D03*
X0000300000Y0000800000D03*
X0000300000Y0000900000D03*
X0000300000Y0001000000D03*
X0000300000Y0001100000D03*
X0000300000Y0001200000D03*
X0000300000Y0001300000D03*
X0000300000Y0001400000D03*
D12*
X0000686574Y0001975000D03*
X0000883425Y0001975000D03*
X0001025000Y0000275000D03*
D11*
X0001025000Y0000375000D03*
D17*
X0001025000Y0002125000D03*
X0001025000Y0002225000D03*
D18*
X0000450000Y0000450000D03*
D19*
X0000548425Y0000450000D03*
D11*
X0000425000Y0000275000D03*
D12*
X0000425000Y0000176574D03*
D20*
X0000800000Y0000700000D03*
X0000800000Y0000800000D03*
X0000800000Y0000900000D03*
X0000800000Y0001000000D03*
X0000800000Y0001100000D03*
X0000800000Y0001200000D03*
X0000800000Y0001300000D03*
X0000800000Y0001400000D03*
X0000800000Y0001500000D03*
X0000500000Y0001500000D03*
X0000500000Y0001400000D03*
X0000500000Y0001300000D03*
X0000500000Y0001200000D03*
X0000500000Y0001100000D03*
X0000500000Y0001000000D03*
X0000500000Y0000900000D03*
X0000500000Y0000800000D03*
X0000500000Y0000700000D03*
D21*
X0000600000Y0000150000D03*
X0000850000Y0002150000D03*
X0000150000Y0002150000D03*
D22*
X0000800000Y0001701574D03*
D23*
X0000800000Y0001800000D03*
D11*
X0000400000Y0002200000D03*
D12*
X0000500000Y0002200000D03*
X0000600000Y0002200000D03*
D24*
X0000240000Y0001832204D03*
D25*
X0000240000Y0001970000D03*
D24*
X0000240000Y0001542204D03*
D25*
X0000240000Y0001680000D03*
D12*
X0001011417Y0001277952D03*
X0001188582Y0001277952D03*
X0001011417Y0001022047D03*
X0001188582Y0001022047D03*
D26*
X0000592283Y0002050000D03*
X0000627716Y0002050000D03*
D17*
X0001025000Y0000075000D03*
X0001025000Y0000175000D03*
D12*
X0001025000Y0000475000D03*
D11*
X0001025000Y0000575000D03*
D12*
X0001025000Y0001925000D03*
D11*
X0001025000Y0002025000D03*
D12*
X0001025000Y0001725000D03*
D11*
X0001025000Y0001825000D03*
D27*
X0000675000Y0000275000D03*
X0000675000Y0000525000D03*
X0000775000Y0000275000D03*
X0000775000Y0000525000D03*
X0001150000Y0001375000D03*
X0001150000Y0001625000D03*
X0001050000Y0001375000D03*
X0001050000Y0001625000D03*
X0001150000Y0000925000D03*
X0001150000Y0000675000D03*
X0001050000Y0000925000D03*
X0001050000Y0000675000D03*
D16*
X0000900000Y0000100000D03*
X0000900000Y0000200000D03*
X0000900000Y0000300000D03*
X0000900000Y0000400000D03*
X0000900000Y0000500000D03*
X0000900000Y0000600000D03*
X0000900000Y0000700000D03*
X0000900000Y0000800000D03*
X0000900000Y0000900000D03*
X0000900000Y0001000000D03*
X0000900000Y0001100000D03*
X0000900000Y0001200000D03*
X0000900000Y0001300000D03*
X0000900000Y0001400000D03*
D11*
X0000100000Y0000950000D03*
D12*
X0000100000Y0001048425D03*
X0000100000Y0001146850D03*
X0000100000Y0001245275D03*
X0000100000Y0001343700D03*
D13*
X0000178740Y0000887007D03*
G04 next file*
G04 #@! TF.FileFunction,Soldermask,Bot*
G04 Gerber Fmt 4.6, Leading zero omitted, Abs format (unit mm)*
G04 Created by KiCad (PCBNEW 4.0.6) date 02/13/20 12:12:51*
G01*
G04 APERTURE LIST*
G04 APERTURE END LIST*
D38*
D39*
X-0002327165Y-0002398425D02*
X0002072834Y0002501574D03*
D40*
X0001974409Y0002501574D03*
X0001875984Y0002501574D03*
X0001777559Y0002501574D03*
X0001679133Y0002501574D03*
D41*
X0002135826Y0002580315D03*
D42*
X0000622834Y0002901574D03*
D43*
X0000522834Y0002901574D03*
X0000422834Y0002901574D03*
D44*
X0002222834Y0002701574D03*
X0002122834Y0002701574D03*
X0002022834Y0002701574D03*
X0001922834Y0002701574D03*
X0001822834Y0002701574D03*
X0001722834Y0002701574D03*
X0001622834Y0002701574D03*
X0001522834Y0002701574D03*
X0001422834Y0002701574D03*
X0001322834Y0002701574D03*
X0001222834Y0002701574D03*
X0001122834Y0002701574D03*
X0001022834Y0002701574D03*
X0000922834Y0002701574D03*
D40*
X0000347834Y0003088149D03*
X0000347834Y0003285000D03*
X0002047834Y0003426574D03*
D39*
X0001947834Y0003426574D03*
D45*
X0000197834Y0003426574D03*
X0000097834Y0003426574D03*
D46*
X0001872834Y0002851574D03*
D47*
X0001872834Y0002950000D03*
D39*
X0002047834Y0002826574D03*
D40*
X0002146259Y0002826574D03*
D48*
X0001622834Y0003201574D03*
X0001522834Y0003201574D03*
X0001422834Y0003201574D03*
X0001322834Y0003201574D03*
X0001222834Y0003201574D03*
X0001122834Y0003201574D03*
X0001022834Y0003201574D03*
X0000922834Y0003201574D03*
X0000822834Y0003201574D03*
X0000822834Y0002901574D03*
X0000922834Y0002901574D03*
X0001022834Y0002901574D03*
X0001122834Y0002901574D03*
X0001222834Y0002901574D03*
X0001322834Y0002901574D03*
X0001422834Y0002901574D03*
X0001522834Y0002901574D03*
X0001622834Y0002901574D03*
D49*
X0002172834Y0003001574D03*
X0000172834Y0003251574D03*
X0000172834Y0002551574D03*
D50*
X0000621259Y0003201574D03*
D51*
X0000522834Y0003201574D03*
D39*
X0000122834Y0002801574D03*
D40*
X0000122834Y0002901574D03*
X0000122834Y0003001574D03*
D52*
X0000490629Y0002641574D03*
D53*
X0000352834Y0002641574D03*
D52*
X0000780629Y0002641574D03*
D53*
X0000642834Y0002641574D03*
D40*
X0001044881Y0003412992D03*
X0001044881Y0003590157D03*
X0001300787Y0003412992D03*
X0001300787Y0003590157D03*
D54*
X0000272834Y0002993858D03*
X0000272834Y0003029291D03*
D45*
X0002247834Y0003426574D03*
X0002147834Y0003426574D03*
D40*
X0001847834Y0003426574D03*
D39*
X0001747834Y0003426574D03*
D40*
X0000397834Y0003426574D03*
D39*
X0000297834Y0003426574D03*
D40*
X0000597834Y0003426574D03*
D39*
X0000497834Y0003426574D03*
D55*
X0002047834Y0003076574D03*
X0001797834Y0003076574D03*
X0002047834Y0003176574D03*
X0001797834Y0003176574D03*
X0000947834Y0003551574D03*
X0000697834Y0003551574D03*
X0000947834Y0003451574D03*
X0000697834Y0003451574D03*
X0001397834Y0003551574D03*
X0001647834Y0003551574D03*
X0001397834Y0003451574D03*
X0001647834Y0003451574D03*
D44*
X0002222834Y0003301574D03*
X0002122834Y0003301574D03*
X0002022834Y0003301574D03*
X0001922834Y0003301574D03*
X0001822834Y0003301574D03*
X0001722834Y0003301574D03*
X0001622834Y0003301574D03*
X0001522834Y0003301574D03*
X0001422834Y0003301574D03*
X0001322834Y0003301574D03*
X0001222834Y0003301574D03*
X0001122834Y0003301574D03*
X0001022834Y0003301574D03*
X0000922834Y0003301574D03*
D39*
X0001372834Y0002501574D03*
D40*
X0001274409Y0002501574D03*
X0001175984Y0002501574D03*
X0001077559Y0002501574D03*
X0000979133Y0002501574D03*
D41*
X0001435826Y0002580315D03*
G04 next file*
G04 #@! TF.FileFunction,Soldermask,Bot*
G04 Gerber Fmt 4.6, Leading zero omitted, Abs format (unit mm)*
G04 Created by KiCad (PCBNEW 4.0.6) date 02/13/20 12:12:51*
G01*
G04 APERTURE LIST*
G04 APERTURE END LIST*
D56*
D57*
X-0003461417Y0004650000D02*
X0001438582Y0000250000D03*
D58*
X0001438582Y0000348425D03*
X0001438582Y0000446850D03*
X0001438582Y0000545275D03*
X0001438582Y0000643700D03*
D59*
X0001517322Y0000187007D03*
D60*
X0001838582Y0001700000D03*
D61*
X0001838582Y0001800000D03*
X0001838582Y0001900000D03*
D62*
X0001638582Y0000100000D03*
X0001638582Y0000200000D03*
X0001638582Y0000300000D03*
X0001638582Y0000400000D03*
X0001638582Y0000500000D03*
X0001638582Y0000600000D03*
X0001638582Y0000700000D03*
X0001638582Y0000800000D03*
X0001638582Y0000900000D03*
X0001638582Y0001000000D03*
X0001638582Y0001100000D03*
X0001638582Y0001200000D03*
X0001638582Y0001300000D03*
X0001638582Y0001400000D03*
D58*
X0002025157Y0001975000D03*
X0002222007Y0001975000D03*
X0002363582Y0000275000D03*
D57*
X0002363582Y0000375000D03*
D63*
X0002363582Y0002125000D03*
X0002363582Y0002225000D03*
D64*
X0001788582Y0000450000D03*
D65*
X0001887007Y0000450000D03*
D57*
X0001763582Y0000275000D03*
D58*
X0001763582Y0000176574D03*
D66*
X0002138582Y0000700000D03*
X0002138582Y0000800000D03*
X0002138582Y0000900000D03*
X0002138582Y0001000000D03*
X0002138582Y0001100000D03*
X0002138582Y0001200000D03*
X0002138582Y0001300000D03*
X0002138582Y0001400000D03*
X0002138582Y0001500000D03*
X0001838582Y0001500000D03*
X0001838582Y0001400000D03*
X0001838582Y0001300000D03*
X0001838582Y0001200000D03*
X0001838582Y0001100000D03*
X0001838582Y0001000000D03*
X0001838582Y0000900000D03*
X0001838582Y0000800000D03*
X0001838582Y0000700000D03*
D67*
X0001938582Y0000150000D03*
X0002188582Y0002150000D03*
X0001488582Y0002150000D03*
D68*
X0002138582Y0001701574D03*
D69*
X0002138582Y0001800000D03*
D57*
X0001738582Y0002200000D03*
D58*
X0001838582Y0002200000D03*
X0001938582Y0002200000D03*
D70*
X0001578582Y0001832204D03*
D71*
X0001578582Y0001970000D03*
D70*
X0001578582Y0001542204D03*
D71*
X0001578582Y0001680000D03*
D58*
X0002350000Y0001277952D03*
X0002527165Y0001277952D03*
X0002350000Y0001022047D03*
X0002527165Y0001022047D03*
D72*
X0001930866Y0002050000D03*
X0001966299Y0002050000D03*
D63*
X0002363582Y0000075000D03*
X0002363582Y0000175000D03*
D58*
X0002363582Y0000475000D03*
D57*
X0002363582Y0000575000D03*
D58*
X0002363582Y0001925000D03*
D57*
X0002363582Y0002025000D03*
D58*
X0002363582Y0001725000D03*
D57*
X0002363582Y0001825000D03*
D73*
X0002013582Y0000275000D03*
X0002013582Y0000525000D03*
X0002113582Y0000275000D03*
X0002113582Y0000525000D03*
X0002488582Y0001375000D03*
X0002488582Y0001625000D03*
X0002388582Y0001375000D03*
X0002388582Y0001625000D03*
X0002488582Y0000925000D03*
X0002488582Y0000675000D03*
X0002388582Y0000925000D03*
X0002388582Y0000675000D03*
D62*
X0002238582Y0000100000D03*
X0002238582Y0000200000D03*
X0002238582Y0000300000D03*
X0002238582Y0000400000D03*
X0002238582Y0000500000D03*
X0002238582Y0000600000D03*
X0002238582Y0000700000D03*
X0002238582Y0000800000D03*
X0002238582Y0000900000D03*
X0002238582Y0001000000D03*
X0002238582Y0001100000D03*
X0002238582Y0001200000D03*
X0002238582Y0001300000D03*
X0002238582Y0001400000D03*
D57*
X0001438582Y0000950000D03*
D58*
X0001438582Y0001048425D03*
X0001438582Y0001146850D03*
X0001438582Y0001245275D03*
X0001438582Y0001343700D03*
D59*
X0001517322Y0000887007D03*
G04 next file*
G04 #@! TF.FileFunction,Soldermask,Bot*
G04 Gerber Fmt 4.6, Leading zero omitted, Abs format (unit mm)*
G04 Created by KiCad (PCBNEW 4.0.6) date 02/13/20 12:12:51*
G01*
G04 APERTURE LIST*
G04 APERTURE END LIST*
D74*
D75*
X-0002122834Y0004650000D02*
X0002777165Y0000250000D03*
D76*
X0002777165Y0000348425D03*
X0002777165Y0000446850D03*
X0002777165Y0000545275D03*
X0002777165Y0000643700D03*
D77*
X0002855905Y0000187007D03*
D78*
X0003177165Y0001700000D03*
D79*
X0003177165Y0001800000D03*
X0003177165Y0001900000D03*
D80*
X0002977165Y0000100000D03*
X0002977165Y0000200000D03*
X0002977165Y0000300000D03*
X0002977165Y0000400000D03*
X0002977165Y0000500000D03*
X0002977165Y0000600000D03*
X0002977165Y0000700000D03*
X0002977165Y0000800000D03*
X0002977165Y0000900000D03*
X0002977165Y0001000000D03*
X0002977165Y0001100000D03*
X0002977165Y0001200000D03*
X0002977165Y0001300000D03*
X0002977165Y0001400000D03*
D76*
X0003363740Y0001975000D03*
X0003560590Y0001975000D03*
X0003702165Y0000275000D03*
D75*
X0003702165Y0000375000D03*
D81*
X0003702165Y0002125000D03*
X0003702165Y0002225000D03*
D82*
X0003127165Y0000450000D03*
D83*
X0003225590Y0000450000D03*
D75*
X0003102165Y0000275000D03*
D76*
X0003102165Y0000176574D03*
D84*
X0003477165Y0000700000D03*
X0003477165Y0000800000D03*
X0003477165Y0000900000D03*
X0003477165Y0001000000D03*
X0003477165Y0001100000D03*
X0003477165Y0001200000D03*
X0003477165Y0001300000D03*
X0003477165Y0001400000D03*
X0003477165Y0001500000D03*
X0003177165Y0001500000D03*
X0003177165Y0001400000D03*
X0003177165Y0001300000D03*
X0003177165Y0001200000D03*
X0003177165Y0001100000D03*
X0003177165Y0001000000D03*
X0003177165Y0000900000D03*
X0003177165Y0000800000D03*
X0003177165Y0000700000D03*
D85*
X0003277165Y0000150000D03*
X0003527165Y0002150000D03*
X0002827165Y0002150000D03*
D86*
X0003477165Y0001701574D03*
D87*
X0003477165Y0001800000D03*
D75*
X0003077165Y0002200000D03*
D76*
X0003177165Y0002200000D03*
X0003277165Y0002200000D03*
D88*
X0002917165Y0001832204D03*
D89*
X0002917165Y0001970000D03*
D88*
X0002917165Y0001542204D03*
D89*
X0002917165Y0001680000D03*
D76*
X0003688582Y0001277952D03*
X0003865748Y0001277952D03*
X0003688582Y0001022047D03*
X0003865748Y0001022047D03*
D90*
X0003269448Y0002050000D03*
X0003304881Y0002050000D03*
D81*
X0003702165Y0000075000D03*
X0003702165Y0000175000D03*
D76*
X0003702165Y0000475000D03*
D75*
X0003702165Y0000575000D03*
D76*
X0003702165Y0001925000D03*
D75*
X0003702165Y0002025000D03*
D76*
X0003702165Y0001725000D03*
D75*
X0003702165Y0001825000D03*
D91*
X0003352165Y0000275000D03*
X0003352165Y0000525000D03*
X0003452165Y0000275000D03*
X0003452165Y0000525000D03*
X0003827165Y0001375000D03*
X0003827165Y0001625000D03*
X0003727165Y0001375000D03*
X0003727165Y0001625000D03*
X0003827165Y0000925000D03*
X0003827165Y0000675000D03*
X0003727165Y0000925000D03*
X0003727165Y0000675000D03*
D80*
X0003577165Y0000100000D03*
X0003577165Y0000200000D03*
X0003577165Y0000300000D03*
X0003577165Y0000400000D03*
X0003577165Y0000500000D03*
X0003577165Y0000600000D03*
X0003577165Y0000700000D03*
X0003577165Y0000800000D03*
X0003577165Y0000900000D03*
X0003577165Y0001000000D03*
X0003577165Y0001100000D03*
X0003577165Y0001200000D03*
X0003577165Y0001300000D03*
X0003577165Y0001400000D03*
D75*
X0002777165Y0000950000D03*
D76*
X0002777165Y0001048425D03*
X0002777165Y0001146850D03*
X0002777165Y0001245275D03*
X0002777165Y0001343700D03*
D77*
X0002855905Y0000887007D03*
M02*