%MOIN*%
%OFA0B0*%
%FSLAX44Y44*%
%IPPOS*%
%LPD*%
%ADD10C,0*%
D10*
X00011544Y00023984D02*
X00011544Y00023984D01*
X00027757Y00023984D01*
X00027789Y00023982D01*
X00027821Y00023978D01*
X00027853Y00023972D01*
X00027884Y00023962D01*
X00027915Y00023951D01*
X00027944Y00023936D01*
X00027972Y00023920D01*
X00027999Y00023901D01*
X00028023Y00023879D01*
X00028046Y00023856D01*
X00028067Y00023832D01*
X00028086Y00023805D01*
X00028103Y00023777D01*
X00028117Y00023748D01*
X00028129Y00023717D01*
X00028138Y00023686D01*
X00028145Y00023654D01*
X00028149Y00023622D01*
X00028150Y00023589D01*
X00028149Y00023557D01*
X00028125Y00023280D01*
X00028123Y00023256D01*
X00028118Y00023233D01*
X00028113Y00023210D01*
X00028106Y00023187D01*
X00028098Y00023165D01*
X00028088Y00023143D01*
X00028077Y00023122D01*
X00028065Y00023101D01*
X00028052Y00023082D01*
X00028037Y00023063D01*
X00028022Y00023045D01*
X00028005Y00023028D01*
X00027987Y00023012D01*
X00027969Y00022997D01*
X00027949Y00022984D01*
X00027929Y00022971D01*
X00027908Y00022960D01*
X00027887Y00022950D01*
X00027865Y00022942D01*
X00027842Y00022934D01*
X00027776Y00022915D01*
X00027620Y00022851D01*
X00027473Y00022770D01*
X00027336Y00022672D01*
X00027210Y00022560D01*
X00027098Y00022435D01*
X00027001Y00022298D01*
X00026920Y00022150D01*
X00026855Y00021995D01*
X00026809Y00021833D01*
X00026781Y00021667D01*
X00026771Y00021500D01*
X00026771Y00012753D01*
X00026770Y00012725D01*
X00026767Y00012697D01*
X00026762Y00012670D01*
X00026755Y00012643D01*
X00026747Y00012616D01*
X00026736Y00012590D01*
X00026723Y00012565D01*
X00026709Y00012541D01*
X00026693Y00012518D01*
X00026676Y00012496D01*
X00026657Y00012476D01*
X00026637Y00012457D01*
X00026615Y00012439D01*
X00026592Y00012423D01*
X00026568Y00012408D01*
X00026543Y00012396D01*
X00026517Y00012385D01*
X00026491Y00012376D01*
X00026464Y00012369D01*
X00026436Y00012364D01*
X00026338Y00012349D01*
X00026304Y00012345D01*
X00026270Y00012345D01*
X00026237Y00012347D01*
X00026203Y00012352D01*
X00026170Y00012360D01*
X00026138Y00012371D01*
X00026107Y00012384D01*
X00026077Y00012400D01*
X00026049Y00012419D01*
X00026022Y00012440D01*
X00025998Y00012463D01*
X00025975Y00012488D01*
X00025955Y00012515D01*
X00025937Y00012544D01*
X00025921Y00012574D01*
X00025908Y00012605D01*
X00025898Y00012638D01*
X00025891Y00012671D01*
X00025887Y00012704D01*
X00025885Y00012738D01*
X00025885Y00021500D01*
X00025876Y00021667D01*
X00025848Y00021833D01*
X00025801Y00021995D01*
X00025737Y00022150D01*
X00025655Y00022298D01*
X00025558Y00022435D01*
X00025446Y00022560D01*
X00025321Y00022672D01*
X00025183Y00022770D01*
X00025036Y00022851D01*
X00024881Y00022915D01*
X00024719Y00022962D01*
X00024553Y00022990D01*
X00024385Y00023000D01*
X00014885Y00023000D01*
X00014717Y00022990D01*
X00014552Y00022962D01*
X00014390Y00022915D01*
X00014234Y00022851D01*
X00014087Y00022770D01*
X00013950Y00022672D01*
X00013825Y00022560D01*
X00013713Y00022435D01*
X00013615Y00022298D01*
X00013534Y00022150D01*
X00013469Y00021995D01*
X00013423Y00021833D01*
X00013395Y00021667D01*
X00013385Y00021500D01*
X00013385Y00012985D01*
X00013383Y00012947D01*
X00013378Y00012908D01*
X00013368Y00012871D01*
X00013355Y00012834D01*
X00013339Y00012799D01*
X00013319Y00012766D01*
X00013296Y00012735D01*
X00013270Y00012707D01*
X00013241Y00012681D01*
X00013210Y00012658D01*
X00013177Y00012638D01*
X00013142Y00012621D01*
X00013106Y00012608D01*
X00013068Y00012599D01*
X00013030Y00012593D01*
X00012991Y00012591D01*
X00012952Y00012593D01*
X00012914Y00012599D01*
X00012877Y00012609D01*
X00012840Y00012622D01*
X00012742Y00012663D01*
X00012721Y00012672D01*
X00012700Y00012683D01*
X00012680Y00012695D01*
X00012661Y00012708D01*
X00012643Y00012722D01*
X00012626Y00012737D01*
X00012609Y00012754D01*
X00012594Y00012771D01*
X00012579Y00012789D01*
X00012566Y00012808D01*
X00012553Y00012827D01*
X00012542Y00012848D01*
X00012532Y00012869D01*
X00012524Y00012890D01*
X00012516Y00012912D01*
X00012510Y00012934D01*
X00012506Y00012957D01*
X00012502Y00012980D01*
X00012500Y00013003D01*
X00012499Y00013026D01*
X00012499Y00021500D01*
X00012490Y00021667D01*
X00012462Y00021833D01*
X00012415Y00021995D01*
X00012351Y00022150D01*
X00012270Y00022298D01*
X00012172Y00022435D01*
X00012060Y00022560D01*
X00011935Y00022672D01*
X00011798Y00022770D01*
X00011650Y00022851D01*
X00011495Y00022915D01*
X00011454Y00022927D01*
X00011431Y00022935D01*
X00011408Y00022943D01*
X00011387Y00022953D01*
X00011365Y00022965D01*
X00011345Y00022978D01*
X00011325Y00022992D01*
X00011306Y00023007D01*
X00011289Y00023023D01*
X00011272Y00023040D01*
X00011256Y00023058D01*
X00011242Y00023078D01*
X00011228Y00023098D01*
X00011216Y00023118D01*
X00011205Y00023140D01*
X00011196Y00023162D01*
X00011188Y00023185D01*
X00011181Y00023208D01*
X00011176Y00023231D01*
X00011172Y00023255D01*
X00011170Y00023279D01*
X00011151Y00023564D01*
X00011150Y00023596D01*
X00011152Y00023628D01*
X00011156Y00023660D01*
X00011163Y00023692D01*
X00011173Y00023722D01*
X00011185Y00023752D01*
X00011199Y00023781D01*
X00011216Y00023808D01*
X00011235Y00023835D01*
X00011256Y00023859D01*
X00011279Y00023882D01*
X00011304Y00023902D01*
X00011330Y00023921D01*
X00011358Y00023937D01*
X00011387Y00023951D01*
X00011417Y00023963D01*
X00011448Y00023972D01*
X00011479Y00023978D01*
X00011511Y00023982D01*
X00011544Y00023984D01*
X00009416Y00024121D02*
X00009416Y00024121D01*
X00009431Y00024114D01*
X00009445Y00024107D01*
X00009460Y00024099D01*
X00009473Y00024091D01*
X00009487Y00024082D01*
X00009500Y00024073D01*
X00009513Y00024063D01*
X00009526Y00024052D01*
X00009537Y00024041D01*
X00009549Y00024030D01*
X00009560Y00024018D01*
X00009570Y00024006D01*
X00009580Y00023993D01*
X00009590Y00023980D01*
X00009599Y00023966D01*
X00009607Y00023952D01*
X00009615Y00023938D01*
X00009622Y00023923D01*
X00009629Y00023908D01*
X00009635Y00023893D01*
X00009769Y00023530D01*
X00009780Y00023493D01*
X00009788Y00023456D01*
X00009792Y00023419D01*
X00009793Y00023381D01*
X00009790Y00023343D01*
X00009783Y00023306D01*
X00009773Y00023269D01*
X00009760Y00023234D01*
X00009743Y00023200D01*
X00009722Y00023168D01*
X00009699Y00023138D01*
X00009673Y00023110D01*
X00009645Y00023085D01*
X00009614Y00023063D01*
X00009582Y00023044D01*
X00009547Y00023028D01*
X00009512Y00023016D01*
X00009475Y00023007D01*
X00009437Y00023001D01*
X00009399Y00023000D01*
X00001500Y00023000D01*
X00001332Y00022990D01*
X00001166Y00022962D01*
X00001004Y00022915D01*
X00000849Y00022851D01*
X00000701Y00022770D01*
X00000564Y00022672D01*
X00000439Y00022560D01*
X00000327Y00022435D01*
X00000229Y00022298D01*
X00000148Y00022150D01*
X00000084Y00021995D01*
X00000037Y00021833D01*
X00000009Y00021667D01*
X00000000Y00021500D01*
X00000000Y00001499D01*
X00000009Y00001332D01*
X00000037Y00001166D01*
X00000084Y00001004D01*
X00000148Y00000849D01*
X00000229Y00000701D01*
X00000327Y00000564D01*
X00000439Y00000439D01*
X00000564Y00000327D01*
X00000701Y00000229D01*
X00000849Y00000148D01*
X00001004Y00000084D01*
X00001166Y00000037D01*
X00001332Y00000009D01*
X00001500Y00000000D01*
X00011000Y00000000D01*
X00011167Y00000009D01*
X00011333Y00000037D01*
X00011495Y00000084D01*
X00011650Y00000148D01*
X00011798Y00000229D01*
X00011935Y00000327D01*
X00012060Y00000439D01*
X00012172Y00000564D01*
X00012270Y00000701D01*
X00012351Y00000849D01*
X00012415Y00001004D01*
X00012462Y00001166D01*
X00012490Y00001332D01*
X00012499Y00001499D01*
X00012499Y00010798D01*
X00012500Y00010821D01*
X00012502Y00010844D01*
X00012506Y00010867D01*
X00012510Y00010890D01*
X00012516Y00010912D01*
X00012524Y00010934D01*
X00012532Y00010956D01*
X00012542Y00010977D01*
X00012553Y00010997D01*
X00012566Y00011017D01*
X00012579Y00011035D01*
X00012594Y00011053D01*
X00012609Y00011071D01*
X00012626Y00011087D01*
X00012643Y00011102D01*
X00012661Y00011116D01*
X00012680Y00011129D01*
X00012700Y00011141D01*
X00012721Y00011152D01*
X00012742Y00011162D01*
X00012840Y00011203D01*
X00012877Y00011216D01*
X00012914Y00011225D01*
X00012952Y00011231D01*
X00012991Y00011233D01*
X00013030Y00011231D01*
X00013068Y00011225D01*
X00013106Y00011216D01*
X00013142Y00011203D01*
X00013177Y00011186D01*
X00013210Y00011167D01*
X00013241Y00011144D01*
X00013270Y00011118D01*
X00013296Y00011089D01*
X00013319Y00011058D01*
X00013339Y00011025D01*
X00013355Y00010990D01*
X00013368Y00010953D01*
X00013378Y00010916D01*
X00013383Y00010878D01*
X00013385Y00010839D01*
X00013385Y00001499D01*
X00013395Y00001332D01*
X00013423Y00001166D01*
X00013469Y00001004D01*
X00013534Y00000849D01*
X00013615Y00000701D01*
X00013713Y00000564D01*
X00013825Y00000439D01*
X00013950Y00000327D01*
X00014087Y00000229D01*
X00014234Y00000148D01*
X00014390Y00000084D01*
X00014552Y00000037D01*
X00014717Y00000009D01*
X00014885Y00000000D01*
X00024385Y00000000D01*
X00024553Y00000009D01*
X00024719Y00000037D01*
X00024881Y00000084D01*
X00025036Y00000148D01*
X00025183Y00000229D01*
X00025321Y00000327D01*
X00025446Y00000439D01*
X00025558Y00000564D01*
X00025655Y00000701D01*
X00025737Y00000849D01*
X00025801Y00001004D01*
X00025848Y00001166D01*
X00025876Y00001332D01*
X00025885Y00001499D01*
X00025885Y00010564D01*
X00025887Y00010597D01*
X00025891Y00010631D01*
X00025898Y00010664D01*
X00025908Y00010696D01*
X00025921Y00010728D01*
X00025937Y00010758D01*
X00025955Y00010787D01*
X00025975Y00010814D01*
X00025998Y00010839D01*
X00026022Y00010862D01*
X00026049Y00010883D01*
X00026077Y00010902D01*
X00026107Y00010918D01*
X00026138Y00010931D01*
X00026170Y00010942D01*
X00026203Y00010950D01*
X00026237Y00010955D01*
X00026270Y00010957D01*
X00026304Y00010956D01*
X00026338Y00010953D01*
X00026436Y00010938D01*
X00026464Y00010933D01*
X00026491Y00010926D01*
X00026517Y00010917D01*
X00026543Y00010906D01*
X00026568Y00010893D01*
X00026592Y00010879D01*
X00026615Y00010863D01*
X00026637Y00010845D01*
X00026657Y00010826D01*
X00026676Y00010805D01*
X00026693Y00010784D01*
X00026709Y00010761D01*
X00026723Y00010737D01*
X00026736Y00010711D01*
X00026747Y00010686D01*
X00026755Y00010659D01*
X00026762Y00010632D01*
X00026767Y00010604D01*
X00026770Y00010577D01*
X00026771Y00010549D01*
X00026771Y00001499D01*
X00026781Y00001332D01*
X00026809Y00001166D01*
X00026855Y00001004D01*
X00026920Y00000849D01*
X00027001Y00000701D01*
X00027098Y00000564D01*
X00027210Y00000439D01*
X00027336Y00000327D01*
X00027473Y00000229D01*
X00027620Y00000148D01*
X00027776Y00000084D01*
X00027937Y00000037D01*
X00028103Y00000009D01*
X00028271Y00000000D01*
X00037771Y00000000D01*
X00037939Y00000009D01*
X00038105Y00000037D01*
X00038267Y00000084D01*
X00038422Y00000148D01*
X00038569Y00000229D01*
X00038706Y00000327D01*
X00038832Y00000439D01*
X00038944Y00000564D01*
X00039041Y00000701D01*
X00039123Y00000849D01*
X00039187Y00001004D01*
X00039234Y00001166D01*
X00039262Y00001332D01*
X00039271Y00001499D01*
X00039271Y00021500D01*
X00039262Y00021667D01*
X00039234Y00021833D01*
X00039187Y00021995D01*
X00039123Y00022150D01*
X00039041Y00022298D01*
X00038944Y00022435D01*
X00038832Y00022560D01*
X00038706Y00022672D01*
X00038569Y00022770D01*
X00038422Y00022851D01*
X00038267Y00022915D01*
X00038105Y00022962D01*
X00037939Y00022990D01*
X00037771Y00023000D01*
X00029901Y00023000D01*
X00029865Y00023001D01*
X00029830Y00023006D01*
X00029795Y00023014D01*
X00029761Y00023025D01*
X00029728Y00023039D01*
X00029697Y00023056D01*
X00029667Y00023076D01*
X00029639Y00023099D01*
X00029614Y00023124D01*
X00029590Y00023151D01*
X00029570Y00023180D01*
X00029552Y00023211D01*
X00029537Y00023243D01*
X00029525Y00023277D01*
X00029516Y00023311D01*
X00029510Y00023346D01*
X00029507Y00023382D01*
X00029508Y00023418D01*
X00029512Y00023453D01*
X00029519Y00023488D01*
X00029568Y00023685D01*
X00029575Y00023710D01*
X00029584Y00023735D01*
X00029594Y00023759D01*
X00029606Y00023782D01*
X00029619Y00023804D01*
X00029634Y00023826D01*
X00029651Y00023846D01*
X00029668Y00023865D01*
X00029687Y00023883D01*
X00029707Y00023900D01*
X00029728Y00023916D01*
X00029750Y00023930D01*
X00029773Y00023942D01*
X00029797Y00023953D01*
X00029821Y00023962D01*
X00029846Y00023970D01*
X00029872Y00023976D01*
X00029898Y00023980D01*
X00029924Y00023983D01*
X00029950Y00023984D01*
X00030039Y00023984D01*
X00030207Y00023993D01*
X00030373Y00024021D01*
X00030534Y00024068D01*
X00030690Y00024132D01*
X00030837Y00024214D01*
X00030974Y00024311D01*
X00031100Y00024423D01*
X00031212Y00024549D01*
X00031309Y00024686D01*
X00031390Y00024833D01*
X00031455Y00024988D01*
X00031501Y00025150D01*
X00031529Y00025316D01*
X00031539Y00025484D01*
X00031539Y00034984D01*
X00031529Y00035152D01*
X00031501Y00035318D01*
X00031455Y00035479D01*
X00031390Y00035635D01*
X00031309Y00035782D01*
X00031212Y00035919D01*
X00031100Y00036044D01*
X00030974Y00036156D01*
X00030837Y00036254D01*
X00030690Y00036335D01*
X00030534Y00036400D01*
X00030373Y00036446D01*
X00030207Y00036474D01*
X00030039Y00036484D01*
X00010039Y00036484D01*
X00009871Y00036474D01*
X00009705Y00036446D01*
X00009543Y00036400D01*
X00009388Y00036335D01*
X00009241Y00036254D01*
X00009104Y00036156D01*
X00008978Y00036044D01*
X00008866Y00035919D01*
X00008769Y00035782D01*
X00008687Y00035635D01*
X00008623Y00035479D01*
X00008576Y00035318D01*
X00008548Y00035152D01*
X00008539Y00034984D01*
X00008539Y00025484D01*
X00008548Y00025316D01*
X00008576Y00025150D01*
X00008623Y00024988D01*
X00008687Y00024833D01*
X00008769Y00024686D01*
X00008866Y00024549D01*
X00008978Y00024423D01*
X00009104Y00024311D01*
X00009241Y00024214D01*
X00009388Y00024132D01*
X00009416Y00024121D01*
M02*