%MOIN*%
%OFA0B0*%
%FSLAX46Y46*%
%IPPOS*%
%LPD*%
%ADD10C,0.0039370078740157488*%
%ADD11R,0.07874015748031496X0.07874015748031496*%
%ADD12C,0.07874015748031496*%
%ADD13R,0.08X0.068*%
%ADD14O,0.08X0.068*%
%ADD15O,0.086614173228346469X0.066929133858267723*%
%ADD16C,0.066*%
%ADD17R,0.070866141732283464X0.070866141732283464*%
%ADD18C,0.070866141732283464*%
%ADD19O,0.07874015748031496X0.062992125984251982*%
%ADD20C,0.062992125984251982*%
%ADD21R,0.062992125984251982X0.062992125984251982*%
%ADD22C,0.094488188976377951*%
%ADD23R,0.094488188976377951X0.094488188976377951*%
%ADD24R,0.015748031496062995X0.023622047244094488*%
%ADD25C,0.0787*%
%ADD26C,0.027*%
%ADD27C,0.024000000000000004*%
%ADD28C,0.016*%
%ADD29C,0.012000000000000002*%
%ADD30C,0.01*%
%ADD41C,0.0039370078740157488*%
%ADD42R,0.07874015748031496X0.07874015748031496*%
%ADD43C,0.07874015748031496*%
%ADD44R,0.068X0.08*%
%ADD45O,0.068X0.08*%
%ADD46O,0.066929133858267723X0.086614173228346469*%
%ADD47C,0.066*%
%ADD48R,0.070866141732283464X0.070866141732283464*%
%ADD49C,0.070866141732283464*%
%ADD50O,0.062992125984251982X0.07874015748031496*%
%ADD51C,0.062992125984251982*%
%ADD52R,0.062992125984251982X0.062992125984251982*%
%ADD53C,0.094488188976377951*%
%ADD54R,0.094488188976377951X0.094488188976377951*%
%ADD55R,0.023622047244094488X0.015748031496062995*%
%ADD56C,0.0787*%
%ADD57C,0.027*%
%ADD58C,0.024000000000000004*%
%ADD59C,0.016*%
%ADD60C,0.012000000000000002*%
%ADD61C,0.01*%
%ADD62C,0.0039370078740157488*%
%ADD63R,0.07874015748031496X0.07874015748031496*%
%ADD64C,0.07874015748031496*%
%ADD65R,0.08X0.068*%
%ADD66O,0.08X0.068*%
%ADD67O,0.086614173228346469X0.066929133858267723*%
%ADD68C,0.066*%
%ADD69R,0.070866141732283464X0.070866141732283464*%
%ADD70C,0.070866141732283464*%
%ADD71O,0.07874015748031496X0.062992125984251982*%
%ADD72C,0.062992125984251982*%
%ADD73R,0.062992125984251982X0.062992125984251982*%
%ADD74C,0.094488188976377951*%
%ADD75R,0.094488188976377951X0.094488188976377951*%
%ADD76R,0.015748031496062995X0.023622047244094488*%
%ADD77C,0.0787*%
%ADD78C,0.027*%
%ADD79C,0.024000000000000004*%
%ADD80C,0.016*%
%ADD81C,0.012000000000000002*%
%ADD82C,0.01*%
%ADD83C,0.0039370078740157488*%
%ADD84R,0.07874015748031496X0.07874015748031496*%
%ADD85C,0.07874015748031496*%
%ADD86R,0.08X0.068*%
%ADD87O,0.08X0.068*%
%ADD88O,0.086614173228346469X0.066929133858267723*%
%ADD89C,0.066*%
%ADD90R,0.070866141732283464X0.070866141732283464*%
%ADD91C,0.070866141732283464*%
%ADD92O,0.07874015748031496X0.062992125984251982*%
%ADD93C,0.062992125984251982*%
%ADD94R,0.062992125984251982X0.062992125984251982*%
%ADD95C,0.094488188976377951*%
%ADD96R,0.094488188976377951X0.094488188976377951*%
%ADD97R,0.015748031496062995X0.023622047244094488*%
%ADD98C,0.0787*%
%ADD99C,0.027*%
%ADD100C,0.024000000000000004*%
%ADD101C,0.016*%
%ADD102C,0.012000000000000002*%
%ADD103C,0.01*%
G01*
D10*
D11*
X-0004799999Y0004650000D02*
X0000100000Y0000250000D03*
D12*
X0000100000Y0000348425D03*
X0000100000Y0000446850D03*
X0000100000Y0000545275D03*
X0000100000Y0000643700D03*
D13*
X0000500000Y0001700000D03*
D14*
X0000500000Y0001800000D03*
X0000500000Y0001900000D03*
D15*
X0000300000Y0000100000D03*
X0000300000Y0000200000D03*
X0000300000Y0000300000D03*
X0000300000Y0000400000D03*
X0000300000Y0000500000D03*
X0000300000Y0000600000D03*
X0000300000Y0000700000D03*
X0000300000Y0000800000D03*
X0000300000Y0000900000D03*
X0000300000Y0001000000D03*
X0000300000Y0001100000D03*
X0000300000Y0001200000D03*
X0000300000Y0001300000D03*
X0000300000Y0001400000D03*
D12*
X0000686574Y0001975000D03*
X0000883425Y0001975000D03*
X0001025000Y0000275000D03*
D11*
X0001025000Y0000375000D03*
D16*
X0001025000Y0002125000D03*
X0001025000Y0002225000D03*
D17*
X0000450000Y0000450000D03*
D18*
X0000548425Y0000450000D03*
D11*
X0000425000Y0000275000D03*
D12*
X0000425000Y0000176574D03*
D19*
X0000800000Y0000700000D03*
X0000800000Y0000800000D03*
X0000800000Y0000900000D03*
X0000800000Y0001000000D03*
X0000800000Y0001100000D03*
X0000800000Y0001200000D03*
X0000800000Y0001300000D03*
X0000800000Y0001400000D03*
X0000800000Y0001500000D03*
X0000500000Y0001500000D03*
X0000500000Y0001400000D03*
X0000500000Y0001300000D03*
X0000500000Y0001200000D03*
X0000500000Y0001100000D03*
X0000500000Y0001000000D03*
X0000500000Y0000900000D03*
X0000500000Y0000800000D03*
X0000500000Y0000700000D03*
D20*
X0000800000Y0001701574D03*
D21*
X0000800000Y0001800000D03*
D11*
X0000400000Y0002200000D03*
D12*
X0000500000Y0002200000D03*
X0000600000Y0002200000D03*
D22*
X0000240000Y0001832204D03*
D23*
X0000240000Y0001970000D03*
D22*
X0000240000Y0001542204D03*
D23*
X0000240000Y0001680000D03*
D12*
X0001011417Y0001277952D03*
X0001188582Y0001277952D03*
X0001011417Y0001022047D03*
X0001188582Y0001022047D03*
D24*
X0000592283Y0002050000D03*
X0000627716Y0002050000D03*
D16*
X0001025000Y0000075000D03*
X0001025000Y0000175000D03*
D12*
X0001025000Y0000475000D03*
D11*
X0001025000Y0000575000D03*
D12*
X0001025000Y0001925000D03*
D11*
X0001025000Y0002025000D03*
D12*
X0001025000Y0001725000D03*
D11*
X0001025000Y0001825000D03*
D25*
X0000675000Y0000275000D03*
X0000675000Y0000525000D03*
X0000775000Y0000275000D03*
X0000775000Y0000525000D03*
X0001150000Y0001375000D03*
X0001150000Y0001625000D03*
X0001050000Y0001375000D03*
X0001050000Y0001625000D03*
X0001150000Y0000925000D03*
X0001150000Y0000675000D03*
X0001050000Y0000925000D03*
X0001050000Y0000675000D03*
D15*
X0000900000Y0000100000D03*
X0000900000Y0000200000D03*
X0000900000Y0000300000D03*
X0000900000Y0000400000D03*
X0000900000Y0000500000D03*
X0000900000Y0000600000D03*
X0000900000Y0000700000D03*
X0000900000Y0000800000D03*
X0000900000Y0000900000D03*
X0000900000Y0001000000D03*
X0000900000Y0001100000D03*
X0000900000Y0001200000D03*
X0000900000Y0001300000D03*
X0000900000Y0001400000D03*
D11*
X0000100000Y0000950000D03*
D12*
X0000100000Y0001048425D03*
X0000100000Y0001146850D03*
X0000100000Y0001245275D03*
X0000100000Y0001343700D03*
D26*
X0000080000Y0001430000D03*
D27*
X0000425000Y0000176574D02*
X0000461574Y0000176574D01*
X0000461574Y0000176574D02*
X0000548425Y0000263425D01*
X0000548425Y0000263425D02*
X0000548425Y0000450000D01*
X0001025000Y0001925000D02*
X0000933425Y0001925000D01*
X0000933425Y0001925000D02*
X0000883425Y0001975000D01*
X0000500000Y0001900000D02*
X0000808425Y0001900000D01*
X0000808425Y0001900000D02*
X0000883425Y0001975000D01*
X0001025000Y0000175000D02*
X0001025000Y0000275000D01*
X0001025000Y0000275000D02*
X0001050000Y0000275000D01*
X0001050000Y0000275000D02*
X0001125000Y0000350000D01*
X0001075000Y0000475000D02*
X0001025000Y0000475000D01*
X0001125000Y0000425000D02*
X0001075000Y0000475000D01*
X0001125000Y0000350000D02*
X0001125000Y0000425000D01*
X0000425000Y0000176574D02*
X0000425000Y0000180000D01*
D28*
X0000883425Y0001975000D02*
X0000875000Y0001975000D01*
X0001025000Y0000475000D02*
X0001000000Y0000475000D01*
X0001025000Y0001925000D02*
X0001000000Y0001925000D01*
X0001005000Y0000475000D02*
X0001025000Y0000475000D01*
D27*
X0000425000Y0000176574D02*
X0000426574Y0000176574D01*
X0000500000Y0001900000D02*
X0000425000Y0001900000D01*
X0000425000Y0001900000D02*
X0000355000Y0001970000D01*
X0000355000Y0001970000D02*
X0000240000Y0001970000D01*
D28*
X0001015000Y0002225000D02*
X0001025000Y0002225000D01*
X0000300000Y0000700000D02*
X0000390000Y0000700000D01*
X0000600000Y0000800000D02*
X0000800000Y0000800000D01*
X0000550000Y0000750000D02*
X0000600000Y0000800000D01*
X0000440000Y0000750000D02*
X0000550000Y0000750000D01*
X0000390000Y0000700000D02*
X0000440000Y0000750000D01*
X0000975000Y0000875000D02*
X0000975000Y0000790000D01*
X0000975000Y0000875000D02*
X0000975000Y0000985629D01*
X0001011417Y0001022047D02*
X0000975000Y0000985629D01*
X0000935000Y0000750000D02*
X0000650000Y0000750000D01*
X0000975000Y0000790000D02*
X0000935000Y0000750000D01*
X0000300000Y0000500000D02*
X0000350000Y0000500000D01*
X0000525000Y0000625000D02*
X0000650000Y0000750000D01*
X0000475000Y0000625000D02*
X0000525000Y0000625000D01*
X0000350000Y0000500000D02*
X0000475000Y0000625000D01*
X0000300000Y0000400000D02*
X0000440000Y0000540000D01*
X0000655000Y0000700000D02*
X0000800000Y0000700000D01*
X0000495000Y0000540000D02*
X0000655000Y0000700000D01*
X0000440000Y0000540000D02*
X0000495000Y0000540000D01*
X0000100000Y0000348425D02*
X0000158425Y0000348425D01*
X0000225000Y0000725000D02*
X0000250000Y0000750000D01*
X0000425000Y0000800000D02*
X0000500000Y0000800000D01*
X0000375000Y0000750000D02*
X0000250000Y0000750000D01*
X0000425000Y0000800000D02*
X0000375000Y0000750000D01*
X0000225000Y0000555000D02*
X0000225000Y0000725000D01*
X0000200000Y0000530000D02*
X0000225000Y0000555000D01*
X0000200000Y0000390000D02*
X0000200000Y0000530000D01*
X0000158425Y0000348425D02*
X0000200000Y0000390000D01*
X0000275000Y0000550000D02*
X0000255000Y0000550000D01*
X0000225000Y0000325000D02*
X0000150000Y0000250000D01*
X0000100000Y0000250000D02*
X0000150000Y0000250000D01*
X0000400000Y0000600000D02*
X0000500000Y0000700000D01*
X0000400000Y0000600000D02*
X0000350000Y0000550000D01*
X0000350000Y0000550000D02*
X0000275000Y0000550000D01*
X0000225000Y0000500000D02*
X0000225000Y0000325000D01*
X0000225000Y0000520000D02*
X0000225000Y0000500000D01*
X0000255000Y0000550000D02*
X0000225000Y0000520000D01*
X0000100000Y0001048425D02*
X0000148425Y0001048425D01*
X0000452500Y0001202500D02*
X0000500000Y0001200000D01*
X0000402500Y0001152500D02*
X0000452500Y0001202500D01*
X0000250000Y0001150000D02*
X0000402500Y0001152500D01*
X0000148425Y0001048425D02*
X0000250000Y0001150000D01*
X0000101574Y0001050000D02*
X0000100000Y0001048425D01*
X0000101574Y0001050000D02*
X0000100000Y0001048425D01*
X0000500000Y0001100000D02*
X0000425000Y0001100000D01*
X0000150000Y0000950000D02*
X0000100000Y0000950000D01*
X0000250000Y0001050000D02*
X0000150000Y0000950000D01*
X0000375000Y0001050000D02*
X0000250000Y0001050000D01*
X0000425000Y0001100000D02*
X0000375000Y0001050000D01*
X0000200000Y0000775000D02*
X0000200000Y0000800000D01*
X0000500000Y0000900000D02*
X0000425000Y0000900000D01*
X0000250000Y0000850000D02*
X0000225000Y0000825000D01*
X0000375000Y0000850000D02*
X0000250000Y0000850000D01*
X0000425000Y0000900000D02*
X0000375000Y0000850000D01*
X0000141850Y0000446850D02*
X0000175000Y0000480000D01*
X0000175000Y0000480000D02*
X0000175000Y0000540000D01*
X0000175000Y0000540000D02*
X0000200000Y0000565000D01*
X0000200000Y0000565000D02*
X0000200000Y0000775000D01*
X0000141850Y0000446850D02*
X0000100000Y0000446850D01*
X0000200000Y0000800000D02*
X0000225000Y0000825000D01*
X0000100000Y0000450000D02*
X0000100000Y0000448425D01*
X0000100000Y0000450000D02*
X0000100000Y0000448425D01*
X0000100000Y0000545275D02*
X0000110275Y0000545275D01*
X0000110275Y0000545275D02*
X0000175000Y0000610000D01*
X0000430000Y0001000000D02*
X0000500000Y0001000000D01*
X0000380000Y0000950000D02*
X0000430000Y0001000000D01*
X0000250000Y0000950000D02*
X0000380000Y0000950000D01*
X0000225000Y0000925000D02*
X0000250000Y0000950000D01*
X0000225000Y0000860000D02*
X0000225000Y0000925000D01*
X0000175000Y0000810000D02*
X0000225000Y0000860000D01*
X0000175000Y0000610000D02*
X0000175000Y0000810000D01*
X0000100000Y0000545275D02*
X0000130275Y0000545275D01*
X0000100000Y0000550000D02*
X0000100000Y0000546850D01*
X0000500000Y0001300000D02*
X0000450000Y0001300000D01*
X0000203149Y0001250000D02*
X0000100000Y0001146850D01*
X0000400000Y0001250000D02*
X0000203149Y0001250000D01*
X0000450000Y0001300000D02*
X0000400000Y0001250000D01*
X0000500000Y0001400000D02*
X0000425000Y0001400000D01*
X0000204724Y0001350000D02*
X0000100000Y0001245275D01*
X0000375000Y0001350000D02*
X0000204724Y0001350000D01*
X0000425000Y0001400000D02*
X0000375000Y0001350000D01*
X0000800000Y0000900000D02*
X0000900000Y0000900000D01*
X0000800000Y0001000000D02*
X0000900000Y0001000000D01*
X0000900000Y0000500000D02*
X0000870000Y0000500000D01*
X0000870000Y0000500000D02*
X0000835000Y0000465000D01*
X0000835000Y0000465000D02*
X0000835000Y0000205000D01*
X0000835000Y0000205000D02*
X0000725000Y0000095000D01*
X0000035000Y0001385000D02*
X0000080000Y0001430000D01*
X0000035000Y0000180000D02*
X0000035000Y0001385000D01*
X0000180000Y0000035000D02*
X0000035000Y0000180000D01*
X0000665000Y0000035000D02*
X0000180000Y0000035000D01*
X0000725000Y0000095000D02*
X0000665000Y0000035000D01*
X0001095000Y0000985000D02*
X0001095000Y0000980000D01*
X0001095000Y0000985000D02*
X0001095000Y0001320000D01*
X0001150000Y0001375000D02*
X0001095000Y0001320000D01*
X0001095000Y0000980000D02*
X0001150000Y0000925000D01*
X0000590000Y0001430000D02*
X0000590000Y0001460000D01*
X0000300000Y0001000000D02*
X0000380000Y0001000000D01*
X0000590000Y0001095000D02*
X0000590000Y0001430000D01*
X0000545000Y0001050000D02*
X0000590000Y0001095000D01*
X0000430000Y0001050000D02*
X0000545000Y0001050000D01*
X0000380000Y0001000000D02*
X0000430000Y0001050000D01*
X0000975000Y0001580000D02*
X0001150000Y0001405000D01*
X0000710000Y0001580000D02*
X0000975000Y0001580000D01*
X0000590000Y0001460000D02*
X0000710000Y0001580000D01*
X0001150000Y0001405000D02*
X0001150000Y0001375000D01*
X0001025000Y0000375000D02*
X0001050000Y0000375000D01*
X0001050000Y0001625000D02*
X0001050000Y0001630000D01*
X0001050000Y0001630000D02*
X0001100000Y0001680000D01*
X0001100000Y0001680000D02*
X0001100000Y0001785000D01*
X0001100000Y0001785000D02*
X0001060000Y0001825000D01*
X0001060000Y0001825000D02*
X0001025000Y0001825000D01*
X0001025000Y0000575000D02*
X0001005000Y0000575000D01*
X0001150000Y0001625000D02*
X0001150000Y0001955000D01*
X0001080000Y0002025000D02*
X0001025000Y0002025000D01*
X0001150000Y0001955000D02*
X0001080000Y0002025000D01*
X0000300000Y0000800000D02*
X0000375000Y0000800000D01*
X0000725000Y0001400000D02*
X0000800000Y0001400000D01*
X0000675000Y0001350000D02*
X0000725000Y0001400000D01*
X0000675000Y0000950000D02*
X0000675000Y0001350000D01*
X0000575000Y0000850000D02*
X0000675000Y0000950000D01*
X0000425000Y0000850000D02*
X0000575000Y0000850000D01*
X0000375000Y0000800000D02*
X0000425000Y0000850000D01*
X0000960000Y0000425000D02*
X0000960000Y0000520000D01*
X0001025000Y0000075000D02*
X0000960000Y0000140000D01*
X0000960000Y0000225000D02*
X0000960000Y0000140000D01*
X0000960000Y0000225000D02*
X0000960000Y0000425000D01*
X0000930000Y0000550000D02*
X0000800000Y0000550000D01*
X0000960000Y0000520000D02*
X0000930000Y0000550000D01*
X0000800000Y0000550000D02*
X0000775000Y0000525000D01*
X0001025000Y0000075000D02*
X0001010000Y0000075000D01*
X0001025000Y0000075000D02*
X0001045000Y0000075000D01*
X0000890000Y0002050000D02*
X0000895000Y0002050000D01*
X0000895000Y0002050000D02*
X0000970000Y0002125000D01*
X0000970000Y0002125000D02*
X0001025000Y0002125000D01*
X0000627716Y0002050000D02*
X0000890000Y0002050000D01*
X0001015000Y0002125000D02*
X0001025000Y0002125000D01*
D29*
X0000425000Y0000275000D02*
X0000425000Y0000425000D01*
X0000425000Y0000425000D02*
X0000450000Y0000450000D01*
X0000300000Y0000100000D02*
X0000320000Y0000100000D01*
X0000320000Y0000100000D02*
X0000365000Y0000145000D01*
X0000365000Y0000215000D02*
X0000425000Y0000275000D01*
X0000365000Y0000145000D02*
X0000365000Y0000215000D01*
D28*
X0000500000Y0001800000D02*
X0000800000Y0001800000D01*
X0000800000Y0001100000D02*
X0000900000Y0001100000D01*
X0000800000Y0001200000D02*
X0000900000Y0001200000D01*
X0000800000Y0001300000D02*
X0000900000Y0001300000D01*
X0000625000Y0001375000D02*
X0000625000Y0001455000D01*
X0000300000Y0000900000D02*
X0000375000Y0000900000D01*
X0000625000Y0001050000D02*
X0000625000Y0001375000D01*
X0000525000Y0000950000D02*
X0000625000Y0001050000D01*
X0000425000Y0000950000D02*
X0000525000Y0000950000D01*
X0000375000Y0000900000D02*
X0000425000Y0000950000D01*
X0001050000Y0001440000D02*
X0001050000Y0001375000D01*
X0000935000Y0001555000D02*
X0001050000Y0001440000D01*
X0000725000Y0001555000D02*
X0000935000Y0001555000D01*
X0000625000Y0001455000D02*
X0000725000Y0001555000D01*
X0000150000Y0002050000D02*
X0000120000Y0002020000D01*
X0000120000Y0002020000D02*
X0000120000Y0001530000D01*
X0000120000Y0001530000D02*
X0000180000Y0001470000D01*
X0000180000Y0001470000D02*
X0000350000Y0001470000D01*
X0000350000Y0001470000D02*
X0000470000Y0001590000D01*
X0000470000Y0001590000D02*
X0000510000Y0001590000D01*
X0000510000Y0001590000D02*
X0000560000Y0001540000D01*
X0000560000Y0001540000D02*
X0000560000Y0001280000D01*
X0000560000Y0001280000D02*
X0000530000Y0001250000D01*
X0000530000Y0001250000D02*
X0000450000Y0001250000D01*
X0000150000Y0002050000D02*
X0000592283Y0002050000D01*
X0000300000Y0001200000D02*
X0000400000Y0001200000D01*
X0000450000Y0001250000D02*
X0000400000Y0001200000D01*
D30*
G36*
X0001200629Y0000154862D02*
X0001192076Y0000111860D01*
X0001170472Y0000079527D01*
X0001138139Y0000057923D01*
X0001098402Y0000050019D01*
X0001102356Y0000059542D01*
X0001102383Y0000090322D01*
X0001090629Y0000118769D01*
X0001070557Y0000138876D01*
X0001075609Y0000144410D01*
X0001082416Y0000160843D01*
X0001077649Y0000169999D01*
X0001037071Y0000169999D01*
X0001032627Y0000174443D01*
X0001025556Y0000167372D01*
X0001030000Y0000162928D01*
X0001030000Y0000152365D01*
X0001021689Y0000152373D01*
X0001020000Y0000154062D01*
X0001020000Y0000162928D01*
X0001024443Y0000167372D01*
X0001017372Y0000174443D01*
X0001012928Y0000169999D01*
X0001012370Y0000169999D01*
X0001012370Y0000180000D01*
X0001012928Y0000180000D01*
X0001017372Y0000175556D01*
X0001024443Y0000182627D01*
X0001020000Y0000187071D01*
X0001020000Y0000210400D01*
X0001030000Y0000210770D01*
X0001030000Y0000180000D01*
X0001077649Y0000180000D01*
X0001082416Y0000189156D01*
X0001072628Y0000210051D01*
X0001060247Y0000221357D01*
X0001063304Y0000229624D01*
X0001025000Y0000267928D01*
X0001024443Y0000267372D01*
X0001017372Y0000274443D01*
X0001017928Y0000275000D01*
X0001017372Y0000275556D01*
X0001024443Y0000282627D01*
X0001025000Y0000282071D01*
X0001025556Y0000282627D01*
X0001032627Y0000275556D01*
X0001032071Y0000275000D01*
X0001070375Y0000236695D01*
X0001080881Y0000240580D01*
X0001089799Y0000264585D01*
X0001088852Y0000290175D01*
X0001086078Y0000296872D01*
X0001095914Y0000303202D01*
X0001106045Y0000318029D01*
X0001109609Y0000335629D01*
X0001109609Y0000414370D01*
X0001106515Y0000430812D01*
X0001096798Y0000445914D01*
X0001085684Y0000453507D01*
X0001089799Y0000464585D01*
X0001088852Y0000490175D01*
X0001086078Y0000496872D01*
X0001095914Y0000503202D01*
X0001106045Y0000518029D01*
X0001109609Y0000535629D01*
X0001109609Y0000601120D01*
X0001133274Y0000591294D01*
X0001166579Y0000591265D01*
X0001197361Y0000603984D01*
X0001200629Y0000607246D01*
X0001200629Y0000154862D01*
X0001200629Y0000154862D01*
G37*
X0001200629Y0000154862D02*
X0001192076Y0000111860D01*
X0001170472Y0000079527D01*
X0001138139Y0000057923D01*
X0001098402Y0000050019D01*
X0001102356Y0000059542D01*
X0001102383Y0000090322D01*
X0001090629Y0000118769D01*
X0001070557Y0000138876D01*
X0001075609Y0000144410D01*
X0001082416Y0000160843D01*
X0001077649Y0000169999D01*
X0001037071Y0000169999D01*
X0001032627Y0000174443D01*
X0001025556Y0000167372D01*
X0001030000Y0000162928D01*
X0001030000Y0000152365D01*
X0001021689Y0000152373D01*
X0001020000Y0000154062D01*
X0001020000Y0000162928D01*
X0001024443Y0000167372D01*
X0001017372Y0000174443D01*
X0001012928Y0000169999D01*
X0001012370Y0000169999D01*
X0001012370Y0000180000D01*
X0001012928Y0000180000D01*
X0001017372Y0000175556D01*
X0001024443Y0000182627D01*
X0001020000Y0000187071D01*
X0001020000Y0000210400D01*
X0001030000Y0000210770D01*
X0001030000Y0000180000D01*
X0001077649Y0000180000D01*
X0001082416Y0000189156D01*
X0001072628Y0000210051D01*
X0001060247Y0000221357D01*
X0001063304Y0000229624D01*
X0001025000Y0000267928D01*
X0001024443Y0000267372D01*
X0001017372Y0000274443D01*
X0001017928Y0000275000D01*
X0001017372Y0000275556D01*
X0001024443Y0000282627D01*
X0001025000Y0000282071D01*
X0001025556Y0000282627D01*
X0001032627Y0000275556D01*
X0001032071Y0000275000D01*
X0001070375Y0000236695D01*
X0001080881Y0000240580D01*
X0001089799Y0000264585D01*
X0001088852Y0000290175D01*
X0001086078Y0000296872D01*
X0001095914Y0000303202D01*
X0001106045Y0000318029D01*
X0001109609Y0000335629D01*
X0001109609Y0000414370D01*
X0001106515Y0000430812D01*
X0001096798Y0000445914D01*
X0001085684Y0000453507D01*
X0001089799Y0000464585D01*
X0001088852Y0000490175D01*
X0001086078Y0000496872D01*
X0001095914Y0000503202D01*
X0001106045Y0000518029D01*
X0001109609Y0000535629D01*
X0001109609Y0000601120D01*
X0001133274Y0000591294D01*
X0001166579Y0000591265D01*
X0001197361Y0000603984D01*
X0001200629Y0000607246D01*
X0001200629Y0000154862D01*
G36*
X0000736840Y0000646354D02*
X0000761452Y0000629908D01*
X0000790485Y0000624133D01*
X0000809514Y0000624133D01*
X0000815648Y0000625353D01*
X0000811076Y0000602370D01*
X0000806983Y0000602370D01*
X0000791726Y0000608705D01*
X0000758420Y0000608734D01*
X0000727638Y0000596015D01*
X0000725016Y0000593398D01*
X0000722485Y0000595933D01*
X0000691726Y0000608705D01*
X0000658420Y0000608734D01*
X0000627638Y0000596015D01*
X0000604067Y0000572485D01*
X0000591294Y0000541726D01*
X0000591265Y0000508420D01*
X0000603984Y0000477638D01*
X0000627514Y0000454066D01*
X0000658274Y0000441294D01*
X0000691579Y0000441265D01*
X0000722361Y0000453984D01*
X0000724983Y0000456601D01*
X0000727514Y0000454066D01*
X0000758274Y0000441294D01*
X0000782629Y0000441273D01*
X0000782629Y0000358713D01*
X0000758420Y0000358734D01*
X0000727638Y0000346015D01*
X0000725016Y0000343398D01*
X0000722485Y0000345933D01*
X0000691726Y0000358705D01*
X0000658420Y0000358734D01*
X0000627638Y0000346015D01*
X0000604067Y0000322485D01*
X0000591294Y0000291726D01*
X0000591265Y0000258420D01*
X0000591292Y0000258354D01*
X0000578543Y0000258365D01*
X0000538706Y0000241905D01*
X0000508201Y0000211453D01*
X0000491672Y0000171645D01*
X0000491634Y0000128543D01*
X0000508094Y0000088706D01*
X0000509429Y0000087370D01*
X0000386882Y0000087370D01*
X0000388938Y0000097704D01*
X0000400617Y0000109382D01*
X0000404675Y0000115456D01*
X0000414585Y0000111775D01*
X0000440175Y0000112722D01*
X0000459419Y0000120693D01*
X0000463304Y0000131199D01*
X0000425000Y0000169503D01*
X0000424443Y0000168946D01*
X0000417372Y0000176017D01*
X0000417928Y0000176574D01*
X0000417372Y0000177131D01*
X0000424443Y0000184202D01*
X0000425000Y0000183645D01*
X0000425556Y0000184202D01*
X0000432627Y0000177131D01*
X0000432071Y0000176574D01*
X0000470375Y0000138270D01*
X0000480881Y0000142154D01*
X0000489799Y0000166159D01*
X0000488852Y0000191750D01*
X0000486593Y0000197204D01*
X0000495914Y0000203202D01*
X0000506045Y0000218029D01*
X0000509609Y0000235629D01*
X0000509609Y0000314370D01*
X0000506515Y0000330812D01*
X0000496798Y0000345914D01*
X0000481970Y0000356045D01*
X0000475370Y0000357381D01*
X0000475370Y0000369327D01*
X0000485433Y0000369327D01*
X0000501875Y0000372421D01*
X0000516977Y0000382139D01*
X0000525185Y0000394151D01*
X0000538950Y0000389115D01*
X0000562970Y0000390124D01*
X0000580478Y0000397376D01*
X0000583880Y0000407474D01*
X0000548425Y0000442928D01*
X0000547868Y0000442372D01*
X0000540797Y0000449443D01*
X0000541354Y0000450000D01*
X0000555496Y0000450000D01*
X0000590951Y0000414545D01*
X0000601048Y0000417946D01*
X0000609309Y0000440525D01*
X0000608300Y0000464545D01*
X0000601048Y0000482053D01*
X0000590951Y0000485454D01*
X0000555496Y0000450000D01*
X0000541354Y0000450000D01*
X0000540797Y0000450556D01*
X0000547868Y0000457627D01*
X0000548425Y0000457071D01*
X0000583880Y0000492525D01*
X0000580478Y0000502623D01*
X0000557900Y0000510884D01*
X0000539159Y0000510097D01*
X0000676692Y0000647629D01*
X0000735987Y0000647629D01*
X0000736840Y0000646354D01*
X0000736840Y0000646354D01*
G37*
X0000736840Y0000646354D02*
X0000761452Y0000629908D01*
X0000790485Y0000624133D01*
X0000809514Y0000624133D01*
X0000815648Y0000625353D01*
X0000811076Y0000602370D01*
X0000806983Y0000602370D01*
X0000791726Y0000608705D01*
X0000758420Y0000608734D01*
X0000727638Y0000596015D01*
X0000725016Y0000593398D01*
X0000722485Y0000595933D01*
X0000691726Y0000608705D01*
X0000658420Y0000608734D01*
X0000627638Y0000596015D01*
X0000604067Y0000572485D01*
X0000591294Y0000541726D01*
X0000591265Y0000508420D01*
X0000603984Y0000477638D01*
X0000627514Y0000454066D01*
X0000658274Y0000441294D01*
X0000691579Y0000441265D01*
X0000722361Y0000453984D01*
X0000724983Y0000456601D01*
X0000727514Y0000454066D01*
X0000758274Y0000441294D01*
X0000782629Y0000441273D01*
X0000782629Y0000358713D01*
X0000758420Y0000358734D01*
X0000727638Y0000346015D01*
X0000725016Y0000343398D01*
X0000722485Y0000345933D01*
X0000691726Y0000358705D01*
X0000658420Y0000358734D01*
X0000627638Y0000346015D01*
X0000604067Y0000322485D01*
X0000591294Y0000291726D01*
X0000591265Y0000258420D01*
X0000591292Y0000258354D01*
X0000578543Y0000258365D01*
X0000538706Y0000241905D01*
X0000508201Y0000211453D01*
X0000491672Y0000171645D01*
X0000491634Y0000128543D01*
X0000508094Y0000088706D01*
X0000509429Y0000087370D01*
X0000386882Y0000087370D01*
X0000388938Y0000097704D01*
X0000400617Y0000109382D01*
X0000404675Y0000115456D01*
X0000414585Y0000111775D01*
X0000440175Y0000112722D01*
X0000459419Y0000120693D01*
X0000463304Y0000131199D01*
X0000425000Y0000169503D01*
X0000424443Y0000168946D01*
X0000417372Y0000176017D01*
X0000417928Y0000176574D01*
X0000417372Y0000177131D01*
X0000424443Y0000184202D01*
X0000425000Y0000183645D01*
X0000425556Y0000184202D01*
X0000432627Y0000177131D01*
X0000432071Y0000176574D01*
X0000470375Y0000138270D01*
X0000480881Y0000142154D01*
X0000489799Y0000166159D01*
X0000488852Y0000191750D01*
X0000486593Y0000197204D01*
X0000495914Y0000203202D01*
X0000506045Y0000218029D01*
X0000509609Y0000235629D01*
X0000509609Y0000314370D01*
X0000506515Y0000330812D01*
X0000496798Y0000345914D01*
X0000481970Y0000356045D01*
X0000475370Y0000357381D01*
X0000475370Y0000369327D01*
X0000485433Y0000369327D01*
X0000501875Y0000372421D01*
X0000516977Y0000382139D01*
X0000525185Y0000394151D01*
X0000538950Y0000389115D01*
X0000562970Y0000390124D01*
X0000580478Y0000397376D01*
X0000583880Y0000407474D01*
X0000548425Y0000442928D01*
X0000547868Y0000442372D01*
X0000540797Y0000449443D01*
X0000541354Y0000450000D01*
X0000555496Y0000450000D01*
X0000590951Y0000414545D01*
X0000601048Y0000417946D01*
X0000609309Y0000440525D01*
X0000608300Y0000464545D01*
X0000601048Y0000482053D01*
X0000590951Y0000485454D01*
X0000555496Y0000450000D01*
X0000541354Y0000450000D01*
X0000540797Y0000450556D01*
X0000547868Y0000457627D01*
X0000548425Y0000457071D01*
X0000583880Y0000492525D01*
X0000580478Y0000502623D01*
X0000557900Y0000510884D01*
X0000539159Y0000510097D01*
X0000676692Y0000647629D01*
X0000735987Y0000647629D01*
X0000736840Y0000646354D01*
G36*
X0000305000Y0000205000D02*
X0000305787Y0000205000D01*
X0000305787Y0000195000D01*
X0000305000Y0000195000D01*
X0000305000Y0000194212D01*
X0000295000Y0000194212D01*
X0000295000Y0000195000D01*
X0000294212Y0000195000D01*
X0000294212Y0000205000D01*
X0000295000Y0000205000D01*
X0000295000Y0000205787D01*
X0000305000Y0000205787D01*
X0000305000Y0000205000D01*
X0000305000Y0000205000D01*
G37*
X0000305000Y0000205000D02*
X0000305787Y0000205000D01*
X0000305787Y0000195000D01*
X0000305000Y0000195000D01*
X0000305000Y0000194212D01*
X0000295000Y0000194212D01*
X0000295000Y0000195000D01*
X0000294212Y0000195000D01*
X0000294212Y0000205000D01*
X0000295000Y0000205000D01*
X0000295000Y0000205787D01*
X0000305000Y0000205787D01*
X0000305000Y0000205000D01*
G36*
X0001032627Y0000475556D02*
X0001032071Y0000475000D01*
X0001032627Y0000474443D01*
X0001025556Y0000467372D01*
X0001025000Y0000467928D01*
X0001024443Y0000467372D01*
X0001017372Y0000474443D01*
X0001017928Y0000475000D01*
X0001017372Y0000475556D01*
X0001024443Y0000482627D01*
X0001025000Y0000482071D01*
X0001025556Y0000482627D01*
X0001032627Y0000475556D01*
X0001032627Y0000475556D01*
G37*
X0001032627Y0000475556D02*
X0001032071Y0000475000D01*
X0001032627Y0000474443D01*
X0001025556Y0000467372D01*
X0001025000Y0000467928D01*
X0001024443Y0000467372D01*
X0001017372Y0000474443D01*
X0001017928Y0000475000D01*
X0001017372Y0000475556D01*
X0001024443Y0000482627D01*
X0001025000Y0000482071D01*
X0001025556Y0000482627D01*
X0001032627Y0000475556D01*
G36*
X0001196210Y0001022604D02*
X0001195653Y0001022047D01*
X0001196210Y0001021490D01*
X0001189139Y0001014419D01*
X0001188582Y0001014976D01*
X0001188025Y0001014419D01*
X0001180954Y0001021490D01*
X0001181511Y0001022047D01*
X0001180954Y0001022604D01*
X0001188025Y0001029675D01*
X0001188582Y0001029118D01*
X0001189139Y0001029675D01*
X0001196210Y0001022604D01*
X0001196210Y0001022604D01*
G37*
X0001196210Y0001022604D02*
X0001195653Y0001022047D01*
X0001196210Y0001021490D01*
X0001189139Y0001014419D01*
X0001188582Y0001014976D01*
X0001188025Y0001014419D01*
X0001180954Y0001021490D01*
X0001181511Y0001022047D01*
X0001180954Y0001022604D01*
X0001188025Y0001029675D01*
X0001188582Y0001029118D01*
X0001189139Y0001029675D01*
X0001196210Y0001022604D01*
G36*
X0001196210Y0001278509D02*
X0001195653Y0001277952D01*
X0001196210Y0001277395D01*
X0001189139Y0001270324D01*
X0001188582Y0001270881D01*
X0001188025Y0001270324D01*
X0001180954Y0001277395D01*
X0001181511Y0001277952D01*
X0001180954Y0001278509D01*
X0001188025Y0001285580D01*
X0001188582Y0001285023D01*
X0001189139Y0001285580D01*
X0001196210Y0001278509D01*
X0001196210Y0001278509D01*
G37*
X0001196210Y0001278509D02*
X0001195653Y0001277952D01*
X0001196210Y0001277395D01*
X0001189139Y0001270324D01*
X0001188582Y0001270881D01*
X0001188025Y0001270324D01*
X0001180954Y0001277395D01*
X0001181511Y0001277952D01*
X0001180954Y0001278509D01*
X0001188025Y0001285580D01*
X0001188582Y0001285023D01*
X0001189139Y0001285580D01*
X0001196210Y0001278509D01*
G36*
X0000949427Y0001466510D02*
X0000941346Y0001471909D01*
X0000911560Y0001477834D01*
X0000888439Y0001477834D01*
X0000858653Y0001471909D01*
X0000854466Y0001469112D01*
X0000862261Y0001483987D01*
X0000862673Y0001486258D01*
X0000857870Y0001495000D01*
X0000805000Y0001495000D01*
X0000805000Y0001494212D01*
X0000795000Y0001494212D01*
X0000795000Y0001495000D01*
X0000794212Y0001495000D01*
X0000794212Y0001502629D01*
X0000913307Y0001502629D01*
X0000949427Y0001466510D01*
X0000949427Y0001466510D01*
G37*
X0000949427Y0001466510D02*
X0000941346Y0001471909D01*
X0000911560Y0001477834D01*
X0000888439Y0001477834D01*
X0000858653Y0001471909D01*
X0000854466Y0001469112D01*
X0000862261Y0001483987D01*
X0000862673Y0001486258D01*
X0000857870Y0001495000D01*
X0000805000Y0001495000D01*
X0000805000Y0001494212D01*
X0000795000Y0001494212D01*
X0000795000Y0001495000D01*
X0000794212Y0001495000D01*
X0000794212Y0001502629D01*
X0000913307Y0001502629D01*
X0000949427Y0001466510D01*
G36*
X0000566808Y0001996513D02*
X0000584409Y0001992949D01*
X0000600157Y0001992949D01*
X0000603626Y0001993602D01*
X0000602849Y0001991730D01*
X0000602820Y0001958416D01*
X0000615542Y0001927627D01*
X0000639077Y0001904049D01*
X0000669844Y0001891274D01*
X0000703158Y0001891245D01*
X0000733947Y0001903967D01*
X0000757524Y0001927503D01*
X0000758405Y0001929624D01*
X0000845121Y0001929624D01*
X0000849005Y0001919118D01*
X0000873010Y0001910200D01*
X0000898600Y0001911147D01*
X0000917845Y0001919118D01*
X0000921729Y0001929624D01*
X0000883425Y0001967928D01*
X0000845121Y0001929624D01*
X0000758405Y0001929624D01*
X0000770300Y0001958269D01*
X0000770329Y0001991583D01*
X0000767831Y0001997629D01*
X0000823163Y0001997629D01*
X0000818625Y0001985414D01*
X0000819572Y0001959824D01*
X0000827543Y0001940580D01*
X0000838049Y0001936695D01*
X0000876354Y0001975000D01*
X0000875797Y0001975556D01*
X0000882868Y0001982627D01*
X0000883425Y0001982071D01*
X0000883982Y0001982627D01*
X0000891053Y0001975556D01*
X0000890496Y0001975000D01*
X0000928800Y0001936695D01*
X0000939306Y0001940580D01*
X0000947573Y0001962832D01*
X0000953202Y0001954085D01*
X0000964315Y0001946492D01*
X0000960200Y0001935414D01*
X0000961147Y0001909824D01*
X0000963921Y0001903127D01*
X0000954085Y0001896797D01*
X0000943954Y0001881970D01*
X0000940390Y0001864370D01*
X0000940390Y0001785629D01*
X0000943484Y0001769187D01*
X0000953202Y0001754085D01*
X0000964315Y0001746492D01*
X0000960200Y0001735414D01*
X0000961147Y0001709824D01*
X0000969118Y0001690580D01*
X0000979624Y0001686695D01*
X0001017928Y0001725000D01*
X0001017372Y0001725556D01*
X0001024443Y0001732627D01*
X0001025000Y0001732071D01*
X0001025556Y0001732627D01*
X0001032627Y0001725556D01*
X0001032071Y0001725000D01*
X0001032627Y0001724443D01*
X0001025556Y0001717372D01*
X0001025000Y0001717928D01*
X0001003402Y0001696331D01*
X0001002638Y0001696015D01*
X0000979067Y0001672485D01*
X0000966294Y0001641726D01*
X0000966286Y0001632370D01*
X0000710000Y0001632370D01*
X0000689958Y0001628383D01*
X0000672968Y0001617031D01*
X0000609643Y0001553706D01*
X0000608383Y0001560041D01*
X0000608071Y0001560507D01*
X0000597031Y0001577031D01*
X0000551195Y0001622867D01*
X0000556442Y0001623854D01*
X0000571544Y0001633572D01*
X0000581675Y0001648399D01*
X0000584409Y0001661899D01*
X0000767396Y0001661899D01*
X0000770314Y0001652210D01*
X0000791465Y0001644607D01*
X0000813915Y0001645678D01*
X0000829685Y0001652210D01*
X0000832603Y0001661899D01*
X0000800000Y0001694503D01*
X0000767396Y0001661899D01*
X0000584409Y0001661899D01*
X0000585239Y0001666000D01*
X0000585239Y0001734000D01*
X0000582674Y0001747629D01*
X0000729210Y0001747629D01*
X0000736076Y0001736959D01*
X0000749409Y0001727849D01*
X0000743032Y0001710109D01*
X0000744103Y0001687659D01*
X0000750635Y0001671889D01*
X0000760325Y0001668970D01*
X0000792928Y0001701574D01*
X0000792372Y0001702131D01*
X0000799443Y0001709202D01*
X0000800000Y0001708645D01*
X0000800556Y0001709202D01*
X0000807627Y0001702131D01*
X0000807071Y0001701574D01*
X0000839675Y0001668970D01*
X0000849364Y0001671889D01*
X0000856967Y0001693040D01*
X0000855896Y0001715490D01*
X0000850667Y0001728114D01*
X0000863040Y0001736076D01*
X0000873171Y0001750903D01*
X0000876735Y0001768503D01*
X0000876735Y0001831496D01*
X0000873641Y0001847938D01*
X0000863924Y0001863040D01*
X0000849096Y0001873171D01*
X0000831496Y0001876735D01*
X0000768503Y0001876735D01*
X0000752061Y0001873641D01*
X0000736959Y0001863923D01*
X0000729065Y0001852370D01*
X0000565104Y0001852370D01*
X0000563068Y0001855416D01*
X0000551601Y0001863078D01*
X0000553178Y0001864486D01*
X0000563177Y0001885244D01*
X0000563281Y0001885865D01*
X0000558512Y0001895000D01*
X0000505000Y0001895000D01*
X0000505000Y0001894212D01*
X0000495000Y0001894212D01*
X0000495000Y0001895000D01*
X0000441487Y0001895000D01*
X0000436718Y0001885865D01*
X0000436822Y0001885244D01*
X0000446821Y0001864486D01*
X0000448398Y0001863078D01*
X0000436931Y0001855416D01*
X0000419942Y0001829990D01*
X0000413977Y0001800000D01*
X0000419942Y0001770009D01*
X0000425361Y0001761899D01*
X0000418324Y0001751600D01*
X0000414760Y0001734000D01*
X0000414760Y0001666000D01*
X0000417854Y0001649557D01*
X0000427572Y0001634455D01*
X0000435734Y0001628879D01*
X0000432968Y0001627031D01*
X0000331599Y0001525662D01*
X0000331630Y0001560347D01*
X0000317712Y0001594032D01*
X0000314306Y0001597443D01*
X0000318788Y0001600327D01*
X0000328919Y0001615155D01*
X0000332483Y0001632755D01*
X0000332483Y0001727244D01*
X0000329389Y0001743686D01*
X0000319672Y0001758788D01*
X0000305696Y0001768337D01*
X0000317621Y0001780241D01*
X0000331598Y0001813901D01*
X0000331630Y0001850347D01*
X0000317712Y0001884032D01*
X0000300561Y0001901212D01*
X0000301405Y0001901561D01*
X0000308438Y0001908594D01*
X0000310732Y0001914134D01*
X0000436718Y0001914134D01*
X0000441487Y0001905000D01*
X0000495000Y0001905000D01*
X0000495000Y0001952792D01*
X0000505000Y0001952792D01*
X0000505000Y0001905000D01*
X0000558512Y0001905000D01*
X0000563281Y0001914134D01*
X0000563177Y0001914755D01*
X0000553178Y0001935513D01*
X0000535996Y0001950864D01*
X0000514248Y0001958471D01*
X0000505000Y0001952792D01*
X0000495000Y0001952792D01*
X0000485751Y0001958471D01*
X0000464003Y0001950864D01*
X0000446821Y0001935513D01*
X0000436822Y0001914755D01*
X0000436718Y0001914134D01*
X0000310732Y0001914134D01*
X0000312244Y0001917783D01*
X0000312244Y0001958750D01*
X0000305994Y0001965000D01*
X0000245000Y0001965000D01*
X0000245000Y0001964212D01*
X0000235000Y0001964212D01*
X0000235000Y0001965000D01*
X0000234212Y0001965000D01*
X0000234212Y0001975000D01*
X0000235000Y0001975000D01*
X0000235000Y0001975787D01*
X0000245000Y0001975787D01*
X0000245000Y0001975000D01*
X0000305994Y0001975000D01*
X0000312244Y0001981250D01*
X0000312244Y0001997629D01*
X0000565175Y0001997629D01*
X0000566808Y0001996513D01*
X0000566808Y0001996513D01*
G37*
X0000566808Y0001996513D02*
X0000584409Y0001992949D01*
X0000600157Y0001992949D01*
X0000603626Y0001993602D01*
X0000602849Y0001991730D01*
X0000602820Y0001958416D01*
X0000615542Y0001927627D01*
X0000639077Y0001904049D01*
X0000669844Y0001891274D01*
X0000703158Y0001891245D01*
X0000733947Y0001903967D01*
X0000757524Y0001927503D01*
X0000758405Y0001929624D01*
X0000845121Y0001929624D01*
X0000849005Y0001919118D01*
X0000873010Y0001910200D01*
X0000898600Y0001911147D01*
X0000917845Y0001919118D01*
X0000921729Y0001929624D01*
X0000883425Y0001967928D01*
X0000845121Y0001929624D01*
X0000758405Y0001929624D01*
X0000770300Y0001958269D01*
X0000770329Y0001991583D01*
X0000767831Y0001997629D01*
X0000823163Y0001997629D01*
X0000818625Y0001985414D01*
X0000819572Y0001959824D01*
X0000827543Y0001940580D01*
X0000838049Y0001936695D01*
X0000876354Y0001975000D01*
X0000875797Y0001975556D01*
X0000882868Y0001982627D01*
X0000883425Y0001982071D01*
X0000883982Y0001982627D01*
X0000891053Y0001975556D01*
X0000890496Y0001975000D01*
X0000928800Y0001936695D01*
X0000939306Y0001940580D01*
X0000947573Y0001962832D01*
X0000953202Y0001954085D01*
X0000964315Y0001946492D01*
X0000960200Y0001935414D01*
X0000961147Y0001909824D01*
X0000963921Y0001903127D01*
X0000954085Y0001896797D01*
X0000943954Y0001881970D01*
X0000940390Y0001864370D01*
X0000940390Y0001785629D01*
X0000943484Y0001769187D01*
X0000953202Y0001754085D01*
X0000964315Y0001746492D01*
X0000960200Y0001735414D01*
X0000961147Y0001709824D01*
X0000969118Y0001690580D01*
X0000979624Y0001686695D01*
X0001017928Y0001725000D01*
X0001017372Y0001725556D01*
X0001024443Y0001732627D01*
X0001025000Y0001732071D01*
X0001025556Y0001732627D01*
X0001032627Y0001725556D01*
X0001032071Y0001725000D01*
X0001032627Y0001724443D01*
X0001025556Y0001717372D01*
X0001025000Y0001717928D01*
X0001003402Y0001696331D01*
X0001002638Y0001696015D01*
X0000979067Y0001672485D01*
X0000966294Y0001641726D01*
X0000966286Y0001632370D01*
X0000710000Y0001632370D01*
X0000689958Y0001628383D01*
X0000672968Y0001617031D01*
X0000609643Y0001553706D01*
X0000608383Y0001560041D01*
X0000608071Y0001560507D01*
X0000597031Y0001577031D01*
X0000551195Y0001622867D01*
X0000556442Y0001623854D01*
X0000571544Y0001633572D01*
X0000581675Y0001648399D01*
X0000584409Y0001661899D01*
X0000767396Y0001661899D01*
X0000770314Y0001652210D01*
X0000791465Y0001644607D01*
X0000813915Y0001645678D01*
X0000829685Y0001652210D01*
X0000832603Y0001661899D01*
X0000800000Y0001694503D01*
X0000767396Y0001661899D01*
X0000584409Y0001661899D01*
X0000585239Y0001666000D01*
X0000585239Y0001734000D01*
X0000582674Y0001747629D01*
X0000729210Y0001747629D01*
X0000736076Y0001736959D01*
X0000749409Y0001727849D01*
X0000743032Y0001710109D01*
X0000744103Y0001687659D01*
X0000750635Y0001671889D01*
X0000760325Y0001668970D01*
X0000792928Y0001701574D01*
X0000792372Y0001702131D01*
X0000799443Y0001709202D01*
X0000800000Y0001708645D01*
X0000800556Y0001709202D01*
X0000807627Y0001702131D01*
X0000807071Y0001701574D01*
X0000839675Y0001668970D01*
X0000849364Y0001671889D01*
X0000856967Y0001693040D01*
X0000855896Y0001715490D01*
X0000850667Y0001728114D01*
X0000863040Y0001736076D01*
X0000873171Y0001750903D01*
X0000876735Y0001768503D01*
X0000876735Y0001831496D01*
X0000873641Y0001847938D01*
X0000863924Y0001863040D01*
X0000849096Y0001873171D01*
X0000831496Y0001876735D01*
X0000768503Y0001876735D01*
X0000752061Y0001873641D01*
X0000736959Y0001863923D01*
X0000729065Y0001852370D01*
X0000565104Y0001852370D01*
X0000563068Y0001855416D01*
X0000551601Y0001863078D01*
X0000553178Y0001864486D01*
X0000563177Y0001885244D01*
X0000563281Y0001885865D01*
X0000558512Y0001895000D01*
X0000505000Y0001895000D01*
X0000505000Y0001894212D01*
X0000495000Y0001894212D01*
X0000495000Y0001895000D01*
X0000441487Y0001895000D01*
X0000436718Y0001885865D01*
X0000436822Y0001885244D01*
X0000446821Y0001864486D01*
X0000448398Y0001863078D01*
X0000436931Y0001855416D01*
X0000419942Y0001829990D01*
X0000413977Y0001800000D01*
X0000419942Y0001770009D01*
X0000425361Y0001761899D01*
X0000418324Y0001751600D01*
X0000414760Y0001734000D01*
X0000414760Y0001666000D01*
X0000417854Y0001649557D01*
X0000427572Y0001634455D01*
X0000435734Y0001628879D01*
X0000432968Y0001627031D01*
X0000331599Y0001525662D01*
X0000331630Y0001560347D01*
X0000317712Y0001594032D01*
X0000314306Y0001597443D01*
X0000318788Y0001600327D01*
X0000328919Y0001615155D01*
X0000332483Y0001632755D01*
X0000332483Y0001727244D01*
X0000329389Y0001743686D01*
X0000319672Y0001758788D01*
X0000305696Y0001768337D01*
X0000317621Y0001780241D01*
X0000331598Y0001813901D01*
X0000331630Y0001850347D01*
X0000317712Y0001884032D01*
X0000300561Y0001901212D01*
X0000301405Y0001901561D01*
X0000308438Y0001908594D01*
X0000310732Y0001914134D01*
X0000436718Y0001914134D01*
X0000441487Y0001905000D01*
X0000495000Y0001905000D01*
X0000495000Y0001952792D01*
X0000505000Y0001952792D01*
X0000505000Y0001905000D01*
X0000558512Y0001905000D01*
X0000563281Y0001914134D01*
X0000563177Y0001914755D01*
X0000553178Y0001935513D01*
X0000535996Y0001950864D01*
X0000514248Y0001958471D01*
X0000505000Y0001952792D01*
X0000495000Y0001952792D01*
X0000485751Y0001958471D01*
X0000464003Y0001950864D01*
X0000446821Y0001935513D01*
X0000436822Y0001914755D01*
X0000436718Y0001914134D01*
X0000310732Y0001914134D01*
X0000312244Y0001917783D01*
X0000312244Y0001958750D01*
X0000305994Y0001965000D01*
X0000245000Y0001965000D01*
X0000245000Y0001964212D01*
X0000235000Y0001964212D01*
X0000235000Y0001965000D01*
X0000234212Y0001965000D01*
X0000234212Y0001975000D01*
X0000235000Y0001975000D01*
X0000235000Y0001975787D01*
X0000245000Y0001975787D01*
X0000245000Y0001975000D01*
X0000305994Y0001975000D01*
X0000312244Y0001981250D01*
X0000312244Y0001997629D01*
X0000565175Y0001997629D01*
X0000566808Y0001996513D01*
G36*
X0001032627Y0001925556D02*
X0001032071Y0001925000D01*
X0001032627Y0001924443D01*
X0001025556Y0001917372D01*
X0001025000Y0001917928D01*
X0001024443Y0001917372D01*
X0001017372Y0001924443D01*
X0001017928Y0001925000D01*
X0001017372Y0001925556D01*
X0001024443Y0001932627D01*
X0001025000Y0001932071D01*
X0001025556Y0001932627D01*
X0001032627Y0001925556D01*
X0001032627Y0001925556D01*
G37*
X0001032627Y0001925556D02*
X0001032071Y0001925000D01*
X0001032627Y0001924443D01*
X0001025556Y0001917372D01*
X0001025000Y0001917928D01*
X0001024443Y0001917372D01*
X0001017372Y0001924443D01*
X0001017928Y0001925000D01*
X0001017372Y0001925556D01*
X0001024443Y0001932627D01*
X0001025000Y0001932071D01*
X0001025556Y0001932627D01*
X0001032627Y0001925556D01*
G36*
X0000967583Y0002239156D02*
X0000972350Y0002230000D01*
X0001012928Y0002230000D01*
X0001017372Y0002225556D01*
X0001024443Y0002232627D01*
X0001020000Y0002237071D01*
X0001020000Y0002250629D01*
X0001030000Y0002250629D01*
X0001030000Y0002237071D01*
X0001025556Y0002232627D01*
X0001032627Y0002225556D01*
X0001037071Y0002230000D01*
X0001077649Y0002230000D01*
X0001082416Y0002239156D01*
X0001077042Y0002250629D01*
X0001095137Y0002250629D01*
X0001138139Y0002242076D01*
X0001170472Y0002220472D01*
X0001192076Y0002188139D01*
X0001200629Y0002145137D01*
X0001200629Y0001963748D01*
X0001198383Y0001975041D01*
X0001191308Y0001985629D01*
X0001187031Y0001992031D01*
X0001117031Y0002062031D01*
X0001109045Y0002067367D01*
X0001106515Y0002080812D01*
X0001096798Y0002095914D01*
X0001096719Y0002095967D01*
X0001102356Y0002109542D01*
X0001102383Y0002140322D01*
X0001090629Y0002168769D01*
X0001070557Y0002188876D01*
X0001075609Y0002194410D01*
X0001082416Y0002210843D01*
X0001077649Y0002220000D01*
X0001037071Y0002220000D01*
X0001032627Y0002224443D01*
X0001025556Y0002217372D01*
X0001030000Y0002212928D01*
X0001030000Y0002202365D01*
X0001020000Y0002202374D01*
X0001020000Y0002212928D01*
X0001024443Y0002217372D01*
X0001017372Y0002224443D01*
X0001012928Y0002220000D01*
X0000972350Y0002220000D01*
X0000967583Y0002210843D01*
X0000977371Y0002189948D01*
X0000979030Y0002188433D01*
X0000967437Y0002176860D01*
X0000956991Y0002174782D01*
X0000941905Y0002211293D01*
X0000911453Y0002241798D01*
X0000890184Y0002250629D01*
X0000972335Y0002250629D01*
X0000967583Y0002239156D01*
X0000967583Y0002239156D01*
G37*
X0000967583Y0002239156D02*
X0000972350Y0002230000D01*
X0001012928Y0002230000D01*
X0001017372Y0002225556D01*
X0001024443Y0002232627D01*
X0001020000Y0002237071D01*
X0001020000Y0002250629D01*
X0001030000Y0002250629D01*
X0001030000Y0002237071D01*
X0001025556Y0002232627D01*
X0001032627Y0002225556D01*
X0001037071Y0002230000D01*
X0001077649Y0002230000D01*
X0001082416Y0002239156D01*
X0001077042Y0002250629D01*
X0001095137Y0002250629D01*
X0001138139Y0002242076D01*
X0001170472Y0002220472D01*
X0001192076Y0002188139D01*
X0001200629Y0002145137D01*
X0001200629Y0001963748D01*
X0001198383Y0001975041D01*
X0001191308Y0001985629D01*
X0001187031Y0001992031D01*
X0001117031Y0002062031D01*
X0001109045Y0002067367D01*
X0001106515Y0002080812D01*
X0001096798Y0002095914D01*
X0001096719Y0002095967D01*
X0001102356Y0002109542D01*
X0001102383Y0002140322D01*
X0001090629Y0002168769D01*
X0001070557Y0002188876D01*
X0001075609Y0002194410D01*
X0001082416Y0002210843D01*
X0001077649Y0002220000D01*
X0001037071Y0002220000D01*
X0001032627Y0002224443D01*
X0001025556Y0002217372D01*
X0001030000Y0002212928D01*
X0001030000Y0002202365D01*
X0001020000Y0002202374D01*
X0001020000Y0002212928D01*
X0001024443Y0002217372D01*
X0001017372Y0002224443D01*
X0001012928Y0002220000D01*
X0000972350Y0002220000D01*
X0000967583Y0002210843D01*
X0000977371Y0002189948D01*
X0000979030Y0002188433D01*
X0000967437Y0002176860D01*
X0000956991Y0002174782D01*
X0000941905Y0002211293D01*
X0000911453Y0002241798D01*
X0000890184Y0002250629D01*
X0000972335Y0002250629D01*
X0000967583Y0002239156D01*
G04 next file*
G04 #@! TF.FileFunction,Copper,L2,Bot,Signal*
G04 Gerber Fmt 4.6, Leading zero omitted, Abs format (unit mm)*
G04 Created by KiCad (PCBNEW 4.0.6) date 02/13/20 12:12:51*
G01*
G04 APERTURE LIST*
G04 APERTURE END LIST*
D41*
D42*
X-0002327165Y-0002398425D02*
X0002072834Y0002501574D03*
D43*
X0001974409Y0002501574D03*
X0001875984Y0002501574D03*
X0001777559Y0002501574D03*
X0001679133Y0002501574D03*
D44*
X0000622834Y0002901574D03*
D45*
X0000522834Y0002901574D03*
X0000422834Y0002901574D03*
D46*
X0002222834Y0002701574D03*
X0002122834Y0002701574D03*
X0002022834Y0002701574D03*
X0001922834Y0002701574D03*
X0001822834Y0002701574D03*
X0001722834Y0002701574D03*
X0001622834Y0002701574D03*
X0001522834Y0002701574D03*
X0001422834Y0002701574D03*
X0001322834Y0002701574D03*
X0001222834Y0002701574D03*
X0001122834Y0002701574D03*
X0001022834Y0002701574D03*
X0000922834Y0002701574D03*
D43*
X0000347834Y0003088149D03*
X0000347834Y0003285000D03*
X0002047834Y0003426574D03*
D42*
X0001947834Y0003426574D03*
D47*
X0000197834Y0003426574D03*
X0000097834Y0003426574D03*
D48*
X0001872834Y0002851574D03*
D49*
X0001872834Y0002950000D03*
D42*
X0002047834Y0002826574D03*
D43*
X0002146259Y0002826574D03*
D50*
X0001622834Y0003201574D03*
X0001522834Y0003201574D03*
X0001422834Y0003201574D03*
X0001322834Y0003201574D03*
X0001222834Y0003201574D03*
X0001122834Y0003201574D03*
X0001022834Y0003201574D03*
X0000922834Y0003201574D03*
X0000822834Y0003201574D03*
X0000822834Y0002901574D03*
X0000922834Y0002901574D03*
X0001022834Y0002901574D03*
X0001122834Y0002901574D03*
X0001222834Y0002901574D03*
X0001322834Y0002901574D03*
X0001422834Y0002901574D03*
X0001522834Y0002901574D03*
X0001622834Y0002901574D03*
D51*
X0000621259Y0003201574D03*
D52*
X0000522834Y0003201574D03*
D42*
X0000122834Y0002801574D03*
D43*
X0000122834Y0002901574D03*
X0000122834Y0003001574D03*
D53*
X0000490629Y0002641574D03*
D54*
X0000352834Y0002641574D03*
D53*
X0000780629Y0002641574D03*
D54*
X0000642834Y0002641574D03*
D43*
X0001044881Y0003412992D03*
X0001044881Y0003590157D03*
X0001300787Y0003412992D03*
X0001300787Y0003590157D03*
D55*
X0000272834Y0002993858D03*
X0000272834Y0003029291D03*
D47*
X0002247834Y0003426574D03*
X0002147834Y0003426574D03*
D43*
X0001847834Y0003426574D03*
D42*
X0001747834Y0003426574D03*
D43*
X0000397834Y0003426574D03*
D42*
X0000297834Y0003426574D03*
D43*
X0000597834Y0003426574D03*
D42*
X0000497834Y0003426574D03*
D56*
X0002047834Y0003076574D03*
X0001797834Y0003076574D03*
X0002047834Y0003176574D03*
X0001797834Y0003176574D03*
X0000947834Y0003551574D03*
X0000697834Y0003551574D03*
X0000947834Y0003451574D03*
X0000697834Y0003451574D03*
X0001397834Y0003551574D03*
X0001647834Y0003551574D03*
X0001397834Y0003451574D03*
X0001647834Y0003451574D03*
D46*
X0002222834Y0003301574D03*
X0002122834Y0003301574D03*
X0002022834Y0003301574D03*
X0001922834Y0003301574D03*
X0001822834Y0003301574D03*
X0001722834Y0003301574D03*
X0001622834Y0003301574D03*
X0001522834Y0003301574D03*
X0001422834Y0003301574D03*
X0001322834Y0003301574D03*
X0001222834Y0003301574D03*
X0001122834Y0003301574D03*
X0001022834Y0003301574D03*
X0000922834Y0003301574D03*
D42*
X0001372834Y0002501574D03*
D43*
X0001274409Y0002501574D03*
X0001175984Y0002501574D03*
X0001077559Y0002501574D03*
X0000979133Y0002501574D03*
D57*
X0000892834Y0002481574D03*
D58*
X0002146259Y0002826574D02*
X0002146259Y0002863149D01*
X0002146259Y0002863149D02*
X0002059409Y0002950000D01*
X0002059409Y0002950000D02*
X0001872834Y0002950000D01*
X0000397834Y0003426574D02*
X0000397834Y0003335000D01*
X0000397834Y0003335000D02*
X0000347834Y0003285000D01*
X0000422834Y0002901574D02*
X0000422834Y0003210000D01*
X0000422834Y0003210000D02*
X0000347834Y0003285000D01*
X0002147834Y0003426574D02*
X0002047834Y0003426574D01*
X0002047834Y0003426574D02*
X0002047834Y0003451574D01*
X0002047834Y0003451574D02*
X0001972834Y0003526574D01*
X0001847834Y0003476574D02*
X0001847834Y0003426574D01*
X0001897834Y0003526574D02*
X0001847834Y0003476574D01*
X0001972834Y0003526574D02*
X0001897834Y0003526574D01*
X0002146259Y0002826574D02*
X0002142834Y0002826574D01*
D59*
X0000347834Y0003285000D02*
X0000347834Y0003276574D01*
X0001847834Y0003426574D02*
X0001847834Y0003401574D01*
X0000397834Y0003426574D02*
X0000397834Y0003401574D01*
X0001847834Y0003406574D02*
X0001847834Y0003426574D01*
D58*
X0002146259Y0002826574D02*
X0002146259Y0002828149D01*
X0000422834Y0002901574D02*
X0000422834Y0002826574D01*
X0000422834Y0002826574D02*
X0000352834Y0002756574D01*
X0000352834Y0002756574D02*
X0000352834Y0002641574D01*
D59*
X0000097834Y0003416574D02*
X0000097834Y0003426574D01*
X0001622834Y0002701574D02*
X0001622834Y0002791574D01*
X0001522834Y0003001574D02*
X0001522834Y0003201574D01*
X0001572834Y0002951574D02*
X0001522834Y0003001574D01*
X0001572834Y0002841574D02*
X0001572834Y0002951574D01*
X0001622834Y0002791574D02*
X0001572834Y0002841574D01*
X0001447834Y0003376574D02*
X0001532834Y0003376574D01*
X0001447834Y0003376574D02*
X0001337204Y0003376574D01*
X0001300787Y0003412992D02*
X0001337204Y0003376574D01*
X0001572834Y0003336574D02*
X0001572834Y0003051574D01*
X0001532834Y0003376574D02*
X0001572834Y0003336574D01*
X0001822834Y0002701574D02*
X0001822834Y0002751574D01*
X0001697834Y0002926574D02*
X0001572834Y0003051574D01*
X0001697834Y0002876574D02*
X0001697834Y0002926574D01*
X0001822834Y0002751574D02*
X0001697834Y0002876574D01*
X0001922834Y0002701574D02*
X0001782834Y0002841574D01*
X0001622834Y0003056574D02*
X0001622834Y0003201574D01*
X0001782834Y0002896574D02*
X0001622834Y0003056574D01*
X0001782834Y0002841574D02*
X0001782834Y0002896574D01*
X0001974409Y0002501574D02*
X0001974409Y0002560000D01*
X0001597834Y0002626574D02*
X0001572834Y0002651574D01*
X0001522834Y0002826574D02*
X0001522834Y0002901574D01*
X0001572834Y0002776574D02*
X0001572834Y0002651574D01*
X0001522834Y0002826574D02*
X0001572834Y0002776574D01*
X0001767834Y0002626574D02*
X0001597834Y0002626574D01*
X0001792834Y0002601574D02*
X0001767834Y0002626574D01*
X0001932834Y0002601574D02*
X0001792834Y0002601574D01*
X0001974409Y0002560000D02*
X0001932834Y0002601574D01*
X0001772834Y0002676574D02*
X0001772834Y0002656574D01*
X0001997834Y0002626574D02*
X0002072834Y0002551574D01*
X0002072834Y0002501574D02*
X0002072834Y0002551574D01*
X0001722834Y0002801574D02*
X0001622834Y0002901574D01*
X0001722834Y0002801574D02*
X0001772834Y0002751574D01*
X0001772834Y0002751574D02*
X0001772834Y0002676574D01*
X0001822834Y0002626574D02*
X0001997834Y0002626574D01*
X0001802834Y0002626574D02*
X0001822834Y0002626574D01*
X0001772834Y0002656574D02*
X0001802834Y0002626574D01*
X0001274409Y0002501574D02*
X0001274409Y0002550000D01*
X0001120334Y0002854074D02*
X0001122834Y0002901574D01*
X0001170334Y0002804074D02*
X0001120334Y0002854074D01*
X0001172834Y0002651574D02*
X0001170334Y0002804074D01*
X0001274409Y0002550000D02*
X0001172834Y0002651574D01*
X0001272834Y0002503149D02*
X0001274409Y0002501574D01*
X0001272834Y0002503149D02*
X0001274409Y0002501574D01*
X0001222834Y0002901574D02*
X0001222834Y0002826574D01*
X0001372834Y0002551574D02*
X0001372834Y0002501574D01*
X0001272834Y0002651574D02*
X0001372834Y0002551574D01*
X0001272834Y0002776574D02*
X0001272834Y0002651574D01*
X0001222834Y0002826574D02*
X0001272834Y0002776574D01*
X0001547834Y0002601574D02*
X0001522834Y0002601574D01*
X0001422834Y0002901574D02*
X0001422834Y0002826574D01*
X0001472834Y0002651574D02*
X0001497834Y0002626574D01*
X0001472834Y0002776574D02*
X0001472834Y0002651574D01*
X0001422834Y0002826574D02*
X0001472834Y0002776574D01*
X0001875984Y0002543425D02*
X0001842834Y0002576574D01*
X0001842834Y0002576574D02*
X0001782834Y0002576574D01*
X0001782834Y0002576574D02*
X0001757834Y0002601574D01*
X0001757834Y0002601574D02*
X0001547834Y0002601574D01*
X0001875984Y0002543425D02*
X0001875984Y0002501574D01*
X0001522834Y0002601574D02*
X0001497834Y0002626574D01*
X0001872834Y0002501574D02*
X0001874409Y0002501574D01*
X0001872834Y0002501574D02*
X0001874409Y0002501574D01*
X0001777559Y0002501574D02*
X0001777559Y0002511850D01*
X0001777559Y0002511850D02*
X0001712834Y0002576574D01*
X0001322834Y0002831574D02*
X0001322834Y0002901574D01*
X0001372834Y0002781574D02*
X0001322834Y0002831574D01*
X0001372834Y0002651574D02*
X0001372834Y0002781574D01*
X0001397834Y0002626574D02*
X0001372834Y0002651574D01*
X0001462834Y0002626574D02*
X0001397834Y0002626574D01*
X0001512834Y0002576574D02*
X0001462834Y0002626574D01*
X0001712834Y0002576574D02*
X0001512834Y0002576574D01*
X0001777559Y0002501574D02*
X0001777559Y0002531850D01*
X0001772834Y0002501574D02*
X0001775984Y0002501574D01*
X0001022834Y0002901574D02*
X0001022834Y0002851574D01*
X0001072834Y0002604724D02*
X0001175984Y0002501574D01*
X0001072834Y0002801574D02*
X0001072834Y0002604724D01*
X0001022834Y0002851574D02*
X0001072834Y0002801574D01*
X0000922834Y0002901574D02*
X0000922834Y0002826574D01*
X0000972834Y0002606299D02*
X0001077559Y0002501574D01*
X0000972834Y0002776574D02*
X0000972834Y0002606299D01*
X0000922834Y0002826574D02*
X0000972834Y0002776574D01*
X0001422834Y0003201574D02*
X0001422834Y0003301574D01*
X0001322834Y0003201574D02*
X0001322834Y0003301574D01*
X0001822834Y0003301574D02*
X0001822834Y0003271574D01*
X0001822834Y0003271574D02*
X0001857834Y0003236574D01*
X0001857834Y0003236574D02*
X0002117834Y0003236574D01*
X0002117834Y0003236574D02*
X0002227834Y0003126574D01*
X0000937834Y0002436574D02*
X0000892834Y0002481574D01*
X0002142834Y0002436574D02*
X0000937834Y0002436574D01*
X0002287834Y0002581574D02*
X0002142834Y0002436574D01*
X0002287834Y0003066574D02*
X0002287834Y0002581574D01*
X0002227834Y0003126574D02*
X0002287834Y0003066574D01*
X0001337834Y0003496574D02*
X0001342834Y0003496574D01*
X0001337834Y0003496574D02*
X0001002834Y0003496574D01*
X0000947834Y0003551574D02*
X0001002834Y0003496574D01*
X0001342834Y0003496574D02*
X0001397834Y0003551574D01*
X0000892834Y0002991574D02*
X0000862834Y0002991574D01*
X0001322834Y0002701574D02*
X0001322834Y0002781574D01*
X0001227834Y0002991574D02*
X0000892834Y0002991574D01*
X0001272834Y0002946574D02*
X0001227834Y0002991574D01*
X0001272834Y0002831574D02*
X0001272834Y0002946574D01*
X0001322834Y0002781574D02*
X0001272834Y0002831574D01*
X0000742834Y0003376574D02*
X0000917834Y0003551574D01*
X0000742834Y0003111574D02*
X0000742834Y0003376574D01*
X0000862834Y0002991574D02*
X0000742834Y0003111574D01*
X0000917834Y0003551574D02*
X0000947834Y0003551574D01*
X0001947834Y0003426574D02*
X0001947834Y0003451574D01*
X0000697834Y0003451574D02*
X0000692834Y0003451574D01*
X0000692834Y0003451574D02*
X0000642834Y0003501574D01*
X0000642834Y0003501574D02*
X0000537834Y0003501574D01*
X0000537834Y0003501574D02*
X0000497834Y0003461574D01*
X0000497834Y0003461574D02*
X0000497834Y0003426574D01*
X0001747834Y0003426574D02*
X0001747834Y0003406574D01*
X0000697834Y0003551574D02*
X0000367834Y0003551574D01*
X0000297834Y0003481574D02*
X0000297834Y0003426574D01*
X0000367834Y0003551574D02*
X0000297834Y0003481574D01*
X0001522834Y0002701574D02*
X0001522834Y0002776574D01*
X0000922834Y0003126574D02*
X0000922834Y0003201574D01*
X0000972834Y0003076574D02*
X0000922834Y0003126574D01*
X0001372834Y0003076574D02*
X0000972834Y0003076574D01*
X0001472834Y0002976574D02*
X0001372834Y0003076574D01*
X0001472834Y0002826574D02*
X0001472834Y0002976574D01*
X0001522834Y0002776574D02*
X0001472834Y0002826574D01*
X0001897834Y0003361574D02*
X0001802834Y0003361574D01*
X0002247834Y0003426574D02*
X0002182834Y0003361574D01*
X0002097834Y0003361574D02*
X0002182834Y0003361574D01*
X0002097834Y0003361574D02*
X0001897834Y0003361574D01*
X0001772834Y0003331574D02*
X0001772834Y0003201574D01*
X0001802834Y0003361574D02*
X0001772834Y0003331574D01*
X0001772834Y0003201574D02*
X0001797834Y0003176574D01*
X0002247834Y0003426574D02*
X0002247834Y0003411574D01*
X0002247834Y0003426574D02*
X0002247834Y0003446574D01*
X0000272834Y0003291574D02*
X0000272834Y0003296574D01*
X0000272834Y0003296574D02*
X0000197834Y0003371574D01*
X0000197834Y0003371574D02*
X0000197834Y0003426574D01*
X0000272834Y0003029291D02*
X0000272834Y0003291574D01*
X0000197834Y0003416574D02*
X0000197834Y0003426574D01*
D60*
X0002047834Y0002826574D02*
X0001897834Y0002826574D01*
X0001897834Y0002826574D02*
X0001872834Y0002851574D01*
X0002222834Y0002701574D02*
X0002222834Y0002721574D01*
X0002222834Y0002721574D02*
X0002177834Y0002766574D01*
X0002107834Y0002766574D02*
X0002047834Y0002826574D01*
X0002177834Y0002766574D02*
X0002107834Y0002766574D01*
D59*
X0000522834Y0002901574D02*
X0000522834Y0003201574D01*
X0001222834Y0003201574D02*
X0001222834Y0003301574D01*
X0001122834Y0003201574D02*
X0001122834Y0003301574D01*
X0001022834Y0003201574D02*
X0001022834Y0003301574D01*
X0000947834Y0003026574D02*
X0000867834Y0003026574D01*
X0001422834Y0002701574D02*
X0001422834Y0002776574D01*
X0001272834Y0003026574D02*
X0000947834Y0003026574D01*
X0001372834Y0002926574D02*
X0001272834Y0003026574D01*
X0001372834Y0002826574D02*
X0001372834Y0002926574D01*
X0001422834Y0002776574D02*
X0001372834Y0002826574D01*
X0000882834Y0003451574D02*
X0000947834Y0003451574D01*
X0000767834Y0003336574D02*
X0000882834Y0003451574D01*
X0000767834Y0003126574D02*
X0000767834Y0003336574D01*
X0000867834Y0003026574D02*
X0000767834Y0003126574D01*
X0000272834Y0002551574D02*
X0000302834Y0002521574D01*
X0000302834Y0002521574D02*
X0000792834Y0002521574D01*
X0000792834Y0002521574D02*
X0000852834Y0002581574D01*
X0000852834Y0002581574D02*
X0000852834Y0002751574D01*
X0000852834Y0002751574D02*
X0000732834Y0002871574D01*
X0000732834Y0002871574D02*
X0000732834Y0002911574D01*
X0000732834Y0002911574D02*
X0000782834Y0002961574D01*
X0000782834Y0002961574D02*
X0001042834Y0002961574D01*
X0001042834Y0002961574D02*
X0001072834Y0002931574D01*
X0001072834Y0002931574D02*
X0001072834Y0002851574D01*
X0000272834Y0002551574D02*
X0000272834Y0002993858D01*
X0001122834Y0002701574D02*
X0001122834Y0002801574D01*
X0001072834Y0002851574D02*
X0001122834Y0002801574D01*
D61*
G36*
X0002167972Y0003602204D02*
X0002210973Y0003593651D01*
X0002243306Y0003572047D01*
X0002264910Y0003539714D01*
X0002272815Y0003499977D01*
X0002263291Y0003503931D01*
X0002232512Y0003503958D01*
X0002204065Y0003492204D01*
X0002183957Y0003472132D01*
X0002178424Y0003477184D01*
X0002161990Y0003483991D01*
X0002152834Y0003479224D01*
X0002152834Y0003438646D01*
X0002148391Y0003434202D01*
X0002155462Y0003427131D01*
X0002159905Y0003431574D01*
X0002170468Y0003431574D01*
X0002170461Y0003423264D01*
X0002168772Y0003421574D01*
X0002159905Y0003421574D01*
X0002155462Y0003426018D01*
X0002148391Y0003418946D01*
X0002152834Y0003414503D01*
X0002152834Y0003413944D01*
X0002142834Y0003413944D01*
X0002142834Y0003414503D01*
X0002147277Y0003418946D01*
X0002140206Y0003426018D01*
X0002135763Y0003421574D01*
X0002112433Y0003421574D01*
X0002112063Y0003431574D01*
X0002142834Y0003431574D01*
X0002142834Y0003479224D01*
X0002133678Y0003483991D01*
X0002112783Y0003474203D01*
X0002101477Y0003461822D01*
X0002093209Y0003464879D01*
X0002054905Y0003426574D01*
X0002055462Y0003426018D01*
X0002048391Y0003418947D01*
X0002047834Y0003419503D01*
X0002047277Y0003418947D01*
X0002040206Y0003426018D01*
X0002040763Y0003426574D01*
X0002040206Y0003427131D01*
X0002047277Y0003434202D01*
X0002047834Y0003433645D01*
X0002086138Y0003471950D01*
X0002082254Y0003482456D01*
X0002058249Y0003491374D01*
X0002032659Y0003490427D01*
X0002025961Y0003487653D01*
X0002019632Y0003497488D01*
X0002004805Y0003507620D01*
X0001987204Y0003511184D01*
X0001908464Y0003511184D01*
X0001892021Y0003508090D01*
X0001876920Y0003498372D01*
X0001869326Y0003487259D01*
X0001858249Y0003491374D01*
X0001832659Y0003490427D01*
X0001825961Y0003487653D01*
X0001819632Y0003497488D01*
X0001804805Y0003507620D01*
X0001787204Y0003511184D01*
X0001721713Y0003511184D01*
X0001731540Y0003534848D01*
X0001731569Y0003568154D01*
X0001718850Y0003598936D01*
X0001715587Y0003602204D01*
X0002167972Y0003602204D01*
X0002167972Y0003602204D01*
G37*
X0002167972Y0003602204D02*
X0002210973Y0003593651D01*
X0002243306Y0003572047D01*
X0002264910Y0003539714D01*
X0002272815Y0003499977D01*
X0002263291Y0003503931D01*
X0002232512Y0003503958D01*
X0002204065Y0003492204D01*
X0002183957Y0003472132D01*
X0002178424Y0003477184D01*
X0002161990Y0003483991D01*
X0002152834Y0003479224D01*
X0002152834Y0003438646D01*
X0002148391Y0003434202D01*
X0002155462Y0003427131D01*
X0002159905Y0003431574D01*
X0002170468Y0003431574D01*
X0002170461Y0003423264D01*
X0002168772Y0003421574D01*
X0002159905Y0003421574D01*
X0002155462Y0003426018D01*
X0002148391Y0003418946D01*
X0002152834Y0003414503D01*
X0002152834Y0003413944D01*
X0002142834Y0003413944D01*
X0002142834Y0003414503D01*
X0002147277Y0003418946D01*
X0002140206Y0003426018D01*
X0002135763Y0003421574D01*
X0002112433Y0003421574D01*
X0002112063Y0003431574D01*
X0002142834Y0003431574D01*
X0002142834Y0003479224D01*
X0002133678Y0003483991D01*
X0002112783Y0003474203D01*
X0002101477Y0003461822D01*
X0002093209Y0003464879D01*
X0002054905Y0003426574D01*
X0002055462Y0003426018D01*
X0002048391Y0003418947D01*
X0002047834Y0003419503D01*
X0002047277Y0003418947D01*
X0002040206Y0003426018D01*
X0002040763Y0003426574D01*
X0002040206Y0003427131D01*
X0002047277Y0003434202D01*
X0002047834Y0003433645D01*
X0002086138Y0003471950D01*
X0002082254Y0003482456D01*
X0002058249Y0003491374D01*
X0002032659Y0003490427D01*
X0002025961Y0003487653D01*
X0002019632Y0003497488D01*
X0002004805Y0003507620D01*
X0001987204Y0003511184D01*
X0001908464Y0003511184D01*
X0001892021Y0003508090D01*
X0001876920Y0003498372D01*
X0001869326Y0003487259D01*
X0001858249Y0003491374D01*
X0001832659Y0003490427D01*
X0001825961Y0003487653D01*
X0001819632Y0003497488D01*
X0001804805Y0003507620D01*
X0001787204Y0003511184D01*
X0001721713Y0003511184D01*
X0001731540Y0003534848D01*
X0001731569Y0003568154D01*
X0001718850Y0003598936D01*
X0001715587Y0003602204D01*
X0002167972Y0003602204D01*
G36*
X0001676480Y0003138414D02*
X0001692925Y0003163027D01*
X0001698700Y0003192060D01*
X0001698700Y0003211089D01*
X0001697480Y0003217223D01*
X0001720464Y0003212651D01*
X0001720464Y0003208558D01*
X0001714129Y0003193300D01*
X0001714100Y0003159994D01*
X0001726818Y0003129213D01*
X0001729436Y0003126590D01*
X0001726901Y0003124060D01*
X0001714129Y0003093300D01*
X0001714100Y0003059994D01*
X0001726818Y0003029213D01*
X0001750349Y0003005641D01*
X0001781108Y0002992869D01*
X0001814414Y0002992840D01*
X0001845196Y0003005559D01*
X0001868767Y0003029089D01*
X0001881540Y0003059848D01*
X0001881569Y0003093154D01*
X0001868850Y0003123936D01*
X0001866232Y0003126558D01*
X0001868767Y0003129089D01*
X0001881540Y0003159848D01*
X0001881561Y0003184204D01*
X0001964121Y0003184204D01*
X0001964100Y0003159994D01*
X0001976818Y0003129213D01*
X0001979436Y0003126590D01*
X0001976901Y0003124060D01*
X0001964129Y0003093300D01*
X0001964100Y0003059994D01*
X0001976818Y0003029213D01*
X0002000349Y0003005641D01*
X0002031108Y0002992869D01*
X0002064414Y0002992840D01*
X0002064480Y0002992867D01*
X0002064469Y0002980117D01*
X0002080929Y0002940281D01*
X0002111381Y0002909776D01*
X0002151188Y0002893247D01*
X0002194291Y0002893209D01*
X0002234127Y0002909669D01*
X0002235464Y0002911004D01*
X0002235464Y0002788457D01*
X0002225130Y0002790513D01*
X0002213451Y0002802191D01*
X0002207377Y0002806250D01*
X0002211059Y0002816159D01*
X0002210112Y0002841750D01*
X0002202141Y0002860994D01*
X0002191635Y0002864879D01*
X0002153330Y0002826574D01*
X0002153887Y0002826018D01*
X0002146816Y0002818947D01*
X0002146259Y0002819503D01*
X0002145703Y0002818947D01*
X0002138631Y0002826018D01*
X0002139188Y0002826574D01*
X0002138631Y0002827131D01*
X0002145703Y0002834202D01*
X0002146259Y0002833645D01*
X0002184564Y0002871950D01*
X0002180679Y0002882456D01*
X0002156674Y0002891374D01*
X0002131084Y0002890427D01*
X0002125630Y0002888168D01*
X0002119632Y0002897488D01*
X0002104805Y0002907620D01*
X0002087204Y0002911184D01*
X0002008464Y0002911184D01*
X0001992021Y0002908090D01*
X0001976920Y0002898372D01*
X0001966789Y0002883545D01*
X0001965452Y0002876944D01*
X0001953507Y0002876944D01*
X0001953507Y0002887007D01*
X0001950413Y0002903450D01*
X0001940695Y0002918551D01*
X0001928682Y0002926760D01*
X0001933718Y0002940525D01*
X0001932710Y0002964545D01*
X0001925458Y0002982053D01*
X0001915360Y0002985454D01*
X0001879905Y0002950000D01*
X0001880462Y0002949443D01*
X0001873391Y0002942372D01*
X0001872834Y0002942928D01*
X0001872834Y0002957071D01*
X0001908289Y0002992525D01*
X0001904887Y0003002623D01*
X0001882309Y0003010884D01*
X0001858288Y0003009875D01*
X0001840781Y0003002623D01*
X0001837379Y0002992525D01*
X0001872834Y0002957071D01*
X0001872834Y0002942928D01*
X0001872277Y0002942372D01*
X0001865206Y0002949443D01*
X0001865763Y0002950000D01*
X0001830308Y0002985454D01*
X0001820210Y0002982053D01*
X0001811950Y0002959475D01*
X0001812737Y0002940734D01*
X0001675204Y0003078267D01*
X0001675204Y0003137562D01*
X0001676480Y0003138414D01*
X0001676480Y0003138414D01*
G37*
X0001676480Y0003138414D02*
X0001692925Y0003163027D01*
X0001698700Y0003192060D01*
X0001698700Y0003211089D01*
X0001697480Y0003217223D01*
X0001720464Y0003212651D01*
X0001720464Y0003208558D01*
X0001714129Y0003193300D01*
X0001714100Y0003159994D01*
X0001726818Y0003129213D01*
X0001729436Y0003126590D01*
X0001726901Y0003124060D01*
X0001714129Y0003093300D01*
X0001714100Y0003059994D01*
X0001726818Y0003029213D01*
X0001750349Y0003005641D01*
X0001781108Y0002992869D01*
X0001814414Y0002992840D01*
X0001845196Y0003005559D01*
X0001868767Y0003029089D01*
X0001881540Y0003059848D01*
X0001881569Y0003093154D01*
X0001868850Y0003123936D01*
X0001866232Y0003126558D01*
X0001868767Y0003129089D01*
X0001881540Y0003159848D01*
X0001881561Y0003184204D01*
X0001964121Y0003184204D01*
X0001964100Y0003159994D01*
X0001976818Y0003129213D01*
X0001979436Y0003126590D01*
X0001976901Y0003124060D01*
X0001964129Y0003093300D01*
X0001964100Y0003059994D01*
X0001976818Y0003029213D01*
X0002000349Y0003005641D01*
X0002031108Y0002992869D01*
X0002064414Y0002992840D01*
X0002064480Y0002992867D01*
X0002064469Y0002980117D01*
X0002080929Y0002940281D01*
X0002111381Y0002909776D01*
X0002151188Y0002893247D01*
X0002194291Y0002893209D01*
X0002234127Y0002909669D01*
X0002235464Y0002911004D01*
X0002235464Y0002788457D01*
X0002225130Y0002790513D01*
X0002213451Y0002802191D01*
X0002207377Y0002806250D01*
X0002211059Y0002816159D01*
X0002210112Y0002841750D01*
X0002202141Y0002860994D01*
X0002191635Y0002864879D01*
X0002153330Y0002826574D01*
X0002153887Y0002826018D01*
X0002146816Y0002818947D01*
X0002146259Y0002819503D01*
X0002145703Y0002818947D01*
X0002138631Y0002826018D01*
X0002139188Y0002826574D01*
X0002138631Y0002827131D01*
X0002145703Y0002834202D01*
X0002146259Y0002833645D01*
X0002184564Y0002871950D01*
X0002180679Y0002882456D01*
X0002156674Y0002891374D01*
X0002131084Y0002890427D01*
X0002125630Y0002888168D01*
X0002119632Y0002897488D01*
X0002104805Y0002907620D01*
X0002087204Y0002911184D01*
X0002008464Y0002911184D01*
X0001992021Y0002908090D01*
X0001976920Y0002898372D01*
X0001966789Y0002883545D01*
X0001965452Y0002876944D01*
X0001953507Y0002876944D01*
X0001953507Y0002887007D01*
X0001950413Y0002903450D01*
X0001940695Y0002918551D01*
X0001928682Y0002926760D01*
X0001933718Y0002940525D01*
X0001932710Y0002964545D01*
X0001925458Y0002982053D01*
X0001915360Y0002985454D01*
X0001879905Y0002950000D01*
X0001880462Y0002949443D01*
X0001873391Y0002942372D01*
X0001872834Y0002942928D01*
X0001872834Y0002957071D01*
X0001908289Y0002992525D01*
X0001904887Y0003002623D01*
X0001882309Y0003010884D01*
X0001858288Y0003009875D01*
X0001840781Y0003002623D01*
X0001837379Y0002992525D01*
X0001872834Y0002957071D01*
X0001872834Y0002942928D01*
X0001872277Y0002942372D01*
X0001865206Y0002949443D01*
X0001865763Y0002950000D01*
X0001830308Y0002985454D01*
X0001820210Y0002982053D01*
X0001811950Y0002959475D01*
X0001812737Y0002940734D01*
X0001675204Y0003078267D01*
X0001675204Y0003137562D01*
X0001676480Y0003138414D01*
G36*
X0002117834Y0002706574D02*
X0002117834Y0002707362D01*
X0002127834Y0002707362D01*
X0002127834Y0002706574D01*
X0002128622Y0002706574D01*
X0002128622Y0002696574D01*
X0002127834Y0002696574D01*
X0002127834Y0002695787D01*
X0002117834Y0002695787D01*
X0002117834Y0002696574D01*
X0002117047Y0002696574D01*
X0002117047Y0002706574D01*
X0002117834Y0002706574D01*
X0002117834Y0002706574D01*
G37*
X0002117834Y0002706574D02*
X0002117834Y0002707362D01*
X0002127834Y0002707362D01*
X0002127834Y0002706574D01*
X0002128622Y0002706574D01*
X0002128622Y0002696574D01*
X0002127834Y0002696574D01*
X0002127834Y0002695787D01*
X0002117834Y0002695787D01*
X0002117834Y0002696574D01*
X0002117047Y0002696574D01*
X0002117047Y0002706574D01*
X0002117834Y0002706574D01*
G36*
X0001847277Y0003434202D02*
X0001847834Y0003433645D01*
X0001848391Y0003434202D01*
X0001855462Y0003427131D01*
X0001854905Y0003426574D01*
X0001855462Y0003426018D01*
X0001848391Y0003418947D01*
X0001847834Y0003419503D01*
X0001847277Y0003418947D01*
X0001840206Y0003426018D01*
X0001840763Y0003426574D01*
X0001840206Y0003427131D01*
X0001847277Y0003434202D01*
X0001847277Y0003434202D01*
G37*
X0001847277Y0003434202D02*
X0001847834Y0003433645D01*
X0001848391Y0003434202D01*
X0001855462Y0003427131D01*
X0001854905Y0003426574D01*
X0001855462Y0003426018D01*
X0001848391Y0003418947D01*
X0001847834Y0003419503D01*
X0001847277Y0003418947D01*
X0001840206Y0003426018D01*
X0001840763Y0003426574D01*
X0001840206Y0003427131D01*
X0001847277Y0003434202D01*
G36*
X0001300230Y0003597785D02*
X0001300787Y0003597228D01*
X0001301344Y0003597785D01*
X0001308415Y0003590714D01*
X0001307858Y0003590157D01*
X0001308415Y0003589600D01*
X0001301344Y0003582529D01*
X0001300787Y0003583086D01*
X0001300230Y0003582529D01*
X0001293159Y0003589600D01*
X0001293716Y0003590157D01*
X0001293159Y0003590714D01*
X0001300230Y0003597785D01*
X0001300230Y0003597785D01*
G37*
X0001300230Y0003597785D02*
X0001300787Y0003597228D01*
X0001301344Y0003597785D01*
X0001308415Y0003590714D01*
X0001307858Y0003590157D01*
X0001308415Y0003589600D01*
X0001301344Y0003582529D01*
X0001300787Y0003583086D01*
X0001300230Y0003582529D01*
X0001293159Y0003589600D01*
X0001293716Y0003590157D01*
X0001293159Y0003590714D01*
X0001300230Y0003597785D01*
G36*
X0001044325Y0003597785D02*
X0001044881Y0003597228D01*
X0001045438Y0003597785D01*
X0001052509Y0003590714D01*
X0001051952Y0003590157D01*
X0001052509Y0003589600D01*
X0001045438Y0003582529D01*
X0001044881Y0003583086D01*
X0001044325Y0003582529D01*
X0001037254Y0003589600D01*
X0001037810Y0003590157D01*
X0001037254Y0003590714D01*
X0001044325Y0003597785D01*
X0001044325Y0003597785D01*
G37*
X0001044325Y0003597785D02*
X0001044881Y0003597228D01*
X0001045438Y0003597785D01*
X0001052509Y0003590714D01*
X0001051952Y0003590157D01*
X0001052509Y0003589600D01*
X0001045438Y0003582529D01*
X0001044881Y0003583086D01*
X0001044325Y0003582529D01*
X0001037254Y0003589600D01*
X0001037810Y0003590157D01*
X0001037254Y0003590714D01*
X0001044325Y0003597785D01*
G36*
X0000856324Y0003351002D02*
X0000850924Y0003342921D01*
X0000844999Y0003313135D01*
X0000844999Y0003290014D01*
X0000850924Y0003260228D01*
X0000853722Y0003256041D01*
X0000838847Y0003263836D01*
X0000836576Y0003264248D01*
X0000827834Y0003259445D01*
X0000827834Y0003206574D01*
X0000828622Y0003206574D01*
X0000828622Y0003196574D01*
X0000827834Y0003196574D01*
X0000827834Y0003195787D01*
X0000820204Y0003195787D01*
X0000820204Y0003314882D01*
X0000856324Y0003351002D01*
X0000856324Y0003351002D01*
G37*
X0000856324Y0003351002D02*
X0000850924Y0003342921D01*
X0000844999Y0003313135D01*
X0000844999Y0003290014D01*
X0000850924Y0003260228D01*
X0000853722Y0003256041D01*
X0000838847Y0003263836D01*
X0000836576Y0003264248D01*
X0000827834Y0003259445D01*
X0000827834Y0003206574D01*
X0000828622Y0003206574D01*
X0000828622Y0003196574D01*
X0000827834Y0003196574D01*
X0000827834Y0003195787D01*
X0000820204Y0003195787D01*
X0000820204Y0003314882D01*
X0000856324Y0003351002D01*
G36*
X0000326320Y0002968383D02*
X0000329884Y0002985984D01*
X0000329884Y0003001732D01*
X0000329232Y0003005201D01*
X0000331104Y0003004424D01*
X0000364418Y0003004395D01*
X0000395207Y0003017116D01*
X0000418784Y0003040652D01*
X0000431560Y0003071419D01*
X0000431589Y0003104733D01*
X0000418867Y0003135522D01*
X0000395331Y0003159099D01*
X0000393209Y0003159980D01*
X0000393209Y0003246695D01*
X0000403715Y0003250580D01*
X0000412634Y0003274585D01*
X0000411687Y0003300175D01*
X0000403715Y0003319419D01*
X0000393209Y0003323304D01*
X0000354905Y0003285000D01*
X0000393209Y0003246695D01*
X0000393209Y0003159980D01*
X0000364564Y0003171875D01*
X0000331250Y0003171904D01*
X0000325204Y0003169406D01*
X0000325204Y0003224738D01*
X0000337419Y0003220200D01*
X0000363010Y0003221147D01*
X0000382254Y0003229118D01*
X0000386138Y0003239624D01*
X0000347834Y0003277928D01*
X0000347277Y0003277372D01*
X0000340206Y0003284443D01*
X0000340763Y0003285000D01*
X0000340206Y0003285556D01*
X0000347277Y0003292627D01*
X0000347834Y0003292071D01*
X0000386138Y0003330375D01*
X0000382254Y0003340881D01*
X0000360002Y0003349148D01*
X0000368748Y0003354776D01*
X0000376342Y0003365890D01*
X0000387419Y0003361775D01*
X0000413010Y0003362722D01*
X0000419707Y0003365496D01*
X0000426036Y0003355660D01*
X0000440863Y0003345529D01*
X0000458464Y0003341965D01*
X0000537204Y0003341965D01*
X0000553647Y0003345059D01*
X0000568748Y0003354776D01*
X0000576342Y0003365890D01*
X0000587419Y0003361775D01*
X0000613010Y0003362722D01*
X0000632254Y0003370693D01*
X0000636138Y0003381199D01*
X0000597834Y0003419503D01*
X0000597277Y0003418947D01*
X0000590206Y0003426018D01*
X0000590763Y0003426574D01*
X0000590206Y0003427131D01*
X0000597277Y0003434202D01*
X0000597834Y0003433645D01*
X0000598391Y0003434202D01*
X0000605462Y0003427131D01*
X0000604905Y0003426574D01*
X0000626502Y0003404977D01*
X0000626818Y0003404213D01*
X0000650349Y0003380641D01*
X0000681108Y0003367869D01*
X0000690464Y0003367861D01*
X0000690464Y0003111574D01*
X0000694450Y0003091533D01*
X0000705803Y0003074543D01*
X0000769128Y0003011218D01*
X0000762793Y0003009958D01*
X0000762326Y0003009646D01*
X0000745803Y0002998606D01*
X0000699967Y0002952770D01*
X0000698980Y0002958017D01*
X0000689262Y0002973118D01*
X0000674435Y0002983249D01*
X0000660934Y0002985983D01*
X0000660934Y0003168970D01*
X0000670624Y0003171889D01*
X0000678226Y0003193040D01*
X0000677156Y0003215490D01*
X0000670624Y0003231260D01*
X0000660934Y0003234178D01*
X0000628330Y0003201574D01*
X0000660934Y0003168970D01*
X0000660934Y0002985983D01*
X0000656834Y0002986814D01*
X0000588834Y0002986814D01*
X0000575204Y0002984249D01*
X0000575204Y0003130784D01*
X0000585874Y0003137650D01*
X0000594985Y0003150984D01*
X0000612725Y0003144607D01*
X0000635175Y0003145678D01*
X0000650945Y0003152210D01*
X0000653863Y0003161899D01*
X0000621259Y0003194503D01*
X0000620703Y0003193946D01*
X0000613631Y0003201018D01*
X0000614188Y0003201574D01*
X0000613631Y0003202131D01*
X0000620703Y0003209202D01*
X0000621259Y0003208645D01*
X0000653863Y0003241249D01*
X0000650945Y0003250939D01*
X0000629794Y0003258541D01*
X0000607344Y0003257471D01*
X0000594720Y0003252242D01*
X0000586758Y0003264614D01*
X0000571931Y0003274746D01*
X0000554330Y0003278310D01*
X0000491338Y0003278310D01*
X0000474895Y0003275216D01*
X0000459794Y0003265498D01*
X0000449663Y0003250671D01*
X0000446099Y0003233070D01*
X0000446099Y0003170078D01*
X0000449193Y0003153636D01*
X0000458910Y0003138534D01*
X0000470464Y0003130640D01*
X0000470464Y0002966679D01*
X0000467418Y0002964643D01*
X0000459756Y0002953176D01*
X0000458347Y0002954753D01*
X0000437590Y0002964752D01*
X0000436969Y0002964856D01*
X0000427834Y0002960087D01*
X0000427834Y0002906574D01*
X0000428622Y0002906574D01*
X0000428622Y0002896574D01*
X0000427834Y0002896574D01*
X0000427834Y0002843062D01*
X0000436969Y0002838293D01*
X0000437590Y0002838397D01*
X0000458347Y0002848396D01*
X0000459756Y0002849973D01*
X0000467418Y0002838505D01*
X0000492843Y0002821517D01*
X0000522834Y0002815551D01*
X0000552825Y0002821517D01*
X0000560935Y0002826936D01*
X0000571233Y0002819899D01*
X0000588834Y0002816335D01*
X0000656834Y0002816335D01*
X0000673277Y0002819429D01*
X0000688378Y0002829146D01*
X0000693955Y0002837309D01*
X0000695803Y0002834543D01*
X0000797172Y0002733174D01*
X0000762486Y0002733204D01*
X0000728802Y0002719286D01*
X0000725390Y0002715881D01*
X0000722506Y0002720362D01*
X0000707679Y0002730494D01*
X0000690078Y0002734058D01*
X0000595590Y0002734058D01*
X0000579147Y0002730964D01*
X0000564046Y0002721246D01*
X0000554497Y0002707271D01*
X0000542592Y0002719196D01*
X0000508933Y0002733173D01*
X0000472486Y0002733204D01*
X0000438802Y0002719286D01*
X0000421622Y0002702136D01*
X0000421272Y0002702980D01*
X0000414240Y0002710012D01*
X0000408699Y0002712307D01*
X0000408699Y0002838293D01*
X0000417834Y0002843062D01*
X0000417834Y0002896574D01*
X0000370042Y0002896574D01*
X0000370042Y0002906574D01*
X0000417834Y0002906574D01*
X0000417834Y0002960087D01*
X0000408699Y0002964856D01*
X0000408079Y0002964752D01*
X0000387321Y0002954753D01*
X0000371970Y0002937571D01*
X0000364362Y0002915823D01*
X0000370042Y0002906574D01*
X0000370042Y0002896574D01*
X0000364362Y0002887326D01*
X0000371970Y0002865577D01*
X0000387321Y0002848396D01*
X0000408079Y0002838397D01*
X0000408699Y0002838293D01*
X0000408699Y0002712307D01*
X0000405051Y0002713818D01*
X0000364084Y0002713818D01*
X0000357834Y0002707568D01*
X0000357834Y0002646574D01*
X0000358622Y0002646574D01*
X0000358622Y0002636574D01*
X0000357834Y0002636574D01*
X0000357834Y0002635787D01*
X0000347834Y0002635787D01*
X0000347834Y0002636574D01*
X0000347047Y0002636574D01*
X0000347047Y0002646574D01*
X0000347834Y0002646574D01*
X0000347834Y0002707568D01*
X0000341584Y0002713818D01*
X0000325204Y0002713818D01*
X0000325204Y0002966750D01*
X0000326320Y0002968383D01*
X0000326320Y0002968383D01*
G37*
X0000326320Y0002968383D02*
X0000329884Y0002985984D01*
X0000329884Y0003001732D01*
X0000329232Y0003005201D01*
X0000331104Y0003004424D01*
X0000364418Y0003004395D01*
X0000395207Y0003017116D01*
X0000418784Y0003040652D01*
X0000431560Y0003071419D01*
X0000431589Y0003104733D01*
X0000418867Y0003135522D01*
X0000395331Y0003159099D01*
X0000393209Y0003159980D01*
X0000393209Y0003246695D01*
X0000403715Y0003250580D01*
X0000412634Y0003274585D01*
X0000411687Y0003300175D01*
X0000403715Y0003319419D01*
X0000393209Y0003323304D01*
X0000354905Y0003285000D01*
X0000393209Y0003246695D01*
X0000393209Y0003159980D01*
X0000364564Y0003171875D01*
X0000331250Y0003171904D01*
X0000325204Y0003169406D01*
X0000325204Y0003224738D01*
X0000337419Y0003220200D01*
X0000363010Y0003221147D01*
X0000382254Y0003229118D01*
X0000386138Y0003239624D01*
X0000347834Y0003277928D01*
X0000347277Y0003277372D01*
X0000340206Y0003284443D01*
X0000340763Y0003285000D01*
X0000340206Y0003285556D01*
X0000347277Y0003292627D01*
X0000347834Y0003292071D01*
X0000386138Y0003330375D01*
X0000382254Y0003340881D01*
X0000360002Y0003349148D01*
X0000368748Y0003354776D01*
X0000376342Y0003365890D01*
X0000387419Y0003361775D01*
X0000413010Y0003362722D01*
X0000419707Y0003365496D01*
X0000426036Y0003355660D01*
X0000440863Y0003345529D01*
X0000458464Y0003341965D01*
X0000537204Y0003341965D01*
X0000553647Y0003345059D01*
X0000568748Y0003354776D01*
X0000576342Y0003365890D01*
X0000587419Y0003361775D01*
X0000613010Y0003362722D01*
X0000632254Y0003370693D01*
X0000636138Y0003381199D01*
X0000597834Y0003419503D01*
X0000597277Y0003418947D01*
X0000590206Y0003426018D01*
X0000590763Y0003426574D01*
X0000590206Y0003427131D01*
X0000597277Y0003434202D01*
X0000597834Y0003433645D01*
X0000598391Y0003434202D01*
X0000605462Y0003427131D01*
X0000604905Y0003426574D01*
X0000626502Y0003404977D01*
X0000626818Y0003404213D01*
X0000650349Y0003380641D01*
X0000681108Y0003367869D01*
X0000690464Y0003367861D01*
X0000690464Y0003111574D01*
X0000694450Y0003091533D01*
X0000705803Y0003074543D01*
X0000769128Y0003011218D01*
X0000762793Y0003009958D01*
X0000762326Y0003009646D01*
X0000745803Y0002998606D01*
X0000699967Y0002952770D01*
X0000698980Y0002958017D01*
X0000689262Y0002973118D01*
X0000674435Y0002983249D01*
X0000660934Y0002985983D01*
X0000660934Y0003168970D01*
X0000670624Y0003171889D01*
X0000678226Y0003193040D01*
X0000677156Y0003215490D01*
X0000670624Y0003231260D01*
X0000660934Y0003234178D01*
X0000628330Y0003201574D01*
X0000660934Y0003168970D01*
X0000660934Y0002985983D01*
X0000656834Y0002986814D01*
X0000588834Y0002986814D01*
X0000575204Y0002984249D01*
X0000575204Y0003130784D01*
X0000585874Y0003137650D01*
X0000594985Y0003150984D01*
X0000612725Y0003144607D01*
X0000635175Y0003145678D01*
X0000650945Y0003152210D01*
X0000653863Y0003161899D01*
X0000621259Y0003194503D01*
X0000620703Y0003193946D01*
X0000613631Y0003201018D01*
X0000614188Y0003201574D01*
X0000613631Y0003202131D01*
X0000620703Y0003209202D01*
X0000621259Y0003208645D01*
X0000653863Y0003241249D01*
X0000650945Y0003250939D01*
X0000629794Y0003258541D01*
X0000607344Y0003257471D01*
X0000594720Y0003252242D01*
X0000586758Y0003264614D01*
X0000571931Y0003274746D01*
X0000554330Y0003278310D01*
X0000491338Y0003278310D01*
X0000474895Y0003275216D01*
X0000459794Y0003265498D01*
X0000449663Y0003250671D01*
X0000446099Y0003233070D01*
X0000446099Y0003170078D01*
X0000449193Y0003153636D01*
X0000458910Y0003138534D01*
X0000470464Y0003130640D01*
X0000470464Y0002966679D01*
X0000467418Y0002964643D01*
X0000459756Y0002953176D01*
X0000458347Y0002954753D01*
X0000437590Y0002964752D01*
X0000436969Y0002964856D01*
X0000427834Y0002960087D01*
X0000427834Y0002906574D01*
X0000428622Y0002906574D01*
X0000428622Y0002896574D01*
X0000427834Y0002896574D01*
X0000427834Y0002843062D01*
X0000436969Y0002838293D01*
X0000437590Y0002838397D01*
X0000458347Y0002848396D01*
X0000459756Y0002849973D01*
X0000467418Y0002838505D01*
X0000492843Y0002821517D01*
X0000522834Y0002815551D01*
X0000552825Y0002821517D01*
X0000560935Y0002826936D01*
X0000571233Y0002819899D01*
X0000588834Y0002816335D01*
X0000656834Y0002816335D01*
X0000673277Y0002819429D01*
X0000688378Y0002829146D01*
X0000693955Y0002837309D01*
X0000695803Y0002834543D01*
X0000797172Y0002733174D01*
X0000762486Y0002733204D01*
X0000728802Y0002719286D01*
X0000725390Y0002715881D01*
X0000722506Y0002720362D01*
X0000707679Y0002730494D01*
X0000690078Y0002734058D01*
X0000595590Y0002734058D01*
X0000579147Y0002730964D01*
X0000564046Y0002721246D01*
X0000554497Y0002707271D01*
X0000542592Y0002719196D01*
X0000508933Y0002733173D01*
X0000472486Y0002733204D01*
X0000438802Y0002719286D01*
X0000421622Y0002702136D01*
X0000421272Y0002702980D01*
X0000414240Y0002710012D01*
X0000408699Y0002712307D01*
X0000408699Y0002838293D01*
X0000417834Y0002843062D01*
X0000417834Y0002896574D01*
X0000370042Y0002896574D01*
X0000370042Y0002906574D01*
X0000417834Y0002906574D01*
X0000417834Y0002960087D01*
X0000408699Y0002964856D01*
X0000408079Y0002964752D01*
X0000387321Y0002954753D01*
X0000371970Y0002937571D01*
X0000364362Y0002915823D01*
X0000370042Y0002906574D01*
X0000370042Y0002896574D01*
X0000364362Y0002887326D01*
X0000371970Y0002865577D01*
X0000387321Y0002848396D01*
X0000408079Y0002838397D01*
X0000408699Y0002838293D01*
X0000408699Y0002712307D01*
X0000405051Y0002713818D01*
X0000364084Y0002713818D01*
X0000357834Y0002707568D01*
X0000357834Y0002646574D01*
X0000358622Y0002646574D01*
X0000358622Y0002636574D01*
X0000357834Y0002636574D01*
X0000357834Y0002635787D01*
X0000347834Y0002635787D01*
X0000347834Y0002636574D01*
X0000347047Y0002636574D01*
X0000347047Y0002646574D01*
X0000347834Y0002646574D01*
X0000347834Y0002707568D01*
X0000341584Y0002713818D01*
X0000325204Y0002713818D01*
X0000325204Y0002966750D01*
X0000326320Y0002968383D01*
G36*
X0000397277Y0003434202D02*
X0000397834Y0003433645D01*
X0000398391Y0003434202D01*
X0000405462Y0003427131D01*
X0000404905Y0003426574D01*
X0000405462Y0003426018D01*
X0000398391Y0003418947D01*
X0000397834Y0003419503D01*
X0000397277Y0003418947D01*
X0000390206Y0003426018D01*
X0000390763Y0003426574D01*
X0000390206Y0003427131D01*
X0000397277Y0003434202D01*
X0000397277Y0003434202D01*
G37*
X0000397277Y0003434202D02*
X0000397834Y0003433645D01*
X0000398391Y0003434202D01*
X0000405462Y0003427131D01*
X0000404905Y0003426574D01*
X0000405462Y0003426018D01*
X0000398391Y0003418947D01*
X0000397834Y0003419503D01*
X0000397277Y0003418947D01*
X0000390206Y0003426018D01*
X0000390763Y0003426574D01*
X0000390206Y0003427131D01*
X0000397277Y0003434202D01*
G36*
X0000083678Y0003369157D02*
X0000092834Y0003373925D01*
X0000092834Y0003414503D01*
X0000097277Y0003418946D01*
X0000090206Y0003426018D01*
X0000085763Y0003421574D01*
X0000072204Y0003421574D01*
X0000072204Y0003431574D01*
X0000085763Y0003431574D01*
X0000090206Y0003427131D01*
X0000097277Y0003434202D01*
X0000092834Y0003438646D01*
X0000092834Y0003479224D01*
X0000083678Y0003483991D01*
X0000072204Y0003478617D01*
X0000072204Y0003496712D01*
X0000080758Y0003539714D01*
X0000102362Y0003572047D01*
X0000134695Y0003593651D01*
X0000177697Y0003602204D01*
X0000359086Y0003602204D01*
X0000347793Y0003599958D01*
X0000337204Y0003592883D01*
X0000330803Y0003588606D01*
X0000260803Y0003518606D01*
X0000255467Y0003510620D01*
X0000242021Y0003508090D01*
X0000226920Y0003498372D01*
X0000226867Y0003498294D01*
X0000213291Y0003503931D01*
X0000182512Y0003503958D01*
X0000154065Y0003492204D01*
X0000133957Y0003472132D01*
X0000128424Y0003477184D01*
X0000111990Y0003483991D01*
X0000102834Y0003479224D01*
X0000102834Y0003438646D01*
X0000098391Y0003434202D01*
X0000105462Y0003427131D01*
X0000109905Y0003431574D01*
X0000120468Y0003431574D01*
X0000120460Y0003421574D01*
X0000109905Y0003421574D01*
X0000105462Y0003426018D01*
X0000098391Y0003418946D01*
X0000102834Y0003414503D01*
X0000102834Y0003373925D01*
X0000111990Y0003369157D01*
X0000132885Y0003378945D01*
X0000134401Y0003380605D01*
X0000145974Y0003369012D01*
X0000148052Y0003358565D01*
X0000111541Y0003343480D01*
X0000081036Y0003313028D01*
X0000072204Y0003291758D01*
X0000072204Y0003373910D01*
X0000083678Y0003369157D01*
X0000083678Y0003369157D01*
G37*
X0000083678Y0003369157D02*
X0000092834Y0003373925D01*
X0000092834Y0003414503D01*
X0000097277Y0003418946D01*
X0000090206Y0003426018D01*
X0000085763Y0003421574D01*
X0000072204Y0003421574D01*
X0000072204Y0003431574D01*
X0000085763Y0003431574D01*
X0000090206Y0003427131D01*
X0000097277Y0003434202D01*
X0000092834Y0003438646D01*
X0000092834Y0003479224D01*
X0000083678Y0003483991D01*
X0000072204Y0003478617D01*
X0000072204Y0003496712D01*
X0000080758Y0003539714D01*
X0000102362Y0003572047D01*
X0000134695Y0003593651D01*
X0000177697Y0003602204D01*
X0000359086Y0003602204D01*
X0000347793Y0003599958D01*
X0000337204Y0003592883D01*
X0000330803Y0003588606D01*
X0000260803Y0003518606D01*
X0000255467Y0003510620D01*
X0000242021Y0003508090D01*
X0000226920Y0003498372D01*
X0000226867Y0003498294D01*
X0000213291Y0003503931D01*
X0000182512Y0003503958D01*
X0000154065Y0003492204D01*
X0000133957Y0003472132D01*
X0000128424Y0003477184D01*
X0000111990Y0003483991D01*
X0000102834Y0003479224D01*
X0000102834Y0003438646D01*
X0000098391Y0003434202D01*
X0000105462Y0003427131D01*
X0000109905Y0003431574D01*
X0000120468Y0003431574D01*
X0000120460Y0003421574D01*
X0000109905Y0003421574D01*
X0000105462Y0003426018D01*
X0000098391Y0003418946D01*
X0000102834Y0003414503D01*
X0000102834Y0003373925D01*
X0000111990Y0003369157D01*
X0000132885Y0003378945D01*
X0000134401Y0003380605D01*
X0000145974Y0003369012D01*
X0000148052Y0003358565D01*
X0000111541Y0003343480D01*
X0000081036Y0003313028D01*
X0000072204Y0003291758D01*
X0000072204Y0003373910D01*
X0000083678Y0003369157D01*
G04 next file*
G04 #@! TF.FileFunction,Copper,L2,Bot,Signal*
G04 Gerber Fmt 4.6, Leading zero omitted, Abs format (unit mm)*
G04 Created by KiCad (PCBNEW 4.0.6) date 02/13/20 12:12:51*
G01*
G04 APERTURE LIST*
G04 APERTURE END LIST*
D62*
D63*
X-0003461417Y0004650000D02*
X0001438582Y0000250000D03*
D64*
X0001438582Y0000348425D03*
X0001438582Y0000446850D03*
X0001438582Y0000545275D03*
X0001438582Y0000643700D03*
D65*
X0001838582Y0001700000D03*
D66*
X0001838582Y0001800000D03*
X0001838582Y0001900000D03*
D67*
X0001638582Y0000100000D03*
X0001638582Y0000200000D03*
X0001638582Y0000300000D03*
X0001638582Y0000400000D03*
X0001638582Y0000500000D03*
X0001638582Y0000600000D03*
X0001638582Y0000700000D03*
X0001638582Y0000800000D03*
X0001638582Y0000900000D03*
X0001638582Y0001000000D03*
X0001638582Y0001100000D03*
X0001638582Y0001200000D03*
X0001638582Y0001300000D03*
X0001638582Y0001400000D03*
D64*
X0002025157Y0001975000D03*
X0002222007Y0001975000D03*
X0002363582Y0000275000D03*
D63*
X0002363582Y0000375000D03*
D68*
X0002363582Y0002125000D03*
X0002363582Y0002225000D03*
D69*
X0001788582Y0000450000D03*
D70*
X0001887007Y0000450000D03*
D63*
X0001763582Y0000275000D03*
D64*
X0001763582Y0000176574D03*
D71*
X0002138582Y0000700000D03*
X0002138582Y0000800000D03*
X0002138582Y0000900000D03*
X0002138582Y0001000000D03*
X0002138582Y0001100000D03*
X0002138582Y0001200000D03*
X0002138582Y0001300000D03*
X0002138582Y0001400000D03*
X0002138582Y0001500000D03*
X0001838582Y0001500000D03*
X0001838582Y0001400000D03*
X0001838582Y0001300000D03*
X0001838582Y0001200000D03*
X0001838582Y0001100000D03*
X0001838582Y0001000000D03*
X0001838582Y0000900000D03*
X0001838582Y0000800000D03*
X0001838582Y0000700000D03*
D72*
X0002138582Y0001701574D03*
D73*
X0002138582Y0001800000D03*
D63*
X0001738582Y0002200000D03*
D64*
X0001838582Y0002200000D03*
X0001938582Y0002200000D03*
D74*
X0001578582Y0001832204D03*
D75*
X0001578582Y0001970000D03*
D74*
X0001578582Y0001542204D03*
D75*
X0001578582Y0001680000D03*
D64*
X0002350000Y0001277952D03*
X0002527165Y0001277952D03*
X0002350000Y0001022047D03*
X0002527165Y0001022047D03*
D76*
X0001930866Y0002050000D03*
X0001966299Y0002050000D03*
D68*
X0002363582Y0000075000D03*
X0002363582Y0000175000D03*
D64*
X0002363582Y0000475000D03*
D63*
X0002363582Y0000575000D03*
D64*
X0002363582Y0001925000D03*
D63*
X0002363582Y0002025000D03*
D64*
X0002363582Y0001725000D03*
D63*
X0002363582Y0001825000D03*
D77*
X0002013582Y0000275000D03*
X0002013582Y0000525000D03*
X0002113582Y0000275000D03*
X0002113582Y0000525000D03*
X0002488582Y0001375000D03*
X0002488582Y0001625000D03*
X0002388582Y0001375000D03*
X0002388582Y0001625000D03*
X0002488582Y0000925000D03*
X0002488582Y0000675000D03*
X0002388582Y0000925000D03*
X0002388582Y0000675000D03*
D67*
X0002238582Y0000100000D03*
X0002238582Y0000200000D03*
X0002238582Y0000300000D03*
X0002238582Y0000400000D03*
X0002238582Y0000500000D03*
X0002238582Y0000600000D03*
X0002238582Y0000700000D03*
X0002238582Y0000800000D03*
X0002238582Y0000900000D03*
X0002238582Y0001000000D03*
X0002238582Y0001100000D03*
X0002238582Y0001200000D03*
X0002238582Y0001300000D03*
X0002238582Y0001400000D03*
D63*
X0001438582Y0000950000D03*
D64*
X0001438582Y0001048425D03*
X0001438582Y0001146850D03*
X0001438582Y0001245275D03*
X0001438582Y0001343700D03*
D78*
X0001418582Y0001430000D03*
D79*
X0001763582Y0000176574D02*
X0001800157Y0000176574D01*
X0001800157Y0000176574D02*
X0001887007Y0000263425D01*
X0001887007Y0000263425D02*
X0001887007Y0000450000D01*
X0002363582Y0001925000D02*
X0002272007Y0001925000D01*
X0002272007Y0001925000D02*
X0002222007Y0001975000D01*
X0001838582Y0001900000D02*
X0002147007Y0001900000D01*
X0002147007Y0001900000D02*
X0002222007Y0001975000D01*
X0002363582Y0000175000D02*
X0002363582Y0000275000D01*
X0002363582Y0000275000D02*
X0002388582Y0000275000D01*
X0002388582Y0000275000D02*
X0002463582Y0000350000D01*
X0002413582Y0000475000D02*
X0002363582Y0000475000D01*
X0002463582Y0000425000D02*
X0002413582Y0000475000D01*
X0002463582Y0000350000D02*
X0002463582Y0000425000D01*
X0001763582Y0000176574D02*
X0001763582Y0000180000D01*
D80*
X0002222007Y0001975000D02*
X0002213582Y0001975000D01*
X0002363582Y0000475000D02*
X0002338582Y0000475000D01*
X0002363582Y0001925000D02*
X0002338582Y0001925000D01*
X0002343582Y0000475000D02*
X0002363582Y0000475000D01*
D79*
X0001763582Y0000176574D02*
X0001765157Y0000176574D01*
X0001838582Y0001900000D02*
X0001763582Y0001900000D01*
X0001763582Y0001900000D02*
X0001693582Y0001970000D01*
X0001693582Y0001970000D02*
X0001578582Y0001970000D01*
D80*
X0002353582Y0002225000D02*
X0002363582Y0002225000D01*
X0001638582Y0000700000D02*
X0001728582Y0000700000D01*
X0001938582Y0000800000D02*
X0002138582Y0000800000D01*
X0001888582Y0000750000D02*
X0001938582Y0000800000D01*
X0001778582Y0000750000D02*
X0001888582Y0000750000D01*
X0001728582Y0000700000D02*
X0001778582Y0000750000D01*
X0002313582Y0000875000D02*
X0002313582Y0000790000D01*
X0002313582Y0000875000D02*
X0002313582Y0000985629D01*
X0002350000Y0001022047D02*
X0002313582Y0000985629D01*
X0002273582Y0000750000D02*
X0001988582Y0000750000D01*
X0002313582Y0000790000D02*
X0002273582Y0000750000D01*
X0001638582Y0000500000D02*
X0001688582Y0000500000D01*
X0001863582Y0000625000D02*
X0001988582Y0000750000D01*
X0001813582Y0000625000D02*
X0001863582Y0000625000D01*
X0001688582Y0000500000D02*
X0001813582Y0000625000D01*
X0001638582Y0000400000D02*
X0001778582Y0000540000D01*
X0001993582Y0000700000D02*
X0002138582Y0000700000D01*
X0001833582Y0000540000D02*
X0001993582Y0000700000D01*
X0001778582Y0000540000D02*
X0001833582Y0000540000D01*
X0001438582Y0000348425D02*
X0001497007Y0000348425D01*
X0001563582Y0000725000D02*
X0001588582Y0000750000D01*
X0001763582Y0000800000D02*
X0001838582Y0000800000D01*
X0001713582Y0000750000D02*
X0001588582Y0000750000D01*
X0001763582Y0000800000D02*
X0001713582Y0000750000D01*
X0001563582Y0000555000D02*
X0001563582Y0000725000D01*
X0001538582Y0000530000D02*
X0001563582Y0000555000D01*
X0001538582Y0000390000D02*
X0001538582Y0000530000D01*
X0001497007Y0000348425D02*
X0001538582Y0000390000D01*
X0001613582Y0000550000D02*
X0001593582Y0000550000D01*
X0001563582Y0000325000D02*
X0001488582Y0000250000D01*
X0001438582Y0000250000D02*
X0001488582Y0000250000D01*
X0001738582Y0000600000D02*
X0001838582Y0000700000D01*
X0001738582Y0000600000D02*
X0001688582Y0000550000D01*
X0001688582Y0000550000D02*
X0001613582Y0000550000D01*
X0001563582Y0000500000D02*
X0001563582Y0000325000D01*
X0001563582Y0000520000D02*
X0001563582Y0000500000D01*
X0001593582Y0000550000D02*
X0001563582Y0000520000D01*
X0001438582Y0001048425D02*
X0001487007Y0001048425D01*
X0001791082Y0001202500D02*
X0001838582Y0001200000D01*
X0001741082Y0001152500D02*
X0001791082Y0001202500D01*
X0001588582Y0001150000D02*
X0001741082Y0001152500D01*
X0001487007Y0001048425D02*
X0001588582Y0001150000D01*
X0001440157Y0001050000D02*
X0001438582Y0001048425D01*
X0001440157Y0001050000D02*
X0001438582Y0001048425D01*
X0001838582Y0001100000D02*
X0001763582Y0001100000D01*
X0001488582Y0000950000D02*
X0001438582Y0000950000D01*
X0001588582Y0001050000D02*
X0001488582Y0000950000D01*
X0001713582Y0001050000D02*
X0001588582Y0001050000D01*
X0001763582Y0001100000D02*
X0001713582Y0001050000D01*
X0001538582Y0000775000D02*
X0001538582Y0000800000D01*
X0001838582Y0000900000D02*
X0001763582Y0000900000D01*
X0001588582Y0000850000D02*
X0001563582Y0000825000D01*
X0001713582Y0000850000D02*
X0001588582Y0000850000D01*
X0001763582Y0000900000D02*
X0001713582Y0000850000D01*
X0001480433Y0000446850D02*
X0001513582Y0000480000D01*
X0001513582Y0000480000D02*
X0001513582Y0000540000D01*
X0001513582Y0000540000D02*
X0001538582Y0000565000D01*
X0001538582Y0000565000D02*
X0001538582Y0000775000D01*
X0001480433Y0000446850D02*
X0001438582Y0000446850D01*
X0001538582Y0000800000D02*
X0001563582Y0000825000D01*
X0001438582Y0000450000D02*
X0001438582Y0000448425D01*
X0001438582Y0000450000D02*
X0001438582Y0000448425D01*
X0001438582Y0000545275D02*
X0001448858Y0000545275D01*
X0001448858Y0000545275D02*
X0001513582Y0000610000D01*
X0001768582Y0001000000D02*
X0001838582Y0001000000D01*
X0001718582Y0000950000D02*
X0001768582Y0001000000D01*
X0001588582Y0000950000D02*
X0001718582Y0000950000D01*
X0001563582Y0000925000D02*
X0001588582Y0000950000D01*
X0001563582Y0000860000D02*
X0001563582Y0000925000D01*
X0001513582Y0000810000D02*
X0001563582Y0000860000D01*
X0001513582Y0000610000D02*
X0001513582Y0000810000D01*
X0001438582Y0000545275D02*
X0001468858Y0000545275D01*
X0001438582Y0000550000D02*
X0001438582Y0000546850D01*
X0001838582Y0001300000D02*
X0001788582Y0001300000D01*
X0001541732Y0001250000D02*
X0001438582Y0001146850D01*
X0001738582Y0001250000D02*
X0001541732Y0001250000D01*
X0001788582Y0001300000D02*
X0001738582Y0001250000D01*
X0001838582Y0001400000D02*
X0001763582Y0001400000D01*
X0001543307Y0001350000D02*
X0001438582Y0001245275D01*
X0001713582Y0001350000D02*
X0001543307Y0001350000D01*
X0001763582Y0001400000D02*
X0001713582Y0001350000D01*
X0002138582Y0000900000D02*
X0002238582Y0000900000D01*
X0002138582Y0001000000D02*
X0002238582Y0001000000D01*
X0002238582Y0000500000D02*
X0002208582Y0000500000D01*
X0002208582Y0000500000D02*
X0002173582Y0000465000D01*
X0002173582Y0000465000D02*
X0002173582Y0000205000D01*
X0002173582Y0000205000D02*
X0002063582Y0000095000D01*
X0001373582Y0001385000D02*
X0001418582Y0001430000D01*
X0001373582Y0000180000D02*
X0001373582Y0001385000D01*
X0001518582Y0000035000D02*
X0001373582Y0000180000D01*
X0002003582Y0000035000D02*
X0001518582Y0000035000D01*
X0002063582Y0000095000D02*
X0002003582Y0000035000D01*
X0002433582Y0000985000D02*
X0002433582Y0000980000D01*
X0002433582Y0000985000D02*
X0002433582Y0001320000D01*
X0002488582Y0001375000D02*
X0002433582Y0001320000D01*
X0002433582Y0000980000D02*
X0002488582Y0000925000D01*
X0001928582Y0001430000D02*
X0001928582Y0001460000D01*
X0001638582Y0001000000D02*
X0001718582Y0001000000D01*
X0001928582Y0001095000D02*
X0001928582Y0001430000D01*
X0001883582Y0001050000D02*
X0001928582Y0001095000D01*
X0001768582Y0001050000D02*
X0001883582Y0001050000D01*
X0001718582Y0001000000D02*
X0001768582Y0001050000D01*
X0002313582Y0001580000D02*
X0002488582Y0001405000D01*
X0002048582Y0001580000D02*
X0002313582Y0001580000D01*
X0001928582Y0001460000D02*
X0002048582Y0001580000D01*
X0002488582Y0001405000D02*
X0002488582Y0001375000D01*
X0002363582Y0000375000D02*
X0002388582Y0000375000D01*
X0002388582Y0001625000D02*
X0002388582Y0001630000D01*
X0002388582Y0001630000D02*
X0002438582Y0001680000D01*
X0002438582Y0001680000D02*
X0002438582Y0001785000D01*
X0002438582Y0001785000D02*
X0002398582Y0001825000D01*
X0002398582Y0001825000D02*
X0002363582Y0001825000D01*
X0002363582Y0000575000D02*
X0002343582Y0000575000D01*
X0002488582Y0001625000D02*
X0002488582Y0001955000D01*
X0002418582Y0002025000D02*
X0002363582Y0002025000D01*
X0002488582Y0001955000D02*
X0002418582Y0002025000D01*
X0001638582Y0000800000D02*
X0001713582Y0000800000D01*
X0002063582Y0001400000D02*
X0002138582Y0001400000D01*
X0002013582Y0001350000D02*
X0002063582Y0001400000D01*
X0002013582Y0000950000D02*
X0002013582Y0001350000D01*
X0001913582Y0000850000D02*
X0002013582Y0000950000D01*
X0001763582Y0000850000D02*
X0001913582Y0000850000D01*
X0001713582Y0000800000D02*
X0001763582Y0000850000D01*
X0002298582Y0000425000D02*
X0002298582Y0000520000D01*
X0002363582Y0000075000D02*
X0002298582Y0000140000D01*
X0002298582Y0000225000D02*
X0002298582Y0000140000D01*
X0002298582Y0000225000D02*
X0002298582Y0000425000D01*
X0002268582Y0000550000D02*
X0002138582Y0000550000D01*
X0002298582Y0000520000D02*
X0002268582Y0000550000D01*
X0002138582Y0000550000D02*
X0002113582Y0000525000D01*
X0002363582Y0000075000D02*
X0002348582Y0000075000D01*
X0002363582Y0000075000D02*
X0002383582Y0000075000D01*
X0002228582Y0002050000D02*
X0002233582Y0002050000D01*
X0002233582Y0002050000D02*
X0002308582Y0002125000D01*
X0002308582Y0002125000D02*
X0002363582Y0002125000D01*
X0001966299Y0002050000D02*
X0002228582Y0002050000D01*
X0002353582Y0002125000D02*
X0002363582Y0002125000D01*
D81*
X0001763582Y0000275000D02*
X0001763582Y0000425000D01*
X0001763582Y0000425000D02*
X0001788582Y0000450000D01*
X0001638582Y0000100000D02*
X0001658582Y0000100000D01*
X0001658582Y0000100000D02*
X0001703582Y0000145000D01*
X0001703582Y0000215000D02*
X0001763582Y0000275000D01*
X0001703582Y0000145000D02*
X0001703582Y0000215000D01*
D80*
X0001838582Y0001800000D02*
X0002138582Y0001800000D01*
X0002138582Y0001100000D02*
X0002238582Y0001100000D01*
X0002138582Y0001200000D02*
X0002238582Y0001200000D01*
X0002138582Y0001300000D02*
X0002238582Y0001300000D01*
X0001963582Y0001375000D02*
X0001963582Y0001455000D01*
X0001638582Y0000900000D02*
X0001713582Y0000900000D01*
X0001963582Y0001050000D02*
X0001963582Y0001375000D01*
X0001863582Y0000950000D02*
X0001963582Y0001050000D01*
X0001763582Y0000950000D02*
X0001863582Y0000950000D01*
X0001713582Y0000900000D02*
X0001763582Y0000950000D01*
X0002388582Y0001440000D02*
X0002388582Y0001375000D01*
X0002273582Y0001555000D02*
X0002388582Y0001440000D01*
X0002063582Y0001555000D02*
X0002273582Y0001555000D01*
X0001963582Y0001455000D02*
X0002063582Y0001555000D01*
X0001488582Y0002050000D02*
X0001458582Y0002020000D01*
X0001458582Y0002020000D02*
X0001458582Y0001530000D01*
X0001458582Y0001530000D02*
X0001518582Y0001470000D01*
X0001518582Y0001470000D02*
X0001688582Y0001470000D01*
X0001688582Y0001470000D02*
X0001808582Y0001590000D01*
X0001808582Y0001590000D02*
X0001848582Y0001590000D01*
X0001848582Y0001590000D02*
X0001898582Y0001540000D01*
X0001898582Y0001540000D02*
X0001898582Y0001280000D01*
X0001898582Y0001280000D02*
X0001868582Y0001250000D01*
X0001868582Y0001250000D02*
X0001788582Y0001250000D01*
X0001488582Y0002050000D02*
X0001930866Y0002050000D01*
X0001638582Y0001200000D02*
X0001738582Y0001200000D01*
X0001788582Y0001250000D02*
X0001738582Y0001200000D01*
D82*
G36*
X0002539212Y0000154862D02*
X0002530659Y0000111860D01*
X0002509054Y0000079527D01*
X0002476722Y0000057923D01*
X0002436985Y0000050019D01*
X0002440939Y0000059542D01*
X0002440966Y0000090322D01*
X0002429212Y0000118769D01*
X0002409139Y0000138876D01*
X0002414192Y0000144410D01*
X0002420999Y0000160843D01*
X0002416232Y0000169999D01*
X0002375653Y0000169999D01*
X0002371210Y0000174443D01*
X0002364139Y0000167372D01*
X0002368582Y0000162928D01*
X0002368582Y0000152365D01*
X0002360272Y0000152373D01*
X0002358582Y0000154062D01*
X0002358582Y0000162928D01*
X0002363025Y0000167372D01*
X0002355954Y0000174443D01*
X0002351511Y0000169999D01*
X0002350952Y0000169999D01*
X0002350952Y0000180000D01*
X0002351511Y0000180000D01*
X0002355954Y0000175556D01*
X0002363025Y0000182627D01*
X0002358582Y0000187071D01*
X0002358582Y0000210400D01*
X0002368582Y0000210770D01*
X0002368582Y0000180000D01*
X0002416232Y0000180000D01*
X0002420999Y0000189156D01*
X0002411211Y0000210051D01*
X0002398830Y0000221357D01*
X0002401886Y0000229624D01*
X0002363582Y0000267928D01*
X0002363025Y0000267372D01*
X0002355954Y0000274443D01*
X0002356511Y0000275000D01*
X0002355954Y0000275556D01*
X0002363025Y0000282627D01*
X0002363582Y0000282071D01*
X0002364139Y0000282627D01*
X0002371210Y0000275556D01*
X0002370653Y0000275000D01*
X0002408957Y0000236695D01*
X0002419464Y0000240580D01*
X0002428382Y0000264585D01*
X0002427435Y0000290175D01*
X0002424661Y0000296872D01*
X0002434496Y0000303202D01*
X0002444627Y0000318029D01*
X0002448192Y0000335629D01*
X0002448192Y0000414370D01*
X0002445098Y0000430812D01*
X0002435380Y0000445914D01*
X0002424266Y0000453507D01*
X0002428382Y0000464585D01*
X0002427435Y0000490175D01*
X0002424661Y0000496872D01*
X0002434496Y0000503202D01*
X0002444627Y0000518029D01*
X0002448192Y0000535629D01*
X0002448192Y0000601120D01*
X0002471856Y0000591294D01*
X0002505162Y0000591265D01*
X0002535944Y0000603984D01*
X0002539212Y0000607246D01*
X0002539212Y0000154862D01*
X0002539212Y0000154862D01*
G37*
X0002539212Y0000154862D02*
X0002530659Y0000111860D01*
X0002509054Y0000079527D01*
X0002476722Y0000057923D01*
X0002436985Y0000050019D01*
X0002440939Y0000059542D01*
X0002440966Y0000090322D01*
X0002429212Y0000118769D01*
X0002409139Y0000138876D01*
X0002414192Y0000144410D01*
X0002420999Y0000160843D01*
X0002416232Y0000169999D01*
X0002375653Y0000169999D01*
X0002371210Y0000174443D01*
X0002364139Y0000167372D01*
X0002368582Y0000162928D01*
X0002368582Y0000152365D01*
X0002360272Y0000152373D01*
X0002358582Y0000154062D01*
X0002358582Y0000162928D01*
X0002363025Y0000167372D01*
X0002355954Y0000174443D01*
X0002351511Y0000169999D01*
X0002350952Y0000169999D01*
X0002350952Y0000180000D01*
X0002351511Y0000180000D01*
X0002355954Y0000175556D01*
X0002363025Y0000182627D01*
X0002358582Y0000187071D01*
X0002358582Y0000210400D01*
X0002368582Y0000210770D01*
X0002368582Y0000180000D01*
X0002416232Y0000180000D01*
X0002420999Y0000189156D01*
X0002411211Y0000210051D01*
X0002398830Y0000221357D01*
X0002401886Y0000229624D01*
X0002363582Y0000267928D01*
X0002363025Y0000267372D01*
X0002355954Y0000274443D01*
X0002356511Y0000275000D01*
X0002355954Y0000275556D01*
X0002363025Y0000282627D01*
X0002363582Y0000282071D01*
X0002364139Y0000282627D01*
X0002371210Y0000275556D01*
X0002370653Y0000275000D01*
X0002408957Y0000236695D01*
X0002419464Y0000240580D01*
X0002428382Y0000264585D01*
X0002427435Y0000290175D01*
X0002424661Y0000296872D01*
X0002434496Y0000303202D01*
X0002444627Y0000318029D01*
X0002448192Y0000335629D01*
X0002448192Y0000414370D01*
X0002445098Y0000430812D01*
X0002435380Y0000445914D01*
X0002424266Y0000453507D01*
X0002428382Y0000464585D01*
X0002427435Y0000490175D01*
X0002424661Y0000496872D01*
X0002434496Y0000503202D01*
X0002444627Y0000518029D01*
X0002448192Y0000535629D01*
X0002448192Y0000601120D01*
X0002471856Y0000591294D01*
X0002505162Y0000591265D01*
X0002535944Y0000603984D01*
X0002539212Y0000607246D01*
X0002539212Y0000154862D01*
G36*
X0002075422Y0000646354D02*
X0002100035Y0000629908D01*
X0002129068Y0000624133D01*
X0002148097Y0000624133D01*
X0002154231Y0000625353D01*
X0002149659Y0000602370D01*
X0002145566Y0000602370D01*
X0002130308Y0000608705D01*
X0002097002Y0000608734D01*
X0002066221Y0000596015D01*
X0002063598Y0000593398D01*
X0002061068Y0000595933D01*
X0002030308Y0000608705D01*
X0001997002Y0000608734D01*
X0001966221Y0000596015D01*
X0001942649Y0000572485D01*
X0001929877Y0000541726D01*
X0001929848Y0000508420D01*
X0001942566Y0000477638D01*
X0001966097Y0000454066D01*
X0001996856Y0000441294D01*
X0002030162Y0000441265D01*
X0002060944Y0000453984D01*
X0002063566Y0000456601D01*
X0002066097Y0000454066D01*
X0002096856Y0000441294D01*
X0002121212Y0000441273D01*
X0002121212Y0000358713D01*
X0002097002Y0000358734D01*
X0002066221Y0000346015D01*
X0002063598Y0000343398D01*
X0002061068Y0000345933D01*
X0002030308Y0000358705D01*
X0001997002Y0000358734D01*
X0001966221Y0000346015D01*
X0001942649Y0000322485D01*
X0001929877Y0000291726D01*
X0001929848Y0000258420D01*
X0001929875Y0000258354D01*
X0001917125Y0000258365D01*
X0001877289Y0000241905D01*
X0001846784Y0000211453D01*
X0001830255Y0000171645D01*
X0001830217Y0000128543D01*
X0001846677Y0000088706D01*
X0001848011Y0000087370D01*
X0001725465Y0000087370D01*
X0001727520Y0000097704D01*
X0001739199Y0000109382D01*
X0001743258Y0000115456D01*
X0001753167Y0000111775D01*
X0001778758Y0000112722D01*
X0001798002Y0000120693D01*
X0001801886Y0000131199D01*
X0001763582Y0000169503D01*
X0001763025Y0000168946D01*
X0001755954Y0000176017D01*
X0001756511Y0000176574D01*
X0001755954Y0000177131D01*
X0001763025Y0000184202D01*
X0001763582Y0000183645D01*
X0001764139Y0000184202D01*
X0001771210Y0000177131D01*
X0001770653Y0000176574D01*
X0001808957Y0000138270D01*
X0001819464Y0000142154D01*
X0001828382Y0000166159D01*
X0001827435Y0000191750D01*
X0001825176Y0000197204D01*
X0001834496Y0000203202D01*
X0001844627Y0000218029D01*
X0001848192Y0000235629D01*
X0001848192Y0000314370D01*
X0001845098Y0000330812D01*
X0001835380Y0000345914D01*
X0001820553Y0000356045D01*
X0001813952Y0000357381D01*
X0001813952Y0000369327D01*
X0001824015Y0000369327D01*
X0001840458Y0000372421D01*
X0001855559Y0000382139D01*
X0001863767Y0000394151D01*
X0001877532Y0000389115D01*
X0001901553Y0000390124D01*
X0001919060Y0000397376D01*
X0001922462Y0000407474D01*
X0001887007Y0000442928D01*
X0001886451Y0000442372D01*
X0001879380Y0000449443D01*
X0001879936Y0000450000D01*
X0001894078Y0000450000D01*
X0001929533Y0000414545D01*
X0001939631Y0000417946D01*
X0001947892Y0000440525D01*
X0001946883Y0000464545D01*
X0001939631Y0000482053D01*
X0001929533Y0000485454D01*
X0001894078Y0000450000D01*
X0001879936Y0000450000D01*
X0001879380Y0000450556D01*
X0001886451Y0000457627D01*
X0001887007Y0000457071D01*
X0001922462Y0000492525D01*
X0001919060Y0000502623D01*
X0001896482Y0000510884D01*
X0001877742Y0000510097D01*
X0002015275Y0000647629D01*
X0002074570Y0000647629D01*
X0002075422Y0000646354D01*
X0002075422Y0000646354D01*
G37*
X0002075422Y0000646354D02*
X0002100035Y0000629908D01*
X0002129068Y0000624133D01*
X0002148097Y0000624133D01*
X0002154231Y0000625353D01*
X0002149659Y0000602370D01*
X0002145566Y0000602370D01*
X0002130308Y0000608705D01*
X0002097002Y0000608734D01*
X0002066221Y0000596015D01*
X0002063598Y0000593398D01*
X0002061068Y0000595933D01*
X0002030308Y0000608705D01*
X0001997002Y0000608734D01*
X0001966221Y0000596015D01*
X0001942649Y0000572485D01*
X0001929877Y0000541726D01*
X0001929848Y0000508420D01*
X0001942566Y0000477638D01*
X0001966097Y0000454066D01*
X0001996856Y0000441294D01*
X0002030162Y0000441265D01*
X0002060944Y0000453984D01*
X0002063566Y0000456601D01*
X0002066097Y0000454066D01*
X0002096856Y0000441294D01*
X0002121212Y0000441273D01*
X0002121212Y0000358713D01*
X0002097002Y0000358734D01*
X0002066221Y0000346015D01*
X0002063598Y0000343398D01*
X0002061068Y0000345933D01*
X0002030308Y0000358705D01*
X0001997002Y0000358734D01*
X0001966221Y0000346015D01*
X0001942649Y0000322485D01*
X0001929877Y0000291726D01*
X0001929848Y0000258420D01*
X0001929875Y0000258354D01*
X0001917125Y0000258365D01*
X0001877289Y0000241905D01*
X0001846784Y0000211453D01*
X0001830255Y0000171645D01*
X0001830217Y0000128543D01*
X0001846677Y0000088706D01*
X0001848011Y0000087370D01*
X0001725465Y0000087370D01*
X0001727520Y0000097704D01*
X0001739199Y0000109382D01*
X0001743258Y0000115456D01*
X0001753167Y0000111775D01*
X0001778758Y0000112722D01*
X0001798002Y0000120693D01*
X0001801886Y0000131199D01*
X0001763582Y0000169503D01*
X0001763025Y0000168946D01*
X0001755954Y0000176017D01*
X0001756511Y0000176574D01*
X0001755954Y0000177131D01*
X0001763025Y0000184202D01*
X0001763582Y0000183645D01*
X0001764139Y0000184202D01*
X0001771210Y0000177131D01*
X0001770653Y0000176574D01*
X0001808957Y0000138270D01*
X0001819464Y0000142154D01*
X0001828382Y0000166159D01*
X0001827435Y0000191750D01*
X0001825176Y0000197204D01*
X0001834496Y0000203202D01*
X0001844627Y0000218029D01*
X0001848192Y0000235629D01*
X0001848192Y0000314370D01*
X0001845098Y0000330812D01*
X0001835380Y0000345914D01*
X0001820553Y0000356045D01*
X0001813952Y0000357381D01*
X0001813952Y0000369327D01*
X0001824015Y0000369327D01*
X0001840458Y0000372421D01*
X0001855559Y0000382139D01*
X0001863767Y0000394151D01*
X0001877532Y0000389115D01*
X0001901553Y0000390124D01*
X0001919060Y0000397376D01*
X0001922462Y0000407474D01*
X0001887007Y0000442928D01*
X0001886451Y0000442372D01*
X0001879380Y0000449443D01*
X0001879936Y0000450000D01*
X0001894078Y0000450000D01*
X0001929533Y0000414545D01*
X0001939631Y0000417946D01*
X0001947892Y0000440525D01*
X0001946883Y0000464545D01*
X0001939631Y0000482053D01*
X0001929533Y0000485454D01*
X0001894078Y0000450000D01*
X0001879936Y0000450000D01*
X0001879380Y0000450556D01*
X0001886451Y0000457627D01*
X0001887007Y0000457071D01*
X0001922462Y0000492525D01*
X0001919060Y0000502623D01*
X0001896482Y0000510884D01*
X0001877742Y0000510097D01*
X0002015275Y0000647629D01*
X0002074570Y0000647629D01*
X0002075422Y0000646354D01*
G36*
X0001643582Y0000205000D02*
X0001644370Y0000205000D01*
X0001644370Y0000195000D01*
X0001643582Y0000195000D01*
X0001643582Y0000194212D01*
X0001633582Y0000194212D01*
X0001633582Y0000195000D01*
X0001632795Y0000195000D01*
X0001632795Y0000205000D01*
X0001633582Y0000205000D01*
X0001633582Y0000205787D01*
X0001643582Y0000205787D01*
X0001643582Y0000205000D01*
X0001643582Y0000205000D01*
G37*
X0001643582Y0000205000D02*
X0001644370Y0000205000D01*
X0001644370Y0000195000D01*
X0001643582Y0000195000D01*
X0001643582Y0000194212D01*
X0001633582Y0000194212D01*
X0001633582Y0000195000D01*
X0001632795Y0000195000D01*
X0001632795Y0000205000D01*
X0001633582Y0000205000D01*
X0001633582Y0000205787D01*
X0001643582Y0000205787D01*
X0001643582Y0000205000D01*
G36*
X0002371210Y0000475556D02*
X0002370653Y0000475000D01*
X0002371210Y0000474443D01*
X0002364139Y0000467372D01*
X0002363582Y0000467928D01*
X0002363025Y0000467372D01*
X0002355954Y0000474443D01*
X0002356511Y0000475000D01*
X0002355954Y0000475556D01*
X0002363025Y0000482627D01*
X0002363582Y0000482071D01*
X0002364139Y0000482627D01*
X0002371210Y0000475556D01*
X0002371210Y0000475556D01*
G37*
X0002371210Y0000475556D02*
X0002370653Y0000475000D01*
X0002371210Y0000474443D01*
X0002364139Y0000467372D01*
X0002363582Y0000467928D01*
X0002363025Y0000467372D01*
X0002355954Y0000474443D01*
X0002356511Y0000475000D01*
X0002355954Y0000475556D01*
X0002363025Y0000482627D01*
X0002363582Y0000482071D01*
X0002364139Y0000482627D01*
X0002371210Y0000475556D01*
G36*
X0002534793Y0001022604D02*
X0002534236Y0001022047D01*
X0002534793Y0001021490D01*
X0002527722Y0001014419D01*
X0002527165Y0001014976D01*
X0002526608Y0001014419D01*
X0002519537Y0001021490D01*
X0002520094Y0001022047D01*
X0002519537Y0001022604D01*
X0002526608Y0001029675D01*
X0002527165Y0001029118D01*
X0002527722Y0001029675D01*
X0002534793Y0001022604D01*
X0002534793Y0001022604D01*
G37*
X0002534793Y0001022604D02*
X0002534236Y0001022047D01*
X0002534793Y0001021490D01*
X0002527722Y0001014419D01*
X0002527165Y0001014976D01*
X0002526608Y0001014419D01*
X0002519537Y0001021490D01*
X0002520094Y0001022047D01*
X0002519537Y0001022604D01*
X0002526608Y0001029675D01*
X0002527165Y0001029118D01*
X0002527722Y0001029675D01*
X0002534793Y0001022604D01*
G36*
X0002534793Y0001278509D02*
X0002534236Y0001277952D01*
X0002534793Y0001277395D01*
X0002527722Y0001270324D01*
X0002527165Y0001270881D01*
X0002526608Y0001270324D01*
X0002519537Y0001277395D01*
X0002520094Y0001277952D01*
X0002519537Y0001278509D01*
X0002526608Y0001285580D01*
X0002527165Y0001285023D01*
X0002527722Y0001285580D01*
X0002534793Y0001278509D01*
X0002534793Y0001278509D01*
G37*
X0002534793Y0001278509D02*
X0002534236Y0001277952D01*
X0002534793Y0001277395D01*
X0002527722Y0001270324D01*
X0002527165Y0001270881D01*
X0002526608Y0001270324D01*
X0002519537Y0001277395D01*
X0002520094Y0001277952D01*
X0002519537Y0001278509D01*
X0002526608Y0001285580D01*
X0002527165Y0001285023D01*
X0002527722Y0001285580D01*
X0002534793Y0001278509D01*
G36*
X0002288009Y0001466510D02*
X0002279928Y0001471909D01*
X0002250142Y0001477834D01*
X0002227022Y0001477834D01*
X0002197236Y0001471909D01*
X0002193049Y0001469112D01*
X0002200844Y0001483987D01*
X0002201256Y0001486258D01*
X0002196453Y0001495000D01*
X0002143582Y0001495000D01*
X0002143582Y0001494212D01*
X0002133582Y0001494212D01*
X0002133582Y0001495000D01*
X0002132795Y0001495000D01*
X0002132795Y0001502629D01*
X0002251890Y0001502629D01*
X0002288009Y0001466510D01*
X0002288009Y0001466510D01*
G37*
X0002288009Y0001466510D02*
X0002279928Y0001471909D01*
X0002250142Y0001477834D01*
X0002227022Y0001477834D01*
X0002197236Y0001471909D01*
X0002193049Y0001469112D01*
X0002200844Y0001483987D01*
X0002201256Y0001486258D01*
X0002196453Y0001495000D01*
X0002143582Y0001495000D01*
X0002143582Y0001494212D01*
X0002133582Y0001494212D01*
X0002133582Y0001495000D01*
X0002132795Y0001495000D01*
X0002132795Y0001502629D01*
X0002251890Y0001502629D01*
X0002288009Y0001466510D01*
G36*
X0001905391Y0001996513D02*
X0001922992Y0001992949D01*
X0001938740Y0001992949D01*
X0001942209Y0001993602D01*
X0001941431Y0001991730D01*
X0001941402Y0001958416D01*
X0001954124Y0001927627D01*
X0001977660Y0001904049D01*
X0002008427Y0001891274D01*
X0002041741Y0001891245D01*
X0002072530Y0001903967D01*
X0002096107Y0001927503D01*
X0002096988Y0001929624D01*
X0002183703Y0001929624D01*
X0002187588Y0001919118D01*
X0002211592Y0001910200D01*
X0002237183Y0001911147D01*
X0002256427Y0001919118D01*
X0002260312Y0001929624D01*
X0002222007Y0001967928D01*
X0002183703Y0001929624D01*
X0002096988Y0001929624D01*
X0002108883Y0001958269D01*
X0002108912Y0001991583D01*
X0002106413Y0001997629D01*
X0002161746Y0001997629D01*
X0002157208Y0001985414D01*
X0002158155Y0001959824D01*
X0002166126Y0001940580D01*
X0002176632Y0001936695D01*
X0002214936Y0001975000D01*
X0002214380Y0001975556D01*
X0002221451Y0001982627D01*
X0002222007Y0001982071D01*
X0002222564Y0001982627D01*
X0002229635Y0001975556D01*
X0002229078Y0001975000D01*
X0002267383Y0001936695D01*
X0002277889Y0001940580D01*
X0002286156Y0001962832D01*
X0002291784Y0001954085D01*
X0002302898Y0001946492D01*
X0002298783Y0001935414D01*
X0002299730Y0001909824D01*
X0002302504Y0001903127D01*
X0002292668Y0001896797D01*
X0002282537Y0001881970D01*
X0002278973Y0001864370D01*
X0002278973Y0001785629D01*
X0002282067Y0001769187D01*
X0002291784Y0001754085D01*
X0002302898Y0001746492D01*
X0002298783Y0001735414D01*
X0002299730Y0001709824D01*
X0002307701Y0001690580D01*
X0002318207Y0001686695D01*
X0002356511Y0001725000D01*
X0002355954Y0001725556D01*
X0002363025Y0001732627D01*
X0002363582Y0001732071D01*
X0002364139Y0001732627D01*
X0002371210Y0001725556D01*
X0002370653Y0001725000D01*
X0002371210Y0001724443D01*
X0002364139Y0001717372D01*
X0002363582Y0001717928D01*
X0002341985Y0001696331D01*
X0002341221Y0001696015D01*
X0002317649Y0001672485D01*
X0002304877Y0001641726D01*
X0002304869Y0001632370D01*
X0002048582Y0001632370D01*
X0002028541Y0001628383D01*
X0002011551Y0001617031D01*
X0001948226Y0001553706D01*
X0001946966Y0001560041D01*
X0001946654Y0001560507D01*
X0001935613Y0001577031D01*
X0001889777Y0001622867D01*
X0001895025Y0001623854D01*
X0001910126Y0001633572D01*
X0001920257Y0001648399D01*
X0001922991Y0001661899D01*
X0002105978Y0001661899D01*
X0002108897Y0001652210D01*
X0002130048Y0001644607D01*
X0002152498Y0001645678D01*
X0002168267Y0001652210D01*
X0002171186Y0001661899D01*
X0002138582Y0001694503D01*
X0002105978Y0001661899D01*
X0001922991Y0001661899D01*
X0001923822Y0001666000D01*
X0001923822Y0001734000D01*
X0001921257Y0001747629D01*
X0002067792Y0001747629D01*
X0002074658Y0001736959D01*
X0002087992Y0001727849D01*
X0002081615Y0001710109D01*
X0002082685Y0001687659D01*
X0002089217Y0001671889D01*
X0002098907Y0001668970D01*
X0002131511Y0001701574D01*
X0002130954Y0001702131D01*
X0002138025Y0001709202D01*
X0002138582Y0001708645D01*
X0002139139Y0001709202D01*
X0002146210Y0001702131D01*
X0002145653Y0001701574D01*
X0002178257Y0001668970D01*
X0002187947Y0001671889D01*
X0002195549Y0001693040D01*
X0002194479Y0001715490D01*
X0002189250Y0001728114D01*
X0002201622Y0001736076D01*
X0002211753Y0001750903D01*
X0002215318Y0001768503D01*
X0002215318Y0001831496D01*
X0002212224Y0001847938D01*
X0002202506Y0001863040D01*
X0002187679Y0001873171D01*
X0002170078Y0001876735D01*
X0002107086Y0001876735D01*
X0002090644Y0001873641D01*
X0002075542Y0001863923D01*
X0002067648Y0001852370D01*
X0001903686Y0001852370D01*
X0001901651Y0001855416D01*
X0001890184Y0001863078D01*
X0001891761Y0001864486D01*
X0001901760Y0001885244D01*
X0001901864Y0001885865D01*
X0001897095Y0001895000D01*
X0001843582Y0001895000D01*
X0001843582Y0001894212D01*
X0001833582Y0001894212D01*
X0001833582Y0001895000D01*
X0001780070Y0001895000D01*
X0001775300Y0001885865D01*
X0001775405Y0001885244D01*
X0001785404Y0001864486D01*
X0001786980Y0001863078D01*
X0001775513Y0001855416D01*
X0001758525Y0001829990D01*
X0001752559Y0001800000D01*
X0001758525Y0001770009D01*
X0001763944Y0001761899D01*
X0001756907Y0001751600D01*
X0001753343Y0001734000D01*
X0001753343Y0001666000D01*
X0001756437Y0001649557D01*
X0001766154Y0001634455D01*
X0001774316Y0001628879D01*
X0001771551Y0001627031D01*
X0001670182Y0001525662D01*
X0001670212Y0001560347D01*
X0001656294Y0001594032D01*
X0001652888Y0001597443D01*
X0001657370Y0001600327D01*
X0001667501Y0001615155D01*
X0001671066Y0001632755D01*
X0001671066Y0001727244D01*
X0001667972Y0001743686D01*
X0001658254Y0001758788D01*
X0001644279Y0001768337D01*
X0001656204Y0001780241D01*
X0001670180Y0001813901D01*
X0001670212Y0001850347D01*
X0001656294Y0001884032D01*
X0001639144Y0001901212D01*
X0001639988Y0001901561D01*
X0001647020Y0001908594D01*
X0001649315Y0001914134D01*
X0001775300Y0001914134D01*
X0001780070Y0001905000D01*
X0001833582Y0001905000D01*
X0001833582Y0001952792D01*
X0001843582Y0001952792D01*
X0001843582Y0001905000D01*
X0001897095Y0001905000D01*
X0001901864Y0001914134D01*
X0001901760Y0001914755D01*
X0001891761Y0001935513D01*
X0001874579Y0001950864D01*
X0001852831Y0001958471D01*
X0001843582Y0001952792D01*
X0001833582Y0001952792D01*
X0001824334Y0001958471D01*
X0001802585Y0001950864D01*
X0001785404Y0001935513D01*
X0001775405Y0001914755D01*
X0001775300Y0001914134D01*
X0001649315Y0001914134D01*
X0001650826Y0001917783D01*
X0001650826Y0001958750D01*
X0001644576Y0001965000D01*
X0001583582Y0001965000D01*
X0001583582Y0001964212D01*
X0001573582Y0001964212D01*
X0001573582Y0001965000D01*
X0001572795Y0001965000D01*
X0001572795Y0001975000D01*
X0001573582Y0001975000D01*
X0001573582Y0001975787D01*
X0001583582Y0001975787D01*
X0001583582Y0001975000D01*
X0001644576Y0001975000D01*
X0001650826Y0001981250D01*
X0001650826Y0001997629D01*
X0001903758Y0001997629D01*
X0001905391Y0001996513D01*
X0001905391Y0001996513D01*
G37*
X0001905391Y0001996513D02*
X0001922992Y0001992949D01*
X0001938740Y0001992949D01*
X0001942209Y0001993602D01*
X0001941431Y0001991730D01*
X0001941402Y0001958416D01*
X0001954124Y0001927627D01*
X0001977660Y0001904049D01*
X0002008427Y0001891274D01*
X0002041741Y0001891245D01*
X0002072530Y0001903967D01*
X0002096107Y0001927503D01*
X0002096988Y0001929624D01*
X0002183703Y0001929624D01*
X0002187588Y0001919118D01*
X0002211592Y0001910200D01*
X0002237183Y0001911147D01*
X0002256427Y0001919118D01*
X0002260312Y0001929624D01*
X0002222007Y0001967928D01*
X0002183703Y0001929624D01*
X0002096988Y0001929624D01*
X0002108883Y0001958269D01*
X0002108912Y0001991583D01*
X0002106413Y0001997629D01*
X0002161746Y0001997629D01*
X0002157208Y0001985414D01*
X0002158155Y0001959824D01*
X0002166126Y0001940580D01*
X0002176632Y0001936695D01*
X0002214936Y0001975000D01*
X0002214380Y0001975556D01*
X0002221451Y0001982627D01*
X0002222007Y0001982071D01*
X0002222564Y0001982627D01*
X0002229635Y0001975556D01*
X0002229078Y0001975000D01*
X0002267383Y0001936695D01*
X0002277889Y0001940580D01*
X0002286156Y0001962832D01*
X0002291784Y0001954085D01*
X0002302898Y0001946492D01*
X0002298783Y0001935414D01*
X0002299730Y0001909824D01*
X0002302504Y0001903127D01*
X0002292668Y0001896797D01*
X0002282537Y0001881970D01*
X0002278973Y0001864370D01*
X0002278973Y0001785629D01*
X0002282067Y0001769187D01*
X0002291784Y0001754085D01*
X0002302898Y0001746492D01*
X0002298783Y0001735414D01*
X0002299730Y0001709824D01*
X0002307701Y0001690580D01*
X0002318207Y0001686695D01*
X0002356511Y0001725000D01*
X0002355954Y0001725556D01*
X0002363025Y0001732627D01*
X0002363582Y0001732071D01*
X0002364139Y0001732627D01*
X0002371210Y0001725556D01*
X0002370653Y0001725000D01*
X0002371210Y0001724443D01*
X0002364139Y0001717372D01*
X0002363582Y0001717928D01*
X0002341985Y0001696331D01*
X0002341221Y0001696015D01*
X0002317649Y0001672485D01*
X0002304877Y0001641726D01*
X0002304869Y0001632370D01*
X0002048582Y0001632370D01*
X0002028541Y0001628383D01*
X0002011551Y0001617031D01*
X0001948226Y0001553706D01*
X0001946966Y0001560041D01*
X0001946654Y0001560507D01*
X0001935613Y0001577031D01*
X0001889777Y0001622867D01*
X0001895025Y0001623854D01*
X0001910126Y0001633572D01*
X0001920257Y0001648399D01*
X0001922991Y0001661899D01*
X0002105978Y0001661899D01*
X0002108897Y0001652210D01*
X0002130048Y0001644607D01*
X0002152498Y0001645678D01*
X0002168267Y0001652210D01*
X0002171186Y0001661899D01*
X0002138582Y0001694503D01*
X0002105978Y0001661899D01*
X0001922991Y0001661899D01*
X0001923822Y0001666000D01*
X0001923822Y0001734000D01*
X0001921257Y0001747629D01*
X0002067792Y0001747629D01*
X0002074658Y0001736959D01*
X0002087992Y0001727849D01*
X0002081615Y0001710109D01*
X0002082685Y0001687659D01*
X0002089217Y0001671889D01*
X0002098907Y0001668970D01*
X0002131511Y0001701574D01*
X0002130954Y0001702131D01*
X0002138025Y0001709202D01*
X0002138582Y0001708645D01*
X0002139139Y0001709202D01*
X0002146210Y0001702131D01*
X0002145653Y0001701574D01*
X0002178257Y0001668970D01*
X0002187947Y0001671889D01*
X0002195549Y0001693040D01*
X0002194479Y0001715490D01*
X0002189250Y0001728114D01*
X0002201622Y0001736076D01*
X0002211753Y0001750903D01*
X0002215318Y0001768503D01*
X0002215318Y0001831496D01*
X0002212224Y0001847938D01*
X0002202506Y0001863040D01*
X0002187679Y0001873171D01*
X0002170078Y0001876735D01*
X0002107086Y0001876735D01*
X0002090644Y0001873641D01*
X0002075542Y0001863923D01*
X0002067648Y0001852370D01*
X0001903686Y0001852370D01*
X0001901651Y0001855416D01*
X0001890184Y0001863078D01*
X0001891761Y0001864486D01*
X0001901760Y0001885244D01*
X0001901864Y0001885865D01*
X0001897095Y0001895000D01*
X0001843582Y0001895000D01*
X0001843582Y0001894212D01*
X0001833582Y0001894212D01*
X0001833582Y0001895000D01*
X0001780070Y0001895000D01*
X0001775300Y0001885865D01*
X0001775405Y0001885244D01*
X0001785404Y0001864486D01*
X0001786980Y0001863078D01*
X0001775513Y0001855416D01*
X0001758525Y0001829990D01*
X0001752559Y0001800000D01*
X0001758525Y0001770009D01*
X0001763944Y0001761899D01*
X0001756907Y0001751600D01*
X0001753343Y0001734000D01*
X0001753343Y0001666000D01*
X0001756437Y0001649557D01*
X0001766154Y0001634455D01*
X0001774316Y0001628879D01*
X0001771551Y0001627031D01*
X0001670182Y0001525662D01*
X0001670212Y0001560347D01*
X0001656294Y0001594032D01*
X0001652888Y0001597443D01*
X0001657370Y0001600327D01*
X0001667501Y0001615155D01*
X0001671066Y0001632755D01*
X0001671066Y0001727244D01*
X0001667972Y0001743686D01*
X0001658254Y0001758788D01*
X0001644279Y0001768337D01*
X0001656204Y0001780241D01*
X0001670180Y0001813901D01*
X0001670212Y0001850347D01*
X0001656294Y0001884032D01*
X0001639144Y0001901212D01*
X0001639988Y0001901561D01*
X0001647020Y0001908594D01*
X0001649315Y0001914134D01*
X0001775300Y0001914134D01*
X0001780070Y0001905000D01*
X0001833582Y0001905000D01*
X0001833582Y0001952792D01*
X0001843582Y0001952792D01*
X0001843582Y0001905000D01*
X0001897095Y0001905000D01*
X0001901864Y0001914134D01*
X0001901760Y0001914755D01*
X0001891761Y0001935513D01*
X0001874579Y0001950864D01*
X0001852831Y0001958471D01*
X0001843582Y0001952792D01*
X0001833582Y0001952792D01*
X0001824334Y0001958471D01*
X0001802585Y0001950864D01*
X0001785404Y0001935513D01*
X0001775405Y0001914755D01*
X0001775300Y0001914134D01*
X0001649315Y0001914134D01*
X0001650826Y0001917783D01*
X0001650826Y0001958750D01*
X0001644576Y0001965000D01*
X0001583582Y0001965000D01*
X0001583582Y0001964212D01*
X0001573582Y0001964212D01*
X0001573582Y0001965000D01*
X0001572795Y0001965000D01*
X0001572795Y0001975000D01*
X0001573582Y0001975000D01*
X0001573582Y0001975787D01*
X0001583582Y0001975787D01*
X0001583582Y0001975000D01*
X0001644576Y0001975000D01*
X0001650826Y0001981250D01*
X0001650826Y0001997629D01*
X0001903758Y0001997629D01*
X0001905391Y0001996513D01*
G36*
X0002371210Y0001925556D02*
X0002370653Y0001925000D01*
X0002371210Y0001924443D01*
X0002364139Y0001917372D01*
X0002363582Y0001917928D01*
X0002363025Y0001917372D01*
X0002355954Y0001924443D01*
X0002356511Y0001925000D01*
X0002355954Y0001925556D01*
X0002363025Y0001932627D01*
X0002363582Y0001932071D01*
X0002364139Y0001932627D01*
X0002371210Y0001925556D01*
X0002371210Y0001925556D01*
G37*
X0002371210Y0001925556D02*
X0002370653Y0001925000D01*
X0002371210Y0001924443D01*
X0002364139Y0001917372D01*
X0002363582Y0001917928D01*
X0002363025Y0001917372D01*
X0002355954Y0001924443D01*
X0002356511Y0001925000D01*
X0002355954Y0001925556D01*
X0002363025Y0001932627D01*
X0002363582Y0001932071D01*
X0002364139Y0001932627D01*
X0002371210Y0001925556D01*
G36*
X0002306165Y0002239156D02*
X0002310933Y0002230000D01*
X0002351511Y0002230000D01*
X0002355954Y0002225556D01*
X0002363025Y0002232627D01*
X0002358582Y0002237071D01*
X0002358582Y0002250629D01*
X0002368582Y0002250629D01*
X0002368582Y0002237071D01*
X0002364139Y0002232627D01*
X0002371210Y0002225556D01*
X0002375653Y0002230000D01*
X0002416232Y0002230000D01*
X0002420999Y0002239156D01*
X0002415624Y0002250629D01*
X0002433720Y0002250629D01*
X0002476722Y0002242076D01*
X0002509054Y0002220472D01*
X0002530659Y0002188139D01*
X0002539212Y0002145137D01*
X0002539212Y0001963748D01*
X0002536966Y0001975041D01*
X0002529891Y0001985629D01*
X0002525613Y0001992031D01*
X0002455613Y0002062031D01*
X0002447628Y0002067367D01*
X0002445098Y0002080812D01*
X0002435380Y0002095914D01*
X0002435302Y0002095967D01*
X0002440939Y0002109542D01*
X0002440966Y0002140322D01*
X0002429212Y0002168769D01*
X0002409139Y0002188876D01*
X0002414192Y0002194410D01*
X0002420999Y0002210843D01*
X0002416232Y0002220000D01*
X0002375653Y0002220000D01*
X0002371210Y0002224443D01*
X0002364139Y0002217372D01*
X0002368582Y0002212928D01*
X0002368582Y0002202365D01*
X0002358582Y0002202374D01*
X0002358582Y0002212928D01*
X0002363025Y0002217372D01*
X0002355954Y0002224443D01*
X0002351511Y0002220000D01*
X0002310933Y0002220000D01*
X0002306165Y0002210843D01*
X0002315953Y0002189948D01*
X0002317613Y0002188433D01*
X0002306020Y0002176860D01*
X0002295573Y0002174782D01*
X0002280487Y0002211293D01*
X0002250036Y0002241798D01*
X0002228766Y0002250629D01*
X0002310918Y0002250629D01*
X0002306165Y0002239156D01*
X0002306165Y0002239156D01*
G37*
X0002306165Y0002239156D02*
X0002310933Y0002230000D01*
X0002351511Y0002230000D01*
X0002355954Y0002225556D01*
X0002363025Y0002232627D01*
X0002358582Y0002237071D01*
X0002358582Y0002250629D01*
X0002368582Y0002250629D01*
X0002368582Y0002237071D01*
X0002364139Y0002232627D01*
X0002371210Y0002225556D01*
X0002375653Y0002230000D01*
X0002416232Y0002230000D01*
X0002420999Y0002239156D01*
X0002415624Y0002250629D01*
X0002433720Y0002250629D01*
X0002476722Y0002242076D01*
X0002509054Y0002220472D01*
X0002530659Y0002188139D01*
X0002539212Y0002145137D01*
X0002539212Y0001963748D01*
X0002536966Y0001975041D01*
X0002529891Y0001985629D01*
X0002525613Y0001992031D01*
X0002455613Y0002062031D01*
X0002447628Y0002067367D01*
X0002445098Y0002080812D01*
X0002435380Y0002095914D01*
X0002435302Y0002095967D01*
X0002440939Y0002109542D01*
X0002440966Y0002140322D01*
X0002429212Y0002168769D01*
X0002409139Y0002188876D01*
X0002414192Y0002194410D01*
X0002420999Y0002210843D01*
X0002416232Y0002220000D01*
X0002375653Y0002220000D01*
X0002371210Y0002224443D01*
X0002364139Y0002217372D01*
X0002368582Y0002212928D01*
X0002368582Y0002202365D01*
X0002358582Y0002202374D01*
X0002358582Y0002212928D01*
X0002363025Y0002217372D01*
X0002355954Y0002224443D01*
X0002351511Y0002220000D01*
X0002310933Y0002220000D01*
X0002306165Y0002210843D01*
X0002315953Y0002189948D01*
X0002317613Y0002188433D01*
X0002306020Y0002176860D01*
X0002295573Y0002174782D01*
X0002280487Y0002211293D01*
X0002250036Y0002241798D01*
X0002228766Y0002250629D01*
X0002310918Y0002250629D01*
X0002306165Y0002239156D01*
G04 next file*
G04 #@! TF.FileFunction,Copper,L2,Bot,Signal*
G04 Gerber Fmt 4.6, Leading zero omitted, Abs format (unit mm)*
G04 Created by KiCad (PCBNEW 4.0.6) date 02/13/20 12:12:51*
G01*
G04 APERTURE LIST*
G04 APERTURE END LIST*
D83*
D84*
X-0002122834Y0004650000D02*
X0002777165Y0000250000D03*
D85*
X0002777165Y0000348425D03*
X0002777165Y0000446850D03*
X0002777165Y0000545275D03*
X0002777165Y0000643700D03*
D86*
X0003177165Y0001700000D03*
D87*
X0003177165Y0001800000D03*
X0003177165Y0001900000D03*
D88*
X0002977165Y0000100000D03*
X0002977165Y0000200000D03*
X0002977165Y0000300000D03*
X0002977165Y0000400000D03*
X0002977165Y0000500000D03*
X0002977165Y0000600000D03*
X0002977165Y0000700000D03*
X0002977165Y0000800000D03*
X0002977165Y0000900000D03*
X0002977165Y0001000000D03*
X0002977165Y0001100000D03*
X0002977165Y0001200000D03*
X0002977165Y0001300000D03*
X0002977165Y0001400000D03*
D85*
X0003363740Y0001975000D03*
X0003560590Y0001975000D03*
X0003702165Y0000275000D03*
D84*
X0003702165Y0000375000D03*
D89*
X0003702165Y0002125000D03*
X0003702165Y0002225000D03*
D90*
X0003127165Y0000450000D03*
D91*
X0003225590Y0000450000D03*
D84*
X0003102165Y0000275000D03*
D85*
X0003102165Y0000176574D03*
D92*
X0003477165Y0000700000D03*
X0003477165Y0000800000D03*
X0003477165Y0000900000D03*
X0003477165Y0001000000D03*
X0003477165Y0001100000D03*
X0003477165Y0001200000D03*
X0003477165Y0001300000D03*
X0003477165Y0001400000D03*
X0003477165Y0001500000D03*
X0003177165Y0001500000D03*
X0003177165Y0001400000D03*
X0003177165Y0001300000D03*
X0003177165Y0001200000D03*
X0003177165Y0001100000D03*
X0003177165Y0001000000D03*
X0003177165Y0000900000D03*
X0003177165Y0000800000D03*
X0003177165Y0000700000D03*
D93*
X0003477165Y0001701574D03*
D94*
X0003477165Y0001800000D03*
D84*
X0003077165Y0002200000D03*
D85*
X0003177165Y0002200000D03*
X0003277165Y0002200000D03*
D95*
X0002917165Y0001832204D03*
D96*
X0002917165Y0001970000D03*
D95*
X0002917165Y0001542204D03*
D96*
X0002917165Y0001680000D03*
D85*
X0003688582Y0001277952D03*
X0003865748Y0001277952D03*
X0003688582Y0001022047D03*
X0003865748Y0001022047D03*
D97*
X0003269448Y0002050000D03*
X0003304881Y0002050000D03*
D89*
X0003702165Y0000075000D03*
X0003702165Y0000175000D03*
D85*
X0003702165Y0000475000D03*
D84*
X0003702165Y0000575000D03*
D85*
X0003702165Y0001925000D03*
D84*
X0003702165Y0002025000D03*
D85*
X0003702165Y0001725000D03*
D84*
X0003702165Y0001825000D03*
D98*
X0003352165Y0000275000D03*
X0003352165Y0000525000D03*
X0003452165Y0000275000D03*
X0003452165Y0000525000D03*
X0003827165Y0001375000D03*
X0003827165Y0001625000D03*
X0003727165Y0001375000D03*
X0003727165Y0001625000D03*
X0003827165Y0000925000D03*
X0003827165Y0000675000D03*
X0003727165Y0000925000D03*
X0003727165Y0000675000D03*
D88*
X0003577165Y0000100000D03*
X0003577165Y0000200000D03*
X0003577165Y0000300000D03*
X0003577165Y0000400000D03*
X0003577165Y0000500000D03*
X0003577165Y0000600000D03*
X0003577165Y0000700000D03*
X0003577165Y0000800000D03*
X0003577165Y0000900000D03*
X0003577165Y0001000000D03*
X0003577165Y0001100000D03*
X0003577165Y0001200000D03*
X0003577165Y0001300000D03*
X0003577165Y0001400000D03*
D84*
X0002777165Y0000950000D03*
D85*
X0002777165Y0001048425D03*
X0002777165Y0001146850D03*
X0002777165Y0001245275D03*
X0002777165Y0001343700D03*
D99*
X0002757165Y0001430000D03*
D100*
X0003102165Y0000176574D02*
X0003138740Y0000176574D01*
X0003138740Y0000176574D02*
X0003225590Y0000263425D01*
X0003225590Y0000263425D02*
X0003225590Y0000450000D01*
X0003702165Y0001925000D02*
X0003610590Y0001925000D01*
X0003610590Y0001925000D02*
X0003560590Y0001975000D01*
X0003177165Y0001900000D02*
X0003485590Y0001900000D01*
X0003485590Y0001900000D02*
X0003560590Y0001975000D01*
X0003702165Y0000175000D02*
X0003702165Y0000275000D01*
X0003702165Y0000275000D02*
X0003727165Y0000275000D01*
X0003727165Y0000275000D02*
X0003802165Y0000350000D01*
X0003752165Y0000475000D02*
X0003702165Y0000475000D01*
X0003802165Y0000425000D02*
X0003752165Y0000475000D01*
X0003802165Y0000350000D02*
X0003802165Y0000425000D01*
X0003102165Y0000176574D02*
X0003102165Y0000180000D01*
D101*
X0003560590Y0001975000D02*
X0003552165Y0001975000D01*
X0003702165Y0000475000D02*
X0003677165Y0000475000D01*
X0003702165Y0001925000D02*
X0003677165Y0001925000D01*
X0003682165Y0000475000D02*
X0003702165Y0000475000D01*
D100*
X0003102165Y0000176574D02*
X0003103740Y0000176574D01*
X0003177165Y0001900000D02*
X0003102165Y0001900000D01*
X0003102165Y0001900000D02*
X0003032165Y0001970000D01*
X0003032165Y0001970000D02*
X0002917165Y0001970000D01*
D101*
X0003692165Y0002225000D02*
X0003702165Y0002225000D01*
X0002977165Y0000700000D02*
X0003067165Y0000700000D01*
X0003277165Y0000800000D02*
X0003477165Y0000800000D01*
X0003227165Y0000750000D02*
X0003277165Y0000800000D01*
X0003117165Y0000750000D02*
X0003227165Y0000750000D01*
X0003067165Y0000700000D02*
X0003117165Y0000750000D01*
X0003652165Y0000875000D02*
X0003652165Y0000790000D01*
X0003652165Y0000875000D02*
X0003652165Y0000985629D01*
X0003688582Y0001022047D02*
X0003652165Y0000985629D01*
X0003612165Y0000750000D02*
X0003327165Y0000750000D01*
X0003652165Y0000790000D02*
X0003612165Y0000750000D01*
X0002977165Y0000500000D02*
X0003027165Y0000500000D01*
X0003202165Y0000625000D02*
X0003327165Y0000750000D01*
X0003152165Y0000625000D02*
X0003202165Y0000625000D01*
X0003027165Y0000500000D02*
X0003152165Y0000625000D01*
X0002977165Y0000400000D02*
X0003117165Y0000540000D01*
X0003332165Y0000700000D02*
X0003477165Y0000700000D01*
X0003172165Y0000540000D02*
X0003332165Y0000700000D01*
X0003117165Y0000540000D02*
X0003172165Y0000540000D01*
X0002777165Y0000348425D02*
X0002835590Y0000348425D01*
X0002902165Y0000725000D02*
X0002927165Y0000750000D01*
X0003102165Y0000800000D02*
X0003177165Y0000800000D01*
X0003052165Y0000750000D02*
X0002927165Y0000750000D01*
X0003102165Y0000800000D02*
X0003052165Y0000750000D01*
X0002902165Y0000555000D02*
X0002902165Y0000725000D01*
X0002877165Y0000530000D02*
X0002902165Y0000555000D01*
X0002877165Y0000390000D02*
X0002877165Y0000530000D01*
X0002835590Y0000348425D02*
X0002877165Y0000390000D01*
X0002952165Y0000550000D02*
X0002932165Y0000550000D01*
X0002902165Y0000325000D02*
X0002827165Y0000250000D01*
X0002777165Y0000250000D02*
X0002827165Y0000250000D01*
X0003077165Y0000600000D02*
X0003177165Y0000700000D01*
X0003077165Y0000600000D02*
X0003027165Y0000550000D01*
X0003027165Y0000550000D02*
X0002952165Y0000550000D01*
X0002902165Y0000500000D02*
X0002902165Y0000325000D01*
X0002902165Y0000520000D02*
X0002902165Y0000500000D01*
X0002932165Y0000550000D02*
X0002902165Y0000520000D01*
X0002777165Y0001048425D02*
X0002825590Y0001048425D01*
X0003129665Y0001202500D02*
X0003177165Y0001200000D01*
X0003079665Y0001152500D02*
X0003129665Y0001202500D01*
X0002927165Y0001150000D02*
X0003079665Y0001152500D01*
X0002825590Y0001048425D02*
X0002927165Y0001150000D01*
X0002778740Y0001050000D02*
X0002777165Y0001048425D01*
X0002778740Y0001050000D02*
X0002777165Y0001048425D01*
X0003177165Y0001100000D02*
X0003102165Y0001100000D01*
X0002827165Y0000950000D02*
X0002777165Y0000950000D01*
X0002927165Y0001050000D02*
X0002827165Y0000950000D01*
X0003052165Y0001050000D02*
X0002927165Y0001050000D01*
X0003102165Y0001100000D02*
X0003052165Y0001050000D01*
X0002877165Y0000775000D02*
X0002877165Y0000800000D01*
X0003177165Y0000900000D02*
X0003102165Y0000900000D01*
X0002927165Y0000850000D02*
X0002902165Y0000825000D01*
X0003052165Y0000850000D02*
X0002927165Y0000850000D01*
X0003102165Y0000900000D02*
X0003052165Y0000850000D01*
X0002819015Y0000446850D02*
X0002852165Y0000480000D01*
X0002852165Y0000480000D02*
X0002852165Y0000540000D01*
X0002852165Y0000540000D02*
X0002877165Y0000565000D01*
X0002877165Y0000565000D02*
X0002877165Y0000775000D01*
X0002819015Y0000446850D02*
X0002777165Y0000446850D01*
X0002877165Y0000800000D02*
X0002902165Y0000825000D01*
X0002777165Y0000450000D02*
X0002777165Y0000448425D01*
X0002777165Y0000450000D02*
X0002777165Y0000448425D01*
X0002777165Y0000545275D02*
X0002787440Y0000545275D01*
X0002787440Y0000545275D02*
X0002852165Y0000610000D01*
X0003107165Y0001000000D02*
X0003177165Y0001000000D01*
X0003057165Y0000950000D02*
X0003107165Y0001000000D01*
X0002927165Y0000950000D02*
X0003057165Y0000950000D01*
X0002902165Y0000925000D02*
X0002927165Y0000950000D01*
X0002902165Y0000860000D02*
X0002902165Y0000925000D01*
X0002852165Y0000810000D02*
X0002902165Y0000860000D01*
X0002852165Y0000610000D02*
X0002852165Y0000810000D01*
X0002777165Y0000545275D02*
X0002807440Y0000545275D01*
X0002777165Y0000550000D02*
X0002777165Y0000546850D01*
X0003177165Y0001300000D02*
X0003127165Y0001300000D01*
X0002880315Y0001250000D02*
X0002777165Y0001146850D01*
X0003077165Y0001250000D02*
X0002880315Y0001250000D01*
X0003127165Y0001300000D02*
X0003077165Y0001250000D01*
X0003177165Y0001400000D02*
X0003102165Y0001400000D01*
X0002881889Y0001350000D02*
X0002777165Y0001245275D01*
X0003052165Y0001350000D02*
X0002881889Y0001350000D01*
X0003102165Y0001400000D02*
X0003052165Y0001350000D01*
X0003477165Y0000900000D02*
X0003577165Y0000900000D01*
X0003477165Y0001000000D02*
X0003577165Y0001000000D01*
X0003577165Y0000500000D02*
X0003547165Y0000500000D01*
X0003547165Y0000500000D02*
X0003512165Y0000465000D01*
X0003512165Y0000465000D02*
X0003512165Y0000205000D01*
X0003512165Y0000205000D02*
X0003402165Y0000095000D01*
X0002712165Y0001385000D02*
X0002757165Y0001430000D01*
X0002712165Y0000180000D02*
X0002712165Y0001385000D01*
X0002857165Y0000035000D02*
X0002712165Y0000180000D01*
X0003342165Y0000035000D02*
X0002857165Y0000035000D01*
X0003402165Y0000095000D02*
X0003342165Y0000035000D01*
X0003772165Y0000985000D02*
X0003772165Y0000980000D01*
X0003772165Y0000985000D02*
X0003772165Y0001320000D01*
X0003827165Y0001375000D02*
X0003772165Y0001320000D01*
X0003772165Y0000980000D02*
X0003827165Y0000925000D01*
X0003267165Y0001430000D02*
X0003267165Y0001460000D01*
X0002977165Y0001000000D02*
X0003057165Y0001000000D01*
X0003267165Y0001095000D02*
X0003267165Y0001430000D01*
X0003222165Y0001050000D02*
X0003267165Y0001095000D01*
X0003107165Y0001050000D02*
X0003222165Y0001050000D01*
X0003057165Y0001000000D02*
X0003107165Y0001050000D01*
X0003652165Y0001580000D02*
X0003827165Y0001405000D01*
X0003387165Y0001580000D02*
X0003652165Y0001580000D01*
X0003267165Y0001460000D02*
X0003387165Y0001580000D01*
X0003827165Y0001405000D02*
X0003827165Y0001375000D01*
X0003702165Y0000375000D02*
X0003727165Y0000375000D01*
X0003727165Y0001625000D02*
X0003727165Y0001630000D01*
X0003727165Y0001630000D02*
X0003777165Y0001680000D01*
X0003777165Y0001680000D02*
X0003777165Y0001785000D01*
X0003777165Y0001785000D02*
X0003737165Y0001825000D01*
X0003737165Y0001825000D02*
X0003702165Y0001825000D01*
X0003702165Y0000575000D02*
X0003682165Y0000575000D01*
X0003827165Y0001625000D02*
X0003827165Y0001955000D01*
X0003757165Y0002025000D02*
X0003702165Y0002025000D01*
X0003827165Y0001955000D02*
X0003757165Y0002025000D01*
X0002977165Y0000800000D02*
X0003052165Y0000800000D01*
X0003402165Y0001400000D02*
X0003477165Y0001400000D01*
X0003352165Y0001350000D02*
X0003402165Y0001400000D01*
X0003352165Y0000950000D02*
X0003352165Y0001350000D01*
X0003252165Y0000850000D02*
X0003352165Y0000950000D01*
X0003102165Y0000850000D02*
X0003252165Y0000850000D01*
X0003052165Y0000800000D02*
X0003102165Y0000850000D01*
X0003637165Y0000425000D02*
X0003637165Y0000520000D01*
X0003702165Y0000075000D02*
X0003637165Y0000140000D01*
X0003637165Y0000225000D02*
X0003637165Y0000140000D01*
X0003637165Y0000225000D02*
X0003637165Y0000425000D01*
X0003607165Y0000550000D02*
X0003477165Y0000550000D01*
X0003637165Y0000520000D02*
X0003607165Y0000550000D01*
X0003477165Y0000550000D02*
X0003452165Y0000525000D01*
X0003702165Y0000075000D02*
X0003687165Y0000075000D01*
X0003702165Y0000075000D02*
X0003722165Y0000075000D01*
X0003567165Y0002050000D02*
X0003572165Y0002050000D01*
X0003572165Y0002050000D02*
X0003647165Y0002125000D01*
X0003647165Y0002125000D02*
X0003702165Y0002125000D01*
X0003304881Y0002050000D02*
X0003567165Y0002050000D01*
X0003692165Y0002125000D02*
X0003702165Y0002125000D01*
D102*
X0003102165Y0000275000D02*
X0003102165Y0000425000D01*
X0003102165Y0000425000D02*
X0003127165Y0000450000D01*
X0002977165Y0000100000D02*
X0002997165Y0000100000D01*
X0002997165Y0000100000D02*
X0003042165Y0000145000D01*
X0003042165Y0000215000D02*
X0003102165Y0000275000D01*
X0003042165Y0000145000D02*
X0003042165Y0000215000D01*
D101*
X0003177165Y0001800000D02*
X0003477165Y0001800000D01*
X0003477165Y0001100000D02*
X0003577165Y0001100000D01*
X0003477165Y0001200000D02*
X0003577165Y0001200000D01*
X0003477165Y0001300000D02*
X0003577165Y0001300000D01*
X0003302165Y0001375000D02*
X0003302165Y0001455000D01*
X0002977165Y0000900000D02*
X0003052165Y0000900000D01*
X0003302165Y0001050000D02*
X0003302165Y0001375000D01*
X0003202165Y0000950000D02*
X0003302165Y0001050000D01*
X0003102165Y0000950000D02*
X0003202165Y0000950000D01*
X0003052165Y0000900000D02*
X0003102165Y0000950000D01*
X0003727165Y0001440000D02*
X0003727165Y0001375000D01*
X0003612165Y0001555000D02*
X0003727165Y0001440000D01*
X0003402165Y0001555000D02*
X0003612165Y0001555000D01*
X0003302165Y0001455000D02*
X0003402165Y0001555000D01*
X0002827165Y0002050000D02*
X0002797165Y0002020000D01*
X0002797165Y0002020000D02*
X0002797165Y0001530000D01*
X0002797165Y0001530000D02*
X0002857165Y0001470000D01*
X0002857165Y0001470000D02*
X0003027165Y0001470000D01*
X0003027165Y0001470000D02*
X0003147165Y0001590000D01*
X0003147165Y0001590000D02*
X0003187165Y0001590000D01*
X0003187165Y0001590000D02*
X0003237165Y0001540000D01*
X0003237165Y0001540000D02*
X0003237165Y0001280000D01*
X0003237165Y0001280000D02*
X0003207165Y0001250000D01*
X0003207165Y0001250000D02*
X0003127165Y0001250000D01*
X0002827165Y0002050000D02*
X0003269448Y0002050000D01*
X0002977165Y0001200000D02*
X0003077165Y0001200000D01*
X0003127165Y0001250000D02*
X0003077165Y0001200000D01*
D103*
G36*
X0003877795Y0000154862D02*
X0003869241Y0000111860D01*
X0003847637Y0000079527D01*
X0003815304Y0000057923D01*
X0003775567Y0000050019D01*
X0003779522Y0000059542D01*
X0003779548Y0000090322D01*
X0003767794Y0000118769D01*
X0003747722Y0000138876D01*
X0003752775Y0000144410D01*
X0003759582Y0000160843D01*
X0003754814Y0000169999D01*
X0003714236Y0000169999D01*
X0003709793Y0000174443D01*
X0003702722Y0000167372D01*
X0003707165Y0000162928D01*
X0003707165Y0000152365D01*
X0003698854Y0000152373D01*
X0003697165Y0000154062D01*
X0003697165Y0000162928D01*
X0003701608Y0000167372D01*
X0003694537Y0000174443D01*
X0003690094Y0000169999D01*
X0003689535Y0000169999D01*
X0003689535Y0000180000D01*
X0003690094Y0000180000D01*
X0003694537Y0000175556D01*
X0003701608Y0000182627D01*
X0003697165Y0000187071D01*
X0003697165Y0000210400D01*
X0003707165Y0000210770D01*
X0003707165Y0000180000D01*
X0003754814Y0000180000D01*
X0003759582Y0000189156D01*
X0003749794Y0000210051D01*
X0003737412Y0000221357D01*
X0003740469Y0000229624D01*
X0003702165Y0000267928D01*
X0003701608Y0000267372D01*
X0003694537Y0000274443D01*
X0003695094Y0000275000D01*
X0003694537Y0000275556D01*
X0003701608Y0000282627D01*
X0003702165Y0000282071D01*
X0003702722Y0000282627D01*
X0003709793Y0000275556D01*
X0003709236Y0000275000D01*
X0003747540Y0000236695D01*
X0003758046Y0000240580D01*
X0003766964Y0000264585D01*
X0003766017Y0000290175D01*
X0003763243Y0000296872D01*
X0003773079Y0000303202D01*
X0003783210Y0000318029D01*
X0003786774Y0000335629D01*
X0003786774Y0000414370D01*
X0003783680Y0000430812D01*
X0003773963Y0000445914D01*
X0003762849Y0000453507D01*
X0003766964Y0000464585D01*
X0003766017Y0000490175D01*
X0003763243Y0000496872D01*
X0003773079Y0000503202D01*
X0003783210Y0000518029D01*
X0003786774Y0000535629D01*
X0003786774Y0000601120D01*
X0003810439Y0000591294D01*
X0003843745Y0000591265D01*
X0003874527Y0000603984D01*
X0003877795Y0000607246D01*
X0003877795Y0000154862D01*
X0003877795Y0000154862D01*
G37*
X0003877795Y0000154862D02*
X0003869241Y0000111860D01*
X0003847637Y0000079527D01*
X0003815304Y0000057923D01*
X0003775567Y0000050019D01*
X0003779522Y0000059542D01*
X0003779548Y0000090322D01*
X0003767794Y0000118769D01*
X0003747722Y0000138876D01*
X0003752775Y0000144410D01*
X0003759582Y0000160843D01*
X0003754814Y0000169999D01*
X0003714236Y0000169999D01*
X0003709793Y0000174443D01*
X0003702722Y0000167372D01*
X0003707165Y0000162928D01*
X0003707165Y0000152365D01*
X0003698854Y0000152373D01*
X0003697165Y0000154062D01*
X0003697165Y0000162928D01*
X0003701608Y0000167372D01*
X0003694537Y0000174443D01*
X0003690094Y0000169999D01*
X0003689535Y0000169999D01*
X0003689535Y0000180000D01*
X0003690094Y0000180000D01*
X0003694537Y0000175556D01*
X0003701608Y0000182627D01*
X0003697165Y0000187071D01*
X0003697165Y0000210400D01*
X0003707165Y0000210770D01*
X0003707165Y0000180000D01*
X0003754814Y0000180000D01*
X0003759582Y0000189156D01*
X0003749794Y0000210051D01*
X0003737412Y0000221357D01*
X0003740469Y0000229624D01*
X0003702165Y0000267928D01*
X0003701608Y0000267372D01*
X0003694537Y0000274443D01*
X0003695094Y0000275000D01*
X0003694537Y0000275556D01*
X0003701608Y0000282627D01*
X0003702165Y0000282071D01*
X0003702722Y0000282627D01*
X0003709793Y0000275556D01*
X0003709236Y0000275000D01*
X0003747540Y0000236695D01*
X0003758046Y0000240580D01*
X0003766964Y0000264585D01*
X0003766017Y0000290175D01*
X0003763243Y0000296872D01*
X0003773079Y0000303202D01*
X0003783210Y0000318029D01*
X0003786774Y0000335629D01*
X0003786774Y0000414370D01*
X0003783680Y0000430812D01*
X0003773963Y0000445914D01*
X0003762849Y0000453507D01*
X0003766964Y0000464585D01*
X0003766017Y0000490175D01*
X0003763243Y0000496872D01*
X0003773079Y0000503202D01*
X0003783210Y0000518029D01*
X0003786774Y0000535629D01*
X0003786774Y0000601120D01*
X0003810439Y0000591294D01*
X0003843745Y0000591265D01*
X0003874527Y0000603984D01*
X0003877795Y0000607246D01*
X0003877795Y0000154862D01*
G36*
X0003414005Y0000646354D02*
X0003438618Y0000629908D01*
X0003467650Y0000624133D01*
X0003486679Y0000624133D01*
X0003492813Y0000625353D01*
X0003488241Y0000602370D01*
X0003484148Y0000602370D01*
X0003468891Y0000608705D01*
X0003435585Y0000608734D01*
X0003404803Y0000596015D01*
X0003402181Y0000593398D01*
X0003399650Y0000595933D01*
X0003368891Y0000608705D01*
X0003335585Y0000608734D01*
X0003304803Y0000596015D01*
X0003281232Y0000572485D01*
X0003268459Y0000541726D01*
X0003268430Y0000508420D01*
X0003281149Y0000477638D01*
X0003304679Y0000454066D01*
X0003335439Y0000441294D01*
X0003368745Y0000441265D01*
X0003399527Y0000453984D01*
X0003402149Y0000456601D01*
X0003404679Y0000454066D01*
X0003435439Y0000441294D01*
X0003459795Y0000441273D01*
X0003459795Y0000358713D01*
X0003435585Y0000358734D01*
X0003404803Y0000346015D01*
X0003402181Y0000343398D01*
X0003399650Y0000345933D01*
X0003368891Y0000358705D01*
X0003335585Y0000358734D01*
X0003304803Y0000346015D01*
X0003281232Y0000322485D01*
X0003268459Y0000291726D01*
X0003268430Y0000258420D01*
X0003268458Y0000258354D01*
X0003255708Y0000258365D01*
X0003215872Y0000241905D01*
X0003185367Y0000211453D01*
X0003168837Y0000171645D01*
X0003168800Y0000128543D01*
X0003185260Y0000088706D01*
X0003186594Y0000087370D01*
X0003064048Y0000087370D01*
X0003066103Y0000097704D01*
X0003077782Y0000109382D01*
X0003081840Y0000115456D01*
X0003091750Y0000111775D01*
X0003117340Y0000112722D01*
X0003136585Y0000120693D01*
X0003140469Y0000131199D01*
X0003102165Y0000169503D01*
X0003101608Y0000168946D01*
X0003094537Y0000176017D01*
X0003095094Y0000176574D01*
X0003094537Y0000177131D01*
X0003101608Y0000184202D01*
X0003102165Y0000183645D01*
X0003102722Y0000184202D01*
X0003109793Y0000177131D01*
X0003109236Y0000176574D01*
X0003147540Y0000138270D01*
X0003158046Y0000142154D01*
X0003166964Y0000166159D01*
X0003166017Y0000191750D01*
X0003163758Y0000197204D01*
X0003173079Y0000203202D01*
X0003183210Y0000218029D01*
X0003186774Y0000235629D01*
X0003186774Y0000314370D01*
X0003183680Y0000330812D01*
X0003173963Y0000345914D01*
X0003159136Y0000356045D01*
X0003152535Y0000357381D01*
X0003152535Y0000369327D01*
X0003162598Y0000369327D01*
X0003179041Y0000372421D01*
X0003194142Y0000382139D01*
X0003202350Y0000394151D01*
X0003216115Y0000389115D01*
X0003240136Y0000390124D01*
X0003257643Y0000397376D01*
X0003261045Y0000407474D01*
X0003225590Y0000442928D01*
X0003225033Y0000442372D01*
X0003217962Y0000449443D01*
X0003218519Y0000450000D01*
X0003232661Y0000450000D01*
X0003268116Y0000414545D01*
X0003278214Y0000417946D01*
X0003286474Y0000440525D01*
X0003285466Y0000464545D01*
X0003278214Y0000482053D01*
X0003268116Y0000485454D01*
X0003232661Y0000450000D01*
X0003218519Y0000450000D01*
X0003217962Y0000450556D01*
X0003225033Y0000457627D01*
X0003225590Y0000457071D01*
X0003261045Y0000492525D01*
X0003257643Y0000502623D01*
X0003235065Y0000510884D01*
X0003216325Y0000510097D01*
X0003353857Y0000647629D01*
X0003413153Y0000647629D01*
X0003414005Y0000646354D01*
X0003414005Y0000646354D01*
G37*
X0003414005Y0000646354D02*
X0003438618Y0000629908D01*
X0003467650Y0000624133D01*
X0003486679Y0000624133D01*
X0003492813Y0000625353D01*
X0003488241Y0000602370D01*
X0003484148Y0000602370D01*
X0003468891Y0000608705D01*
X0003435585Y0000608734D01*
X0003404803Y0000596015D01*
X0003402181Y0000593398D01*
X0003399650Y0000595933D01*
X0003368891Y0000608705D01*
X0003335585Y0000608734D01*
X0003304803Y0000596015D01*
X0003281232Y0000572485D01*
X0003268459Y0000541726D01*
X0003268430Y0000508420D01*
X0003281149Y0000477638D01*
X0003304679Y0000454066D01*
X0003335439Y0000441294D01*
X0003368745Y0000441265D01*
X0003399527Y0000453984D01*
X0003402149Y0000456601D01*
X0003404679Y0000454066D01*
X0003435439Y0000441294D01*
X0003459795Y0000441273D01*
X0003459795Y0000358713D01*
X0003435585Y0000358734D01*
X0003404803Y0000346015D01*
X0003402181Y0000343398D01*
X0003399650Y0000345933D01*
X0003368891Y0000358705D01*
X0003335585Y0000358734D01*
X0003304803Y0000346015D01*
X0003281232Y0000322485D01*
X0003268459Y0000291726D01*
X0003268430Y0000258420D01*
X0003268458Y0000258354D01*
X0003255708Y0000258365D01*
X0003215872Y0000241905D01*
X0003185367Y0000211453D01*
X0003168837Y0000171645D01*
X0003168800Y0000128543D01*
X0003185260Y0000088706D01*
X0003186594Y0000087370D01*
X0003064048Y0000087370D01*
X0003066103Y0000097704D01*
X0003077782Y0000109382D01*
X0003081840Y0000115456D01*
X0003091750Y0000111775D01*
X0003117340Y0000112722D01*
X0003136585Y0000120693D01*
X0003140469Y0000131199D01*
X0003102165Y0000169503D01*
X0003101608Y0000168946D01*
X0003094537Y0000176017D01*
X0003095094Y0000176574D01*
X0003094537Y0000177131D01*
X0003101608Y0000184202D01*
X0003102165Y0000183645D01*
X0003102722Y0000184202D01*
X0003109793Y0000177131D01*
X0003109236Y0000176574D01*
X0003147540Y0000138270D01*
X0003158046Y0000142154D01*
X0003166964Y0000166159D01*
X0003166017Y0000191750D01*
X0003163758Y0000197204D01*
X0003173079Y0000203202D01*
X0003183210Y0000218029D01*
X0003186774Y0000235629D01*
X0003186774Y0000314370D01*
X0003183680Y0000330812D01*
X0003173963Y0000345914D01*
X0003159136Y0000356045D01*
X0003152535Y0000357381D01*
X0003152535Y0000369327D01*
X0003162598Y0000369327D01*
X0003179041Y0000372421D01*
X0003194142Y0000382139D01*
X0003202350Y0000394151D01*
X0003216115Y0000389115D01*
X0003240136Y0000390124D01*
X0003257643Y0000397376D01*
X0003261045Y0000407474D01*
X0003225590Y0000442928D01*
X0003225033Y0000442372D01*
X0003217962Y0000449443D01*
X0003218519Y0000450000D01*
X0003232661Y0000450000D01*
X0003268116Y0000414545D01*
X0003278214Y0000417946D01*
X0003286474Y0000440525D01*
X0003285466Y0000464545D01*
X0003278214Y0000482053D01*
X0003268116Y0000485454D01*
X0003232661Y0000450000D01*
X0003218519Y0000450000D01*
X0003217962Y0000450556D01*
X0003225033Y0000457627D01*
X0003225590Y0000457071D01*
X0003261045Y0000492525D01*
X0003257643Y0000502623D01*
X0003235065Y0000510884D01*
X0003216325Y0000510097D01*
X0003353857Y0000647629D01*
X0003413153Y0000647629D01*
X0003414005Y0000646354D01*
G36*
X0002982165Y0000205000D02*
X0002982952Y0000205000D01*
X0002982952Y0000195000D01*
X0002982165Y0000195000D01*
X0002982165Y0000194212D01*
X0002972165Y0000194212D01*
X0002972165Y0000195000D01*
X0002971377Y0000195000D01*
X0002971377Y0000205000D01*
X0002972165Y0000205000D01*
X0002972165Y0000205787D01*
X0002982165Y0000205787D01*
X0002982165Y0000205000D01*
X0002982165Y0000205000D01*
G37*
X0002982165Y0000205000D02*
X0002982952Y0000205000D01*
X0002982952Y0000195000D01*
X0002982165Y0000195000D01*
X0002982165Y0000194212D01*
X0002972165Y0000194212D01*
X0002972165Y0000195000D01*
X0002971377Y0000195000D01*
X0002971377Y0000205000D01*
X0002972165Y0000205000D01*
X0002972165Y0000205787D01*
X0002982165Y0000205787D01*
X0002982165Y0000205000D01*
G36*
X0003709793Y0000475556D02*
X0003709236Y0000475000D01*
X0003709793Y0000474443D01*
X0003702722Y0000467372D01*
X0003702165Y0000467928D01*
X0003701608Y0000467372D01*
X0003694537Y0000474443D01*
X0003695094Y0000475000D01*
X0003694537Y0000475556D01*
X0003701608Y0000482627D01*
X0003702165Y0000482071D01*
X0003702722Y0000482627D01*
X0003709793Y0000475556D01*
X0003709793Y0000475556D01*
G37*
X0003709793Y0000475556D02*
X0003709236Y0000475000D01*
X0003709793Y0000474443D01*
X0003702722Y0000467372D01*
X0003702165Y0000467928D01*
X0003701608Y0000467372D01*
X0003694537Y0000474443D01*
X0003695094Y0000475000D01*
X0003694537Y0000475556D01*
X0003701608Y0000482627D01*
X0003702165Y0000482071D01*
X0003702722Y0000482627D01*
X0003709793Y0000475556D01*
G36*
X0003873375Y0001022604D02*
X0003872819Y0001022047D01*
X0003873375Y0001021490D01*
X0003866304Y0001014419D01*
X0003865748Y0001014976D01*
X0003865191Y0001014419D01*
X0003858120Y0001021490D01*
X0003858677Y0001022047D01*
X0003858120Y0001022604D01*
X0003865191Y0001029675D01*
X0003865748Y0001029118D01*
X0003866304Y0001029675D01*
X0003873375Y0001022604D01*
X0003873375Y0001022604D01*
G37*
X0003873375Y0001022604D02*
X0003872819Y0001022047D01*
X0003873375Y0001021490D01*
X0003866304Y0001014419D01*
X0003865748Y0001014976D01*
X0003865191Y0001014419D01*
X0003858120Y0001021490D01*
X0003858677Y0001022047D01*
X0003858120Y0001022604D01*
X0003865191Y0001029675D01*
X0003865748Y0001029118D01*
X0003866304Y0001029675D01*
X0003873375Y0001022604D01*
G36*
X0003873375Y0001278509D02*
X0003872819Y0001277952D01*
X0003873375Y0001277395D01*
X0003866304Y0001270324D01*
X0003865748Y0001270881D01*
X0003865191Y0001270324D01*
X0003858120Y0001277395D01*
X0003858677Y0001277952D01*
X0003858120Y0001278509D01*
X0003865191Y0001285580D01*
X0003865748Y0001285023D01*
X0003866304Y0001285580D01*
X0003873375Y0001278509D01*
X0003873375Y0001278509D01*
G37*
X0003873375Y0001278509D02*
X0003872819Y0001277952D01*
X0003873375Y0001277395D01*
X0003866304Y0001270324D01*
X0003865748Y0001270881D01*
X0003865191Y0001270324D01*
X0003858120Y0001277395D01*
X0003858677Y0001277952D01*
X0003858120Y0001278509D01*
X0003865191Y0001285580D01*
X0003865748Y0001285023D01*
X0003866304Y0001285580D01*
X0003873375Y0001278509D01*
G36*
X0003626592Y0001466510D02*
X0003618511Y0001471909D01*
X0003588725Y0001477834D01*
X0003565605Y0001477834D01*
X0003535819Y0001471909D01*
X0003531632Y0001469112D01*
X0003539426Y0001483987D01*
X0003539838Y0001486258D01*
X0003535036Y0001495000D01*
X0003482165Y0001495000D01*
X0003482165Y0001494212D01*
X0003472165Y0001494212D01*
X0003472165Y0001495000D01*
X0003471377Y0001495000D01*
X0003471377Y0001502629D01*
X0003590473Y0001502629D01*
X0003626592Y0001466510D01*
X0003626592Y0001466510D01*
G37*
X0003626592Y0001466510D02*
X0003618511Y0001471909D01*
X0003588725Y0001477834D01*
X0003565605Y0001477834D01*
X0003535819Y0001471909D01*
X0003531632Y0001469112D01*
X0003539426Y0001483987D01*
X0003539838Y0001486258D01*
X0003535036Y0001495000D01*
X0003482165Y0001495000D01*
X0003482165Y0001494212D01*
X0003472165Y0001494212D01*
X0003472165Y0001495000D01*
X0003471377Y0001495000D01*
X0003471377Y0001502629D01*
X0003590473Y0001502629D01*
X0003626592Y0001466510D01*
G36*
X0003243974Y0001996513D02*
X0003261574Y0001992949D01*
X0003277322Y0001992949D01*
X0003280792Y0001993602D01*
X0003280014Y0001991730D01*
X0003279985Y0001958416D01*
X0003292707Y0001927627D01*
X0003316243Y0001904049D01*
X0003347010Y0001891274D01*
X0003380324Y0001891245D01*
X0003411113Y0001903967D01*
X0003434690Y0001927503D01*
X0003435571Y0001929624D01*
X0003522286Y0001929624D01*
X0003526170Y0001919118D01*
X0003550175Y0001910200D01*
X0003575766Y0001911147D01*
X0003595010Y0001919118D01*
X0003598894Y0001929624D01*
X0003560590Y0001967928D01*
X0003522286Y0001929624D01*
X0003435571Y0001929624D01*
X0003447465Y0001958269D01*
X0003447494Y0001991583D01*
X0003444996Y0001997629D01*
X0003500329Y0001997629D01*
X0003495791Y0001985414D01*
X0003496737Y0001959824D01*
X0003504709Y0001940580D01*
X0003515215Y0001936695D01*
X0003553519Y0001975000D01*
X0003552962Y0001975556D01*
X0003560033Y0001982627D01*
X0003560590Y0001982071D01*
X0003561147Y0001982627D01*
X0003568218Y0001975556D01*
X0003567661Y0001975000D01*
X0003605965Y0001936695D01*
X0003616471Y0001940580D01*
X0003624739Y0001962832D01*
X0003630367Y0001954085D01*
X0003641481Y0001946492D01*
X0003637365Y0001935414D01*
X0003638312Y0001909824D01*
X0003641086Y0001903127D01*
X0003631251Y0001896797D01*
X0003621120Y0001881970D01*
X0003617555Y0001864370D01*
X0003617555Y0001785629D01*
X0003620649Y0001769187D01*
X0003630367Y0001754085D01*
X0003641481Y0001746492D01*
X0003637365Y0001735414D01*
X0003638312Y0001709824D01*
X0003646284Y0001690580D01*
X0003656790Y0001686695D01*
X0003695094Y0001725000D01*
X0003694537Y0001725556D01*
X0003701608Y0001732627D01*
X0003702165Y0001732071D01*
X0003702722Y0001732627D01*
X0003709793Y0001725556D01*
X0003709236Y0001725000D01*
X0003709793Y0001724443D01*
X0003702722Y0001717372D01*
X0003702165Y0001717928D01*
X0003680568Y0001696331D01*
X0003679803Y0001696015D01*
X0003656232Y0001672485D01*
X0003643459Y0001641726D01*
X0003643451Y0001632370D01*
X0003387165Y0001632370D01*
X0003367124Y0001628383D01*
X0003350134Y0001617031D01*
X0003286809Y0001553706D01*
X0003285549Y0001560041D01*
X0003285237Y0001560507D01*
X0003274196Y0001577031D01*
X0003228360Y0001622867D01*
X0003233607Y0001623854D01*
X0003248709Y0001633572D01*
X0003258840Y0001648399D01*
X0003261574Y0001661899D01*
X0003444561Y0001661899D01*
X0003447480Y0001652210D01*
X0003468630Y0001644607D01*
X0003491080Y0001645678D01*
X0003506850Y0001652210D01*
X0003509769Y0001661899D01*
X0003477165Y0001694503D01*
X0003444561Y0001661899D01*
X0003261574Y0001661899D01*
X0003262404Y0001666000D01*
X0003262404Y0001734000D01*
X0003259840Y0001747629D01*
X0003406375Y0001747629D01*
X0003413241Y0001736959D01*
X0003426574Y0001727849D01*
X0003420198Y0001710109D01*
X0003421268Y0001687659D01*
X0003427800Y0001671889D01*
X0003437490Y0001668970D01*
X0003470094Y0001701574D01*
X0003469537Y0001702131D01*
X0003476608Y0001709202D01*
X0003477165Y0001708645D01*
X0003477722Y0001709202D01*
X0003484793Y0001702131D01*
X0003484236Y0001701574D01*
X0003516840Y0001668970D01*
X0003526530Y0001671889D01*
X0003534132Y0001693040D01*
X0003533062Y0001715490D01*
X0003527833Y0001728114D01*
X0003540205Y0001736076D01*
X0003550336Y0001750903D01*
X0003553900Y0001768503D01*
X0003553900Y0001831496D01*
X0003550806Y0001847938D01*
X0003541089Y0001863040D01*
X0003526262Y0001873171D01*
X0003508661Y0001876735D01*
X0003445669Y0001876735D01*
X0003429226Y0001873641D01*
X0003414125Y0001863923D01*
X0003406230Y0001852370D01*
X0003242269Y0001852370D01*
X0003240234Y0001855416D01*
X0003228767Y0001863078D01*
X0003230343Y0001864486D01*
X0003240342Y0001885244D01*
X0003240447Y0001885865D01*
X0003235677Y0001895000D01*
X0003182165Y0001895000D01*
X0003182165Y0001894212D01*
X0003172165Y0001894212D01*
X0003172165Y0001895000D01*
X0003118652Y0001895000D01*
X0003113883Y0001885865D01*
X0003113987Y0001885244D01*
X0003123986Y0001864486D01*
X0003125563Y0001863078D01*
X0003114096Y0001855416D01*
X0003097107Y0001829990D01*
X0003091142Y0001800000D01*
X0003097107Y0001770009D01*
X0003102526Y0001761899D01*
X0003095490Y0001751600D01*
X0003091926Y0001734000D01*
X0003091926Y0001666000D01*
X0003095019Y0001649557D01*
X0003104737Y0001634455D01*
X0003112899Y0001628879D01*
X0003110134Y0001627031D01*
X0003008765Y0001525662D01*
X0003008795Y0001560347D01*
X0002994877Y0001594032D01*
X0002991471Y0001597443D01*
X0002995953Y0001600327D01*
X0003006084Y0001615155D01*
X0003009648Y0001632755D01*
X0003009648Y0001727244D01*
X0003006554Y0001743686D01*
X0002996837Y0001758788D01*
X0002982861Y0001768337D01*
X0002994786Y0001780241D01*
X0003008763Y0001813901D01*
X0003008795Y0001850347D01*
X0002994877Y0001884032D01*
X0002977727Y0001901212D01*
X0002978570Y0001901561D01*
X0002985603Y0001908594D01*
X0002987898Y0001914134D01*
X0003113883Y0001914134D01*
X0003118652Y0001905000D01*
X0003172165Y0001905000D01*
X0003172165Y0001952792D01*
X0003182165Y0001952792D01*
X0003182165Y0001905000D01*
X0003235677Y0001905000D01*
X0003240447Y0001914134D01*
X0003240342Y0001914755D01*
X0003230343Y0001935513D01*
X0003213162Y0001950864D01*
X0003191413Y0001958471D01*
X0003182165Y0001952792D01*
X0003172165Y0001952792D01*
X0003162916Y0001958471D01*
X0003141168Y0001950864D01*
X0003123986Y0001935513D01*
X0003113987Y0001914755D01*
X0003113883Y0001914134D01*
X0002987898Y0001914134D01*
X0002989409Y0001917783D01*
X0002989409Y0001958750D01*
X0002983159Y0001965000D01*
X0002922165Y0001965000D01*
X0002922165Y0001964212D01*
X0002912165Y0001964212D01*
X0002912165Y0001965000D01*
X0002911377Y0001965000D01*
X0002911377Y0001975000D01*
X0002912165Y0001975000D01*
X0002912165Y0001975787D01*
X0002922165Y0001975787D01*
X0002922165Y0001975000D01*
X0002983159Y0001975000D01*
X0002989409Y0001981250D01*
X0002989409Y0001997629D01*
X0003242340Y0001997629D01*
X0003243974Y0001996513D01*
X0003243974Y0001996513D01*
G37*
X0003243974Y0001996513D02*
X0003261574Y0001992949D01*
X0003277322Y0001992949D01*
X0003280792Y0001993602D01*
X0003280014Y0001991730D01*
X0003279985Y0001958416D01*
X0003292707Y0001927627D01*
X0003316243Y0001904049D01*
X0003347010Y0001891274D01*
X0003380324Y0001891245D01*
X0003411113Y0001903967D01*
X0003434690Y0001927503D01*
X0003435571Y0001929624D01*
X0003522286Y0001929624D01*
X0003526170Y0001919118D01*
X0003550175Y0001910200D01*
X0003575766Y0001911147D01*
X0003595010Y0001919118D01*
X0003598894Y0001929624D01*
X0003560590Y0001967928D01*
X0003522286Y0001929624D01*
X0003435571Y0001929624D01*
X0003447465Y0001958269D01*
X0003447494Y0001991583D01*
X0003444996Y0001997629D01*
X0003500329Y0001997629D01*
X0003495791Y0001985414D01*
X0003496737Y0001959824D01*
X0003504709Y0001940580D01*
X0003515215Y0001936695D01*
X0003553519Y0001975000D01*
X0003552962Y0001975556D01*
X0003560033Y0001982627D01*
X0003560590Y0001982071D01*
X0003561147Y0001982627D01*
X0003568218Y0001975556D01*
X0003567661Y0001975000D01*
X0003605965Y0001936695D01*
X0003616471Y0001940580D01*
X0003624739Y0001962832D01*
X0003630367Y0001954085D01*
X0003641481Y0001946492D01*
X0003637365Y0001935414D01*
X0003638312Y0001909824D01*
X0003641086Y0001903127D01*
X0003631251Y0001896797D01*
X0003621120Y0001881970D01*
X0003617555Y0001864370D01*
X0003617555Y0001785629D01*
X0003620649Y0001769187D01*
X0003630367Y0001754085D01*
X0003641481Y0001746492D01*
X0003637365Y0001735414D01*
X0003638312Y0001709824D01*
X0003646284Y0001690580D01*
X0003656790Y0001686695D01*
X0003695094Y0001725000D01*
X0003694537Y0001725556D01*
X0003701608Y0001732627D01*
X0003702165Y0001732071D01*
X0003702722Y0001732627D01*
X0003709793Y0001725556D01*
X0003709236Y0001725000D01*
X0003709793Y0001724443D01*
X0003702722Y0001717372D01*
X0003702165Y0001717928D01*
X0003680568Y0001696331D01*
X0003679803Y0001696015D01*
X0003656232Y0001672485D01*
X0003643459Y0001641726D01*
X0003643451Y0001632370D01*
X0003387165Y0001632370D01*
X0003367124Y0001628383D01*
X0003350134Y0001617031D01*
X0003286809Y0001553706D01*
X0003285549Y0001560041D01*
X0003285237Y0001560507D01*
X0003274196Y0001577031D01*
X0003228360Y0001622867D01*
X0003233607Y0001623854D01*
X0003248709Y0001633572D01*
X0003258840Y0001648399D01*
X0003261574Y0001661899D01*
X0003444561Y0001661899D01*
X0003447480Y0001652210D01*
X0003468630Y0001644607D01*
X0003491080Y0001645678D01*
X0003506850Y0001652210D01*
X0003509769Y0001661899D01*
X0003477165Y0001694503D01*
X0003444561Y0001661899D01*
X0003261574Y0001661899D01*
X0003262404Y0001666000D01*
X0003262404Y0001734000D01*
X0003259840Y0001747629D01*
X0003406375Y0001747629D01*
X0003413241Y0001736959D01*
X0003426574Y0001727849D01*
X0003420198Y0001710109D01*
X0003421268Y0001687659D01*
X0003427800Y0001671889D01*
X0003437490Y0001668970D01*
X0003470094Y0001701574D01*
X0003469537Y0001702131D01*
X0003476608Y0001709202D01*
X0003477165Y0001708645D01*
X0003477722Y0001709202D01*
X0003484793Y0001702131D01*
X0003484236Y0001701574D01*
X0003516840Y0001668970D01*
X0003526530Y0001671889D01*
X0003534132Y0001693040D01*
X0003533062Y0001715490D01*
X0003527833Y0001728114D01*
X0003540205Y0001736076D01*
X0003550336Y0001750903D01*
X0003553900Y0001768503D01*
X0003553900Y0001831496D01*
X0003550806Y0001847938D01*
X0003541089Y0001863040D01*
X0003526262Y0001873171D01*
X0003508661Y0001876735D01*
X0003445669Y0001876735D01*
X0003429226Y0001873641D01*
X0003414125Y0001863923D01*
X0003406230Y0001852370D01*
X0003242269Y0001852370D01*
X0003240234Y0001855416D01*
X0003228767Y0001863078D01*
X0003230343Y0001864486D01*
X0003240342Y0001885244D01*
X0003240447Y0001885865D01*
X0003235677Y0001895000D01*
X0003182165Y0001895000D01*
X0003182165Y0001894212D01*
X0003172165Y0001894212D01*
X0003172165Y0001895000D01*
X0003118652Y0001895000D01*
X0003113883Y0001885865D01*
X0003113987Y0001885244D01*
X0003123986Y0001864486D01*
X0003125563Y0001863078D01*
X0003114096Y0001855416D01*
X0003097107Y0001829990D01*
X0003091142Y0001800000D01*
X0003097107Y0001770009D01*
X0003102526Y0001761899D01*
X0003095490Y0001751600D01*
X0003091926Y0001734000D01*
X0003091926Y0001666000D01*
X0003095019Y0001649557D01*
X0003104737Y0001634455D01*
X0003112899Y0001628879D01*
X0003110134Y0001627031D01*
X0003008765Y0001525662D01*
X0003008795Y0001560347D01*
X0002994877Y0001594032D01*
X0002991471Y0001597443D01*
X0002995953Y0001600327D01*
X0003006084Y0001615155D01*
X0003009648Y0001632755D01*
X0003009648Y0001727244D01*
X0003006554Y0001743686D01*
X0002996837Y0001758788D01*
X0002982861Y0001768337D01*
X0002994786Y0001780241D01*
X0003008763Y0001813901D01*
X0003008795Y0001850347D01*
X0002994877Y0001884032D01*
X0002977727Y0001901212D01*
X0002978570Y0001901561D01*
X0002985603Y0001908594D01*
X0002987898Y0001914134D01*
X0003113883Y0001914134D01*
X0003118652Y0001905000D01*
X0003172165Y0001905000D01*
X0003172165Y0001952792D01*
X0003182165Y0001952792D01*
X0003182165Y0001905000D01*
X0003235677Y0001905000D01*
X0003240447Y0001914134D01*
X0003240342Y0001914755D01*
X0003230343Y0001935513D01*
X0003213162Y0001950864D01*
X0003191413Y0001958471D01*
X0003182165Y0001952792D01*
X0003172165Y0001952792D01*
X0003162916Y0001958471D01*
X0003141168Y0001950864D01*
X0003123986Y0001935513D01*
X0003113987Y0001914755D01*
X0003113883Y0001914134D01*
X0002987898Y0001914134D01*
X0002989409Y0001917783D01*
X0002989409Y0001958750D01*
X0002983159Y0001965000D01*
X0002922165Y0001965000D01*
X0002922165Y0001964212D01*
X0002912165Y0001964212D01*
X0002912165Y0001965000D01*
X0002911377Y0001965000D01*
X0002911377Y0001975000D01*
X0002912165Y0001975000D01*
X0002912165Y0001975787D01*
X0002922165Y0001975787D01*
X0002922165Y0001975000D01*
X0002983159Y0001975000D01*
X0002989409Y0001981250D01*
X0002989409Y0001997629D01*
X0003242340Y0001997629D01*
X0003243974Y0001996513D01*
G36*
X0003709793Y0001925556D02*
X0003709236Y0001925000D01*
X0003709793Y0001924443D01*
X0003702722Y0001917372D01*
X0003702165Y0001917928D01*
X0003701608Y0001917372D01*
X0003694537Y0001924443D01*
X0003695094Y0001925000D01*
X0003694537Y0001925556D01*
X0003701608Y0001932627D01*
X0003702165Y0001932071D01*
X0003702722Y0001932627D01*
X0003709793Y0001925556D01*
X0003709793Y0001925556D01*
G37*
X0003709793Y0001925556D02*
X0003709236Y0001925000D01*
X0003709793Y0001924443D01*
X0003702722Y0001917372D01*
X0003702165Y0001917928D01*
X0003701608Y0001917372D01*
X0003694537Y0001924443D01*
X0003695094Y0001925000D01*
X0003694537Y0001925556D01*
X0003701608Y0001932627D01*
X0003702165Y0001932071D01*
X0003702722Y0001932627D01*
X0003709793Y0001925556D01*
G36*
X0003644748Y0002239156D02*
X0003649515Y0002230000D01*
X0003690094Y0002230000D01*
X0003694537Y0002225556D01*
X0003701608Y0002232627D01*
X0003697165Y0002237071D01*
X0003697165Y0002250629D01*
X0003707165Y0002250629D01*
X0003707165Y0002237071D01*
X0003702722Y0002232627D01*
X0003709793Y0002225556D01*
X0003714236Y0002230000D01*
X0003754814Y0002230000D01*
X0003759582Y0002239156D01*
X0003754207Y0002250629D01*
X0003772302Y0002250629D01*
X0003815304Y0002242076D01*
X0003847637Y0002220472D01*
X0003869241Y0002188139D01*
X0003877795Y0002145137D01*
X0003877795Y0001963748D01*
X0003875549Y0001975041D01*
X0003868473Y0001985629D01*
X0003864196Y0001992031D01*
X0003794196Y0002062031D01*
X0003786210Y0002067367D01*
X0003783680Y0002080812D01*
X0003773963Y0002095914D01*
X0003773885Y0002095967D01*
X0003779522Y0002109542D01*
X0003779548Y0002140322D01*
X0003767794Y0002168769D01*
X0003747722Y0002188876D01*
X0003752775Y0002194410D01*
X0003759582Y0002210843D01*
X0003754814Y0002220000D01*
X0003714236Y0002220000D01*
X0003709793Y0002224443D01*
X0003702722Y0002217372D01*
X0003707165Y0002212928D01*
X0003707165Y0002202365D01*
X0003697165Y0002202374D01*
X0003697165Y0002212928D01*
X0003701608Y0002217372D01*
X0003694537Y0002224443D01*
X0003690094Y0002220000D01*
X0003649515Y0002220000D01*
X0003644748Y0002210843D01*
X0003654536Y0002189948D01*
X0003656196Y0002188433D01*
X0003644602Y0002176860D01*
X0003634156Y0002174782D01*
X0003619070Y0002211293D01*
X0003588618Y0002241798D01*
X0003567349Y0002250629D01*
X0003649501Y0002250629D01*
X0003644748Y0002239156D01*
X0003644748Y0002239156D01*
G37*
X0003644748Y0002239156D02*
X0003649515Y0002230000D01*
X0003690094Y0002230000D01*
X0003694537Y0002225556D01*
X0003701608Y0002232627D01*
X0003697165Y0002237071D01*
X0003697165Y0002250629D01*
X0003707165Y0002250629D01*
X0003707165Y0002237071D01*
X0003702722Y0002232627D01*
X0003709793Y0002225556D01*
X0003714236Y0002230000D01*
X0003754814Y0002230000D01*
X0003759582Y0002239156D01*
X0003754207Y0002250629D01*
X0003772302Y0002250629D01*
X0003815304Y0002242076D01*
X0003847637Y0002220472D01*
X0003869241Y0002188139D01*
X0003877795Y0002145137D01*
X0003877795Y0001963748D01*
X0003875549Y0001975041D01*
X0003868473Y0001985629D01*
X0003864196Y0001992031D01*
X0003794196Y0002062031D01*
X0003786210Y0002067367D01*
X0003783680Y0002080812D01*
X0003773963Y0002095914D01*
X0003773885Y0002095967D01*
X0003779522Y0002109542D01*
X0003779548Y0002140322D01*
X0003767794Y0002168769D01*
X0003747722Y0002188876D01*
X0003752775Y0002194410D01*
X0003759582Y0002210843D01*
X0003754814Y0002220000D01*
X0003714236Y0002220000D01*
X0003709793Y0002224443D01*
X0003702722Y0002217372D01*
X0003707165Y0002212928D01*
X0003707165Y0002202365D01*
X0003697165Y0002202374D01*
X0003697165Y0002212928D01*
X0003701608Y0002217372D01*
X0003694537Y0002224443D01*
X0003690094Y0002220000D01*
X0003649515Y0002220000D01*
X0003644748Y0002210843D01*
X0003654536Y0002189948D01*
X0003656196Y0002188433D01*
X0003644602Y0002176860D01*
X0003634156Y0002174782D01*
X0003619070Y0002211293D01*
X0003588618Y0002241798D01*
X0003567349Y0002250629D01*
X0003649501Y0002250629D01*
X0003644748Y0002239156D01*
M02*