%MOIN*%
%OFA0B0*%
%FSLAX46Y46*%
%IPPOS*%
%LPD*%
%ADD10C,0.0039370078740157488*%
%ADD11R,0.07874015748031496X0.07874015748031496*%
%ADD12C,0.07874015748031496*%
%ADD13R,0.08X0.068*%
%ADD14O,0.08X0.068*%
%ADD15O,0.086614173228346469X0.066929133858267723*%
%ADD16C,0.066*%
%ADD17R,0.070866141732283464X0.070866141732283464*%
%ADD18C,0.070866141732283464*%
%ADD19O,0.07874015748031496X0.062992125984251982*%
%ADD20C,0.062992125984251982*%
%ADD21R,0.062992125984251982X0.062992125984251982*%
%ADD22C,0.094488188976377951*%
%ADD23R,0.094488188976377951X0.094488188976377951*%
%ADD24R,0.023622047244094488X0.015748031496062995*%
%ADD25C,0.0787*%
%ADD26C,0.027*%
%ADD27C,0.016*%
%ADD28C,0.024000000000000004*%
%ADD29C,0.01*%
%ADD40C,0.0039370078740157488*%
%ADD41R,0.07874015748031496X0.07874015748031496*%
%ADD42C,0.07874015748031496*%
%ADD43R,0.068X0.08*%
%ADD44O,0.068X0.08*%
%ADD45O,0.066929133858267723X0.086614173228346469*%
%ADD46C,0.066*%
%ADD47R,0.070866141732283464X0.070866141732283464*%
%ADD48C,0.070866141732283464*%
%ADD49O,0.062992125984251982X0.07874015748031496*%
%ADD50C,0.062992125984251982*%
%ADD51R,0.062992125984251982X0.062992125984251982*%
%ADD52C,0.094488188976377951*%
%ADD53R,0.094488188976377951X0.094488188976377951*%
%ADD54R,0.015748031496062995X0.023622047244094488*%
%ADD55C,0.0787*%
%ADD56C,0.027*%
%ADD57C,0.016*%
%ADD58C,0.024000000000000004*%
%ADD59C,0.01*%
%ADD60C,0.0039370078740157488*%
%ADD61R,0.07874015748031496X0.07874015748031496*%
%ADD62C,0.07874015748031496*%
%ADD63R,0.08X0.068*%
%ADD64O,0.08X0.068*%
%ADD65O,0.086614173228346469X0.066929133858267723*%
%ADD66C,0.066*%
%ADD67R,0.070866141732283464X0.070866141732283464*%
%ADD68C,0.070866141732283464*%
%ADD69O,0.07874015748031496X0.062992125984251982*%
%ADD70C,0.062992125984251982*%
%ADD71R,0.062992125984251982X0.062992125984251982*%
%ADD72C,0.094488188976377951*%
%ADD73R,0.094488188976377951X0.094488188976377951*%
%ADD74R,0.023622047244094488X0.015748031496062995*%
%ADD75C,0.0787*%
%ADD76C,0.027*%
%ADD77C,0.016*%
%ADD78C,0.024000000000000004*%
%ADD79C,0.01*%
%ADD80C,0.0039370078740157488*%
%ADD81R,0.07874015748031496X0.07874015748031496*%
%ADD82C,0.07874015748031496*%
%ADD83R,0.08X0.068*%
%ADD84O,0.08X0.068*%
%ADD85O,0.086614173228346469X0.066929133858267723*%
%ADD86C,0.066*%
%ADD87R,0.070866141732283464X0.070866141732283464*%
%ADD88C,0.070866141732283464*%
%ADD89O,0.07874015748031496X0.062992125984251982*%
%ADD90C,0.062992125984251982*%
%ADD91R,0.062992125984251982X0.062992125984251982*%
%ADD92C,0.094488188976377951*%
%ADD93R,0.094488188976377951X0.094488188976377951*%
%ADD94R,0.023622047244094488X0.015748031496062995*%
%ADD95C,0.0787*%
%ADD96C,0.027*%
%ADD97C,0.016*%
%ADD98C,0.024000000000000004*%
%ADD99C,0.01*%
G01*
D10*
D11*
X-0004799999Y0004650000D02*
X0000100000Y0000250000D03*
D12*
X0000100000Y0000348425D03*
X0000100000Y0000446850D03*
X0000100000Y0000545275D03*
X0000100000Y0000643700D03*
D13*
X0000500000Y0001700000D03*
D14*
X0000500000Y0001800000D03*
X0000500000Y0001900000D03*
D15*
X0000300000Y0000100000D03*
X0000300000Y0000200000D03*
X0000300000Y0000300000D03*
X0000300000Y0000400000D03*
X0000300000Y0000500000D03*
X0000300000Y0000600000D03*
X0000300000Y0000700000D03*
X0000300000Y0000800000D03*
X0000300000Y0000900000D03*
X0000300000Y0001000000D03*
X0000300000Y0001100000D03*
X0000300000Y0001200000D03*
X0000300000Y0001300000D03*
X0000300000Y0001400000D03*
D12*
X0000686574Y0001975000D03*
X0000883425Y0001975000D03*
X0001025000Y0000275000D03*
D11*
X0001025000Y0000375000D03*
D16*
X0001025000Y0002125000D03*
X0001025000Y0002225000D03*
D17*
X0000450000Y0000450000D03*
D18*
X0000548425Y0000450000D03*
D11*
X0000425000Y0000275000D03*
D12*
X0000425000Y0000176574D03*
D19*
X0000800000Y0000700000D03*
X0000800000Y0000800000D03*
X0000800000Y0000900000D03*
X0000800000Y0001000000D03*
X0000800000Y0001100000D03*
X0000800000Y0001200000D03*
X0000800000Y0001300000D03*
X0000800000Y0001400000D03*
X0000800000Y0001500000D03*
X0000500000Y0001500000D03*
X0000500000Y0001400000D03*
X0000500000Y0001300000D03*
X0000500000Y0001200000D03*
X0000500000Y0001100000D03*
X0000500000Y0001000000D03*
X0000500000Y0000900000D03*
X0000500000Y0000800000D03*
X0000500000Y0000700000D03*
D20*
X0000800000Y0001701574D03*
D21*
X0000800000Y0001800000D03*
D11*
X0000400000Y0002200000D03*
D12*
X0000500000Y0002200000D03*
X0000600000Y0002200000D03*
D22*
X0000240000Y0001832204D03*
D23*
X0000240000Y0001970000D03*
D22*
X0000240000Y0001542204D03*
D23*
X0000240000Y0001680000D03*
D12*
X0001011417Y0001277952D03*
X0001188582Y0001277952D03*
X0001011417Y0001022047D03*
X0001188582Y0001022047D03*
D24*
X0000410000Y0000967716D03*
X0000410000Y0000932283D03*
D16*
X0001025000Y0000075000D03*
X0001025000Y0000175000D03*
D12*
X0001025000Y0000475000D03*
D11*
X0001025000Y0000575000D03*
D12*
X0001025000Y0001925000D03*
D11*
X0001025000Y0002025000D03*
D12*
X0001025000Y0001725000D03*
D11*
X0001025000Y0001825000D03*
D25*
X0000675000Y0000275000D03*
X0000675000Y0000525000D03*
X0000775000Y0000275000D03*
X0000775000Y0000525000D03*
X0001150000Y0001375000D03*
X0001150000Y0001625000D03*
X0001050000Y0001375000D03*
X0001050000Y0001625000D03*
X0001150000Y0000925000D03*
X0001150000Y0000675000D03*
X0001050000Y0000925000D03*
X0001050000Y0000675000D03*
D15*
X0000900000Y0000100000D03*
X0000900000Y0000200000D03*
X0000900000Y0000300000D03*
X0000900000Y0000400000D03*
X0000900000Y0000500000D03*
X0000900000Y0000600000D03*
X0000900000Y0000700000D03*
X0000900000Y0000800000D03*
X0000900000Y0000900000D03*
X0000900000Y0001000000D03*
X0000900000Y0001100000D03*
X0000900000Y0001200000D03*
X0000900000Y0001300000D03*
X0000900000Y0001400000D03*
D11*
X0000100000Y0000950000D03*
D12*
X0000100000Y0001048425D03*
X0000100000Y0001146850D03*
X0000100000Y0001245275D03*
X0000100000Y0001343700D03*
D26*
X0000080000Y0001430000D03*
D27*
X0000892500Y0002052500D02*
X0000890000Y0002050000D01*
D28*
X0001025000Y0001725000D02*
X0000990000Y0001725000D01*
X0000990000Y0001725000D02*
X0000966574Y0001701574D01*
X0000966574Y0001701574D02*
X0000800000Y0001701574D01*
X0001025000Y0000175000D02*
X0001080000Y0000175000D01*
X0001215000Y0000995629D02*
X0001188582Y0001022047D01*
X0001215000Y0000310000D02*
X0001215000Y0000995629D01*
X0001080000Y0000175000D02*
X0001215000Y0000310000D01*
X0001188582Y0001277952D02*
X0001188582Y0001022047D01*
X0001025000Y0001725000D02*
X0001165000Y0001725000D01*
X0001220000Y0001309370D02*
X0001188582Y0001277952D01*
X0001220000Y0001670000D02*
X0001220000Y0001309370D01*
X0001165000Y0001725000D02*
X0001220000Y0001670000D01*
X0001025000Y0001925000D02*
X0001075000Y0001925000D01*
X0001080000Y0001725000D02*
X0001025000Y0001725000D01*
X0001125000Y0001770000D02*
X0001080000Y0001725000D01*
X0001125000Y0001875000D02*
X0001125000Y0001770000D01*
X0001075000Y0001925000D02*
X0001125000Y0001875000D01*
X0000800000Y0001500000D02*
X0000800000Y0001701574D01*
X0001025000Y0001925000D02*
X0001095000Y0001925000D01*
X0001065000Y0002225000D02*
X0001025000Y0002225000D01*
X0001125000Y0002165000D02*
X0001065000Y0002225000D01*
X0001125000Y0001955000D02*
X0001125000Y0002165000D01*
X0001095000Y0001925000D02*
X0001125000Y0001955000D01*
X0000425000Y0000176574D02*
X0000425000Y0000100000D01*
X0000965000Y0000115000D02*
X0001025000Y0000175000D01*
X0000965000Y0000050000D02*
X0000965000Y0000115000D01*
X0000945000Y0000030000D02*
X0000965000Y0000050000D01*
X0000495000Y0000030000D02*
X0000945000Y0000030000D01*
X0000425000Y0000100000D02*
X0000495000Y0000030000D01*
X0000425000Y0000176574D02*
X0000383425Y0000176574D01*
X0000383425Y0000176574D02*
X0000360000Y0000200000D01*
X0000360000Y0000200000D02*
X0000300000Y0000200000D01*
X0000548425Y0000450000D02*
X0000548425Y0000548425D01*
X0000550000Y0001900000D02*
X0000500000Y0001900000D01*
X0000600000Y0001850000D02*
X0000550000Y0001900000D01*
X0000600000Y0000600000D02*
X0000600000Y0001850000D01*
X0000548425Y0000548425D02*
X0000600000Y0000600000D01*
D27*
X0001185629Y0001275000D02*
X0001188582Y0001277952D01*
X0001025000Y0002225000D02*
X0001015000Y0002225000D01*
X0001000000Y0002225000D02*
X0001025000Y0002225000D01*
X0000800000Y0000350000D02*
X0000740000Y0000350000D01*
X0000962500Y0000637500D02*
X0000975000Y0000650000D01*
X0000975000Y0000650000D02*
X0000975000Y0000710000D01*
X0000975000Y0000710000D02*
X0001050000Y0000785000D01*
X0001050000Y0000925000D02*
X0001050000Y0000785000D01*
X0000940000Y0000360000D02*
X0000930000Y0000350000D01*
X0000940000Y0000360000D02*
X0000962500Y0000387500D01*
X0000930000Y0000350000D02*
X0000800000Y0000350000D01*
X0000962500Y0000387500D02*
X0000962500Y0000637500D01*
X0000250000Y0000350000D02*
X0000240000Y0000360000D01*
X0000350000Y0000350000D02*
X0000250000Y0000350000D01*
X0000370000Y0000330000D02*
X0000350000Y0000350000D01*
X0000720000Y0000330000D02*
X0000370000Y0000330000D01*
X0000740000Y0000350000D02*
X0000720000Y0000330000D01*
X0000240000Y0000360000D02*
X0000240000Y0000575000D01*
X0000265000Y0000600000D02*
X0000240000Y0000575000D01*
X0000265000Y0000600000D02*
X0000300000Y0000600000D01*
X0001011417Y0001277952D02*
X0001011417Y0001022047D01*
D28*
X0000240000Y0001832204D02*
X0000240000Y0001680000D01*
X0000240000Y0001542204D02*
X0000267204Y0001542204D01*
X0000267204Y0001542204D02*
X0000350000Y0001625000D01*
X0000350000Y0001625000D02*
X0000350000Y0002100000D01*
X0000350000Y0002100000D02*
X0000400000Y0002200000D01*
D27*
X0000690000Y0002038425D02*
X0000686574Y0001975000D01*
X0000690000Y0002220000D02*
X0000690000Y0002038425D01*
X0000645000Y0002265000D02*
X0000690000Y0002220000D01*
X0000345000Y0002265000D02*
X0000645000Y0002265000D01*
X0000295000Y0002215000D02*
X0000345000Y0002265000D01*
X0000295000Y0002125000D02*
X0000295000Y0002215000D01*
X0000240000Y0002070000D02*
X0000295000Y0002125000D01*
X0000200000Y0002070000D02*
X0000240000Y0002070000D01*
X0000105000Y0001975000D02*
X0000200000Y0002070000D01*
X0000105000Y0001455000D02*
X0000105000Y0001975000D01*
X0000080000Y0001430000D02*
X0000105000Y0001455000D01*
X0000835000Y0000515000D02*
X0000835000Y0000485000D01*
X0000675000Y0000355000D02*
X0000385000Y0000355000D01*
X0000385000Y0000355000D02*
X0000360000Y0000380000D01*
X0000360000Y0000380000D02*
X0000360000Y0000395000D01*
X0000835000Y0000550000D02*
X0000835000Y0000515000D01*
X0000500000Y0001700000D02*
X0000555000Y0001645000D01*
X0000555000Y0001365000D02*
X0000555000Y0001645000D01*
X0000540000Y0001350000D02*
X0000555000Y0001365000D01*
X0000260000Y0001350000D02*
X0000540000Y0001350000D01*
X0000225000Y0001315000D02*
X0000260000Y0001350000D01*
X0000225000Y0001090000D02*
X0000225000Y0001315000D01*
X0000265000Y0001050000D02*
X0000225000Y0001090000D01*
X0000340000Y0001050000D02*
X0000265000Y0001050000D01*
X0000360000Y0001030000D02*
X0000340000Y0001050000D01*
X0000360000Y0000395000D02*
X0000360000Y0001030000D01*
X0000835000Y0000550000D02*
X0000885000Y0000600000D01*
X0000685000Y0000365000D02*
X0000675000Y0000355000D01*
X0000755000Y0000435000D02*
X0000685000Y0000365000D01*
X0000785000Y0000435000D02*
X0000755000Y0000435000D01*
X0000835000Y0000485000D02*
X0000785000Y0000435000D01*
X0000900000Y0000600000D02*
X0000885000Y0000600000D01*
X0001025000Y0000375000D02*
X0001075000Y0000375000D01*
X0001150000Y0000450000D02*
X0001150000Y0000675000D01*
X0001075000Y0000375000D02*
X0001150000Y0000450000D01*
X0001025000Y0000575000D02*
X0001025000Y0000650000D01*
X0001025000Y0000650000D02*
X0001050000Y0000675000D01*
X0000630000Y0000400000D02*
X0000610000Y0000380000D01*
X0000390000Y0000405000D02*
X0000390000Y0000575000D01*
X0000390000Y0000575000D02*
X0000410000Y0000595000D01*
X0000410000Y0000600000D02*
X0000410000Y0000595000D01*
X0000765000Y0000525000D02*
X0000630000Y0000400000D01*
X0000410000Y0000600000D02*
X0000410000Y0000932283D01*
X0000415000Y0000380000D02*
X0000390000Y0000405000D01*
X0000610000Y0000380000D02*
X0000415000Y0000380000D01*
X0000775000Y0000525000D02*
X0000775000Y0000575000D01*
X0000775000Y0000575000D02*
X0000900000Y0000700000D01*
X0000775000Y0000525000D02*
X0000775000Y0000540000D01*
X0000775000Y0000525000D02*
X0000765000Y0000525000D01*
X0000875000Y0001890000D02*
X0000910000Y0001890000D01*
X0000740000Y0001890000D02*
X0000675000Y0001825000D01*
X0000870000Y0001890000D02*
X0000740000Y0001890000D01*
X0000675000Y0000525000D02*
X0000675000Y0001825000D01*
X0000870000Y0001890000D02*
X0000875000Y0001890000D01*
X0000950000Y0002070000D02*
X0001005000Y0002125000D01*
X0000950000Y0001930000D02*
X0000950000Y0002070000D01*
X0000910000Y0001890000D02*
X0000950000Y0001930000D01*
X0001005000Y0002125000D02*
X0001025000Y0002125000D01*
X0000675000Y0000525000D02*
X0000675000Y0000690000D01*
X0000850000Y0000750000D02*
X0000900000Y0000800000D01*
X0000735000Y0000750000D02*
X0000850000Y0000750000D01*
X0000675000Y0000690000D02*
X0000735000Y0000750000D01*
X0000675000Y0000525000D02*
X0000675000Y0000550000D01*
D28*
X0000100000Y0000643700D02*
X0000103700Y0000643700D01*
X0000103700Y0000643700D02*
X0000230000Y0000770000D01*
X0000100000Y0001343700D02*
X0000175000Y0001268700D01*
X0000175000Y0001005000D02*
X0000175000Y0001268700D01*
X0000230000Y0000950000D02*
X0000175000Y0001005000D01*
X0000230000Y0000770000D02*
X0000230000Y0000950000D01*
X0000300000Y0000100000D02*
X0000260000Y0000100000D01*
X0000260000Y0000100000D02*
X0000230000Y0000130000D01*
X0000131299Y0000643700D02*
X0000200000Y0000575000D01*
X0000200000Y0000310000D02*
X0000200000Y0000575000D01*
X0000230000Y0000280000D02*
X0000200000Y0000310000D01*
X0000230000Y0000130000D02*
X0000230000Y0000280000D01*
X0000100000Y0000643700D02*
X0000131299Y0000643700D01*
X0000100000Y0000643700D02*
X0000106299Y0000643700D01*
X0000100000Y0001343700D02*
X0000100000Y0001350000D01*
X0000100000Y0001350000D02*
X0000175000Y0001425000D01*
X0000475000Y0001475000D02*
X0000500000Y0001500000D01*
X0000275000Y0001475000D02*
X0000475000Y0001475000D01*
X0000225000Y0001425000D02*
X0000275000Y0001475000D01*
X0000175000Y0001425000D02*
X0000225000Y0001425000D01*
X0000500000Y0001800000D02*
X0000450000Y0001800000D01*
X0000450000Y0001800000D02*
X0000400000Y0001750000D01*
X0000500000Y0002200000D02*
X0000500000Y0002175000D01*
X0000500000Y0002175000D02*
X0000400000Y0002025000D01*
X0000400000Y0002025000D02*
X0000400000Y0001750000D01*
X0000400000Y0001750000D02*
X0000400000Y0001600000D01*
X0000400000Y0001600000D02*
X0000500000Y0001500000D01*
D27*
X0000775000Y0000275000D02*
X0000775000Y0000230000D01*
X0000805000Y0000200000D02*
X0000900000Y0000200000D01*
X0000775000Y0000230000D02*
X0000805000Y0000200000D01*
X0000775000Y0000275000D02*
X0000675000Y0000275000D01*
X0000410000Y0000967716D02*
X0000410000Y0001030000D01*
X0000340000Y0001100000D02*
X0000300000Y0001100000D01*
X0000410000Y0001030000D02*
X0000340000Y0001100000D01*
D29*
G36*
X0000591265Y0000258420D02*
X0000591292Y0000258354D01*
X0000578543Y0000258365D01*
X0000538706Y0000241905D01*
X0000508201Y0000211453D01*
X0000491672Y0000171645D01*
X0000491634Y0000128543D01*
X0000508094Y0000088706D01*
X0000538546Y0000058201D01*
X0000559815Y0000049370D01*
X0000369542Y0000049370D01*
X0000383470Y0000070213D01*
X0000389394Y0000100000D01*
X0000383770Y0000128274D01*
X0000386695Y0000131199D01*
X0000390580Y0000120693D01*
X0000414585Y0000111775D01*
X0000440175Y0000112722D01*
X0000459419Y0000120693D01*
X0000463304Y0000131199D01*
X0000425000Y0000169503D01*
X0000424443Y0000168946D01*
X0000417372Y0000176017D01*
X0000417928Y0000176574D01*
X0000417372Y0000177131D01*
X0000424443Y0000184202D01*
X0000425000Y0000183645D01*
X0000425556Y0000184202D01*
X0000432627Y0000177131D01*
X0000432071Y0000176574D01*
X0000470375Y0000138270D01*
X0000480881Y0000142154D01*
X0000489799Y0000166159D01*
X0000488852Y0000191750D01*
X0000486593Y0000197204D01*
X0000495914Y0000203202D01*
X0000506045Y0000218029D01*
X0000509609Y0000235629D01*
X0000509609Y0000277629D01*
X0000591282Y0000277629D01*
X0000591265Y0000258420D01*
X0000591265Y0000258420D01*
G37*
X0000591265Y0000258420D02*
X0000591292Y0000258354D01*
X0000578543Y0000258365D01*
X0000538706Y0000241905D01*
X0000508201Y0000211453D01*
X0000491672Y0000171645D01*
X0000491634Y0000128543D01*
X0000508094Y0000088706D01*
X0000538546Y0000058201D01*
X0000559815Y0000049370D01*
X0000369542Y0000049370D01*
X0000383470Y0000070213D01*
X0000389394Y0000100000D01*
X0000383770Y0000128274D01*
X0000386695Y0000131199D01*
X0000390580Y0000120693D01*
X0000414585Y0000111775D01*
X0000440175Y0000112722D01*
X0000459419Y0000120693D01*
X0000463304Y0000131199D01*
X0000425000Y0000169503D01*
X0000424443Y0000168946D01*
X0000417372Y0000176017D01*
X0000417928Y0000176574D01*
X0000417372Y0000177131D01*
X0000424443Y0000184202D01*
X0000425000Y0000183645D01*
X0000425556Y0000184202D01*
X0000432627Y0000177131D01*
X0000432071Y0000176574D01*
X0000470375Y0000138270D01*
X0000480881Y0000142154D01*
X0000489799Y0000166159D01*
X0000488852Y0000191750D01*
X0000486593Y0000197204D01*
X0000495914Y0000203202D01*
X0000506045Y0000218029D01*
X0000509609Y0000235629D01*
X0000509609Y0000277629D01*
X0000591282Y0000277629D01*
X0000591265Y0000258420D01*
G36*
X0001200629Y0000154862D02*
X0001192076Y0000111860D01*
X0001170472Y0000079527D01*
X0001138139Y0000057923D01*
X0001098402Y0000050019D01*
X0001102356Y0000059542D01*
X0001102383Y0000090322D01*
X0001090629Y0000118769D01*
X0001070557Y0000138876D01*
X0001075609Y0000144410D01*
X0001082416Y0000160843D01*
X0001077649Y0000169999D01*
X0001037071Y0000169999D01*
X0001032627Y0000174443D01*
X0001025556Y0000167372D01*
X0001030000Y0000162928D01*
X0001030000Y0000152365D01*
X0001020000Y0000152374D01*
X0001020000Y0000162928D01*
X0001024443Y0000167372D01*
X0001017372Y0000174443D01*
X0001012928Y0000169999D01*
X0000983327Y0000169999D01*
X0000983470Y0000170213D01*
X0000985416Y0000180000D01*
X0001012928Y0000180000D01*
X0001017372Y0000175556D01*
X0001024443Y0000182627D01*
X0001020000Y0000187071D01*
X0001020000Y0000210400D01*
X0001030000Y0000210770D01*
X0001030000Y0000180000D01*
X0001077649Y0000180000D01*
X0001082416Y0000189156D01*
X0001072628Y0000210051D01*
X0001060247Y0000221357D01*
X0001063304Y0000229624D01*
X0001025000Y0000267928D01*
X0001024443Y0000267372D01*
X0001017372Y0000274443D01*
X0001017928Y0000275000D01*
X0001017372Y0000275556D01*
X0001024443Y0000282627D01*
X0001025000Y0000282071D01*
X0001025556Y0000282627D01*
X0001032627Y0000275556D01*
X0001032071Y0000275000D01*
X0001070375Y0000236695D01*
X0001080881Y0000240580D01*
X0001089799Y0000264585D01*
X0001088852Y0000290175D01*
X0001086078Y0000296872D01*
X0001095914Y0000303202D01*
X0001106045Y0000318029D01*
X0001109609Y0000335629D01*
X0001109609Y0000336350D01*
X0001112031Y0000337968D01*
X0001187031Y0000412968D01*
X0001196653Y0000427370D01*
X0001198383Y0000429958D01*
X0001200629Y0000441251D01*
X0001200629Y0000154862D01*
X0001200629Y0000154862D01*
G37*
X0001200629Y0000154862D02*
X0001192076Y0000111860D01*
X0001170472Y0000079527D01*
X0001138139Y0000057923D01*
X0001098402Y0000050019D01*
X0001102356Y0000059542D01*
X0001102383Y0000090322D01*
X0001090629Y0000118769D01*
X0001070557Y0000138876D01*
X0001075609Y0000144410D01*
X0001082416Y0000160843D01*
X0001077649Y0000169999D01*
X0001037071Y0000169999D01*
X0001032627Y0000174443D01*
X0001025556Y0000167372D01*
X0001030000Y0000162928D01*
X0001030000Y0000152365D01*
X0001020000Y0000152374D01*
X0001020000Y0000162928D01*
X0001024443Y0000167372D01*
X0001017372Y0000174443D01*
X0001012928Y0000169999D01*
X0000983327Y0000169999D01*
X0000983470Y0000170213D01*
X0000985416Y0000180000D01*
X0001012928Y0000180000D01*
X0001017372Y0000175556D01*
X0001024443Y0000182627D01*
X0001020000Y0000187071D01*
X0001020000Y0000210400D01*
X0001030000Y0000210770D01*
X0001030000Y0000180000D01*
X0001077649Y0000180000D01*
X0001082416Y0000189156D01*
X0001072628Y0000210051D01*
X0001060247Y0000221357D01*
X0001063304Y0000229624D01*
X0001025000Y0000267928D01*
X0001024443Y0000267372D01*
X0001017372Y0000274443D01*
X0001017928Y0000275000D01*
X0001017372Y0000275556D01*
X0001024443Y0000282627D01*
X0001025000Y0000282071D01*
X0001025556Y0000282627D01*
X0001032627Y0000275556D01*
X0001032071Y0000275000D01*
X0001070375Y0000236695D01*
X0001080881Y0000240580D01*
X0001089799Y0000264585D01*
X0001088852Y0000290175D01*
X0001086078Y0000296872D01*
X0001095914Y0000303202D01*
X0001106045Y0000318029D01*
X0001109609Y0000335629D01*
X0001109609Y0000336350D01*
X0001112031Y0000337968D01*
X0001187031Y0000412968D01*
X0001196653Y0000427370D01*
X0001198383Y0000429958D01*
X0001200629Y0000441251D01*
X0001200629Y0000154862D01*
G36*
X0000305000Y0000205000D02*
X0000305787Y0000205000D01*
X0000305787Y0000195000D01*
X0000305000Y0000195000D01*
X0000305000Y0000194212D01*
X0000295000Y0000194212D01*
X0000295000Y0000195000D01*
X0000294212Y0000195000D01*
X0000294212Y0000205000D01*
X0000295000Y0000205000D01*
X0000295000Y0000205787D01*
X0000305000Y0000205787D01*
X0000305000Y0000205000D01*
X0000305000Y0000205000D01*
G37*
X0000305000Y0000205000D02*
X0000305787Y0000205000D01*
X0000305787Y0000195000D01*
X0000305000Y0000195000D01*
X0000305000Y0000194212D01*
X0000295000Y0000194212D01*
X0000295000Y0000195000D01*
X0000294212Y0000195000D01*
X0000294212Y0000205000D01*
X0000295000Y0000205000D01*
X0000295000Y0000205787D01*
X0000305000Y0000205787D01*
X0000305000Y0000205000D01*
G36*
X0000552503Y0002129049D02*
X0000583270Y0002116274D01*
X0000616583Y0002116245D01*
X0000637629Y0002124941D01*
X0000637629Y0002044463D01*
X0000615624Y0002022496D01*
X0000602849Y0001991730D01*
X0000602820Y0001958416D01*
X0000615542Y0001927627D01*
X0000639077Y0001904049D01*
X0000667984Y0001892046D01*
X0000637968Y0001862031D01*
X0000626616Y0001845041D01*
X0000622629Y0001825000D01*
X0000622629Y0000591016D01*
X0000604067Y0000572485D01*
X0000591294Y0000541726D01*
X0000591265Y0000508420D01*
X0000603984Y0000477638D01*
X0000619731Y0000461863D01*
X0000608836Y0000451776D01*
X0000608300Y0000464545D01*
X0000601048Y0000482053D01*
X0000590951Y0000485454D01*
X0000555496Y0000450000D01*
X0000556053Y0000449443D01*
X0000548982Y0000442372D01*
X0000548425Y0000442928D01*
X0000547868Y0000442372D01*
X0000540797Y0000449443D01*
X0000541354Y0000450000D01*
X0000540797Y0000450556D01*
X0000547868Y0000457627D01*
X0000548425Y0000457071D01*
X0000583880Y0000492525D01*
X0000580478Y0000502623D01*
X0000557900Y0000510884D01*
X0000533879Y0000509875D01*
X0000524840Y0000506131D01*
X0000517861Y0000516977D01*
X0000503033Y0000527108D01*
X0000485433Y0000530672D01*
X0000442370Y0000530672D01*
X0000442370Y0000553307D01*
X0000447031Y0000557968D01*
X0000458383Y0000574958D01*
X0000458855Y0000577331D01*
X0000462370Y0000595000D01*
X0000462370Y0000629726D01*
X0000490485Y0000624133D01*
X0000509514Y0000624133D01*
X0000538547Y0000629908D01*
X0000563160Y0000646354D01*
X0000579605Y0000670967D01*
X0000585380Y0000700000D01*
X0000579605Y0000729032D01*
X0000565595Y0000750000D01*
X0000579605Y0000770967D01*
X0000585380Y0000800000D01*
X0000579605Y0000829032D01*
X0000565595Y0000850000D01*
X0000579605Y0000870967D01*
X0000585380Y0000900000D01*
X0000579605Y0000929032D01*
X0000565595Y0000950000D01*
X0000579605Y0000970967D01*
X0000585380Y0001000000D01*
X0000579605Y0001029032D01*
X0000565595Y0001050000D01*
X0000579605Y0001070967D01*
X0000585380Y0001100000D01*
X0000579605Y0001129032D01*
X0000565595Y0001150000D01*
X0000579605Y0001170967D01*
X0000585380Y0001200000D01*
X0000579605Y0001229032D01*
X0000565595Y0001250000D01*
X0000579605Y0001270967D01*
X0000585380Y0001300000D01*
X0000581843Y0001317781D01*
X0000592031Y0001327968D01*
X0000603383Y0001344958D01*
X0000604168Y0001348902D01*
X0000607370Y0001365000D01*
X0000607370Y0001645000D01*
X0000603383Y0001665041D01*
X0000602743Y0001666000D01*
X0000592031Y0001682031D01*
X0000585239Y0001688823D01*
X0000585239Y0001734000D01*
X0000582145Y0001750442D01*
X0000574707Y0001762001D01*
X0000580057Y0001770009D01*
X0000586023Y0001800000D01*
X0000580057Y0001829990D01*
X0000563068Y0001855416D01*
X0000551601Y0001863078D01*
X0000553178Y0001864486D01*
X0000563177Y0001885244D01*
X0000563281Y0001885865D01*
X0000558512Y0001895000D01*
X0000505000Y0001895000D01*
X0000505000Y0001894212D01*
X0000495000Y0001894212D01*
X0000495000Y0001895000D01*
X0000494212Y0001895000D01*
X0000494212Y0001905000D01*
X0000495000Y0001905000D01*
X0000495000Y0001952792D01*
X0000505000Y0001952792D01*
X0000505000Y0001905000D01*
X0000558512Y0001905000D01*
X0000563281Y0001914134D01*
X0000563177Y0001914755D01*
X0000553178Y0001935513D01*
X0000535996Y0001950864D01*
X0000514248Y0001958471D01*
X0000505000Y0001952792D01*
X0000495000Y0001952792D01*
X0000485751Y0001958471D01*
X0000464003Y0001950864D01*
X0000456370Y0001944044D01*
X0000456370Y0002007932D01*
X0000533138Y0002123085D01*
X0000547373Y0002128967D01*
X0000549983Y0002131573D01*
X0000552503Y0002129049D01*
X0000552503Y0002129049D01*
G37*
X0000552503Y0002129049D02*
X0000583270Y0002116274D01*
X0000616583Y0002116245D01*
X0000637629Y0002124941D01*
X0000637629Y0002044463D01*
X0000615624Y0002022496D01*
X0000602849Y0001991730D01*
X0000602820Y0001958416D01*
X0000615542Y0001927627D01*
X0000639077Y0001904049D01*
X0000667984Y0001892046D01*
X0000637968Y0001862031D01*
X0000626616Y0001845041D01*
X0000622629Y0001825000D01*
X0000622629Y0000591016D01*
X0000604067Y0000572485D01*
X0000591294Y0000541726D01*
X0000591265Y0000508420D01*
X0000603984Y0000477638D01*
X0000619731Y0000461863D01*
X0000608836Y0000451776D01*
X0000608300Y0000464545D01*
X0000601048Y0000482053D01*
X0000590951Y0000485454D01*
X0000555496Y0000450000D01*
X0000556053Y0000449443D01*
X0000548982Y0000442372D01*
X0000548425Y0000442928D01*
X0000547868Y0000442372D01*
X0000540797Y0000449443D01*
X0000541354Y0000450000D01*
X0000540797Y0000450556D01*
X0000547868Y0000457627D01*
X0000548425Y0000457071D01*
X0000583880Y0000492525D01*
X0000580478Y0000502623D01*
X0000557900Y0000510884D01*
X0000533879Y0000509875D01*
X0000524840Y0000506131D01*
X0000517861Y0000516977D01*
X0000503033Y0000527108D01*
X0000485433Y0000530672D01*
X0000442370Y0000530672D01*
X0000442370Y0000553307D01*
X0000447031Y0000557968D01*
X0000458383Y0000574958D01*
X0000458855Y0000577331D01*
X0000462370Y0000595000D01*
X0000462370Y0000629726D01*
X0000490485Y0000624133D01*
X0000509514Y0000624133D01*
X0000538547Y0000629908D01*
X0000563160Y0000646354D01*
X0000579605Y0000670967D01*
X0000585380Y0000700000D01*
X0000579605Y0000729032D01*
X0000565595Y0000750000D01*
X0000579605Y0000770967D01*
X0000585380Y0000800000D01*
X0000579605Y0000829032D01*
X0000565595Y0000850000D01*
X0000579605Y0000870967D01*
X0000585380Y0000900000D01*
X0000579605Y0000929032D01*
X0000565595Y0000950000D01*
X0000579605Y0000970967D01*
X0000585380Y0001000000D01*
X0000579605Y0001029032D01*
X0000565595Y0001050000D01*
X0000579605Y0001070967D01*
X0000585380Y0001100000D01*
X0000579605Y0001129032D01*
X0000565595Y0001150000D01*
X0000579605Y0001170967D01*
X0000585380Y0001200000D01*
X0000579605Y0001229032D01*
X0000565595Y0001250000D01*
X0000579605Y0001270967D01*
X0000585380Y0001300000D01*
X0000581843Y0001317781D01*
X0000592031Y0001327968D01*
X0000603383Y0001344958D01*
X0000604168Y0001348902D01*
X0000607370Y0001365000D01*
X0000607370Y0001645000D01*
X0000603383Y0001665041D01*
X0000602743Y0001666000D01*
X0000592031Y0001682031D01*
X0000585239Y0001688823D01*
X0000585239Y0001734000D01*
X0000582145Y0001750442D01*
X0000574707Y0001762001D01*
X0000580057Y0001770009D01*
X0000586023Y0001800000D01*
X0000580057Y0001829990D01*
X0000563068Y0001855416D01*
X0000551601Y0001863078D01*
X0000553178Y0001864486D01*
X0000563177Y0001885244D01*
X0000563281Y0001885865D01*
X0000558512Y0001895000D01*
X0000505000Y0001895000D01*
X0000505000Y0001894212D01*
X0000495000Y0001894212D01*
X0000495000Y0001895000D01*
X0000494212Y0001895000D01*
X0000494212Y0001905000D01*
X0000495000Y0001905000D01*
X0000495000Y0001952792D01*
X0000505000Y0001952792D01*
X0000505000Y0001905000D01*
X0000558512Y0001905000D01*
X0000563281Y0001914134D01*
X0000563177Y0001914755D01*
X0000553178Y0001935513D01*
X0000535996Y0001950864D01*
X0000514248Y0001958471D01*
X0000505000Y0001952792D01*
X0000495000Y0001952792D01*
X0000485751Y0001958471D01*
X0000464003Y0001950864D01*
X0000456370Y0001944044D01*
X0000456370Y0002007932D01*
X0000533138Y0002123085D01*
X0000547373Y0002128967D01*
X0000549983Y0002131573D01*
X0000552503Y0002129049D01*
G36*
X0001032627Y0000475556D02*
X0001032071Y0000475000D01*
X0001032627Y0000474443D01*
X0001025556Y0000467372D01*
X0001025000Y0000467928D01*
X0001024443Y0000467372D01*
X0001017372Y0000474443D01*
X0001017928Y0000475000D01*
X0001017372Y0000475556D01*
X0001024443Y0000482627D01*
X0001025000Y0000482071D01*
X0001025556Y0000482627D01*
X0001032627Y0000475556D01*
X0001032627Y0000475556D01*
G37*
X0001032627Y0000475556D02*
X0001032071Y0000475000D01*
X0001032627Y0000474443D01*
X0001025556Y0000467372D01*
X0001025000Y0000467928D01*
X0001024443Y0000467372D01*
X0001017372Y0000474443D01*
X0001017928Y0000475000D01*
X0001017372Y0000475556D01*
X0001024443Y0000482627D01*
X0001025000Y0000482071D01*
X0001025556Y0000482627D01*
X0001032627Y0000475556D01*
G36*
X0001102514Y0001304066D02*
X0001125993Y0001294317D01*
X0001123783Y0001288367D01*
X0001124730Y0001262777D01*
X0001132701Y0001243532D01*
X0001143207Y0001239648D01*
X0001181511Y0001277952D01*
X0001180954Y0001278509D01*
X0001188025Y0001285580D01*
X0001188582Y0001285023D01*
X0001189139Y0001285580D01*
X0001196210Y0001278509D01*
X0001195653Y0001277952D01*
X0001196210Y0001277395D01*
X0001189139Y0001270324D01*
X0001188582Y0001270881D01*
X0001150278Y0001232577D01*
X0001154162Y0001222071D01*
X0001178167Y0001213153D01*
X0001200629Y0001213984D01*
X0001200629Y0001086240D01*
X0001198997Y0001086846D01*
X0001173407Y0001085899D01*
X0001154162Y0001077928D01*
X0001150278Y0001067422D01*
X0001188582Y0001029118D01*
X0001189139Y0001029675D01*
X0001196210Y0001022604D01*
X0001195653Y0001022047D01*
X0001196210Y0001021490D01*
X0001189139Y0001014419D01*
X0001188582Y0001014976D01*
X0001188025Y0001014419D01*
X0001180954Y0001021490D01*
X0001181511Y0001022047D01*
X0001143207Y0001060351D01*
X0001132701Y0001056467D01*
X0001123783Y0001032462D01*
X0001124730Y0001006871D01*
X0001125341Y0001005396D01*
X0001102638Y0000996015D01*
X0001100016Y0000993398D01*
X0001097485Y0000995933D01*
X0001092163Y0000998142D01*
X0001095142Y0001005317D01*
X0001095172Y0001038631D01*
X0001082450Y0001069420D01*
X0001063787Y0001088115D01*
X0001063787Y0001211908D01*
X0001082367Y0001230455D01*
X0001095142Y0001261222D01*
X0001095172Y0001294536D01*
X0001092156Y0001301833D01*
X0001097361Y0001303984D01*
X0001099983Y0001306601D01*
X0001102514Y0001304066D01*
X0001102514Y0001304066D01*
G37*
X0001102514Y0001304066D02*
X0001125993Y0001294317D01*
X0001123783Y0001288367D01*
X0001124730Y0001262777D01*
X0001132701Y0001243532D01*
X0001143207Y0001239648D01*
X0001181511Y0001277952D01*
X0001180954Y0001278509D01*
X0001188025Y0001285580D01*
X0001188582Y0001285023D01*
X0001189139Y0001285580D01*
X0001196210Y0001278509D01*
X0001195653Y0001277952D01*
X0001196210Y0001277395D01*
X0001189139Y0001270324D01*
X0001188582Y0001270881D01*
X0001150278Y0001232577D01*
X0001154162Y0001222071D01*
X0001178167Y0001213153D01*
X0001200629Y0001213984D01*
X0001200629Y0001086240D01*
X0001198997Y0001086846D01*
X0001173407Y0001085899D01*
X0001154162Y0001077928D01*
X0001150278Y0001067422D01*
X0001188582Y0001029118D01*
X0001189139Y0001029675D01*
X0001196210Y0001022604D01*
X0001195653Y0001022047D01*
X0001196210Y0001021490D01*
X0001189139Y0001014419D01*
X0001188582Y0001014976D01*
X0001188025Y0001014419D01*
X0001180954Y0001021490D01*
X0001181511Y0001022047D01*
X0001143207Y0001060351D01*
X0001132701Y0001056467D01*
X0001123783Y0001032462D01*
X0001124730Y0001006871D01*
X0001125341Y0001005396D01*
X0001102638Y0000996015D01*
X0001100016Y0000993398D01*
X0001097485Y0000995933D01*
X0001092163Y0000998142D01*
X0001095142Y0001005317D01*
X0001095172Y0001038631D01*
X0001082450Y0001069420D01*
X0001063787Y0001088115D01*
X0001063787Y0001211908D01*
X0001082367Y0001230455D01*
X0001095142Y0001261222D01*
X0001095172Y0001294536D01*
X0001092156Y0001301833D01*
X0001097361Y0001303984D01*
X0001099983Y0001306601D01*
X0001102514Y0001304066D01*
G36*
X0000940390Y0001785629D02*
X0000943484Y0001769187D01*
X0000953202Y0001754085D01*
X0000964315Y0001746492D01*
X0000960200Y0001735414D01*
X0000961147Y0001709824D01*
X0000969118Y0001690580D01*
X0000979624Y0001686695D01*
X0001017928Y0001725000D01*
X0001017372Y0001725556D01*
X0001024443Y0001732627D01*
X0001025000Y0001732071D01*
X0001025556Y0001732627D01*
X0001032627Y0001725556D01*
X0001032071Y0001725000D01*
X0001032627Y0001724443D01*
X0001025556Y0001717372D01*
X0001025000Y0001717928D01*
X0001003402Y0001696331D01*
X0001002638Y0001696015D01*
X0000979067Y0001672485D01*
X0000966294Y0001641726D01*
X0000966265Y0001608420D01*
X0000978984Y0001577638D01*
X0001002514Y0001554066D01*
X0001033274Y0001541294D01*
X0001066579Y0001541265D01*
X0001097361Y0001553984D01*
X0001099983Y0001556601D01*
X0001102514Y0001554066D01*
X0001133274Y0001541294D01*
X0001166579Y0001541265D01*
X0001197361Y0001553984D01*
X0001200629Y0001557246D01*
X0001200629Y0001442783D01*
X0001197485Y0001445933D01*
X0001166726Y0001458705D01*
X0001133420Y0001458734D01*
X0001102638Y0001446015D01*
X0001100016Y0001443398D01*
X0001097485Y0001445933D01*
X0001066726Y0001458705D01*
X0001033420Y0001458734D01*
X0001002638Y0001446015D01*
X0000983952Y0001427362D01*
X0000983470Y0001429786D01*
X0000966597Y0001455037D01*
X0000941346Y0001471909D01*
X0000911560Y0001477834D01*
X0000888439Y0001477834D01*
X0000858653Y0001471909D01*
X0000854466Y0001469112D01*
X0000862261Y0001483987D01*
X0000862673Y0001486258D01*
X0000857870Y0001495000D01*
X0000805000Y0001495000D01*
X0000805000Y0001494212D01*
X0000795000Y0001494212D01*
X0000795000Y0001495000D01*
X0000742129Y0001495000D01*
X0000737326Y0001486258D01*
X0000737738Y0001483987D01*
X0000748006Y0001464392D01*
X0000750193Y0001462567D01*
X0000736840Y0001453645D01*
X0000727370Y0001439472D01*
X0000727370Y0001513741D01*
X0000737326Y0001513741D01*
X0000742129Y0001505000D01*
X0000795000Y0001505000D01*
X0000795000Y0001550372D01*
X0000805000Y0001550372D01*
X0000805000Y0001505000D01*
X0000857870Y0001505000D01*
X0000862673Y0001513741D01*
X0000862261Y0001516012D01*
X0000851993Y0001535607D01*
X0000835008Y0001549780D01*
X0000813893Y0001556375D01*
X0000805000Y0001550372D01*
X0000795000Y0001550372D01*
X0000786106Y0001556375D01*
X0000764991Y0001549780D01*
X0000748006Y0001535607D01*
X0000737738Y0001516012D01*
X0000737326Y0001513741D01*
X0000727370Y0001513741D01*
X0000727370Y0001661899D01*
X0000767396Y0001661899D01*
X0000770314Y0001652210D01*
X0000791465Y0001644607D01*
X0000813915Y0001645678D01*
X0000829685Y0001652210D01*
X0000832603Y0001661899D01*
X0000800000Y0001694503D01*
X0000767396Y0001661899D01*
X0000727370Y0001661899D01*
X0000727370Y0001750489D01*
X0000736076Y0001736959D01*
X0000749409Y0001727849D01*
X0000743032Y0001710109D01*
X0000744103Y0001687659D01*
X0000750635Y0001671889D01*
X0000760325Y0001668970D01*
X0000792928Y0001701574D01*
X0000792372Y0001702131D01*
X0000799443Y0001709202D01*
X0000800000Y0001708645D01*
X0000800556Y0001709202D01*
X0000807627Y0001702131D01*
X0000807071Y0001701574D01*
X0000839675Y0001668970D01*
X0000849364Y0001671889D01*
X0000856967Y0001693040D01*
X0000855896Y0001715490D01*
X0000850667Y0001728114D01*
X0000863040Y0001736076D01*
X0000873171Y0001750903D01*
X0000876735Y0001768503D01*
X0000876735Y0001831496D01*
X0000875581Y0001837629D01*
X0000910000Y0001837629D01*
X0000930041Y0001841616D01*
X0000940390Y0001848531D01*
X0000940390Y0001785629D01*
X0000940390Y0001785629D01*
G37*
X0000940390Y0001785629D02*
X0000943484Y0001769187D01*
X0000953202Y0001754085D01*
X0000964315Y0001746492D01*
X0000960200Y0001735414D01*
X0000961147Y0001709824D01*
X0000969118Y0001690580D01*
X0000979624Y0001686695D01*
X0001017928Y0001725000D01*
X0001017372Y0001725556D01*
X0001024443Y0001732627D01*
X0001025000Y0001732071D01*
X0001025556Y0001732627D01*
X0001032627Y0001725556D01*
X0001032071Y0001725000D01*
X0001032627Y0001724443D01*
X0001025556Y0001717372D01*
X0001025000Y0001717928D01*
X0001003402Y0001696331D01*
X0001002638Y0001696015D01*
X0000979067Y0001672485D01*
X0000966294Y0001641726D01*
X0000966265Y0001608420D01*
X0000978984Y0001577638D01*
X0001002514Y0001554066D01*
X0001033274Y0001541294D01*
X0001066579Y0001541265D01*
X0001097361Y0001553984D01*
X0001099983Y0001556601D01*
X0001102514Y0001554066D01*
X0001133274Y0001541294D01*
X0001166579Y0001541265D01*
X0001197361Y0001553984D01*
X0001200629Y0001557246D01*
X0001200629Y0001442783D01*
X0001197485Y0001445933D01*
X0001166726Y0001458705D01*
X0001133420Y0001458734D01*
X0001102638Y0001446015D01*
X0001100016Y0001443398D01*
X0001097485Y0001445933D01*
X0001066726Y0001458705D01*
X0001033420Y0001458734D01*
X0001002638Y0001446015D01*
X0000983952Y0001427362D01*
X0000983470Y0001429786D01*
X0000966597Y0001455037D01*
X0000941346Y0001471909D01*
X0000911560Y0001477834D01*
X0000888439Y0001477834D01*
X0000858653Y0001471909D01*
X0000854466Y0001469112D01*
X0000862261Y0001483987D01*
X0000862673Y0001486258D01*
X0000857870Y0001495000D01*
X0000805000Y0001495000D01*
X0000805000Y0001494212D01*
X0000795000Y0001494212D01*
X0000795000Y0001495000D01*
X0000742129Y0001495000D01*
X0000737326Y0001486258D01*
X0000737738Y0001483987D01*
X0000748006Y0001464392D01*
X0000750193Y0001462567D01*
X0000736840Y0001453645D01*
X0000727370Y0001439472D01*
X0000727370Y0001513741D01*
X0000737326Y0001513741D01*
X0000742129Y0001505000D01*
X0000795000Y0001505000D01*
X0000795000Y0001550372D01*
X0000805000Y0001550372D01*
X0000805000Y0001505000D01*
X0000857870Y0001505000D01*
X0000862673Y0001513741D01*
X0000862261Y0001516012D01*
X0000851993Y0001535607D01*
X0000835008Y0001549780D01*
X0000813893Y0001556375D01*
X0000805000Y0001550372D01*
X0000795000Y0001550372D01*
X0000786106Y0001556375D01*
X0000764991Y0001549780D01*
X0000748006Y0001535607D01*
X0000737738Y0001516012D01*
X0000737326Y0001513741D01*
X0000727370Y0001513741D01*
X0000727370Y0001661899D01*
X0000767396Y0001661899D01*
X0000770314Y0001652210D01*
X0000791465Y0001644607D01*
X0000813915Y0001645678D01*
X0000829685Y0001652210D01*
X0000832603Y0001661899D01*
X0000800000Y0001694503D01*
X0000767396Y0001661899D01*
X0000727370Y0001661899D01*
X0000727370Y0001750489D01*
X0000736076Y0001736959D01*
X0000749409Y0001727849D01*
X0000743032Y0001710109D01*
X0000744103Y0001687659D01*
X0000750635Y0001671889D01*
X0000760325Y0001668970D01*
X0000792928Y0001701574D01*
X0000792372Y0001702131D01*
X0000799443Y0001709202D01*
X0000800000Y0001708645D01*
X0000800556Y0001709202D01*
X0000807627Y0001702131D01*
X0000807071Y0001701574D01*
X0000839675Y0001668970D01*
X0000849364Y0001671889D01*
X0000856967Y0001693040D01*
X0000855896Y0001715490D01*
X0000850667Y0001728114D01*
X0000863040Y0001736076D01*
X0000873171Y0001750903D01*
X0000876735Y0001768503D01*
X0000876735Y0001831496D01*
X0000875581Y0001837629D01*
X0000910000Y0001837629D01*
X0000930041Y0001841616D01*
X0000940390Y0001848531D01*
X0000940390Y0001785629D01*
G36*
X0000967583Y0002239156D02*
X0000972350Y0002230000D01*
X0001012928Y0002230000D01*
X0001017372Y0002225556D01*
X0001024443Y0002232627D01*
X0001020000Y0002237071D01*
X0001020000Y0002250629D01*
X0001030000Y0002250629D01*
X0001030000Y0002237071D01*
X0001025556Y0002232627D01*
X0001032627Y0002225556D01*
X0001037071Y0002230000D01*
X0001077649Y0002230000D01*
X0001082416Y0002239156D01*
X0001077042Y0002250629D01*
X0001095137Y0002250629D01*
X0001138139Y0002242076D01*
X0001170472Y0002220472D01*
X0001192076Y0002188139D01*
X0001200629Y0002145137D01*
X0001200629Y0001692783D01*
X0001197485Y0001695933D01*
X0001166726Y0001708705D01*
X0001133420Y0001708734D01*
X0001102638Y0001696015D01*
X0001100016Y0001693398D01*
X0001097485Y0001695933D01*
X0001084823Y0001701190D01*
X0001089799Y0001714585D01*
X0001088852Y0001740175D01*
X0001086078Y0001746872D01*
X0001095914Y0001753202D01*
X0001106045Y0001768029D01*
X0001109609Y0001785629D01*
X0001109609Y0001864370D01*
X0001106515Y0001880812D01*
X0001096798Y0001895914D01*
X0001085684Y0001903507D01*
X0001089799Y0001914585D01*
X0001088852Y0001940175D01*
X0001086078Y0001946872D01*
X0001095914Y0001953202D01*
X0001106045Y0001968029D01*
X0001109609Y0001985629D01*
X0001109609Y0002064370D01*
X0001106515Y0002080812D01*
X0001096798Y0002095914D01*
X0001096719Y0002095967D01*
X0001102356Y0002109542D01*
X0001102383Y0002140322D01*
X0001090629Y0002168769D01*
X0001070557Y0002188876D01*
X0001075609Y0002194410D01*
X0001082416Y0002210843D01*
X0001077649Y0002220000D01*
X0001037071Y0002220000D01*
X0001032627Y0002224443D01*
X0001025556Y0002217372D01*
X0001030000Y0002212928D01*
X0001030000Y0002202365D01*
X0001020000Y0002202374D01*
X0001020000Y0002212928D01*
X0001024443Y0002217372D01*
X0001017372Y0002224443D01*
X0001012928Y0002220000D01*
X0000972350Y0002220000D01*
X0000967583Y0002210843D01*
X0000977371Y0002189948D01*
X0000979030Y0002188433D01*
X0000959447Y0002168883D01*
X0000958360Y0002166267D01*
X0000958365Y0002171456D01*
X0000941905Y0002211293D01*
X0000911453Y0002241798D01*
X0000890184Y0002250629D01*
X0000972335Y0002250629D01*
X0000967583Y0002239156D01*
X0000967583Y0002239156D01*
G37*
X0000967583Y0002239156D02*
X0000972350Y0002230000D01*
X0001012928Y0002230000D01*
X0001017372Y0002225556D01*
X0001024443Y0002232627D01*
X0001020000Y0002237071D01*
X0001020000Y0002250629D01*
X0001030000Y0002250629D01*
X0001030000Y0002237071D01*
X0001025556Y0002232627D01*
X0001032627Y0002225556D01*
X0001037071Y0002230000D01*
X0001077649Y0002230000D01*
X0001082416Y0002239156D01*
X0001077042Y0002250629D01*
X0001095137Y0002250629D01*
X0001138139Y0002242076D01*
X0001170472Y0002220472D01*
X0001192076Y0002188139D01*
X0001200629Y0002145137D01*
X0001200629Y0001692783D01*
X0001197485Y0001695933D01*
X0001166726Y0001708705D01*
X0001133420Y0001708734D01*
X0001102638Y0001696015D01*
X0001100016Y0001693398D01*
X0001097485Y0001695933D01*
X0001084823Y0001701190D01*
X0001089799Y0001714585D01*
X0001088852Y0001740175D01*
X0001086078Y0001746872D01*
X0001095914Y0001753202D01*
X0001106045Y0001768029D01*
X0001109609Y0001785629D01*
X0001109609Y0001864370D01*
X0001106515Y0001880812D01*
X0001096798Y0001895914D01*
X0001085684Y0001903507D01*
X0001089799Y0001914585D01*
X0001088852Y0001940175D01*
X0001086078Y0001946872D01*
X0001095914Y0001953202D01*
X0001106045Y0001968029D01*
X0001109609Y0001985629D01*
X0001109609Y0002064370D01*
X0001106515Y0002080812D01*
X0001096798Y0002095914D01*
X0001096719Y0002095967D01*
X0001102356Y0002109542D01*
X0001102383Y0002140322D01*
X0001090629Y0002168769D01*
X0001070557Y0002188876D01*
X0001075609Y0002194410D01*
X0001082416Y0002210843D01*
X0001077649Y0002220000D01*
X0001037071Y0002220000D01*
X0001032627Y0002224443D01*
X0001025556Y0002217372D01*
X0001030000Y0002212928D01*
X0001030000Y0002202365D01*
X0001020000Y0002202374D01*
X0001020000Y0002212928D01*
X0001024443Y0002217372D01*
X0001017372Y0002224443D01*
X0001012928Y0002220000D01*
X0000972350Y0002220000D01*
X0000967583Y0002210843D01*
X0000977371Y0002189948D01*
X0000979030Y0002188433D01*
X0000959447Y0002168883D01*
X0000958360Y0002166267D01*
X0000958365Y0002171456D01*
X0000941905Y0002211293D01*
X0000911453Y0002241798D01*
X0000890184Y0002250629D01*
X0000972335Y0002250629D01*
X0000967583Y0002239156D01*
G36*
X0001032627Y0001925556D02*
X0001032071Y0001925000D01*
X0001032627Y0001924443D01*
X0001025556Y0001917372D01*
X0001025000Y0001917928D01*
X0001024443Y0001917372D01*
X0001017372Y0001924443D01*
X0001017928Y0001925000D01*
X0001017372Y0001925556D01*
X0001024443Y0001932627D01*
X0001025000Y0001932071D01*
X0001025556Y0001932627D01*
X0001032627Y0001925556D01*
X0001032627Y0001925556D01*
G37*
X0001032627Y0001925556D02*
X0001032071Y0001925000D01*
X0001032627Y0001924443D01*
X0001025556Y0001917372D01*
X0001025000Y0001917928D01*
X0001024443Y0001917372D01*
X0001017372Y0001924443D01*
X0001017928Y0001925000D01*
X0001017372Y0001925556D01*
X0001024443Y0001932627D01*
X0001025000Y0001932071D01*
X0001025556Y0001932627D01*
X0001032627Y0001925556D01*
G36*
X0000758094Y0002088706D02*
X0000788546Y0002058201D01*
X0000828354Y0002041672D01*
X0000839288Y0002041662D01*
X0000841616Y0002029958D01*
X0000846153Y0002023168D01*
X0000845121Y0002020375D01*
X0000883425Y0001982071D01*
X0000883982Y0001982627D01*
X0000891053Y0001975556D01*
X0000890496Y0001975000D01*
X0000891053Y0001974443D01*
X0000883982Y0001967372D01*
X0000883425Y0001967928D01*
X0000882868Y0001967372D01*
X0000875797Y0001974443D01*
X0000876354Y0001975000D01*
X0000838049Y0002013304D01*
X0000827543Y0002009419D01*
X0000818625Y0001985414D01*
X0000819572Y0001959824D01*
X0000826802Y0001942370D01*
X0000763698Y0001942370D01*
X0000770300Y0001958269D01*
X0000770329Y0001991583D01*
X0000757607Y0002022372D01*
X0000742239Y0002037768D01*
X0000742370Y0002038425D01*
X0000742370Y0002126763D01*
X0000758094Y0002088706D01*
X0000758094Y0002088706D01*
G37*
X0000758094Y0002088706D02*
X0000788546Y0002058201D01*
X0000828354Y0002041672D01*
X0000839288Y0002041662D01*
X0000841616Y0002029958D01*
X0000846153Y0002023168D01*
X0000845121Y0002020375D01*
X0000883425Y0001982071D01*
X0000883982Y0001982627D01*
X0000891053Y0001975556D01*
X0000890496Y0001975000D01*
X0000891053Y0001974443D01*
X0000883982Y0001967372D01*
X0000883425Y0001967928D01*
X0000882868Y0001967372D01*
X0000875797Y0001974443D01*
X0000876354Y0001975000D01*
X0000838049Y0002013304D01*
X0000827543Y0002009419D01*
X0000818625Y0001985414D01*
X0000819572Y0001959824D01*
X0000826802Y0001942370D01*
X0000763698Y0001942370D01*
X0000770300Y0001958269D01*
X0000770329Y0001991583D01*
X0000757607Y0002022372D01*
X0000742239Y0002037768D01*
X0000742370Y0002038425D01*
X0000742370Y0002126763D01*
X0000758094Y0002088706D01*
G36*
X0000245000Y0001975000D02*
X0000245787Y0001975000D01*
X0000245787Y0001965000D01*
X0000245000Y0001965000D01*
X0000245000Y0001964212D01*
X0000235000Y0001964212D01*
X0000235000Y0001965000D01*
X0000234212Y0001965000D01*
X0000234212Y0001975000D01*
X0000235000Y0001975000D01*
X0000235000Y0001975787D01*
X0000245000Y0001975787D01*
X0000245000Y0001975000D01*
X0000245000Y0001975000D01*
G37*
X0000245000Y0001975000D02*
X0000245787Y0001975000D01*
X0000245787Y0001965000D01*
X0000245000Y0001965000D01*
X0000245000Y0001964212D01*
X0000235000Y0001964212D01*
X0000235000Y0001965000D01*
X0000234212Y0001965000D01*
X0000234212Y0001975000D01*
X0000235000Y0001975000D01*
X0000235000Y0001975787D01*
X0000245000Y0001975787D01*
X0000245000Y0001975000D01*
G04 next file*
G04 #@! TF.FileFunction,Copper,L1,Top,Signal*
G04 Gerber Fmt 4.6, Leading zero omitted, Abs format (unit mm)*
G04 Created by KiCad (PCBNEW 4.0.6) date 02/13/20 12:12:51*
G01*
G04 APERTURE LIST*
G04 APERTURE END LIST*
D40*
D41*
X-0002327165Y-0002398425D02*
X0002072834Y0002501574D03*
D42*
X0001974409Y0002501574D03*
X0001875984Y0002501574D03*
X0001777559Y0002501574D03*
X0001679133Y0002501574D03*
D43*
X0000622834Y0002901574D03*
D44*
X0000522834Y0002901574D03*
X0000422834Y0002901574D03*
D45*
X0002222834Y0002701574D03*
X0002122834Y0002701574D03*
X0002022834Y0002701574D03*
X0001922834Y0002701574D03*
X0001822834Y0002701574D03*
X0001722834Y0002701574D03*
X0001622834Y0002701574D03*
X0001522834Y0002701574D03*
X0001422834Y0002701574D03*
X0001322834Y0002701574D03*
X0001222834Y0002701574D03*
X0001122834Y0002701574D03*
X0001022834Y0002701574D03*
X0000922834Y0002701574D03*
D42*
X0000347834Y0003088149D03*
X0000347834Y0003285000D03*
X0002047834Y0003426574D03*
D41*
X0001947834Y0003426574D03*
D46*
X0000197834Y0003426574D03*
X0000097834Y0003426574D03*
D47*
X0001872834Y0002851574D03*
D48*
X0001872834Y0002950000D03*
D41*
X0002047834Y0002826574D03*
D42*
X0002146259Y0002826574D03*
D49*
X0001622834Y0003201574D03*
X0001522834Y0003201574D03*
X0001422834Y0003201574D03*
X0001322834Y0003201574D03*
X0001222834Y0003201574D03*
X0001122834Y0003201574D03*
X0001022834Y0003201574D03*
X0000922834Y0003201574D03*
X0000822834Y0003201574D03*
X0000822834Y0002901574D03*
X0000922834Y0002901574D03*
X0001022834Y0002901574D03*
X0001122834Y0002901574D03*
X0001222834Y0002901574D03*
X0001322834Y0002901574D03*
X0001422834Y0002901574D03*
X0001522834Y0002901574D03*
X0001622834Y0002901574D03*
D50*
X0000621259Y0003201574D03*
D51*
X0000522834Y0003201574D03*
D41*
X0000122834Y0002801574D03*
D42*
X0000122834Y0002901574D03*
X0000122834Y0003001574D03*
D52*
X0000490629Y0002641574D03*
D53*
X0000352834Y0002641574D03*
D52*
X0000780629Y0002641574D03*
D53*
X0000642834Y0002641574D03*
D42*
X0001044881Y0003412992D03*
X0001044881Y0003590157D03*
X0001300787Y0003412992D03*
X0001300787Y0003590157D03*
D54*
X0001355118Y0002811574D03*
X0001390551Y0002811574D03*
D46*
X0002247834Y0003426574D03*
X0002147834Y0003426574D03*
D42*
X0001847834Y0003426574D03*
D41*
X0001747834Y0003426574D03*
D42*
X0000397834Y0003426574D03*
D41*
X0000297834Y0003426574D03*
D42*
X0000597834Y0003426574D03*
D41*
X0000497834Y0003426574D03*
D55*
X0002047834Y0003076574D03*
X0001797834Y0003076574D03*
X0002047834Y0003176574D03*
X0001797834Y0003176574D03*
X0000947834Y0003551574D03*
X0000697834Y0003551574D03*
X0000947834Y0003451574D03*
X0000697834Y0003451574D03*
X0001397834Y0003551574D03*
X0001647834Y0003551574D03*
X0001397834Y0003451574D03*
X0001647834Y0003451574D03*
D45*
X0002222834Y0003301574D03*
X0002122834Y0003301574D03*
X0002022834Y0003301574D03*
X0001922834Y0003301574D03*
X0001822834Y0003301574D03*
X0001722834Y0003301574D03*
X0001622834Y0003301574D03*
X0001522834Y0003301574D03*
X0001422834Y0003301574D03*
X0001322834Y0003301574D03*
X0001222834Y0003301574D03*
X0001122834Y0003301574D03*
X0001022834Y0003301574D03*
X0000922834Y0003301574D03*
D41*
X0001372834Y0002501574D03*
D42*
X0001274409Y0002501574D03*
X0001175984Y0002501574D03*
X0001077559Y0002501574D03*
X0000979133Y0002501574D03*
D56*
X0000892834Y0002481574D03*
D57*
X0000270334Y0003294074D02*
X0000272834Y0003291574D01*
D58*
X0000597834Y0003426574D02*
X0000597834Y0003391574D01*
X0000597834Y0003391574D02*
X0000621259Y0003368149D01*
X0000621259Y0003368149D02*
X0000621259Y0003201574D01*
X0002147834Y0003426574D02*
X0002147834Y0003481574D01*
X0001327204Y0003616574D02*
X0001300787Y0003590157D01*
X0002012834Y0003616574D02*
X0001327204Y0003616574D01*
X0002147834Y0003481574D02*
X0002012834Y0003616574D01*
X0001044881Y0003590157D02*
X0001300787Y0003590157D01*
X0000597834Y0003426574D02*
X0000597834Y0003566574D01*
X0001013464Y0003621574D02*
X0001044881Y0003590157D01*
X0000652834Y0003621574D02*
X0001013464Y0003621574D01*
X0000597834Y0003566574D02*
X0000652834Y0003621574D01*
X0000397834Y0003426574D02*
X0000397834Y0003476574D01*
X0000597834Y0003481574D02*
X0000597834Y0003426574D01*
X0000552834Y0003526574D02*
X0000597834Y0003481574D01*
X0000447834Y0003526574D02*
X0000552834Y0003526574D01*
X0000397834Y0003476574D02*
X0000447834Y0003526574D01*
X0000822834Y0003201574D02*
X0000621259Y0003201574D01*
X0000397834Y0003426574D02*
X0000397834Y0003496574D01*
X0000097834Y0003466574D02*
X0000097834Y0003426574D01*
X0000157834Y0003526574D02*
X0000097834Y0003466574D01*
X0000367834Y0003526574D02*
X0000157834Y0003526574D01*
X0000397834Y0003496574D02*
X0000367834Y0003526574D01*
X0002146259Y0002826574D02*
X0002222834Y0002826574D01*
X0002207834Y0003366574D02*
X0002147834Y0003426574D01*
X0002272834Y0003366574D02*
X0002207834Y0003366574D01*
X0002292834Y0003346574D02*
X0002272834Y0003366574D01*
X0002292834Y0002896574D02*
X0002292834Y0003346574D01*
X0002222834Y0002826574D02*
X0002292834Y0002896574D01*
X0002146259Y0002826574D02*
X0002146259Y0002785000D01*
X0002146259Y0002785000D02*
X0002122834Y0002761574D01*
X0002122834Y0002761574D02*
X0002122834Y0002701574D01*
X0001872834Y0002950000D02*
X0001774409Y0002950000D01*
X0000422834Y0002951574D02*
X0000422834Y0002901574D01*
X0000472834Y0003001574D02*
X0000422834Y0002951574D01*
X0001722834Y0003001574D02*
X0000472834Y0003001574D01*
X0001774409Y0002950000D02*
X0001722834Y0003001574D01*
D57*
X0001047834Y0003587204D02*
X0001044881Y0003590157D01*
X0000097834Y0003426574D02*
X0000097834Y0003416574D01*
X0000097834Y0003401574D02*
X0000097834Y0003426574D01*
X0001972834Y0003201574D02*
X0001972834Y0003141574D01*
X0001685334Y0003364074D02*
X0001672834Y0003376574D01*
X0001672834Y0003376574D02*
X0001612834Y0003376574D01*
X0001612834Y0003376574D02*
X0001537834Y0003451574D01*
X0001397834Y0003451574D02*
X0001537834Y0003451574D01*
X0001962834Y0003341574D02*
X0001972834Y0003331574D01*
X0001962834Y0003341574D02*
X0001935334Y0003364074D01*
X0001972834Y0003331574D02*
X0001972834Y0003201574D01*
X0001935334Y0003364074D02*
X0001685334Y0003364074D01*
X0001972834Y0002651574D02*
X0001962834Y0002641574D01*
X0001972834Y0002751574D02*
X0001972834Y0002651574D01*
X0001992834Y0002771574D02*
X0001972834Y0002751574D01*
X0001992834Y0003121574D02*
X0001992834Y0002771574D01*
X0001972834Y0003141574D02*
X0001992834Y0003121574D01*
X0001962834Y0002641574D02*
X0001747834Y0002641574D01*
X0001722834Y0002666574D02*
X0001747834Y0002641574D01*
X0001722834Y0002666574D02*
X0001722834Y0002701574D01*
X0001044881Y0003412992D02*
X0001300787Y0003412992D01*
D58*
X0000490629Y0002641574D02*
X0000642834Y0002641574D01*
X0000780629Y0002641574D02*
X0000780629Y0002668779D01*
X0000780629Y0002668779D02*
X0000697834Y0002751574D01*
X0000697834Y0002751574D02*
X0000222834Y0002751574D01*
X0000222834Y0002751574D02*
X0000122834Y0002801574D01*
D57*
X0000284409Y0003091574D02*
X0000347834Y0003088149D01*
X0000102834Y0003091574D02*
X0000284409Y0003091574D01*
X0000057834Y0003046574D02*
X0000102834Y0003091574D01*
X0000057834Y0002746574D02*
X0000057834Y0003046574D01*
X0000107834Y0002696574D02*
X0000057834Y0002746574D01*
X0000197834Y0002696574D02*
X0000107834Y0002696574D01*
X0000252834Y0002641574D02*
X0000197834Y0002696574D01*
X0000252834Y0002601574D02*
X0000252834Y0002641574D01*
X0000347834Y0002506574D02*
X0000252834Y0002601574D01*
X0000867834Y0002506574D02*
X0000347834Y0002506574D01*
X0000892834Y0002481574D02*
X0000867834Y0002506574D01*
X0001807834Y0003236574D02*
X0001837834Y0003236574D01*
X0001967834Y0003076574D02*
X0001967834Y0002786574D01*
X0001967834Y0002786574D02*
X0001942834Y0002761574D01*
X0001942834Y0002761574D02*
X0001927834Y0002761574D01*
X0001772834Y0003236574D02*
X0001807834Y0003236574D01*
X0000622834Y0002901574D02*
X0000677834Y0002956574D01*
X0000957834Y0002956574D02*
X0000677834Y0002956574D01*
X0000972834Y0002941574D02*
X0000957834Y0002956574D01*
X0000972834Y0002661574D02*
X0000972834Y0002941574D01*
X0001007834Y0002626574D02*
X0000972834Y0002661574D01*
X0001232834Y0002626574D02*
X0001007834Y0002626574D01*
X0001272834Y0002666574D02*
X0001232834Y0002626574D01*
X0001272834Y0002741574D02*
X0001272834Y0002666574D01*
X0001292834Y0002761574D02*
X0001272834Y0002741574D01*
X0001927834Y0002761574D02*
X0001292834Y0002761574D01*
X0001772834Y0003236574D02*
X0001722834Y0003286574D01*
X0001957834Y0003086574D02*
X0001967834Y0003076574D01*
X0001887834Y0003156574D02*
X0001957834Y0003086574D01*
X0001887834Y0003186574D02*
X0001887834Y0003156574D01*
X0001837834Y0003236574D02*
X0001887834Y0003186574D01*
X0001722834Y0003301574D02*
X0001722834Y0003286574D01*
X0001947834Y0003426574D02*
X0001947834Y0003476574D01*
X0001872834Y0003551574D02*
X0001647834Y0003551574D01*
X0001947834Y0003476574D02*
X0001872834Y0003551574D01*
X0001747834Y0003426574D02*
X0001672834Y0003426574D01*
X0001672834Y0003426574D02*
X0001647834Y0003451574D01*
X0001922834Y0003031574D02*
X0001942834Y0003011574D01*
X0001917834Y0002791574D02*
X0001747834Y0002791574D01*
X0001747834Y0002791574D02*
X0001727834Y0002811574D01*
X0001722834Y0002811574D02*
X0001727834Y0002811574D01*
X0001797834Y0003166574D02*
X0001922834Y0003031574D01*
X0001722834Y0002811574D02*
X0001390551Y0002811574D01*
X0001942834Y0002816574D02*
X0001917834Y0002791574D01*
X0001942834Y0003011574D02*
X0001942834Y0002816574D01*
X0001797834Y0003176574D02*
X0001747834Y0003176574D01*
X0001747834Y0003176574D02*
X0001622834Y0003301574D01*
X0001797834Y0003176574D02*
X0001782834Y0003176574D01*
X0001797834Y0003176574D02*
X0001797834Y0003166574D01*
X0000432834Y0003276574D02*
X0000432834Y0003311574D01*
X0000432834Y0003141574D02*
X0000497834Y0003076574D01*
X0000432834Y0003271574D02*
X0000432834Y0003141574D01*
X0001797834Y0003076574D02*
X0000497834Y0003076574D01*
X0000432834Y0003271574D02*
X0000432834Y0003276574D01*
X0000252834Y0003351574D02*
X0000197834Y0003406574D01*
X0000392834Y0003351574D02*
X0000252834Y0003351574D01*
X0000432834Y0003311574D02*
X0000392834Y0003351574D01*
X0000197834Y0003406574D02*
X0000197834Y0003426574D01*
X0001797834Y0003076574D02*
X0001632834Y0003076574D01*
X0001572834Y0003251574D02*
X0001522834Y0003301574D01*
X0001572834Y0003136574D02*
X0001572834Y0003251574D01*
X0001632834Y0003076574D02*
X0001572834Y0003136574D01*
X0001797834Y0003076574D02*
X0001772834Y0003076574D01*
D58*
X0001679133Y0002501574D02*
X0001679133Y0002505275D01*
X0001679133Y0002505275D02*
X0001552834Y0002631574D01*
X0000979133Y0002501574D02*
X0001054133Y0002576574D01*
X0001317834Y0002576574D02*
X0001054133Y0002576574D01*
X0001372834Y0002631574D02*
X0001317834Y0002576574D01*
X0001552834Y0002631574D02*
X0001372834Y0002631574D01*
X0002222834Y0002701574D02*
X0002222834Y0002661574D01*
X0002222834Y0002661574D02*
X0002192834Y0002631574D01*
X0001679133Y0002532874D02*
X0001747834Y0002601574D01*
X0002012834Y0002601574D02*
X0001747834Y0002601574D01*
X0002042834Y0002631574D02*
X0002012834Y0002601574D01*
X0002192834Y0002631574D02*
X0002042834Y0002631574D01*
X0001679133Y0002501574D02*
X0001679133Y0002532874D01*
X0001679133Y0002501574D02*
X0001679133Y0002507874D01*
X0000979133Y0002501574D02*
X0000972834Y0002501574D01*
X0000972834Y0002501574D02*
X0000897834Y0002576574D01*
X0000847834Y0002876574D02*
X0000822834Y0002901574D01*
X0000847834Y0002676574D02*
X0000847834Y0002876574D01*
X0000897834Y0002626574D02*
X0000847834Y0002676574D01*
X0000897834Y0002576574D02*
X0000897834Y0002626574D01*
X0000522834Y0002901574D02*
X0000522834Y0002851574D01*
X0000522834Y0002851574D02*
X0000572834Y0002801574D01*
X0000122834Y0002901574D02*
X0000147834Y0002901574D01*
X0000147834Y0002901574D02*
X0000297834Y0002801574D01*
X0000297834Y0002801574D02*
X0000572834Y0002801574D01*
X0000572834Y0002801574D02*
X0000722834Y0002801574D01*
X0000722834Y0002801574D02*
X0000822834Y0002901574D01*
D57*
X0002047834Y0003176574D02*
X0002092834Y0003176574D01*
X0002122834Y0003206574D02*
X0002122834Y0003301574D01*
X0002092834Y0003176574D02*
X0002122834Y0003206574D01*
X0002047834Y0003176574D02*
X0002047834Y0003076574D01*
X0001355118Y0002811574D02*
X0001292834Y0002811574D01*
X0001222834Y0002741574D02*
X0001222834Y0002701574D01*
X0001292834Y0002811574D02*
X0001222834Y0002741574D01*
D59*
G36*
X0002064414Y0002992840D02*
X0002064480Y0002992867D01*
X0002064469Y0002980117D01*
X0002080929Y0002940281D01*
X0002111381Y0002909776D01*
X0002151188Y0002893247D01*
X0002194291Y0002893209D01*
X0002234127Y0002909669D01*
X0002264632Y0002940121D01*
X0002273464Y0002961390D01*
X0002273464Y0002771117D01*
X0002252620Y0002785044D01*
X0002222834Y0002790969D01*
X0002194560Y0002785345D01*
X0002191635Y0002788270D01*
X0002202141Y0002792155D01*
X0002211059Y0002816159D01*
X0002210112Y0002841750D01*
X0002202141Y0002860994D01*
X0002191635Y0002864879D01*
X0002153330Y0002826574D01*
X0002153887Y0002826018D01*
X0002146816Y0002818947D01*
X0002146259Y0002819503D01*
X0002145703Y0002818947D01*
X0002138631Y0002826018D01*
X0002139188Y0002826574D01*
X0002138631Y0002827131D01*
X0002145703Y0002834202D01*
X0002146259Y0002833645D01*
X0002184564Y0002871950D01*
X0002180679Y0002882456D01*
X0002156674Y0002891374D01*
X0002131084Y0002890427D01*
X0002125630Y0002888168D01*
X0002119632Y0002897488D01*
X0002104805Y0002907620D01*
X0002087204Y0002911184D01*
X0002045204Y0002911184D01*
X0002045204Y0002992857D01*
X0002064414Y0002992840D01*
X0002064414Y0002992840D01*
G37*
X0002064414Y0002992840D02*
X0002064480Y0002992867D01*
X0002064469Y0002980117D01*
X0002080929Y0002940281D01*
X0002111381Y0002909776D01*
X0002151188Y0002893247D01*
X0002194291Y0002893209D01*
X0002234127Y0002909669D01*
X0002264632Y0002940121D01*
X0002273464Y0002961390D01*
X0002273464Y0002771117D01*
X0002252620Y0002785044D01*
X0002222834Y0002790969D01*
X0002194560Y0002785345D01*
X0002191635Y0002788270D01*
X0002202141Y0002792155D01*
X0002211059Y0002816159D01*
X0002210112Y0002841750D01*
X0002202141Y0002860994D01*
X0002191635Y0002864879D01*
X0002153330Y0002826574D01*
X0002153887Y0002826018D01*
X0002146816Y0002818947D01*
X0002146259Y0002819503D01*
X0002145703Y0002818947D01*
X0002138631Y0002826018D01*
X0002139188Y0002826574D01*
X0002138631Y0002827131D01*
X0002145703Y0002834202D01*
X0002146259Y0002833645D01*
X0002184564Y0002871950D01*
X0002180679Y0002882456D01*
X0002156674Y0002891374D01*
X0002131084Y0002890427D01*
X0002125630Y0002888168D01*
X0002119632Y0002897488D01*
X0002104805Y0002907620D01*
X0002087204Y0002911184D01*
X0002045204Y0002911184D01*
X0002045204Y0002992857D01*
X0002064414Y0002992840D01*
G36*
X0002167972Y0003602204D02*
X0002210973Y0003593651D01*
X0002243306Y0003572047D01*
X0002264910Y0003539714D01*
X0002272815Y0003499977D01*
X0002263291Y0003503931D01*
X0002232512Y0003503958D01*
X0002204065Y0003492204D01*
X0002183957Y0003472132D01*
X0002178424Y0003477184D01*
X0002161990Y0003483991D01*
X0002152834Y0003479224D01*
X0002152834Y0003438646D01*
X0002148391Y0003434202D01*
X0002155462Y0003427131D01*
X0002159905Y0003431574D01*
X0002170468Y0003431574D01*
X0002170460Y0003421574D01*
X0002159905Y0003421574D01*
X0002155462Y0003426018D01*
X0002148391Y0003418946D01*
X0002152834Y0003414503D01*
X0002152834Y0003384901D01*
X0002152620Y0003385044D01*
X0002142834Y0003386991D01*
X0002142834Y0003414503D01*
X0002147277Y0003418946D01*
X0002140206Y0003426018D01*
X0002135763Y0003421574D01*
X0002112433Y0003421574D01*
X0002112063Y0003431574D01*
X0002142834Y0003431574D01*
X0002142834Y0003479224D01*
X0002133678Y0003483991D01*
X0002112783Y0003474203D01*
X0002101477Y0003461822D01*
X0002093209Y0003464879D01*
X0002054905Y0003426574D01*
X0002055462Y0003426018D01*
X0002048391Y0003418947D01*
X0002047834Y0003419503D01*
X0002047277Y0003418947D01*
X0002040206Y0003426018D01*
X0002040763Y0003426574D01*
X0002040206Y0003427131D01*
X0002047277Y0003434202D01*
X0002047834Y0003433645D01*
X0002086138Y0003471950D01*
X0002082254Y0003482456D01*
X0002058249Y0003491374D01*
X0002032659Y0003490427D01*
X0002025961Y0003487653D01*
X0002019632Y0003497488D01*
X0002004805Y0003507620D01*
X0001987204Y0003511184D01*
X0001986484Y0003511184D01*
X0001984865Y0003513606D01*
X0001909865Y0003588606D01*
X0001895464Y0003598228D01*
X0001892875Y0003599958D01*
X0001881583Y0003602204D01*
X0002167972Y0003602204D01*
X0002167972Y0003602204D01*
G37*
X0002167972Y0003602204D02*
X0002210973Y0003593651D01*
X0002243306Y0003572047D01*
X0002264910Y0003539714D01*
X0002272815Y0003499977D01*
X0002263291Y0003503931D01*
X0002232512Y0003503958D01*
X0002204065Y0003492204D01*
X0002183957Y0003472132D01*
X0002178424Y0003477184D01*
X0002161990Y0003483991D01*
X0002152834Y0003479224D01*
X0002152834Y0003438646D01*
X0002148391Y0003434202D01*
X0002155462Y0003427131D01*
X0002159905Y0003431574D01*
X0002170468Y0003431574D01*
X0002170460Y0003421574D01*
X0002159905Y0003421574D01*
X0002155462Y0003426018D01*
X0002148391Y0003418946D01*
X0002152834Y0003414503D01*
X0002152834Y0003384901D01*
X0002152620Y0003385044D01*
X0002142834Y0003386991D01*
X0002142834Y0003414503D01*
X0002147277Y0003418946D01*
X0002140206Y0003426018D01*
X0002135763Y0003421574D01*
X0002112433Y0003421574D01*
X0002112063Y0003431574D01*
X0002142834Y0003431574D01*
X0002142834Y0003479224D01*
X0002133678Y0003483991D01*
X0002112783Y0003474203D01*
X0002101477Y0003461822D01*
X0002093209Y0003464879D01*
X0002054905Y0003426574D01*
X0002055462Y0003426018D01*
X0002048391Y0003418947D01*
X0002047834Y0003419503D01*
X0002047277Y0003418947D01*
X0002040206Y0003426018D01*
X0002040763Y0003426574D01*
X0002040206Y0003427131D01*
X0002047277Y0003434202D01*
X0002047834Y0003433645D01*
X0002086138Y0003471950D01*
X0002082254Y0003482456D01*
X0002058249Y0003491374D01*
X0002032659Y0003490427D01*
X0002025961Y0003487653D01*
X0002019632Y0003497488D01*
X0002004805Y0003507620D01*
X0001987204Y0003511184D01*
X0001986484Y0003511184D01*
X0001984865Y0003513606D01*
X0001909865Y0003588606D01*
X0001895464Y0003598228D01*
X0001892875Y0003599958D01*
X0001881583Y0003602204D01*
X0002167972Y0003602204D01*
G36*
X0002117834Y0002706574D02*
X0002117834Y0002707362D01*
X0002127834Y0002707362D01*
X0002127834Y0002706574D01*
X0002128622Y0002706574D01*
X0002128622Y0002696574D01*
X0002127834Y0002696574D01*
X0002127834Y0002695787D01*
X0002117834Y0002695787D01*
X0002117834Y0002696574D01*
X0002117047Y0002696574D01*
X0002117047Y0002706574D01*
X0002117834Y0002706574D01*
X0002117834Y0002706574D01*
G37*
X0002117834Y0002706574D02*
X0002117834Y0002707362D01*
X0002127834Y0002707362D01*
X0002127834Y0002706574D01*
X0002128622Y0002706574D01*
X0002128622Y0002696574D01*
X0002127834Y0002696574D01*
X0002127834Y0002695787D01*
X0002117834Y0002695787D01*
X0002117834Y0002696574D01*
X0002117047Y0002696574D01*
X0002117047Y0002706574D01*
X0002117834Y0002706574D01*
G36*
X0000193784Y0002954077D02*
X0000206560Y0002984844D01*
X0000206589Y0003018158D01*
X0000197893Y0003039204D01*
X0000278370Y0003039204D01*
X0000300337Y0003017199D01*
X0000331104Y0003004424D01*
X0000364418Y0003004395D01*
X0000395207Y0003017116D01*
X0000418784Y0003040652D01*
X0000430787Y0003069559D01*
X0000460803Y0003039543D01*
X0000477793Y0003028191D01*
X0000497834Y0003024204D01*
X0001731818Y0003024204D01*
X0001750349Y0003005641D01*
X0001781108Y0002992869D01*
X0001814414Y0002992840D01*
X0001845196Y0003005559D01*
X0001860970Y0003021305D01*
X0001871057Y0003010411D01*
X0001858288Y0003009875D01*
X0001840781Y0003002623D01*
X0001837379Y0002992525D01*
X0001872834Y0002957071D01*
X0001873391Y0002957627D01*
X0001880462Y0002950556D01*
X0001879905Y0002950000D01*
X0001880462Y0002949443D01*
X0001873391Y0002942372D01*
X0001872834Y0002942928D01*
X0001872277Y0002942372D01*
X0001865206Y0002949443D01*
X0001865763Y0002950000D01*
X0001830308Y0002985454D01*
X0001820210Y0002982053D01*
X0001811950Y0002959475D01*
X0001812959Y0002935454D01*
X0001816703Y0002926414D01*
X0001805857Y0002919435D01*
X0001795726Y0002904608D01*
X0001792162Y0002887007D01*
X0001792162Y0002843944D01*
X0001769527Y0002843944D01*
X0001764865Y0002848606D01*
X0001747875Y0002859958D01*
X0001745503Y0002860430D01*
X0001727834Y0002863944D01*
X0001693108Y0002863944D01*
X0001698700Y0002892060D01*
X0001698700Y0002911089D01*
X0001692925Y0002940122D01*
X0001676480Y0002964734D01*
X0001651867Y0002981180D01*
X0001622834Y0002986955D01*
X0001593801Y0002981180D01*
X0001572834Y0002967170D01*
X0001551867Y0002981180D01*
X0001522834Y0002986955D01*
X0001493801Y0002981180D01*
X0001472834Y0002967170D01*
X0001451867Y0002981180D01*
X0001422834Y0002986955D01*
X0001393801Y0002981180D01*
X0001372834Y0002967170D01*
X0001351867Y0002981180D01*
X0001322834Y0002986955D01*
X0001293801Y0002981180D01*
X0001272834Y0002967170D01*
X0001251867Y0002981180D01*
X0001222834Y0002986955D01*
X0001193801Y0002981180D01*
X0001172834Y0002967170D01*
X0001151867Y0002981180D01*
X0001122834Y0002986955D01*
X0001093801Y0002981180D01*
X0001072834Y0002967170D01*
X0001051867Y0002981180D01*
X0001022834Y0002986955D01*
X0001005053Y0002983418D01*
X0000994865Y0002993606D01*
X0000977875Y0003004958D01*
X0000973931Y0003005742D01*
X0000957834Y0003008944D01*
X0000677834Y0003008944D01*
X0000657793Y0003004958D01*
X0000656834Y0003004317D01*
X0000640803Y0002993606D01*
X0000634011Y0002986814D01*
X0000588834Y0002986814D01*
X0000572392Y0002983720D01*
X0000560832Y0002976282D01*
X0000552825Y0002981632D01*
X0000522834Y0002987597D01*
X0000492843Y0002981632D01*
X0000467418Y0002964643D01*
X0000459756Y0002953176D01*
X0000458347Y0002954753D01*
X0000437590Y0002964752D01*
X0000436969Y0002964856D01*
X0000427834Y0002960087D01*
X0000427834Y0002906574D01*
X0000428622Y0002906574D01*
X0000428622Y0002896574D01*
X0000427834Y0002896574D01*
X0000427834Y0002895787D01*
X0000417834Y0002895787D01*
X0000417834Y0002896574D01*
X0000370042Y0002896574D01*
X0000370042Y0002906574D01*
X0000417834Y0002906574D01*
X0000417834Y0002960087D01*
X0000408699Y0002964856D01*
X0000408079Y0002964752D01*
X0000387321Y0002954753D01*
X0000371970Y0002937571D01*
X0000364362Y0002915823D01*
X0000370042Y0002906574D01*
X0000370042Y0002896574D01*
X0000364362Y0002887326D01*
X0000371970Y0002865577D01*
X0000378790Y0002857944D01*
X0000314902Y0002857944D01*
X0000199748Y0002934713D01*
X0000193867Y0002948947D01*
X0000191261Y0002951558D01*
X0000193784Y0002954077D01*
X0000193784Y0002954077D01*
G37*
X0000193784Y0002954077D02*
X0000206560Y0002984844D01*
X0000206589Y0003018158D01*
X0000197893Y0003039204D01*
X0000278370Y0003039204D01*
X0000300337Y0003017199D01*
X0000331104Y0003004424D01*
X0000364418Y0003004395D01*
X0000395207Y0003017116D01*
X0000418784Y0003040652D01*
X0000430787Y0003069559D01*
X0000460803Y0003039543D01*
X0000477793Y0003028191D01*
X0000497834Y0003024204D01*
X0001731818Y0003024204D01*
X0001750349Y0003005641D01*
X0001781108Y0002992869D01*
X0001814414Y0002992840D01*
X0001845196Y0003005559D01*
X0001860970Y0003021305D01*
X0001871057Y0003010411D01*
X0001858288Y0003009875D01*
X0001840781Y0003002623D01*
X0001837379Y0002992525D01*
X0001872834Y0002957071D01*
X0001873391Y0002957627D01*
X0001880462Y0002950556D01*
X0001879905Y0002950000D01*
X0001880462Y0002949443D01*
X0001873391Y0002942372D01*
X0001872834Y0002942928D01*
X0001872277Y0002942372D01*
X0001865206Y0002949443D01*
X0001865763Y0002950000D01*
X0001830308Y0002985454D01*
X0001820210Y0002982053D01*
X0001811950Y0002959475D01*
X0001812959Y0002935454D01*
X0001816703Y0002926414D01*
X0001805857Y0002919435D01*
X0001795726Y0002904608D01*
X0001792162Y0002887007D01*
X0001792162Y0002843944D01*
X0001769527Y0002843944D01*
X0001764865Y0002848606D01*
X0001747875Y0002859958D01*
X0001745503Y0002860430D01*
X0001727834Y0002863944D01*
X0001693108Y0002863944D01*
X0001698700Y0002892060D01*
X0001698700Y0002911089D01*
X0001692925Y0002940122D01*
X0001676480Y0002964734D01*
X0001651867Y0002981180D01*
X0001622834Y0002986955D01*
X0001593801Y0002981180D01*
X0001572834Y0002967170D01*
X0001551867Y0002981180D01*
X0001522834Y0002986955D01*
X0001493801Y0002981180D01*
X0001472834Y0002967170D01*
X0001451867Y0002981180D01*
X0001422834Y0002986955D01*
X0001393801Y0002981180D01*
X0001372834Y0002967170D01*
X0001351867Y0002981180D01*
X0001322834Y0002986955D01*
X0001293801Y0002981180D01*
X0001272834Y0002967170D01*
X0001251867Y0002981180D01*
X0001222834Y0002986955D01*
X0001193801Y0002981180D01*
X0001172834Y0002967170D01*
X0001151867Y0002981180D01*
X0001122834Y0002986955D01*
X0001093801Y0002981180D01*
X0001072834Y0002967170D01*
X0001051867Y0002981180D01*
X0001022834Y0002986955D01*
X0001005053Y0002983418D01*
X0000994865Y0002993606D01*
X0000977875Y0003004958D01*
X0000973931Y0003005742D01*
X0000957834Y0003008944D01*
X0000677834Y0003008944D01*
X0000657793Y0003004958D01*
X0000656834Y0003004317D01*
X0000640803Y0002993606D01*
X0000634011Y0002986814D01*
X0000588834Y0002986814D01*
X0000572392Y0002983720D01*
X0000560832Y0002976282D01*
X0000552825Y0002981632D01*
X0000522834Y0002987597D01*
X0000492843Y0002981632D01*
X0000467418Y0002964643D01*
X0000459756Y0002953176D01*
X0000458347Y0002954753D01*
X0000437590Y0002964752D01*
X0000436969Y0002964856D01*
X0000427834Y0002960087D01*
X0000427834Y0002906574D01*
X0000428622Y0002906574D01*
X0000428622Y0002896574D01*
X0000427834Y0002896574D01*
X0000427834Y0002895787D01*
X0000417834Y0002895787D01*
X0000417834Y0002896574D01*
X0000370042Y0002896574D01*
X0000370042Y0002906574D01*
X0000417834Y0002906574D01*
X0000417834Y0002960087D01*
X0000408699Y0002964856D01*
X0000408079Y0002964752D01*
X0000387321Y0002954753D01*
X0000371970Y0002937571D01*
X0000364362Y0002915823D01*
X0000370042Y0002906574D01*
X0000370042Y0002896574D01*
X0000364362Y0002887326D01*
X0000371970Y0002865577D01*
X0000378790Y0002857944D01*
X0000314902Y0002857944D01*
X0000199748Y0002934713D01*
X0000193867Y0002948947D01*
X0000191261Y0002951558D01*
X0000193784Y0002954077D01*
G36*
X0001847277Y0003434202D02*
X0001847834Y0003433645D01*
X0001848391Y0003434202D01*
X0001855462Y0003427131D01*
X0001854905Y0003426574D01*
X0001855462Y0003426018D01*
X0001848391Y0003418947D01*
X0001847834Y0003419503D01*
X0001847277Y0003418947D01*
X0001840206Y0003426018D01*
X0001840763Y0003426574D01*
X0001840206Y0003427131D01*
X0001847277Y0003434202D01*
X0001847277Y0003434202D01*
G37*
X0001847277Y0003434202D02*
X0001847834Y0003433645D01*
X0001848391Y0003434202D01*
X0001855462Y0003427131D01*
X0001854905Y0003426574D01*
X0001855462Y0003426018D01*
X0001848391Y0003418947D01*
X0001847834Y0003419503D01*
X0001847277Y0003418947D01*
X0001840206Y0003426018D01*
X0001840763Y0003426574D01*
X0001840206Y0003427131D01*
X0001847277Y0003434202D01*
G36*
X0001018767Y0003504089D02*
X0001028517Y0003527568D01*
X0001034466Y0003525357D01*
X0001060057Y0003526304D01*
X0001079301Y0003534276D01*
X0001083186Y0003544782D01*
X0001044881Y0003583086D01*
X0001044325Y0003582529D01*
X0001037254Y0003589600D01*
X0001037810Y0003590157D01*
X0001037254Y0003590714D01*
X0001044325Y0003597785D01*
X0001044881Y0003597228D01*
X0001045438Y0003597785D01*
X0001052509Y0003590714D01*
X0001051952Y0003590157D01*
X0001090257Y0003551853D01*
X0001100763Y0003555737D01*
X0001109681Y0003579742D01*
X0001108850Y0003602204D01*
X0001236594Y0003602204D01*
X0001235987Y0003600572D01*
X0001236934Y0003574981D01*
X0001244905Y0003555737D01*
X0001255412Y0003551853D01*
X0001293716Y0003590157D01*
X0001293159Y0003590714D01*
X0001300230Y0003597785D01*
X0001300787Y0003597228D01*
X0001301344Y0003597785D01*
X0001308415Y0003590714D01*
X0001307858Y0003590157D01*
X0001308415Y0003589600D01*
X0001301344Y0003582529D01*
X0001300787Y0003583086D01*
X0001262483Y0003544782D01*
X0001266367Y0003534276D01*
X0001290372Y0003525357D01*
X0001315962Y0003526304D01*
X0001317438Y0003526915D01*
X0001326818Y0003504213D01*
X0001329436Y0003501590D01*
X0001326901Y0003499060D01*
X0001324691Y0003493738D01*
X0001317517Y0003496717D01*
X0001284203Y0003496746D01*
X0001253414Y0003484025D01*
X0001234718Y0003465362D01*
X0001110926Y0003465362D01*
X0001092378Y0003483942D01*
X0001061611Y0003496717D01*
X0001028297Y0003496746D01*
X0001021000Y0003493731D01*
X0001018850Y0003498936D01*
X0001016232Y0003501558D01*
X0001018767Y0003504089D01*
X0001018767Y0003504089D01*
G37*
X0001018767Y0003504089D02*
X0001028517Y0003527568D01*
X0001034466Y0003525357D01*
X0001060057Y0003526304D01*
X0001079301Y0003534276D01*
X0001083186Y0003544782D01*
X0001044881Y0003583086D01*
X0001044325Y0003582529D01*
X0001037254Y0003589600D01*
X0001037810Y0003590157D01*
X0001037254Y0003590714D01*
X0001044325Y0003597785D01*
X0001044881Y0003597228D01*
X0001045438Y0003597785D01*
X0001052509Y0003590714D01*
X0001051952Y0003590157D01*
X0001090257Y0003551853D01*
X0001100763Y0003555737D01*
X0001109681Y0003579742D01*
X0001108850Y0003602204D01*
X0001236594Y0003602204D01*
X0001235987Y0003600572D01*
X0001236934Y0003574981D01*
X0001244905Y0003555737D01*
X0001255412Y0003551853D01*
X0001293716Y0003590157D01*
X0001293159Y0003590714D01*
X0001300230Y0003597785D01*
X0001300787Y0003597228D01*
X0001301344Y0003597785D01*
X0001308415Y0003590714D01*
X0001307858Y0003590157D01*
X0001308415Y0003589600D01*
X0001301344Y0003582529D01*
X0001300787Y0003583086D01*
X0001262483Y0003544782D01*
X0001266367Y0003534276D01*
X0001290372Y0003525357D01*
X0001315962Y0003526304D01*
X0001317438Y0003526915D01*
X0001326818Y0003504213D01*
X0001329436Y0003501590D01*
X0001326901Y0003499060D01*
X0001324691Y0003493738D01*
X0001317517Y0003496717D01*
X0001284203Y0003496746D01*
X0001253414Y0003484025D01*
X0001234718Y0003465362D01*
X0001110926Y0003465362D01*
X0001092378Y0003483942D01*
X0001061611Y0003496717D01*
X0001028297Y0003496746D01*
X0001021000Y0003493731D01*
X0001018850Y0003498936D01*
X0001016232Y0003501558D01*
X0001018767Y0003504089D01*
G36*
X0000537204Y0003341965D02*
X0000553647Y0003345059D01*
X0000568748Y0003354776D01*
X0000576342Y0003365890D01*
X0000587419Y0003361775D01*
X0000613010Y0003362722D01*
X0000632254Y0003370693D01*
X0000636138Y0003381199D01*
X0000597834Y0003419503D01*
X0000597277Y0003418947D01*
X0000590206Y0003426018D01*
X0000590763Y0003426574D01*
X0000590206Y0003427131D01*
X0000597277Y0003434202D01*
X0000597834Y0003433645D01*
X0000598391Y0003434202D01*
X0000605462Y0003427131D01*
X0000604905Y0003426574D01*
X0000626502Y0003404977D01*
X0000626818Y0003404213D01*
X0000650349Y0003380641D01*
X0000681108Y0003367869D01*
X0000714414Y0003367840D01*
X0000745196Y0003380559D01*
X0000768767Y0003404089D01*
X0000781540Y0003434848D01*
X0000781569Y0003468154D01*
X0000768850Y0003498936D01*
X0000766232Y0003501558D01*
X0000768767Y0003504089D01*
X0000781540Y0003534848D01*
X0000781569Y0003568154D01*
X0000768850Y0003598936D01*
X0000765587Y0003602204D01*
X0000880051Y0003602204D01*
X0000876901Y0003599060D01*
X0000864129Y0003568300D01*
X0000864100Y0003534994D01*
X0000876818Y0003504213D01*
X0000879436Y0003501590D01*
X0000876901Y0003499060D01*
X0000864129Y0003468300D01*
X0000864100Y0003434994D01*
X0000876818Y0003404213D01*
X0000895472Y0003385527D01*
X0000893048Y0003385044D01*
X0000867797Y0003368172D01*
X0000850924Y0003342921D01*
X0000844999Y0003313135D01*
X0000844999Y0003290014D01*
X0000850924Y0003260228D01*
X0000853722Y0003256041D01*
X0000838847Y0003263836D01*
X0000836576Y0003264248D01*
X0000827834Y0003259445D01*
X0000827834Y0003206574D01*
X0000828622Y0003206574D01*
X0000828622Y0003196574D01*
X0000827834Y0003196574D01*
X0000827834Y0003143704D01*
X0000836576Y0003138901D01*
X0000838847Y0003139313D01*
X0000858441Y0003149581D01*
X0000860266Y0003151768D01*
X0000869189Y0003138414D01*
X0000883361Y0003128944D01*
X0000809092Y0003128944D01*
X0000809092Y0003138901D01*
X0000817834Y0003143704D01*
X0000817834Y0003196574D01*
X0000772461Y0003196574D01*
X0000772461Y0003206574D01*
X0000817834Y0003206574D01*
X0000817834Y0003259445D01*
X0000809092Y0003264248D01*
X0000806821Y0003263836D01*
X0000787227Y0003253568D01*
X0000773053Y0003236583D01*
X0000766459Y0003215467D01*
X0000772461Y0003206574D01*
X0000772461Y0003196574D01*
X0000766459Y0003187681D01*
X0000773053Y0003166565D01*
X0000787227Y0003149581D01*
X0000806821Y0003139313D01*
X0000809092Y0003138901D01*
X0000809092Y0003128944D01*
X0000660934Y0003128944D01*
X0000660934Y0003168970D01*
X0000670624Y0003171889D01*
X0000678226Y0003193040D01*
X0000677156Y0003215490D01*
X0000670624Y0003231260D01*
X0000660934Y0003234178D01*
X0000628330Y0003201574D01*
X0000660934Y0003168970D01*
X0000660934Y0003128944D01*
X0000572345Y0003128944D01*
X0000585874Y0003137650D01*
X0000594985Y0003150984D01*
X0000612725Y0003144607D01*
X0000635175Y0003145678D01*
X0000650945Y0003152210D01*
X0000653863Y0003161899D01*
X0000621259Y0003194503D01*
X0000620703Y0003193946D01*
X0000613631Y0003201018D01*
X0000614188Y0003201574D01*
X0000613631Y0003202131D01*
X0000620703Y0003209202D01*
X0000621259Y0003208645D01*
X0000653863Y0003241249D01*
X0000650945Y0003250939D01*
X0000629794Y0003258541D01*
X0000607344Y0003257471D01*
X0000594720Y0003252242D01*
X0000586758Y0003264614D01*
X0000571931Y0003274746D01*
X0000554330Y0003278310D01*
X0000491338Y0003278310D01*
X0000485204Y0003277156D01*
X0000485204Y0003311574D01*
X0000481218Y0003331616D01*
X0000474302Y0003341965D01*
X0000537204Y0003341965D01*
X0000537204Y0003341965D01*
G37*
X0000537204Y0003341965D02*
X0000553647Y0003345059D01*
X0000568748Y0003354776D01*
X0000576342Y0003365890D01*
X0000587419Y0003361775D01*
X0000613010Y0003362722D01*
X0000632254Y0003370693D01*
X0000636138Y0003381199D01*
X0000597834Y0003419503D01*
X0000597277Y0003418947D01*
X0000590206Y0003426018D01*
X0000590763Y0003426574D01*
X0000590206Y0003427131D01*
X0000597277Y0003434202D01*
X0000597834Y0003433645D01*
X0000598391Y0003434202D01*
X0000605462Y0003427131D01*
X0000604905Y0003426574D01*
X0000626502Y0003404977D01*
X0000626818Y0003404213D01*
X0000650349Y0003380641D01*
X0000681108Y0003367869D01*
X0000714414Y0003367840D01*
X0000745196Y0003380559D01*
X0000768767Y0003404089D01*
X0000781540Y0003434848D01*
X0000781569Y0003468154D01*
X0000768850Y0003498936D01*
X0000766232Y0003501558D01*
X0000768767Y0003504089D01*
X0000781540Y0003534848D01*
X0000781569Y0003568154D01*
X0000768850Y0003598936D01*
X0000765587Y0003602204D01*
X0000880051Y0003602204D01*
X0000876901Y0003599060D01*
X0000864129Y0003568300D01*
X0000864100Y0003534994D01*
X0000876818Y0003504213D01*
X0000879436Y0003501590D01*
X0000876901Y0003499060D01*
X0000864129Y0003468300D01*
X0000864100Y0003434994D01*
X0000876818Y0003404213D01*
X0000895472Y0003385527D01*
X0000893048Y0003385044D01*
X0000867797Y0003368172D01*
X0000850924Y0003342921D01*
X0000844999Y0003313135D01*
X0000844999Y0003290014D01*
X0000850924Y0003260228D01*
X0000853722Y0003256041D01*
X0000838847Y0003263836D01*
X0000836576Y0003264248D01*
X0000827834Y0003259445D01*
X0000827834Y0003206574D01*
X0000828622Y0003206574D01*
X0000828622Y0003196574D01*
X0000827834Y0003196574D01*
X0000827834Y0003143704D01*
X0000836576Y0003138901D01*
X0000838847Y0003139313D01*
X0000858441Y0003149581D01*
X0000860266Y0003151768D01*
X0000869189Y0003138414D01*
X0000883361Y0003128944D01*
X0000809092Y0003128944D01*
X0000809092Y0003138901D01*
X0000817834Y0003143704D01*
X0000817834Y0003196574D01*
X0000772461Y0003196574D01*
X0000772461Y0003206574D01*
X0000817834Y0003206574D01*
X0000817834Y0003259445D01*
X0000809092Y0003264248D01*
X0000806821Y0003263836D01*
X0000787227Y0003253568D01*
X0000773053Y0003236583D01*
X0000766459Y0003215467D01*
X0000772461Y0003206574D01*
X0000772461Y0003196574D01*
X0000766459Y0003187681D01*
X0000773053Y0003166565D01*
X0000787227Y0003149581D01*
X0000806821Y0003139313D01*
X0000809092Y0003138901D01*
X0000809092Y0003128944D01*
X0000660934Y0003128944D01*
X0000660934Y0003168970D01*
X0000670624Y0003171889D01*
X0000678226Y0003193040D01*
X0000677156Y0003215490D01*
X0000670624Y0003231260D01*
X0000660934Y0003234178D01*
X0000628330Y0003201574D01*
X0000660934Y0003168970D01*
X0000660934Y0003128944D01*
X0000572345Y0003128944D01*
X0000585874Y0003137650D01*
X0000594985Y0003150984D01*
X0000612725Y0003144607D01*
X0000635175Y0003145678D01*
X0000650945Y0003152210D01*
X0000653863Y0003161899D01*
X0000621259Y0003194503D01*
X0000620703Y0003193946D01*
X0000613631Y0003201018D01*
X0000614188Y0003201574D01*
X0000613631Y0003202131D01*
X0000620703Y0003209202D01*
X0000621259Y0003208645D01*
X0000653863Y0003241249D01*
X0000650945Y0003250939D01*
X0000629794Y0003258541D01*
X0000607344Y0003257471D01*
X0000594720Y0003252242D01*
X0000586758Y0003264614D01*
X0000571931Y0003274746D01*
X0000554330Y0003278310D01*
X0000491338Y0003278310D01*
X0000485204Y0003277156D01*
X0000485204Y0003311574D01*
X0000481218Y0003331616D01*
X0000474302Y0003341965D01*
X0000537204Y0003341965D01*
G36*
X0000083678Y0003369157D02*
X0000092834Y0003373925D01*
X0000092834Y0003414503D01*
X0000097277Y0003418946D01*
X0000090206Y0003426018D01*
X0000085763Y0003421574D01*
X0000072204Y0003421574D01*
X0000072204Y0003431574D01*
X0000085763Y0003431574D01*
X0000090206Y0003427131D01*
X0000097277Y0003434202D01*
X0000092834Y0003438646D01*
X0000092834Y0003479224D01*
X0000083678Y0003483991D01*
X0000072204Y0003478617D01*
X0000072204Y0003496712D01*
X0000080758Y0003539714D01*
X0000102362Y0003572047D01*
X0000134695Y0003593651D01*
X0000177697Y0003602204D01*
X0000630051Y0003602204D01*
X0000626901Y0003599060D01*
X0000614129Y0003568300D01*
X0000614100Y0003534994D01*
X0000626818Y0003504213D01*
X0000629436Y0003501590D01*
X0000626901Y0003499060D01*
X0000621643Y0003486398D01*
X0000608249Y0003491374D01*
X0000582659Y0003490427D01*
X0000575961Y0003487653D01*
X0000569632Y0003497488D01*
X0000554805Y0003507620D01*
X0000537204Y0003511184D01*
X0000458464Y0003511184D01*
X0000442021Y0003508090D01*
X0000426920Y0003498372D01*
X0000419326Y0003487259D01*
X0000408249Y0003491374D01*
X0000382659Y0003490427D01*
X0000375961Y0003487653D01*
X0000369632Y0003497488D01*
X0000354805Y0003507620D01*
X0000337204Y0003511184D01*
X0000258464Y0003511184D01*
X0000242021Y0003508090D01*
X0000226920Y0003498372D01*
X0000226867Y0003498294D01*
X0000213291Y0003503931D01*
X0000182512Y0003503958D01*
X0000154065Y0003492204D01*
X0000133957Y0003472132D01*
X0000128424Y0003477184D01*
X0000111990Y0003483991D01*
X0000102834Y0003479224D01*
X0000102834Y0003438646D01*
X0000098391Y0003434202D01*
X0000105462Y0003427131D01*
X0000109905Y0003431574D01*
X0000120468Y0003431574D01*
X0000120460Y0003421574D01*
X0000109905Y0003421574D01*
X0000105462Y0003426018D01*
X0000098391Y0003418946D01*
X0000102834Y0003414503D01*
X0000102834Y0003373925D01*
X0000111990Y0003369157D01*
X0000132885Y0003378945D01*
X0000134401Y0003380605D01*
X0000153950Y0003361021D01*
X0000156567Y0003359935D01*
X0000151377Y0003359940D01*
X0000111541Y0003343480D01*
X0000081036Y0003313028D01*
X0000072204Y0003291758D01*
X0000072204Y0003373910D01*
X0000083678Y0003369157D01*
X0000083678Y0003369157D01*
G37*
X0000083678Y0003369157D02*
X0000092834Y0003373925D01*
X0000092834Y0003414503D01*
X0000097277Y0003418946D01*
X0000090206Y0003426018D01*
X0000085763Y0003421574D01*
X0000072204Y0003421574D01*
X0000072204Y0003431574D01*
X0000085763Y0003431574D01*
X0000090206Y0003427131D01*
X0000097277Y0003434202D01*
X0000092834Y0003438646D01*
X0000092834Y0003479224D01*
X0000083678Y0003483991D01*
X0000072204Y0003478617D01*
X0000072204Y0003496712D01*
X0000080758Y0003539714D01*
X0000102362Y0003572047D01*
X0000134695Y0003593651D01*
X0000177697Y0003602204D01*
X0000630051Y0003602204D01*
X0000626901Y0003599060D01*
X0000614129Y0003568300D01*
X0000614100Y0003534994D01*
X0000626818Y0003504213D01*
X0000629436Y0003501590D01*
X0000626901Y0003499060D01*
X0000621643Y0003486398D01*
X0000608249Y0003491374D01*
X0000582659Y0003490427D01*
X0000575961Y0003487653D01*
X0000569632Y0003497488D01*
X0000554805Y0003507620D01*
X0000537204Y0003511184D01*
X0000458464Y0003511184D01*
X0000442021Y0003508090D01*
X0000426920Y0003498372D01*
X0000419326Y0003487259D01*
X0000408249Y0003491374D01*
X0000382659Y0003490427D01*
X0000375961Y0003487653D01*
X0000369632Y0003497488D01*
X0000354805Y0003507620D01*
X0000337204Y0003511184D01*
X0000258464Y0003511184D01*
X0000242021Y0003508090D01*
X0000226920Y0003498372D01*
X0000226867Y0003498294D01*
X0000213291Y0003503931D01*
X0000182512Y0003503958D01*
X0000154065Y0003492204D01*
X0000133957Y0003472132D01*
X0000128424Y0003477184D01*
X0000111990Y0003483991D01*
X0000102834Y0003479224D01*
X0000102834Y0003438646D01*
X0000098391Y0003434202D01*
X0000105462Y0003427131D01*
X0000109905Y0003431574D01*
X0000120468Y0003431574D01*
X0000120460Y0003421574D01*
X0000109905Y0003421574D01*
X0000105462Y0003426018D01*
X0000098391Y0003418946D01*
X0000102834Y0003414503D01*
X0000102834Y0003373925D01*
X0000111990Y0003369157D01*
X0000132885Y0003378945D01*
X0000134401Y0003380605D01*
X0000153950Y0003361021D01*
X0000156567Y0003359935D01*
X0000151377Y0003359940D01*
X0000111541Y0003343480D01*
X0000081036Y0003313028D01*
X0000072204Y0003291758D01*
X0000072204Y0003373910D01*
X0000083678Y0003369157D01*
G36*
X0000397277Y0003434202D02*
X0000397834Y0003433645D01*
X0000398391Y0003434202D01*
X0000405462Y0003427131D01*
X0000404905Y0003426574D01*
X0000405462Y0003426018D01*
X0000398391Y0003418947D01*
X0000397834Y0003419503D01*
X0000397277Y0003418947D01*
X0000390206Y0003426018D01*
X0000390763Y0003426574D01*
X0000390206Y0003427131D01*
X0000397277Y0003434202D01*
X0000397277Y0003434202D01*
G37*
X0000397277Y0003434202D02*
X0000397834Y0003433645D01*
X0000398391Y0003434202D01*
X0000405462Y0003427131D01*
X0000404905Y0003426574D01*
X0000405462Y0003426018D01*
X0000398391Y0003418947D01*
X0000397834Y0003419503D01*
X0000397277Y0003418947D01*
X0000390206Y0003426018D01*
X0000390763Y0003426574D01*
X0000390206Y0003427131D01*
X0000397277Y0003434202D01*
G36*
X0000234127Y0003159669D02*
X0000264632Y0003190121D01*
X0000281162Y0003229928D01*
X0000281171Y0003240863D01*
X0000292875Y0003243191D01*
X0000299666Y0003247728D01*
X0000302459Y0003246695D01*
X0000340763Y0003285000D01*
X0000340206Y0003285556D01*
X0000347277Y0003292627D01*
X0000347834Y0003292071D01*
X0000348391Y0003292627D01*
X0000355462Y0003285556D01*
X0000354905Y0003285000D01*
X0000355462Y0003284443D01*
X0000348391Y0003277372D01*
X0000347834Y0003277928D01*
X0000309530Y0003239624D01*
X0000313414Y0003229118D01*
X0000337419Y0003220200D01*
X0000363010Y0003221147D01*
X0000380464Y0003228377D01*
X0000380464Y0003165273D01*
X0000364564Y0003171875D01*
X0000331250Y0003171904D01*
X0000300461Y0003159182D01*
X0000285066Y0003143814D01*
X0000284409Y0003143944D01*
X0000196071Y0003143944D01*
X0000234127Y0003159669D01*
X0000234127Y0003159669D01*
G37*
X0000234127Y0003159669D02*
X0000264632Y0003190121D01*
X0000281162Y0003229928D01*
X0000281171Y0003240863D01*
X0000292875Y0003243191D01*
X0000299666Y0003247728D01*
X0000302459Y0003246695D01*
X0000340763Y0003285000D01*
X0000340206Y0003285556D01*
X0000347277Y0003292627D01*
X0000347834Y0003292071D01*
X0000348391Y0003292627D01*
X0000355462Y0003285556D01*
X0000354905Y0003285000D01*
X0000355462Y0003284443D01*
X0000348391Y0003277372D01*
X0000347834Y0003277928D01*
X0000309530Y0003239624D01*
X0000313414Y0003229118D01*
X0000337419Y0003220200D01*
X0000363010Y0003221147D01*
X0000380464Y0003228377D01*
X0000380464Y0003165273D01*
X0000364564Y0003171875D01*
X0000331250Y0003171904D01*
X0000300461Y0003159182D01*
X0000285066Y0003143814D01*
X0000284409Y0003143944D01*
X0000196071Y0003143944D01*
X0000234127Y0003159669D01*
G36*
X0000347834Y0002646574D02*
X0000347834Y0002647362D01*
X0000357834Y0002647362D01*
X0000357834Y0002646574D01*
X0000358622Y0002646574D01*
X0000358622Y0002636574D01*
X0000357834Y0002636574D01*
X0000357834Y0002635787D01*
X0000347834Y0002635787D01*
X0000347834Y0002636574D01*
X0000347047Y0002636574D01*
X0000347047Y0002646574D01*
X0000347834Y0002646574D01*
X0000347834Y0002646574D01*
G37*
X0000347834Y0002646574D02*
X0000347834Y0002647362D01*
X0000357834Y0002647362D01*
X0000357834Y0002646574D01*
X0000358622Y0002646574D01*
X0000358622Y0002636574D01*
X0000357834Y0002636574D01*
X0000357834Y0002635787D01*
X0000347834Y0002635787D01*
X0000347834Y0002636574D01*
X0000347047Y0002636574D01*
X0000347047Y0002646574D01*
X0000347834Y0002646574D01*
G04 next file*
G04 #@! TF.FileFunction,Copper,L1,Top,Signal*
G04 Gerber Fmt 4.6, Leading zero omitted, Abs format (unit mm)*
G04 Created by KiCad (PCBNEW 4.0.6) date 02/13/20 12:12:51*
G01*
G04 APERTURE LIST*
G04 APERTURE END LIST*
D60*
D61*
X-0003461417Y0004650000D02*
X0001438582Y0000250000D03*
D62*
X0001438582Y0000348425D03*
X0001438582Y0000446850D03*
X0001438582Y0000545275D03*
X0001438582Y0000643700D03*
D63*
X0001838582Y0001700000D03*
D64*
X0001838582Y0001800000D03*
X0001838582Y0001900000D03*
D65*
X0001638582Y0000100000D03*
X0001638582Y0000200000D03*
X0001638582Y0000300000D03*
X0001638582Y0000400000D03*
X0001638582Y0000500000D03*
X0001638582Y0000600000D03*
X0001638582Y0000700000D03*
X0001638582Y0000800000D03*
X0001638582Y0000900000D03*
X0001638582Y0001000000D03*
X0001638582Y0001100000D03*
X0001638582Y0001200000D03*
X0001638582Y0001300000D03*
X0001638582Y0001400000D03*
D62*
X0002025157Y0001975000D03*
X0002222007Y0001975000D03*
X0002363582Y0000275000D03*
D61*
X0002363582Y0000375000D03*
D66*
X0002363582Y0002125000D03*
X0002363582Y0002225000D03*
D67*
X0001788582Y0000450000D03*
D68*
X0001887007Y0000450000D03*
D61*
X0001763582Y0000275000D03*
D62*
X0001763582Y0000176574D03*
D69*
X0002138582Y0000700000D03*
X0002138582Y0000800000D03*
X0002138582Y0000900000D03*
X0002138582Y0001000000D03*
X0002138582Y0001100000D03*
X0002138582Y0001200000D03*
X0002138582Y0001300000D03*
X0002138582Y0001400000D03*
X0002138582Y0001500000D03*
X0001838582Y0001500000D03*
X0001838582Y0001400000D03*
X0001838582Y0001300000D03*
X0001838582Y0001200000D03*
X0001838582Y0001100000D03*
X0001838582Y0001000000D03*
X0001838582Y0000900000D03*
X0001838582Y0000800000D03*
X0001838582Y0000700000D03*
D70*
X0002138582Y0001701574D03*
D71*
X0002138582Y0001800000D03*
D61*
X0001738582Y0002200000D03*
D62*
X0001838582Y0002200000D03*
X0001938582Y0002200000D03*
D72*
X0001578582Y0001832204D03*
D73*
X0001578582Y0001970000D03*
D72*
X0001578582Y0001542204D03*
D73*
X0001578582Y0001680000D03*
D62*
X0002350000Y0001277952D03*
X0002527165Y0001277952D03*
X0002350000Y0001022047D03*
X0002527165Y0001022047D03*
D74*
X0001748582Y0000967716D03*
X0001748582Y0000932283D03*
D66*
X0002363582Y0000075000D03*
X0002363582Y0000175000D03*
D62*
X0002363582Y0000475000D03*
D61*
X0002363582Y0000575000D03*
D62*
X0002363582Y0001925000D03*
D61*
X0002363582Y0002025000D03*
D62*
X0002363582Y0001725000D03*
D61*
X0002363582Y0001825000D03*
D75*
X0002013582Y0000275000D03*
X0002013582Y0000525000D03*
X0002113582Y0000275000D03*
X0002113582Y0000525000D03*
X0002488582Y0001375000D03*
X0002488582Y0001625000D03*
X0002388582Y0001375000D03*
X0002388582Y0001625000D03*
X0002488582Y0000925000D03*
X0002488582Y0000675000D03*
X0002388582Y0000925000D03*
X0002388582Y0000675000D03*
D65*
X0002238582Y0000100000D03*
X0002238582Y0000200000D03*
X0002238582Y0000300000D03*
X0002238582Y0000400000D03*
X0002238582Y0000500000D03*
X0002238582Y0000600000D03*
X0002238582Y0000700000D03*
X0002238582Y0000800000D03*
X0002238582Y0000900000D03*
X0002238582Y0001000000D03*
X0002238582Y0001100000D03*
X0002238582Y0001200000D03*
X0002238582Y0001300000D03*
X0002238582Y0001400000D03*
D61*
X0001438582Y0000950000D03*
D62*
X0001438582Y0001048425D03*
X0001438582Y0001146850D03*
X0001438582Y0001245275D03*
X0001438582Y0001343700D03*
D76*
X0001418582Y0001430000D03*
D77*
X0002231082Y0002052500D02*
X0002228582Y0002050000D01*
D78*
X0002363582Y0001725000D02*
X0002328582Y0001725000D01*
X0002328582Y0001725000D02*
X0002305157Y0001701574D01*
X0002305157Y0001701574D02*
X0002138582Y0001701574D01*
X0002363582Y0000175000D02*
X0002418582Y0000175000D01*
X0002553582Y0000995629D02*
X0002527165Y0001022047D01*
X0002553582Y0000310000D02*
X0002553582Y0000995629D01*
X0002418582Y0000175000D02*
X0002553582Y0000310000D01*
X0002527165Y0001277952D02*
X0002527165Y0001022047D01*
X0002363582Y0001725000D02*
X0002503582Y0001725000D01*
X0002558582Y0001309370D02*
X0002527165Y0001277952D01*
X0002558582Y0001670000D02*
X0002558582Y0001309370D01*
X0002503582Y0001725000D02*
X0002558582Y0001670000D01*
X0002363582Y0001925000D02*
X0002413582Y0001925000D01*
X0002418582Y0001725000D02*
X0002363582Y0001725000D01*
X0002463582Y0001770000D02*
X0002418582Y0001725000D01*
X0002463582Y0001875000D02*
X0002463582Y0001770000D01*
X0002413582Y0001925000D02*
X0002463582Y0001875000D01*
X0002138582Y0001500000D02*
X0002138582Y0001701574D01*
X0002363582Y0001925000D02*
X0002433582Y0001925000D01*
X0002403582Y0002225000D02*
X0002363582Y0002225000D01*
X0002463582Y0002165000D02*
X0002403582Y0002225000D01*
X0002463582Y0001955000D02*
X0002463582Y0002165000D01*
X0002433582Y0001925000D02*
X0002463582Y0001955000D01*
X0001763582Y0000176574D02*
X0001763582Y0000100000D01*
X0002303582Y0000115000D02*
X0002363582Y0000175000D01*
X0002303582Y0000050000D02*
X0002303582Y0000115000D01*
X0002283582Y0000030000D02*
X0002303582Y0000050000D01*
X0001833582Y0000030000D02*
X0002283582Y0000030000D01*
X0001763582Y0000100000D02*
X0001833582Y0000030000D01*
X0001763582Y0000176574D02*
X0001722007Y0000176574D01*
X0001722007Y0000176574D02*
X0001698582Y0000200000D01*
X0001698582Y0000200000D02*
X0001638582Y0000200000D01*
X0001887007Y0000450000D02*
X0001887007Y0000548425D01*
X0001888582Y0001900000D02*
X0001838582Y0001900000D01*
X0001938582Y0001850000D02*
X0001888582Y0001900000D01*
X0001938582Y0000600000D02*
X0001938582Y0001850000D01*
X0001887007Y0000548425D02*
X0001938582Y0000600000D01*
D77*
X0002524212Y0001275000D02*
X0002527165Y0001277952D01*
X0002363582Y0002225000D02*
X0002353582Y0002225000D01*
X0002338582Y0002225000D02*
X0002363582Y0002225000D01*
X0002138582Y0000350000D02*
X0002078582Y0000350000D01*
X0002301082Y0000637500D02*
X0002313582Y0000650000D01*
X0002313582Y0000650000D02*
X0002313582Y0000710000D01*
X0002313582Y0000710000D02*
X0002388582Y0000785000D01*
X0002388582Y0000925000D02*
X0002388582Y0000785000D01*
X0002278582Y0000360000D02*
X0002268582Y0000350000D01*
X0002278582Y0000360000D02*
X0002301082Y0000387500D01*
X0002268582Y0000350000D02*
X0002138582Y0000350000D01*
X0002301082Y0000387500D02*
X0002301082Y0000637500D01*
X0001588582Y0000350000D02*
X0001578582Y0000360000D01*
X0001688582Y0000350000D02*
X0001588582Y0000350000D01*
X0001708582Y0000330000D02*
X0001688582Y0000350000D01*
X0002058582Y0000330000D02*
X0001708582Y0000330000D01*
X0002078582Y0000350000D02*
X0002058582Y0000330000D01*
X0001578582Y0000360000D02*
X0001578582Y0000575000D01*
X0001603582Y0000600000D02*
X0001578582Y0000575000D01*
X0001603582Y0000600000D02*
X0001638582Y0000600000D01*
X0002350000Y0001277952D02*
X0002350000Y0001022047D01*
D78*
X0001578582Y0001832204D02*
X0001578582Y0001680000D01*
X0001578582Y0001542204D02*
X0001605787Y0001542204D01*
X0001605787Y0001542204D02*
X0001688582Y0001625000D01*
X0001688582Y0001625000D02*
X0001688582Y0002100000D01*
X0001688582Y0002100000D02*
X0001738582Y0002200000D01*
D77*
X0002028582Y0002038425D02*
X0002025157Y0001975000D01*
X0002028582Y0002220000D02*
X0002028582Y0002038425D01*
X0001983582Y0002265000D02*
X0002028582Y0002220000D01*
X0001683582Y0002265000D02*
X0001983582Y0002265000D01*
X0001633582Y0002215000D02*
X0001683582Y0002265000D01*
X0001633582Y0002125000D02*
X0001633582Y0002215000D01*
X0001578582Y0002070000D02*
X0001633582Y0002125000D01*
X0001538582Y0002070000D02*
X0001578582Y0002070000D01*
X0001443582Y0001975000D02*
X0001538582Y0002070000D01*
X0001443582Y0001455000D02*
X0001443582Y0001975000D01*
X0001418582Y0001430000D02*
X0001443582Y0001455000D01*
X0002173582Y0000515000D02*
X0002173582Y0000485000D01*
X0002013582Y0000355000D02*
X0001723582Y0000355000D01*
X0001723582Y0000355000D02*
X0001698582Y0000380000D01*
X0001698582Y0000380000D02*
X0001698582Y0000395000D01*
X0002173582Y0000550000D02*
X0002173582Y0000515000D01*
X0001838582Y0001700000D02*
X0001893582Y0001645000D01*
X0001893582Y0001365000D02*
X0001893582Y0001645000D01*
X0001878582Y0001350000D02*
X0001893582Y0001365000D01*
X0001598582Y0001350000D02*
X0001878582Y0001350000D01*
X0001563582Y0001315000D02*
X0001598582Y0001350000D01*
X0001563582Y0001090000D02*
X0001563582Y0001315000D01*
X0001603582Y0001050000D02*
X0001563582Y0001090000D01*
X0001678582Y0001050000D02*
X0001603582Y0001050000D01*
X0001698582Y0001030000D02*
X0001678582Y0001050000D01*
X0001698582Y0000395000D02*
X0001698582Y0001030000D01*
X0002173582Y0000550000D02*
X0002223582Y0000600000D01*
X0002023582Y0000365000D02*
X0002013582Y0000355000D01*
X0002093582Y0000435000D02*
X0002023582Y0000365000D01*
X0002123582Y0000435000D02*
X0002093582Y0000435000D01*
X0002173582Y0000485000D02*
X0002123582Y0000435000D01*
X0002238582Y0000600000D02*
X0002223582Y0000600000D01*
X0002363582Y0000375000D02*
X0002413582Y0000375000D01*
X0002488582Y0000450000D02*
X0002488582Y0000675000D01*
X0002413582Y0000375000D02*
X0002488582Y0000450000D01*
X0002363582Y0000575000D02*
X0002363582Y0000650000D01*
X0002363582Y0000650000D02*
X0002388582Y0000675000D01*
X0001968582Y0000400000D02*
X0001948582Y0000380000D01*
X0001728582Y0000405000D02*
X0001728582Y0000575000D01*
X0001728582Y0000575000D02*
X0001748582Y0000595000D01*
X0001748582Y0000600000D02*
X0001748582Y0000595000D01*
X0002103582Y0000525000D02*
X0001968582Y0000400000D01*
X0001748582Y0000600000D02*
X0001748582Y0000932283D01*
X0001753582Y0000380000D02*
X0001728582Y0000405000D01*
X0001948582Y0000380000D02*
X0001753582Y0000380000D01*
X0002113582Y0000525000D02*
X0002113582Y0000575000D01*
X0002113582Y0000575000D02*
X0002238582Y0000700000D01*
X0002113582Y0000525000D02*
X0002113582Y0000540000D01*
X0002113582Y0000525000D02*
X0002103582Y0000525000D01*
X0002213582Y0001890000D02*
X0002248582Y0001890000D01*
X0002078582Y0001890000D02*
X0002013582Y0001825000D01*
X0002208582Y0001890000D02*
X0002078582Y0001890000D01*
X0002013582Y0000525000D02*
X0002013582Y0001825000D01*
X0002208582Y0001890000D02*
X0002213582Y0001890000D01*
X0002288582Y0002070000D02*
X0002343582Y0002125000D01*
X0002288582Y0001930000D02*
X0002288582Y0002070000D01*
X0002248582Y0001890000D02*
X0002288582Y0001930000D01*
X0002343582Y0002125000D02*
X0002363582Y0002125000D01*
X0002013582Y0000525000D02*
X0002013582Y0000690000D01*
X0002188582Y0000750000D02*
X0002238582Y0000800000D01*
X0002073582Y0000750000D02*
X0002188582Y0000750000D01*
X0002013582Y0000690000D02*
X0002073582Y0000750000D01*
X0002013582Y0000525000D02*
X0002013582Y0000550000D01*
D78*
X0001438582Y0000643700D02*
X0001442283Y0000643700D01*
X0001442283Y0000643700D02*
X0001568582Y0000770000D01*
X0001438582Y0001343700D02*
X0001513582Y0001268700D01*
X0001513582Y0001005000D02*
X0001513582Y0001268700D01*
X0001568582Y0000950000D02*
X0001513582Y0001005000D01*
X0001568582Y0000770000D02*
X0001568582Y0000950000D01*
X0001638582Y0000100000D02*
X0001598582Y0000100000D01*
X0001598582Y0000100000D02*
X0001568582Y0000130000D01*
X0001469881Y0000643700D02*
X0001538582Y0000575000D01*
X0001538582Y0000310000D02*
X0001538582Y0000575000D01*
X0001568582Y0000280000D02*
X0001538582Y0000310000D01*
X0001568582Y0000130000D02*
X0001568582Y0000280000D01*
X0001438582Y0000643700D02*
X0001469881Y0000643700D01*
X0001438582Y0000643700D02*
X0001444881Y0000643700D01*
X0001438582Y0001343700D02*
X0001438582Y0001350000D01*
X0001438582Y0001350000D02*
X0001513582Y0001425000D01*
X0001813582Y0001475000D02*
X0001838582Y0001500000D01*
X0001613582Y0001475000D02*
X0001813582Y0001475000D01*
X0001563582Y0001425000D02*
X0001613582Y0001475000D01*
X0001513582Y0001425000D02*
X0001563582Y0001425000D01*
X0001838582Y0001800000D02*
X0001788582Y0001800000D01*
X0001788582Y0001800000D02*
X0001738582Y0001750000D01*
X0001838582Y0002200000D02*
X0001838582Y0002175000D01*
X0001838582Y0002175000D02*
X0001738582Y0002025000D01*
X0001738582Y0002025000D02*
X0001738582Y0001750000D01*
X0001738582Y0001750000D02*
X0001738582Y0001600000D01*
X0001738582Y0001600000D02*
X0001838582Y0001500000D01*
D77*
X0002113582Y0000275000D02*
X0002113582Y0000230000D01*
X0002143582Y0000200000D02*
X0002238582Y0000200000D01*
X0002113582Y0000230000D02*
X0002143582Y0000200000D01*
X0002113582Y0000275000D02*
X0002013582Y0000275000D01*
X0001748582Y0000967716D02*
X0001748582Y0001030000D01*
X0001678582Y0001100000D02*
X0001638582Y0001100000D01*
X0001748582Y0001030000D02*
X0001678582Y0001100000D01*
D79*
G36*
X0001929848Y0000258420D02*
X0001929875Y0000258354D01*
X0001917125Y0000258365D01*
X0001877289Y0000241905D01*
X0001846784Y0000211453D01*
X0001830255Y0000171645D01*
X0001830217Y0000128543D01*
X0001846677Y0000088706D01*
X0001877129Y0000058201D01*
X0001898398Y0000049370D01*
X0001708125Y0000049370D01*
X0001722052Y0000070213D01*
X0001727977Y0000100000D01*
X0001722353Y0000128274D01*
X0001725278Y0000131199D01*
X0001729162Y0000120693D01*
X0001753167Y0000111775D01*
X0001778758Y0000112722D01*
X0001798002Y0000120693D01*
X0001801886Y0000131199D01*
X0001763582Y0000169503D01*
X0001763025Y0000168946D01*
X0001755954Y0000176017D01*
X0001756511Y0000176574D01*
X0001755954Y0000177131D01*
X0001763025Y0000184202D01*
X0001763582Y0000183645D01*
X0001764139Y0000184202D01*
X0001771210Y0000177131D01*
X0001770653Y0000176574D01*
X0001808957Y0000138270D01*
X0001819464Y0000142154D01*
X0001828382Y0000166159D01*
X0001827435Y0000191750D01*
X0001825176Y0000197204D01*
X0001834496Y0000203202D01*
X0001844627Y0000218029D01*
X0001848192Y0000235629D01*
X0001848192Y0000277629D01*
X0001929864Y0000277629D01*
X0001929848Y0000258420D01*
X0001929848Y0000258420D01*
G37*
X0001929848Y0000258420D02*
X0001929875Y0000258354D01*
X0001917125Y0000258365D01*
X0001877289Y0000241905D01*
X0001846784Y0000211453D01*
X0001830255Y0000171645D01*
X0001830217Y0000128543D01*
X0001846677Y0000088706D01*
X0001877129Y0000058201D01*
X0001898398Y0000049370D01*
X0001708125Y0000049370D01*
X0001722052Y0000070213D01*
X0001727977Y0000100000D01*
X0001722353Y0000128274D01*
X0001725278Y0000131199D01*
X0001729162Y0000120693D01*
X0001753167Y0000111775D01*
X0001778758Y0000112722D01*
X0001798002Y0000120693D01*
X0001801886Y0000131199D01*
X0001763582Y0000169503D01*
X0001763025Y0000168946D01*
X0001755954Y0000176017D01*
X0001756511Y0000176574D01*
X0001755954Y0000177131D01*
X0001763025Y0000184202D01*
X0001763582Y0000183645D01*
X0001764139Y0000184202D01*
X0001771210Y0000177131D01*
X0001770653Y0000176574D01*
X0001808957Y0000138270D01*
X0001819464Y0000142154D01*
X0001828382Y0000166159D01*
X0001827435Y0000191750D01*
X0001825176Y0000197204D01*
X0001834496Y0000203202D01*
X0001844627Y0000218029D01*
X0001848192Y0000235629D01*
X0001848192Y0000277629D01*
X0001929864Y0000277629D01*
X0001929848Y0000258420D01*
G36*
X0002539212Y0000154862D02*
X0002530659Y0000111860D01*
X0002509054Y0000079527D01*
X0002476722Y0000057923D01*
X0002436985Y0000050019D01*
X0002440939Y0000059542D01*
X0002440966Y0000090322D01*
X0002429212Y0000118769D01*
X0002409139Y0000138876D01*
X0002414192Y0000144410D01*
X0002420999Y0000160843D01*
X0002416232Y0000169999D01*
X0002375653Y0000169999D01*
X0002371210Y0000174443D01*
X0002364139Y0000167372D01*
X0002368582Y0000162928D01*
X0002368582Y0000152365D01*
X0002358582Y0000152374D01*
X0002358582Y0000162928D01*
X0002363025Y0000167372D01*
X0002355954Y0000174443D01*
X0002351511Y0000169999D01*
X0002321909Y0000169999D01*
X0002322052Y0000170213D01*
X0002323999Y0000180000D01*
X0002351511Y0000180000D01*
X0002355954Y0000175556D01*
X0002363025Y0000182627D01*
X0002358582Y0000187071D01*
X0002358582Y0000210400D01*
X0002368582Y0000210770D01*
X0002368582Y0000180000D01*
X0002416232Y0000180000D01*
X0002420999Y0000189156D01*
X0002411211Y0000210051D01*
X0002398830Y0000221357D01*
X0002401886Y0000229624D01*
X0002363582Y0000267928D01*
X0002363025Y0000267372D01*
X0002355954Y0000274443D01*
X0002356511Y0000275000D01*
X0002355954Y0000275556D01*
X0002363025Y0000282627D01*
X0002363582Y0000282071D01*
X0002364139Y0000282627D01*
X0002371210Y0000275556D01*
X0002370653Y0000275000D01*
X0002408957Y0000236695D01*
X0002419464Y0000240580D01*
X0002428382Y0000264585D01*
X0002427435Y0000290175D01*
X0002424661Y0000296872D01*
X0002434496Y0000303202D01*
X0002444627Y0000318029D01*
X0002448192Y0000335629D01*
X0002448192Y0000336350D01*
X0002450613Y0000337968D01*
X0002525613Y0000412968D01*
X0002535236Y0000427370D01*
X0002536966Y0000429958D01*
X0002539212Y0000441251D01*
X0002539212Y0000154862D01*
X0002539212Y0000154862D01*
G37*
X0002539212Y0000154862D02*
X0002530659Y0000111860D01*
X0002509054Y0000079527D01*
X0002476722Y0000057923D01*
X0002436985Y0000050019D01*
X0002440939Y0000059542D01*
X0002440966Y0000090322D01*
X0002429212Y0000118769D01*
X0002409139Y0000138876D01*
X0002414192Y0000144410D01*
X0002420999Y0000160843D01*
X0002416232Y0000169999D01*
X0002375653Y0000169999D01*
X0002371210Y0000174443D01*
X0002364139Y0000167372D01*
X0002368582Y0000162928D01*
X0002368582Y0000152365D01*
X0002358582Y0000152374D01*
X0002358582Y0000162928D01*
X0002363025Y0000167372D01*
X0002355954Y0000174443D01*
X0002351511Y0000169999D01*
X0002321909Y0000169999D01*
X0002322052Y0000170213D01*
X0002323999Y0000180000D01*
X0002351511Y0000180000D01*
X0002355954Y0000175556D01*
X0002363025Y0000182627D01*
X0002358582Y0000187071D01*
X0002358582Y0000210400D01*
X0002368582Y0000210770D01*
X0002368582Y0000180000D01*
X0002416232Y0000180000D01*
X0002420999Y0000189156D01*
X0002411211Y0000210051D01*
X0002398830Y0000221357D01*
X0002401886Y0000229624D01*
X0002363582Y0000267928D01*
X0002363025Y0000267372D01*
X0002355954Y0000274443D01*
X0002356511Y0000275000D01*
X0002355954Y0000275556D01*
X0002363025Y0000282627D01*
X0002363582Y0000282071D01*
X0002364139Y0000282627D01*
X0002371210Y0000275556D01*
X0002370653Y0000275000D01*
X0002408957Y0000236695D01*
X0002419464Y0000240580D01*
X0002428382Y0000264585D01*
X0002427435Y0000290175D01*
X0002424661Y0000296872D01*
X0002434496Y0000303202D01*
X0002444627Y0000318029D01*
X0002448192Y0000335629D01*
X0002448192Y0000336350D01*
X0002450613Y0000337968D01*
X0002525613Y0000412968D01*
X0002535236Y0000427370D01*
X0002536966Y0000429958D01*
X0002539212Y0000441251D01*
X0002539212Y0000154862D01*
G36*
X0001643582Y0000205000D02*
X0001644370Y0000205000D01*
X0001644370Y0000195000D01*
X0001643582Y0000195000D01*
X0001643582Y0000194212D01*
X0001633582Y0000194212D01*
X0001633582Y0000195000D01*
X0001632795Y0000195000D01*
X0001632795Y0000205000D01*
X0001633582Y0000205000D01*
X0001633582Y0000205787D01*
X0001643582Y0000205787D01*
X0001643582Y0000205000D01*
X0001643582Y0000205000D01*
G37*
X0001643582Y0000205000D02*
X0001644370Y0000205000D01*
X0001644370Y0000195000D01*
X0001643582Y0000195000D01*
X0001643582Y0000194212D01*
X0001633582Y0000194212D01*
X0001633582Y0000195000D01*
X0001632795Y0000195000D01*
X0001632795Y0000205000D01*
X0001633582Y0000205000D01*
X0001633582Y0000205787D01*
X0001643582Y0000205787D01*
X0001643582Y0000205000D01*
G36*
X0001891085Y0002129049D02*
X0001921852Y0002116274D01*
X0001955166Y0002116245D01*
X0001976212Y0002124941D01*
X0001976212Y0002044463D01*
X0001954207Y0002022496D01*
X0001941431Y0001991730D01*
X0001941402Y0001958416D01*
X0001954124Y0001927627D01*
X0001977660Y0001904049D01*
X0002006567Y0001892046D01*
X0001976551Y0001862031D01*
X0001965199Y0001845041D01*
X0001961212Y0001825000D01*
X0001961212Y0000591016D01*
X0001942649Y0000572485D01*
X0001929877Y0000541726D01*
X0001929848Y0000508420D01*
X0001942566Y0000477638D01*
X0001958313Y0000461863D01*
X0001947419Y0000451776D01*
X0001946883Y0000464545D01*
X0001939631Y0000482053D01*
X0001929533Y0000485454D01*
X0001894078Y0000450000D01*
X0001894635Y0000449443D01*
X0001887564Y0000442372D01*
X0001887007Y0000442928D01*
X0001886451Y0000442372D01*
X0001879380Y0000449443D01*
X0001879936Y0000450000D01*
X0001879380Y0000450556D01*
X0001886451Y0000457627D01*
X0001887007Y0000457071D01*
X0001922462Y0000492525D01*
X0001919060Y0000502623D01*
X0001896482Y0000510884D01*
X0001872462Y0000509875D01*
X0001863422Y0000506131D01*
X0001856443Y0000516977D01*
X0001841616Y0000527108D01*
X0001824015Y0000530672D01*
X0001780952Y0000530672D01*
X0001780952Y0000553307D01*
X0001785613Y0000557968D01*
X0001796966Y0000574958D01*
X0001797438Y0000577331D01*
X0001800952Y0000595000D01*
X0001800952Y0000629726D01*
X0001829068Y0000624133D01*
X0001848097Y0000624133D01*
X0001877130Y0000629908D01*
X0001901742Y0000646354D01*
X0001918188Y0000670967D01*
X0001923963Y0000700000D01*
X0001918188Y0000729032D01*
X0001904178Y0000750000D01*
X0001918188Y0000770967D01*
X0001923963Y0000800000D01*
X0001918188Y0000829032D01*
X0001904178Y0000850000D01*
X0001918188Y0000870967D01*
X0001923963Y0000900000D01*
X0001918188Y0000929032D01*
X0001904178Y0000950000D01*
X0001918188Y0000970967D01*
X0001923963Y0001000000D01*
X0001918188Y0001029032D01*
X0001904178Y0001050000D01*
X0001918188Y0001070967D01*
X0001923963Y0001100000D01*
X0001918188Y0001129032D01*
X0001904178Y0001150000D01*
X0001918188Y0001170967D01*
X0001923963Y0001200000D01*
X0001918188Y0001229032D01*
X0001904178Y0001250000D01*
X0001918188Y0001270967D01*
X0001923963Y0001300000D01*
X0001920426Y0001317781D01*
X0001930613Y0001327968D01*
X0001941966Y0001344958D01*
X0001942750Y0001348902D01*
X0001945952Y0001365000D01*
X0001945952Y0001645000D01*
X0001941966Y0001665041D01*
X0001941325Y0001666000D01*
X0001930613Y0001682031D01*
X0001923822Y0001688823D01*
X0001923822Y0001734000D01*
X0001920728Y0001750442D01*
X0001913289Y0001762001D01*
X0001918640Y0001770009D01*
X0001924605Y0001800000D01*
X0001918640Y0001829990D01*
X0001901651Y0001855416D01*
X0001890184Y0001863078D01*
X0001891761Y0001864486D01*
X0001901760Y0001885244D01*
X0001901864Y0001885865D01*
X0001897095Y0001895000D01*
X0001843582Y0001895000D01*
X0001843582Y0001894212D01*
X0001833582Y0001894212D01*
X0001833582Y0001895000D01*
X0001832795Y0001895000D01*
X0001832795Y0001905000D01*
X0001833582Y0001905000D01*
X0001833582Y0001952792D01*
X0001843582Y0001952792D01*
X0001843582Y0001905000D01*
X0001897095Y0001905000D01*
X0001901864Y0001914134D01*
X0001901760Y0001914755D01*
X0001891761Y0001935513D01*
X0001874579Y0001950864D01*
X0001852831Y0001958471D01*
X0001843582Y0001952792D01*
X0001833582Y0001952792D01*
X0001824334Y0001958471D01*
X0001802585Y0001950864D01*
X0001794952Y0001944044D01*
X0001794952Y0002007932D01*
X0001871721Y0002123085D01*
X0001885955Y0002128967D01*
X0001888566Y0002131573D01*
X0001891085Y0002129049D01*
X0001891085Y0002129049D01*
G37*
X0001891085Y0002129049D02*
X0001921852Y0002116274D01*
X0001955166Y0002116245D01*
X0001976212Y0002124941D01*
X0001976212Y0002044463D01*
X0001954207Y0002022496D01*
X0001941431Y0001991730D01*
X0001941402Y0001958416D01*
X0001954124Y0001927627D01*
X0001977660Y0001904049D01*
X0002006567Y0001892046D01*
X0001976551Y0001862031D01*
X0001965199Y0001845041D01*
X0001961212Y0001825000D01*
X0001961212Y0000591016D01*
X0001942649Y0000572485D01*
X0001929877Y0000541726D01*
X0001929848Y0000508420D01*
X0001942566Y0000477638D01*
X0001958313Y0000461863D01*
X0001947419Y0000451776D01*
X0001946883Y0000464545D01*
X0001939631Y0000482053D01*
X0001929533Y0000485454D01*
X0001894078Y0000450000D01*
X0001894635Y0000449443D01*
X0001887564Y0000442372D01*
X0001887007Y0000442928D01*
X0001886451Y0000442372D01*
X0001879380Y0000449443D01*
X0001879936Y0000450000D01*
X0001879380Y0000450556D01*
X0001886451Y0000457627D01*
X0001887007Y0000457071D01*
X0001922462Y0000492525D01*
X0001919060Y0000502623D01*
X0001896482Y0000510884D01*
X0001872462Y0000509875D01*
X0001863422Y0000506131D01*
X0001856443Y0000516977D01*
X0001841616Y0000527108D01*
X0001824015Y0000530672D01*
X0001780952Y0000530672D01*
X0001780952Y0000553307D01*
X0001785613Y0000557968D01*
X0001796966Y0000574958D01*
X0001797438Y0000577331D01*
X0001800952Y0000595000D01*
X0001800952Y0000629726D01*
X0001829068Y0000624133D01*
X0001848097Y0000624133D01*
X0001877130Y0000629908D01*
X0001901742Y0000646354D01*
X0001918188Y0000670967D01*
X0001923963Y0000700000D01*
X0001918188Y0000729032D01*
X0001904178Y0000750000D01*
X0001918188Y0000770967D01*
X0001923963Y0000800000D01*
X0001918188Y0000829032D01*
X0001904178Y0000850000D01*
X0001918188Y0000870967D01*
X0001923963Y0000900000D01*
X0001918188Y0000929032D01*
X0001904178Y0000950000D01*
X0001918188Y0000970967D01*
X0001923963Y0001000000D01*
X0001918188Y0001029032D01*
X0001904178Y0001050000D01*
X0001918188Y0001070967D01*
X0001923963Y0001100000D01*
X0001918188Y0001129032D01*
X0001904178Y0001150000D01*
X0001918188Y0001170967D01*
X0001923963Y0001200000D01*
X0001918188Y0001229032D01*
X0001904178Y0001250000D01*
X0001918188Y0001270967D01*
X0001923963Y0001300000D01*
X0001920426Y0001317781D01*
X0001930613Y0001327968D01*
X0001941966Y0001344958D01*
X0001942750Y0001348902D01*
X0001945952Y0001365000D01*
X0001945952Y0001645000D01*
X0001941966Y0001665041D01*
X0001941325Y0001666000D01*
X0001930613Y0001682031D01*
X0001923822Y0001688823D01*
X0001923822Y0001734000D01*
X0001920728Y0001750442D01*
X0001913289Y0001762001D01*
X0001918640Y0001770009D01*
X0001924605Y0001800000D01*
X0001918640Y0001829990D01*
X0001901651Y0001855416D01*
X0001890184Y0001863078D01*
X0001891761Y0001864486D01*
X0001901760Y0001885244D01*
X0001901864Y0001885865D01*
X0001897095Y0001895000D01*
X0001843582Y0001895000D01*
X0001843582Y0001894212D01*
X0001833582Y0001894212D01*
X0001833582Y0001895000D01*
X0001832795Y0001895000D01*
X0001832795Y0001905000D01*
X0001833582Y0001905000D01*
X0001833582Y0001952792D01*
X0001843582Y0001952792D01*
X0001843582Y0001905000D01*
X0001897095Y0001905000D01*
X0001901864Y0001914134D01*
X0001901760Y0001914755D01*
X0001891761Y0001935513D01*
X0001874579Y0001950864D01*
X0001852831Y0001958471D01*
X0001843582Y0001952792D01*
X0001833582Y0001952792D01*
X0001824334Y0001958471D01*
X0001802585Y0001950864D01*
X0001794952Y0001944044D01*
X0001794952Y0002007932D01*
X0001871721Y0002123085D01*
X0001885955Y0002128967D01*
X0001888566Y0002131573D01*
X0001891085Y0002129049D01*
G36*
X0002371210Y0000475556D02*
X0002370653Y0000475000D01*
X0002371210Y0000474443D01*
X0002364139Y0000467372D01*
X0002363582Y0000467928D01*
X0002363025Y0000467372D01*
X0002355954Y0000474443D01*
X0002356511Y0000475000D01*
X0002355954Y0000475556D01*
X0002363025Y0000482627D01*
X0002363582Y0000482071D01*
X0002364139Y0000482627D01*
X0002371210Y0000475556D01*
X0002371210Y0000475556D01*
G37*
X0002371210Y0000475556D02*
X0002370653Y0000475000D01*
X0002371210Y0000474443D01*
X0002364139Y0000467372D01*
X0002363582Y0000467928D01*
X0002363025Y0000467372D01*
X0002355954Y0000474443D01*
X0002356511Y0000475000D01*
X0002355954Y0000475556D01*
X0002363025Y0000482627D01*
X0002363582Y0000482071D01*
X0002364139Y0000482627D01*
X0002371210Y0000475556D01*
G36*
X0002441097Y0001304066D02*
X0002464576Y0001294317D01*
X0002462365Y0001288367D01*
X0002463312Y0001262777D01*
X0002471284Y0001243532D01*
X0002481790Y0001239648D01*
X0002520094Y0001277952D01*
X0002519537Y0001278509D01*
X0002526608Y0001285580D01*
X0002527165Y0001285023D01*
X0002527722Y0001285580D01*
X0002534793Y0001278509D01*
X0002534236Y0001277952D01*
X0002534793Y0001277395D01*
X0002527722Y0001270324D01*
X0002527165Y0001270881D01*
X0002488861Y0001232577D01*
X0002492745Y0001222071D01*
X0002516750Y0001213153D01*
X0002539212Y0001213984D01*
X0002539212Y0001086240D01*
X0002537580Y0001086846D01*
X0002511989Y0001085899D01*
X0002492745Y0001077928D01*
X0002488861Y0001067422D01*
X0002527165Y0001029118D01*
X0002527722Y0001029675D01*
X0002534793Y0001022604D01*
X0002534236Y0001022047D01*
X0002534793Y0001021490D01*
X0002527722Y0001014419D01*
X0002527165Y0001014976D01*
X0002526608Y0001014419D01*
X0002519537Y0001021490D01*
X0002520094Y0001022047D01*
X0002481790Y0001060351D01*
X0002471284Y0001056467D01*
X0002462365Y0001032462D01*
X0002463312Y0001006871D01*
X0002463923Y0001005396D01*
X0002441221Y0000996015D01*
X0002438598Y0000993398D01*
X0002436068Y0000995933D01*
X0002430746Y0000998142D01*
X0002433725Y0001005317D01*
X0002433754Y0001038631D01*
X0002421032Y0001069420D01*
X0002402370Y0001088115D01*
X0002402370Y0001211908D01*
X0002420950Y0001230455D01*
X0002433725Y0001261222D01*
X0002433754Y0001294536D01*
X0002430739Y0001301833D01*
X0002435944Y0001303984D01*
X0002438566Y0001306601D01*
X0002441097Y0001304066D01*
X0002441097Y0001304066D01*
G37*
X0002441097Y0001304066D02*
X0002464576Y0001294317D01*
X0002462365Y0001288367D01*
X0002463312Y0001262777D01*
X0002471284Y0001243532D01*
X0002481790Y0001239648D01*
X0002520094Y0001277952D01*
X0002519537Y0001278509D01*
X0002526608Y0001285580D01*
X0002527165Y0001285023D01*
X0002527722Y0001285580D01*
X0002534793Y0001278509D01*
X0002534236Y0001277952D01*
X0002534793Y0001277395D01*
X0002527722Y0001270324D01*
X0002527165Y0001270881D01*
X0002488861Y0001232577D01*
X0002492745Y0001222071D01*
X0002516750Y0001213153D01*
X0002539212Y0001213984D01*
X0002539212Y0001086240D01*
X0002537580Y0001086846D01*
X0002511989Y0001085899D01*
X0002492745Y0001077928D01*
X0002488861Y0001067422D01*
X0002527165Y0001029118D01*
X0002527722Y0001029675D01*
X0002534793Y0001022604D01*
X0002534236Y0001022047D01*
X0002534793Y0001021490D01*
X0002527722Y0001014419D01*
X0002527165Y0001014976D01*
X0002526608Y0001014419D01*
X0002519537Y0001021490D01*
X0002520094Y0001022047D01*
X0002481790Y0001060351D01*
X0002471284Y0001056467D01*
X0002462365Y0001032462D01*
X0002463312Y0001006871D01*
X0002463923Y0001005396D01*
X0002441221Y0000996015D01*
X0002438598Y0000993398D01*
X0002436068Y0000995933D01*
X0002430746Y0000998142D01*
X0002433725Y0001005317D01*
X0002433754Y0001038631D01*
X0002421032Y0001069420D01*
X0002402370Y0001088115D01*
X0002402370Y0001211908D01*
X0002420950Y0001230455D01*
X0002433725Y0001261222D01*
X0002433754Y0001294536D01*
X0002430739Y0001301833D01*
X0002435944Y0001303984D01*
X0002438566Y0001306601D01*
X0002441097Y0001304066D01*
G36*
X0002278973Y0001785629D02*
X0002282067Y0001769187D01*
X0002291784Y0001754085D01*
X0002302898Y0001746492D01*
X0002298783Y0001735414D01*
X0002299730Y0001709824D01*
X0002307701Y0001690580D01*
X0002318207Y0001686695D01*
X0002356511Y0001725000D01*
X0002355954Y0001725556D01*
X0002363025Y0001732627D01*
X0002363582Y0001732071D01*
X0002364139Y0001732627D01*
X0002371210Y0001725556D01*
X0002370653Y0001725000D01*
X0002371210Y0001724443D01*
X0002364139Y0001717372D01*
X0002363582Y0001717928D01*
X0002341985Y0001696331D01*
X0002341221Y0001696015D01*
X0002317649Y0001672485D01*
X0002304877Y0001641726D01*
X0002304848Y0001608420D01*
X0002317566Y0001577638D01*
X0002341097Y0001554066D01*
X0002371856Y0001541294D01*
X0002405162Y0001541265D01*
X0002435944Y0001553984D01*
X0002438566Y0001556601D01*
X0002441097Y0001554066D01*
X0002471856Y0001541294D01*
X0002505162Y0001541265D01*
X0002535944Y0001553984D01*
X0002539212Y0001557246D01*
X0002539212Y0001442783D01*
X0002536068Y0001445933D01*
X0002505308Y0001458705D01*
X0002472002Y0001458734D01*
X0002441221Y0001446015D01*
X0002438598Y0001443398D01*
X0002436068Y0001445933D01*
X0002405308Y0001458705D01*
X0002372002Y0001458734D01*
X0002341221Y0001446015D01*
X0002322534Y0001427362D01*
X0002322052Y0001429786D01*
X0002305180Y0001455037D01*
X0002279928Y0001471909D01*
X0002250142Y0001477834D01*
X0002227022Y0001477834D01*
X0002197236Y0001471909D01*
X0002193049Y0001469112D01*
X0002200844Y0001483987D01*
X0002201256Y0001486258D01*
X0002196453Y0001495000D01*
X0002143582Y0001495000D01*
X0002143582Y0001494212D01*
X0002133582Y0001494212D01*
X0002133582Y0001495000D01*
X0002080712Y0001495000D01*
X0002075909Y0001486258D01*
X0002076321Y0001483987D01*
X0002086589Y0001464392D01*
X0002088775Y0001462567D01*
X0002075422Y0001453645D01*
X0002065952Y0001439472D01*
X0002065952Y0001513741D01*
X0002075909Y0001513741D01*
X0002080712Y0001505000D01*
X0002133582Y0001505000D01*
X0002133582Y0001550372D01*
X0002143582Y0001550372D01*
X0002143582Y0001505000D01*
X0002196453Y0001505000D01*
X0002201256Y0001513741D01*
X0002200844Y0001516012D01*
X0002190576Y0001535607D01*
X0002173591Y0001549780D01*
X0002152475Y0001556375D01*
X0002143582Y0001550372D01*
X0002133582Y0001550372D01*
X0002124689Y0001556375D01*
X0002103573Y0001549780D01*
X0002086589Y0001535607D01*
X0002076321Y0001516012D01*
X0002075909Y0001513741D01*
X0002065952Y0001513741D01*
X0002065952Y0001661899D01*
X0002105978Y0001661899D01*
X0002108897Y0001652210D01*
X0002130048Y0001644607D01*
X0002152498Y0001645678D01*
X0002168267Y0001652210D01*
X0002171186Y0001661899D01*
X0002138582Y0001694503D01*
X0002105978Y0001661899D01*
X0002065952Y0001661899D01*
X0002065952Y0001750489D01*
X0002074658Y0001736959D01*
X0002087992Y0001727849D01*
X0002081615Y0001710109D01*
X0002082685Y0001687659D01*
X0002089217Y0001671889D01*
X0002098907Y0001668970D01*
X0002131511Y0001701574D01*
X0002130954Y0001702131D01*
X0002138025Y0001709202D01*
X0002138582Y0001708645D01*
X0002139139Y0001709202D01*
X0002146210Y0001702131D01*
X0002145653Y0001701574D01*
X0002178257Y0001668970D01*
X0002187947Y0001671889D01*
X0002195549Y0001693040D01*
X0002194479Y0001715490D01*
X0002189250Y0001728114D01*
X0002201622Y0001736076D01*
X0002211753Y0001750903D01*
X0002215318Y0001768503D01*
X0002215318Y0001831496D01*
X0002214163Y0001837629D01*
X0002248582Y0001837629D01*
X0002268623Y0001841616D01*
X0002278973Y0001848531D01*
X0002278973Y0001785629D01*
X0002278973Y0001785629D01*
G37*
X0002278973Y0001785629D02*
X0002282067Y0001769187D01*
X0002291784Y0001754085D01*
X0002302898Y0001746492D01*
X0002298783Y0001735414D01*
X0002299730Y0001709824D01*
X0002307701Y0001690580D01*
X0002318207Y0001686695D01*
X0002356511Y0001725000D01*
X0002355954Y0001725556D01*
X0002363025Y0001732627D01*
X0002363582Y0001732071D01*
X0002364139Y0001732627D01*
X0002371210Y0001725556D01*
X0002370653Y0001725000D01*
X0002371210Y0001724443D01*
X0002364139Y0001717372D01*
X0002363582Y0001717928D01*
X0002341985Y0001696331D01*
X0002341221Y0001696015D01*
X0002317649Y0001672485D01*
X0002304877Y0001641726D01*
X0002304848Y0001608420D01*
X0002317566Y0001577638D01*
X0002341097Y0001554066D01*
X0002371856Y0001541294D01*
X0002405162Y0001541265D01*
X0002435944Y0001553984D01*
X0002438566Y0001556601D01*
X0002441097Y0001554066D01*
X0002471856Y0001541294D01*
X0002505162Y0001541265D01*
X0002535944Y0001553984D01*
X0002539212Y0001557246D01*
X0002539212Y0001442783D01*
X0002536068Y0001445933D01*
X0002505308Y0001458705D01*
X0002472002Y0001458734D01*
X0002441221Y0001446015D01*
X0002438598Y0001443398D01*
X0002436068Y0001445933D01*
X0002405308Y0001458705D01*
X0002372002Y0001458734D01*
X0002341221Y0001446015D01*
X0002322534Y0001427362D01*
X0002322052Y0001429786D01*
X0002305180Y0001455037D01*
X0002279928Y0001471909D01*
X0002250142Y0001477834D01*
X0002227022Y0001477834D01*
X0002197236Y0001471909D01*
X0002193049Y0001469112D01*
X0002200844Y0001483987D01*
X0002201256Y0001486258D01*
X0002196453Y0001495000D01*
X0002143582Y0001495000D01*
X0002143582Y0001494212D01*
X0002133582Y0001494212D01*
X0002133582Y0001495000D01*
X0002080712Y0001495000D01*
X0002075909Y0001486258D01*
X0002076321Y0001483987D01*
X0002086589Y0001464392D01*
X0002088775Y0001462567D01*
X0002075422Y0001453645D01*
X0002065952Y0001439472D01*
X0002065952Y0001513741D01*
X0002075909Y0001513741D01*
X0002080712Y0001505000D01*
X0002133582Y0001505000D01*
X0002133582Y0001550372D01*
X0002143582Y0001550372D01*
X0002143582Y0001505000D01*
X0002196453Y0001505000D01*
X0002201256Y0001513741D01*
X0002200844Y0001516012D01*
X0002190576Y0001535607D01*
X0002173591Y0001549780D01*
X0002152475Y0001556375D01*
X0002143582Y0001550372D01*
X0002133582Y0001550372D01*
X0002124689Y0001556375D01*
X0002103573Y0001549780D01*
X0002086589Y0001535607D01*
X0002076321Y0001516012D01*
X0002075909Y0001513741D01*
X0002065952Y0001513741D01*
X0002065952Y0001661899D01*
X0002105978Y0001661899D01*
X0002108897Y0001652210D01*
X0002130048Y0001644607D01*
X0002152498Y0001645678D01*
X0002168267Y0001652210D01*
X0002171186Y0001661899D01*
X0002138582Y0001694503D01*
X0002105978Y0001661899D01*
X0002065952Y0001661899D01*
X0002065952Y0001750489D01*
X0002074658Y0001736959D01*
X0002087992Y0001727849D01*
X0002081615Y0001710109D01*
X0002082685Y0001687659D01*
X0002089217Y0001671889D01*
X0002098907Y0001668970D01*
X0002131511Y0001701574D01*
X0002130954Y0001702131D01*
X0002138025Y0001709202D01*
X0002138582Y0001708645D01*
X0002139139Y0001709202D01*
X0002146210Y0001702131D01*
X0002145653Y0001701574D01*
X0002178257Y0001668970D01*
X0002187947Y0001671889D01*
X0002195549Y0001693040D01*
X0002194479Y0001715490D01*
X0002189250Y0001728114D01*
X0002201622Y0001736076D01*
X0002211753Y0001750903D01*
X0002215318Y0001768503D01*
X0002215318Y0001831496D01*
X0002214163Y0001837629D01*
X0002248582Y0001837629D01*
X0002268623Y0001841616D01*
X0002278973Y0001848531D01*
X0002278973Y0001785629D01*
G36*
X0002306165Y0002239156D02*
X0002310933Y0002230000D01*
X0002351511Y0002230000D01*
X0002355954Y0002225556D01*
X0002363025Y0002232627D01*
X0002358582Y0002237071D01*
X0002358582Y0002250629D01*
X0002368582Y0002250629D01*
X0002368582Y0002237071D01*
X0002364139Y0002232627D01*
X0002371210Y0002225556D01*
X0002375653Y0002230000D01*
X0002416232Y0002230000D01*
X0002420999Y0002239156D01*
X0002415624Y0002250629D01*
X0002433720Y0002250629D01*
X0002476722Y0002242076D01*
X0002509054Y0002220472D01*
X0002530659Y0002188139D01*
X0002539212Y0002145137D01*
X0002539212Y0001692783D01*
X0002536068Y0001695933D01*
X0002505308Y0001708705D01*
X0002472002Y0001708734D01*
X0002441221Y0001696015D01*
X0002438598Y0001693398D01*
X0002436068Y0001695933D01*
X0002423406Y0001701190D01*
X0002428382Y0001714585D01*
X0002427435Y0001740175D01*
X0002424661Y0001746872D01*
X0002434496Y0001753202D01*
X0002444627Y0001768029D01*
X0002448192Y0001785629D01*
X0002448192Y0001864370D01*
X0002445098Y0001880812D01*
X0002435380Y0001895914D01*
X0002424266Y0001903507D01*
X0002428382Y0001914585D01*
X0002427435Y0001940175D01*
X0002424661Y0001946872D01*
X0002434496Y0001953202D01*
X0002444627Y0001968029D01*
X0002448192Y0001985629D01*
X0002448192Y0002064370D01*
X0002445098Y0002080812D01*
X0002435380Y0002095914D01*
X0002435302Y0002095967D01*
X0002440939Y0002109542D01*
X0002440966Y0002140322D01*
X0002429212Y0002168769D01*
X0002409139Y0002188876D01*
X0002414192Y0002194410D01*
X0002420999Y0002210843D01*
X0002416232Y0002220000D01*
X0002375653Y0002220000D01*
X0002371210Y0002224443D01*
X0002364139Y0002217372D01*
X0002368582Y0002212928D01*
X0002368582Y0002202365D01*
X0002358582Y0002202374D01*
X0002358582Y0002212928D01*
X0002363025Y0002217372D01*
X0002355954Y0002224443D01*
X0002351511Y0002220000D01*
X0002310933Y0002220000D01*
X0002306165Y0002210843D01*
X0002315953Y0002189948D01*
X0002317613Y0002188433D01*
X0002298029Y0002168883D01*
X0002296943Y0002166267D01*
X0002296947Y0002171456D01*
X0002280487Y0002211293D01*
X0002250036Y0002241798D01*
X0002228766Y0002250629D01*
X0002310918Y0002250629D01*
X0002306165Y0002239156D01*
X0002306165Y0002239156D01*
G37*
X0002306165Y0002239156D02*
X0002310933Y0002230000D01*
X0002351511Y0002230000D01*
X0002355954Y0002225556D01*
X0002363025Y0002232627D01*
X0002358582Y0002237071D01*
X0002358582Y0002250629D01*
X0002368582Y0002250629D01*
X0002368582Y0002237071D01*
X0002364139Y0002232627D01*
X0002371210Y0002225556D01*
X0002375653Y0002230000D01*
X0002416232Y0002230000D01*
X0002420999Y0002239156D01*
X0002415624Y0002250629D01*
X0002433720Y0002250629D01*
X0002476722Y0002242076D01*
X0002509054Y0002220472D01*
X0002530659Y0002188139D01*
X0002539212Y0002145137D01*
X0002539212Y0001692783D01*
X0002536068Y0001695933D01*
X0002505308Y0001708705D01*
X0002472002Y0001708734D01*
X0002441221Y0001696015D01*
X0002438598Y0001693398D01*
X0002436068Y0001695933D01*
X0002423406Y0001701190D01*
X0002428382Y0001714585D01*
X0002427435Y0001740175D01*
X0002424661Y0001746872D01*
X0002434496Y0001753202D01*
X0002444627Y0001768029D01*
X0002448192Y0001785629D01*
X0002448192Y0001864370D01*
X0002445098Y0001880812D01*
X0002435380Y0001895914D01*
X0002424266Y0001903507D01*
X0002428382Y0001914585D01*
X0002427435Y0001940175D01*
X0002424661Y0001946872D01*
X0002434496Y0001953202D01*
X0002444627Y0001968029D01*
X0002448192Y0001985629D01*
X0002448192Y0002064370D01*
X0002445098Y0002080812D01*
X0002435380Y0002095914D01*
X0002435302Y0002095967D01*
X0002440939Y0002109542D01*
X0002440966Y0002140322D01*
X0002429212Y0002168769D01*
X0002409139Y0002188876D01*
X0002414192Y0002194410D01*
X0002420999Y0002210843D01*
X0002416232Y0002220000D01*
X0002375653Y0002220000D01*
X0002371210Y0002224443D01*
X0002364139Y0002217372D01*
X0002368582Y0002212928D01*
X0002368582Y0002202365D01*
X0002358582Y0002202374D01*
X0002358582Y0002212928D01*
X0002363025Y0002217372D01*
X0002355954Y0002224443D01*
X0002351511Y0002220000D01*
X0002310933Y0002220000D01*
X0002306165Y0002210843D01*
X0002315953Y0002189948D01*
X0002317613Y0002188433D01*
X0002298029Y0002168883D01*
X0002296943Y0002166267D01*
X0002296947Y0002171456D01*
X0002280487Y0002211293D01*
X0002250036Y0002241798D01*
X0002228766Y0002250629D01*
X0002310918Y0002250629D01*
X0002306165Y0002239156D01*
G36*
X0002371210Y0001925556D02*
X0002370653Y0001925000D01*
X0002371210Y0001924443D01*
X0002364139Y0001917372D01*
X0002363582Y0001917928D01*
X0002363025Y0001917372D01*
X0002355954Y0001924443D01*
X0002356511Y0001925000D01*
X0002355954Y0001925556D01*
X0002363025Y0001932627D01*
X0002363582Y0001932071D01*
X0002364139Y0001932627D01*
X0002371210Y0001925556D01*
X0002371210Y0001925556D01*
G37*
X0002371210Y0001925556D02*
X0002370653Y0001925000D01*
X0002371210Y0001924443D01*
X0002364139Y0001917372D01*
X0002363582Y0001917928D01*
X0002363025Y0001917372D01*
X0002355954Y0001924443D01*
X0002356511Y0001925000D01*
X0002355954Y0001925556D01*
X0002363025Y0001932627D01*
X0002363582Y0001932071D01*
X0002364139Y0001932627D01*
X0002371210Y0001925556D01*
G36*
X0002096677Y0002088706D02*
X0002127129Y0002058201D01*
X0002166936Y0002041672D01*
X0002177871Y0002041662D01*
X0002180199Y0002029958D01*
X0002184736Y0002023168D01*
X0002183703Y0002020375D01*
X0002222007Y0001982071D01*
X0002222564Y0001982627D01*
X0002229635Y0001975556D01*
X0002229078Y0001975000D01*
X0002229635Y0001974443D01*
X0002222564Y0001967372D01*
X0002222007Y0001967928D01*
X0002221451Y0001967372D01*
X0002214380Y0001974443D01*
X0002214936Y0001975000D01*
X0002176632Y0002013304D01*
X0002166126Y0002009419D01*
X0002157208Y0001985414D01*
X0002158155Y0001959824D01*
X0002165385Y0001942370D01*
X0002102280Y0001942370D01*
X0002108883Y0001958269D01*
X0002108912Y0001991583D01*
X0002096190Y0002022372D01*
X0002080822Y0002037768D01*
X0002080952Y0002038425D01*
X0002080952Y0002126763D01*
X0002096677Y0002088706D01*
X0002096677Y0002088706D01*
G37*
X0002096677Y0002088706D02*
X0002127129Y0002058201D01*
X0002166936Y0002041672D01*
X0002177871Y0002041662D01*
X0002180199Y0002029958D01*
X0002184736Y0002023168D01*
X0002183703Y0002020375D01*
X0002222007Y0001982071D01*
X0002222564Y0001982627D01*
X0002229635Y0001975556D01*
X0002229078Y0001975000D01*
X0002229635Y0001974443D01*
X0002222564Y0001967372D01*
X0002222007Y0001967928D01*
X0002221451Y0001967372D01*
X0002214380Y0001974443D01*
X0002214936Y0001975000D01*
X0002176632Y0002013304D01*
X0002166126Y0002009419D01*
X0002157208Y0001985414D01*
X0002158155Y0001959824D01*
X0002165385Y0001942370D01*
X0002102280Y0001942370D01*
X0002108883Y0001958269D01*
X0002108912Y0001991583D01*
X0002096190Y0002022372D01*
X0002080822Y0002037768D01*
X0002080952Y0002038425D01*
X0002080952Y0002126763D01*
X0002096677Y0002088706D01*
G36*
X0001583582Y0001975000D02*
X0001584370Y0001975000D01*
X0001584370Y0001965000D01*
X0001583582Y0001965000D01*
X0001583582Y0001964212D01*
X0001573582Y0001964212D01*
X0001573582Y0001965000D01*
X0001572795Y0001965000D01*
X0001572795Y0001975000D01*
X0001573582Y0001975000D01*
X0001573582Y0001975787D01*
X0001583582Y0001975787D01*
X0001583582Y0001975000D01*
X0001583582Y0001975000D01*
G37*
X0001583582Y0001975000D02*
X0001584370Y0001975000D01*
X0001584370Y0001965000D01*
X0001583582Y0001965000D01*
X0001583582Y0001964212D01*
X0001573582Y0001964212D01*
X0001573582Y0001965000D01*
X0001572795Y0001965000D01*
X0001572795Y0001975000D01*
X0001573582Y0001975000D01*
X0001573582Y0001975787D01*
X0001583582Y0001975787D01*
X0001583582Y0001975000D01*
G04 next file*
G04 #@! TF.FileFunction,Copper,L1,Top,Signal*
G04 Gerber Fmt 4.6, Leading zero omitted, Abs format (unit mm)*
G04 Created by KiCad (PCBNEW 4.0.6) date 02/13/20 12:12:51*
G01*
G04 APERTURE LIST*
G04 APERTURE END LIST*
D80*
D81*
X-0002122834Y0004650000D02*
X0002777165Y0000250000D03*
D82*
X0002777165Y0000348425D03*
X0002777165Y0000446850D03*
X0002777165Y0000545275D03*
X0002777165Y0000643700D03*
D83*
X0003177165Y0001700000D03*
D84*
X0003177165Y0001800000D03*
X0003177165Y0001900000D03*
D85*
X0002977165Y0000100000D03*
X0002977165Y0000200000D03*
X0002977165Y0000300000D03*
X0002977165Y0000400000D03*
X0002977165Y0000500000D03*
X0002977165Y0000600000D03*
X0002977165Y0000700000D03*
X0002977165Y0000800000D03*
X0002977165Y0000900000D03*
X0002977165Y0001000000D03*
X0002977165Y0001100000D03*
X0002977165Y0001200000D03*
X0002977165Y0001300000D03*
X0002977165Y0001400000D03*
D82*
X0003363740Y0001975000D03*
X0003560590Y0001975000D03*
X0003702165Y0000275000D03*
D81*
X0003702165Y0000375000D03*
D86*
X0003702165Y0002125000D03*
X0003702165Y0002225000D03*
D87*
X0003127165Y0000450000D03*
D88*
X0003225590Y0000450000D03*
D81*
X0003102165Y0000275000D03*
D82*
X0003102165Y0000176574D03*
D89*
X0003477165Y0000700000D03*
X0003477165Y0000800000D03*
X0003477165Y0000900000D03*
X0003477165Y0001000000D03*
X0003477165Y0001100000D03*
X0003477165Y0001200000D03*
X0003477165Y0001300000D03*
X0003477165Y0001400000D03*
X0003477165Y0001500000D03*
X0003177165Y0001500000D03*
X0003177165Y0001400000D03*
X0003177165Y0001300000D03*
X0003177165Y0001200000D03*
X0003177165Y0001100000D03*
X0003177165Y0001000000D03*
X0003177165Y0000900000D03*
X0003177165Y0000800000D03*
X0003177165Y0000700000D03*
D90*
X0003477165Y0001701574D03*
D91*
X0003477165Y0001800000D03*
D81*
X0003077165Y0002200000D03*
D82*
X0003177165Y0002200000D03*
X0003277165Y0002200000D03*
D92*
X0002917165Y0001832204D03*
D93*
X0002917165Y0001970000D03*
D92*
X0002917165Y0001542204D03*
D93*
X0002917165Y0001680000D03*
D82*
X0003688582Y0001277952D03*
X0003865748Y0001277952D03*
X0003688582Y0001022047D03*
X0003865748Y0001022047D03*
D94*
X0003087165Y0000967716D03*
X0003087165Y0000932283D03*
D86*
X0003702165Y0000075000D03*
X0003702165Y0000175000D03*
D82*
X0003702165Y0000475000D03*
D81*
X0003702165Y0000575000D03*
D82*
X0003702165Y0001925000D03*
D81*
X0003702165Y0002025000D03*
D82*
X0003702165Y0001725000D03*
D81*
X0003702165Y0001825000D03*
D95*
X0003352165Y0000275000D03*
X0003352165Y0000525000D03*
X0003452165Y0000275000D03*
X0003452165Y0000525000D03*
X0003827165Y0001375000D03*
X0003827165Y0001625000D03*
X0003727165Y0001375000D03*
X0003727165Y0001625000D03*
X0003827165Y0000925000D03*
X0003827165Y0000675000D03*
X0003727165Y0000925000D03*
X0003727165Y0000675000D03*
D85*
X0003577165Y0000100000D03*
X0003577165Y0000200000D03*
X0003577165Y0000300000D03*
X0003577165Y0000400000D03*
X0003577165Y0000500000D03*
X0003577165Y0000600000D03*
X0003577165Y0000700000D03*
X0003577165Y0000800000D03*
X0003577165Y0000900000D03*
X0003577165Y0001000000D03*
X0003577165Y0001100000D03*
X0003577165Y0001200000D03*
X0003577165Y0001300000D03*
X0003577165Y0001400000D03*
D81*
X0002777165Y0000950000D03*
D82*
X0002777165Y0001048425D03*
X0002777165Y0001146850D03*
X0002777165Y0001245275D03*
X0002777165Y0001343700D03*
D96*
X0002757165Y0001430000D03*
D97*
X0003569665Y0002052500D02*
X0003567165Y0002050000D01*
D98*
X0003702165Y0001725000D02*
X0003667165Y0001725000D01*
X0003667165Y0001725000D02*
X0003643740Y0001701574D01*
X0003643740Y0001701574D02*
X0003477165Y0001701574D01*
X0003702165Y0000175000D02*
X0003757165Y0000175000D01*
X0003892165Y0000995629D02*
X0003865748Y0001022047D01*
X0003892165Y0000310000D02*
X0003892165Y0000995629D01*
X0003757165Y0000175000D02*
X0003892165Y0000310000D01*
X0003865748Y0001277952D02*
X0003865748Y0001022047D01*
X0003702165Y0001725000D02*
X0003842165Y0001725000D01*
X0003897165Y0001309370D02*
X0003865748Y0001277952D01*
X0003897165Y0001670000D02*
X0003897165Y0001309370D01*
X0003842165Y0001725000D02*
X0003897165Y0001670000D01*
X0003702165Y0001925000D02*
X0003752165Y0001925000D01*
X0003757165Y0001725000D02*
X0003702165Y0001725000D01*
X0003802165Y0001770000D02*
X0003757165Y0001725000D01*
X0003802165Y0001875000D02*
X0003802165Y0001770000D01*
X0003752165Y0001925000D02*
X0003802165Y0001875000D01*
X0003477165Y0001500000D02*
X0003477165Y0001701574D01*
X0003702165Y0001925000D02*
X0003772165Y0001925000D01*
X0003742165Y0002225000D02*
X0003702165Y0002225000D01*
X0003802165Y0002165000D02*
X0003742165Y0002225000D01*
X0003802165Y0001955000D02*
X0003802165Y0002165000D01*
X0003772165Y0001925000D02*
X0003802165Y0001955000D01*
X0003102165Y0000176574D02*
X0003102165Y0000100000D01*
X0003642165Y0000115000D02*
X0003702165Y0000175000D01*
X0003642165Y0000050000D02*
X0003642165Y0000115000D01*
X0003622165Y0000030000D02*
X0003642165Y0000050000D01*
X0003172165Y0000030000D02*
X0003622165Y0000030000D01*
X0003102165Y0000100000D02*
X0003172165Y0000030000D01*
X0003102165Y0000176574D02*
X0003060590Y0000176574D01*
X0003060590Y0000176574D02*
X0003037165Y0000200000D01*
X0003037165Y0000200000D02*
X0002977165Y0000200000D01*
X0003225590Y0000450000D02*
X0003225590Y0000548425D01*
X0003227165Y0001900000D02*
X0003177165Y0001900000D01*
X0003277165Y0001850000D02*
X0003227165Y0001900000D01*
X0003277165Y0000600000D02*
X0003277165Y0001850000D01*
X0003225590Y0000548425D02*
X0003277165Y0000600000D01*
D97*
X0003862795Y0001275000D02*
X0003865748Y0001277952D01*
X0003702165Y0002225000D02*
X0003692165Y0002225000D01*
X0003677165Y0002225000D02*
X0003702165Y0002225000D01*
X0003477165Y0000350000D02*
X0003417165Y0000350000D01*
X0003639665Y0000637500D02*
X0003652165Y0000650000D01*
X0003652165Y0000650000D02*
X0003652165Y0000710000D01*
X0003652165Y0000710000D02*
X0003727165Y0000785000D01*
X0003727165Y0000925000D02*
X0003727165Y0000785000D01*
X0003617165Y0000360000D02*
X0003607165Y0000350000D01*
X0003617165Y0000360000D02*
X0003639665Y0000387500D01*
X0003607165Y0000350000D02*
X0003477165Y0000350000D01*
X0003639665Y0000387500D02*
X0003639665Y0000637500D01*
X0002927165Y0000350000D02*
X0002917165Y0000360000D01*
X0003027165Y0000350000D02*
X0002927165Y0000350000D01*
X0003047165Y0000330000D02*
X0003027165Y0000350000D01*
X0003397165Y0000330000D02*
X0003047165Y0000330000D01*
X0003417165Y0000350000D02*
X0003397165Y0000330000D01*
X0002917165Y0000360000D02*
X0002917165Y0000575000D01*
X0002942165Y0000600000D02*
X0002917165Y0000575000D01*
X0002942165Y0000600000D02*
X0002977165Y0000600000D01*
X0003688582Y0001277952D02*
X0003688582Y0001022047D01*
D98*
X0002917165Y0001832204D02*
X0002917165Y0001680000D01*
X0002917165Y0001542204D02*
X0002944370Y0001542204D01*
X0002944370Y0001542204D02*
X0003027165Y0001625000D01*
X0003027165Y0001625000D02*
X0003027165Y0002100000D01*
X0003027165Y0002100000D02*
X0003077165Y0002200000D01*
D97*
X0003367165Y0002038425D02*
X0003363740Y0001975000D01*
X0003367165Y0002220000D02*
X0003367165Y0002038425D01*
X0003322165Y0002265000D02*
X0003367165Y0002220000D01*
X0003022165Y0002265000D02*
X0003322165Y0002265000D01*
X0002972165Y0002215000D02*
X0003022165Y0002265000D01*
X0002972165Y0002125000D02*
X0002972165Y0002215000D01*
X0002917165Y0002070000D02*
X0002972165Y0002125000D01*
X0002877165Y0002070000D02*
X0002917165Y0002070000D01*
X0002782165Y0001975000D02*
X0002877165Y0002070000D01*
X0002782165Y0001455000D02*
X0002782165Y0001975000D01*
X0002757165Y0001430000D02*
X0002782165Y0001455000D01*
X0003512165Y0000515000D02*
X0003512165Y0000485000D01*
X0003352165Y0000355000D02*
X0003062165Y0000355000D01*
X0003062165Y0000355000D02*
X0003037165Y0000380000D01*
X0003037165Y0000380000D02*
X0003037165Y0000395000D01*
X0003512165Y0000550000D02*
X0003512165Y0000515000D01*
X0003177165Y0001700000D02*
X0003232165Y0001645000D01*
X0003232165Y0001365000D02*
X0003232165Y0001645000D01*
X0003217165Y0001350000D02*
X0003232165Y0001365000D01*
X0002937165Y0001350000D02*
X0003217165Y0001350000D01*
X0002902165Y0001315000D02*
X0002937165Y0001350000D01*
X0002902165Y0001090000D02*
X0002902165Y0001315000D01*
X0002942165Y0001050000D02*
X0002902165Y0001090000D01*
X0003017165Y0001050000D02*
X0002942165Y0001050000D01*
X0003037165Y0001030000D02*
X0003017165Y0001050000D01*
X0003037165Y0000395000D02*
X0003037165Y0001030000D01*
X0003512165Y0000550000D02*
X0003562165Y0000600000D01*
X0003362165Y0000365000D02*
X0003352165Y0000355000D01*
X0003432165Y0000435000D02*
X0003362165Y0000365000D01*
X0003462165Y0000435000D02*
X0003432165Y0000435000D01*
X0003512165Y0000485000D02*
X0003462165Y0000435000D01*
X0003577165Y0000600000D02*
X0003562165Y0000600000D01*
X0003702165Y0000375000D02*
X0003752165Y0000375000D01*
X0003827165Y0000450000D02*
X0003827165Y0000675000D01*
X0003752165Y0000375000D02*
X0003827165Y0000450000D01*
X0003702165Y0000575000D02*
X0003702165Y0000650000D01*
X0003702165Y0000650000D02*
X0003727165Y0000675000D01*
X0003307165Y0000400000D02*
X0003287165Y0000380000D01*
X0003067165Y0000405000D02*
X0003067165Y0000575000D01*
X0003067165Y0000575000D02*
X0003087165Y0000595000D01*
X0003087165Y0000600000D02*
X0003087165Y0000595000D01*
X0003442165Y0000525000D02*
X0003307165Y0000400000D01*
X0003087165Y0000600000D02*
X0003087165Y0000932283D01*
X0003092165Y0000380000D02*
X0003067165Y0000405000D01*
X0003287165Y0000380000D02*
X0003092165Y0000380000D01*
X0003452165Y0000525000D02*
X0003452165Y0000575000D01*
X0003452165Y0000575000D02*
X0003577165Y0000700000D01*
X0003452165Y0000525000D02*
X0003452165Y0000540000D01*
X0003452165Y0000525000D02*
X0003442165Y0000525000D01*
X0003552165Y0001890000D02*
X0003587165Y0001890000D01*
X0003417165Y0001890000D02*
X0003352165Y0001825000D01*
X0003547165Y0001890000D02*
X0003417165Y0001890000D01*
X0003352165Y0000525000D02*
X0003352165Y0001825000D01*
X0003547165Y0001890000D02*
X0003552165Y0001890000D01*
X0003627165Y0002070000D02*
X0003682165Y0002125000D01*
X0003627165Y0001930000D02*
X0003627165Y0002070000D01*
X0003587165Y0001890000D02*
X0003627165Y0001930000D01*
X0003682165Y0002125000D02*
X0003702165Y0002125000D01*
X0003352165Y0000525000D02*
X0003352165Y0000690000D01*
X0003527165Y0000750000D02*
X0003577165Y0000800000D01*
X0003412165Y0000750000D02*
X0003527165Y0000750000D01*
X0003352165Y0000690000D02*
X0003412165Y0000750000D01*
X0003352165Y0000525000D02*
X0003352165Y0000550000D01*
D98*
X0002777165Y0000643700D02*
X0002780866Y0000643700D01*
X0002780866Y0000643700D02*
X0002907165Y0000770000D01*
X0002777165Y0001343700D02*
X0002852165Y0001268700D01*
X0002852165Y0001005000D02*
X0002852165Y0001268700D01*
X0002907165Y0000950000D02*
X0002852165Y0001005000D01*
X0002907165Y0000770000D02*
X0002907165Y0000950000D01*
X0002977165Y0000100000D02*
X0002937165Y0000100000D01*
X0002937165Y0000100000D02*
X0002907165Y0000130000D01*
X0002808464Y0000643700D02*
X0002877165Y0000575000D01*
X0002877165Y0000310000D02*
X0002877165Y0000575000D01*
X0002907165Y0000280000D02*
X0002877165Y0000310000D01*
X0002907165Y0000130000D02*
X0002907165Y0000280000D01*
X0002777165Y0000643700D02*
X0002808464Y0000643700D01*
X0002777165Y0000643700D02*
X0002783464Y0000643700D01*
X0002777165Y0001343700D02*
X0002777165Y0001350000D01*
X0002777165Y0001350000D02*
X0002852165Y0001425000D01*
X0003152165Y0001475000D02*
X0003177165Y0001500000D01*
X0002952165Y0001475000D02*
X0003152165Y0001475000D01*
X0002902165Y0001425000D02*
X0002952165Y0001475000D01*
X0002852165Y0001425000D02*
X0002902165Y0001425000D01*
X0003177165Y0001800000D02*
X0003127165Y0001800000D01*
X0003127165Y0001800000D02*
X0003077165Y0001750000D01*
X0003177165Y0002200000D02*
X0003177165Y0002175000D01*
X0003177165Y0002175000D02*
X0003077165Y0002025000D01*
X0003077165Y0002025000D02*
X0003077165Y0001750000D01*
X0003077165Y0001750000D02*
X0003077165Y0001600000D01*
X0003077165Y0001600000D02*
X0003177165Y0001500000D01*
D97*
X0003452165Y0000275000D02*
X0003452165Y0000230000D01*
X0003482165Y0000200000D02*
X0003577165Y0000200000D01*
X0003452165Y0000230000D02*
X0003482165Y0000200000D01*
X0003452165Y0000275000D02*
X0003352165Y0000275000D01*
X0003087165Y0000967716D02*
X0003087165Y0001030000D01*
X0003017165Y0001100000D02*
X0002977165Y0001100000D01*
X0003087165Y0001030000D02*
X0003017165Y0001100000D01*
D99*
G36*
X0003268430Y0000258420D02*
X0003268458Y0000258354D01*
X0003255708Y0000258365D01*
X0003215872Y0000241905D01*
X0003185367Y0000211453D01*
X0003168837Y0000171645D01*
X0003168800Y0000128543D01*
X0003185260Y0000088706D01*
X0003215711Y0000058201D01*
X0003236981Y0000049370D01*
X0003046708Y0000049370D01*
X0003060635Y0000070213D01*
X0003066560Y0000100000D01*
X0003060936Y0000128274D01*
X0003063861Y0000131199D01*
X0003067745Y0000120693D01*
X0003091750Y0000111775D01*
X0003117340Y0000112722D01*
X0003136585Y0000120693D01*
X0003140469Y0000131199D01*
X0003102165Y0000169503D01*
X0003101608Y0000168946D01*
X0003094537Y0000176017D01*
X0003095094Y0000176574D01*
X0003094537Y0000177131D01*
X0003101608Y0000184202D01*
X0003102165Y0000183645D01*
X0003102722Y0000184202D01*
X0003109793Y0000177131D01*
X0003109236Y0000176574D01*
X0003147540Y0000138270D01*
X0003158046Y0000142154D01*
X0003166964Y0000166159D01*
X0003166017Y0000191750D01*
X0003163758Y0000197204D01*
X0003173079Y0000203202D01*
X0003183210Y0000218029D01*
X0003186774Y0000235629D01*
X0003186774Y0000277629D01*
X0003268447Y0000277629D01*
X0003268430Y0000258420D01*
X0003268430Y0000258420D01*
G37*
X0003268430Y0000258420D02*
X0003268458Y0000258354D01*
X0003255708Y0000258365D01*
X0003215872Y0000241905D01*
X0003185367Y0000211453D01*
X0003168837Y0000171645D01*
X0003168800Y0000128543D01*
X0003185260Y0000088706D01*
X0003215711Y0000058201D01*
X0003236981Y0000049370D01*
X0003046708Y0000049370D01*
X0003060635Y0000070213D01*
X0003066560Y0000100000D01*
X0003060936Y0000128274D01*
X0003063861Y0000131199D01*
X0003067745Y0000120693D01*
X0003091750Y0000111775D01*
X0003117340Y0000112722D01*
X0003136585Y0000120693D01*
X0003140469Y0000131199D01*
X0003102165Y0000169503D01*
X0003101608Y0000168946D01*
X0003094537Y0000176017D01*
X0003095094Y0000176574D01*
X0003094537Y0000177131D01*
X0003101608Y0000184202D01*
X0003102165Y0000183645D01*
X0003102722Y0000184202D01*
X0003109793Y0000177131D01*
X0003109236Y0000176574D01*
X0003147540Y0000138270D01*
X0003158046Y0000142154D01*
X0003166964Y0000166159D01*
X0003166017Y0000191750D01*
X0003163758Y0000197204D01*
X0003173079Y0000203202D01*
X0003183210Y0000218029D01*
X0003186774Y0000235629D01*
X0003186774Y0000277629D01*
X0003268447Y0000277629D01*
X0003268430Y0000258420D01*
G36*
X0003877795Y0000154862D02*
X0003869241Y0000111860D01*
X0003847637Y0000079527D01*
X0003815304Y0000057923D01*
X0003775567Y0000050019D01*
X0003779522Y0000059542D01*
X0003779548Y0000090322D01*
X0003767794Y0000118769D01*
X0003747722Y0000138876D01*
X0003752775Y0000144410D01*
X0003759582Y0000160843D01*
X0003754814Y0000169999D01*
X0003714236Y0000169999D01*
X0003709793Y0000174443D01*
X0003702722Y0000167372D01*
X0003707165Y0000162928D01*
X0003707165Y0000152365D01*
X0003697165Y0000152374D01*
X0003697165Y0000162928D01*
X0003701608Y0000167372D01*
X0003694537Y0000174443D01*
X0003690094Y0000169999D01*
X0003660492Y0000169999D01*
X0003660635Y0000170213D01*
X0003662582Y0000180000D01*
X0003690094Y0000180000D01*
X0003694537Y0000175556D01*
X0003701608Y0000182627D01*
X0003697165Y0000187071D01*
X0003697165Y0000210400D01*
X0003707165Y0000210770D01*
X0003707165Y0000180000D01*
X0003754814Y0000180000D01*
X0003759582Y0000189156D01*
X0003749794Y0000210051D01*
X0003737412Y0000221357D01*
X0003740469Y0000229624D01*
X0003702165Y0000267928D01*
X0003701608Y0000267372D01*
X0003694537Y0000274443D01*
X0003695094Y0000275000D01*
X0003694537Y0000275556D01*
X0003701608Y0000282627D01*
X0003702165Y0000282071D01*
X0003702722Y0000282627D01*
X0003709793Y0000275556D01*
X0003709236Y0000275000D01*
X0003747540Y0000236695D01*
X0003758046Y0000240580D01*
X0003766964Y0000264585D01*
X0003766017Y0000290175D01*
X0003763243Y0000296872D01*
X0003773079Y0000303202D01*
X0003783210Y0000318029D01*
X0003786774Y0000335629D01*
X0003786774Y0000336350D01*
X0003789196Y0000337968D01*
X0003864196Y0000412968D01*
X0003873819Y0000427370D01*
X0003875549Y0000429958D01*
X0003877795Y0000441251D01*
X0003877795Y0000154862D01*
X0003877795Y0000154862D01*
G37*
X0003877795Y0000154862D02*
X0003869241Y0000111860D01*
X0003847637Y0000079527D01*
X0003815304Y0000057923D01*
X0003775567Y0000050019D01*
X0003779522Y0000059542D01*
X0003779548Y0000090322D01*
X0003767794Y0000118769D01*
X0003747722Y0000138876D01*
X0003752775Y0000144410D01*
X0003759582Y0000160843D01*
X0003754814Y0000169999D01*
X0003714236Y0000169999D01*
X0003709793Y0000174443D01*
X0003702722Y0000167372D01*
X0003707165Y0000162928D01*
X0003707165Y0000152365D01*
X0003697165Y0000152374D01*
X0003697165Y0000162928D01*
X0003701608Y0000167372D01*
X0003694537Y0000174443D01*
X0003690094Y0000169999D01*
X0003660492Y0000169999D01*
X0003660635Y0000170213D01*
X0003662582Y0000180000D01*
X0003690094Y0000180000D01*
X0003694537Y0000175556D01*
X0003701608Y0000182627D01*
X0003697165Y0000187071D01*
X0003697165Y0000210400D01*
X0003707165Y0000210770D01*
X0003707165Y0000180000D01*
X0003754814Y0000180000D01*
X0003759582Y0000189156D01*
X0003749794Y0000210051D01*
X0003737412Y0000221357D01*
X0003740469Y0000229624D01*
X0003702165Y0000267928D01*
X0003701608Y0000267372D01*
X0003694537Y0000274443D01*
X0003695094Y0000275000D01*
X0003694537Y0000275556D01*
X0003701608Y0000282627D01*
X0003702165Y0000282071D01*
X0003702722Y0000282627D01*
X0003709793Y0000275556D01*
X0003709236Y0000275000D01*
X0003747540Y0000236695D01*
X0003758046Y0000240580D01*
X0003766964Y0000264585D01*
X0003766017Y0000290175D01*
X0003763243Y0000296872D01*
X0003773079Y0000303202D01*
X0003783210Y0000318029D01*
X0003786774Y0000335629D01*
X0003786774Y0000336350D01*
X0003789196Y0000337968D01*
X0003864196Y0000412968D01*
X0003873819Y0000427370D01*
X0003875549Y0000429958D01*
X0003877795Y0000441251D01*
X0003877795Y0000154862D01*
G36*
X0002982165Y0000205000D02*
X0002982952Y0000205000D01*
X0002982952Y0000195000D01*
X0002982165Y0000195000D01*
X0002982165Y0000194212D01*
X0002972165Y0000194212D01*
X0002972165Y0000195000D01*
X0002971377Y0000195000D01*
X0002971377Y0000205000D01*
X0002972165Y0000205000D01*
X0002972165Y0000205787D01*
X0002982165Y0000205787D01*
X0002982165Y0000205000D01*
X0002982165Y0000205000D01*
G37*
X0002982165Y0000205000D02*
X0002982952Y0000205000D01*
X0002982952Y0000195000D01*
X0002982165Y0000195000D01*
X0002982165Y0000194212D01*
X0002972165Y0000194212D01*
X0002972165Y0000195000D01*
X0002971377Y0000195000D01*
X0002971377Y0000205000D01*
X0002972165Y0000205000D01*
X0002972165Y0000205787D01*
X0002982165Y0000205787D01*
X0002982165Y0000205000D01*
G36*
X0003229668Y0002129049D02*
X0003260435Y0002116274D01*
X0003293749Y0002116245D01*
X0003314795Y0002124941D01*
X0003314795Y0002044463D01*
X0003292790Y0002022496D01*
X0003280014Y0001991730D01*
X0003279985Y0001958416D01*
X0003292707Y0001927627D01*
X0003316243Y0001904049D01*
X0003345149Y0001892046D01*
X0003315134Y0001862031D01*
X0003303781Y0001845041D01*
X0003299795Y0001825000D01*
X0003299795Y0000591016D01*
X0003281232Y0000572485D01*
X0003268459Y0000541726D01*
X0003268430Y0000508420D01*
X0003281149Y0000477638D01*
X0003296896Y0000461863D01*
X0003286002Y0000451776D01*
X0003285466Y0000464545D01*
X0003278214Y0000482053D01*
X0003268116Y0000485454D01*
X0003232661Y0000450000D01*
X0003233218Y0000449443D01*
X0003226147Y0000442372D01*
X0003225590Y0000442928D01*
X0003225033Y0000442372D01*
X0003217962Y0000449443D01*
X0003218519Y0000450000D01*
X0003217962Y0000450556D01*
X0003225033Y0000457627D01*
X0003225590Y0000457071D01*
X0003261045Y0000492525D01*
X0003257643Y0000502623D01*
X0003235065Y0000510884D01*
X0003211044Y0000509875D01*
X0003202005Y0000506131D01*
X0003195026Y0000516977D01*
X0003180199Y0000527108D01*
X0003162598Y0000530672D01*
X0003119535Y0000530672D01*
X0003119535Y0000553307D01*
X0003124196Y0000557968D01*
X0003135549Y0000574958D01*
X0003136020Y0000577331D01*
X0003139535Y0000595000D01*
X0003139535Y0000629726D01*
X0003167650Y0000624133D01*
X0003186679Y0000624133D01*
X0003215712Y0000629908D01*
X0003240325Y0000646354D01*
X0003256771Y0000670967D01*
X0003262546Y0000700000D01*
X0003256771Y0000729032D01*
X0003242761Y0000750000D01*
X0003256771Y0000770967D01*
X0003262546Y0000800000D01*
X0003256771Y0000829032D01*
X0003242761Y0000850000D01*
X0003256771Y0000870967D01*
X0003262546Y0000900000D01*
X0003256771Y0000929032D01*
X0003242761Y0000950000D01*
X0003256771Y0000970967D01*
X0003262546Y0001000000D01*
X0003256771Y0001029032D01*
X0003242761Y0001050000D01*
X0003256771Y0001070967D01*
X0003262546Y0001100000D01*
X0003256771Y0001129032D01*
X0003242761Y0001150000D01*
X0003256771Y0001170967D01*
X0003262546Y0001200000D01*
X0003256771Y0001229032D01*
X0003242761Y0001250000D01*
X0003256771Y0001270967D01*
X0003262546Y0001300000D01*
X0003259009Y0001317781D01*
X0003269196Y0001327968D01*
X0003280549Y0001344958D01*
X0003281333Y0001348902D01*
X0003284535Y0001365000D01*
X0003284535Y0001645000D01*
X0003280549Y0001665041D01*
X0003279908Y0001666000D01*
X0003269196Y0001682031D01*
X0003262404Y0001688823D01*
X0003262404Y0001734000D01*
X0003259310Y0001750442D01*
X0003251872Y0001762001D01*
X0003257222Y0001770009D01*
X0003263188Y0001800000D01*
X0003257222Y0001829990D01*
X0003240234Y0001855416D01*
X0003228767Y0001863078D01*
X0003230343Y0001864486D01*
X0003240342Y0001885244D01*
X0003240447Y0001885865D01*
X0003235677Y0001895000D01*
X0003182165Y0001895000D01*
X0003182165Y0001894212D01*
X0003172165Y0001894212D01*
X0003172165Y0001895000D01*
X0003171377Y0001895000D01*
X0003171377Y0001905000D01*
X0003172165Y0001905000D01*
X0003172165Y0001952792D01*
X0003182165Y0001952792D01*
X0003182165Y0001905000D01*
X0003235677Y0001905000D01*
X0003240447Y0001914134D01*
X0003240342Y0001914755D01*
X0003230343Y0001935513D01*
X0003213162Y0001950864D01*
X0003191413Y0001958471D01*
X0003182165Y0001952792D01*
X0003172165Y0001952792D01*
X0003162916Y0001958471D01*
X0003141168Y0001950864D01*
X0003133535Y0001944044D01*
X0003133535Y0002007932D01*
X0003210304Y0002123085D01*
X0003224538Y0002128967D01*
X0003227149Y0002131573D01*
X0003229668Y0002129049D01*
X0003229668Y0002129049D01*
G37*
X0003229668Y0002129049D02*
X0003260435Y0002116274D01*
X0003293749Y0002116245D01*
X0003314795Y0002124941D01*
X0003314795Y0002044463D01*
X0003292790Y0002022496D01*
X0003280014Y0001991730D01*
X0003279985Y0001958416D01*
X0003292707Y0001927627D01*
X0003316243Y0001904049D01*
X0003345149Y0001892046D01*
X0003315134Y0001862031D01*
X0003303781Y0001845041D01*
X0003299795Y0001825000D01*
X0003299795Y0000591016D01*
X0003281232Y0000572485D01*
X0003268459Y0000541726D01*
X0003268430Y0000508420D01*
X0003281149Y0000477638D01*
X0003296896Y0000461863D01*
X0003286002Y0000451776D01*
X0003285466Y0000464545D01*
X0003278214Y0000482053D01*
X0003268116Y0000485454D01*
X0003232661Y0000450000D01*
X0003233218Y0000449443D01*
X0003226147Y0000442372D01*
X0003225590Y0000442928D01*
X0003225033Y0000442372D01*
X0003217962Y0000449443D01*
X0003218519Y0000450000D01*
X0003217962Y0000450556D01*
X0003225033Y0000457627D01*
X0003225590Y0000457071D01*
X0003261045Y0000492525D01*
X0003257643Y0000502623D01*
X0003235065Y0000510884D01*
X0003211044Y0000509875D01*
X0003202005Y0000506131D01*
X0003195026Y0000516977D01*
X0003180199Y0000527108D01*
X0003162598Y0000530672D01*
X0003119535Y0000530672D01*
X0003119535Y0000553307D01*
X0003124196Y0000557968D01*
X0003135549Y0000574958D01*
X0003136020Y0000577331D01*
X0003139535Y0000595000D01*
X0003139535Y0000629726D01*
X0003167650Y0000624133D01*
X0003186679Y0000624133D01*
X0003215712Y0000629908D01*
X0003240325Y0000646354D01*
X0003256771Y0000670967D01*
X0003262546Y0000700000D01*
X0003256771Y0000729032D01*
X0003242761Y0000750000D01*
X0003256771Y0000770967D01*
X0003262546Y0000800000D01*
X0003256771Y0000829032D01*
X0003242761Y0000850000D01*
X0003256771Y0000870967D01*
X0003262546Y0000900000D01*
X0003256771Y0000929032D01*
X0003242761Y0000950000D01*
X0003256771Y0000970967D01*
X0003262546Y0001000000D01*
X0003256771Y0001029032D01*
X0003242761Y0001050000D01*
X0003256771Y0001070967D01*
X0003262546Y0001100000D01*
X0003256771Y0001129032D01*
X0003242761Y0001150000D01*
X0003256771Y0001170967D01*
X0003262546Y0001200000D01*
X0003256771Y0001229032D01*
X0003242761Y0001250000D01*
X0003256771Y0001270967D01*
X0003262546Y0001300000D01*
X0003259009Y0001317781D01*
X0003269196Y0001327968D01*
X0003280549Y0001344958D01*
X0003281333Y0001348902D01*
X0003284535Y0001365000D01*
X0003284535Y0001645000D01*
X0003280549Y0001665041D01*
X0003279908Y0001666000D01*
X0003269196Y0001682031D01*
X0003262404Y0001688823D01*
X0003262404Y0001734000D01*
X0003259310Y0001750442D01*
X0003251872Y0001762001D01*
X0003257222Y0001770009D01*
X0003263188Y0001800000D01*
X0003257222Y0001829990D01*
X0003240234Y0001855416D01*
X0003228767Y0001863078D01*
X0003230343Y0001864486D01*
X0003240342Y0001885244D01*
X0003240447Y0001885865D01*
X0003235677Y0001895000D01*
X0003182165Y0001895000D01*
X0003182165Y0001894212D01*
X0003172165Y0001894212D01*
X0003172165Y0001895000D01*
X0003171377Y0001895000D01*
X0003171377Y0001905000D01*
X0003172165Y0001905000D01*
X0003172165Y0001952792D01*
X0003182165Y0001952792D01*
X0003182165Y0001905000D01*
X0003235677Y0001905000D01*
X0003240447Y0001914134D01*
X0003240342Y0001914755D01*
X0003230343Y0001935513D01*
X0003213162Y0001950864D01*
X0003191413Y0001958471D01*
X0003182165Y0001952792D01*
X0003172165Y0001952792D01*
X0003162916Y0001958471D01*
X0003141168Y0001950864D01*
X0003133535Y0001944044D01*
X0003133535Y0002007932D01*
X0003210304Y0002123085D01*
X0003224538Y0002128967D01*
X0003227149Y0002131573D01*
X0003229668Y0002129049D01*
G36*
X0003709793Y0000475556D02*
X0003709236Y0000475000D01*
X0003709793Y0000474443D01*
X0003702722Y0000467372D01*
X0003702165Y0000467928D01*
X0003701608Y0000467372D01*
X0003694537Y0000474443D01*
X0003695094Y0000475000D01*
X0003694537Y0000475556D01*
X0003701608Y0000482627D01*
X0003702165Y0000482071D01*
X0003702722Y0000482627D01*
X0003709793Y0000475556D01*
X0003709793Y0000475556D01*
G37*
X0003709793Y0000475556D02*
X0003709236Y0000475000D01*
X0003709793Y0000474443D01*
X0003702722Y0000467372D01*
X0003702165Y0000467928D01*
X0003701608Y0000467372D01*
X0003694537Y0000474443D01*
X0003695094Y0000475000D01*
X0003694537Y0000475556D01*
X0003701608Y0000482627D01*
X0003702165Y0000482071D01*
X0003702722Y0000482627D01*
X0003709793Y0000475556D01*
G36*
X0003779679Y0001304066D02*
X0003803159Y0001294317D01*
X0003800948Y0001288367D01*
X0003801895Y0001262777D01*
X0003809866Y0001243532D01*
X0003820372Y0001239648D01*
X0003858677Y0001277952D01*
X0003858120Y0001278509D01*
X0003865191Y0001285580D01*
X0003865748Y0001285023D01*
X0003866304Y0001285580D01*
X0003873375Y0001278509D01*
X0003872819Y0001277952D01*
X0003873375Y0001277395D01*
X0003866304Y0001270324D01*
X0003865748Y0001270881D01*
X0003827443Y0001232577D01*
X0003831328Y0001222071D01*
X0003855333Y0001213153D01*
X0003877795Y0001213984D01*
X0003877795Y0001086240D01*
X0003876162Y0001086846D01*
X0003850572Y0001085899D01*
X0003831328Y0001077928D01*
X0003827443Y0001067422D01*
X0003865748Y0001029118D01*
X0003866304Y0001029675D01*
X0003873375Y0001022604D01*
X0003872819Y0001022047D01*
X0003873375Y0001021490D01*
X0003866304Y0001014419D01*
X0003865748Y0001014976D01*
X0003865191Y0001014419D01*
X0003858120Y0001021490D01*
X0003858677Y0001022047D01*
X0003820372Y0001060351D01*
X0003809866Y0001056467D01*
X0003800948Y0001032462D01*
X0003801895Y0001006871D01*
X0003802506Y0001005396D01*
X0003779803Y0000996015D01*
X0003777181Y0000993398D01*
X0003774650Y0000995933D01*
X0003769329Y0000998142D01*
X0003772308Y0001005317D01*
X0003772337Y0001038631D01*
X0003759615Y0001069420D01*
X0003740952Y0001088115D01*
X0003740952Y0001211908D01*
X0003759532Y0001230455D01*
X0003772308Y0001261222D01*
X0003772337Y0001294536D01*
X0003769322Y0001301833D01*
X0003774527Y0001303984D01*
X0003777149Y0001306601D01*
X0003779679Y0001304066D01*
X0003779679Y0001304066D01*
G37*
X0003779679Y0001304066D02*
X0003803159Y0001294317D01*
X0003800948Y0001288367D01*
X0003801895Y0001262777D01*
X0003809866Y0001243532D01*
X0003820372Y0001239648D01*
X0003858677Y0001277952D01*
X0003858120Y0001278509D01*
X0003865191Y0001285580D01*
X0003865748Y0001285023D01*
X0003866304Y0001285580D01*
X0003873375Y0001278509D01*
X0003872819Y0001277952D01*
X0003873375Y0001277395D01*
X0003866304Y0001270324D01*
X0003865748Y0001270881D01*
X0003827443Y0001232577D01*
X0003831328Y0001222071D01*
X0003855333Y0001213153D01*
X0003877795Y0001213984D01*
X0003877795Y0001086240D01*
X0003876162Y0001086846D01*
X0003850572Y0001085899D01*
X0003831328Y0001077928D01*
X0003827443Y0001067422D01*
X0003865748Y0001029118D01*
X0003866304Y0001029675D01*
X0003873375Y0001022604D01*
X0003872819Y0001022047D01*
X0003873375Y0001021490D01*
X0003866304Y0001014419D01*
X0003865748Y0001014976D01*
X0003865191Y0001014419D01*
X0003858120Y0001021490D01*
X0003858677Y0001022047D01*
X0003820372Y0001060351D01*
X0003809866Y0001056467D01*
X0003800948Y0001032462D01*
X0003801895Y0001006871D01*
X0003802506Y0001005396D01*
X0003779803Y0000996015D01*
X0003777181Y0000993398D01*
X0003774650Y0000995933D01*
X0003769329Y0000998142D01*
X0003772308Y0001005317D01*
X0003772337Y0001038631D01*
X0003759615Y0001069420D01*
X0003740952Y0001088115D01*
X0003740952Y0001211908D01*
X0003759532Y0001230455D01*
X0003772308Y0001261222D01*
X0003772337Y0001294536D01*
X0003769322Y0001301833D01*
X0003774527Y0001303984D01*
X0003777149Y0001306601D01*
X0003779679Y0001304066D01*
G36*
X0003617555Y0001785629D02*
X0003620649Y0001769187D01*
X0003630367Y0001754085D01*
X0003641481Y0001746492D01*
X0003637365Y0001735414D01*
X0003638312Y0001709824D01*
X0003646284Y0001690580D01*
X0003656790Y0001686695D01*
X0003695094Y0001725000D01*
X0003694537Y0001725556D01*
X0003701608Y0001732627D01*
X0003702165Y0001732071D01*
X0003702722Y0001732627D01*
X0003709793Y0001725556D01*
X0003709236Y0001725000D01*
X0003709793Y0001724443D01*
X0003702722Y0001717372D01*
X0003702165Y0001717928D01*
X0003680568Y0001696331D01*
X0003679803Y0001696015D01*
X0003656232Y0001672485D01*
X0003643459Y0001641726D01*
X0003643430Y0001608420D01*
X0003656149Y0001577638D01*
X0003679679Y0001554066D01*
X0003710439Y0001541294D01*
X0003743745Y0001541265D01*
X0003774527Y0001553984D01*
X0003777149Y0001556601D01*
X0003779679Y0001554066D01*
X0003810439Y0001541294D01*
X0003843745Y0001541265D01*
X0003874527Y0001553984D01*
X0003877795Y0001557246D01*
X0003877795Y0001442783D01*
X0003874650Y0001445933D01*
X0003843891Y0001458705D01*
X0003810585Y0001458734D01*
X0003779803Y0001446015D01*
X0003777181Y0001443398D01*
X0003774650Y0001445933D01*
X0003743891Y0001458705D01*
X0003710585Y0001458734D01*
X0003679803Y0001446015D01*
X0003661117Y0001427362D01*
X0003660635Y0001429786D01*
X0003643763Y0001455037D01*
X0003618511Y0001471909D01*
X0003588725Y0001477834D01*
X0003565605Y0001477834D01*
X0003535819Y0001471909D01*
X0003531632Y0001469112D01*
X0003539426Y0001483987D01*
X0003539838Y0001486258D01*
X0003535036Y0001495000D01*
X0003482165Y0001495000D01*
X0003482165Y0001494212D01*
X0003472165Y0001494212D01*
X0003472165Y0001495000D01*
X0003419294Y0001495000D01*
X0003414492Y0001486258D01*
X0003414903Y0001483987D01*
X0003425171Y0001464392D01*
X0003427358Y0001462567D01*
X0003414005Y0001453645D01*
X0003404535Y0001439472D01*
X0003404535Y0001513741D01*
X0003414492Y0001513741D01*
X0003419294Y0001505000D01*
X0003472165Y0001505000D01*
X0003472165Y0001550372D01*
X0003482165Y0001550372D01*
X0003482165Y0001505000D01*
X0003535036Y0001505000D01*
X0003539838Y0001513741D01*
X0003539426Y0001516012D01*
X0003529158Y0001535607D01*
X0003512174Y0001549780D01*
X0003491058Y0001556375D01*
X0003482165Y0001550372D01*
X0003472165Y0001550372D01*
X0003463272Y0001556375D01*
X0003442156Y0001549780D01*
X0003425171Y0001535607D01*
X0003414903Y0001516012D01*
X0003414492Y0001513741D01*
X0003404535Y0001513741D01*
X0003404535Y0001661899D01*
X0003444561Y0001661899D01*
X0003447480Y0001652210D01*
X0003468630Y0001644607D01*
X0003491080Y0001645678D01*
X0003506850Y0001652210D01*
X0003509769Y0001661899D01*
X0003477165Y0001694503D01*
X0003444561Y0001661899D01*
X0003404535Y0001661899D01*
X0003404535Y0001750489D01*
X0003413241Y0001736959D01*
X0003426574Y0001727849D01*
X0003420198Y0001710109D01*
X0003421268Y0001687659D01*
X0003427800Y0001671889D01*
X0003437490Y0001668970D01*
X0003470094Y0001701574D01*
X0003469537Y0001702131D01*
X0003476608Y0001709202D01*
X0003477165Y0001708645D01*
X0003477722Y0001709202D01*
X0003484793Y0001702131D01*
X0003484236Y0001701574D01*
X0003516840Y0001668970D01*
X0003526530Y0001671889D01*
X0003534132Y0001693040D01*
X0003533062Y0001715490D01*
X0003527833Y0001728114D01*
X0003540205Y0001736076D01*
X0003550336Y0001750903D01*
X0003553900Y0001768503D01*
X0003553900Y0001831496D01*
X0003552746Y0001837629D01*
X0003587165Y0001837629D01*
X0003607206Y0001841616D01*
X0003617555Y0001848531D01*
X0003617555Y0001785629D01*
X0003617555Y0001785629D01*
G37*
X0003617555Y0001785629D02*
X0003620649Y0001769187D01*
X0003630367Y0001754085D01*
X0003641481Y0001746492D01*
X0003637365Y0001735414D01*
X0003638312Y0001709824D01*
X0003646284Y0001690580D01*
X0003656790Y0001686695D01*
X0003695094Y0001725000D01*
X0003694537Y0001725556D01*
X0003701608Y0001732627D01*
X0003702165Y0001732071D01*
X0003702722Y0001732627D01*
X0003709793Y0001725556D01*
X0003709236Y0001725000D01*
X0003709793Y0001724443D01*
X0003702722Y0001717372D01*
X0003702165Y0001717928D01*
X0003680568Y0001696331D01*
X0003679803Y0001696015D01*
X0003656232Y0001672485D01*
X0003643459Y0001641726D01*
X0003643430Y0001608420D01*
X0003656149Y0001577638D01*
X0003679679Y0001554066D01*
X0003710439Y0001541294D01*
X0003743745Y0001541265D01*
X0003774527Y0001553984D01*
X0003777149Y0001556601D01*
X0003779679Y0001554066D01*
X0003810439Y0001541294D01*
X0003843745Y0001541265D01*
X0003874527Y0001553984D01*
X0003877795Y0001557246D01*
X0003877795Y0001442783D01*
X0003874650Y0001445933D01*
X0003843891Y0001458705D01*
X0003810585Y0001458734D01*
X0003779803Y0001446015D01*
X0003777181Y0001443398D01*
X0003774650Y0001445933D01*
X0003743891Y0001458705D01*
X0003710585Y0001458734D01*
X0003679803Y0001446015D01*
X0003661117Y0001427362D01*
X0003660635Y0001429786D01*
X0003643763Y0001455037D01*
X0003618511Y0001471909D01*
X0003588725Y0001477834D01*
X0003565605Y0001477834D01*
X0003535819Y0001471909D01*
X0003531632Y0001469112D01*
X0003539426Y0001483987D01*
X0003539838Y0001486258D01*
X0003535036Y0001495000D01*
X0003482165Y0001495000D01*
X0003482165Y0001494212D01*
X0003472165Y0001494212D01*
X0003472165Y0001495000D01*
X0003419294Y0001495000D01*
X0003414492Y0001486258D01*
X0003414903Y0001483987D01*
X0003425171Y0001464392D01*
X0003427358Y0001462567D01*
X0003414005Y0001453645D01*
X0003404535Y0001439472D01*
X0003404535Y0001513741D01*
X0003414492Y0001513741D01*
X0003419294Y0001505000D01*
X0003472165Y0001505000D01*
X0003472165Y0001550372D01*
X0003482165Y0001550372D01*
X0003482165Y0001505000D01*
X0003535036Y0001505000D01*
X0003539838Y0001513741D01*
X0003539426Y0001516012D01*
X0003529158Y0001535607D01*
X0003512174Y0001549780D01*
X0003491058Y0001556375D01*
X0003482165Y0001550372D01*
X0003472165Y0001550372D01*
X0003463272Y0001556375D01*
X0003442156Y0001549780D01*
X0003425171Y0001535607D01*
X0003414903Y0001516012D01*
X0003414492Y0001513741D01*
X0003404535Y0001513741D01*
X0003404535Y0001661899D01*
X0003444561Y0001661899D01*
X0003447480Y0001652210D01*
X0003468630Y0001644607D01*
X0003491080Y0001645678D01*
X0003506850Y0001652210D01*
X0003509769Y0001661899D01*
X0003477165Y0001694503D01*
X0003444561Y0001661899D01*
X0003404535Y0001661899D01*
X0003404535Y0001750489D01*
X0003413241Y0001736959D01*
X0003426574Y0001727849D01*
X0003420198Y0001710109D01*
X0003421268Y0001687659D01*
X0003427800Y0001671889D01*
X0003437490Y0001668970D01*
X0003470094Y0001701574D01*
X0003469537Y0001702131D01*
X0003476608Y0001709202D01*
X0003477165Y0001708645D01*
X0003477722Y0001709202D01*
X0003484793Y0001702131D01*
X0003484236Y0001701574D01*
X0003516840Y0001668970D01*
X0003526530Y0001671889D01*
X0003534132Y0001693040D01*
X0003533062Y0001715490D01*
X0003527833Y0001728114D01*
X0003540205Y0001736076D01*
X0003550336Y0001750903D01*
X0003553900Y0001768503D01*
X0003553900Y0001831496D01*
X0003552746Y0001837629D01*
X0003587165Y0001837629D01*
X0003607206Y0001841616D01*
X0003617555Y0001848531D01*
X0003617555Y0001785629D01*
G36*
X0003644748Y0002239156D02*
X0003649515Y0002230000D01*
X0003690094Y0002230000D01*
X0003694537Y0002225556D01*
X0003701608Y0002232627D01*
X0003697165Y0002237071D01*
X0003697165Y0002250629D01*
X0003707165Y0002250629D01*
X0003707165Y0002237071D01*
X0003702722Y0002232627D01*
X0003709793Y0002225556D01*
X0003714236Y0002230000D01*
X0003754814Y0002230000D01*
X0003759582Y0002239156D01*
X0003754207Y0002250629D01*
X0003772302Y0002250629D01*
X0003815304Y0002242076D01*
X0003847637Y0002220472D01*
X0003869241Y0002188139D01*
X0003877795Y0002145137D01*
X0003877795Y0001692783D01*
X0003874650Y0001695933D01*
X0003843891Y0001708705D01*
X0003810585Y0001708734D01*
X0003779803Y0001696015D01*
X0003777181Y0001693398D01*
X0003774650Y0001695933D01*
X0003761988Y0001701190D01*
X0003766964Y0001714585D01*
X0003766017Y0001740175D01*
X0003763243Y0001746872D01*
X0003773079Y0001753202D01*
X0003783210Y0001768029D01*
X0003786774Y0001785629D01*
X0003786774Y0001864370D01*
X0003783680Y0001880812D01*
X0003773963Y0001895914D01*
X0003762849Y0001903507D01*
X0003766964Y0001914585D01*
X0003766017Y0001940175D01*
X0003763243Y0001946872D01*
X0003773079Y0001953202D01*
X0003783210Y0001968029D01*
X0003786774Y0001985629D01*
X0003786774Y0002064370D01*
X0003783680Y0002080812D01*
X0003773963Y0002095914D01*
X0003773885Y0002095967D01*
X0003779522Y0002109542D01*
X0003779548Y0002140322D01*
X0003767794Y0002168769D01*
X0003747722Y0002188876D01*
X0003752775Y0002194410D01*
X0003759582Y0002210843D01*
X0003754814Y0002220000D01*
X0003714236Y0002220000D01*
X0003709793Y0002224443D01*
X0003702722Y0002217372D01*
X0003707165Y0002212928D01*
X0003707165Y0002202365D01*
X0003697165Y0002202374D01*
X0003697165Y0002212928D01*
X0003701608Y0002217372D01*
X0003694537Y0002224443D01*
X0003690094Y0002220000D01*
X0003649515Y0002220000D01*
X0003644748Y0002210843D01*
X0003654536Y0002189948D01*
X0003656196Y0002188433D01*
X0003636612Y0002168883D01*
X0003635526Y0002166267D01*
X0003635530Y0002171456D01*
X0003619070Y0002211293D01*
X0003588618Y0002241798D01*
X0003567349Y0002250629D01*
X0003649501Y0002250629D01*
X0003644748Y0002239156D01*
X0003644748Y0002239156D01*
G37*
X0003644748Y0002239156D02*
X0003649515Y0002230000D01*
X0003690094Y0002230000D01*
X0003694537Y0002225556D01*
X0003701608Y0002232627D01*
X0003697165Y0002237071D01*
X0003697165Y0002250629D01*
X0003707165Y0002250629D01*
X0003707165Y0002237071D01*
X0003702722Y0002232627D01*
X0003709793Y0002225556D01*
X0003714236Y0002230000D01*
X0003754814Y0002230000D01*
X0003759582Y0002239156D01*
X0003754207Y0002250629D01*
X0003772302Y0002250629D01*
X0003815304Y0002242076D01*
X0003847637Y0002220472D01*
X0003869241Y0002188139D01*
X0003877795Y0002145137D01*
X0003877795Y0001692783D01*
X0003874650Y0001695933D01*
X0003843891Y0001708705D01*
X0003810585Y0001708734D01*
X0003779803Y0001696015D01*
X0003777181Y0001693398D01*
X0003774650Y0001695933D01*
X0003761988Y0001701190D01*
X0003766964Y0001714585D01*
X0003766017Y0001740175D01*
X0003763243Y0001746872D01*
X0003773079Y0001753202D01*
X0003783210Y0001768029D01*
X0003786774Y0001785629D01*
X0003786774Y0001864370D01*
X0003783680Y0001880812D01*
X0003773963Y0001895914D01*
X0003762849Y0001903507D01*
X0003766964Y0001914585D01*
X0003766017Y0001940175D01*
X0003763243Y0001946872D01*
X0003773079Y0001953202D01*
X0003783210Y0001968029D01*
X0003786774Y0001985629D01*
X0003786774Y0002064370D01*
X0003783680Y0002080812D01*
X0003773963Y0002095914D01*
X0003773885Y0002095967D01*
X0003779522Y0002109542D01*
X0003779548Y0002140322D01*
X0003767794Y0002168769D01*
X0003747722Y0002188876D01*
X0003752775Y0002194410D01*
X0003759582Y0002210843D01*
X0003754814Y0002220000D01*
X0003714236Y0002220000D01*
X0003709793Y0002224443D01*
X0003702722Y0002217372D01*
X0003707165Y0002212928D01*
X0003707165Y0002202365D01*
X0003697165Y0002202374D01*
X0003697165Y0002212928D01*
X0003701608Y0002217372D01*
X0003694537Y0002224443D01*
X0003690094Y0002220000D01*
X0003649515Y0002220000D01*
X0003644748Y0002210843D01*
X0003654536Y0002189948D01*
X0003656196Y0002188433D01*
X0003636612Y0002168883D01*
X0003635526Y0002166267D01*
X0003635530Y0002171456D01*
X0003619070Y0002211293D01*
X0003588618Y0002241798D01*
X0003567349Y0002250629D01*
X0003649501Y0002250629D01*
X0003644748Y0002239156D01*
G36*
X0003709793Y0001925556D02*
X0003709236Y0001925000D01*
X0003709793Y0001924443D01*
X0003702722Y0001917372D01*
X0003702165Y0001917928D01*
X0003701608Y0001917372D01*
X0003694537Y0001924443D01*
X0003695094Y0001925000D01*
X0003694537Y0001925556D01*
X0003701608Y0001932627D01*
X0003702165Y0001932071D01*
X0003702722Y0001932627D01*
X0003709793Y0001925556D01*
X0003709793Y0001925556D01*
G37*
X0003709793Y0001925556D02*
X0003709236Y0001925000D01*
X0003709793Y0001924443D01*
X0003702722Y0001917372D01*
X0003702165Y0001917928D01*
X0003701608Y0001917372D01*
X0003694537Y0001924443D01*
X0003695094Y0001925000D01*
X0003694537Y0001925556D01*
X0003701608Y0001932627D01*
X0003702165Y0001932071D01*
X0003702722Y0001932627D01*
X0003709793Y0001925556D01*
G36*
X0003435260Y0002088706D02*
X0003465711Y0002058201D01*
X0003505519Y0002041672D01*
X0003516453Y0002041662D01*
X0003518781Y0002029958D01*
X0003523319Y0002023168D01*
X0003522286Y0002020375D01*
X0003560590Y0001982071D01*
X0003561147Y0001982627D01*
X0003568218Y0001975556D01*
X0003567661Y0001975000D01*
X0003568218Y0001974443D01*
X0003561147Y0001967372D01*
X0003560590Y0001967928D01*
X0003560033Y0001967372D01*
X0003552962Y0001974443D01*
X0003553519Y0001975000D01*
X0003515215Y0002013304D01*
X0003504709Y0002009419D01*
X0003495791Y0001985414D01*
X0003496737Y0001959824D01*
X0003503967Y0001942370D01*
X0003440863Y0001942370D01*
X0003447465Y0001958269D01*
X0003447494Y0001991583D01*
X0003434773Y0002022372D01*
X0003419404Y0002037768D01*
X0003419535Y0002038425D01*
X0003419535Y0002126763D01*
X0003435260Y0002088706D01*
X0003435260Y0002088706D01*
G37*
X0003435260Y0002088706D02*
X0003465711Y0002058201D01*
X0003505519Y0002041672D01*
X0003516453Y0002041662D01*
X0003518781Y0002029958D01*
X0003523319Y0002023168D01*
X0003522286Y0002020375D01*
X0003560590Y0001982071D01*
X0003561147Y0001982627D01*
X0003568218Y0001975556D01*
X0003567661Y0001975000D01*
X0003568218Y0001974443D01*
X0003561147Y0001967372D01*
X0003560590Y0001967928D01*
X0003560033Y0001967372D01*
X0003552962Y0001974443D01*
X0003553519Y0001975000D01*
X0003515215Y0002013304D01*
X0003504709Y0002009419D01*
X0003495791Y0001985414D01*
X0003496737Y0001959824D01*
X0003503967Y0001942370D01*
X0003440863Y0001942370D01*
X0003447465Y0001958269D01*
X0003447494Y0001991583D01*
X0003434773Y0002022372D01*
X0003419404Y0002037768D01*
X0003419535Y0002038425D01*
X0003419535Y0002126763D01*
X0003435260Y0002088706D01*
G36*
X0002922165Y0001975000D02*
X0002922952Y0001975000D01*
X0002922952Y0001965000D01*
X0002922165Y0001965000D01*
X0002922165Y0001964212D01*
X0002912165Y0001964212D01*
X0002912165Y0001965000D01*
X0002911377Y0001965000D01*
X0002911377Y0001975000D01*
X0002912165Y0001975000D01*
X0002912165Y0001975787D01*
X0002922165Y0001975787D01*
X0002922165Y0001975000D01*
X0002922165Y0001975000D01*
G37*
X0002922165Y0001975000D02*
X0002922952Y0001975000D01*
X0002922952Y0001965000D01*
X0002922165Y0001965000D01*
X0002922165Y0001964212D01*
X0002912165Y0001964212D01*
X0002912165Y0001965000D01*
X0002911377Y0001965000D01*
X0002911377Y0001975000D01*
X0002912165Y0001975000D01*
X0002912165Y0001975787D01*
X0002922165Y0001975787D01*
X0002922165Y0001975000D01*
M02*