%MOIN*%
%OFA0B0*%
%FSLAX44Y44*%
%IPPOS*%
%LPD*%
%ADD10C,0*%
D10*
X00006730Y00024015D02*
X00006730Y00024015D01*
X00017811Y00024015D01*
X00017835Y00024015D01*
X00017859Y00024012D01*
X00017883Y00024009D01*
X00017907Y00024003D01*
X00017930Y00023997D01*
X00017953Y00023989D01*
X00017975Y00023979D01*
X00017997Y00023969D01*
X00018018Y00023956D01*
X00018038Y00023943D01*
X00018057Y00023929D01*
X00018076Y00023913D01*
X00018093Y00023896D01*
X00018109Y00023878D01*
X00018124Y00023859D01*
X00018139Y00023840D01*
X00018151Y00023819D01*
X00018163Y00023798D01*
X00018173Y00023776D01*
X00018182Y00023753D01*
X00018263Y00023525D01*
X00018274Y00023489D01*
X00018281Y00023452D01*
X00018285Y00023414D01*
X00018285Y00023377D01*
X00018282Y00023339D01*
X00018275Y00023302D01*
X00018264Y00023266D01*
X00018250Y00023231D01*
X00018233Y00023198D01*
X00018213Y00023166D01*
X00018190Y00023136D01*
X00018164Y00023109D01*
X00018136Y00023084D01*
X00018105Y00023062D01*
X00018073Y00023044D01*
X00018038Y00023028D01*
X00018003Y00023016D01*
X00017966Y00023007D01*
X00017929Y00023001D01*
X00017892Y00023000D01*
X00014885Y00023000D01*
X00014717Y00022990D01*
X00014552Y00022962D01*
X00014390Y00022915D01*
X00014234Y00022851D01*
X00014087Y00022770D01*
X00013950Y00022672D01*
X00013825Y00022560D01*
X00013713Y00022435D01*
X00013615Y00022298D01*
X00013534Y00022150D01*
X00013469Y00021995D01*
X00013423Y00021833D01*
X00013395Y00021667D01*
X00013385Y00021500D01*
X00013385Y00012042D01*
X00013384Y00012012D01*
X00013381Y00011982D01*
X00013375Y00011953D01*
X00013367Y00011924D01*
X00013357Y00011896D01*
X00013345Y00011869D01*
X00013331Y00011843D01*
X00013315Y00011818D01*
X00013297Y00011794D01*
X00013278Y00011771D01*
X00013256Y00011750D01*
X00013234Y00011731D01*
X00013209Y00011714D01*
X00013184Y00011698D01*
X00013157Y00011685D01*
X00013130Y00011673D01*
X00013102Y00011664D01*
X00013073Y00011657D01*
X00013043Y00011651D01*
X00013014Y00011649D01*
X00012915Y00011643D01*
X00012883Y00011643D01*
X00012851Y00011645D01*
X00012820Y00011649D01*
X00012788Y00011657D01*
X00012758Y00011666D01*
X00012728Y00011679D01*
X00012700Y00011693D01*
X00012673Y00011710D01*
X00012647Y00011729D01*
X00012623Y00011750D01*
X00012600Y00011773D01*
X00012580Y00011798D01*
X00012562Y00011824D01*
X00012545Y00011852D01*
X00012532Y00011880D01*
X00012520Y00011910D01*
X00012511Y00011941D01*
X00012505Y00011972D01*
X00012501Y00012004D01*
X00012499Y00012036D01*
X00012499Y00021500D01*
X00012490Y00021667D01*
X00012462Y00021833D01*
X00012415Y00021995D01*
X00012351Y00022150D01*
X00012270Y00022298D01*
X00012172Y00022435D01*
X00012060Y00022560D01*
X00011935Y00022672D01*
X00011798Y00022770D01*
X00011650Y00022851D01*
X00011495Y00022915D01*
X00011333Y00022962D01*
X00011167Y00022990D01*
X00011000Y00023000D01*
X00006797Y00023000D01*
X00006771Y00023000D01*
X00006746Y00023003D01*
X00006721Y00023007D01*
X00006696Y00023012D01*
X00006672Y00023020D01*
X00006648Y00023029D01*
X00006625Y00023039D01*
X00006603Y00023051D01*
X00006581Y00023064D01*
X00006560Y00023078D01*
X00006541Y00023094D01*
X00006522Y00023111D01*
X00006504Y00023130D01*
X00006488Y00023149D01*
X00006473Y00023169D01*
X00006459Y00023191D01*
X00006447Y00023213D01*
X00006436Y00023236D01*
X00006426Y00023259D01*
X00006419Y00023283D01*
X00006352Y00023512D01*
X00006344Y00023547D01*
X00006338Y00023583D01*
X00006336Y00023620D01*
X00006338Y00023656D01*
X00006343Y00023692D01*
X00006351Y00023728D01*
X00006362Y00023762D01*
X00006377Y00023796D01*
X00006395Y00023828D01*
X00006415Y00023858D01*
X00006438Y00023886D01*
X00006464Y00023912D01*
X00006492Y00023935D01*
X00006522Y00023956D01*
X00006554Y00023974D01*
X00006587Y00023988D01*
X00006622Y00024000D01*
X00006658Y00024009D01*
X00006694Y00024014D01*
X00006730Y00024015D01*
X00026771Y00019849D02*
X00026771Y00019849D01*
X00026770Y00019817D01*
X00026766Y00019784D01*
X00026759Y00019752D01*
X00026750Y00019721D01*
X00026738Y00019690D01*
X00026723Y00019661D01*
X00026706Y00019633D01*
X00026687Y00019606D01*
X00026666Y00019581D01*
X00026643Y00019558D01*
X00026618Y00019537D01*
X00026591Y00019519D01*
X00026563Y00019502D01*
X00026533Y00019488D01*
X00026503Y00019476D01*
X00026471Y00019467D01*
X00026439Y00019461D01*
X00026407Y00019457D01*
X00026374Y00019456D01*
X00026341Y00019457D01*
X00026243Y00019466D01*
X00026214Y00019470D01*
X00026185Y00019476D01*
X00026157Y00019484D01*
X00026130Y00019494D01*
X00026104Y00019506D01*
X00026078Y00019520D01*
X00026054Y00019536D01*
X00026030Y00019553D01*
X00026008Y00019572D01*
X00025988Y00019593D01*
X00025969Y00019615D01*
X00025952Y00019639D01*
X00025937Y00019664D01*
X00025923Y00019689D01*
X00025912Y00019716D01*
X00025902Y00019744D01*
X00025895Y00019772D01*
X00025890Y00019800D01*
X00025886Y00019829D01*
X00025885Y00019858D01*
X00025885Y00021500D01*
X00025876Y00021667D01*
X00025848Y00021833D01*
X00025801Y00021995D01*
X00025737Y00022150D01*
X00025655Y00022298D01*
X00025558Y00022435D01*
X00025446Y00022560D01*
X00025321Y00022672D01*
X00025183Y00022770D01*
X00025036Y00022851D01*
X00024881Y00022915D01*
X00024719Y00022962D01*
X00024553Y00022990D01*
X00024385Y00023000D01*
X00019935Y00023000D01*
X00019897Y00023001D01*
X00019860Y00023007D01*
X00019824Y00023016D01*
X00019788Y00023028D01*
X00019754Y00023044D01*
X00019721Y00023062D01*
X00019691Y00023084D01*
X00019663Y00023109D01*
X00019637Y00023136D01*
X00019613Y00023166D01*
X00019593Y00023198D01*
X00019576Y00023231D01*
X00019562Y00023266D01*
X00019552Y00023302D01*
X00019545Y00023339D01*
X00019542Y00023377D01*
X00019542Y00023414D01*
X00019546Y00023452D01*
X00019553Y00023489D01*
X00019564Y00023525D01*
X00019645Y00023753D01*
X00019654Y00023776D01*
X00019664Y00023798D01*
X00019675Y00023819D01*
X00019688Y00023840D01*
X00019702Y00023859D01*
X00019717Y00023878D01*
X00019734Y00023896D01*
X00019751Y00023913D01*
X00019769Y00023929D01*
X00019789Y00023943D01*
X00019809Y00023956D01*
X00019830Y00023969D01*
X00019852Y00023979D01*
X00019874Y00023989D01*
X00019897Y00023997D01*
X00019920Y00024003D01*
X00019944Y00024009D01*
X00019968Y00024012D01*
X00019992Y00024015D01*
X00020016Y00024015D01*
X00021728Y00024015D01*
X00021896Y00024025D01*
X00022062Y00024053D01*
X00022223Y00024099D01*
X00022379Y00024164D01*
X00022526Y00024245D01*
X00022663Y00024343D01*
X00022789Y00024455D01*
X00022901Y00024580D01*
X00022998Y00024717D01*
X00023079Y00024864D01*
X00023144Y00025020D01*
X00023190Y00025181D01*
X00023218Y00025347D01*
X00023228Y00025515D01*
X00023228Y00035015D01*
X00023218Y00035183D01*
X00023190Y00035349D01*
X00023144Y00035511D01*
X00023079Y00035666D01*
X00022998Y00035813D01*
X00022901Y00035950D01*
X00022789Y00036076D01*
X00022663Y00036188D01*
X00022526Y00036285D01*
X00022379Y00036367D01*
X00022223Y00036431D01*
X00022062Y00036478D01*
X00021896Y00036506D01*
X00021728Y00036515D01*
X00001728Y00036515D01*
X00001560Y00036506D01*
X00001394Y00036478D01*
X00001232Y00036431D01*
X00001077Y00036367D01*
X00000930Y00036285D01*
X00000793Y00036188D01*
X00000667Y00036076D01*
X00000555Y00035950D01*
X00000458Y00035813D01*
X00000376Y00035666D01*
X00000312Y00035511D01*
X00000265Y00035349D01*
X00000237Y00035183D01*
X00000228Y00035015D01*
X00000228Y00025515D01*
X00000237Y00025347D01*
X00000265Y00025181D01*
X00000312Y00025020D01*
X00000376Y00024864D01*
X00000458Y00024717D01*
X00000555Y00024580D01*
X00000667Y00024455D01*
X00000793Y00024343D01*
X00000930Y00024245D01*
X00001077Y00024164D01*
X00001232Y00024099D01*
X00001394Y00024053D01*
X00001560Y00024025D01*
X00001728Y00024015D01*
X00004670Y00024015D01*
X00004706Y00024014D01*
X00004742Y00024009D01*
X00004778Y00024000D01*
X00004812Y00023988D01*
X00004846Y00023974D01*
X00004877Y00023956D01*
X00004907Y00023935D01*
X00004935Y00023912D01*
X00004961Y00023886D01*
X00004984Y00023858D01*
X00005005Y00023828D01*
X00005023Y00023796D01*
X00005037Y00023762D01*
X00005049Y00023728D01*
X00005057Y00023692D01*
X00005062Y00023656D01*
X00005063Y00023620D01*
X00005061Y00023583D01*
X00005056Y00023547D01*
X00005048Y00023512D01*
X00004981Y00023283D01*
X00004973Y00023259D01*
X00004964Y00023236D01*
X00004953Y00023213D01*
X00004941Y00023191D01*
X00004927Y00023169D01*
X00004912Y00023149D01*
X00004895Y00023130D01*
X00004878Y00023111D01*
X00004859Y00023094D01*
X00004839Y00023078D01*
X00004819Y00023064D01*
X00004797Y00023051D01*
X00004775Y00023039D01*
X00004751Y00023029D01*
X00004728Y00023020D01*
X00004703Y00023012D01*
X00004679Y00023007D01*
X00004654Y00023003D01*
X00004628Y00023000D01*
X00004603Y00023000D01*
X00001500Y00023000D01*
X00001332Y00022990D01*
X00001166Y00022962D01*
X00001004Y00022915D01*
X00000849Y00022851D01*
X00000701Y00022770D01*
X00000564Y00022672D01*
X00000439Y00022560D01*
X00000327Y00022435D01*
X00000229Y00022298D01*
X00000148Y00022150D01*
X00000084Y00021995D01*
X00000037Y00021833D01*
X00000009Y00021667D01*
X00000000Y00021500D01*
X00000000Y00001499D01*
X00000009Y00001332D01*
X00000037Y00001166D01*
X00000084Y00001004D01*
X00000148Y00000849D01*
X00000229Y00000701D01*
X00000327Y00000564D01*
X00000439Y00000439D01*
X00000564Y00000327D01*
X00000701Y00000229D01*
X00000849Y00000148D01*
X00001004Y00000084D01*
X00001166Y00000037D01*
X00001332Y00000009D01*
X00001500Y00000000D01*
X00011000Y00000000D01*
X00011167Y00000009D01*
X00011333Y00000037D01*
X00011495Y00000084D01*
X00011650Y00000148D01*
X00011798Y00000229D01*
X00011935Y00000327D01*
X00012060Y00000439D01*
X00012172Y00000564D01*
X00012270Y00000701D01*
X00012351Y00000849D01*
X00012415Y00001004D01*
X00012462Y00001166D01*
X00012490Y00001332D01*
X00012499Y00001499D01*
X00012499Y00009852D01*
X00012501Y00009884D01*
X00012505Y00009916D01*
X00012511Y00009947D01*
X00012520Y00009978D01*
X00012532Y00010008D01*
X00012545Y00010037D01*
X00012562Y00010064D01*
X00012580Y00010090D01*
X00012600Y00010115D01*
X00012623Y00010138D01*
X00012647Y00010159D01*
X00012673Y00010178D01*
X00012700Y00010195D01*
X00012728Y00010210D01*
X00012758Y00010222D01*
X00012788Y00010232D01*
X00012820Y00010239D01*
X00012851Y00010243D01*
X00012883Y00010246D01*
X00012915Y00010245D01*
X00013014Y00010240D01*
X00013043Y00010237D01*
X00013073Y00010232D01*
X00013102Y00010224D01*
X00013130Y00010215D01*
X00013157Y00010203D01*
X00013184Y00010190D01*
X00013209Y00010174D01*
X00013234Y00010157D01*
X00013256Y00010138D01*
X00013278Y00010117D01*
X00013297Y00010094D01*
X00013315Y00010071D01*
X00013331Y00010046D01*
X00013345Y00010019D01*
X00013357Y00009992D01*
X00013367Y00009964D01*
X00013375Y00009935D01*
X00013381Y00009906D01*
X00013384Y00009876D01*
X00013385Y00009846D01*
X00013385Y00001499D01*
X00013395Y00001332D01*
X00013423Y00001166D01*
X00013469Y00001004D01*
X00013534Y00000849D01*
X00013615Y00000701D01*
X00013713Y00000564D01*
X00013825Y00000439D01*
X00013950Y00000327D01*
X00014087Y00000229D01*
X00014234Y00000148D01*
X00014390Y00000084D01*
X00014552Y00000037D01*
X00014717Y00000009D01*
X00014885Y00000000D01*
X00024385Y00000000D01*
X00024553Y00000009D01*
X00024719Y00000037D01*
X00024881Y00000084D01*
X00025036Y00000148D01*
X00025183Y00000229D01*
X00025321Y00000327D01*
X00025446Y00000439D01*
X00025558Y00000564D01*
X00025655Y00000701D01*
X00025737Y00000849D01*
X00025801Y00001004D01*
X00025848Y00001166D01*
X00025876Y00001332D01*
X00025885Y00001499D01*
X00025885Y00002852D01*
X00025886Y00002881D01*
X00025890Y00002910D01*
X00025895Y00002939D01*
X00025902Y00002967D01*
X00025912Y00002995D01*
X00025923Y00003021D01*
X00025937Y00003047D01*
X00025952Y00003072D01*
X00025969Y00003095D01*
X00025988Y00003118D01*
X00026008Y00003138D01*
X00026030Y00003158D01*
X00026054Y00003175D01*
X00026078Y00003191D01*
X00026104Y00003205D01*
X00026130Y00003217D01*
X00026157Y00003227D01*
X00026185Y00003235D01*
X00026214Y00003241D01*
X00026243Y00003244D01*
X00026341Y00003253D01*
X00026374Y00003255D01*
X00026407Y00003254D01*
X00026439Y00003250D01*
X00026471Y00003244D01*
X00026503Y00003235D01*
X00026533Y00003223D01*
X00026563Y00003209D01*
X00026591Y00003192D01*
X00026618Y00003173D01*
X00026643Y00003152D01*
X00026666Y00003129D01*
X00026687Y00003104D01*
X00026706Y00003078D01*
X00026723Y00003050D01*
X00026738Y00003020D01*
X00026750Y00002990D01*
X00026759Y00002959D01*
X00026766Y00002927D01*
X00026770Y00002894D01*
X00026771Y00002861D01*
X00026771Y00001499D01*
X00026781Y00001332D01*
X00026809Y00001166D01*
X00026855Y00001004D01*
X00026920Y00000849D01*
X00027001Y00000701D01*
X00027098Y00000564D01*
X00027210Y00000439D01*
X00027336Y00000327D01*
X00027473Y00000229D01*
X00027620Y00000148D01*
X00027776Y00000084D01*
X00027937Y00000037D01*
X00028103Y00000009D01*
X00028271Y00000000D01*
X00037771Y00000000D01*
X00037939Y00000009D01*
X00038105Y00000037D01*
X00038267Y00000084D01*
X00038422Y00000148D01*
X00038569Y00000229D01*
X00038706Y00000327D01*
X00038832Y00000439D01*
X00038944Y00000564D01*
X00039041Y00000701D01*
X00039123Y00000849D01*
X00039187Y00001004D01*
X00039234Y00001166D01*
X00039262Y00001332D01*
X00039271Y00001499D01*
X00039271Y00021500D01*
X00039262Y00021667D01*
X00039234Y00021833D01*
X00039187Y00021995D01*
X00039123Y00022150D01*
X00039041Y00022298D01*
X00038944Y00022435D01*
X00038832Y00022560D01*
X00038706Y00022672D01*
X00038569Y00022770D01*
X00038422Y00022851D01*
X00038267Y00022915D01*
X00038105Y00022962D01*
X00037939Y00022990D01*
X00037771Y00023000D01*
X00028271Y00023000D01*
X00028103Y00022990D01*
X00027937Y00022962D01*
X00027776Y00022915D01*
X00027620Y00022851D01*
X00027473Y00022770D01*
X00027336Y00022672D01*
X00027210Y00022560D01*
X00027098Y00022435D01*
X00027001Y00022298D01*
X00026920Y00022150D01*
X00026855Y00021995D01*
X00026809Y00021833D01*
X00026781Y00021667D01*
X00026771Y00021500D01*
X00026771Y00019849D01*
X00026771Y00005042D02*
X00026771Y00005042D01*
X00026770Y00005009D01*
X00026766Y00004977D01*
X00026759Y00004945D01*
X00026750Y00004913D01*
X00026738Y00004883D01*
X00026723Y00004854D01*
X00026706Y00004826D01*
X00026687Y00004799D01*
X00026666Y00004774D01*
X00026643Y00004751D01*
X00026618Y00004730D01*
X00026591Y00004711D01*
X00026563Y00004695D01*
X00026533Y00004680D01*
X00026503Y00004669D01*
X00026471Y00004660D01*
X00026439Y00004653D01*
X00026407Y00004649D01*
X00026374Y00004648D01*
X00026341Y00004650D01*
X00026243Y00004659D01*
X00026214Y00004663D01*
X00026185Y00004669D01*
X00026157Y00004677D01*
X00026130Y00004687D01*
X00026104Y00004699D01*
X00026078Y00004713D01*
X00026054Y00004728D01*
X00026030Y00004746D01*
X00026008Y00004765D01*
X00025988Y00004786D01*
X00025969Y00004808D01*
X00025952Y00004832D01*
X00025937Y00004856D01*
X00025923Y00004882D01*
X00025912Y00004909D01*
X00025902Y00004936D01*
X00025895Y00004965D01*
X00025890Y00004993D01*
X00025886Y00005022D01*
X00025885Y00005051D01*
X00025885Y00017660D01*
X00025886Y00017689D01*
X00025890Y00017718D01*
X00025895Y00017746D01*
X00025902Y00017774D01*
X00025912Y00017802D01*
X00025923Y00017829D01*
X00025937Y00017854D01*
X00025952Y00017879D01*
X00025969Y00017903D01*
X00025988Y00017925D01*
X00026008Y00017946D01*
X00026030Y00017965D01*
X00026054Y00017982D01*
X00026078Y00017998D01*
X00026104Y00018012D01*
X00026130Y00018024D01*
X00026157Y00018034D01*
X00026185Y00018042D01*
X00026214Y00018048D01*
X00026243Y00018052D01*
X00026341Y00018061D01*
X00026374Y00018062D01*
X00026407Y00018061D01*
X00026439Y00018058D01*
X00026471Y00018051D01*
X00026503Y00018042D01*
X00026533Y00018030D01*
X00026563Y00018016D01*
X00026591Y00018000D01*
X00026618Y00017981D01*
X00026643Y00017960D01*
X00026666Y00017937D01*
X00026687Y00017912D01*
X00026706Y00017885D01*
X00026723Y00017857D01*
X00026738Y00017828D01*
X00026750Y00017797D01*
X00026759Y00017766D01*
X00026766Y00017734D01*
X00026770Y00017701D01*
X00026771Y00017669D01*
X00026771Y00005042D01*
M02*