%MOIN*%
%OFA0B0*%
%FSLAX46Y46*%
%IPPOS*%
%LPD*%
%ADD10C,0.0039370078740157488*%
%ADD11C,0.066*%
%ADD12R,0.066X0.066*%
%ADD13R,0.07874015748031496X0.07874015748031496*%
%ADD14C,0.07874015748031496*%
%ADD15R,0.08X0.068*%
%ADD16O,0.08X0.068*%
%ADD17O,0.086614173228346469X0.066929133858267723*%
%ADD18R,0.070866141732283464X0.070866141732283464*%
%ADD19C,0.070866141732283464*%
%ADD20O,0.07874015748031496X0.062992125984251982*%
%ADD21C,0.062992125984251982*%
%ADD22R,0.062992125984251982X0.062992125984251982*%
%ADD23C,0.094488188976377951*%
%ADD24R,0.094488188976377951X0.094488188976377951*%
%ADD25C,0.0787*%
%ADD26C,0.027*%
%ADD27C,0.016*%
%ADD28C,0.024000000000000004*%
%ADD29C,0.01*%
%ADD40C,0.0039370078740157488*%
%ADD41C,0.066*%
%ADD42R,0.066X0.066*%
%ADD43R,0.07874015748031496X0.07874015748031496*%
%ADD44C,0.07874015748031496*%
%ADD45R,0.068X0.08*%
%ADD46O,0.068X0.08*%
%ADD47O,0.066929133858267723X0.086614173228346469*%
%ADD48R,0.070866141732283464X0.070866141732283464*%
%ADD49C,0.070866141732283464*%
%ADD50O,0.062992125984251982X0.07874015748031496*%
%ADD51C,0.062992125984251982*%
%ADD52R,0.062992125984251982X0.062992125984251982*%
%ADD53C,0.094488188976377951*%
%ADD54R,0.094488188976377951X0.094488188976377951*%
%ADD55C,0.0787*%
%ADD56C,0.027*%
%ADD57C,0.016*%
%ADD58C,0.024000000000000004*%
%ADD59C,0.01*%
%ADD60C,0.0039370078740157488*%
%ADD61C,0.066*%
%ADD62R,0.066X0.066*%
%ADD63R,0.07874015748031496X0.07874015748031496*%
%ADD64C,0.07874015748031496*%
%ADD65R,0.08X0.068*%
%ADD66O,0.08X0.068*%
%ADD67O,0.086614173228346469X0.066929133858267723*%
%ADD68R,0.070866141732283464X0.070866141732283464*%
%ADD69C,0.070866141732283464*%
%ADD70O,0.07874015748031496X0.062992125984251982*%
%ADD71C,0.062992125984251982*%
%ADD72R,0.062992125984251982X0.062992125984251982*%
%ADD73C,0.094488188976377951*%
%ADD74R,0.094488188976377951X0.094488188976377951*%
%ADD75C,0.0787*%
%ADD76C,0.027*%
%ADD77C,0.016*%
%ADD78C,0.024000000000000004*%
%ADD79C,0.01*%
%ADD80C,0.0039370078740157488*%
%ADD81C,0.066*%
%ADD82R,0.066X0.066*%
%ADD83R,0.07874015748031496X0.07874015748031496*%
%ADD84C,0.07874015748031496*%
%ADD85R,0.08X0.068*%
%ADD86O,0.08X0.068*%
%ADD87O,0.086614173228346469X0.066929133858267723*%
%ADD88R,0.070866141732283464X0.070866141732283464*%
%ADD89C,0.070866141732283464*%
%ADD90O,0.07874015748031496X0.062992125984251982*%
%ADD91C,0.062992125984251982*%
%ADD92R,0.062992125984251982X0.062992125984251982*%
%ADD93C,0.094488188976377951*%
%ADD94R,0.094488188976377951X0.094488188976377951*%
%ADD95C,0.0787*%
%ADD96C,0.027*%
%ADD97C,0.016*%
%ADD98C,0.024000000000000004*%
%ADD99C,0.01*%
G01*
D10*
D11*
X-0004799999Y0004650000D02*
X0001025000Y0000075000D03*
D12*
X0001025000Y0000175000D03*
D13*
X0000100000Y0000250000D03*
D14*
X0000100000Y0000348425D03*
X0000100000Y0000446850D03*
X0000100000Y0000545275D03*
X0000100000Y0000643700D03*
D15*
X0000500000Y0001675000D03*
D16*
X0000500000Y0001775000D03*
X0000500000Y0001875000D03*
D17*
X0000300000Y0000100000D03*
X0000300000Y0000200000D03*
X0000300000Y0000300000D03*
X0000300000Y0000400000D03*
X0000300000Y0000500000D03*
X0000300000Y0000600000D03*
X0000300000Y0000700000D03*
X0000300000Y0000800000D03*
X0000300000Y0000900000D03*
X0000300000Y0001000000D03*
X0000300000Y0001100000D03*
X0000300000Y0001200000D03*
X0000300000Y0001300000D03*
X0000300000Y0001400000D03*
D14*
X0000701574Y0001950000D03*
X0000898425Y0001950000D03*
X0001025000Y0000275000D03*
D13*
X0001025000Y0000375000D03*
D18*
X0000510000Y0000515000D03*
D19*
X0000510000Y0000416574D03*
D14*
X0000425000Y0000169999D03*
X0000425000Y0000268425D03*
D20*
X0000800000Y0000700000D03*
X0000800000Y0000800000D03*
X0000800000Y0000900000D03*
X0000800000Y0001000000D03*
X0000800000Y0001100000D03*
X0000800000Y0001200000D03*
X0000800000Y0001300000D03*
X0000800000Y0001400000D03*
X0000800000Y0001500000D03*
X0000500000Y0001500000D03*
X0000500000Y0001400000D03*
X0000500000Y0001300000D03*
X0000500000Y0001200000D03*
X0000500000Y0001100000D03*
X0000500000Y0001000000D03*
X0000500000Y0000900000D03*
X0000500000Y0000800000D03*
X0000500000Y0000700000D03*
D21*
X0000800000Y0001701574D03*
D22*
X0000800000Y0001800000D03*
D13*
X0000400000Y0002200000D03*
D14*
X0000500000Y0002200000D03*
X0000600000Y0002200000D03*
D23*
X0000240000Y0001832204D03*
D24*
X0000240000Y0001970000D03*
D23*
X0000240000Y0001542204D03*
D24*
X0000240000Y0001680000D03*
D14*
X0001011417Y0001277952D03*
X0001188582Y0001277952D03*
X0001011417Y0001022047D03*
X0001188582Y0001022047D03*
X0001025000Y0000475000D03*
D13*
X0001025000Y0000575000D03*
D14*
X0001025000Y0001925000D03*
D13*
X0001025000Y0002025000D03*
D14*
X0001025000Y0001725000D03*
D13*
X0001025000Y0001825000D03*
D25*
X0000675000Y0000275000D03*
X0000675000Y0000525000D03*
X0000775000Y0000275000D03*
X0000775000Y0000525000D03*
X0001150000Y0001375000D03*
X0001150000Y0001625000D03*
X0001050000Y0001375000D03*
X0001050000Y0001625000D03*
X0001150000Y0000925000D03*
X0001150000Y0000675000D03*
X0001050000Y0000925000D03*
X0001050000Y0000675000D03*
D17*
X0000900000Y0000100000D03*
X0000900000Y0000200000D03*
X0000900000Y0000300000D03*
X0000900000Y0000400000D03*
X0000900000Y0000500000D03*
X0000900000Y0000600000D03*
X0000900000Y0000700000D03*
X0000900000Y0000800000D03*
X0000900000Y0000900000D03*
X0000900000Y0001000000D03*
X0000900000Y0001100000D03*
X0000900000Y0001200000D03*
X0000900000Y0001300000D03*
X0000900000Y0001400000D03*
D13*
X0000100000Y0000950000D03*
D14*
X0000100000Y0001048425D03*
X0000100000Y0001146850D03*
X0000100000Y0001245275D03*
X0000100000Y0001343700D03*
D11*
X0001025000Y0002125000D03*
D12*
X0001025000Y0002225000D03*
D26*
X0000080000Y0001430000D03*
D27*
X0000892500Y0002052500D02*
X0000890000Y0002050000D01*
D28*
X0000500000Y0001875000D02*
X0000525000Y0001875000D01*
X0000525000Y0001875000D02*
X0000600000Y0001800000D01*
X0000495000Y0000030000D02*
X0000470000Y0000030000D01*
X0000495000Y0000030000D02*
X0000945000Y0000030000D01*
X0000945000Y0000030000D02*
X0000965000Y0000050000D01*
X0000965000Y0000050000D02*
X0000965000Y0000115000D01*
X0001025000Y0000175000D02*
X0000965000Y0000115000D01*
X0000470000Y0000030000D02*
X0000300000Y0000200000D01*
X0001025000Y0001725000D02*
X0000990000Y0001725000D01*
X0000990000Y0001725000D02*
X0000966574Y0001701574D01*
X0000966574Y0001701574D02*
X0000800000Y0001701574D01*
X0001025000Y0000175000D02*
X0001080000Y0000175000D01*
X0001215000Y0000995629D02*
X0001188582Y0001022047D01*
X0001215000Y0000310000D02*
X0001215000Y0000995629D01*
X0001080000Y0000175000D02*
X0001215000Y0000310000D01*
X0001188582Y0001277952D02*
X0001188582Y0001022047D01*
X0001025000Y0001725000D02*
X0001165000Y0001725000D01*
X0001220000Y0001309370D02*
X0001188582Y0001277952D01*
X0001220000Y0001670000D02*
X0001220000Y0001309370D01*
X0001165000Y0001725000D02*
X0001220000Y0001670000D01*
X0001025000Y0001925000D02*
X0001075000Y0001925000D01*
X0001080000Y0001725000D02*
X0001025000Y0001725000D01*
X0001125000Y0001770000D02*
X0001080000Y0001725000D01*
X0001125000Y0001875000D02*
X0001125000Y0001770000D01*
X0001075000Y0001925000D02*
X0001125000Y0001875000D01*
X0000800000Y0001500000D02*
X0000800000Y0001701574D01*
X0001025000Y0001925000D02*
X0001095000Y0001925000D01*
X0001065000Y0002225000D02*
X0001025000Y0002225000D01*
X0001125000Y0002165000D02*
X0001065000Y0002225000D01*
X0001125000Y0001955000D02*
X0001125000Y0002165000D01*
X0001095000Y0001925000D02*
X0001125000Y0001955000D01*
X0000600000Y0000600000D02*
X0000600000Y0001800000D01*
D27*
X0001185629Y0001275000D02*
X0001188582Y0001277952D01*
X0001025000Y0002225000D02*
X0001015000Y0002225000D01*
X0001000000Y0002225000D02*
X0001025000Y0002225000D01*
X0000800000Y0000350000D02*
X0000740000Y0000350000D01*
X0000962500Y0000637500D02*
X0000975000Y0000650000D01*
X0000975000Y0000650000D02*
X0000975000Y0000710000D01*
X0000975000Y0000710000D02*
X0001050000Y0000785000D01*
X0001050000Y0000925000D02*
X0001050000Y0000785000D01*
X0000940000Y0000360000D02*
X0000930000Y0000350000D01*
X0000940000Y0000360000D02*
X0000962500Y0000387500D01*
X0000930000Y0000350000D02*
X0000800000Y0000350000D01*
X0000962500Y0000387500D02*
X0000962500Y0000637500D01*
X0000250000Y0000350000D02*
X0000240000Y0000360000D01*
X0000350000Y0000350000D02*
X0000250000Y0000350000D01*
X0000370000Y0000330000D02*
X0000350000Y0000350000D01*
X0000720000Y0000330000D02*
X0000370000Y0000330000D01*
X0000740000Y0000350000D02*
X0000720000Y0000330000D01*
X0000240000Y0000360000D02*
X0000240000Y0000575000D01*
X0000265000Y0000600000D02*
X0000240000Y0000575000D01*
X0000265000Y0000600000D02*
X0000300000Y0000600000D01*
X0001011417Y0001277952D02*
X0001011417Y0001022047D01*
D28*
X0000240000Y0001832204D02*
X0000240000Y0001680000D01*
X0000240000Y0001542204D02*
X0000267204Y0001542204D01*
X0000267204Y0001542204D02*
X0000350000Y0001625000D01*
X0000350000Y0001625000D02*
X0000350000Y0002100000D01*
X0000350000Y0002100000D02*
X0000400000Y0002200000D01*
D27*
X0000690000Y0002038425D02*
X0000701574Y0001950000D01*
X0000690000Y0002220000D02*
X0000690000Y0002038425D01*
X0000645000Y0002265000D02*
X0000690000Y0002220000D01*
X0000345000Y0002265000D02*
X0000645000Y0002265000D01*
X0000295000Y0002215000D02*
X0000345000Y0002265000D01*
X0000295000Y0002125000D02*
X0000295000Y0002215000D01*
X0000240000Y0002070000D02*
X0000295000Y0002125000D01*
X0000200000Y0002070000D02*
X0000240000Y0002070000D01*
X0000105000Y0001975000D02*
X0000200000Y0002070000D01*
X0000105000Y0001455000D02*
X0000105000Y0001975000D01*
X0000080000Y0001430000D02*
X0000105000Y0001455000D01*
X0000835000Y0000515000D02*
X0000835000Y0000485000D01*
X0000835000Y0000485000D02*
X0000785000Y0000435000D01*
X0000785000Y0000435000D02*
X0000755000Y0000435000D01*
X0000755000Y0000435000D02*
X0000685000Y0000365000D01*
X0000685000Y0000365000D02*
X0000675000Y0000355000D01*
X0000835000Y0000550000D02*
X0000885000Y0000600000D01*
X0000360000Y0000395000D02*
X0000360000Y0001030000D01*
X0000360000Y0001030000D02*
X0000340000Y0001050000D01*
X0000340000Y0001050000D02*
X0000265000Y0001050000D01*
X0000265000Y0001050000D02*
X0000225000Y0001090000D01*
X0000225000Y0001090000D02*
X0000225000Y0001315000D01*
X0000225000Y0001315000D02*
X0000260000Y0001350000D01*
X0000260000Y0001350000D02*
X0000540000Y0001350000D01*
X0000540000Y0001350000D02*
X0000555000Y0001365000D01*
X0000555000Y0001365000D02*
X0000555000Y0001645000D01*
X0000500000Y0001675000D02*
X0000555000Y0001645000D01*
X0000835000Y0000550000D02*
X0000835000Y0000515000D01*
X0000360000Y0000380000D02*
X0000360000Y0000395000D01*
X0000385000Y0000355000D02*
X0000360000Y0000380000D01*
X0000675000Y0000355000D02*
X0000385000Y0000355000D01*
X0000900000Y0000600000D02*
X0000885000Y0000600000D01*
X0001025000Y0000375000D02*
X0001075000Y0000375000D01*
X0001150000Y0000450000D02*
X0001150000Y0000675000D01*
X0001075000Y0000375000D02*
X0001150000Y0000450000D01*
X0001025000Y0000575000D02*
X0001025000Y0000650000D01*
X0001025000Y0000650000D02*
X0001050000Y0000675000D01*
X0000775000Y0000525000D02*
X0000775000Y0000575000D01*
X0000775000Y0000575000D02*
X0000900000Y0000700000D01*
X0000775000Y0000525000D02*
X0000775000Y0000540000D01*
X0000775000Y0000525000D02*
X0000765000Y0000525000D01*
X0000740000Y0001890000D02*
X0000765000Y0001890000D01*
X0000675000Y0000525000D02*
X0000675000Y0001825000D01*
X0000740000Y0001890000D02*
X0000675000Y0001825000D01*
X0000900000Y0002025000D02*
X0001000000Y0002125000D01*
X0000850000Y0002025000D02*
X0000900000Y0002025000D01*
X0000800000Y0001975000D02*
X0000850000Y0002025000D01*
X0000800000Y0001925000D02*
X0000800000Y0001975000D01*
X0000765000Y0001890000D02*
X0000800000Y0001925000D01*
X0001000000Y0002125000D02*
X0001025000Y0002125000D01*
X0001005000Y0002125000D02*
X0001025000Y0002125000D01*
X0000675000Y0000525000D02*
X0000675000Y0000690000D01*
X0000850000Y0000750000D02*
X0000900000Y0000800000D01*
X0000735000Y0000750000D02*
X0000850000Y0000750000D01*
X0000675000Y0000690000D02*
X0000735000Y0000750000D01*
X0000675000Y0000525000D02*
X0000675000Y0000550000D01*
D28*
X0000500000Y0001775000D02*
X0000475000Y0001775000D01*
X0000475000Y0001775000D02*
X0000400000Y0001700000D01*
X0000100000Y0000643700D02*
X0000103700Y0000643700D01*
X0000103700Y0000643700D02*
X0000230000Y0000770000D01*
X0000100000Y0001343700D02*
X0000175000Y0001268700D01*
X0000175000Y0001005000D02*
X0000175000Y0001268700D01*
X0000230000Y0000950000D02*
X0000175000Y0001005000D01*
X0000230000Y0000770000D02*
X0000230000Y0000950000D01*
X0000300000Y0000100000D02*
X0000260000Y0000100000D01*
X0000260000Y0000100000D02*
X0000230000Y0000130000D01*
X0000131299Y0000643700D02*
X0000200000Y0000575000D01*
X0000200000Y0000310000D02*
X0000200000Y0000575000D01*
X0000230000Y0000280000D02*
X0000200000Y0000310000D01*
X0000230000Y0000130000D02*
X0000230000Y0000280000D01*
X0000100000Y0000643700D02*
X0000131299Y0000643700D01*
X0000100000Y0000643700D02*
X0000106299Y0000643700D01*
X0000100000Y0001343700D02*
X0000100000Y0001350000D01*
X0000100000Y0001350000D02*
X0000175000Y0001425000D01*
X0000475000Y0001475000D02*
X0000500000Y0001500000D01*
X0000275000Y0001475000D02*
X0000475000Y0001475000D01*
X0000225000Y0001425000D02*
X0000275000Y0001475000D01*
X0000175000Y0001425000D02*
X0000225000Y0001425000D01*
X0000500000Y0002200000D02*
X0000500000Y0002175000D01*
X0000500000Y0002175000D02*
X0000400000Y0002025000D01*
X0000400000Y0002025000D02*
X0000400000Y0001750000D01*
X0000400000Y0001750000D02*
X0000400000Y0001700000D01*
X0000400000Y0001700000D02*
X0000400000Y0001600000D01*
X0000400000Y0001600000D02*
X0000500000Y0001500000D01*
D27*
X0000775000Y0000275000D02*
X0000775000Y0000230000D01*
X0000805000Y0000200000D02*
X0000900000Y0000200000D01*
X0000775000Y0000230000D02*
X0000805000Y0000200000D01*
X0000775000Y0000275000D02*
X0000675000Y0000275000D01*
X0000340000Y0001100000D02*
X0000300000Y0001100000D01*
D29*
G36*
X0001200629Y0000154862D02*
X0001192076Y0000111860D01*
X0001170472Y0000079527D01*
X0001138139Y0000057923D01*
X0001098402Y0000050019D01*
X0001102356Y0000059542D01*
X0001102383Y0000090322D01*
X0001090629Y0000118769D01*
X0001079892Y0000129525D01*
X0001083000Y0000137027D01*
X0001083000Y0000163750D01*
X0001076750Y0000169999D01*
X0001030000Y0000169999D01*
X0001030000Y0000169212D01*
X0001020000Y0000169212D01*
X0001020000Y0000169999D01*
X0001019212Y0000169999D01*
X0001019212Y0000180000D01*
X0001020000Y0000180000D01*
X0001020000Y0000180787D01*
X0001030000Y0000180787D01*
X0001030000Y0000180000D01*
X0001076750Y0000180000D01*
X0001083000Y0000186250D01*
X0001083000Y0000212972D01*
X0001079194Y0000222161D01*
X0001072161Y0000229193D01*
X0001071956Y0000229278D01*
X0001074874Y0000232196D01*
X0001070375Y0000236695D01*
X0001080881Y0000240580D01*
X0001089799Y0000264585D01*
X0001088852Y0000290175D01*
X0001086078Y0000296872D01*
X0001095914Y0000303202D01*
X0001106045Y0000318029D01*
X0001109609Y0000335629D01*
X0001109609Y0000336350D01*
X0001112031Y0000337968D01*
X0001187031Y0000412968D01*
X0001196653Y0000427370D01*
X0001198383Y0000429958D01*
X0001200629Y0000441251D01*
X0001200629Y0000154862D01*
X0001200629Y0000154862D01*
G37*
X0001200629Y0000154862D02*
X0001192076Y0000111860D01*
X0001170472Y0000079527D01*
X0001138139Y0000057923D01*
X0001098402Y0000050019D01*
X0001102356Y0000059542D01*
X0001102383Y0000090322D01*
X0001090629Y0000118769D01*
X0001079892Y0000129525D01*
X0001083000Y0000137027D01*
X0001083000Y0000163750D01*
X0001076750Y0000169999D01*
X0001030000Y0000169999D01*
X0001030000Y0000169212D01*
X0001020000Y0000169212D01*
X0001020000Y0000169999D01*
X0001019212Y0000169999D01*
X0001019212Y0000180000D01*
X0001020000Y0000180000D01*
X0001020000Y0000180787D01*
X0001030000Y0000180787D01*
X0001030000Y0000180000D01*
X0001076750Y0000180000D01*
X0001083000Y0000186250D01*
X0001083000Y0000212972D01*
X0001079194Y0000222161D01*
X0001072161Y0000229193D01*
X0001071956Y0000229278D01*
X0001074874Y0000232196D01*
X0001070375Y0000236695D01*
X0001080881Y0000240580D01*
X0001089799Y0000264585D01*
X0001088852Y0000290175D01*
X0001086078Y0000296872D01*
X0001095914Y0000303202D01*
X0001106045Y0000318029D01*
X0001109609Y0000335629D01*
X0001109609Y0000336350D01*
X0001112031Y0000337968D01*
X0001187031Y0000412968D01*
X0001196653Y0000427370D01*
X0001198383Y0000429958D01*
X0001200629Y0000441251D01*
X0001200629Y0000154862D01*
G36*
X0000305000Y0000205000D02*
X0000305787Y0000205000D01*
X0000305787Y0000195000D01*
X0000305000Y0000195000D01*
X0000305000Y0000194212D01*
X0000295000Y0000194212D01*
X0000295000Y0000195000D01*
X0000294212Y0000195000D01*
X0000294212Y0000205000D01*
X0000295000Y0000205000D01*
X0000295000Y0000205787D01*
X0000305000Y0000205787D01*
X0000305000Y0000205000D01*
X0000305000Y0000205000D01*
G37*
X0000305000Y0000205000D02*
X0000305787Y0000205000D01*
X0000305787Y0000195000D01*
X0000305000Y0000195000D01*
X0000305000Y0000194212D01*
X0000295000Y0000194212D01*
X0000295000Y0000195000D01*
X0000294212Y0000195000D01*
X0000294212Y0000205000D01*
X0000295000Y0000205000D01*
X0000295000Y0000205787D01*
X0000305000Y0000205787D01*
X0000305000Y0000205000D01*
G36*
X0000432627Y0000268981D02*
X0000432071Y0000268425D01*
X0000432627Y0000267868D01*
X0000425556Y0000260797D01*
X0000425000Y0000261354D01*
X0000424443Y0000260797D01*
X0000417372Y0000267868D01*
X0000417928Y0000268425D01*
X0000417372Y0000268981D01*
X0000424443Y0000276053D01*
X0000425000Y0000275496D01*
X0000425556Y0000276053D01*
X0000432627Y0000268981D01*
X0000432627Y0000268981D01*
G37*
X0000432627Y0000268981D02*
X0000432071Y0000268425D01*
X0000432627Y0000267868D01*
X0000425556Y0000260797D01*
X0000425000Y0000261354D01*
X0000424443Y0000260797D01*
X0000417372Y0000267868D01*
X0000417928Y0000268425D01*
X0000417372Y0000268981D01*
X0000424443Y0000276053D01*
X0000425000Y0000275496D01*
X0000425556Y0000276053D01*
X0000432627Y0000268981D01*
G36*
X0001032627Y0000275556D02*
X0001032071Y0000275000D01*
X0001032627Y0000274443D01*
X0001025556Y0000267372D01*
X0001025000Y0000267928D01*
X0001024443Y0000267372D01*
X0001017372Y0000274443D01*
X0001017928Y0000275000D01*
X0001017372Y0000275556D01*
X0001024443Y0000282627D01*
X0001025000Y0000282071D01*
X0001025556Y0000282627D01*
X0001032627Y0000275556D01*
X0001032627Y0000275556D01*
G37*
X0001032627Y0000275556D02*
X0001032071Y0000275000D01*
X0001032627Y0000274443D01*
X0001025556Y0000267372D01*
X0001025000Y0000267928D01*
X0001024443Y0000267372D01*
X0001017372Y0000274443D01*
X0001017928Y0000275000D01*
X0001017372Y0000275556D01*
X0001024443Y0000282627D01*
X0001025000Y0000282071D01*
X0001025556Y0000282627D01*
X0001032627Y0000275556D01*
G36*
X0000552503Y0002129049D02*
X0000583270Y0002116274D01*
X0000616583Y0002116245D01*
X0000637629Y0002124941D01*
X0000637629Y0002038425D01*
X0000638300Y0002035055D01*
X0000638072Y0002031627D01*
X0000641163Y0002008017D01*
X0000630624Y0001997496D01*
X0000617849Y0001966730D01*
X0000617820Y0001933416D01*
X0000630542Y0001902627D01*
X0000654077Y0001879049D01*
X0000654720Y0001878783D01*
X0000637968Y0001862031D01*
X0000626616Y0001845041D01*
X0000622629Y0001825000D01*
X0000622629Y0000591016D01*
X0000604067Y0000572485D01*
X0000591294Y0000541726D01*
X0000591265Y0000508420D01*
X0000603984Y0000477638D01*
X0000627514Y0000454066D01*
X0000658274Y0000441294D01*
X0000687206Y0000441269D01*
X0000653307Y0000407370D01*
X0000570872Y0000407370D01*
X0000569875Y0000431120D01*
X0000566131Y0000440159D01*
X0000576977Y0000447139D01*
X0000587108Y0000461966D01*
X0000590672Y0000479566D01*
X0000590672Y0000550433D01*
X0000587578Y0000566875D01*
X0000577861Y0000581977D01*
X0000563033Y0000592108D01*
X0000545433Y0000595672D01*
X0000474566Y0000595672D01*
X0000458124Y0000592578D01*
X0000443022Y0000582860D01*
X0000432891Y0000568033D01*
X0000429327Y0000550433D01*
X0000429327Y0000479566D01*
X0000432421Y0000463124D01*
X0000442139Y0000448022D01*
X0000454151Y0000439814D01*
X0000449115Y0000426049D01*
X0000449900Y0000407370D01*
X0000412370Y0000407370D01*
X0000412370Y0001030000D01*
X0000408383Y0001050041D01*
X0000404090Y0001056467D01*
X0000397031Y0001067031D01*
X0000386669Y0001077393D01*
X0000388383Y0001079958D01*
X0000392370Y0001100000D01*
X0000388383Y0001120041D01*
X0000384147Y0001126381D01*
X0000383470Y0001129786D01*
X0000369963Y0001150000D01*
X0000383470Y0001170213D01*
X0000389394Y0001200000D01*
X0000383470Y0001229786D01*
X0000369963Y0001250000D01*
X0000383470Y0001270213D01*
X0000388923Y0001297629D01*
X0000415090Y0001297629D01*
X0000420394Y0001270967D01*
X0000434404Y0001250000D01*
X0000420394Y0001229032D01*
X0000414619Y0001200000D01*
X0000420394Y0001170967D01*
X0000434404Y0001150000D01*
X0000420394Y0001129032D01*
X0000414619Y0001100000D01*
X0000420394Y0001070967D01*
X0000434404Y0001050000D01*
X0000420394Y0001029032D01*
X0000414619Y0001000000D01*
X0000420394Y0000970967D01*
X0000434404Y0000950000D01*
X0000420394Y0000929032D01*
X0000414619Y0000900000D01*
X0000420394Y0000870967D01*
X0000434404Y0000850000D01*
X0000420394Y0000829032D01*
X0000414619Y0000800000D01*
X0000420394Y0000770967D01*
X0000434404Y0000750000D01*
X0000420394Y0000729032D01*
X0000414619Y0000700000D01*
X0000420394Y0000670967D01*
X0000436840Y0000646354D01*
X0000461452Y0000629908D01*
X0000490485Y0000624133D01*
X0000509514Y0000624133D01*
X0000538547Y0000629908D01*
X0000563160Y0000646354D01*
X0000579605Y0000670967D01*
X0000585380Y0000700000D01*
X0000579605Y0000729032D01*
X0000565595Y0000750000D01*
X0000579605Y0000770967D01*
X0000585380Y0000800000D01*
X0000579605Y0000829032D01*
X0000565595Y0000850000D01*
X0000579605Y0000870967D01*
X0000585380Y0000900000D01*
X0000579605Y0000929032D01*
X0000565595Y0000950000D01*
X0000579605Y0000970967D01*
X0000585380Y0001000000D01*
X0000579605Y0001029032D01*
X0000565595Y0001050000D01*
X0000579605Y0001070967D01*
X0000585380Y0001100000D01*
X0000579605Y0001129032D01*
X0000565595Y0001150000D01*
X0000579605Y0001170967D01*
X0000585380Y0001200000D01*
X0000579605Y0001229032D01*
X0000565595Y0001250000D01*
X0000579605Y0001270967D01*
X0000585380Y0001300000D01*
X0000581843Y0001317781D01*
X0000592031Y0001327968D01*
X0000603383Y0001344958D01*
X0000604168Y0001348902D01*
X0000607370Y0001365000D01*
X0000607370Y0001645000D01*
X0000605911Y0001652331D01*
X0000605242Y0001659777D01*
X0000603933Y0001662275D01*
X0000603383Y0001665041D01*
X0000599230Y0001671256D01*
X0000595762Y0001677879D01*
X0000593597Y0001679686D01*
X0000592031Y0001682031D01*
X0000585815Y0001686184D01*
X0000585239Y0001686665D01*
X0000585239Y0001709000D01*
X0000582145Y0001725442D01*
X0000574707Y0001737001D01*
X0000580057Y0001745009D01*
X0000586023Y0001775000D01*
X0000580057Y0001804990D01*
X0000563068Y0001830416D01*
X0000551601Y0001838078D01*
X0000553178Y0001839486D01*
X0000563177Y0001860244D01*
X0000563281Y0001860865D01*
X0000558512Y0001870000D01*
X0000505000Y0001870000D01*
X0000505000Y0001869212D01*
X0000495000Y0001869212D01*
X0000495000Y0001870000D01*
X0000494212Y0001870000D01*
X0000494212Y0001880000D01*
X0000495000Y0001880000D01*
X0000495000Y0001927792D01*
X0000505000Y0001927792D01*
X0000505000Y0001880000D01*
X0000558512Y0001880000D01*
X0000563281Y0001889134D01*
X0000563177Y0001889755D01*
X0000553178Y0001910513D01*
X0000535996Y0001925864D01*
X0000514248Y0001933471D01*
X0000505000Y0001927792D01*
X0000495000Y0001927792D01*
X0000485751Y0001933471D01*
X0000464003Y0001925864D01*
X0000456370Y0001919044D01*
X0000456370Y0002007932D01*
X0000533138Y0002123085D01*
X0000547373Y0002128967D01*
X0000549983Y0002131573D01*
X0000552503Y0002129049D01*
X0000552503Y0002129049D01*
G37*
X0000552503Y0002129049D02*
X0000583270Y0002116274D01*
X0000616583Y0002116245D01*
X0000637629Y0002124941D01*
X0000637629Y0002038425D01*
X0000638300Y0002035055D01*
X0000638072Y0002031627D01*
X0000641163Y0002008017D01*
X0000630624Y0001997496D01*
X0000617849Y0001966730D01*
X0000617820Y0001933416D01*
X0000630542Y0001902627D01*
X0000654077Y0001879049D01*
X0000654720Y0001878783D01*
X0000637968Y0001862031D01*
X0000626616Y0001845041D01*
X0000622629Y0001825000D01*
X0000622629Y0000591016D01*
X0000604067Y0000572485D01*
X0000591294Y0000541726D01*
X0000591265Y0000508420D01*
X0000603984Y0000477638D01*
X0000627514Y0000454066D01*
X0000658274Y0000441294D01*
X0000687206Y0000441269D01*
X0000653307Y0000407370D01*
X0000570872Y0000407370D01*
X0000569875Y0000431120D01*
X0000566131Y0000440159D01*
X0000576977Y0000447139D01*
X0000587108Y0000461966D01*
X0000590672Y0000479566D01*
X0000590672Y0000550433D01*
X0000587578Y0000566875D01*
X0000577861Y0000581977D01*
X0000563033Y0000592108D01*
X0000545433Y0000595672D01*
X0000474566Y0000595672D01*
X0000458124Y0000592578D01*
X0000443022Y0000582860D01*
X0000432891Y0000568033D01*
X0000429327Y0000550433D01*
X0000429327Y0000479566D01*
X0000432421Y0000463124D01*
X0000442139Y0000448022D01*
X0000454151Y0000439814D01*
X0000449115Y0000426049D01*
X0000449900Y0000407370D01*
X0000412370Y0000407370D01*
X0000412370Y0001030000D01*
X0000408383Y0001050041D01*
X0000404090Y0001056467D01*
X0000397031Y0001067031D01*
X0000386669Y0001077393D01*
X0000388383Y0001079958D01*
X0000392370Y0001100000D01*
X0000388383Y0001120041D01*
X0000384147Y0001126381D01*
X0000383470Y0001129786D01*
X0000369963Y0001150000D01*
X0000383470Y0001170213D01*
X0000389394Y0001200000D01*
X0000383470Y0001229786D01*
X0000369963Y0001250000D01*
X0000383470Y0001270213D01*
X0000388923Y0001297629D01*
X0000415090Y0001297629D01*
X0000420394Y0001270967D01*
X0000434404Y0001250000D01*
X0000420394Y0001229032D01*
X0000414619Y0001200000D01*
X0000420394Y0001170967D01*
X0000434404Y0001150000D01*
X0000420394Y0001129032D01*
X0000414619Y0001100000D01*
X0000420394Y0001070967D01*
X0000434404Y0001050000D01*
X0000420394Y0001029032D01*
X0000414619Y0001000000D01*
X0000420394Y0000970967D01*
X0000434404Y0000950000D01*
X0000420394Y0000929032D01*
X0000414619Y0000900000D01*
X0000420394Y0000870967D01*
X0000434404Y0000850000D01*
X0000420394Y0000829032D01*
X0000414619Y0000800000D01*
X0000420394Y0000770967D01*
X0000434404Y0000750000D01*
X0000420394Y0000729032D01*
X0000414619Y0000700000D01*
X0000420394Y0000670967D01*
X0000436840Y0000646354D01*
X0000461452Y0000629908D01*
X0000490485Y0000624133D01*
X0000509514Y0000624133D01*
X0000538547Y0000629908D01*
X0000563160Y0000646354D01*
X0000579605Y0000670967D01*
X0000585380Y0000700000D01*
X0000579605Y0000729032D01*
X0000565595Y0000750000D01*
X0000579605Y0000770967D01*
X0000585380Y0000800000D01*
X0000579605Y0000829032D01*
X0000565595Y0000850000D01*
X0000579605Y0000870967D01*
X0000585380Y0000900000D01*
X0000579605Y0000929032D01*
X0000565595Y0000950000D01*
X0000579605Y0000970967D01*
X0000585380Y0001000000D01*
X0000579605Y0001029032D01*
X0000565595Y0001050000D01*
X0000579605Y0001070967D01*
X0000585380Y0001100000D01*
X0000579605Y0001129032D01*
X0000565595Y0001150000D01*
X0000579605Y0001170967D01*
X0000585380Y0001200000D01*
X0000579605Y0001229032D01*
X0000565595Y0001250000D01*
X0000579605Y0001270967D01*
X0000585380Y0001300000D01*
X0000581843Y0001317781D01*
X0000592031Y0001327968D01*
X0000603383Y0001344958D01*
X0000604168Y0001348902D01*
X0000607370Y0001365000D01*
X0000607370Y0001645000D01*
X0000605911Y0001652331D01*
X0000605242Y0001659777D01*
X0000603933Y0001662275D01*
X0000603383Y0001665041D01*
X0000599230Y0001671256D01*
X0000595762Y0001677879D01*
X0000593597Y0001679686D01*
X0000592031Y0001682031D01*
X0000585815Y0001686184D01*
X0000585239Y0001686665D01*
X0000585239Y0001709000D01*
X0000582145Y0001725442D01*
X0000574707Y0001737001D01*
X0000580057Y0001745009D01*
X0000586023Y0001775000D01*
X0000580057Y0001804990D01*
X0000563068Y0001830416D01*
X0000551601Y0001838078D01*
X0000553178Y0001839486D01*
X0000563177Y0001860244D01*
X0000563281Y0001860865D01*
X0000558512Y0001870000D01*
X0000505000Y0001870000D01*
X0000505000Y0001869212D01*
X0000495000Y0001869212D01*
X0000495000Y0001870000D01*
X0000494212Y0001870000D01*
X0000494212Y0001880000D01*
X0000495000Y0001880000D01*
X0000495000Y0001927792D01*
X0000505000Y0001927792D01*
X0000505000Y0001880000D01*
X0000558512Y0001880000D01*
X0000563281Y0001889134D01*
X0000563177Y0001889755D01*
X0000553178Y0001910513D01*
X0000535996Y0001925864D01*
X0000514248Y0001933471D01*
X0000505000Y0001927792D01*
X0000495000Y0001927792D01*
X0000485751Y0001933471D01*
X0000464003Y0001925864D01*
X0000456370Y0001919044D01*
X0000456370Y0002007932D01*
X0000533138Y0002123085D01*
X0000547373Y0002128967D01*
X0000549983Y0002131573D01*
X0000552503Y0002129049D01*
G36*
X0000517627Y0000417131D02*
X0000517071Y0000416574D01*
X0000517627Y0000416017D01*
X0000510556Y0000408946D01*
X0000510000Y0000409503D01*
X0000509443Y0000408946D01*
X0000502372Y0000416017D01*
X0000502928Y0000416574D01*
X0000502372Y0000417131D01*
X0000509443Y0000424202D01*
X0000510000Y0000423645D01*
X0000510556Y0000424202D01*
X0000517627Y0000417131D01*
X0000517627Y0000417131D01*
G37*
X0000517627Y0000417131D02*
X0000517071Y0000416574D01*
X0000517627Y0000416017D01*
X0000510556Y0000408946D01*
X0000510000Y0000409503D01*
X0000509443Y0000408946D01*
X0000502372Y0000416017D01*
X0000502928Y0000416574D01*
X0000502372Y0000417131D01*
X0000509443Y0000424202D01*
X0000510000Y0000423645D01*
X0000510556Y0000424202D01*
X0000517627Y0000417131D01*
G36*
X0001032627Y0000475556D02*
X0001032071Y0000475000D01*
X0001032627Y0000474443D01*
X0001025556Y0000467372D01*
X0001025000Y0000467928D01*
X0001024443Y0000467372D01*
X0001017372Y0000474443D01*
X0001017928Y0000475000D01*
X0001017372Y0000475556D01*
X0001024443Y0000482627D01*
X0001025000Y0000482071D01*
X0001025556Y0000482627D01*
X0001032627Y0000475556D01*
X0001032627Y0000475556D01*
G37*
X0001032627Y0000475556D02*
X0001032071Y0000475000D01*
X0001032627Y0000474443D01*
X0001025556Y0000467372D01*
X0001025000Y0000467928D01*
X0001024443Y0000467372D01*
X0001017372Y0000474443D01*
X0001017928Y0000475000D01*
X0001017372Y0000475556D01*
X0001024443Y0000482627D01*
X0001025000Y0000482071D01*
X0001025556Y0000482627D01*
X0001032627Y0000475556D01*
G36*
X0001102514Y0001304066D02*
X0001125993Y0001294317D01*
X0001123783Y0001288367D01*
X0001124730Y0001262777D01*
X0001132701Y0001243532D01*
X0001143207Y0001239648D01*
X0001181511Y0001277952D01*
X0001180954Y0001278509D01*
X0001188025Y0001285580D01*
X0001188582Y0001285023D01*
X0001189139Y0001285580D01*
X0001196210Y0001278509D01*
X0001195653Y0001277952D01*
X0001196210Y0001277395D01*
X0001189139Y0001270324D01*
X0001188582Y0001270881D01*
X0001150278Y0001232577D01*
X0001154162Y0001222071D01*
X0001178167Y0001213153D01*
X0001200629Y0001213984D01*
X0001200629Y0001086240D01*
X0001198997Y0001086846D01*
X0001173407Y0001085899D01*
X0001154162Y0001077928D01*
X0001150278Y0001067422D01*
X0001188582Y0001029118D01*
X0001189139Y0001029675D01*
X0001196210Y0001022604D01*
X0001195653Y0001022047D01*
X0001196210Y0001021490D01*
X0001189139Y0001014419D01*
X0001188582Y0001014976D01*
X0001188025Y0001014419D01*
X0001180954Y0001021490D01*
X0001181511Y0001022047D01*
X0001143207Y0001060351D01*
X0001132701Y0001056467D01*
X0001123783Y0001032462D01*
X0001124730Y0001006871D01*
X0001125341Y0001005396D01*
X0001102638Y0000996015D01*
X0001100016Y0000993398D01*
X0001097485Y0000995933D01*
X0001092163Y0000998142D01*
X0001095142Y0001005317D01*
X0001095172Y0001038631D01*
X0001082450Y0001069420D01*
X0001063787Y0001088115D01*
X0001063787Y0001211908D01*
X0001082367Y0001230455D01*
X0001095142Y0001261222D01*
X0001095172Y0001294536D01*
X0001092156Y0001301833D01*
X0001097361Y0001303984D01*
X0001099983Y0001306601D01*
X0001102514Y0001304066D01*
X0001102514Y0001304066D01*
G37*
X0001102514Y0001304066D02*
X0001125993Y0001294317D01*
X0001123783Y0001288367D01*
X0001124730Y0001262777D01*
X0001132701Y0001243532D01*
X0001143207Y0001239648D01*
X0001181511Y0001277952D01*
X0001180954Y0001278509D01*
X0001188025Y0001285580D01*
X0001188582Y0001285023D01*
X0001189139Y0001285580D01*
X0001196210Y0001278509D01*
X0001195653Y0001277952D01*
X0001196210Y0001277395D01*
X0001189139Y0001270324D01*
X0001188582Y0001270881D01*
X0001150278Y0001232577D01*
X0001154162Y0001222071D01*
X0001178167Y0001213153D01*
X0001200629Y0001213984D01*
X0001200629Y0001086240D01*
X0001198997Y0001086846D01*
X0001173407Y0001085899D01*
X0001154162Y0001077928D01*
X0001150278Y0001067422D01*
X0001188582Y0001029118D01*
X0001189139Y0001029675D01*
X0001196210Y0001022604D01*
X0001195653Y0001022047D01*
X0001196210Y0001021490D01*
X0001189139Y0001014419D01*
X0001188582Y0001014976D01*
X0001188025Y0001014419D01*
X0001180954Y0001021490D01*
X0001181511Y0001022047D01*
X0001143207Y0001060351D01*
X0001132701Y0001056467D01*
X0001123783Y0001032462D01*
X0001124730Y0001006871D01*
X0001125341Y0001005396D01*
X0001102638Y0000996015D01*
X0001100016Y0000993398D01*
X0001097485Y0000995933D01*
X0001092163Y0000998142D01*
X0001095142Y0001005317D01*
X0001095172Y0001038631D01*
X0001082450Y0001069420D01*
X0001063787Y0001088115D01*
X0001063787Y0001211908D01*
X0001082367Y0001230455D01*
X0001095142Y0001261222D01*
X0001095172Y0001294536D01*
X0001092156Y0001301833D01*
X0001097361Y0001303984D01*
X0001099983Y0001306601D01*
X0001102514Y0001304066D01*
G36*
X0000906053Y0001950556D02*
X0000905496Y0001950000D01*
X0000943800Y0001911695D01*
X0000954306Y0001915580D01*
X0000960334Y0001931804D01*
X0000961147Y0001909824D01*
X0000963921Y0001903127D01*
X0000954085Y0001896797D01*
X0000943954Y0001881970D01*
X0000940390Y0001864370D01*
X0000940390Y0001785629D01*
X0000943484Y0001769187D01*
X0000953202Y0001754085D01*
X0000964315Y0001746492D01*
X0000960200Y0001735414D01*
X0000961147Y0001709824D01*
X0000969118Y0001690580D01*
X0000979624Y0001686695D01*
X0001017928Y0001725000D01*
X0001017372Y0001725556D01*
X0001024443Y0001732627D01*
X0001025000Y0001732071D01*
X0001025556Y0001732627D01*
X0001032627Y0001725556D01*
X0001032071Y0001725000D01*
X0001032627Y0001724443D01*
X0001025556Y0001717372D01*
X0001025000Y0001717928D01*
X0001003402Y0001696331D01*
X0001002638Y0001696015D01*
X0000979067Y0001672485D01*
X0000966294Y0001641726D01*
X0000966265Y0001608420D01*
X0000978984Y0001577638D01*
X0001002514Y0001554066D01*
X0001033274Y0001541294D01*
X0001066579Y0001541265D01*
X0001097361Y0001553984D01*
X0001099983Y0001556601D01*
X0001102514Y0001554066D01*
X0001133274Y0001541294D01*
X0001166579Y0001541265D01*
X0001197361Y0001553984D01*
X0001200629Y0001557246D01*
X0001200629Y0001442783D01*
X0001197485Y0001445933D01*
X0001166726Y0001458705D01*
X0001133420Y0001458734D01*
X0001102638Y0001446015D01*
X0001100016Y0001443398D01*
X0001097485Y0001445933D01*
X0001066726Y0001458705D01*
X0001033420Y0001458734D01*
X0001002638Y0001446015D01*
X0000983952Y0001427362D01*
X0000983470Y0001429786D01*
X0000966597Y0001455037D01*
X0000941346Y0001471909D01*
X0000911560Y0001477834D01*
X0000888439Y0001477834D01*
X0000858653Y0001471909D01*
X0000854466Y0001469112D01*
X0000862261Y0001483987D01*
X0000862673Y0001486258D01*
X0000857870Y0001495000D01*
X0000805000Y0001495000D01*
X0000805000Y0001494212D01*
X0000795000Y0001494212D01*
X0000795000Y0001495000D01*
X0000742129Y0001495000D01*
X0000737326Y0001486258D01*
X0000737738Y0001483987D01*
X0000748006Y0001464392D01*
X0000750193Y0001462567D01*
X0000736840Y0001453645D01*
X0000727370Y0001439472D01*
X0000727370Y0001513741D01*
X0000737326Y0001513741D01*
X0000742129Y0001505000D01*
X0000795000Y0001505000D01*
X0000795000Y0001550372D01*
X0000805000Y0001550372D01*
X0000805000Y0001505000D01*
X0000857870Y0001505000D01*
X0000862673Y0001513741D01*
X0000862261Y0001516012D01*
X0000851993Y0001535607D01*
X0000835008Y0001549780D01*
X0000813893Y0001556375D01*
X0000805000Y0001550372D01*
X0000795000Y0001550372D01*
X0000786106Y0001556375D01*
X0000764991Y0001549780D01*
X0000748006Y0001535607D01*
X0000737738Y0001516012D01*
X0000737326Y0001513741D01*
X0000727370Y0001513741D01*
X0000727370Y0001661899D01*
X0000767396Y0001661899D01*
X0000770314Y0001652210D01*
X0000791465Y0001644607D01*
X0000813915Y0001645678D01*
X0000829685Y0001652210D01*
X0000832603Y0001661899D01*
X0000800000Y0001694503D01*
X0000767396Y0001661899D01*
X0000727370Y0001661899D01*
X0000727370Y0001750489D01*
X0000736076Y0001736959D01*
X0000749409Y0001727849D01*
X0000743032Y0001710109D01*
X0000744103Y0001687659D01*
X0000750635Y0001671889D01*
X0000760325Y0001668970D01*
X0000792928Y0001701574D01*
X0000792372Y0001702131D01*
X0000799443Y0001709202D01*
X0000800000Y0001708645D01*
X0000800556Y0001709202D01*
X0000807627Y0001702131D01*
X0000807071Y0001701574D01*
X0000839675Y0001668970D01*
X0000849364Y0001671889D01*
X0000856967Y0001693040D01*
X0000855896Y0001715490D01*
X0000850667Y0001728114D01*
X0000863040Y0001736076D01*
X0000873171Y0001750903D01*
X0000876735Y0001768503D01*
X0000876735Y0001831496D01*
X0000873641Y0001847938D01*
X0000863924Y0001863040D01*
X0000849096Y0001873171D01*
X0000831496Y0001876735D01*
X0000825797Y0001876735D01*
X0000837031Y0001887968D01*
X0000844685Y0001899424D01*
X0000848160Y0001904624D01*
X0000860121Y0001904624D01*
X0000864005Y0001894118D01*
X0000888010Y0001885200D01*
X0000913600Y0001886147D01*
X0000932845Y0001894118D01*
X0000936729Y0001904624D01*
X0000898425Y0001942928D01*
X0000860121Y0001904624D01*
X0000848160Y0001904624D01*
X0000848383Y0001904958D01*
X0000849951Y0001912841D01*
X0000853049Y0001911695D01*
X0000891354Y0001950000D01*
X0000890797Y0001950556D01*
X0000897868Y0001957627D01*
X0000898425Y0001957071D01*
X0000898982Y0001957627D01*
X0000906053Y0001950556D01*
X0000906053Y0001950556D01*
G37*
X0000906053Y0001950556D02*
X0000905496Y0001950000D01*
X0000943800Y0001911695D01*
X0000954306Y0001915580D01*
X0000960334Y0001931804D01*
X0000961147Y0001909824D01*
X0000963921Y0001903127D01*
X0000954085Y0001896797D01*
X0000943954Y0001881970D01*
X0000940390Y0001864370D01*
X0000940390Y0001785629D01*
X0000943484Y0001769187D01*
X0000953202Y0001754085D01*
X0000964315Y0001746492D01*
X0000960200Y0001735414D01*
X0000961147Y0001709824D01*
X0000969118Y0001690580D01*
X0000979624Y0001686695D01*
X0001017928Y0001725000D01*
X0001017372Y0001725556D01*
X0001024443Y0001732627D01*
X0001025000Y0001732071D01*
X0001025556Y0001732627D01*
X0001032627Y0001725556D01*
X0001032071Y0001725000D01*
X0001032627Y0001724443D01*
X0001025556Y0001717372D01*
X0001025000Y0001717928D01*
X0001003402Y0001696331D01*
X0001002638Y0001696015D01*
X0000979067Y0001672485D01*
X0000966294Y0001641726D01*
X0000966265Y0001608420D01*
X0000978984Y0001577638D01*
X0001002514Y0001554066D01*
X0001033274Y0001541294D01*
X0001066579Y0001541265D01*
X0001097361Y0001553984D01*
X0001099983Y0001556601D01*
X0001102514Y0001554066D01*
X0001133274Y0001541294D01*
X0001166579Y0001541265D01*
X0001197361Y0001553984D01*
X0001200629Y0001557246D01*
X0001200629Y0001442783D01*
X0001197485Y0001445933D01*
X0001166726Y0001458705D01*
X0001133420Y0001458734D01*
X0001102638Y0001446015D01*
X0001100016Y0001443398D01*
X0001097485Y0001445933D01*
X0001066726Y0001458705D01*
X0001033420Y0001458734D01*
X0001002638Y0001446015D01*
X0000983952Y0001427362D01*
X0000983470Y0001429786D01*
X0000966597Y0001455037D01*
X0000941346Y0001471909D01*
X0000911560Y0001477834D01*
X0000888439Y0001477834D01*
X0000858653Y0001471909D01*
X0000854466Y0001469112D01*
X0000862261Y0001483987D01*
X0000862673Y0001486258D01*
X0000857870Y0001495000D01*
X0000805000Y0001495000D01*
X0000805000Y0001494212D01*
X0000795000Y0001494212D01*
X0000795000Y0001495000D01*
X0000742129Y0001495000D01*
X0000737326Y0001486258D01*
X0000737738Y0001483987D01*
X0000748006Y0001464392D01*
X0000750193Y0001462567D01*
X0000736840Y0001453645D01*
X0000727370Y0001439472D01*
X0000727370Y0001513741D01*
X0000737326Y0001513741D01*
X0000742129Y0001505000D01*
X0000795000Y0001505000D01*
X0000795000Y0001550372D01*
X0000805000Y0001550372D01*
X0000805000Y0001505000D01*
X0000857870Y0001505000D01*
X0000862673Y0001513741D01*
X0000862261Y0001516012D01*
X0000851993Y0001535607D01*
X0000835008Y0001549780D01*
X0000813893Y0001556375D01*
X0000805000Y0001550372D01*
X0000795000Y0001550372D01*
X0000786106Y0001556375D01*
X0000764991Y0001549780D01*
X0000748006Y0001535607D01*
X0000737738Y0001516012D01*
X0000737326Y0001513741D01*
X0000727370Y0001513741D01*
X0000727370Y0001661899D01*
X0000767396Y0001661899D01*
X0000770314Y0001652210D01*
X0000791465Y0001644607D01*
X0000813915Y0001645678D01*
X0000829685Y0001652210D01*
X0000832603Y0001661899D01*
X0000800000Y0001694503D01*
X0000767396Y0001661899D01*
X0000727370Y0001661899D01*
X0000727370Y0001750489D01*
X0000736076Y0001736959D01*
X0000749409Y0001727849D01*
X0000743032Y0001710109D01*
X0000744103Y0001687659D01*
X0000750635Y0001671889D01*
X0000760325Y0001668970D01*
X0000792928Y0001701574D01*
X0000792372Y0001702131D01*
X0000799443Y0001709202D01*
X0000800000Y0001708645D01*
X0000800556Y0001709202D01*
X0000807627Y0001702131D01*
X0000807071Y0001701574D01*
X0000839675Y0001668970D01*
X0000849364Y0001671889D01*
X0000856967Y0001693040D01*
X0000855896Y0001715490D01*
X0000850667Y0001728114D01*
X0000863040Y0001736076D01*
X0000873171Y0001750903D01*
X0000876735Y0001768503D01*
X0000876735Y0001831496D01*
X0000873641Y0001847938D01*
X0000863924Y0001863040D01*
X0000849096Y0001873171D01*
X0000831496Y0001876735D01*
X0000825797Y0001876735D01*
X0000837031Y0001887968D01*
X0000844685Y0001899424D01*
X0000848160Y0001904624D01*
X0000860121Y0001904624D01*
X0000864005Y0001894118D01*
X0000888010Y0001885200D01*
X0000913600Y0001886147D01*
X0000932845Y0001894118D01*
X0000936729Y0001904624D01*
X0000898425Y0001942928D01*
X0000860121Y0001904624D01*
X0000848160Y0001904624D01*
X0000848383Y0001904958D01*
X0000849951Y0001912841D01*
X0000853049Y0001911695D01*
X0000891354Y0001950000D01*
X0000890797Y0001950556D01*
X0000897868Y0001957627D01*
X0000898425Y0001957071D01*
X0000898982Y0001957627D01*
X0000906053Y0001950556D01*
G36*
X0000967000Y0002236250D02*
X0000973250Y0002230000D01*
X0001020000Y0002230000D01*
X0001020000Y0002230787D01*
X0001030000Y0002230787D01*
X0001030000Y0002230000D01*
X0001076750Y0002230000D01*
X0001083000Y0002236250D01*
X0001083000Y0002250629D01*
X0001095137Y0002250629D01*
X0001138139Y0002242076D01*
X0001170472Y0002220472D01*
X0001192076Y0002188139D01*
X0001200629Y0002145137D01*
X0001200629Y0001692783D01*
X0001197485Y0001695933D01*
X0001166726Y0001708705D01*
X0001133420Y0001708734D01*
X0001102638Y0001696015D01*
X0001100016Y0001693398D01*
X0001097485Y0001695933D01*
X0001084823Y0001701190D01*
X0001089799Y0001714585D01*
X0001088852Y0001740175D01*
X0001086078Y0001746872D01*
X0001095914Y0001753202D01*
X0001106045Y0001768029D01*
X0001109609Y0001785629D01*
X0001109609Y0001864370D01*
X0001106515Y0001880812D01*
X0001096798Y0001895914D01*
X0001085684Y0001903507D01*
X0001089799Y0001914585D01*
X0001088852Y0001940175D01*
X0001086078Y0001946872D01*
X0001095914Y0001953202D01*
X0001106045Y0001968029D01*
X0001109609Y0001985629D01*
X0001109609Y0002064370D01*
X0001106515Y0002080812D01*
X0001096798Y0002095914D01*
X0001096719Y0002095967D01*
X0001102356Y0002109542D01*
X0001102383Y0002140322D01*
X0001090629Y0002168769D01*
X0001079892Y0002179525D01*
X0001083000Y0002187027D01*
X0001083000Y0002213750D01*
X0001076750Y0002220000D01*
X0001030000Y0002220000D01*
X0001030000Y0002219212D01*
X0001020000Y0002219212D01*
X0001020000Y0002220000D01*
X0000973250Y0002220000D01*
X0000967000Y0002213750D01*
X0000967000Y0002187027D01*
X0000970107Y0002179525D01*
X0000959447Y0002168883D01*
X0000958360Y0002166267D01*
X0000958365Y0002171456D01*
X0000941905Y0002211293D01*
X0000911453Y0002241798D01*
X0000890184Y0002250629D01*
X0000967000Y0002250629D01*
X0000967000Y0002236250D01*
X0000967000Y0002236250D01*
G37*
X0000967000Y0002236250D02*
X0000973250Y0002230000D01*
X0001020000Y0002230000D01*
X0001020000Y0002230787D01*
X0001030000Y0002230787D01*
X0001030000Y0002230000D01*
X0001076750Y0002230000D01*
X0001083000Y0002236250D01*
X0001083000Y0002250629D01*
X0001095137Y0002250629D01*
X0001138139Y0002242076D01*
X0001170472Y0002220472D01*
X0001192076Y0002188139D01*
X0001200629Y0002145137D01*
X0001200629Y0001692783D01*
X0001197485Y0001695933D01*
X0001166726Y0001708705D01*
X0001133420Y0001708734D01*
X0001102638Y0001696015D01*
X0001100016Y0001693398D01*
X0001097485Y0001695933D01*
X0001084823Y0001701190D01*
X0001089799Y0001714585D01*
X0001088852Y0001740175D01*
X0001086078Y0001746872D01*
X0001095914Y0001753202D01*
X0001106045Y0001768029D01*
X0001109609Y0001785629D01*
X0001109609Y0001864370D01*
X0001106515Y0001880812D01*
X0001096798Y0001895914D01*
X0001085684Y0001903507D01*
X0001089799Y0001914585D01*
X0001088852Y0001940175D01*
X0001086078Y0001946872D01*
X0001095914Y0001953202D01*
X0001106045Y0001968029D01*
X0001109609Y0001985629D01*
X0001109609Y0002064370D01*
X0001106515Y0002080812D01*
X0001096798Y0002095914D01*
X0001096719Y0002095967D01*
X0001102356Y0002109542D01*
X0001102383Y0002140322D01*
X0001090629Y0002168769D01*
X0001079892Y0002179525D01*
X0001083000Y0002187027D01*
X0001083000Y0002213750D01*
X0001076750Y0002220000D01*
X0001030000Y0002220000D01*
X0001030000Y0002219212D01*
X0001020000Y0002219212D01*
X0001020000Y0002220000D01*
X0000973250Y0002220000D01*
X0000967000Y0002213750D01*
X0000967000Y0002187027D01*
X0000970107Y0002179525D01*
X0000959447Y0002168883D01*
X0000958360Y0002166267D01*
X0000958365Y0002171456D01*
X0000941905Y0002211293D01*
X0000911453Y0002241798D01*
X0000890184Y0002250629D01*
X0000967000Y0002250629D01*
X0000967000Y0002236250D01*
G36*
X0001032627Y0001925556D02*
X0001032071Y0001925000D01*
X0001032627Y0001924443D01*
X0001025556Y0001917372D01*
X0001025000Y0001917928D01*
X0001024443Y0001917372D01*
X0001017372Y0001924443D01*
X0001017928Y0001925000D01*
X0001017372Y0001925556D01*
X0001024443Y0001932627D01*
X0001025000Y0001932071D01*
X0001025556Y0001932627D01*
X0001032627Y0001925556D01*
X0001032627Y0001925556D01*
G37*
X0001032627Y0001925556D02*
X0001032071Y0001925000D01*
X0001032627Y0001924443D01*
X0001025556Y0001917372D01*
X0001025000Y0001917928D01*
X0001024443Y0001917372D01*
X0001017372Y0001924443D01*
X0001017928Y0001925000D01*
X0001017372Y0001925556D01*
X0001024443Y0001932627D01*
X0001025000Y0001932071D01*
X0001025556Y0001932627D01*
X0001032627Y0001925556D01*
G36*
X0000245000Y0001975000D02*
X0000245787Y0001975000D01*
X0000245787Y0001965000D01*
X0000245000Y0001965000D01*
X0000245000Y0001964212D01*
X0000235000Y0001964212D01*
X0000235000Y0001965000D01*
X0000234212Y0001965000D01*
X0000234212Y0001975000D01*
X0000235000Y0001975000D01*
X0000235000Y0001975787D01*
X0000245000Y0001975787D01*
X0000245000Y0001975000D01*
X0000245000Y0001975000D01*
G37*
X0000245000Y0001975000D02*
X0000245787Y0001975000D01*
X0000245787Y0001965000D01*
X0000245000Y0001965000D01*
X0000245000Y0001964212D01*
X0000235000Y0001964212D01*
X0000235000Y0001965000D01*
X0000234212Y0001965000D01*
X0000234212Y0001975000D01*
X0000235000Y0001975000D01*
X0000235000Y0001975787D01*
X0000245000Y0001975787D01*
X0000245000Y0001975000D01*
G04 next file*
G04 #@! TF.FileFunction,Copper,L1,Top,Signal*
G04 Gerber Fmt 4.6, Leading zero omitted, Abs format (unit mm)*
G04 Created by KiCad (PCBNEW 4.0.7) date 02/16/20 15:39:30*
G01*
G04 APERTURE LIST*
G04 APERTURE END LIST*
D40*
D41*
X-0001496062Y-0002401574D02*
X0003078937Y0003423425D03*
D42*
X0002978937Y0003423425D03*
D43*
X0002903937Y0002498425D03*
D44*
X0002805511Y0002498425D03*
X0002707086Y0002498425D03*
X0002608661Y0002498425D03*
X0002510236Y0002498425D03*
D45*
X0001478937Y0002898425D03*
D46*
X0001378937Y0002898425D03*
X0001278937Y0002898425D03*
D47*
X0003053937Y0002698425D03*
X0002953937Y0002698425D03*
X0002853937Y0002698425D03*
X0002753937Y0002698425D03*
X0002653937Y0002698425D03*
X0002553937Y0002698425D03*
X0002453937Y0002698425D03*
X0002353937Y0002698425D03*
X0002253937Y0002698425D03*
X0002153937Y0002698425D03*
X0002053937Y0002698425D03*
X0001953937Y0002698425D03*
X0001853937Y0002698425D03*
X0001753937Y0002698425D03*
D44*
X0001203937Y0003100000D03*
X0001203937Y0003296850D03*
X0002878937Y0003423425D03*
D43*
X0002778937Y0003423425D03*
D48*
X0002638937Y0002908425D03*
D49*
X0002737362Y0002908425D03*
D44*
X0002983937Y0002823425D03*
X0002885511Y0002823425D03*
D50*
X0002453937Y0003198425D03*
X0002353937Y0003198425D03*
X0002253937Y0003198425D03*
X0002153937Y0003198425D03*
X0002053937Y0003198425D03*
X0001953937Y0003198425D03*
X0001853937Y0003198425D03*
X0001753937Y0003198425D03*
X0001653937Y0003198425D03*
X0001653937Y0002898425D03*
X0001753937Y0002898425D03*
X0001853937Y0002898425D03*
X0001953937Y0002898425D03*
X0002053937Y0002898425D03*
X0002153937Y0002898425D03*
X0002253937Y0002898425D03*
X0002353937Y0002898425D03*
X0002453937Y0002898425D03*
D51*
X0001452362Y0003198425D03*
D52*
X0001353937Y0003198425D03*
D43*
X0000953937Y0002798425D03*
D44*
X0000953937Y0002898425D03*
X0000953937Y0002998425D03*
D53*
X0001321732Y0002638425D03*
D54*
X0001183937Y0002638425D03*
D53*
X0001611732Y0002638425D03*
D54*
X0001473937Y0002638425D03*
D44*
X0001875984Y0003409842D03*
X0001875984Y0003587007D03*
X0002131889Y0003409842D03*
X0002131889Y0003587007D03*
X0002678937Y0003423425D03*
D43*
X0002578937Y0003423425D03*
D44*
X0001228937Y0003423425D03*
D43*
X0001128937Y0003423425D03*
D44*
X0001428937Y0003423425D03*
D43*
X0001328937Y0003423425D03*
D55*
X0002878937Y0003073425D03*
X0002628937Y0003073425D03*
X0002878937Y0003173425D03*
X0002628937Y0003173425D03*
X0001778937Y0003548425D03*
X0001528937Y0003548425D03*
X0001778937Y0003448425D03*
X0001528937Y0003448425D03*
X0002228937Y0003548425D03*
X0002478937Y0003548425D03*
X0002228937Y0003448425D03*
X0002478937Y0003448425D03*
D47*
X0003053937Y0003298425D03*
X0002953937Y0003298425D03*
X0002853937Y0003298425D03*
X0002753937Y0003298425D03*
X0002653937Y0003298425D03*
X0002553937Y0003298425D03*
X0002453937Y0003298425D03*
X0002353937Y0003298425D03*
X0002253937Y0003298425D03*
X0002153937Y0003298425D03*
X0002053937Y0003298425D03*
X0001953937Y0003298425D03*
X0001853937Y0003298425D03*
X0001753937Y0003298425D03*
D43*
X0002203937Y0002498425D03*
D44*
X0002105511Y0002498425D03*
X0002007086Y0002498425D03*
X0001908661Y0002498425D03*
X0001810236Y0002498425D03*
D41*
X0001028937Y0003423425D03*
D42*
X0000928937Y0003423425D03*
D56*
X0001723937Y0002478425D03*
D57*
X0001101437Y0003290925D02*
X0001103937Y0003288425D01*
D58*
X0001278937Y0002898425D02*
X0001278937Y0002923425D01*
X0001278937Y0002923425D02*
X0001353937Y0002998425D01*
X0003123937Y0002893425D02*
X0003123937Y0002868425D01*
X0003123937Y0002893425D02*
X0003123937Y0003343425D01*
X0003123937Y0003343425D02*
X0003103937Y0003363425D01*
X0003103937Y0003363425D02*
X0003038937Y0003363425D01*
X0002978937Y0003423425D02*
X0003038937Y0003363425D01*
X0003123937Y0002868425D02*
X0002953937Y0002698425D01*
X0001428937Y0003423425D02*
X0001428937Y0003388425D01*
X0001428937Y0003388425D02*
X0001452362Y0003365000D01*
X0001452362Y0003365000D02*
X0001452362Y0003198425D01*
X0002978937Y0003423425D02*
X0002978937Y0003478425D01*
X0002158307Y0003613425D02*
X0002131889Y0003587007D01*
X0002843937Y0003613425D02*
X0002158307Y0003613425D01*
X0002978937Y0003478425D02*
X0002843937Y0003613425D01*
X0001875984Y0003587007D02*
X0002131889Y0003587007D01*
X0001428937Y0003423425D02*
X0001428937Y0003563425D01*
X0001844566Y0003618425D02*
X0001875984Y0003587007D01*
X0001483937Y0003618425D02*
X0001844566Y0003618425D01*
X0001428937Y0003563425D02*
X0001483937Y0003618425D01*
X0001228937Y0003423425D02*
X0001228937Y0003473425D01*
X0001428937Y0003478425D02*
X0001428937Y0003423425D01*
X0001383937Y0003523425D02*
X0001428937Y0003478425D01*
X0001278937Y0003523425D02*
X0001383937Y0003523425D01*
X0001228937Y0003473425D02*
X0001278937Y0003523425D01*
X0001653937Y0003198425D02*
X0001452362Y0003198425D01*
X0001228937Y0003423425D02*
X0001228937Y0003493425D01*
X0000928937Y0003463425D02*
X0000928937Y0003423425D01*
X0000988937Y0003523425D02*
X0000928937Y0003463425D01*
X0001198937Y0003523425D02*
X0000988937Y0003523425D01*
X0001228937Y0003493425D02*
X0001198937Y0003523425D01*
X0002553937Y0002998425D02*
X0001353937Y0002998425D01*
D57*
X0001878937Y0003584055D02*
X0001875984Y0003587007D01*
X0000928937Y0003423425D02*
X0000928937Y0003413425D01*
X0000928937Y0003398425D02*
X0000928937Y0003423425D01*
X0002803937Y0003198425D02*
X0002803937Y0003138425D01*
X0002516437Y0003360925D02*
X0002503937Y0003373425D01*
X0002503937Y0003373425D02*
X0002443937Y0003373425D01*
X0002443937Y0003373425D02*
X0002368937Y0003448425D01*
X0002228937Y0003448425D02*
X0002368937Y0003448425D01*
X0002793937Y0003338425D02*
X0002803937Y0003328425D01*
X0002793937Y0003338425D02*
X0002766437Y0003360925D01*
X0002803937Y0003328425D02*
X0002803937Y0003198425D01*
X0002766437Y0003360925D02*
X0002516437Y0003360925D01*
X0002803937Y0002648425D02*
X0002793937Y0002638425D01*
X0002803937Y0002748425D02*
X0002803937Y0002648425D01*
X0002823937Y0002768425D02*
X0002803937Y0002748425D01*
X0002823937Y0003118425D02*
X0002823937Y0002768425D01*
X0002803937Y0003138425D02*
X0002823937Y0003118425D01*
X0002793937Y0002638425D02*
X0002578937Y0002638425D01*
X0002553937Y0002663425D02*
X0002578937Y0002638425D01*
X0002553937Y0002663425D02*
X0002553937Y0002698425D01*
X0001875984Y0003409842D02*
X0002131889Y0003409842D01*
D58*
X0001321732Y0002638425D02*
X0001473937Y0002638425D01*
X0001611732Y0002638425D02*
X0001611732Y0002665629D01*
X0001611732Y0002665629D02*
X0001528937Y0002748425D01*
X0001528937Y0002748425D02*
X0001053937Y0002748425D01*
X0001053937Y0002748425D02*
X0000953937Y0002798425D01*
D57*
X0001115511Y0003088425D02*
X0001203937Y0003100000D01*
X0000933937Y0003088425D02*
X0001115511Y0003088425D01*
X0000888937Y0003043425D02*
X0000933937Y0003088425D01*
X0000888937Y0002743425D02*
X0000888937Y0003043425D01*
X0000938937Y0002693425D02*
X0000888937Y0002743425D01*
X0001028937Y0002693425D02*
X0000938937Y0002693425D01*
X0001083937Y0002638425D02*
X0001028937Y0002693425D01*
X0001083937Y0002598425D02*
X0001083937Y0002638425D01*
X0001178937Y0002503425D02*
X0001083937Y0002598425D01*
X0001698937Y0002503425D02*
X0001178937Y0002503425D01*
X0001723937Y0002478425D02*
X0001698937Y0002503425D01*
X0002638937Y0003233425D02*
X0002668937Y0003233425D01*
X0002668937Y0003233425D02*
X0002718937Y0003183425D01*
X0002718937Y0003183425D02*
X0002718937Y0003153425D01*
X0002718937Y0003153425D02*
X0002788937Y0003083425D01*
X0002788937Y0003083425D02*
X0002798937Y0003073425D01*
X0002603937Y0003233425D02*
X0002553937Y0003283425D01*
X0002758937Y0002758425D02*
X0002123937Y0002758425D01*
X0002123937Y0002758425D02*
X0002103937Y0002738425D01*
X0002103937Y0002738425D02*
X0002103937Y0002663425D01*
X0002103937Y0002663425D02*
X0002063937Y0002623425D01*
X0002063937Y0002623425D02*
X0001838937Y0002623425D01*
X0001838937Y0002623425D02*
X0001803937Y0002658425D01*
X0001803937Y0002658425D02*
X0001803937Y0002938425D01*
X0001803937Y0002938425D02*
X0001788937Y0002953425D01*
X0001788937Y0002953425D02*
X0001508937Y0002953425D01*
X0001478937Y0002898425D02*
X0001508937Y0002953425D01*
X0002603937Y0003233425D02*
X0002638937Y0003233425D01*
X0002773937Y0002758425D02*
X0002758937Y0002758425D01*
X0002798937Y0002783425D02*
X0002773937Y0002758425D01*
X0002798937Y0003073425D02*
X0002798937Y0002783425D01*
X0002553937Y0003298425D02*
X0002553937Y0003283425D01*
X0002778937Y0003423425D02*
X0002778937Y0003473425D01*
X0002703937Y0003548425D02*
X0002478937Y0003548425D01*
X0002778937Y0003473425D02*
X0002703937Y0003548425D01*
X0002578937Y0003423425D02*
X0002503937Y0003423425D01*
X0002503937Y0003423425D02*
X0002478937Y0003448425D01*
X0002628937Y0003173425D02*
X0002578937Y0003173425D01*
X0002578937Y0003173425D02*
X0002453937Y0003298425D01*
X0002628937Y0003173425D02*
X0002613937Y0003173425D01*
X0002628937Y0003173425D02*
X0002628937Y0003163425D01*
X0001263937Y0003138425D02*
X0001263937Y0003163425D01*
X0002628937Y0003073425D02*
X0001328937Y0003073425D01*
X0001263937Y0003138425D02*
X0001328937Y0003073425D01*
X0001128937Y0003298425D02*
X0001028937Y0003398425D01*
X0001128937Y0003248425D02*
X0001128937Y0003298425D01*
X0001178937Y0003198425D02*
X0001128937Y0003248425D01*
X0001228937Y0003198425D02*
X0001178937Y0003198425D01*
X0001263937Y0003163425D02*
X0001228937Y0003198425D01*
X0001028937Y0003398425D02*
X0001028937Y0003423425D01*
X0001028937Y0003403425D02*
X0001028937Y0003423425D01*
X0002628937Y0003073425D02*
X0002463937Y0003073425D01*
X0002403937Y0003248425D02*
X0002353937Y0003298425D01*
X0002403937Y0003133425D02*
X0002403937Y0003248425D01*
X0002463937Y0003073425D02*
X0002403937Y0003133425D01*
X0002628937Y0003073425D02*
X0002603937Y0003073425D01*
D58*
X0001378937Y0002898425D02*
X0001378937Y0002873425D01*
X0001378937Y0002873425D02*
X0001453937Y0002798425D01*
X0002510236Y0002498425D02*
X0002510236Y0002502125D01*
X0002510236Y0002502125D02*
X0002383937Y0002628425D01*
X0001810236Y0002498425D02*
X0001885236Y0002573425D01*
X0002148937Y0002573425D02*
X0001885236Y0002573425D01*
X0002203937Y0002628425D02*
X0002148937Y0002573425D01*
X0002383937Y0002628425D02*
X0002203937Y0002628425D01*
X0003053937Y0002698425D02*
X0003053937Y0002658425D01*
X0003053937Y0002658425D02*
X0003023937Y0002628425D01*
X0002510236Y0002529724D02*
X0002578937Y0002598425D01*
X0002843937Y0002598425D02*
X0002578937Y0002598425D01*
X0002873937Y0002628425D02*
X0002843937Y0002598425D01*
X0003023937Y0002628425D02*
X0002873937Y0002628425D01*
X0002510236Y0002498425D02*
X0002510236Y0002529724D01*
X0002510236Y0002498425D02*
X0002510236Y0002504724D01*
X0001810236Y0002498425D02*
X0001803937Y0002498425D01*
X0001803937Y0002498425D02*
X0001728937Y0002573425D01*
X0001678937Y0002873425D02*
X0001653937Y0002898425D01*
X0001678937Y0002673425D02*
X0001678937Y0002873425D01*
X0001728937Y0002623425D02*
X0001678937Y0002673425D01*
X0001728937Y0002573425D02*
X0001728937Y0002623425D01*
X0000953937Y0002898425D02*
X0000978937Y0002898425D01*
X0000978937Y0002898425D02*
X0001128937Y0002798425D01*
X0001128937Y0002798425D02*
X0001403937Y0002798425D01*
X0001403937Y0002798425D02*
X0001453937Y0002798425D01*
X0001453937Y0002798425D02*
X0001553937Y0002798425D01*
X0001553937Y0002798425D02*
X0001653937Y0002898425D01*
D57*
X0002878937Y0003173425D02*
X0002923937Y0003173425D01*
X0002953937Y0003203425D02*
X0002953937Y0003298425D01*
X0002923937Y0003173425D02*
X0002953937Y0003203425D01*
X0002878937Y0003173425D02*
X0002878937Y0003073425D01*
X0002053937Y0002738425D02*
X0002053937Y0002698425D01*
D59*
G36*
X0002999074Y0003599055D02*
X0003042076Y0003590501D01*
X0003074409Y0003568897D01*
X0003096013Y0003536564D01*
X0003103917Y0003496827D01*
X0003094394Y0003500781D01*
X0003063614Y0003500808D01*
X0003035167Y0003489054D01*
X0003024411Y0003478317D01*
X0003016909Y0003481425D01*
X0002990187Y0003481425D01*
X0002983937Y0003475175D01*
X0002983937Y0003428425D01*
X0002984724Y0003428425D01*
X0002984724Y0003418425D01*
X0002983937Y0003418425D01*
X0002983937Y0003417637D01*
X0002973937Y0003417637D01*
X0002973937Y0003418425D01*
X0002973149Y0003418425D01*
X0002973149Y0003428425D01*
X0002973937Y0003428425D01*
X0002973937Y0003475175D01*
X0002967687Y0003481425D01*
X0002940964Y0003481425D01*
X0002931775Y0003477619D01*
X0002924743Y0003470586D01*
X0002924658Y0003470381D01*
X0002921740Y0003473299D01*
X0002917241Y0003468800D01*
X0002913356Y0003479306D01*
X0002889351Y0003488224D01*
X0002863761Y0003487277D01*
X0002857064Y0003484503D01*
X0002850735Y0003494339D01*
X0002835907Y0003504470D01*
X0002818307Y0003508034D01*
X0002817586Y0003508034D01*
X0002815968Y0003510456D01*
X0002740968Y0003585456D01*
X0002726566Y0003595079D01*
X0002723978Y0003596808D01*
X0002712685Y0003599055D01*
X0002999074Y0003599055D01*
X0002999074Y0003599055D01*
G37*
X0002999074Y0003599055D02*
X0003042076Y0003590501D01*
X0003074409Y0003568897D01*
X0003096013Y0003536564D01*
X0003103917Y0003496827D01*
X0003094394Y0003500781D01*
X0003063614Y0003500808D01*
X0003035167Y0003489054D01*
X0003024411Y0003478317D01*
X0003016909Y0003481425D01*
X0002990187Y0003481425D01*
X0002983937Y0003475175D01*
X0002983937Y0003428425D01*
X0002984724Y0003428425D01*
X0002984724Y0003418425D01*
X0002983937Y0003418425D01*
X0002983937Y0003417637D01*
X0002973937Y0003417637D01*
X0002973937Y0003418425D01*
X0002973149Y0003418425D01*
X0002973149Y0003428425D01*
X0002973937Y0003428425D01*
X0002973937Y0003475175D01*
X0002967687Y0003481425D01*
X0002940964Y0003481425D01*
X0002931775Y0003477619D01*
X0002924743Y0003470586D01*
X0002924658Y0003470381D01*
X0002921740Y0003473299D01*
X0002917241Y0003468800D01*
X0002913356Y0003479306D01*
X0002889351Y0003488224D01*
X0002863761Y0003487277D01*
X0002857064Y0003484503D01*
X0002850735Y0003494339D01*
X0002835907Y0003504470D01*
X0002818307Y0003508034D01*
X0002817586Y0003508034D01*
X0002815968Y0003510456D01*
X0002740968Y0003585456D01*
X0002726566Y0003595079D01*
X0002723978Y0003596808D01*
X0002712685Y0003599055D01*
X0002999074Y0003599055D01*
G36*
X0002948937Y0002703425D02*
X0002948937Y0002704212D01*
X0002958937Y0002704212D01*
X0002958937Y0002703425D01*
X0002959724Y0002703425D01*
X0002959724Y0002693425D01*
X0002958937Y0002693425D01*
X0002958937Y0002692637D01*
X0002948937Y0002692637D01*
X0002948937Y0002693425D01*
X0002948149Y0002693425D01*
X0002948149Y0002703425D01*
X0002948937Y0002703425D01*
X0002948937Y0002703425D01*
G37*
X0002948937Y0002703425D02*
X0002948937Y0002704212D01*
X0002958937Y0002704212D01*
X0002958937Y0002703425D01*
X0002959724Y0002703425D01*
X0002959724Y0002693425D01*
X0002958937Y0002693425D01*
X0002958937Y0002692637D01*
X0002948937Y0002692637D01*
X0002948937Y0002693425D01*
X0002948149Y0002693425D01*
X0002948149Y0002703425D01*
X0002948937Y0002703425D01*
G36*
X0002884955Y0002831053D02*
X0002885511Y0002830496D01*
X0002886068Y0002831053D01*
X0002893139Y0002823982D01*
X0002892582Y0002823425D01*
X0002893139Y0002822868D01*
X0002886068Y0002815797D01*
X0002885511Y0002816354D01*
X0002884955Y0002815797D01*
X0002877883Y0002822868D01*
X0002878440Y0002823425D01*
X0002877883Y0002823982D01*
X0002884955Y0002831053D01*
X0002884955Y0002831053D01*
G37*
X0002884955Y0002831053D02*
X0002885511Y0002830496D01*
X0002886068Y0002831053D01*
X0002893139Y0002823982D01*
X0002892582Y0002823425D01*
X0002893139Y0002822868D01*
X0002886068Y0002815797D01*
X0002885511Y0002816354D01*
X0002884955Y0002815797D01*
X0002877883Y0002822868D01*
X0002878440Y0002823425D01*
X0002877883Y0002823982D01*
X0002884955Y0002831053D01*
G36*
X0002878380Y0003431053D02*
X0002878937Y0003430496D01*
X0002879493Y0003431053D01*
X0002886564Y0003423982D01*
X0002886008Y0003423425D01*
X0002886564Y0003422868D01*
X0002879493Y0003415797D01*
X0002878937Y0003416354D01*
X0002878380Y0003415797D01*
X0002871309Y0003422868D01*
X0002871865Y0003423425D01*
X0002871309Y0003423982D01*
X0002878380Y0003431053D01*
X0002878380Y0003431053D01*
G37*
X0002878380Y0003431053D02*
X0002878937Y0003430496D01*
X0002879493Y0003431053D01*
X0002886564Y0003423982D01*
X0002886008Y0003423425D01*
X0002886564Y0003422868D01*
X0002879493Y0003415797D01*
X0002878937Y0003416354D01*
X0002878380Y0003415797D01*
X0002871309Y0003422868D01*
X0002871865Y0003423425D01*
X0002871309Y0003423982D01*
X0002878380Y0003431053D01*
G36*
X0001024887Y0002950928D02*
X0001037662Y0002981695D01*
X0001037691Y0003015009D01*
X0001028995Y0003036055D01*
X0001115511Y0003036055D01*
X0001118881Y0003036725D01*
X0001122309Y0003036498D01*
X0001145919Y0003039588D01*
X0001156440Y0003029049D01*
X0001187206Y0003016274D01*
X0001220520Y0003016245D01*
X0001251310Y0003028967D01*
X0001274887Y0003052503D01*
X0001275153Y0003053145D01*
X0001291905Y0003036393D01*
X0001308895Y0003025041D01*
X0001328937Y0003021055D01*
X0002562920Y0003021055D01*
X0002581451Y0003002492D01*
X0002612210Y0002989719D01*
X0002645516Y0002989690D01*
X0002676298Y0003002409D01*
X0002699870Y0003025939D01*
X0002712642Y0003056699D01*
X0002712667Y0003085631D01*
X0002746566Y0003051732D01*
X0002746566Y0002969298D01*
X0002722816Y0002968300D01*
X0002713777Y0002964556D01*
X0002706797Y0002975402D01*
X0002691970Y0002985533D01*
X0002674370Y0002989097D01*
X0002603503Y0002989097D01*
X0002587061Y0002986003D01*
X0002571959Y0002976286D01*
X0002561828Y0002961458D01*
X0002558264Y0002943858D01*
X0002558264Y0002872992D01*
X0002561358Y0002856549D01*
X0002571076Y0002841448D01*
X0002585903Y0002831316D01*
X0002603503Y0002827752D01*
X0002674370Y0002827752D01*
X0002690812Y0002830846D01*
X0002705914Y0002840564D01*
X0002714122Y0002852577D01*
X0002727887Y0002847541D01*
X0002746566Y0002848325D01*
X0002746566Y0002810795D01*
X0002123937Y0002810795D01*
X0002103895Y0002806808D01*
X0002097469Y0002802515D01*
X0002086905Y0002795456D01*
X0002076543Y0002785094D01*
X0002073978Y0002786808D01*
X0002053937Y0002790795D01*
X0002033895Y0002786808D01*
X0002027555Y0002782572D01*
X0002024150Y0002781895D01*
X0002003937Y0002768388D01*
X0001983723Y0002781895D01*
X0001953937Y0002787820D01*
X0001924150Y0002781895D01*
X0001903937Y0002768388D01*
X0001883723Y0002781895D01*
X0001856307Y0002787348D01*
X0001856307Y0002813515D01*
X0001882969Y0002818819D01*
X0001903937Y0002832829D01*
X0001924904Y0002818819D01*
X0001953937Y0002813044D01*
X0001982969Y0002818819D01*
X0002003937Y0002832829D01*
X0002024904Y0002818819D01*
X0002053937Y0002813044D01*
X0002082969Y0002818819D01*
X0002103937Y0002832829D01*
X0002124904Y0002818819D01*
X0002153937Y0002813044D01*
X0002182969Y0002818819D01*
X0002203937Y0002832829D01*
X0002224904Y0002818819D01*
X0002253937Y0002813044D01*
X0002282969Y0002818819D01*
X0002303937Y0002832829D01*
X0002324904Y0002818819D01*
X0002353937Y0002813044D01*
X0002382969Y0002818819D01*
X0002403937Y0002832829D01*
X0002424904Y0002818819D01*
X0002453937Y0002813044D01*
X0002482969Y0002818819D01*
X0002507582Y0002835265D01*
X0002524028Y0002859877D01*
X0002529803Y0002888910D01*
X0002529803Y0002907939D01*
X0002524028Y0002936972D01*
X0002507582Y0002961585D01*
X0002482969Y0002978030D01*
X0002453937Y0002983805D01*
X0002424904Y0002978030D01*
X0002403937Y0002964021D01*
X0002382969Y0002978030D01*
X0002353937Y0002983805D01*
X0002324904Y0002978030D01*
X0002303937Y0002964021D01*
X0002282969Y0002978030D01*
X0002253937Y0002983805D01*
X0002224904Y0002978030D01*
X0002203937Y0002964021D01*
X0002182969Y0002978030D01*
X0002153937Y0002983805D01*
X0002124904Y0002978030D01*
X0002103937Y0002964021D01*
X0002082969Y0002978030D01*
X0002053937Y0002983805D01*
X0002024904Y0002978030D01*
X0002003937Y0002964021D01*
X0001982969Y0002978030D01*
X0001953937Y0002983805D01*
X0001924904Y0002978030D01*
X0001903937Y0002964021D01*
X0001882969Y0002978030D01*
X0001853937Y0002983805D01*
X0001836155Y0002980268D01*
X0001825968Y0002990456D01*
X0001808978Y0003001808D01*
X0001805034Y0003002593D01*
X0001788937Y0003005795D01*
X0001508937Y0003005795D01*
X0001501605Y0003004336D01*
X0001494159Y0003003667D01*
X0001491661Y0003002359D01*
X0001488895Y0003001808D01*
X0001482680Y0002997655D01*
X0001476057Y0002994187D01*
X0001474250Y0002992023D01*
X0001471905Y0002990456D01*
X0001467752Y0002984241D01*
X0001467271Y0002983664D01*
X0001444937Y0002983664D01*
X0001428494Y0002980570D01*
X0001416935Y0002973132D01*
X0001408927Y0002978482D01*
X0001378937Y0002984448D01*
X0001348946Y0002978482D01*
X0001323520Y0002961494D01*
X0001315858Y0002950027D01*
X0001314450Y0002951603D01*
X0001293692Y0002961602D01*
X0001293071Y0002961707D01*
X0001283937Y0002956937D01*
X0001283937Y0002903425D01*
X0001284724Y0002903425D01*
X0001284724Y0002893425D01*
X0001283937Y0002893425D01*
X0001283937Y0002892637D01*
X0001273937Y0002892637D01*
X0001273937Y0002893425D01*
X0001226144Y0002893425D01*
X0001226144Y0002903425D01*
X0001273937Y0002903425D01*
X0001273937Y0002956937D01*
X0001264802Y0002961707D01*
X0001264181Y0002961602D01*
X0001243423Y0002951603D01*
X0001228072Y0002934422D01*
X0001220465Y0002912673D01*
X0001226144Y0002903425D01*
X0001226144Y0002893425D01*
X0001220465Y0002884176D01*
X0001228072Y0002862428D01*
X0001234892Y0002854795D01*
X0001146004Y0002854795D01*
X0001030851Y0002931564D01*
X0001024969Y0002945798D01*
X0001022363Y0002948409D01*
X0001024887Y0002950928D01*
X0001024887Y0002950928D01*
G37*
X0001024887Y0002950928D02*
X0001037662Y0002981695D01*
X0001037691Y0003015009D01*
X0001028995Y0003036055D01*
X0001115511Y0003036055D01*
X0001118881Y0003036725D01*
X0001122309Y0003036498D01*
X0001145919Y0003039588D01*
X0001156440Y0003029049D01*
X0001187206Y0003016274D01*
X0001220520Y0003016245D01*
X0001251310Y0003028967D01*
X0001274887Y0003052503D01*
X0001275153Y0003053145D01*
X0001291905Y0003036393D01*
X0001308895Y0003025041D01*
X0001328937Y0003021055D01*
X0002562920Y0003021055D01*
X0002581451Y0003002492D01*
X0002612210Y0002989719D01*
X0002645516Y0002989690D01*
X0002676298Y0003002409D01*
X0002699870Y0003025939D01*
X0002712642Y0003056699D01*
X0002712667Y0003085631D01*
X0002746566Y0003051732D01*
X0002746566Y0002969298D01*
X0002722816Y0002968300D01*
X0002713777Y0002964556D01*
X0002706797Y0002975402D01*
X0002691970Y0002985533D01*
X0002674370Y0002989097D01*
X0002603503Y0002989097D01*
X0002587061Y0002986003D01*
X0002571959Y0002976286D01*
X0002561828Y0002961458D01*
X0002558264Y0002943858D01*
X0002558264Y0002872992D01*
X0002561358Y0002856549D01*
X0002571076Y0002841448D01*
X0002585903Y0002831316D01*
X0002603503Y0002827752D01*
X0002674370Y0002827752D01*
X0002690812Y0002830846D01*
X0002705914Y0002840564D01*
X0002714122Y0002852577D01*
X0002727887Y0002847541D01*
X0002746566Y0002848325D01*
X0002746566Y0002810795D01*
X0002123937Y0002810795D01*
X0002103895Y0002806808D01*
X0002097469Y0002802515D01*
X0002086905Y0002795456D01*
X0002076543Y0002785094D01*
X0002073978Y0002786808D01*
X0002053937Y0002790795D01*
X0002033895Y0002786808D01*
X0002027555Y0002782572D01*
X0002024150Y0002781895D01*
X0002003937Y0002768388D01*
X0001983723Y0002781895D01*
X0001953937Y0002787820D01*
X0001924150Y0002781895D01*
X0001903937Y0002768388D01*
X0001883723Y0002781895D01*
X0001856307Y0002787348D01*
X0001856307Y0002813515D01*
X0001882969Y0002818819D01*
X0001903937Y0002832829D01*
X0001924904Y0002818819D01*
X0001953937Y0002813044D01*
X0001982969Y0002818819D01*
X0002003937Y0002832829D01*
X0002024904Y0002818819D01*
X0002053937Y0002813044D01*
X0002082969Y0002818819D01*
X0002103937Y0002832829D01*
X0002124904Y0002818819D01*
X0002153937Y0002813044D01*
X0002182969Y0002818819D01*
X0002203937Y0002832829D01*
X0002224904Y0002818819D01*
X0002253937Y0002813044D01*
X0002282969Y0002818819D01*
X0002303937Y0002832829D01*
X0002324904Y0002818819D01*
X0002353937Y0002813044D01*
X0002382969Y0002818819D01*
X0002403937Y0002832829D01*
X0002424904Y0002818819D01*
X0002453937Y0002813044D01*
X0002482969Y0002818819D01*
X0002507582Y0002835265D01*
X0002524028Y0002859877D01*
X0002529803Y0002888910D01*
X0002529803Y0002907939D01*
X0002524028Y0002936972D01*
X0002507582Y0002961585D01*
X0002482969Y0002978030D01*
X0002453937Y0002983805D01*
X0002424904Y0002978030D01*
X0002403937Y0002964021D01*
X0002382969Y0002978030D01*
X0002353937Y0002983805D01*
X0002324904Y0002978030D01*
X0002303937Y0002964021D01*
X0002282969Y0002978030D01*
X0002253937Y0002983805D01*
X0002224904Y0002978030D01*
X0002203937Y0002964021D01*
X0002182969Y0002978030D01*
X0002153937Y0002983805D01*
X0002124904Y0002978030D01*
X0002103937Y0002964021D01*
X0002082969Y0002978030D01*
X0002053937Y0002983805D01*
X0002024904Y0002978030D01*
X0002003937Y0002964021D01*
X0001982969Y0002978030D01*
X0001953937Y0002983805D01*
X0001924904Y0002978030D01*
X0001903937Y0002964021D01*
X0001882969Y0002978030D01*
X0001853937Y0002983805D01*
X0001836155Y0002980268D01*
X0001825968Y0002990456D01*
X0001808978Y0003001808D01*
X0001805034Y0003002593D01*
X0001788937Y0003005795D01*
X0001508937Y0003005795D01*
X0001501605Y0003004336D01*
X0001494159Y0003003667D01*
X0001491661Y0003002359D01*
X0001488895Y0003001808D01*
X0001482680Y0002997655D01*
X0001476057Y0002994187D01*
X0001474250Y0002992023D01*
X0001471905Y0002990456D01*
X0001467752Y0002984241D01*
X0001467271Y0002983664D01*
X0001444937Y0002983664D01*
X0001428494Y0002980570D01*
X0001416935Y0002973132D01*
X0001408927Y0002978482D01*
X0001378937Y0002984448D01*
X0001348946Y0002978482D01*
X0001323520Y0002961494D01*
X0001315858Y0002950027D01*
X0001314450Y0002951603D01*
X0001293692Y0002961602D01*
X0001293071Y0002961707D01*
X0001283937Y0002956937D01*
X0001283937Y0002903425D01*
X0001284724Y0002903425D01*
X0001284724Y0002893425D01*
X0001283937Y0002893425D01*
X0001283937Y0002892637D01*
X0001273937Y0002892637D01*
X0001273937Y0002893425D01*
X0001226144Y0002893425D01*
X0001226144Y0002903425D01*
X0001273937Y0002903425D01*
X0001273937Y0002956937D01*
X0001264802Y0002961707D01*
X0001264181Y0002961602D01*
X0001243423Y0002951603D01*
X0001228072Y0002934422D01*
X0001220465Y0002912673D01*
X0001226144Y0002903425D01*
X0001226144Y0002893425D01*
X0001220465Y0002884176D01*
X0001228072Y0002862428D01*
X0001234892Y0002854795D01*
X0001146004Y0002854795D01*
X0001030851Y0002931564D01*
X0001024969Y0002945798D01*
X0001022363Y0002948409D01*
X0001024887Y0002950928D01*
G36*
X0002736805Y0002916053D02*
X0002737362Y0002915496D01*
X0002737919Y0002916053D01*
X0002744990Y0002908982D01*
X0002744433Y0002908425D01*
X0002744990Y0002907868D01*
X0002737919Y0002900797D01*
X0002737362Y0002901354D01*
X0002736805Y0002900797D01*
X0002729734Y0002907868D01*
X0002730291Y0002908425D01*
X0002729734Y0002908982D01*
X0002736805Y0002916053D01*
X0002736805Y0002916053D01*
G37*
X0002736805Y0002916053D02*
X0002737362Y0002915496D01*
X0002737919Y0002916053D01*
X0002744990Y0002908982D01*
X0002744433Y0002908425D01*
X0002744990Y0002907868D01*
X0002737919Y0002900797D01*
X0002737362Y0002901354D01*
X0002736805Y0002900797D01*
X0002729734Y0002907868D01*
X0002730291Y0002908425D01*
X0002729734Y0002908982D01*
X0002736805Y0002916053D01*
G36*
X0002678380Y0003431053D02*
X0002678937Y0003430496D01*
X0002679493Y0003431053D01*
X0002686564Y0003423982D01*
X0002686008Y0003423425D01*
X0002686564Y0003422868D01*
X0002679493Y0003415797D01*
X0002678937Y0003416354D01*
X0002678380Y0003415797D01*
X0002671309Y0003422868D01*
X0002671865Y0003423425D01*
X0002671309Y0003423982D01*
X0002678380Y0003431053D01*
X0002678380Y0003431053D01*
G37*
X0002678380Y0003431053D02*
X0002678937Y0003430496D01*
X0002679493Y0003431053D01*
X0002686564Y0003423982D01*
X0002686008Y0003423425D01*
X0002686564Y0003422868D01*
X0002679493Y0003415797D01*
X0002678937Y0003416354D01*
X0002678380Y0003415797D01*
X0002671309Y0003422868D01*
X0002671865Y0003423425D01*
X0002671309Y0003423982D01*
X0002678380Y0003431053D01*
G36*
X0001849870Y0003500939D02*
X0001859619Y0003524418D01*
X0001865569Y0003522208D01*
X0001891159Y0003523155D01*
X0001910404Y0003531126D01*
X0001914288Y0003541632D01*
X0001875984Y0003579936D01*
X0001875427Y0003579380D01*
X0001868356Y0003586451D01*
X0001868913Y0003587007D01*
X0001868356Y0003587564D01*
X0001875427Y0003594635D01*
X0001875984Y0003594078D01*
X0001876541Y0003594635D01*
X0001883612Y0003587564D01*
X0001883055Y0003587007D01*
X0001921359Y0003548703D01*
X0001931865Y0003552588D01*
X0001940783Y0003576592D01*
X0001939952Y0003599055D01*
X0002067696Y0003599055D01*
X0002067090Y0003597422D01*
X0002068037Y0003571832D01*
X0002076008Y0003552588D01*
X0002086514Y0003548703D01*
X0002124818Y0003587007D01*
X0002124261Y0003587564D01*
X0002131332Y0003594635D01*
X0002131889Y0003594078D01*
X0002132446Y0003594635D01*
X0002139517Y0003587564D01*
X0002138960Y0003587007D01*
X0002139517Y0003586451D01*
X0002132446Y0003579380D01*
X0002131889Y0003579936D01*
X0002093585Y0003541632D01*
X0002097469Y0003531126D01*
X0002121474Y0003522208D01*
X0002147065Y0003523155D01*
X0002148540Y0003523766D01*
X0002157921Y0003501063D01*
X0002160538Y0003498441D01*
X0002158003Y0003495910D01*
X0002155794Y0003490588D01*
X0002148619Y0003493568D01*
X0002115305Y0003493597D01*
X0002084516Y0003480875D01*
X0002065821Y0003462212D01*
X0001942028Y0003462212D01*
X0001923481Y0003480792D01*
X0001892714Y0003493568D01*
X0001859400Y0003493597D01*
X0001852103Y0003490582D01*
X0001849952Y0003495786D01*
X0001847335Y0003498409D01*
X0001849870Y0003500939D01*
X0001849870Y0003500939D01*
G37*
X0001849870Y0003500939D02*
X0001859619Y0003524418D01*
X0001865569Y0003522208D01*
X0001891159Y0003523155D01*
X0001910404Y0003531126D01*
X0001914288Y0003541632D01*
X0001875984Y0003579936D01*
X0001875427Y0003579380D01*
X0001868356Y0003586451D01*
X0001868913Y0003587007D01*
X0001868356Y0003587564D01*
X0001875427Y0003594635D01*
X0001875984Y0003594078D01*
X0001876541Y0003594635D01*
X0001883612Y0003587564D01*
X0001883055Y0003587007D01*
X0001921359Y0003548703D01*
X0001931865Y0003552588D01*
X0001940783Y0003576592D01*
X0001939952Y0003599055D01*
X0002067696Y0003599055D01*
X0002067090Y0003597422D01*
X0002068037Y0003571832D01*
X0002076008Y0003552588D01*
X0002086514Y0003548703D01*
X0002124818Y0003587007D01*
X0002124261Y0003587564D01*
X0002131332Y0003594635D01*
X0002131889Y0003594078D01*
X0002132446Y0003594635D01*
X0002139517Y0003587564D01*
X0002138960Y0003587007D01*
X0002139517Y0003586451D01*
X0002132446Y0003579380D01*
X0002131889Y0003579936D01*
X0002093585Y0003541632D01*
X0002097469Y0003531126D01*
X0002121474Y0003522208D01*
X0002147065Y0003523155D01*
X0002148540Y0003523766D01*
X0002157921Y0003501063D01*
X0002160538Y0003498441D01*
X0002158003Y0003495910D01*
X0002155794Y0003490588D01*
X0002148619Y0003493568D01*
X0002115305Y0003493597D01*
X0002084516Y0003480875D01*
X0002065821Y0003462212D01*
X0001942028Y0003462212D01*
X0001923481Y0003480792D01*
X0001892714Y0003493568D01*
X0001859400Y0003493597D01*
X0001852103Y0003490582D01*
X0001849952Y0003495786D01*
X0001847335Y0003498409D01*
X0001849870Y0003500939D01*
G36*
X0001203380Y0003304478D02*
X0001203937Y0003303921D01*
X0001242241Y0003342225D01*
X0001238356Y0003352731D01*
X0001222132Y0003358759D01*
X0001244112Y0003359572D01*
X0001250809Y0003362346D01*
X0001257139Y0003352511D01*
X0001271966Y0003342380D01*
X0001289566Y0003338815D01*
X0001368307Y0003338815D01*
X0001384749Y0003341909D01*
X0001399851Y0003351627D01*
X0001407444Y0003362740D01*
X0001418522Y0003358625D01*
X0001444112Y0003359572D01*
X0001463356Y0003367543D01*
X0001467241Y0003378049D01*
X0001428937Y0003416354D01*
X0001428380Y0003415797D01*
X0001421309Y0003422868D01*
X0001421865Y0003423425D01*
X0001421309Y0003423982D01*
X0001428380Y0003431053D01*
X0001428937Y0003430496D01*
X0001429493Y0003431053D01*
X0001436564Y0003423982D01*
X0001436008Y0003423425D01*
X0001457605Y0003401827D01*
X0001457921Y0003401063D01*
X0001481451Y0003377492D01*
X0001512210Y0003364719D01*
X0001545516Y0003364690D01*
X0001576298Y0003377409D01*
X0001599870Y0003400939D01*
X0001612642Y0003431699D01*
X0001612671Y0003465005D01*
X0001599952Y0003495786D01*
X0001597335Y0003498409D01*
X0001599870Y0003500939D01*
X0001612642Y0003531699D01*
X0001612671Y0003565005D01*
X0001599952Y0003595786D01*
X0001596690Y0003599055D01*
X0001711153Y0003599055D01*
X0001708003Y0003595910D01*
X0001695231Y0003565151D01*
X0001695202Y0003531845D01*
X0001707921Y0003501063D01*
X0001710538Y0003498441D01*
X0001708003Y0003495910D01*
X0001695231Y0003465151D01*
X0001695202Y0003431845D01*
X0001707921Y0003401063D01*
X0001726574Y0003382377D01*
X0001724150Y0003381895D01*
X0001698899Y0003365022D01*
X0001682027Y0003339771D01*
X0001676102Y0003309985D01*
X0001676102Y0003286864D01*
X0001682027Y0003257078D01*
X0001684824Y0003252891D01*
X0001669950Y0003260686D01*
X0001667678Y0003261098D01*
X0001658937Y0003256295D01*
X0001658937Y0003203425D01*
X0001659724Y0003203425D01*
X0001659724Y0003193425D01*
X0001658937Y0003193425D01*
X0001658937Y0003140554D01*
X0001667678Y0003135751D01*
X0001669950Y0003136163D01*
X0001689544Y0003146431D01*
X0001691369Y0003148618D01*
X0001700291Y0003135265D01*
X0001714464Y0003125795D01*
X0001640195Y0003125795D01*
X0001640195Y0003135751D01*
X0001648937Y0003140554D01*
X0001648937Y0003193425D01*
X0001603564Y0003193425D01*
X0001603564Y0003203425D01*
X0001648937Y0003203425D01*
X0001648937Y0003256295D01*
X0001640195Y0003261098D01*
X0001637924Y0003260686D01*
X0001618329Y0003250418D01*
X0001604156Y0003233434D01*
X0001597561Y0003212318D01*
X0001603564Y0003203425D01*
X0001603564Y0003193425D01*
X0001597561Y0003184532D01*
X0001604156Y0003163416D01*
X0001618329Y0003146431D01*
X0001637924Y0003136163D01*
X0001640195Y0003135751D01*
X0001640195Y0003125795D01*
X0001492037Y0003125795D01*
X0001492037Y0003165821D01*
X0001501726Y0003168739D01*
X0001509329Y0003189890D01*
X0001508258Y0003212340D01*
X0001501726Y0003228110D01*
X0001492037Y0003231029D01*
X0001459433Y0003198425D01*
X0001492037Y0003165821D01*
X0001492037Y0003125795D01*
X0001403447Y0003125795D01*
X0001416977Y0003134501D01*
X0001426087Y0003147834D01*
X0001443827Y0003141458D01*
X0001466277Y0003142528D01*
X0001482047Y0003149060D01*
X0001484966Y0003158750D01*
X0001452362Y0003191354D01*
X0001451805Y0003190797D01*
X0001444734Y0003197868D01*
X0001445291Y0003198425D01*
X0001444734Y0003198982D01*
X0001451805Y0003206053D01*
X0001452362Y0003205496D01*
X0001484966Y0003238100D01*
X0001482047Y0003247789D01*
X0001460896Y0003255392D01*
X0001438446Y0003254321D01*
X0001425822Y0003249092D01*
X0001417860Y0003261465D01*
X0001403033Y0003271596D01*
X0001385433Y0003275160D01*
X0001322440Y0003275160D01*
X0001305998Y0003272066D01*
X0001290896Y0003262349D01*
X0001280765Y0003247521D01*
X0001277201Y0003229921D01*
X0001277201Y0003224223D01*
X0001265968Y0003235456D01*
X0001254512Y0003243110D01*
X0001249312Y0003246585D01*
X0001249312Y0003258546D01*
X0001259818Y0003262430D01*
X0001268736Y0003286435D01*
X0001267789Y0003312025D01*
X0001259818Y0003331270D01*
X0001249312Y0003335154D01*
X0001211008Y0003296850D01*
X0001249312Y0003258546D01*
X0001249312Y0003246585D01*
X0001248978Y0003246808D01*
X0001241095Y0003248376D01*
X0001242241Y0003251475D01*
X0001203937Y0003289779D01*
X0001203380Y0003289222D01*
X0001196309Y0003296293D01*
X0001196865Y0003296850D01*
X0001196309Y0003297407D01*
X0001203380Y0003304478D01*
X0001203380Y0003304478D01*
G37*
X0001203380Y0003304478D02*
X0001203937Y0003303921D01*
X0001242241Y0003342225D01*
X0001238356Y0003352731D01*
X0001222132Y0003358759D01*
X0001244112Y0003359572D01*
X0001250809Y0003362346D01*
X0001257139Y0003352511D01*
X0001271966Y0003342380D01*
X0001289566Y0003338815D01*
X0001368307Y0003338815D01*
X0001384749Y0003341909D01*
X0001399851Y0003351627D01*
X0001407444Y0003362740D01*
X0001418522Y0003358625D01*
X0001444112Y0003359572D01*
X0001463356Y0003367543D01*
X0001467241Y0003378049D01*
X0001428937Y0003416354D01*
X0001428380Y0003415797D01*
X0001421309Y0003422868D01*
X0001421865Y0003423425D01*
X0001421309Y0003423982D01*
X0001428380Y0003431053D01*
X0001428937Y0003430496D01*
X0001429493Y0003431053D01*
X0001436564Y0003423982D01*
X0001436008Y0003423425D01*
X0001457605Y0003401827D01*
X0001457921Y0003401063D01*
X0001481451Y0003377492D01*
X0001512210Y0003364719D01*
X0001545516Y0003364690D01*
X0001576298Y0003377409D01*
X0001599870Y0003400939D01*
X0001612642Y0003431699D01*
X0001612671Y0003465005D01*
X0001599952Y0003495786D01*
X0001597335Y0003498409D01*
X0001599870Y0003500939D01*
X0001612642Y0003531699D01*
X0001612671Y0003565005D01*
X0001599952Y0003595786D01*
X0001596690Y0003599055D01*
X0001711153Y0003599055D01*
X0001708003Y0003595910D01*
X0001695231Y0003565151D01*
X0001695202Y0003531845D01*
X0001707921Y0003501063D01*
X0001710538Y0003498441D01*
X0001708003Y0003495910D01*
X0001695231Y0003465151D01*
X0001695202Y0003431845D01*
X0001707921Y0003401063D01*
X0001726574Y0003382377D01*
X0001724150Y0003381895D01*
X0001698899Y0003365022D01*
X0001682027Y0003339771D01*
X0001676102Y0003309985D01*
X0001676102Y0003286864D01*
X0001682027Y0003257078D01*
X0001684824Y0003252891D01*
X0001669950Y0003260686D01*
X0001667678Y0003261098D01*
X0001658937Y0003256295D01*
X0001658937Y0003203425D01*
X0001659724Y0003203425D01*
X0001659724Y0003193425D01*
X0001658937Y0003193425D01*
X0001658937Y0003140554D01*
X0001667678Y0003135751D01*
X0001669950Y0003136163D01*
X0001689544Y0003146431D01*
X0001691369Y0003148618D01*
X0001700291Y0003135265D01*
X0001714464Y0003125795D01*
X0001640195Y0003125795D01*
X0001640195Y0003135751D01*
X0001648937Y0003140554D01*
X0001648937Y0003193425D01*
X0001603564Y0003193425D01*
X0001603564Y0003203425D01*
X0001648937Y0003203425D01*
X0001648937Y0003256295D01*
X0001640195Y0003261098D01*
X0001637924Y0003260686D01*
X0001618329Y0003250418D01*
X0001604156Y0003233434D01*
X0001597561Y0003212318D01*
X0001603564Y0003203425D01*
X0001603564Y0003193425D01*
X0001597561Y0003184532D01*
X0001604156Y0003163416D01*
X0001618329Y0003146431D01*
X0001637924Y0003136163D01*
X0001640195Y0003135751D01*
X0001640195Y0003125795D01*
X0001492037Y0003125795D01*
X0001492037Y0003165821D01*
X0001501726Y0003168739D01*
X0001509329Y0003189890D01*
X0001508258Y0003212340D01*
X0001501726Y0003228110D01*
X0001492037Y0003231029D01*
X0001459433Y0003198425D01*
X0001492037Y0003165821D01*
X0001492037Y0003125795D01*
X0001403447Y0003125795D01*
X0001416977Y0003134501D01*
X0001426087Y0003147834D01*
X0001443827Y0003141458D01*
X0001466277Y0003142528D01*
X0001482047Y0003149060D01*
X0001484966Y0003158750D01*
X0001452362Y0003191354D01*
X0001451805Y0003190797D01*
X0001444734Y0003197868D01*
X0001445291Y0003198425D01*
X0001444734Y0003198982D01*
X0001451805Y0003206053D01*
X0001452362Y0003205496D01*
X0001484966Y0003238100D01*
X0001482047Y0003247789D01*
X0001460896Y0003255392D01*
X0001438446Y0003254321D01*
X0001425822Y0003249092D01*
X0001417860Y0003261465D01*
X0001403033Y0003271596D01*
X0001385433Y0003275160D01*
X0001322440Y0003275160D01*
X0001305998Y0003272066D01*
X0001290896Y0003262349D01*
X0001280765Y0003247521D01*
X0001277201Y0003229921D01*
X0001277201Y0003224223D01*
X0001265968Y0003235456D01*
X0001254512Y0003243110D01*
X0001249312Y0003246585D01*
X0001249312Y0003258546D01*
X0001259818Y0003262430D01*
X0001268736Y0003286435D01*
X0001267789Y0003312025D01*
X0001259818Y0003331270D01*
X0001249312Y0003335154D01*
X0001211008Y0003296850D01*
X0001249312Y0003258546D01*
X0001249312Y0003246585D01*
X0001248978Y0003246808D01*
X0001241095Y0003248376D01*
X0001242241Y0003251475D01*
X0001203937Y0003289779D01*
X0001203380Y0003289222D01*
X0001196309Y0003296293D01*
X0001196865Y0003296850D01*
X0001196309Y0003297407D01*
X0001203380Y0003304478D01*
G36*
X0000917687Y0003365425D02*
X0000923937Y0003371675D01*
X0000923937Y0003418425D01*
X0000923149Y0003418425D01*
X0000923149Y0003428425D01*
X0000923937Y0003428425D01*
X0000923937Y0003475175D01*
X0000917687Y0003481425D01*
X0000903307Y0003481425D01*
X0000903307Y0003493562D01*
X0000911860Y0003536564D01*
X0000933464Y0003568897D01*
X0000965797Y0003590501D01*
X0001008799Y0003599055D01*
X0001461153Y0003599055D01*
X0001458003Y0003595910D01*
X0001445231Y0003565151D01*
X0001445202Y0003531845D01*
X0001457921Y0003501063D01*
X0001460538Y0003498441D01*
X0001458003Y0003495910D01*
X0001452746Y0003483248D01*
X0001439351Y0003488224D01*
X0001413761Y0003487277D01*
X0001407064Y0003484503D01*
X0001400735Y0003494339D01*
X0001385907Y0003504470D01*
X0001368307Y0003508034D01*
X0001289566Y0003508034D01*
X0001273124Y0003504940D01*
X0001258022Y0003495223D01*
X0001250429Y0003484109D01*
X0001239351Y0003488224D01*
X0001213761Y0003487277D01*
X0001207064Y0003484503D01*
X0001200735Y0003494339D01*
X0001185907Y0003504470D01*
X0001168307Y0003508034D01*
X0001089566Y0003508034D01*
X0001073124Y0003504940D01*
X0001058022Y0003495223D01*
X0001057969Y0003495144D01*
X0001044394Y0003500781D01*
X0001013614Y0003500808D01*
X0000985167Y0003489054D01*
X0000974411Y0003478317D01*
X0000966909Y0003481425D01*
X0000940187Y0003481425D01*
X0000933937Y0003475175D01*
X0000933937Y0003428425D01*
X0000934724Y0003428425D01*
X0000934724Y0003418425D01*
X0000933937Y0003418425D01*
X0000933937Y0003371675D01*
X0000940187Y0003365425D01*
X0000966909Y0003365425D01*
X0000974411Y0003368532D01*
X0000985053Y0003357872D01*
X0000987669Y0003356785D01*
X0000982480Y0003356790D01*
X0000942643Y0003340330D01*
X0000912138Y0003309878D01*
X0000903307Y0003288609D01*
X0000903307Y0003365425D01*
X0000917687Y0003365425D01*
X0000917687Y0003365425D01*
G37*
X0000917687Y0003365425D02*
X0000923937Y0003371675D01*
X0000923937Y0003418425D01*
X0000923149Y0003418425D01*
X0000923149Y0003428425D01*
X0000923937Y0003428425D01*
X0000923937Y0003475175D01*
X0000917687Y0003481425D01*
X0000903307Y0003481425D01*
X0000903307Y0003493562D01*
X0000911860Y0003536564D01*
X0000933464Y0003568897D01*
X0000965797Y0003590501D01*
X0001008799Y0003599055D01*
X0001461153Y0003599055D01*
X0001458003Y0003595910D01*
X0001445231Y0003565151D01*
X0001445202Y0003531845D01*
X0001457921Y0003501063D01*
X0001460538Y0003498441D01*
X0001458003Y0003495910D01*
X0001452746Y0003483248D01*
X0001439351Y0003488224D01*
X0001413761Y0003487277D01*
X0001407064Y0003484503D01*
X0001400735Y0003494339D01*
X0001385907Y0003504470D01*
X0001368307Y0003508034D01*
X0001289566Y0003508034D01*
X0001273124Y0003504940D01*
X0001258022Y0003495223D01*
X0001250429Y0003484109D01*
X0001239351Y0003488224D01*
X0001213761Y0003487277D01*
X0001207064Y0003484503D01*
X0001200735Y0003494339D01*
X0001185907Y0003504470D01*
X0001168307Y0003508034D01*
X0001089566Y0003508034D01*
X0001073124Y0003504940D01*
X0001058022Y0003495223D01*
X0001057969Y0003495144D01*
X0001044394Y0003500781D01*
X0001013614Y0003500808D01*
X0000985167Y0003489054D01*
X0000974411Y0003478317D01*
X0000966909Y0003481425D01*
X0000940187Y0003481425D01*
X0000933937Y0003475175D01*
X0000933937Y0003428425D01*
X0000934724Y0003428425D01*
X0000934724Y0003418425D01*
X0000933937Y0003418425D01*
X0000933937Y0003371675D01*
X0000940187Y0003365425D01*
X0000966909Y0003365425D01*
X0000974411Y0003368532D01*
X0000985053Y0003357872D01*
X0000987669Y0003356785D01*
X0000982480Y0003356790D01*
X0000942643Y0003340330D01*
X0000912138Y0003309878D01*
X0000903307Y0003288609D01*
X0000903307Y0003365425D01*
X0000917687Y0003365425D01*
G36*
X0001228380Y0003431053D02*
X0001228937Y0003430496D01*
X0001229493Y0003431053D01*
X0001236564Y0003423982D01*
X0001236008Y0003423425D01*
X0001236564Y0003422868D01*
X0001229493Y0003415797D01*
X0001228937Y0003416354D01*
X0001228380Y0003415797D01*
X0001221309Y0003422868D01*
X0001221865Y0003423425D01*
X0001221309Y0003423982D01*
X0001228380Y0003431053D01*
X0001228380Y0003431053D01*
G37*
X0001228380Y0003431053D02*
X0001228937Y0003430496D01*
X0001229493Y0003431053D01*
X0001236564Y0003423982D01*
X0001236008Y0003423425D01*
X0001236564Y0003422868D01*
X0001229493Y0003415797D01*
X0001228937Y0003416354D01*
X0001228380Y0003415797D01*
X0001221309Y0003422868D01*
X0001221865Y0003423425D01*
X0001221309Y0003423982D01*
X0001228380Y0003431053D01*
G36*
X0001178937Y0002643425D02*
X0001178937Y0002644212D01*
X0001188937Y0002644212D01*
X0001188937Y0002643425D01*
X0001189724Y0002643425D01*
X0001189724Y0002633425D01*
X0001188937Y0002633425D01*
X0001188937Y0002632637D01*
X0001178937Y0002632637D01*
X0001178937Y0002633425D01*
X0001178149Y0002633425D01*
X0001178149Y0002643425D01*
X0001178937Y0002643425D01*
X0001178937Y0002643425D01*
G37*
X0001178937Y0002643425D02*
X0001178937Y0002644212D01*
X0001188937Y0002644212D01*
X0001188937Y0002643425D01*
X0001189724Y0002643425D01*
X0001189724Y0002633425D01*
X0001188937Y0002633425D01*
X0001188937Y0002632637D01*
X0001178937Y0002632637D01*
X0001178937Y0002633425D01*
X0001178149Y0002633425D01*
X0001178149Y0002643425D01*
X0001178937Y0002643425D01*
G04 next file*
G04 #@! TF.FileFunction,Copper,L1,Top,Signal*
G04 Gerber Fmt 4.6, Leading zero omitted, Abs format (unit mm)*
G04 Created by KiCad (PCBNEW 4.0.7) date 02/16/20 15:39:30*
G01*
G04 APERTURE LIST*
G04 APERTURE END LIST*
D60*
D61*
X-0003461417Y0004650000D02*
X0002363582Y0000075000D03*
D62*
X0002363582Y0000175000D03*
D63*
X0001438582Y0000250000D03*
D64*
X0001438582Y0000348425D03*
X0001438582Y0000446850D03*
X0001438582Y0000545275D03*
X0001438582Y0000643700D03*
D65*
X0001838582Y0001675000D03*
D66*
X0001838582Y0001775000D03*
X0001838582Y0001875000D03*
D67*
X0001638582Y0000100000D03*
X0001638582Y0000200000D03*
X0001638582Y0000300000D03*
X0001638582Y0000400000D03*
X0001638582Y0000500000D03*
X0001638582Y0000600000D03*
X0001638582Y0000700000D03*
X0001638582Y0000800000D03*
X0001638582Y0000900000D03*
X0001638582Y0001000000D03*
X0001638582Y0001100000D03*
X0001638582Y0001200000D03*
X0001638582Y0001300000D03*
X0001638582Y0001400000D03*
D64*
X0002040157Y0001950000D03*
X0002237007Y0001950000D03*
X0002363582Y0000275000D03*
D63*
X0002363582Y0000375000D03*
D68*
X0001848582Y0000515000D03*
D69*
X0001848582Y0000416574D03*
D64*
X0001763582Y0000169999D03*
X0001763582Y0000268425D03*
D70*
X0002138582Y0000700000D03*
X0002138582Y0000800000D03*
X0002138582Y0000900000D03*
X0002138582Y0001000000D03*
X0002138582Y0001100000D03*
X0002138582Y0001200000D03*
X0002138582Y0001300000D03*
X0002138582Y0001400000D03*
X0002138582Y0001500000D03*
X0001838582Y0001500000D03*
X0001838582Y0001400000D03*
X0001838582Y0001300000D03*
X0001838582Y0001200000D03*
X0001838582Y0001100000D03*
X0001838582Y0001000000D03*
X0001838582Y0000900000D03*
X0001838582Y0000800000D03*
X0001838582Y0000700000D03*
D71*
X0002138582Y0001701574D03*
D72*
X0002138582Y0001800000D03*
D63*
X0001738582Y0002200000D03*
D64*
X0001838582Y0002200000D03*
X0001938582Y0002200000D03*
D73*
X0001578582Y0001832204D03*
D74*
X0001578582Y0001970000D03*
D73*
X0001578582Y0001542204D03*
D74*
X0001578582Y0001680000D03*
D64*
X0002350000Y0001277952D03*
X0002527165Y0001277952D03*
X0002350000Y0001022047D03*
X0002527165Y0001022047D03*
X0002363582Y0000475000D03*
D63*
X0002363582Y0000575000D03*
D64*
X0002363582Y0001925000D03*
D63*
X0002363582Y0002025000D03*
D64*
X0002363582Y0001725000D03*
D63*
X0002363582Y0001825000D03*
D75*
X0002013582Y0000275000D03*
X0002013582Y0000525000D03*
X0002113582Y0000275000D03*
X0002113582Y0000525000D03*
X0002488582Y0001375000D03*
X0002488582Y0001625000D03*
X0002388582Y0001375000D03*
X0002388582Y0001625000D03*
X0002488582Y0000925000D03*
X0002488582Y0000675000D03*
X0002388582Y0000925000D03*
X0002388582Y0000675000D03*
D67*
X0002238582Y0000100000D03*
X0002238582Y0000200000D03*
X0002238582Y0000300000D03*
X0002238582Y0000400000D03*
X0002238582Y0000500000D03*
X0002238582Y0000600000D03*
X0002238582Y0000700000D03*
X0002238582Y0000800000D03*
X0002238582Y0000900000D03*
X0002238582Y0001000000D03*
X0002238582Y0001100000D03*
X0002238582Y0001200000D03*
X0002238582Y0001300000D03*
X0002238582Y0001400000D03*
D63*
X0001438582Y0000950000D03*
D64*
X0001438582Y0001048425D03*
X0001438582Y0001146850D03*
X0001438582Y0001245275D03*
X0001438582Y0001343700D03*
D61*
X0002363582Y0002125000D03*
D62*
X0002363582Y0002225000D03*
D76*
X0001418582Y0001430000D03*
D77*
X0002231082Y0002052500D02*
X0002228582Y0002050000D01*
D78*
X0001838582Y0001875000D02*
X0001863582Y0001875000D01*
X0001863582Y0001875000D02*
X0001938582Y0001800000D01*
X0001833582Y0000030000D02*
X0001808582Y0000030000D01*
X0001833582Y0000030000D02*
X0002283582Y0000030000D01*
X0002283582Y0000030000D02*
X0002303582Y0000050000D01*
X0002303582Y0000050000D02*
X0002303582Y0000115000D01*
X0002363582Y0000175000D02*
X0002303582Y0000115000D01*
X0001808582Y0000030000D02*
X0001638582Y0000200000D01*
X0002363582Y0001725000D02*
X0002328582Y0001725000D01*
X0002328582Y0001725000D02*
X0002305157Y0001701574D01*
X0002305157Y0001701574D02*
X0002138582Y0001701574D01*
X0002363582Y0000175000D02*
X0002418582Y0000175000D01*
X0002553582Y0000995629D02*
X0002527165Y0001022047D01*
X0002553582Y0000310000D02*
X0002553582Y0000995629D01*
X0002418582Y0000175000D02*
X0002553582Y0000310000D01*
X0002527165Y0001277952D02*
X0002527165Y0001022047D01*
X0002363582Y0001725000D02*
X0002503582Y0001725000D01*
X0002558582Y0001309370D02*
X0002527165Y0001277952D01*
X0002558582Y0001670000D02*
X0002558582Y0001309370D01*
X0002503582Y0001725000D02*
X0002558582Y0001670000D01*
X0002363582Y0001925000D02*
X0002413582Y0001925000D01*
X0002418582Y0001725000D02*
X0002363582Y0001725000D01*
X0002463582Y0001770000D02*
X0002418582Y0001725000D01*
X0002463582Y0001875000D02*
X0002463582Y0001770000D01*
X0002413582Y0001925000D02*
X0002463582Y0001875000D01*
X0002138582Y0001500000D02*
X0002138582Y0001701574D01*
X0002363582Y0001925000D02*
X0002433582Y0001925000D01*
X0002403582Y0002225000D02*
X0002363582Y0002225000D01*
X0002463582Y0002165000D02*
X0002403582Y0002225000D01*
X0002463582Y0001955000D02*
X0002463582Y0002165000D01*
X0002433582Y0001925000D02*
X0002463582Y0001955000D01*
X0001938582Y0000600000D02*
X0001938582Y0001800000D01*
D77*
X0002524212Y0001275000D02*
X0002527165Y0001277952D01*
X0002363582Y0002225000D02*
X0002353582Y0002225000D01*
X0002338582Y0002225000D02*
X0002363582Y0002225000D01*
X0002138582Y0000350000D02*
X0002078582Y0000350000D01*
X0002301082Y0000637500D02*
X0002313582Y0000650000D01*
X0002313582Y0000650000D02*
X0002313582Y0000710000D01*
X0002313582Y0000710000D02*
X0002388582Y0000785000D01*
X0002388582Y0000925000D02*
X0002388582Y0000785000D01*
X0002278582Y0000360000D02*
X0002268582Y0000350000D01*
X0002278582Y0000360000D02*
X0002301082Y0000387500D01*
X0002268582Y0000350000D02*
X0002138582Y0000350000D01*
X0002301082Y0000387500D02*
X0002301082Y0000637500D01*
X0001588582Y0000350000D02*
X0001578582Y0000360000D01*
X0001688582Y0000350000D02*
X0001588582Y0000350000D01*
X0001708582Y0000330000D02*
X0001688582Y0000350000D01*
X0002058582Y0000330000D02*
X0001708582Y0000330000D01*
X0002078582Y0000350000D02*
X0002058582Y0000330000D01*
X0001578582Y0000360000D02*
X0001578582Y0000575000D01*
X0001603582Y0000600000D02*
X0001578582Y0000575000D01*
X0001603582Y0000600000D02*
X0001638582Y0000600000D01*
X0002350000Y0001277952D02*
X0002350000Y0001022047D01*
D78*
X0001578582Y0001832204D02*
X0001578582Y0001680000D01*
X0001578582Y0001542204D02*
X0001605787Y0001542204D01*
X0001605787Y0001542204D02*
X0001688582Y0001625000D01*
X0001688582Y0001625000D02*
X0001688582Y0002100000D01*
X0001688582Y0002100000D02*
X0001738582Y0002200000D01*
D77*
X0002028582Y0002038425D02*
X0002040157Y0001950000D01*
X0002028582Y0002220000D02*
X0002028582Y0002038425D01*
X0001983582Y0002265000D02*
X0002028582Y0002220000D01*
X0001683582Y0002265000D02*
X0001983582Y0002265000D01*
X0001633582Y0002215000D02*
X0001683582Y0002265000D01*
X0001633582Y0002125000D02*
X0001633582Y0002215000D01*
X0001578582Y0002070000D02*
X0001633582Y0002125000D01*
X0001538582Y0002070000D02*
X0001578582Y0002070000D01*
X0001443582Y0001975000D02*
X0001538582Y0002070000D01*
X0001443582Y0001455000D02*
X0001443582Y0001975000D01*
X0001418582Y0001430000D02*
X0001443582Y0001455000D01*
X0002173582Y0000515000D02*
X0002173582Y0000485000D01*
X0002173582Y0000485000D02*
X0002123582Y0000435000D01*
X0002123582Y0000435000D02*
X0002093582Y0000435000D01*
X0002093582Y0000435000D02*
X0002023582Y0000365000D01*
X0002023582Y0000365000D02*
X0002013582Y0000355000D01*
X0002173582Y0000550000D02*
X0002223582Y0000600000D01*
X0001698582Y0000395000D02*
X0001698582Y0001030000D01*
X0001698582Y0001030000D02*
X0001678582Y0001050000D01*
X0001678582Y0001050000D02*
X0001603582Y0001050000D01*
X0001603582Y0001050000D02*
X0001563582Y0001090000D01*
X0001563582Y0001090000D02*
X0001563582Y0001315000D01*
X0001563582Y0001315000D02*
X0001598582Y0001350000D01*
X0001598582Y0001350000D02*
X0001878582Y0001350000D01*
X0001878582Y0001350000D02*
X0001893582Y0001365000D01*
X0001893582Y0001365000D02*
X0001893582Y0001645000D01*
X0001838582Y0001675000D02*
X0001893582Y0001645000D01*
X0002173582Y0000550000D02*
X0002173582Y0000515000D01*
X0001698582Y0000380000D02*
X0001698582Y0000395000D01*
X0001723582Y0000355000D02*
X0001698582Y0000380000D01*
X0002013582Y0000355000D02*
X0001723582Y0000355000D01*
X0002238582Y0000600000D02*
X0002223582Y0000600000D01*
X0002363582Y0000375000D02*
X0002413582Y0000375000D01*
X0002488582Y0000450000D02*
X0002488582Y0000675000D01*
X0002413582Y0000375000D02*
X0002488582Y0000450000D01*
X0002363582Y0000575000D02*
X0002363582Y0000650000D01*
X0002363582Y0000650000D02*
X0002388582Y0000675000D01*
X0002113582Y0000525000D02*
X0002113582Y0000575000D01*
X0002113582Y0000575000D02*
X0002238582Y0000700000D01*
X0002113582Y0000525000D02*
X0002113582Y0000540000D01*
X0002113582Y0000525000D02*
X0002103582Y0000525000D01*
X0002078582Y0001890000D02*
X0002103582Y0001890000D01*
X0002013582Y0000525000D02*
X0002013582Y0001825000D01*
X0002078582Y0001890000D02*
X0002013582Y0001825000D01*
X0002238582Y0002025000D02*
X0002338582Y0002125000D01*
X0002188582Y0002025000D02*
X0002238582Y0002025000D01*
X0002138582Y0001975000D02*
X0002188582Y0002025000D01*
X0002138582Y0001925000D02*
X0002138582Y0001975000D01*
X0002103582Y0001890000D02*
X0002138582Y0001925000D01*
X0002338582Y0002125000D02*
X0002363582Y0002125000D01*
X0002343582Y0002125000D02*
X0002363582Y0002125000D01*
X0002013582Y0000525000D02*
X0002013582Y0000690000D01*
X0002188582Y0000750000D02*
X0002238582Y0000800000D01*
X0002073582Y0000750000D02*
X0002188582Y0000750000D01*
X0002013582Y0000690000D02*
X0002073582Y0000750000D01*
X0002013582Y0000525000D02*
X0002013582Y0000550000D01*
D78*
X0001838582Y0001775000D02*
X0001813582Y0001775000D01*
X0001813582Y0001775000D02*
X0001738582Y0001700000D01*
X0001438582Y0000643700D02*
X0001442283Y0000643700D01*
X0001442283Y0000643700D02*
X0001568582Y0000770000D01*
X0001438582Y0001343700D02*
X0001513582Y0001268700D01*
X0001513582Y0001005000D02*
X0001513582Y0001268700D01*
X0001568582Y0000950000D02*
X0001513582Y0001005000D01*
X0001568582Y0000770000D02*
X0001568582Y0000950000D01*
X0001638582Y0000100000D02*
X0001598582Y0000100000D01*
X0001598582Y0000100000D02*
X0001568582Y0000130000D01*
X0001469881Y0000643700D02*
X0001538582Y0000575000D01*
X0001538582Y0000310000D02*
X0001538582Y0000575000D01*
X0001568582Y0000280000D02*
X0001538582Y0000310000D01*
X0001568582Y0000130000D02*
X0001568582Y0000280000D01*
X0001438582Y0000643700D02*
X0001469881Y0000643700D01*
X0001438582Y0000643700D02*
X0001444881Y0000643700D01*
X0001438582Y0001343700D02*
X0001438582Y0001350000D01*
X0001438582Y0001350000D02*
X0001513582Y0001425000D01*
X0001813582Y0001475000D02*
X0001838582Y0001500000D01*
X0001613582Y0001475000D02*
X0001813582Y0001475000D01*
X0001563582Y0001425000D02*
X0001613582Y0001475000D01*
X0001513582Y0001425000D02*
X0001563582Y0001425000D01*
X0001838582Y0002200000D02*
X0001838582Y0002175000D01*
X0001838582Y0002175000D02*
X0001738582Y0002025000D01*
X0001738582Y0002025000D02*
X0001738582Y0001750000D01*
X0001738582Y0001750000D02*
X0001738582Y0001700000D01*
X0001738582Y0001700000D02*
X0001738582Y0001600000D01*
X0001738582Y0001600000D02*
X0001838582Y0001500000D01*
D77*
X0002113582Y0000275000D02*
X0002113582Y0000230000D01*
X0002143582Y0000200000D02*
X0002238582Y0000200000D01*
X0002113582Y0000230000D02*
X0002143582Y0000200000D01*
X0002113582Y0000275000D02*
X0002013582Y0000275000D01*
X0001678582Y0001100000D02*
X0001638582Y0001100000D01*
D79*
G36*
X0002539212Y0000154862D02*
X0002530659Y0000111860D01*
X0002509054Y0000079527D01*
X0002476722Y0000057923D01*
X0002436985Y0000050019D01*
X0002440939Y0000059542D01*
X0002440966Y0000090322D01*
X0002429212Y0000118769D01*
X0002418475Y0000129525D01*
X0002421582Y0000137027D01*
X0002421582Y0000163750D01*
X0002415332Y0000169999D01*
X0002368582Y0000169999D01*
X0002368582Y0000169212D01*
X0002358582Y0000169212D01*
X0002358582Y0000169999D01*
X0002357795Y0000169999D01*
X0002357795Y0000180000D01*
X0002358582Y0000180000D01*
X0002358582Y0000180787D01*
X0002368582Y0000180787D01*
X0002368582Y0000180000D01*
X0002415332Y0000180000D01*
X0002421582Y0000186250D01*
X0002421582Y0000212972D01*
X0002417776Y0000222161D01*
X0002410744Y0000229193D01*
X0002410539Y0000229278D01*
X0002413457Y0000232196D01*
X0002408958Y0000236695D01*
X0002419464Y0000240580D01*
X0002428382Y0000264585D01*
X0002427435Y0000290175D01*
X0002424661Y0000296872D01*
X0002434496Y0000303202D01*
X0002444627Y0000318029D01*
X0002448192Y0000335629D01*
X0002448192Y0000336350D01*
X0002450613Y0000337968D01*
X0002525613Y0000412968D01*
X0002535236Y0000427370D01*
X0002536966Y0000429958D01*
X0002539212Y0000441251D01*
X0002539212Y0000154862D01*
X0002539212Y0000154862D01*
G37*
X0002539212Y0000154862D02*
X0002530659Y0000111860D01*
X0002509054Y0000079527D01*
X0002476722Y0000057923D01*
X0002436985Y0000050019D01*
X0002440939Y0000059542D01*
X0002440966Y0000090322D01*
X0002429212Y0000118769D01*
X0002418475Y0000129525D01*
X0002421582Y0000137027D01*
X0002421582Y0000163750D01*
X0002415332Y0000169999D01*
X0002368582Y0000169999D01*
X0002368582Y0000169212D01*
X0002358582Y0000169212D01*
X0002358582Y0000169999D01*
X0002357795Y0000169999D01*
X0002357795Y0000180000D01*
X0002358582Y0000180000D01*
X0002358582Y0000180787D01*
X0002368582Y0000180787D01*
X0002368582Y0000180000D01*
X0002415332Y0000180000D01*
X0002421582Y0000186250D01*
X0002421582Y0000212972D01*
X0002417776Y0000222161D01*
X0002410744Y0000229193D01*
X0002410539Y0000229278D01*
X0002413457Y0000232196D01*
X0002408958Y0000236695D01*
X0002419464Y0000240580D01*
X0002428382Y0000264585D01*
X0002427435Y0000290175D01*
X0002424661Y0000296872D01*
X0002434496Y0000303202D01*
X0002444627Y0000318029D01*
X0002448192Y0000335629D01*
X0002448192Y0000336350D01*
X0002450613Y0000337968D01*
X0002525613Y0000412968D01*
X0002535236Y0000427370D01*
X0002536966Y0000429958D01*
X0002539212Y0000441251D01*
X0002539212Y0000154862D01*
G36*
X0001643582Y0000205000D02*
X0001644370Y0000205000D01*
X0001644370Y0000195000D01*
X0001643582Y0000195000D01*
X0001643582Y0000194212D01*
X0001633582Y0000194212D01*
X0001633582Y0000195000D01*
X0001632795Y0000195000D01*
X0001632795Y0000205000D01*
X0001633582Y0000205000D01*
X0001633582Y0000205787D01*
X0001643582Y0000205787D01*
X0001643582Y0000205000D01*
X0001643582Y0000205000D01*
G37*
X0001643582Y0000205000D02*
X0001644370Y0000205000D01*
X0001644370Y0000195000D01*
X0001643582Y0000195000D01*
X0001643582Y0000194212D01*
X0001633582Y0000194212D01*
X0001633582Y0000195000D01*
X0001632795Y0000195000D01*
X0001632795Y0000205000D01*
X0001633582Y0000205000D01*
X0001633582Y0000205787D01*
X0001643582Y0000205787D01*
X0001643582Y0000205000D01*
G36*
X0001771210Y0000268981D02*
X0001770653Y0000268425D01*
X0001771210Y0000267868D01*
X0001764139Y0000260797D01*
X0001763582Y0000261354D01*
X0001763025Y0000260797D01*
X0001755954Y0000267868D01*
X0001756511Y0000268425D01*
X0001755954Y0000268981D01*
X0001763025Y0000276053D01*
X0001763582Y0000275496D01*
X0001764139Y0000276053D01*
X0001771210Y0000268981D01*
X0001771210Y0000268981D01*
G37*
X0001771210Y0000268981D02*
X0001770653Y0000268425D01*
X0001771210Y0000267868D01*
X0001764139Y0000260797D01*
X0001763582Y0000261354D01*
X0001763025Y0000260797D01*
X0001755954Y0000267868D01*
X0001756511Y0000268425D01*
X0001755954Y0000268981D01*
X0001763025Y0000276053D01*
X0001763582Y0000275496D01*
X0001764139Y0000276053D01*
X0001771210Y0000268981D01*
G36*
X0002371210Y0000275556D02*
X0002370653Y0000275000D01*
X0002371210Y0000274443D01*
X0002364139Y0000267372D01*
X0002363582Y0000267928D01*
X0002363025Y0000267372D01*
X0002355954Y0000274443D01*
X0002356511Y0000275000D01*
X0002355954Y0000275556D01*
X0002363025Y0000282627D01*
X0002363582Y0000282071D01*
X0002364139Y0000282627D01*
X0002371210Y0000275556D01*
X0002371210Y0000275556D01*
G37*
X0002371210Y0000275556D02*
X0002370653Y0000275000D01*
X0002371210Y0000274443D01*
X0002364139Y0000267372D01*
X0002363582Y0000267928D01*
X0002363025Y0000267372D01*
X0002355954Y0000274443D01*
X0002356511Y0000275000D01*
X0002355954Y0000275556D01*
X0002363025Y0000282627D01*
X0002363582Y0000282071D01*
X0002364139Y0000282627D01*
X0002371210Y0000275556D01*
G36*
X0001891085Y0002129049D02*
X0001921852Y0002116274D01*
X0001955166Y0002116245D01*
X0001976212Y0002124941D01*
X0001976212Y0002038425D01*
X0001976882Y0002035055D01*
X0001976655Y0002031627D01*
X0001979746Y0002008017D01*
X0001969207Y0001997496D01*
X0001956431Y0001966730D01*
X0001956402Y0001933416D01*
X0001969124Y0001902627D01*
X0001992660Y0001879049D01*
X0001993303Y0001878783D01*
X0001976551Y0001862031D01*
X0001965199Y0001845041D01*
X0001961212Y0001825000D01*
X0001961212Y0000591016D01*
X0001942649Y0000572485D01*
X0001929877Y0000541726D01*
X0001929848Y0000508420D01*
X0001942566Y0000477638D01*
X0001966097Y0000454066D01*
X0001996856Y0000441294D01*
X0002025789Y0000441269D01*
X0001991890Y0000407370D01*
X0001909455Y0000407370D01*
X0001908458Y0000431120D01*
X0001904714Y0000440159D01*
X0001915559Y0000447139D01*
X0001925690Y0000461966D01*
X0001929255Y0000479566D01*
X0001929255Y0000550433D01*
X0001926161Y0000566875D01*
X0001916443Y0000581977D01*
X0001901616Y0000592108D01*
X0001884015Y0000595672D01*
X0001813149Y0000595672D01*
X0001796707Y0000592578D01*
X0001781605Y0000582860D01*
X0001771474Y0000568033D01*
X0001767910Y0000550433D01*
X0001767910Y0000479566D01*
X0001771004Y0000463124D01*
X0001780721Y0000448022D01*
X0001792734Y0000439814D01*
X0001787698Y0000426049D01*
X0001788482Y0000407370D01*
X0001750952Y0000407370D01*
X0001750952Y0001030000D01*
X0001746966Y0001050041D01*
X0001742672Y0001056467D01*
X0001735613Y0001067031D01*
X0001725252Y0001077393D01*
X0001726966Y0001079958D01*
X0001730952Y0001100000D01*
X0001726966Y0001120041D01*
X0001722730Y0001126381D01*
X0001722052Y0001129786D01*
X0001708546Y0001150000D01*
X0001722052Y0001170213D01*
X0001727977Y0001200000D01*
X0001722052Y0001229786D01*
X0001708546Y0001250000D01*
X0001722052Y0001270213D01*
X0001727506Y0001297629D01*
X0001753673Y0001297629D01*
X0001758976Y0001270967D01*
X0001772986Y0001250000D01*
X0001758976Y0001229032D01*
X0001753202Y0001200000D01*
X0001758976Y0001170967D01*
X0001772986Y0001150000D01*
X0001758976Y0001129032D01*
X0001753202Y0001100000D01*
X0001758976Y0001070967D01*
X0001772986Y0001050000D01*
X0001758976Y0001029032D01*
X0001753202Y0001000000D01*
X0001758976Y0000970967D01*
X0001772986Y0000950000D01*
X0001758976Y0000929032D01*
X0001753202Y0000900000D01*
X0001758976Y0000870967D01*
X0001772986Y0000850000D01*
X0001758976Y0000829032D01*
X0001753202Y0000800000D01*
X0001758976Y0000770967D01*
X0001772986Y0000750000D01*
X0001758976Y0000729032D01*
X0001753202Y0000700000D01*
X0001758976Y0000670967D01*
X0001775422Y0000646354D01*
X0001800035Y0000629908D01*
X0001829068Y0000624133D01*
X0001848097Y0000624133D01*
X0001877130Y0000629908D01*
X0001901742Y0000646354D01*
X0001918188Y0000670967D01*
X0001923963Y0000700000D01*
X0001918188Y0000729032D01*
X0001904178Y0000750000D01*
X0001918188Y0000770967D01*
X0001923963Y0000800000D01*
X0001918188Y0000829032D01*
X0001904178Y0000850000D01*
X0001918188Y0000870967D01*
X0001923963Y0000900000D01*
X0001918188Y0000929032D01*
X0001904178Y0000950000D01*
X0001918188Y0000970967D01*
X0001923963Y0001000000D01*
X0001918188Y0001029032D01*
X0001904178Y0001050000D01*
X0001918188Y0001070967D01*
X0001923963Y0001100000D01*
X0001918188Y0001129032D01*
X0001904178Y0001150000D01*
X0001918188Y0001170967D01*
X0001923963Y0001200000D01*
X0001918188Y0001229032D01*
X0001904178Y0001250000D01*
X0001918188Y0001270967D01*
X0001923963Y0001300000D01*
X0001920426Y0001317781D01*
X0001930613Y0001327968D01*
X0001941966Y0001344958D01*
X0001942750Y0001348902D01*
X0001945952Y0001365000D01*
X0001945952Y0001645000D01*
X0001944494Y0001652331D01*
X0001943824Y0001659777D01*
X0001942516Y0001662275D01*
X0001941966Y0001665041D01*
X0001937813Y0001671256D01*
X0001934345Y0001677879D01*
X0001932180Y0001679686D01*
X0001930613Y0001682031D01*
X0001924398Y0001686184D01*
X0001923822Y0001686665D01*
X0001923822Y0001709000D01*
X0001920728Y0001725442D01*
X0001913289Y0001737001D01*
X0001918640Y0001745009D01*
X0001924605Y0001775000D01*
X0001918640Y0001804990D01*
X0001901651Y0001830416D01*
X0001890184Y0001838078D01*
X0001891761Y0001839486D01*
X0001901760Y0001860244D01*
X0001901864Y0001860865D01*
X0001897095Y0001870000D01*
X0001843582Y0001870000D01*
X0001843582Y0001869212D01*
X0001833582Y0001869212D01*
X0001833582Y0001870000D01*
X0001832795Y0001870000D01*
X0001832795Y0001880000D01*
X0001833582Y0001880000D01*
X0001833582Y0001927792D01*
X0001843582Y0001927792D01*
X0001843582Y0001880000D01*
X0001897095Y0001880000D01*
X0001901864Y0001889134D01*
X0001901760Y0001889755D01*
X0001891761Y0001910513D01*
X0001874579Y0001925864D01*
X0001852831Y0001933471D01*
X0001843582Y0001927792D01*
X0001833582Y0001927792D01*
X0001824334Y0001933471D01*
X0001802585Y0001925864D01*
X0001794952Y0001919044D01*
X0001794952Y0002007932D01*
X0001871721Y0002123085D01*
X0001885955Y0002128967D01*
X0001888566Y0002131573D01*
X0001891085Y0002129049D01*
X0001891085Y0002129049D01*
G37*
X0001891085Y0002129049D02*
X0001921852Y0002116274D01*
X0001955166Y0002116245D01*
X0001976212Y0002124941D01*
X0001976212Y0002038425D01*
X0001976882Y0002035055D01*
X0001976655Y0002031627D01*
X0001979746Y0002008017D01*
X0001969207Y0001997496D01*
X0001956431Y0001966730D01*
X0001956402Y0001933416D01*
X0001969124Y0001902627D01*
X0001992660Y0001879049D01*
X0001993303Y0001878783D01*
X0001976551Y0001862031D01*
X0001965199Y0001845041D01*
X0001961212Y0001825000D01*
X0001961212Y0000591016D01*
X0001942649Y0000572485D01*
X0001929877Y0000541726D01*
X0001929848Y0000508420D01*
X0001942566Y0000477638D01*
X0001966097Y0000454066D01*
X0001996856Y0000441294D01*
X0002025789Y0000441269D01*
X0001991890Y0000407370D01*
X0001909455Y0000407370D01*
X0001908458Y0000431120D01*
X0001904714Y0000440159D01*
X0001915559Y0000447139D01*
X0001925690Y0000461966D01*
X0001929255Y0000479566D01*
X0001929255Y0000550433D01*
X0001926161Y0000566875D01*
X0001916443Y0000581977D01*
X0001901616Y0000592108D01*
X0001884015Y0000595672D01*
X0001813149Y0000595672D01*
X0001796707Y0000592578D01*
X0001781605Y0000582860D01*
X0001771474Y0000568033D01*
X0001767910Y0000550433D01*
X0001767910Y0000479566D01*
X0001771004Y0000463124D01*
X0001780721Y0000448022D01*
X0001792734Y0000439814D01*
X0001787698Y0000426049D01*
X0001788482Y0000407370D01*
X0001750952Y0000407370D01*
X0001750952Y0001030000D01*
X0001746966Y0001050041D01*
X0001742672Y0001056467D01*
X0001735613Y0001067031D01*
X0001725252Y0001077393D01*
X0001726966Y0001079958D01*
X0001730952Y0001100000D01*
X0001726966Y0001120041D01*
X0001722730Y0001126381D01*
X0001722052Y0001129786D01*
X0001708546Y0001150000D01*
X0001722052Y0001170213D01*
X0001727977Y0001200000D01*
X0001722052Y0001229786D01*
X0001708546Y0001250000D01*
X0001722052Y0001270213D01*
X0001727506Y0001297629D01*
X0001753673Y0001297629D01*
X0001758976Y0001270967D01*
X0001772986Y0001250000D01*
X0001758976Y0001229032D01*
X0001753202Y0001200000D01*
X0001758976Y0001170967D01*
X0001772986Y0001150000D01*
X0001758976Y0001129032D01*
X0001753202Y0001100000D01*
X0001758976Y0001070967D01*
X0001772986Y0001050000D01*
X0001758976Y0001029032D01*
X0001753202Y0001000000D01*
X0001758976Y0000970967D01*
X0001772986Y0000950000D01*
X0001758976Y0000929032D01*
X0001753202Y0000900000D01*
X0001758976Y0000870967D01*
X0001772986Y0000850000D01*
X0001758976Y0000829032D01*
X0001753202Y0000800000D01*
X0001758976Y0000770967D01*
X0001772986Y0000750000D01*
X0001758976Y0000729032D01*
X0001753202Y0000700000D01*
X0001758976Y0000670967D01*
X0001775422Y0000646354D01*
X0001800035Y0000629908D01*
X0001829068Y0000624133D01*
X0001848097Y0000624133D01*
X0001877130Y0000629908D01*
X0001901742Y0000646354D01*
X0001918188Y0000670967D01*
X0001923963Y0000700000D01*
X0001918188Y0000729032D01*
X0001904178Y0000750000D01*
X0001918188Y0000770967D01*
X0001923963Y0000800000D01*
X0001918188Y0000829032D01*
X0001904178Y0000850000D01*
X0001918188Y0000870967D01*
X0001923963Y0000900000D01*
X0001918188Y0000929032D01*
X0001904178Y0000950000D01*
X0001918188Y0000970967D01*
X0001923963Y0001000000D01*
X0001918188Y0001029032D01*
X0001904178Y0001050000D01*
X0001918188Y0001070967D01*
X0001923963Y0001100000D01*
X0001918188Y0001129032D01*
X0001904178Y0001150000D01*
X0001918188Y0001170967D01*
X0001923963Y0001200000D01*
X0001918188Y0001229032D01*
X0001904178Y0001250000D01*
X0001918188Y0001270967D01*
X0001923963Y0001300000D01*
X0001920426Y0001317781D01*
X0001930613Y0001327968D01*
X0001941966Y0001344958D01*
X0001942750Y0001348902D01*
X0001945952Y0001365000D01*
X0001945952Y0001645000D01*
X0001944494Y0001652331D01*
X0001943824Y0001659777D01*
X0001942516Y0001662275D01*
X0001941966Y0001665041D01*
X0001937813Y0001671256D01*
X0001934345Y0001677879D01*
X0001932180Y0001679686D01*
X0001930613Y0001682031D01*
X0001924398Y0001686184D01*
X0001923822Y0001686665D01*
X0001923822Y0001709000D01*
X0001920728Y0001725442D01*
X0001913289Y0001737001D01*
X0001918640Y0001745009D01*
X0001924605Y0001775000D01*
X0001918640Y0001804990D01*
X0001901651Y0001830416D01*
X0001890184Y0001838078D01*
X0001891761Y0001839486D01*
X0001901760Y0001860244D01*
X0001901864Y0001860865D01*
X0001897095Y0001870000D01*
X0001843582Y0001870000D01*
X0001843582Y0001869212D01*
X0001833582Y0001869212D01*
X0001833582Y0001870000D01*
X0001832795Y0001870000D01*
X0001832795Y0001880000D01*
X0001833582Y0001880000D01*
X0001833582Y0001927792D01*
X0001843582Y0001927792D01*
X0001843582Y0001880000D01*
X0001897095Y0001880000D01*
X0001901864Y0001889134D01*
X0001901760Y0001889755D01*
X0001891761Y0001910513D01*
X0001874579Y0001925864D01*
X0001852831Y0001933471D01*
X0001843582Y0001927792D01*
X0001833582Y0001927792D01*
X0001824334Y0001933471D01*
X0001802585Y0001925864D01*
X0001794952Y0001919044D01*
X0001794952Y0002007932D01*
X0001871721Y0002123085D01*
X0001885955Y0002128967D01*
X0001888566Y0002131573D01*
X0001891085Y0002129049D01*
G36*
X0001856210Y0000417131D02*
X0001855653Y0000416574D01*
X0001856210Y0000416017D01*
X0001849139Y0000408946D01*
X0001848582Y0000409503D01*
X0001848025Y0000408946D01*
X0001840954Y0000416017D01*
X0001841511Y0000416574D01*
X0001840954Y0000417131D01*
X0001848025Y0000424202D01*
X0001848582Y0000423645D01*
X0001849139Y0000424202D01*
X0001856210Y0000417131D01*
X0001856210Y0000417131D01*
G37*
X0001856210Y0000417131D02*
X0001855653Y0000416574D01*
X0001856210Y0000416017D01*
X0001849139Y0000408946D01*
X0001848582Y0000409503D01*
X0001848025Y0000408946D01*
X0001840954Y0000416017D01*
X0001841511Y0000416574D01*
X0001840954Y0000417131D01*
X0001848025Y0000424202D01*
X0001848582Y0000423645D01*
X0001849139Y0000424202D01*
X0001856210Y0000417131D01*
G36*
X0002371210Y0000475556D02*
X0002370653Y0000475000D01*
X0002371210Y0000474443D01*
X0002364139Y0000467372D01*
X0002363582Y0000467928D01*
X0002363025Y0000467372D01*
X0002355954Y0000474443D01*
X0002356511Y0000475000D01*
X0002355954Y0000475556D01*
X0002363025Y0000482627D01*
X0002363582Y0000482071D01*
X0002364139Y0000482627D01*
X0002371210Y0000475556D01*
X0002371210Y0000475556D01*
G37*
X0002371210Y0000475556D02*
X0002370653Y0000475000D01*
X0002371210Y0000474443D01*
X0002364139Y0000467372D01*
X0002363582Y0000467928D01*
X0002363025Y0000467372D01*
X0002355954Y0000474443D01*
X0002356511Y0000475000D01*
X0002355954Y0000475556D01*
X0002363025Y0000482627D01*
X0002363582Y0000482071D01*
X0002364139Y0000482627D01*
X0002371210Y0000475556D01*
G36*
X0002441097Y0001304066D02*
X0002464576Y0001294317D01*
X0002462365Y0001288367D01*
X0002463312Y0001262777D01*
X0002471284Y0001243532D01*
X0002481790Y0001239648D01*
X0002520094Y0001277952D01*
X0002519537Y0001278509D01*
X0002526608Y0001285580D01*
X0002527165Y0001285023D01*
X0002527722Y0001285580D01*
X0002534793Y0001278509D01*
X0002534236Y0001277952D01*
X0002534793Y0001277395D01*
X0002527722Y0001270324D01*
X0002527165Y0001270881D01*
X0002488861Y0001232577D01*
X0002492745Y0001222071D01*
X0002516750Y0001213153D01*
X0002539212Y0001213984D01*
X0002539212Y0001086240D01*
X0002537580Y0001086846D01*
X0002511989Y0001085899D01*
X0002492745Y0001077928D01*
X0002488861Y0001067422D01*
X0002527165Y0001029118D01*
X0002527722Y0001029675D01*
X0002534793Y0001022604D01*
X0002534236Y0001022047D01*
X0002534793Y0001021490D01*
X0002527722Y0001014419D01*
X0002527165Y0001014976D01*
X0002526608Y0001014419D01*
X0002519537Y0001021490D01*
X0002520094Y0001022047D01*
X0002481790Y0001060351D01*
X0002471284Y0001056467D01*
X0002462365Y0001032462D01*
X0002463312Y0001006871D01*
X0002463923Y0001005396D01*
X0002441221Y0000996015D01*
X0002438598Y0000993398D01*
X0002436068Y0000995933D01*
X0002430746Y0000998142D01*
X0002433725Y0001005317D01*
X0002433754Y0001038631D01*
X0002421032Y0001069420D01*
X0002402370Y0001088115D01*
X0002402370Y0001211908D01*
X0002420950Y0001230455D01*
X0002433725Y0001261222D01*
X0002433754Y0001294536D01*
X0002430739Y0001301833D01*
X0002435944Y0001303984D01*
X0002438566Y0001306601D01*
X0002441097Y0001304066D01*
X0002441097Y0001304066D01*
G37*
X0002441097Y0001304066D02*
X0002464576Y0001294317D01*
X0002462365Y0001288367D01*
X0002463312Y0001262777D01*
X0002471284Y0001243532D01*
X0002481790Y0001239648D01*
X0002520094Y0001277952D01*
X0002519537Y0001278509D01*
X0002526608Y0001285580D01*
X0002527165Y0001285023D01*
X0002527722Y0001285580D01*
X0002534793Y0001278509D01*
X0002534236Y0001277952D01*
X0002534793Y0001277395D01*
X0002527722Y0001270324D01*
X0002527165Y0001270881D01*
X0002488861Y0001232577D01*
X0002492745Y0001222071D01*
X0002516750Y0001213153D01*
X0002539212Y0001213984D01*
X0002539212Y0001086240D01*
X0002537580Y0001086846D01*
X0002511989Y0001085899D01*
X0002492745Y0001077928D01*
X0002488861Y0001067422D01*
X0002527165Y0001029118D01*
X0002527722Y0001029675D01*
X0002534793Y0001022604D01*
X0002534236Y0001022047D01*
X0002534793Y0001021490D01*
X0002527722Y0001014419D01*
X0002527165Y0001014976D01*
X0002526608Y0001014419D01*
X0002519537Y0001021490D01*
X0002520094Y0001022047D01*
X0002481790Y0001060351D01*
X0002471284Y0001056467D01*
X0002462365Y0001032462D01*
X0002463312Y0001006871D01*
X0002463923Y0001005396D01*
X0002441221Y0000996015D01*
X0002438598Y0000993398D01*
X0002436068Y0000995933D01*
X0002430746Y0000998142D01*
X0002433725Y0001005317D01*
X0002433754Y0001038631D01*
X0002421032Y0001069420D01*
X0002402370Y0001088115D01*
X0002402370Y0001211908D01*
X0002420950Y0001230455D01*
X0002433725Y0001261222D01*
X0002433754Y0001294536D01*
X0002430739Y0001301833D01*
X0002435944Y0001303984D01*
X0002438566Y0001306601D01*
X0002441097Y0001304066D01*
G36*
X0002244635Y0001950556D02*
X0002244078Y0001950000D01*
X0002282383Y0001911695D01*
X0002292889Y0001915580D01*
X0002298916Y0001931804D01*
X0002299730Y0001909824D01*
X0002302504Y0001903127D01*
X0002292668Y0001896797D01*
X0002282537Y0001881970D01*
X0002278973Y0001864370D01*
X0002278973Y0001785629D01*
X0002282067Y0001769187D01*
X0002291784Y0001754085D01*
X0002302898Y0001746492D01*
X0002298783Y0001735414D01*
X0002299730Y0001709824D01*
X0002307701Y0001690580D01*
X0002318207Y0001686695D01*
X0002356511Y0001725000D01*
X0002355954Y0001725556D01*
X0002363025Y0001732627D01*
X0002363582Y0001732071D01*
X0002364139Y0001732627D01*
X0002371210Y0001725556D01*
X0002370653Y0001725000D01*
X0002371210Y0001724443D01*
X0002364139Y0001717372D01*
X0002363582Y0001717928D01*
X0002341985Y0001696331D01*
X0002341221Y0001696015D01*
X0002317649Y0001672485D01*
X0002304877Y0001641726D01*
X0002304848Y0001608420D01*
X0002317566Y0001577638D01*
X0002341097Y0001554066D01*
X0002371856Y0001541294D01*
X0002405162Y0001541265D01*
X0002435944Y0001553984D01*
X0002438566Y0001556601D01*
X0002441097Y0001554066D01*
X0002471856Y0001541294D01*
X0002505162Y0001541265D01*
X0002535944Y0001553984D01*
X0002539212Y0001557246D01*
X0002539212Y0001442783D01*
X0002536068Y0001445933D01*
X0002505308Y0001458705D01*
X0002472002Y0001458734D01*
X0002441221Y0001446015D01*
X0002438598Y0001443398D01*
X0002436068Y0001445933D01*
X0002405308Y0001458705D01*
X0002372002Y0001458734D01*
X0002341221Y0001446015D01*
X0002322534Y0001427362D01*
X0002322052Y0001429786D01*
X0002305180Y0001455037D01*
X0002279928Y0001471909D01*
X0002250142Y0001477834D01*
X0002227022Y0001477834D01*
X0002197236Y0001471909D01*
X0002193049Y0001469112D01*
X0002200844Y0001483987D01*
X0002201256Y0001486258D01*
X0002196453Y0001495000D01*
X0002143582Y0001495000D01*
X0002143582Y0001494212D01*
X0002133582Y0001494212D01*
X0002133582Y0001495000D01*
X0002080712Y0001495000D01*
X0002075909Y0001486258D01*
X0002076321Y0001483987D01*
X0002086589Y0001464392D01*
X0002088775Y0001462567D01*
X0002075422Y0001453645D01*
X0002065952Y0001439472D01*
X0002065952Y0001513741D01*
X0002075909Y0001513741D01*
X0002080712Y0001505000D01*
X0002133582Y0001505000D01*
X0002133582Y0001550372D01*
X0002143582Y0001550372D01*
X0002143582Y0001505000D01*
X0002196453Y0001505000D01*
X0002201256Y0001513741D01*
X0002200844Y0001516012D01*
X0002190576Y0001535607D01*
X0002173591Y0001549780D01*
X0002152475Y0001556375D01*
X0002143582Y0001550372D01*
X0002133582Y0001550372D01*
X0002124689Y0001556375D01*
X0002103573Y0001549780D01*
X0002086589Y0001535607D01*
X0002076321Y0001516012D01*
X0002075909Y0001513741D01*
X0002065952Y0001513741D01*
X0002065952Y0001661899D01*
X0002105978Y0001661899D01*
X0002108897Y0001652210D01*
X0002130048Y0001644607D01*
X0002152498Y0001645678D01*
X0002168267Y0001652210D01*
X0002171186Y0001661899D01*
X0002138582Y0001694503D01*
X0002105978Y0001661899D01*
X0002065952Y0001661899D01*
X0002065952Y0001750489D01*
X0002074658Y0001736959D01*
X0002087992Y0001727849D01*
X0002081615Y0001710109D01*
X0002082685Y0001687659D01*
X0002089217Y0001671889D01*
X0002098907Y0001668970D01*
X0002131511Y0001701574D01*
X0002130954Y0001702131D01*
X0002138025Y0001709202D01*
X0002138582Y0001708645D01*
X0002139139Y0001709202D01*
X0002146210Y0001702131D01*
X0002145653Y0001701574D01*
X0002178257Y0001668970D01*
X0002187947Y0001671889D01*
X0002195549Y0001693040D01*
X0002194479Y0001715490D01*
X0002189250Y0001728114D01*
X0002201622Y0001736076D01*
X0002211753Y0001750903D01*
X0002215318Y0001768503D01*
X0002215318Y0001831496D01*
X0002212224Y0001847938D01*
X0002202506Y0001863040D01*
X0002187679Y0001873171D01*
X0002170078Y0001876735D01*
X0002164380Y0001876735D01*
X0002175613Y0001887968D01*
X0002183268Y0001899424D01*
X0002186743Y0001904624D01*
X0002198703Y0001904624D01*
X0002202588Y0001894118D01*
X0002226592Y0001885200D01*
X0002252183Y0001886147D01*
X0002271427Y0001894118D01*
X0002275312Y0001904624D01*
X0002237007Y0001942928D01*
X0002198703Y0001904624D01*
X0002186743Y0001904624D01*
X0002186966Y0001904958D01*
X0002188534Y0001912841D01*
X0002191632Y0001911695D01*
X0002229936Y0001950000D01*
X0002229380Y0001950556D01*
X0002236451Y0001957627D01*
X0002237007Y0001957071D01*
X0002237564Y0001957627D01*
X0002244635Y0001950556D01*
X0002244635Y0001950556D01*
G37*
X0002244635Y0001950556D02*
X0002244078Y0001950000D01*
X0002282383Y0001911695D01*
X0002292889Y0001915580D01*
X0002298916Y0001931804D01*
X0002299730Y0001909824D01*
X0002302504Y0001903127D01*
X0002292668Y0001896797D01*
X0002282537Y0001881970D01*
X0002278973Y0001864370D01*
X0002278973Y0001785629D01*
X0002282067Y0001769187D01*
X0002291784Y0001754085D01*
X0002302898Y0001746492D01*
X0002298783Y0001735414D01*
X0002299730Y0001709824D01*
X0002307701Y0001690580D01*
X0002318207Y0001686695D01*
X0002356511Y0001725000D01*
X0002355954Y0001725556D01*
X0002363025Y0001732627D01*
X0002363582Y0001732071D01*
X0002364139Y0001732627D01*
X0002371210Y0001725556D01*
X0002370653Y0001725000D01*
X0002371210Y0001724443D01*
X0002364139Y0001717372D01*
X0002363582Y0001717928D01*
X0002341985Y0001696331D01*
X0002341221Y0001696015D01*
X0002317649Y0001672485D01*
X0002304877Y0001641726D01*
X0002304848Y0001608420D01*
X0002317566Y0001577638D01*
X0002341097Y0001554066D01*
X0002371856Y0001541294D01*
X0002405162Y0001541265D01*
X0002435944Y0001553984D01*
X0002438566Y0001556601D01*
X0002441097Y0001554066D01*
X0002471856Y0001541294D01*
X0002505162Y0001541265D01*
X0002535944Y0001553984D01*
X0002539212Y0001557246D01*
X0002539212Y0001442783D01*
X0002536068Y0001445933D01*
X0002505308Y0001458705D01*
X0002472002Y0001458734D01*
X0002441221Y0001446015D01*
X0002438598Y0001443398D01*
X0002436068Y0001445933D01*
X0002405308Y0001458705D01*
X0002372002Y0001458734D01*
X0002341221Y0001446015D01*
X0002322534Y0001427362D01*
X0002322052Y0001429786D01*
X0002305180Y0001455037D01*
X0002279928Y0001471909D01*
X0002250142Y0001477834D01*
X0002227022Y0001477834D01*
X0002197236Y0001471909D01*
X0002193049Y0001469112D01*
X0002200844Y0001483987D01*
X0002201256Y0001486258D01*
X0002196453Y0001495000D01*
X0002143582Y0001495000D01*
X0002143582Y0001494212D01*
X0002133582Y0001494212D01*
X0002133582Y0001495000D01*
X0002080712Y0001495000D01*
X0002075909Y0001486258D01*
X0002076321Y0001483987D01*
X0002086589Y0001464392D01*
X0002088775Y0001462567D01*
X0002075422Y0001453645D01*
X0002065952Y0001439472D01*
X0002065952Y0001513741D01*
X0002075909Y0001513741D01*
X0002080712Y0001505000D01*
X0002133582Y0001505000D01*
X0002133582Y0001550372D01*
X0002143582Y0001550372D01*
X0002143582Y0001505000D01*
X0002196453Y0001505000D01*
X0002201256Y0001513741D01*
X0002200844Y0001516012D01*
X0002190576Y0001535607D01*
X0002173591Y0001549780D01*
X0002152475Y0001556375D01*
X0002143582Y0001550372D01*
X0002133582Y0001550372D01*
X0002124689Y0001556375D01*
X0002103573Y0001549780D01*
X0002086589Y0001535607D01*
X0002076321Y0001516012D01*
X0002075909Y0001513741D01*
X0002065952Y0001513741D01*
X0002065952Y0001661899D01*
X0002105978Y0001661899D01*
X0002108897Y0001652210D01*
X0002130048Y0001644607D01*
X0002152498Y0001645678D01*
X0002168267Y0001652210D01*
X0002171186Y0001661899D01*
X0002138582Y0001694503D01*
X0002105978Y0001661899D01*
X0002065952Y0001661899D01*
X0002065952Y0001750489D01*
X0002074658Y0001736959D01*
X0002087992Y0001727849D01*
X0002081615Y0001710109D01*
X0002082685Y0001687659D01*
X0002089217Y0001671889D01*
X0002098907Y0001668970D01*
X0002131511Y0001701574D01*
X0002130954Y0001702131D01*
X0002138025Y0001709202D01*
X0002138582Y0001708645D01*
X0002139139Y0001709202D01*
X0002146210Y0001702131D01*
X0002145653Y0001701574D01*
X0002178257Y0001668970D01*
X0002187947Y0001671889D01*
X0002195549Y0001693040D01*
X0002194479Y0001715490D01*
X0002189250Y0001728114D01*
X0002201622Y0001736076D01*
X0002211753Y0001750903D01*
X0002215318Y0001768503D01*
X0002215318Y0001831496D01*
X0002212224Y0001847938D01*
X0002202506Y0001863040D01*
X0002187679Y0001873171D01*
X0002170078Y0001876735D01*
X0002164380Y0001876735D01*
X0002175613Y0001887968D01*
X0002183268Y0001899424D01*
X0002186743Y0001904624D01*
X0002198703Y0001904624D01*
X0002202588Y0001894118D01*
X0002226592Y0001885200D01*
X0002252183Y0001886147D01*
X0002271427Y0001894118D01*
X0002275312Y0001904624D01*
X0002237007Y0001942928D01*
X0002198703Y0001904624D01*
X0002186743Y0001904624D01*
X0002186966Y0001904958D01*
X0002188534Y0001912841D01*
X0002191632Y0001911695D01*
X0002229936Y0001950000D01*
X0002229380Y0001950556D01*
X0002236451Y0001957627D01*
X0002237007Y0001957071D01*
X0002237564Y0001957627D01*
X0002244635Y0001950556D01*
G36*
X0002305582Y0002236250D02*
X0002311832Y0002230000D01*
X0002358582Y0002230000D01*
X0002358582Y0002230787D01*
X0002368582Y0002230787D01*
X0002368582Y0002230000D01*
X0002415332Y0002230000D01*
X0002421582Y0002236250D01*
X0002421582Y0002250629D01*
X0002433720Y0002250629D01*
X0002476722Y0002242076D01*
X0002509054Y0002220472D01*
X0002530659Y0002188139D01*
X0002539212Y0002145137D01*
X0002539212Y0001692783D01*
X0002536068Y0001695933D01*
X0002505308Y0001708705D01*
X0002472002Y0001708734D01*
X0002441221Y0001696015D01*
X0002438598Y0001693398D01*
X0002436068Y0001695933D01*
X0002423406Y0001701190D01*
X0002428382Y0001714585D01*
X0002427435Y0001740175D01*
X0002424661Y0001746872D01*
X0002434496Y0001753202D01*
X0002444627Y0001768029D01*
X0002448192Y0001785629D01*
X0002448192Y0001864370D01*
X0002445098Y0001880812D01*
X0002435380Y0001895914D01*
X0002424266Y0001903507D01*
X0002428382Y0001914585D01*
X0002427435Y0001940175D01*
X0002424661Y0001946872D01*
X0002434496Y0001953202D01*
X0002444627Y0001968029D01*
X0002448192Y0001985629D01*
X0002448192Y0002064370D01*
X0002445098Y0002080812D01*
X0002435380Y0002095914D01*
X0002435302Y0002095967D01*
X0002440939Y0002109542D01*
X0002440966Y0002140322D01*
X0002429212Y0002168769D01*
X0002418475Y0002179525D01*
X0002421582Y0002187027D01*
X0002421582Y0002213750D01*
X0002415332Y0002220000D01*
X0002368582Y0002220000D01*
X0002368582Y0002219212D01*
X0002358582Y0002219212D01*
X0002358582Y0002220000D01*
X0002311832Y0002220000D01*
X0002305582Y0002213750D01*
X0002305582Y0002187027D01*
X0002308690Y0002179525D01*
X0002298029Y0002168883D01*
X0002296943Y0002166267D01*
X0002296947Y0002171456D01*
X0002280487Y0002211293D01*
X0002250036Y0002241798D01*
X0002228766Y0002250629D01*
X0002305582Y0002250629D01*
X0002305582Y0002236250D01*
X0002305582Y0002236250D01*
G37*
X0002305582Y0002236250D02*
X0002311832Y0002230000D01*
X0002358582Y0002230000D01*
X0002358582Y0002230787D01*
X0002368582Y0002230787D01*
X0002368582Y0002230000D01*
X0002415332Y0002230000D01*
X0002421582Y0002236250D01*
X0002421582Y0002250629D01*
X0002433720Y0002250629D01*
X0002476722Y0002242076D01*
X0002509054Y0002220472D01*
X0002530659Y0002188139D01*
X0002539212Y0002145137D01*
X0002539212Y0001692783D01*
X0002536068Y0001695933D01*
X0002505308Y0001708705D01*
X0002472002Y0001708734D01*
X0002441221Y0001696015D01*
X0002438598Y0001693398D01*
X0002436068Y0001695933D01*
X0002423406Y0001701190D01*
X0002428382Y0001714585D01*
X0002427435Y0001740175D01*
X0002424661Y0001746872D01*
X0002434496Y0001753202D01*
X0002444627Y0001768029D01*
X0002448192Y0001785629D01*
X0002448192Y0001864370D01*
X0002445098Y0001880812D01*
X0002435380Y0001895914D01*
X0002424266Y0001903507D01*
X0002428382Y0001914585D01*
X0002427435Y0001940175D01*
X0002424661Y0001946872D01*
X0002434496Y0001953202D01*
X0002444627Y0001968029D01*
X0002448192Y0001985629D01*
X0002448192Y0002064370D01*
X0002445098Y0002080812D01*
X0002435380Y0002095914D01*
X0002435302Y0002095967D01*
X0002440939Y0002109542D01*
X0002440966Y0002140322D01*
X0002429212Y0002168769D01*
X0002418475Y0002179525D01*
X0002421582Y0002187027D01*
X0002421582Y0002213750D01*
X0002415332Y0002220000D01*
X0002368582Y0002220000D01*
X0002368582Y0002219212D01*
X0002358582Y0002219212D01*
X0002358582Y0002220000D01*
X0002311832Y0002220000D01*
X0002305582Y0002213750D01*
X0002305582Y0002187027D01*
X0002308690Y0002179525D01*
X0002298029Y0002168883D01*
X0002296943Y0002166267D01*
X0002296947Y0002171456D01*
X0002280487Y0002211293D01*
X0002250036Y0002241798D01*
X0002228766Y0002250629D01*
X0002305582Y0002250629D01*
X0002305582Y0002236250D01*
G36*
X0002371210Y0001925556D02*
X0002370653Y0001925000D01*
X0002371210Y0001924443D01*
X0002364139Y0001917372D01*
X0002363582Y0001917928D01*
X0002363025Y0001917372D01*
X0002355954Y0001924443D01*
X0002356511Y0001925000D01*
X0002355954Y0001925556D01*
X0002363025Y0001932627D01*
X0002363582Y0001932071D01*
X0002364139Y0001932627D01*
X0002371210Y0001925556D01*
X0002371210Y0001925556D01*
G37*
X0002371210Y0001925556D02*
X0002370653Y0001925000D01*
X0002371210Y0001924443D01*
X0002364139Y0001917372D01*
X0002363582Y0001917928D01*
X0002363025Y0001917372D01*
X0002355954Y0001924443D01*
X0002356511Y0001925000D01*
X0002355954Y0001925556D01*
X0002363025Y0001932627D01*
X0002363582Y0001932071D01*
X0002364139Y0001932627D01*
X0002371210Y0001925556D01*
G36*
X0001583582Y0001975000D02*
X0001584370Y0001975000D01*
X0001584370Y0001965000D01*
X0001583582Y0001965000D01*
X0001583582Y0001964212D01*
X0001573582Y0001964212D01*
X0001573582Y0001965000D01*
X0001572795Y0001965000D01*
X0001572795Y0001975000D01*
X0001573582Y0001975000D01*
X0001573582Y0001975787D01*
X0001583582Y0001975787D01*
X0001583582Y0001975000D01*
X0001583582Y0001975000D01*
G37*
X0001583582Y0001975000D02*
X0001584370Y0001975000D01*
X0001584370Y0001965000D01*
X0001583582Y0001965000D01*
X0001583582Y0001964212D01*
X0001573582Y0001964212D01*
X0001573582Y0001965000D01*
X0001572795Y0001965000D01*
X0001572795Y0001975000D01*
X0001573582Y0001975000D01*
X0001573582Y0001975787D01*
X0001583582Y0001975787D01*
X0001583582Y0001975000D01*
G04 next file*
G04 #@! TF.FileFunction,Copper,L1,Top,Signal*
G04 Gerber Fmt 4.6, Leading zero omitted, Abs format (unit mm)*
G04 Created by KiCad (PCBNEW 4.0.7) date 02/16/20 15:39:30*
G01*
G04 APERTURE LIST*
G04 APERTURE END LIST*
D80*
D81*
X-0002122834Y0004650000D02*
X0003702165Y0000075000D03*
D82*
X0003702165Y0000175000D03*
D83*
X0002777165Y0000250000D03*
D84*
X0002777165Y0000348425D03*
X0002777165Y0000446850D03*
X0002777165Y0000545275D03*
X0002777165Y0000643700D03*
D85*
X0003177165Y0001675000D03*
D86*
X0003177165Y0001775000D03*
X0003177165Y0001875000D03*
D87*
X0002977165Y0000100000D03*
X0002977165Y0000200000D03*
X0002977165Y0000300000D03*
X0002977165Y0000400000D03*
X0002977165Y0000500000D03*
X0002977165Y0000600000D03*
X0002977165Y0000700000D03*
X0002977165Y0000800000D03*
X0002977165Y0000900000D03*
X0002977165Y0001000000D03*
X0002977165Y0001100000D03*
X0002977165Y0001200000D03*
X0002977165Y0001300000D03*
X0002977165Y0001400000D03*
D84*
X0003378740Y0001950000D03*
X0003575590Y0001950000D03*
X0003702165Y0000275000D03*
D83*
X0003702165Y0000375000D03*
D88*
X0003187165Y0000515000D03*
D89*
X0003187165Y0000416574D03*
D84*
X0003102165Y0000169999D03*
X0003102165Y0000268425D03*
D90*
X0003477165Y0000700000D03*
X0003477165Y0000800000D03*
X0003477165Y0000900000D03*
X0003477165Y0001000000D03*
X0003477165Y0001100000D03*
X0003477165Y0001200000D03*
X0003477165Y0001300000D03*
X0003477165Y0001400000D03*
X0003477165Y0001500000D03*
X0003177165Y0001500000D03*
X0003177165Y0001400000D03*
X0003177165Y0001300000D03*
X0003177165Y0001200000D03*
X0003177165Y0001100000D03*
X0003177165Y0001000000D03*
X0003177165Y0000900000D03*
X0003177165Y0000800000D03*
X0003177165Y0000700000D03*
D91*
X0003477165Y0001701574D03*
D92*
X0003477165Y0001800000D03*
D83*
X0003077165Y0002200000D03*
D84*
X0003177165Y0002200000D03*
X0003277165Y0002200000D03*
D93*
X0002917165Y0001832204D03*
D94*
X0002917165Y0001970000D03*
D93*
X0002917165Y0001542204D03*
D94*
X0002917165Y0001680000D03*
D84*
X0003688582Y0001277952D03*
X0003865748Y0001277952D03*
X0003688582Y0001022047D03*
X0003865748Y0001022047D03*
X0003702165Y0000475000D03*
D83*
X0003702165Y0000575000D03*
D84*
X0003702165Y0001925000D03*
D83*
X0003702165Y0002025000D03*
D84*
X0003702165Y0001725000D03*
D83*
X0003702165Y0001825000D03*
D95*
X0003352165Y0000275000D03*
X0003352165Y0000525000D03*
X0003452165Y0000275000D03*
X0003452165Y0000525000D03*
X0003827165Y0001375000D03*
X0003827165Y0001625000D03*
X0003727165Y0001375000D03*
X0003727165Y0001625000D03*
X0003827165Y0000925000D03*
X0003827165Y0000675000D03*
X0003727165Y0000925000D03*
X0003727165Y0000675000D03*
D87*
X0003577165Y0000100000D03*
X0003577165Y0000200000D03*
X0003577165Y0000300000D03*
X0003577165Y0000400000D03*
X0003577165Y0000500000D03*
X0003577165Y0000600000D03*
X0003577165Y0000700000D03*
X0003577165Y0000800000D03*
X0003577165Y0000900000D03*
X0003577165Y0001000000D03*
X0003577165Y0001100000D03*
X0003577165Y0001200000D03*
X0003577165Y0001300000D03*
X0003577165Y0001400000D03*
D83*
X0002777165Y0000950000D03*
D84*
X0002777165Y0001048425D03*
X0002777165Y0001146850D03*
X0002777165Y0001245275D03*
X0002777165Y0001343700D03*
D81*
X0003702165Y0002125000D03*
D82*
X0003702165Y0002225000D03*
D96*
X0002757165Y0001430000D03*
D97*
X0003569665Y0002052500D02*
X0003567165Y0002050000D01*
D98*
X0003177165Y0001875000D02*
X0003202165Y0001875000D01*
X0003202165Y0001875000D02*
X0003277165Y0001800000D01*
X0003172165Y0000030000D02*
X0003147165Y0000030000D01*
X0003172165Y0000030000D02*
X0003622165Y0000030000D01*
X0003622165Y0000030000D02*
X0003642165Y0000050000D01*
X0003642165Y0000050000D02*
X0003642165Y0000115000D01*
X0003702165Y0000175000D02*
X0003642165Y0000115000D01*
X0003147165Y0000030000D02*
X0002977165Y0000200000D01*
X0003702165Y0001725000D02*
X0003667165Y0001725000D01*
X0003667165Y0001725000D02*
X0003643740Y0001701574D01*
X0003643740Y0001701574D02*
X0003477165Y0001701574D01*
X0003702165Y0000175000D02*
X0003757165Y0000175000D01*
X0003892165Y0000995629D02*
X0003865748Y0001022047D01*
X0003892165Y0000310000D02*
X0003892165Y0000995629D01*
X0003757165Y0000175000D02*
X0003892165Y0000310000D01*
X0003865748Y0001277952D02*
X0003865748Y0001022047D01*
X0003702165Y0001725000D02*
X0003842165Y0001725000D01*
X0003897165Y0001309370D02*
X0003865748Y0001277952D01*
X0003897165Y0001670000D02*
X0003897165Y0001309370D01*
X0003842165Y0001725000D02*
X0003897165Y0001670000D01*
X0003702165Y0001925000D02*
X0003752165Y0001925000D01*
X0003757165Y0001725000D02*
X0003702165Y0001725000D01*
X0003802165Y0001770000D02*
X0003757165Y0001725000D01*
X0003802165Y0001875000D02*
X0003802165Y0001770000D01*
X0003752165Y0001925000D02*
X0003802165Y0001875000D01*
X0003477165Y0001500000D02*
X0003477165Y0001701574D01*
X0003702165Y0001925000D02*
X0003772165Y0001925000D01*
X0003742165Y0002225000D02*
X0003702165Y0002225000D01*
X0003802165Y0002165000D02*
X0003742165Y0002225000D01*
X0003802165Y0001955000D02*
X0003802165Y0002165000D01*
X0003772165Y0001925000D02*
X0003802165Y0001955000D01*
X0003277165Y0000600000D02*
X0003277165Y0001800000D01*
D97*
X0003862795Y0001275000D02*
X0003865748Y0001277952D01*
X0003702165Y0002225000D02*
X0003692165Y0002225000D01*
X0003677165Y0002225000D02*
X0003702165Y0002225000D01*
X0003477165Y0000350000D02*
X0003417165Y0000350000D01*
X0003639665Y0000637500D02*
X0003652165Y0000650000D01*
X0003652165Y0000650000D02*
X0003652165Y0000710000D01*
X0003652165Y0000710000D02*
X0003727165Y0000785000D01*
X0003727165Y0000925000D02*
X0003727165Y0000785000D01*
X0003617165Y0000360000D02*
X0003607165Y0000350000D01*
X0003617165Y0000360000D02*
X0003639665Y0000387500D01*
X0003607165Y0000350000D02*
X0003477165Y0000350000D01*
X0003639665Y0000387500D02*
X0003639665Y0000637500D01*
X0002927165Y0000350000D02*
X0002917165Y0000360000D01*
X0003027165Y0000350000D02*
X0002927165Y0000350000D01*
X0003047165Y0000330000D02*
X0003027165Y0000350000D01*
X0003397165Y0000330000D02*
X0003047165Y0000330000D01*
X0003417165Y0000350000D02*
X0003397165Y0000330000D01*
X0002917165Y0000360000D02*
X0002917165Y0000575000D01*
X0002942165Y0000600000D02*
X0002917165Y0000575000D01*
X0002942165Y0000600000D02*
X0002977165Y0000600000D01*
X0003688582Y0001277952D02*
X0003688582Y0001022047D01*
D98*
X0002917165Y0001832204D02*
X0002917165Y0001680000D01*
X0002917165Y0001542204D02*
X0002944370Y0001542204D01*
X0002944370Y0001542204D02*
X0003027165Y0001625000D01*
X0003027165Y0001625000D02*
X0003027165Y0002100000D01*
X0003027165Y0002100000D02*
X0003077165Y0002200000D01*
D97*
X0003367165Y0002038425D02*
X0003378740Y0001950000D01*
X0003367165Y0002220000D02*
X0003367165Y0002038425D01*
X0003322165Y0002265000D02*
X0003367165Y0002220000D01*
X0003022165Y0002265000D02*
X0003322165Y0002265000D01*
X0002972165Y0002215000D02*
X0003022165Y0002265000D01*
X0002972165Y0002125000D02*
X0002972165Y0002215000D01*
X0002917165Y0002070000D02*
X0002972165Y0002125000D01*
X0002877165Y0002070000D02*
X0002917165Y0002070000D01*
X0002782165Y0001975000D02*
X0002877165Y0002070000D01*
X0002782165Y0001455000D02*
X0002782165Y0001975000D01*
X0002757165Y0001430000D02*
X0002782165Y0001455000D01*
X0003512165Y0000515000D02*
X0003512165Y0000485000D01*
X0003512165Y0000485000D02*
X0003462165Y0000435000D01*
X0003462165Y0000435000D02*
X0003432165Y0000435000D01*
X0003432165Y0000435000D02*
X0003362165Y0000365000D01*
X0003362165Y0000365000D02*
X0003352165Y0000355000D01*
X0003512165Y0000550000D02*
X0003562165Y0000600000D01*
X0003037165Y0000395000D02*
X0003037165Y0001030000D01*
X0003037165Y0001030000D02*
X0003017165Y0001050000D01*
X0003017165Y0001050000D02*
X0002942165Y0001050000D01*
X0002942165Y0001050000D02*
X0002902165Y0001090000D01*
X0002902165Y0001090000D02*
X0002902165Y0001315000D01*
X0002902165Y0001315000D02*
X0002937165Y0001350000D01*
X0002937165Y0001350000D02*
X0003217165Y0001350000D01*
X0003217165Y0001350000D02*
X0003232165Y0001365000D01*
X0003232165Y0001365000D02*
X0003232165Y0001645000D01*
X0003177165Y0001675000D02*
X0003232165Y0001645000D01*
X0003512165Y0000550000D02*
X0003512165Y0000515000D01*
X0003037165Y0000380000D02*
X0003037165Y0000395000D01*
X0003062165Y0000355000D02*
X0003037165Y0000380000D01*
X0003352165Y0000355000D02*
X0003062165Y0000355000D01*
X0003577165Y0000600000D02*
X0003562165Y0000600000D01*
X0003702165Y0000375000D02*
X0003752165Y0000375000D01*
X0003827165Y0000450000D02*
X0003827165Y0000675000D01*
X0003752165Y0000375000D02*
X0003827165Y0000450000D01*
X0003702165Y0000575000D02*
X0003702165Y0000650000D01*
X0003702165Y0000650000D02*
X0003727165Y0000675000D01*
X0003452165Y0000525000D02*
X0003452165Y0000575000D01*
X0003452165Y0000575000D02*
X0003577165Y0000700000D01*
X0003452165Y0000525000D02*
X0003452165Y0000540000D01*
X0003452165Y0000525000D02*
X0003442165Y0000525000D01*
X0003417165Y0001890000D02*
X0003442165Y0001890000D01*
X0003352165Y0000525000D02*
X0003352165Y0001825000D01*
X0003417165Y0001890000D02*
X0003352165Y0001825000D01*
X0003577165Y0002025000D02*
X0003677165Y0002125000D01*
X0003527165Y0002025000D02*
X0003577165Y0002025000D01*
X0003477165Y0001975000D02*
X0003527165Y0002025000D01*
X0003477165Y0001925000D02*
X0003477165Y0001975000D01*
X0003442165Y0001890000D02*
X0003477165Y0001925000D01*
X0003677165Y0002125000D02*
X0003702165Y0002125000D01*
X0003682165Y0002125000D02*
X0003702165Y0002125000D01*
X0003352165Y0000525000D02*
X0003352165Y0000690000D01*
X0003527165Y0000750000D02*
X0003577165Y0000800000D01*
X0003412165Y0000750000D02*
X0003527165Y0000750000D01*
X0003352165Y0000690000D02*
X0003412165Y0000750000D01*
X0003352165Y0000525000D02*
X0003352165Y0000550000D01*
D98*
X0003177165Y0001775000D02*
X0003152165Y0001775000D01*
X0003152165Y0001775000D02*
X0003077165Y0001700000D01*
X0002777165Y0000643700D02*
X0002780866Y0000643700D01*
X0002780866Y0000643700D02*
X0002907165Y0000770000D01*
X0002777165Y0001343700D02*
X0002852165Y0001268700D01*
X0002852165Y0001005000D02*
X0002852165Y0001268700D01*
X0002907165Y0000950000D02*
X0002852165Y0001005000D01*
X0002907165Y0000770000D02*
X0002907165Y0000950000D01*
X0002977165Y0000100000D02*
X0002937165Y0000100000D01*
X0002937165Y0000100000D02*
X0002907165Y0000130000D01*
X0002808464Y0000643700D02*
X0002877165Y0000575000D01*
X0002877165Y0000310000D02*
X0002877165Y0000575000D01*
X0002907165Y0000280000D02*
X0002877165Y0000310000D01*
X0002907165Y0000130000D02*
X0002907165Y0000280000D01*
X0002777165Y0000643700D02*
X0002808464Y0000643700D01*
X0002777165Y0000643700D02*
X0002783464Y0000643700D01*
X0002777165Y0001343700D02*
X0002777165Y0001350000D01*
X0002777165Y0001350000D02*
X0002852165Y0001425000D01*
X0003152165Y0001475000D02*
X0003177165Y0001500000D01*
X0002952165Y0001475000D02*
X0003152165Y0001475000D01*
X0002902165Y0001425000D02*
X0002952165Y0001475000D01*
X0002852165Y0001425000D02*
X0002902165Y0001425000D01*
X0003177165Y0002200000D02*
X0003177165Y0002175000D01*
X0003177165Y0002175000D02*
X0003077165Y0002025000D01*
X0003077165Y0002025000D02*
X0003077165Y0001750000D01*
X0003077165Y0001750000D02*
X0003077165Y0001700000D01*
X0003077165Y0001700000D02*
X0003077165Y0001600000D01*
X0003077165Y0001600000D02*
X0003177165Y0001500000D01*
D97*
X0003452165Y0000275000D02*
X0003452165Y0000230000D01*
X0003482165Y0000200000D02*
X0003577165Y0000200000D01*
X0003452165Y0000230000D02*
X0003482165Y0000200000D01*
X0003452165Y0000275000D02*
X0003352165Y0000275000D01*
X0003017165Y0001100000D02*
X0002977165Y0001100000D01*
D99*
G36*
X0003877795Y0000154862D02*
X0003869241Y0000111860D01*
X0003847637Y0000079527D01*
X0003815304Y0000057923D01*
X0003775567Y0000050019D01*
X0003779522Y0000059542D01*
X0003779548Y0000090322D01*
X0003767794Y0000118769D01*
X0003757057Y0000129525D01*
X0003760165Y0000137027D01*
X0003760165Y0000163750D01*
X0003753915Y0000169999D01*
X0003707165Y0000169999D01*
X0003707165Y0000169212D01*
X0003697165Y0000169212D01*
X0003697165Y0000169999D01*
X0003696377Y0000169999D01*
X0003696377Y0000180000D01*
X0003697165Y0000180000D01*
X0003697165Y0000180787D01*
X0003707165Y0000180787D01*
X0003707165Y0000180000D01*
X0003753915Y0000180000D01*
X0003760165Y0000186250D01*
X0003760165Y0000212972D01*
X0003756359Y0000222161D01*
X0003749326Y0000229193D01*
X0003749122Y0000229278D01*
X0003752039Y0000232196D01*
X0003747540Y0000236695D01*
X0003758046Y0000240580D01*
X0003766964Y0000264585D01*
X0003766017Y0000290175D01*
X0003763243Y0000296872D01*
X0003773079Y0000303202D01*
X0003783210Y0000318029D01*
X0003786774Y0000335629D01*
X0003786774Y0000336350D01*
X0003789196Y0000337968D01*
X0003864196Y0000412968D01*
X0003873819Y0000427370D01*
X0003875549Y0000429958D01*
X0003877795Y0000441251D01*
X0003877795Y0000154862D01*
X0003877795Y0000154862D01*
G37*
X0003877795Y0000154862D02*
X0003869241Y0000111860D01*
X0003847637Y0000079527D01*
X0003815304Y0000057923D01*
X0003775567Y0000050019D01*
X0003779522Y0000059542D01*
X0003779548Y0000090322D01*
X0003767794Y0000118769D01*
X0003757057Y0000129525D01*
X0003760165Y0000137027D01*
X0003760165Y0000163750D01*
X0003753915Y0000169999D01*
X0003707165Y0000169999D01*
X0003707165Y0000169212D01*
X0003697165Y0000169212D01*
X0003697165Y0000169999D01*
X0003696377Y0000169999D01*
X0003696377Y0000180000D01*
X0003697165Y0000180000D01*
X0003697165Y0000180787D01*
X0003707165Y0000180787D01*
X0003707165Y0000180000D01*
X0003753915Y0000180000D01*
X0003760165Y0000186250D01*
X0003760165Y0000212972D01*
X0003756359Y0000222161D01*
X0003749326Y0000229193D01*
X0003749122Y0000229278D01*
X0003752039Y0000232196D01*
X0003747540Y0000236695D01*
X0003758046Y0000240580D01*
X0003766964Y0000264585D01*
X0003766017Y0000290175D01*
X0003763243Y0000296872D01*
X0003773079Y0000303202D01*
X0003783210Y0000318029D01*
X0003786774Y0000335629D01*
X0003786774Y0000336350D01*
X0003789196Y0000337968D01*
X0003864196Y0000412968D01*
X0003873819Y0000427370D01*
X0003875549Y0000429958D01*
X0003877795Y0000441251D01*
X0003877795Y0000154862D01*
G36*
X0002982165Y0000205000D02*
X0002982952Y0000205000D01*
X0002982952Y0000195000D01*
X0002982165Y0000195000D01*
X0002982165Y0000194212D01*
X0002972165Y0000194212D01*
X0002972165Y0000195000D01*
X0002971377Y0000195000D01*
X0002971377Y0000205000D01*
X0002972165Y0000205000D01*
X0002972165Y0000205787D01*
X0002982165Y0000205787D01*
X0002982165Y0000205000D01*
X0002982165Y0000205000D01*
G37*
X0002982165Y0000205000D02*
X0002982952Y0000205000D01*
X0002982952Y0000195000D01*
X0002982165Y0000195000D01*
X0002982165Y0000194212D01*
X0002972165Y0000194212D01*
X0002972165Y0000195000D01*
X0002971377Y0000195000D01*
X0002971377Y0000205000D01*
X0002972165Y0000205000D01*
X0002972165Y0000205787D01*
X0002982165Y0000205787D01*
X0002982165Y0000205000D01*
G36*
X0003109793Y0000268981D02*
X0003109236Y0000268425D01*
X0003109793Y0000267868D01*
X0003102722Y0000260797D01*
X0003102165Y0000261354D01*
X0003101608Y0000260797D01*
X0003094537Y0000267868D01*
X0003095094Y0000268425D01*
X0003094537Y0000268981D01*
X0003101608Y0000276053D01*
X0003102165Y0000275496D01*
X0003102722Y0000276053D01*
X0003109793Y0000268981D01*
X0003109793Y0000268981D01*
G37*
X0003109793Y0000268981D02*
X0003109236Y0000268425D01*
X0003109793Y0000267868D01*
X0003102722Y0000260797D01*
X0003102165Y0000261354D01*
X0003101608Y0000260797D01*
X0003094537Y0000267868D01*
X0003095094Y0000268425D01*
X0003094537Y0000268981D01*
X0003101608Y0000276053D01*
X0003102165Y0000275496D01*
X0003102722Y0000276053D01*
X0003109793Y0000268981D01*
G36*
X0003709793Y0000275556D02*
X0003709236Y0000275000D01*
X0003709793Y0000274443D01*
X0003702722Y0000267372D01*
X0003702165Y0000267928D01*
X0003701608Y0000267372D01*
X0003694537Y0000274443D01*
X0003695094Y0000275000D01*
X0003694537Y0000275556D01*
X0003701608Y0000282627D01*
X0003702165Y0000282071D01*
X0003702722Y0000282627D01*
X0003709793Y0000275556D01*
X0003709793Y0000275556D01*
G37*
X0003709793Y0000275556D02*
X0003709236Y0000275000D01*
X0003709793Y0000274443D01*
X0003702722Y0000267372D01*
X0003702165Y0000267928D01*
X0003701608Y0000267372D01*
X0003694537Y0000274443D01*
X0003695094Y0000275000D01*
X0003694537Y0000275556D01*
X0003701608Y0000282627D01*
X0003702165Y0000282071D01*
X0003702722Y0000282627D01*
X0003709793Y0000275556D01*
G36*
X0003229668Y0002129049D02*
X0003260435Y0002116274D01*
X0003293749Y0002116245D01*
X0003314795Y0002124941D01*
X0003314795Y0002038425D01*
X0003315465Y0002035055D01*
X0003315238Y0002031627D01*
X0003318328Y0002008017D01*
X0003307790Y0001997496D01*
X0003295014Y0001966730D01*
X0003294985Y0001933416D01*
X0003307707Y0001902627D01*
X0003331243Y0001879049D01*
X0003331886Y0001878783D01*
X0003315134Y0001862031D01*
X0003303781Y0001845041D01*
X0003299795Y0001825000D01*
X0003299795Y0000591016D01*
X0003281232Y0000572485D01*
X0003268459Y0000541726D01*
X0003268430Y0000508420D01*
X0003281149Y0000477638D01*
X0003304679Y0000454066D01*
X0003335439Y0000441294D01*
X0003364372Y0000441269D01*
X0003330473Y0000407370D01*
X0003248038Y0000407370D01*
X0003247040Y0000431120D01*
X0003243296Y0000440159D01*
X0003254142Y0000447139D01*
X0003264273Y0000461966D01*
X0003267837Y0000479566D01*
X0003267837Y0000550433D01*
X0003264743Y0000566875D01*
X0003255026Y0000581977D01*
X0003240199Y0000592108D01*
X0003222598Y0000595672D01*
X0003151732Y0000595672D01*
X0003135289Y0000592578D01*
X0003120188Y0000582860D01*
X0003110057Y0000568033D01*
X0003106492Y0000550433D01*
X0003106492Y0000479566D01*
X0003109586Y0000463124D01*
X0003119304Y0000448022D01*
X0003131317Y0000439814D01*
X0003126281Y0000426049D01*
X0003127065Y0000407370D01*
X0003089535Y0000407370D01*
X0003089535Y0001030000D01*
X0003085549Y0001050041D01*
X0003081255Y0001056467D01*
X0003074196Y0001067031D01*
X0003063834Y0001077393D01*
X0003065549Y0001079958D01*
X0003069535Y0001100000D01*
X0003065549Y0001120041D01*
X0003061312Y0001126381D01*
X0003060635Y0001129786D01*
X0003047128Y0001150000D01*
X0003060635Y0001170213D01*
X0003066560Y0001200000D01*
X0003060635Y0001229786D01*
X0003047128Y0001250000D01*
X0003060635Y0001270213D01*
X0003066088Y0001297629D01*
X0003092256Y0001297629D01*
X0003097559Y0001270967D01*
X0003111569Y0001250000D01*
X0003097559Y0001229032D01*
X0003091784Y0001200000D01*
X0003097559Y0001170967D01*
X0003111569Y0001150000D01*
X0003097559Y0001129032D01*
X0003091784Y0001100000D01*
X0003097559Y0001070967D01*
X0003111569Y0001050000D01*
X0003097559Y0001029032D01*
X0003091784Y0001000000D01*
X0003097559Y0000970967D01*
X0003111569Y0000950000D01*
X0003097559Y0000929032D01*
X0003091784Y0000900000D01*
X0003097559Y0000870967D01*
X0003111569Y0000850000D01*
X0003097559Y0000829032D01*
X0003091784Y0000800000D01*
X0003097559Y0000770967D01*
X0003111569Y0000750000D01*
X0003097559Y0000729032D01*
X0003091784Y0000700000D01*
X0003097559Y0000670967D01*
X0003114005Y0000646354D01*
X0003138618Y0000629908D01*
X0003167650Y0000624133D01*
X0003186679Y0000624133D01*
X0003215712Y0000629908D01*
X0003240325Y0000646354D01*
X0003256771Y0000670967D01*
X0003262546Y0000700000D01*
X0003256771Y0000729032D01*
X0003242761Y0000750000D01*
X0003256771Y0000770967D01*
X0003262546Y0000800000D01*
X0003256771Y0000829032D01*
X0003242761Y0000850000D01*
X0003256771Y0000870967D01*
X0003262546Y0000900000D01*
X0003256771Y0000929032D01*
X0003242761Y0000950000D01*
X0003256771Y0000970967D01*
X0003262546Y0001000000D01*
X0003256771Y0001029032D01*
X0003242761Y0001050000D01*
X0003256771Y0001070967D01*
X0003262546Y0001100000D01*
X0003256771Y0001129032D01*
X0003242761Y0001150000D01*
X0003256771Y0001170967D01*
X0003262546Y0001200000D01*
X0003256771Y0001229032D01*
X0003242761Y0001250000D01*
X0003256771Y0001270967D01*
X0003262546Y0001300000D01*
X0003259009Y0001317781D01*
X0003269196Y0001327968D01*
X0003280549Y0001344958D01*
X0003281333Y0001348902D01*
X0003284535Y0001365000D01*
X0003284535Y0001645000D01*
X0003283077Y0001652331D01*
X0003282407Y0001659777D01*
X0003281099Y0001662275D01*
X0003280549Y0001665041D01*
X0003276395Y0001671256D01*
X0003272928Y0001677879D01*
X0003270763Y0001679686D01*
X0003269196Y0001682031D01*
X0003262981Y0001686184D01*
X0003262404Y0001686665D01*
X0003262404Y0001709000D01*
X0003259310Y0001725442D01*
X0003251872Y0001737001D01*
X0003257222Y0001745009D01*
X0003263188Y0001775000D01*
X0003257222Y0001804990D01*
X0003240234Y0001830416D01*
X0003228767Y0001838078D01*
X0003230343Y0001839486D01*
X0003240342Y0001860244D01*
X0003240447Y0001860865D01*
X0003235677Y0001870000D01*
X0003182165Y0001870000D01*
X0003182165Y0001869212D01*
X0003172165Y0001869212D01*
X0003172165Y0001870000D01*
X0003171377Y0001870000D01*
X0003171377Y0001880000D01*
X0003172165Y0001880000D01*
X0003172165Y0001927792D01*
X0003182165Y0001927792D01*
X0003182165Y0001880000D01*
X0003235677Y0001880000D01*
X0003240447Y0001889134D01*
X0003240342Y0001889755D01*
X0003230343Y0001910513D01*
X0003213162Y0001925864D01*
X0003191413Y0001933471D01*
X0003182165Y0001927792D01*
X0003172165Y0001927792D01*
X0003162916Y0001933471D01*
X0003141168Y0001925864D01*
X0003133535Y0001919044D01*
X0003133535Y0002007932D01*
X0003210304Y0002123085D01*
X0003224538Y0002128967D01*
X0003227149Y0002131573D01*
X0003229668Y0002129049D01*
X0003229668Y0002129049D01*
G37*
X0003229668Y0002129049D02*
X0003260435Y0002116274D01*
X0003293749Y0002116245D01*
X0003314795Y0002124941D01*
X0003314795Y0002038425D01*
X0003315465Y0002035055D01*
X0003315238Y0002031627D01*
X0003318328Y0002008017D01*
X0003307790Y0001997496D01*
X0003295014Y0001966730D01*
X0003294985Y0001933416D01*
X0003307707Y0001902627D01*
X0003331243Y0001879049D01*
X0003331886Y0001878783D01*
X0003315134Y0001862031D01*
X0003303781Y0001845041D01*
X0003299795Y0001825000D01*
X0003299795Y0000591016D01*
X0003281232Y0000572485D01*
X0003268459Y0000541726D01*
X0003268430Y0000508420D01*
X0003281149Y0000477638D01*
X0003304679Y0000454066D01*
X0003335439Y0000441294D01*
X0003364372Y0000441269D01*
X0003330473Y0000407370D01*
X0003248038Y0000407370D01*
X0003247040Y0000431120D01*
X0003243296Y0000440159D01*
X0003254142Y0000447139D01*
X0003264273Y0000461966D01*
X0003267837Y0000479566D01*
X0003267837Y0000550433D01*
X0003264743Y0000566875D01*
X0003255026Y0000581977D01*
X0003240199Y0000592108D01*
X0003222598Y0000595672D01*
X0003151732Y0000595672D01*
X0003135289Y0000592578D01*
X0003120188Y0000582860D01*
X0003110057Y0000568033D01*
X0003106492Y0000550433D01*
X0003106492Y0000479566D01*
X0003109586Y0000463124D01*
X0003119304Y0000448022D01*
X0003131317Y0000439814D01*
X0003126281Y0000426049D01*
X0003127065Y0000407370D01*
X0003089535Y0000407370D01*
X0003089535Y0001030000D01*
X0003085549Y0001050041D01*
X0003081255Y0001056467D01*
X0003074196Y0001067031D01*
X0003063834Y0001077393D01*
X0003065549Y0001079958D01*
X0003069535Y0001100000D01*
X0003065549Y0001120041D01*
X0003061312Y0001126381D01*
X0003060635Y0001129786D01*
X0003047128Y0001150000D01*
X0003060635Y0001170213D01*
X0003066560Y0001200000D01*
X0003060635Y0001229786D01*
X0003047128Y0001250000D01*
X0003060635Y0001270213D01*
X0003066088Y0001297629D01*
X0003092256Y0001297629D01*
X0003097559Y0001270967D01*
X0003111569Y0001250000D01*
X0003097559Y0001229032D01*
X0003091784Y0001200000D01*
X0003097559Y0001170967D01*
X0003111569Y0001150000D01*
X0003097559Y0001129032D01*
X0003091784Y0001100000D01*
X0003097559Y0001070967D01*
X0003111569Y0001050000D01*
X0003097559Y0001029032D01*
X0003091784Y0001000000D01*
X0003097559Y0000970967D01*
X0003111569Y0000950000D01*
X0003097559Y0000929032D01*
X0003091784Y0000900000D01*
X0003097559Y0000870967D01*
X0003111569Y0000850000D01*
X0003097559Y0000829032D01*
X0003091784Y0000800000D01*
X0003097559Y0000770967D01*
X0003111569Y0000750000D01*
X0003097559Y0000729032D01*
X0003091784Y0000700000D01*
X0003097559Y0000670967D01*
X0003114005Y0000646354D01*
X0003138618Y0000629908D01*
X0003167650Y0000624133D01*
X0003186679Y0000624133D01*
X0003215712Y0000629908D01*
X0003240325Y0000646354D01*
X0003256771Y0000670967D01*
X0003262546Y0000700000D01*
X0003256771Y0000729032D01*
X0003242761Y0000750000D01*
X0003256771Y0000770967D01*
X0003262546Y0000800000D01*
X0003256771Y0000829032D01*
X0003242761Y0000850000D01*
X0003256771Y0000870967D01*
X0003262546Y0000900000D01*
X0003256771Y0000929032D01*
X0003242761Y0000950000D01*
X0003256771Y0000970967D01*
X0003262546Y0001000000D01*
X0003256771Y0001029032D01*
X0003242761Y0001050000D01*
X0003256771Y0001070967D01*
X0003262546Y0001100000D01*
X0003256771Y0001129032D01*
X0003242761Y0001150000D01*
X0003256771Y0001170967D01*
X0003262546Y0001200000D01*
X0003256771Y0001229032D01*
X0003242761Y0001250000D01*
X0003256771Y0001270967D01*
X0003262546Y0001300000D01*
X0003259009Y0001317781D01*
X0003269196Y0001327968D01*
X0003280549Y0001344958D01*
X0003281333Y0001348902D01*
X0003284535Y0001365000D01*
X0003284535Y0001645000D01*
X0003283077Y0001652331D01*
X0003282407Y0001659777D01*
X0003281099Y0001662275D01*
X0003280549Y0001665041D01*
X0003276395Y0001671256D01*
X0003272928Y0001677879D01*
X0003270763Y0001679686D01*
X0003269196Y0001682031D01*
X0003262981Y0001686184D01*
X0003262404Y0001686665D01*
X0003262404Y0001709000D01*
X0003259310Y0001725442D01*
X0003251872Y0001737001D01*
X0003257222Y0001745009D01*
X0003263188Y0001775000D01*
X0003257222Y0001804990D01*
X0003240234Y0001830416D01*
X0003228767Y0001838078D01*
X0003230343Y0001839486D01*
X0003240342Y0001860244D01*
X0003240447Y0001860865D01*
X0003235677Y0001870000D01*
X0003182165Y0001870000D01*
X0003182165Y0001869212D01*
X0003172165Y0001869212D01*
X0003172165Y0001870000D01*
X0003171377Y0001870000D01*
X0003171377Y0001880000D01*
X0003172165Y0001880000D01*
X0003172165Y0001927792D01*
X0003182165Y0001927792D01*
X0003182165Y0001880000D01*
X0003235677Y0001880000D01*
X0003240447Y0001889134D01*
X0003240342Y0001889755D01*
X0003230343Y0001910513D01*
X0003213162Y0001925864D01*
X0003191413Y0001933471D01*
X0003182165Y0001927792D01*
X0003172165Y0001927792D01*
X0003162916Y0001933471D01*
X0003141168Y0001925864D01*
X0003133535Y0001919044D01*
X0003133535Y0002007932D01*
X0003210304Y0002123085D01*
X0003224538Y0002128967D01*
X0003227149Y0002131573D01*
X0003229668Y0002129049D01*
G36*
X0003194793Y0000417131D02*
X0003194236Y0000416574D01*
X0003194793Y0000416017D01*
X0003187722Y0000408946D01*
X0003187165Y0000409503D01*
X0003186608Y0000408946D01*
X0003179537Y0000416017D01*
X0003180094Y0000416574D01*
X0003179537Y0000417131D01*
X0003186608Y0000424202D01*
X0003187165Y0000423645D01*
X0003187722Y0000424202D01*
X0003194793Y0000417131D01*
X0003194793Y0000417131D01*
G37*
X0003194793Y0000417131D02*
X0003194236Y0000416574D01*
X0003194793Y0000416017D01*
X0003187722Y0000408946D01*
X0003187165Y0000409503D01*
X0003186608Y0000408946D01*
X0003179537Y0000416017D01*
X0003180094Y0000416574D01*
X0003179537Y0000417131D01*
X0003186608Y0000424202D01*
X0003187165Y0000423645D01*
X0003187722Y0000424202D01*
X0003194793Y0000417131D01*
G36*
X0003709793Y0000475556D02*
X0003709236Y0000475000D01*
X0003709793Y0000474443D01*
X0003702722Y0000467372D01*
X0003702165Y0000467928D01*
X0003701608Y0000467372D01*
X0003694537Y0000474443D01*
X0003695094Y0000475000D01*
X0003694537Y0000475556D01*
X0003701608Y0000482627D01*
X0003702165Y0000482071D01*
X0003702722Y0000482627D01*
X0003709793Y0000475556D01*
X0003709793Y0000475556D01*
G37*
X0003709793Y0000475556D02*
X0003709236Y0000475000D01*
X0003709793Y0000474443D01*
X0003702722Y0000467372D01*
X0003702165Y0000467928D01*
X0003701608Y0000467372D01*
X0003694537Y0000474443D01*
X0003695094Y0000475000D01*
X0003694537Y0000475556D01*
X0003701608Y0000482627D01*
X0003702165Y0000482071D01*
X0003702722Y0000482627D01*
X0003709793Y0000475556D01*
G36*
X0003779679Y0001304066D02*
X0003803159Y0001294317D01*
X0003800948Y0001288367D01*
X0003801895Y0001262777D01*
X0003809866Y0001243532D01*
X0003820372Y0001239648D01*
X0003858677Y0001277952D01*
X0003858120Y0001278509D01*
X0003865191Y0001285580D01*
X0003865748Y0001285023D01*
X0003866304Y0001285580D01*
X0003873375Y0001278509D01*
X0003872819Y0001277952D01*
X0003873375Y0001277395D01*
X0003866304Y0001270324D01*
X0003865748Y0001270881D01*
X0003827443Y0001232577D01*
X0003831328Y0001222071D01*
X0003855333Y0001213153D01*
X0003877795Y0001213984D01*
X0003877795Y0001086240D01*
X0003876162Y0001086846D01*
X0003850572Y0001085899D01*
X0003831328Y0001077928D01*
X0003827443Y0001067422D01*
X0003865748Y0001029118D01*
X0003866304Y0001029675D01*
X0003873375Y0001022604D01*
X0003872819Y0001022047D01*
X0003873375Y0001021490D01*
X0003866304Y0001014419D01*
X0003865748Y0001014976D01*
X0003865191Y0001014419D01*
X0003858120Y0001021490D01*
X0003858677Y0001022047D01*
X0003820372Y0001060351D01*
X0003809866Y0001056467D01*
X0003800948Y0001032462D01*
X0003801895Y0001006871D01*
X0003802506Y0001005396D01*
X0003779803Y0000996015D01*
X0003777181Y0000993398D01*
X0003774650Y0000995933D01*
X0003769329Y0000998142D01*
X0003772308Y0001005317D01*
X0003772337Y0001038631D01*
X0003759615Y0001069420D01*
X0003740952Y0001088115D01*
X0003740952Y0001211908D01*
X0003759532Y0001230455D01*
X0003772308Y0001261222D01*
X0003772337Y0001294536D01*
X0003769322Y0001301833D01*
X0003774527Y0001303984D01*
X0003777149Y0001306601D01*
X0003779679Y0001304066D01*
X0003779679Y0001304066D01*
G37*
X0003779679Y0001304066D02*
X0003803159Y0001294317D01*
X0003800948Y0001288367D01*
X0003801895Y0001262777D01*
X0003809866Y0001243532D01*
X0003820372Y0001239648D01*
X0003858677Y0001277952D01*
X0003858120Y0001278509D01*
X0003865191Y0001285580D01*
X0003865748Y0001285023D01*
X0003866304Y0001285580D01*
X0003873375Y0001278509D01*
X0003872819Y0001277952D01*
X0003873375Y0001277395D01*
X0003866304Y0001270324D01*
X0003865748Y0001270881D01*
X0003827443Y0001232577D01*
X0003831328Y0001222071D01*
X0003855333Y0001213153D01*
X0003877795Y0001213984D01*
X0003877795Y0001086240D01*
X0003876162Y0001086846D01*
X0003850572Y0001085899D01*
X0003831328Y0001077928D01*
X0003827443Y0001067422D01*
X0003865748Y0001029118D01*
X0003866304Y0001029675D01*
X0003873375Y0001022604D01*
X0003872819Y0001022047D01*
X0003873375Y0001021490D01*
X0003866304Y0001014419D01*
X0003865748Y0001014976D01*
X0003865191Y0001014419D01*
X0003858120Y0001021490D01*
X0003858677Y0001022047D01*
X0003820372Y0001060351D01*
X0003809866Y0001056467D01*
X0003800948Y0001032462D01*
X0003801895Y0001006871D01*
X0003802506Y0001005396D01*
X0003779803Y0000996015D01*
X0003777181Y0000993398D01*
X0003774650Y0000995933D01*
X0003769329Y0000998142D01*
X0003772308Y0001005317D01*
X0003772337Y0001038631D01*
X0003759615Y0001069420D01*
X0003740952Y0001088115D01*
X0003740952Y0001211908D01*
X0003759532Y0001230455D01*
X0003772308Y0001261222D01*
X0003772337Y0001294536D01*
X0003769322Y0001301833D01*
X0003774527Y0001303984D01*
X0003777149Y0001306601D01*
X0003779679Y0001304066D01*
G36*
X0003583218Y0001950556D02*
X0003582661Y0001950000D01*
X0003620965Y0001911695D01*
X0003631471Y0001915580D01*
X0003637499Y0001931804D01*
X0003638312Y0001909824D01*
X0003641086Y0001903127D01*
X0003631251Y0001896797D01*
X0003621120Y0001881970D01*
X0003617555Y0001864370D01*
X0003617555Y0001785629D01*
X0003620649Y0001769187D01*
X0003630367Y0001754085D01*
X0003641481Y0001746492D01*
X0003637365Y0001735414D01*
X0003638312Y0001709824D01*
X0003646284Y0001690580D01*
X0003656790Y0001686695D01*
X0003695094Y0001725000D01*
X0003694537Y0001725556D01*
X0003701608Y0001732627D01*
X0003702165Y0001732071D01*
X0003702722Y0001732627D01*
X0003709793Y0001725556D01*
X0003709236Y0001725000D01*
X0003709793Y0001724443D01*
X0003702722Y0001717372D01*
X0003702165Y0001717928D01*
X0003680568Y0001696331D01*
X0003679803Y0001696015D01*
X0003656232Y0001672485D01*
X0003643459Y0001641726D01*
X0003643430Y0001608420D01*
X0003656149Y0001577638D01*
X0003679679Y0001554066D01*
X0003710439Y0001541294D01*
X0003743745Y0001541265D01*
X0003774527Y0001553984D01*
X0003777149Y0001556601D01*
X0003779679Y0001554066D01*
X0003810439Y0001541294D01*
X0003843745Y0001541265D01*
X0003874527Y0001553984D01*
X0003877795Y0001557246D01*
X0003877795Y0001442783D01*
X0003874650Y0001445933D01*
X0003843891Y0001458705D01*
X0003810585Y0001458734D01*
X0003779803Y0001446015D01*
X0003777181Y0001443398D01*
X0003774650Y0001445933D01*
X0003743891Y0001458705D01*
X0003710585Y0001458734D01*
X0003679803Y0001446015D01*
X0003661117Y0001427362D01*
X0003660635Y0001429786D01*
X0003643763Y0001455037D01*
X0003618511Y0001471909D01*
X0003588725Y0001477834D01*
X0003565605Y0001477834D01*
X0003535819Y0001471909D01*
X0003531632Y0001469112D01*
X0003539426Y0001483987D01*
X0003539838Y0001486258D01*
X0003535036Y0001495000D01*
X0003482165Y0001495000D01*
X0003482165Y0001494212D01*
X0003472165Y0001494212D01*
X0003472165Y0001495000D01*
X0003419294Y0001495000D01*
X0003414492Y0001486258D01*
X0003414903Y0001483987D01*
X0003425171Y0001464392D01*
X0003427358Y0001462567D01*
X0003414005Y0001453645D01*
X0003404535Y0001439472D01*
X0003404535Y0001513741D01*
X0003414492Y0001513741D01*
X0003419294Y0001505000D01*
X0003472165Y0001505000D01*
X0003472165Y0001550372D01*
X0003482165Y0001550372D01*
X0003482165Y0001505000D01*
X0003535036Y0001505000D01*
X0003539838Y0001513741D01*
X0003539426Y0001516012D01*
X0003529158Y0001535607D01*
X0003512174Y0001549780D01*
X0003491058Y0001556375D01*
X0003482165Y0001550372D01*
X0003472165Y0001550372D01*
X0003463272Y0001556375D01*
X0003442156Y0001549780D01*
X0003425171Y0001535607D01*
X0003414903Y0001516012D01*
X0003414492Y0001513741D01*
X0003404535Y0001513741D01*
X0003404535Y0001661899D01*
X0003444561Y0001661899D01*
X0003447480Y0001652210D01*
X0003468630Y0001644607D01*
X0003491080Y0001645678D01*
X0003506850Y0001652210D01*
X0003509769Y0001661899D01*
X0003477165Y0001694503D01*
X0003444561Y0001661899D01*
X0003404535Y0001661899D01*
X0003404535Y0001750489D01*
X0003413241Y0001736959D01*
X0003426574Y0001727849D01*
X0003420198Y0001710109D01*
X0003421268Y0001687659D01*
X0003427800Y0001671889D01*
X0003437490Y0001668970D01*
X0003470094Y0001701574D01*
X0003469537Y0001702131D01*
X0003476608Y0001709202D01*
X0003477165Y0001708645D01*
X0003477722Y0001709202D01*
X0003484793Y0001702131D01*
X0003484236Y0001701574D01*
X0003516840Y0001668970D01*
X0003526530Y0001671889D01*
X0003534132Y0001693040D01*
X0003533062Y0001715490D01*
X0003527833Y0001728114D01*
X0003540205Y0001736076D01*
X0003550336Y0001750903D01*
X0003553900Y0001768503D01*
X0003553900Y0001831496D01*
X0003550806Y0001847938D01*
X0003541089Y0001863040D01*
X0003526262Y0001873171D01*
X0003508661Y0001876735D01*
X0003502963Y0001876735D01*
X0003514196Y0001887968D01*
X0003521851Y0001899424D01*
X0003525325Y0001904624D01*
X0003537286Y0001904624D01*
X0003541170Y0001894118D01*
X0003565175Y0001885200D01*
X0003590766Y0001886147D01*
X0003610010Y0001894118D01*
X0003613894Y0001904624D01*
X0003575590Y0001942928D01*
X0003537286Y0001904624D01*
X0003525325Y0001904624D01*
X0003525549Y0001904958D01*
X0003527116Y0001912841D01*
X0003530215Y0001911695D01*
X0003568519Y0001950000D01*
X0003567962Y0001950556D01*
X0003575033Y0001957627D01*
X0003575590Y0001957071D01*
X0003576147Y0001957627D01*
X0003583218Y0001950556D01*
X0003583218Y0001950556D01*
G37*
X0003583218Y0001950556D02*
X0003582661Y0001950000D01*
X0003620965Y0001911695D01*
X0003631471Y0001915580D01*
X0003637499Y0001931804D01*
X0003638312Y0001909824D01*
X0003641086Y0001903127D01*
X0003631251Y0001896797D01*
X0003621120Y0001881970D01*
X0003617555Y0001864370D01*
X0003617555Y0001785629D01*
X0003620649Y0001769187D01*
X0003630367Y0001754085D01*
X0003641481Y0001746492D01*
X0003637365Y0001735414D01*
X0003638312Y0001709824D01*
X0003646284Y0001690580D01*
X0003656790Y0001686695D01*
X0003695094Y0001725000D01*
X0003694537Y0001725556D01*
X0003701608Y0001732627D01*
X0003702165Y0001732071D01*
X0003702722Y0001732627D01*
X0003709793Y0001725556D01*
X0003709236Y0001725000D01*
X0003709793Y0001724443D01*
X0003702722Y0001717372D01*
X0003702165Y0001717928D01*
X0003680568Y0001696331D01*
X0003679803Y0001696015D01*
X0003656232Y0001672485D01*
X0003643459Y0001641726D01*
X0003643430Y0001608420D01*
X0003656149Y0001577638D01*
X0003679679Y0001554066D01*
X0003710439Y0001541294D01*
X0003743745Y0001541265D01*
X0003774527Y0001553984D01*
X0003777149Y0001556601D01*
X0003779679Y0001554066D01*
X0003810439Y0001541294D01*
X0003843745Y0001541265D01*
X0003874527Y0001553984D01*
X0003877795Y0001557246D01*
X0003877795Y0001442783D01*
X0003874650Y0001445933D01*
X0003843891Y0001458705D01*
X0003810585Y0001458734D01*
X0003779803Y0001446015D01*
X0003777181Y0001443398D01*
X0003774650Y0001445933D01*
X0003743891Y0001458705D01*
X0003710585Y0001458734D01*
X0003679803Y0001446015D01*
X0003661117Y0001427362D01*
X0003660635Y0001429786D01*
X0003643763Y0001455037D01*
X0003618511Y0001471909D01*
X0003588725Y0001477834D01*
X0003565605Y0001477834D01*
X0003535819Y0001471909D01*
X0003531632Y0001469112D01*
X0003539426Y0001483987D01*
X0003539838Y0001486258D01*
X0003535036Y0001495000D01*
X0003482165Y0001495000D01*
X0003482165Y0001494212D01*
X0003472165Y0001494212D01*
X0003472165Y0001495000D01*
X0003419294Y0001495000D01*
X0003414492Y0001486258D01*
X0003414903Y0001483987D01*
X0003425171Y0001464392D01*
X0003427358Y0001462567D01*
X0003414005Y0001453645D01*
X0003404535Y0001439472D01*
X0003404535Y0001513741D01*
X0003414492Y0001513741D01*
X0003419294Y0001505000D01*
X0003472165Y0001505000D01*
X0003472165Y0001550372D01*
X0003482165Y0001550372D01*
X0003482165Y0001505000D01*
X0003535036Y0001505000D01*
X0003539838Y0001513741D01*
X0003539426Y0001516012D01*
X0003529158Y0001535607D01*
X0003512174Y0001549780D01*
X0003491058Y0001556375D01*
X0003482165Y0001550372D01*
X0003472165Y0001550372D01*
X0003463272Y0001556375D01*
X0003442156Y0001549780D01*
X0003425171Y0001535607D01*
X0003414903Y0001516012D01*
X0003414492Y0001513741D01*
X0003404535Y0001513741D01*
X0003404535Y0001661899D01*
X0003444561Y0001661899D01*
X0003447480Y0001652210D01*
X0003468630Y0001644607D01*
X0003491080Y0001645678D01*
X0003506850Y0001652210D01*
X0003509769Y0001661899D01*
X0003477165Y0001694503D01*
X0003444561Y0001661899D01*
X0003404535Y0001661899D01*
X0003404535Y0001750489D01*
X0003413241Y0001736959D01*
X0003426574Y0001727849D01*
X0003420198Y0001710109D01*
X0003421268Y0001687659D01*
X0003427800Y0001671889D01*
X0003437490Y0001668970D01*
X0003470094Y0001701574D01*
X0003469537Y0001702131D01*
X0003476608Y0001709202D01*
X0003477165Y0001708645D01*
X0003477722Y0001709202D01*
X0003484793Y0001702131D01*
X0003484236Y0001701574D01*
X0003516840Y0001668970D01*
X0003526530Y0001671889D01*
X0003534132Y0001693040D01*
X0003533062Y0001715490D01*
X0003527833Y0001728114D01*
X0003540205Y0001736076D01*
X0003550336Y0001750903D01*
X0003553900Y0001768503D01*
X0003553900Y0001831496D01*
X0003550806Y0001847938D01*
X0003541089Y0001863040D01*
X0003526262Y0001873171D01*
X0003508661Y0001876735D01*
X0003502963Y0001876735D01*
X0003514196Y0001887968D01*
X0003521851Y0001899424D01*
X0003525325Y0001904624D01*
X0003537286Y0001904624D01*
X0003541170Y0001894118D01*
X0003565175Y0001885200D01*
X0003590766Y0001886147D01*
X0003610010Y0001894118D01*
X0003613894Y0001904624D01*
X0003575590Y0001942928D01*
X0003537286Y0001904624D01*
X0003525325Y0001904624D01*
X0003525549Y0001904958D01*
X0003527116Y0001912841D01*
X0003530215Y0001911695D01*
X0003568519Y0001950000D01*
X0003567962Y0001950556D01*
X0003575033Y0001957627D01*
X0003575590Y0001957071D01*
X0003576147Y0001957627D01*
X0003583218Y0001950556D01*
G36*
X0003644165Y0002236250D02*
X0003650415Y0002230000D01*
X0003697165Y0002230000D01*
X0003697165Y0002230787D01*
X0003707165Y0002230787D01*
X0003707165Y0002230000D01*
X0003753915Y0002230000D01*
X0003760165Y0002236250D01*
X0003760165Y0002250629D01*
X0003772302Y0002250629D01*
X0003815304Y0002242076D01*
X0003847637Y0002220472D01*
X0003869241Y0002188139D01*
X0003877795Y0002145137D01*
X0003877795Y0001692783D01*
X0003874650Y0001695933D01*
X0003843891Y0001708705D01*
X0003810585Y0001708734D01*
X0003779803Y0001696015D01*
X0003777181Y0001693398D01*
X0003774650Y0001695933D01*
X0003761988Y0001701190D01*
X0003766964Y0001714585D01*
X0003766017Y0001740175D01*
X0003763243Y0001746872D01*
X0003773079Y0001753202D01*
X0003783210Y0001768029D01*
X0003786774Y0001785629D01*
X0003786774Y0001864370D01*
X0003783680Y0001880812D01*
X0003773963Y0001895914D01*
X0003762849Y0001903507D01*
X0003766964Y0001914585D01*
X0003766017Y0001940175D01*
X0003763243Y0001946872D01*
X0003773079Y0001953202D01*
X0003783210Y0001968029D01*
X0003786774Y0001985629D01*
X0003786774Y0002064370D01*
X0003783680Y0002080812D01*
X0003773963Y0002095914D01*
X0003773885Y0002095967D01*
X0003779522Y0002109542D01*
X0003779548Y0002140322D01*
X0003767794Y0002168769D01*
X0003757057Y0002179525D01*
X0003760165Y0002187027D01*
X0003760165Y0002213750D01*
X0003753915Y0002220000D01*
X0003707165Y0002220000D01*
X0003707165Y0002219212D01*
X0003697165Y0002219212D01*
X0003697165Y0002220000D01*
X0003650415Y0002220000D01*
X0003644165Y0002213750D01*
X0003644165Y0002187027D01*
X0003647272Y0002179525D01*
X0003636612Y0002168883D01*
X0003635526Y0002166267D01*
X0003635530Y0002171456D01*
X0003619070Y0002211293D01*
X0003588618Y0002241798D01*
X0003567349Y0002250629D01*
X0003644165Y0002250629D01*
X0003644165Y0002236250D01*
X0003644165Y0002236250D01*
G37*
X0003644165Y0002236250D02*
X0003650415Y0002230000D01*
X0003697165Y0002230000D01*
X0003697165Y0002230787D01*
X0003707165Y0002230787D01*
X0003707165Y0002230000D01*
X0003753915Y0002230000D01*
X0003760165Y0002236250D01*
X0003760165Y0002250629D01*
X0003772302Y0002250629D01*
X0003815304Y0002242076D01*
X0003847637Y0002220472D01*
X0003869241Y0002188139D01*
X0003877795Y0002145137D01*
X0003877795Y0001692783D01*
X0003874650Y0001695933D01*
X0003843891Y0001708705D01*
X0003810585Y0001708734D01*
X0003779803Y0001696015D01*
X0003777181Y0001693398D01*
X0003774650Y0001695933D01*
X0003761988Y0001701190D01*
X0003766964Y0001714585D01*
X0003766017Y0001740175D01*
X0003763243Y0001746872D01*
X0003773079Y0001753202D01*
X0003783210Y0001768029D01*
X0003786774Y0001785629D01*
X0003786774Y0001864370D01*
X0003783680Y0001880812D01*
X0003773963Y0001895914D01*
X0003762849Y0001903507D01*
X0003766964Y0001914585D01*
X0003766017Y0001940175D01*
X0003763243Y0001946872D01*
X0003773079Y0001953202D01*
X0003783210Y0001968029D01*
X0003786774Y0001985629D01*
X0003786774Y0002064370D01*
X0003783680Y0002080812D01*
X0003773963Y0002095914D01*
X0003773885Y0002095967D01*
X0003779522Y0002109542D01*
X0003779548Y0002140322D01*
X0003767794Y0002168769D01*
X0003757057Y0002179525D01*
X0003760165Y0002187027D01*
X0003760165Y0002213750D01*
X0003753915Y0002220000D01*
X0003707165Y0002220000D01*
X0003707165Y0002219212D01*
X0003697165Y0002219212D01*
X0003697165Y0002220000D01*
X0003650415Y0002220000D01*
X0003644165Y0002213750D01*
X0003644165Y0002187027D01*
X0003647272Y0002179525D01*
X0003636612Y0002168883D01*
X0003635526Y0002166267D01*
X0003635530Y0002171456D01*
X0003619070Y0002211293D01*
X0003588618Y0002241798D01*
X0003567349Y0002250629D01*
X0003644165Y0002250629D01*
X0003644165Y0002236250D01*
G36*
X0003709793Y0001925556D02*
X0003709236Y0001925000D01*
X0003709793Y0001924443D01*
X0003702722Y0001917372D01*
X0003702165Y0001917928D01*
X0003701608Y0001917372D01*
X0003694537Y0001924443D01*
X0003695094Y0001925000D01*
X0003694537Y0001925556D01*
X0003701608Y0001932627D01*
X0003702165Y0001932071D01*
X0003702722Y0001932627D01*
X0003709793Y0001925556D01*
X0003709793Y0001925556D01*
G37*
X0003709793Y0001925556D02*
X0003709236Y0001925000D01*
X0003709793Y0001924443D01*
X0003702722Y0001917372D01*
X0003702165Y0001917928D01*
X0003701608Y0001917372D01*
X0003694537Y0001924443D01*
X0003695094Y0001925000D01*
X0003694537Y0001925556D01*
X0003701608Y0001932627D01*
X0003702165Y0001932071D01*
X0003702722Y0001932627D01*
X0003709793Y0001925556D01*
G36*
X0002922165Y0001975000D02*
X0002922952Y0001975000D01*
X0002922952Y0001965000D01*
X0002922165Y0001965000D01*
X0002922165Y0001964212D01*
X0002912165Y0001964212D01*
X0002912165Y0001965000D01*
X0002911377Y0001965000D01*
X0002911377Y0001975000D01*
X0002912165Y0001975000D01*
X0002912165Y0001975787D01*
X0002922165Y0001975787D01*
X0002922165Y0001975000D01*
X0002922165Y0001975000D01*
G37*
X0002922165Y0001975000D02*
X0002922952Y0001975000D01*
X0002922952Y0001965000D01*
X0002922165Y0001965000D01*
X0002922165Y0001964212D01*
X0002912165Y0001964212D01*
X0002912165Y0001965000D01*
X0002911377Y0001965000D01*
X0002911377Y0001975000D01*
X0002912165Y0001975000D01*
X0002912165Y0001975787D01*
X0002922165Y0001975787D01*
X0002922165Y0001975000D01*
M02*