%
M48
METRIC,000.000
T01C0.33
T02C0.79
T03C0.81
T04C0.81
T05C0.99
T06C0.99
T07C1.02
T08C1.19
T09C1.09
T10C3.25
T11C0.50
%
T01
X002032Y036322
X043788Y062951
X036032Y036322
X070032Y036322
T02
X010795Y004318
X012700Y038100
X012700Y035560
X012700Y033020
X012700Y030480
X012700Y027940
X012700Y025400
X012700Y022860
X012700Y020320
X012700Y017780
X012954Y013081
X012954Y010581
X017145Y013335
X017145Y006985
X019685Y013335
X019685Y006985
X020320Y045720
X020320Y043220
X020320Y038100
X020320Y035560
X020320Y033020
X020320Y030480
X020320Y027940
X020320Y025400
X020320Y022860
X020320Y020320
X020320Y017780
X026670Y041275
X026670Y034925
X026670Y023495
X026670Y017145
X029210Y041275
X029210Y034925
X029210Y023495
X029210Y017145
X075792Y071714
X042010Y073619
X044550Y073619
X047090Y073619
X049630Y073619
X052170Y073619
X054710Y073619
X057250Y073619
X059790Y073619
X062330Y073619
X067029Y073874
X069528Y073874
X066775Y078064
X073125Y078064
X066775Y080604
X073125Y080604
X034390Y081239
X036889Y081239
X042010Y081239
X044550Y081239
X047090Y081239
X049630Y081239
X052170Y081239
X054710Y081239
X057250Y081239
X059790Y081239
X062330Y081239
X038835Y087589
X045185Y087589
X056615Y087589
X062965Y087589
X038835Y090130
X045185Y090130
X056615Y090130
X062965Y090130
X044795Y004318
X046700Y038100
X046700Y035560
X046700Y033020
X046700Y030480
X046700Y027940
X046700Y025400
X046700Y022860
X046700Y020320
X046700Y017780
X046954Y013081
X046954Y010581
X051145Y013335
X051145Y006985
X053685Y013335
X053685Y006985
X054320Y045720
X054320Y043220
X054320Y038100
X054320Y035560
X054320Y033020
X054320Y030480
X054320Y027940
X054320Y025400
X054320Y022860
X054320Y020320
X054320Y017780
X060670Y041275
X060670Y034925
X060670Y023495
X060670Y017145
X063210Y041275
X063210Y034925
X063210Y023495
X063210Y017145
X078795Y004318
X080700Y038100
X080700Y035560
X080700Y033020
X080700Y030480
X080700Y027940
X080700Y025400
X080700Y022860
X080700Y020320
X080700Y017780
X080954Y013081
X080954Y010581
X085145Y013335
X085145Y006985
X087685Y013335
X087685Y006985
X088320Y045720
X088320Y043220
X088320Y038100
X088320Y035560
X088320Y033020
X088320Y030480
X088320Y027940
X088320Y025400
X088320Y022860
X088320Y020320
X088320Y017780
X094670Y041275
X094670Y034925
X094670Y023495
X094670Y017145
X097210Y041275
X097210Y034925
X097210Y023495
X097210Y017145
T03
X010795Y006817
X073292Y071714
X024230Y071079
X024230Y073619
X024230Y076160
X023595Y086954
X026135Y086954
X075664Y086954
X078205Y086954
X044795Y006817
X044160Y055880
X046700Y055880
X049240Y055880
X060035Y056515
X060035Y053975
X060035Y004445
X060035Y001905
X078795Y006817
X078160Y055880
X080700Y055880
X083240Y055880
X094035Y056515
X094035Y053975
X094035Y004445
X094035Y001905
T04
X010160Y055880
X012700Y055880
X015240Y055880
X026035Y056515
X026035Y053975
X026035Y004445
X026035Y001905
T05
X002540Y034129
X002540Y031630
X002540Y029131
X002540Y026629
X002540Y024130
X002540Y016349
X002540Y013850
X002540Y011351
X002540Y008849
X002540Y006350
X007620Y035560
X007620Y033020
X007620Y030480
X007620Y027940
X007620Y025400
X007620Y022860
X007620Y020320
X007620Y017780
X007620Y015240
X007620Y012700
X007620Y010160
X007620Y007620
X007620Y005080
X007620Y002540
X022860Y035560
X022860Y033020
X022860Y030480
X022860Y027940
X022860Y025400
X022860Y022860
X022860Y020320
X022860Y017780
X022860Y015240
X022860Y012700
X022860Y010160
X022860Y007620
X022860Y005080
X022860Y002540
X025689Y032461
X025689Y025958
X030190Y032461
X030190Y025958
X045980Y063460
X048479Y063460
X050978Y063460
X053480Y063460
X055980Y063460
X063760Y063460
X066259Y063460
X068758Y063460
X071260Y063460
X073760Y063460
X044550Y068539
X047090Y068539
X049630Y068539
X052170Y068539
X054710Y068539
X057250Y068539
X059790Y068539
X062330Y068539
X064870Y068539
X067410Y068539
X069950Y068539
X072490Y068539
X075030Y068539
X077570Y068539
X044550Y083780
X047090Y083780
X049630Y083780
X052170Y083780
X054710Y083780
X057250Y083780
X059790Y083780
X062330Y083780
X064870Y083780
X067410Y083780
X069950Y083780
X072490Y083780
X075030Y083780
X077570Y083780
X047648Y086609
X054151Y086609
X047648Y091110
X054151Y091110
X030580Y078740
X030580Y083739
X028675Y086954
X031215Y086954
X033755Y086954
X036295Y086954
X065504Y086954
X068045Y086954
X070585Y086954
X073125Y086954
X036540Y034129
X036540Y031630
X036540Y029131
X036540Y026629
X036540Y024130
X036540Y016349
X036540Y013850
X036540Y011351
X036540Y008849
X036540Y006350
X041620Y035560
X041620Y033020
X041620Y030480
X041620Y027940
X041620Y025400
X041620Y022860
X041620Y020320
X041620Y017780
X041620Y015240
X041620Y012700
X041620Y010160
X041620Y007620
X041620Y005080
X041620Y002540
X056860Y035560
X056860Y033020
X056860Y030480
X056860Y027940
X056860Y025400
X056860Y022860
X056860Y020320
X056860Y017780
X056860Y015240
X056860Y012700
X056860Y010160
X056860Y007620
X056860Y005080
X056860Y002540
X059689Y032461
X059689Y025958
X064190Y032461
X064190Y025958
X051820Y049530
X056819Y049530
X060035Y051435
X060035Y048895
X060035Y046355
X060035Y043815
X060035Y014605
X060035Y012065
X060035Y009525
X060035Y006985
X070540Y034129
X070540Y031630
X070540Y029131
X070540Y026629
X070540Y024130
X070540Y016349
X070540Y013850
X070540Y011351
X070540Y008849
X070540Y006350
X075620Y035560
X075620Y033020
X075620Y030480
X075620Y027940
X075620Y025400
X075620Y022860
X075620Y020320
X075620Y017780
X075620Y015240
X075620Y012700
X075620Y010160
X075620Y007620
X075620Y005080
X075620Y002540
X090860Y035560
X090860Y033020
X090860Y030480
X090860Y027940
X090860Y025400
X090860Y022860
X090860Y020320
X090860Y017780
X090860Y015240
X090860Y012700
X090860Y010160
X090860Y007620
X090860Y005080
X090860Y002540
X093689Y032461
X093689Y025958
X098190Y032461
X098190Y025958
X085820Y049530
X090819Y049530
X094035Y051435
X094035Y048895
X094035Y046355
X094035Y043815
X094035Y014605
X094035Y012065
X094035Y009525
X094035Y006985
T06
X017820Y049530
X022819Y049530
X026035Y051435
X026035Y048895
X026035Y046355
X026035Y043815
X026035Y014605
X026035Y012065
X026035Y009525
X026035Y006985
T07
X012700Y047625
X012700Y045085
X012700Y042545
X032485Y073619
X035025Y073619
X037565Y073619
X046700Y047625
X046700Y045085
X046700Y042545
X080700Y047625
X080700Y045085
X080700Y042545
T08
X006096Y050038
X006096Y046537
X006096Y042672
X006096Y039171
X030072Y067015
X033572Y067015
X037438Y067015
X040938Y067015
X040096Y050038
X040096Y046537
X040096Y042672
X040096Y039171
X074096Y050038
X074096Y046537
X074096Y042672
X074096Y039171
T09
X004538Y022529
X004538Y004749
X057580Y065458
X075360Y065458
X038538Y022529
X038538Y004749
X072538Y022529
X072538Y004749
T10
X003810Y054610
X015240Y003810
X021590Y054610
X025500Y064730
X076300Y076160
X025500Y082509
X037810Y054610
X049240Y003810
X055590Y054610
X071810Y054610
X083240Y003810
X089590Y054610
T11
X031999Y027435
X031999Y028435
X031999Y029435
X031999Y030435
X031999Y031435
X031999Y032435
X033750Y032662
X033750Y031662
X033750Y030662
X033750Y029662
X033750Y028662
X033750Y027662
X065999Y027435
X065999Y028435
X065999Y029435
X065999Y030435
X065999Y031435
X065999Y032435
X067750Y031662
X067750Y030662
X067750Y029662
X067750Y028662
X067750Y027662
X028486Y058629
X027488Y058669
X026488Y058669
X025488Y058669
X024488Y058669
X023982Y060970
X024945Y060712
X025943Y060669
X026943Y060669
X027943Y060669
X028943Y060669
X070943Y060669
X071943Y060669
X072943Y060669
X073943Y060669
X074943Y060669
X075943Y060669
X075488Y058669
X074488Y058669
X073488Y058669
X072488Y058669
X071488Y058652
M30