%MOIN*%
%OFA0B0*%
%FSLAX46Y46*%
%IPPOS*%
%LPD*%
%ADD10C,0.0039370078740157488*%
%ADD11C,0.07874015748031496*%
%ADD12C,0.066*%
%ADD13R,0.07874015748031496X0.07874015748031496*%
%ADD14R,0.062992125984251982X0.062992125984251982*%
%ADD15C,0.062992125984251982*%
%ADD16R,0.066929133858267723X0.066929133858267723*%
%ADD17O,0.066929133858267723X0.066929133858267723*%
%ADD18R,0.051181102362204731X0.051181102362204731*%
%ADD19C,0.051181102362204731*%
%ADD20O,0.062992125984251982X0.062992125984251982*%
%ADD21R,0.08X0.068*%
%ADD22O,0.08X0.068*%
%ADD23R,0.055000000000000007X0.055000000000000007*%
%ADD24C,0.055000000000000007*%
%ADD25C,0.094488188976377951*%
%ADD26R,0.094488188976377951X0.094488188976377951*%
%ADD27C,0.0787*%
%ADD28C,0.070866141732283464*%
%ADD29R,0.023622047244094488X0.015748031496062995*%
%ADD30C,0.027*%
%ADD31C,0.024000000000000004*%
%ADD32C,0.016*%
%ADD33C,0.01*%
%ADD44C,0.0039370078740157488*%
%ADD45C,0.07874015748031496*%
%ADD46C,0.066*%
%ADD47R,0.07874015748031496X0.07874015748031496*%
%ADD48R,0.062992125984251982X0.062992125984251982*%
%ADD49C,0.062992125984251982*%
%ADD50R,0.066929133858267723X0.066929133858267723*%
%ADD51O,0.066929133858267723X0.066929133858267723*%
%ADD52R,0.051181102362204731X0.051181102362204731*%
%ADD53C,0.051181102362204731*%
%ADD54O,0.062992125984251982X0.062992125984251982*%
%ADD55R,0.068X0.08*%
%ADD56O,0.068X0.08*%
%ADD57R,0.055000000000000007X0.055000000000000007*%
%ADD58C,0.055000000000000007*%
%ADD59C,0.094488188976377951*%
%ADD60R,0.094488188976377951X0.094488188976377951*%
%ADD61C,0.0787*%
%ADD62C,0.070866141732283464*%
%ADD63R,0.015748031496062995X0.023622047244094488*%
%ADD64C,0.027*%
%ADD65C,0.024000000000000004*%
%ADD66C,0.016*%
%ADD67C,0.01*%
%ADD68C,0.0039370078740157488*%
%ADD69C,0.07874015748031496*%
%ADD70C,0.066*%
%ADD71R,0.07874015748031496X0.07874015748031496*%
%ADD72R,0.062992125984251982X0.062992125984251982*%
%ADD73C,0.062992125984251982*%
%ADD74R,0.066929133858267723X0.066929133858267723*%
%ADD75O,0.066929133858267723X0.066929133858267723*%
%ADD76R,0.051181102362204731X0.051181102362204731*%
%ADD77C,0.051181102362204731*%
%ADD78O,0.062992125984251982X0.062992125984251982*%
%ADD79R,0.08X0.068*%
%ADD80O,0.08X0.068*%
%ADD81R,0.055000000000000007X0.055000000000000007*%
%ADD82C,0.055000000000000007*%
%ADD83C,0.094488188976377951*%
%ADD84R,0.094488188976377951X0.094488188976377951*%
%ADD85C,0.0787*%
%ADD86C,0.070866141732283464*%
%ADD87R,0.023622047244094488X0.015748031496062995*%
%ADD88C,0.027*%
%ADD89C,0.024000000000000004*%
%ADD90C,0.016*%
%ADD91C,0.01*%
%ADD92C,0.0039370078740157488*%
%ADD93C,0.07874015748031496*%
%ADD94C,0.066*%
%ADD95R,0.07874015748031496X0.07874015748031496*%
%ADD96R,0.062992125984251982X0.062992125984251982*%
%ADD97C,0.062992125984251982*%
%ADD98R,0.066929133858267723X0.066929133858267723*%
%ADD99O,0.066929133858267723X0.066929133858267723*%
%ADD100R,0.051181102362204731X0.051181102362204731*%
%ADD101C,0.051181102362204731*%
%ADD102O,0.062992125984251982X0.062992125984251982*%
%ADD103R,0.08X0.068*%
%ADD104O,0.08X0.068*%
%ADD105R,0.055000000000000007X0.055000000000000007*%
%ADD106C,0.055000000000000007*%
%ADD107C,0.094488188976377951*%
%ADD108R,0.094488188976377951X0.094488188976377951*%
%ADD109C,0.0787*%
%ADD110C,0.070866141732283464*%
%ADD111R,0.023622047244094488X0.015748031496062995*%
%ADD112C,0.027*%
%ADD113C,0.024000000000000004*%
%ADD114C,0.016*%
%ADD115C,0.01*%
G01*
D10*
D11*
X-0004799999Y0004650000D02*
X0000606574Y0001975000D03*
X0000803425Y0001975000D03*
D12*
X0001050000Y0000075000D03*
X0001050000Y0000175000D03*
D11*
X0001050000Y0000475000D03*
D13*
X0001050000Y0000575000D03*
D14*
X0000100000Y0000250000D03*
D15*
X0000100000Y0000348425D03*
X0000100000Y0000446850D03*
X0000100000Y0000545275D03*
X0000100000Y0000643700D03*
D14*
X0000450000Y0000450000D03*
D15*
X0000548425Y0000450000D03*
D16*
X0000900000Y0000100000D03*
D17*
X0000900000Y0000200000D03*
X0000900000Y0000300000D03*
X0000900000Y0000400000D03*
X0000900000Y0000500000D03*
X0000900000Y0000600000D03*
X0000900000Y0000700000D03*
X0000900000Y0000800000D03*
X0000900000Y0000900000D03*
X0000900000Y0001000000D03*
X0000900000Y0001100000D03*
X0000900000Y0001200000D03*
X0000900000Y0001300000D03*
X0000900000Y0001400000D03*
D18*
X0000450000Y0000275000D03*
D19*
X0000450000Y0000176574D03*
D20*
X0000800000Y0000700000D03*
X0000800000Y0000800000D03*
X0000800000Y0000900000D03*
X0000800000Y0001000000D03*
X0000800000Y0001100000D03*
X0000800000Y0001200000D03*
X0000800000Y0001300000D03*
X0000800000Y0001400000D03*
X0000800000Y0001500000D03*
X0000500000Y0001500000D03*
X0000500000Y0001400000D03*
X0000500000Y0001300000D03*
X0000500000Y0001200000D03*
X0000500000Y0001100000D03*
X0000500000Y0001000000D03*
X0000500000Y0000900000D03*
X0000500000Y0000800000D03*
X0000500000Y0000700000D03*
D14*
X0000100000Y0000950000D03*
D15*
X0000100000Y0001048425D03*
X0000100000Y0001146850D03*
X0000100000Y0001245275D03*
X0000100000Y0001343700D03*
X0000800000Y0001701574D03*
D14*
X0000800000Y0001800000D03*
D21*
X0000500000Y0001700000D03*
D22*
X0000500000Y0001800000D03*
X0000500000Y0001900000D03*
D23*
X0000400000Y0002200000D03*
D24*
X0000500000Y0002200000D03*
X0000600000Y0002200000D03*
D25*
X0000240000Y0001832204D03*
D26*
X0000240000Y0001970000D03*
D25*
X0000240000Y0001542204D03*
D26*
X0000240000Y0001680000D03*
D11*
X0001050000Y0001725000D03*
D13*
X0001050000Y0001825000D03*
D27*
X0001050000Y0000925000D03*
X0001050000Y0000675000D03*
X0001150000Y0001375000D03*
X0001150000Y0001625000D03*
X0001150000Y0000925000D03*
X0001150000Y0000675000D03*
X0001050000Y0001375000D03*
X0001050000Y0001625000D03*
D15*
X0000775000Y0000275000D03*
X0000775000Y0000525000D03*
X0000675000Y0000275000D03*
X0000675000Y0000525000D03*
D28*
X0001011417Y0001277952D03*
X0001188582Y0001277952D03*
X0001011417Y0001022047D03*
X0001188582Y0001022047D03*
D16*
X0000300000Y0000100000D03*
D17*
X0000300000Y0000200000D03*
X0000300000Y0000300000D03*
X0000300000Y0000400000D03*
X0000300000Y0000500000D03*
X0000300000Y0000600000D03*
X0000300000Y0000700000D03*
X0000300000Y0000800000D03*
X0000300000Y0000900000D03*
X0000300000Y0001000000D03*
X0000300000Y0001100000D03*
X0000300000Y0001200000D03*
X0000300000Y0001300000D03*
X0000300000Y0001400000D03*
D29*
X0000410000Y0000697716D03*
X0000410000Y0000662283D03*
D11*
X0001050000Y0000275000D03*
D13*
X0001050000Y0000375000D03*
D11*
X0001050000Y0001925000D03*
D13*
X0001050000Y0002025000D03*
D12*
X0001050000Y0002125000D03*
X0001050000Y0002225000D03*
D30*
X0000080000Y0001430000D03*
D31*
X0000450000Y0000176574D02*
X0000450000Y0000140000D01*
X0001005000Y0000030000D02*
X0001050000Y0000075000D01*
X0000560000Y0000030000D02*
X0001005000Y0000030000D01*
X0000450000Y0000140000D02*
X0000560000Y0000030000D01*
D32*
X0000500000Y0001900000D02*
X0000680000Y0001900000D01*
X0000755000Y0001975000D02*
X0000803425Y0001975000D01*
X0000680000Y0001900000D02*
X0000755000Y0001975000D01*
X0000800000Y0001500000D02*
X0000800000Y0001701574D01*
D31*
X0000450000Y0000176574D02*
X0000383425Y0000176574D01*
X0000383425Y0000176574D02*
X0000360000Y0000200000D01*
X0000360000Y0000200000D02*
X0000300000Y0000200000D01*
X0000548425Y0000450000D02*
X0000548425Y0000548425D01*
X0000550000Y0001900000D02*
X0000500000Y0001900000D01*
X0000600000Y0001850000D02*
X0000550000Y0001900000D01*
X0000600000Y0000600000D02*
X0000600000Y0001850000D01*
X0000548425Y0000548425D02*
X0000600000Y0000600000D01*
D32*
X0001185629Y0001275000D02*
X0001188582Y0001277952D01*
X0001188582Y0001277952D02*
X0001188582Y0001022047D01*
X0000425000Y0000225000D02*
X0000400000Y0000225000D01*
X0000425000Y0000225000D02*
X0000525000Y0000225000D01*
X0000525000Y0000225000D02*
X0000625000Y0000325000D01*
X0000625000Y0000325000D02*
X0000775000Y0000325000D01*
X0000975000Y0000385000D02*
X0000940000Y0000350000D01*
X0000940000Y0000350000D02*
X0000800000Y0000350000D01*
X0000800000Y0000350000D02*
X0000775000Y0000325000D01*
X0001150000Y0000925000D02*
X0000975000Y0000750000D01*
X0000975000Y0000575000D02*
X0000975000Y0000750000D01*
X0000975000Y0000575000D02*
X0000975000Y0000385000D01*
X0000265000Y0000600000D02*
X0000300000Y0000600000D01*
X0000240000Y0000575000D02*
X0000265000Y0000600000D01*
X0000240000Y0000280000D02*
X0000240000Y0000575000D01*
X0000270000Y0000250000D02*
X0000240000Y0000280000D01*
X0000375000Y0000250000D02*
X0000270000Y0000250000D01*
X0000400000Y0000225000D02*
X0000375000Y0000250000D01*
X0001150000Y0000925000D02*
X0001150000Y0000887500D01*
X0001011417Y0001277952D02*
X0001011417Y0001022047D01*
D31*
X0000240000Y0001832204D02*
X0000240000Y0001680000D01*
X0000240000Y0001542204D02*
X0000267204Y0001542204D01*
X0000267204Y0001542204D02*
X0000350000Y0001625000D01*
X0000350000Y0001625000D02*
X0000350000Y0002100000D01*
X0000350000Y0002100000D02*
X0000400000Y0002200000D01*
D32*
X0000690000Y0002038425D02*
X0000606574Y0001975000D01*
X0000690000Y0002220000D02*
X0000690000Y0002038425D01*
X0000645000Y0002265000D02*
X0000690000Y0002220000D01*
X0000345000Y0002265000D02*
X0000645000Y0002265000D01*
X0000295000Y0002215000D02*
X0000345000Y0002265000D01*
X0000295000Y0002125000D02*
X0000295000Y0002215000D01*
X0000240000Y0002070000D02*
X0000295000Y0002125000D01*
X0000200000Y0002070000D02*
X0000240000Y0002070000D01*
X0000105000Y0001975000D02*
X0000200000Y0002070000D01*
X0000105000Y0001455000D02*
X0000105000Y0001975000D01*
X0000080000Y0001430000D02*
X0000105000Y0001455000D01*
X0000900000Y0000500000D02*
X0000905000Y0000500000D01*
X0000835000Y0000550000D02*
X0000835000Y0000515000D01*
X0000500000Y0001700000D02*
X0000555000Y0001645000D01*
X0000555000Y0001365000D02*
X0000555000Y0001645000D01*
X0000540000Y0001350000D02*
X0000555000Y0001365000D01*
X0000260000Y0001350000D02*
X0000540000Y0001350000D01*
X0000225000Y0001315000D02*
X0000260000Y0001350000D01*
X0000225000Y0001090000D02*
X0000225000Y0001315000D01*
X0000265000Y0001050000D02*
X0000225000Y0001090000D01*
X0000340000Y0001050000D02*
X0000265000Y0001050000D01*
X0000360000Y0001030000D02*
X0000340000Y0001050000D01*
X0000360000Y0000395000D02*
X0000360000Y0001030000D01*
X0000420000Y0000335000D02*
X0000360000Y0000395000D01*
X0000580000Y0000335000D02*
X0000420000Y0000335000D01*
X0000610000Y0000365000D02*
X0000580000Y0000335000D01*
X0000835000Y0000550000D02*
X0000885000Y0000600000D01*
X0000685000Y0000365000D02*
X0000610000Y0000365000D01*
X0000835000Y0000515000D02*
X0000685000Y0000365000D01*
X0000900000Y0000600000D02*
X0000885000Y0000600000D01*
X0001050000Y0000925000D02*
X0001050000Y0000940000D01*
X0001050000Y0000940000D02*
X0001100000Y0000990000D01*
X0001100000Y0000990000D02*
X0001100000Y0001325000D01*
X0001100000Y0001325000D02*
X0001050000Y0001375000D01*
X0000410000Y0000600000D02*
X0000410000Y0000595000D01*
X0000765000Y0000525000D02*
X0000630000Y0000400000D01*
X0000410000Y0000600000D02*
X0000410000Y0000662283D01*
X0000520000Y0000400000D02*
X0000630000Y0000400000D01*
X0000500000Y0000420000D02*
X0000520000Y0000400000D01*
X0000500000Y0000505000D02*
X0000500000Y0000420000D01*
X0000410000Y0000595000D02*
X0000500000Y0000505000D01*
X0000775000Y0000525000D02*
X0000775000Y0000575000D01*
X0000775000Y0000575000D02*
X0000900000Y0000700000D01*
X0000775000Y0000525000D02*
X0000775000Y0000540000D01*
X0000775000Y0000525000D02*
X0000765000Y0000525000D01*
X0000892500Y0001977500D02*
X0000892500Y0001912500D01*
X0000892500Y0002052500D02*
X0000892500Y0001977500D01*
X0000740000Y0001890000D02*
X0000675000Y0001825000D01*
X0000870000Y0001890000D02*
X0000740000Y0001890000D01*
X0000892500Y0001912500D02*
X0000870000Y0001890000D01*
X0000675000Y0000525000D02*
X0000675000Y0000690000D01*
X0000850000Y0000750000D02*
X0000900000Y0000800000D01*
X0000735000Y0000750000D02*
X0000850000Y0000750000D01*
X0000675000Y0000690000D02*
X0000735000Y0000750000D01*
X0000675000Y0001825000D02*
X0000675000Y0000525000D01*
X0001050000Y0002225000D02*
X0001015000Y0002225000D01*
X0001015000Y0002225000D02*
X0000970000Y0002180000D01*
X0000675000Y0000525000D02*
X0000675000Y0000550000D01*
X0001025000Y0002225000D02*
X0001050000Y0002225000D01*
X0000970000Y0002180000D02*
X0000970000Y0002130000D01*
X0000970000Y0002130000D02*
X0000892500Y0002052500D01*
X0000892500Y0002052500D02*
X0000890000Y0002050000D01*
D31*
X0000100000Y0000643700D02*
X0000131299Y0000643700D01*
X0000131299Y0000643700D02*
X0000200000Y0000575000D01*
X0000250000Y0000100000D02*
X0000300000Y0000100000D01*
X0000200000Y0000150000D02*
X0000250000Y0000100000D01*
X0000200000Y0000575000D02*
X0000200000Y0000150000D01*
X0000100000Y0000643700D02*
X0000106299Y0000643700D01*
X0000175000Y0000800000D02*
X0000175000Y0000718700D01*
X0000175000Y0000800000D02*
X0000175000Y0001268700D01*
X0000100000Y0001343700D02*
X0000175000Y0001268700D01*
X0000175000Y0000718700D02*
X0000100000Y0000643700D01*
X0000100000Y0001343700D02*
X0000100000Y0001350000D01*
X0000100000Y0001350000D02*
X0000175000Y0001425000D01*
X0000475000Y0001475000D02*
X0000500000Y0001500000D01*
X0000275000Y0001475000D02*
X0000475000Y0001475000D01*
X0000225000Y0001425000D02*
X0000275000Y0001475000D01*
X0000175000Y0001425000D02*
X0000225000Y0001425000D01*
X0000500000Y0001800000D02*
X0000450000Y0001800000D01*
X0000450000Y0001800000D02*
X0000400000Y0001750000D01*
X0000500000Y0002200000D02*
X0000500000Y0002175000D01*
X0000500000Y0002175000D02*
X0000400000Y0002025000D01*
X0000400000Y0002025000D02*
X0000400000Y0001750000D01*
X0000400000Y0001750000D02*
X0000400000Y0001600000D01*
X0000400000Y0001600000D02*
X0000500000Y0001500000D01*
D32*
X0000775000Y0000275000D02*
X0000675000Y0000275000D01*
X0000410000Y0000697716D02*
X0000410000Y0001030000D01*
X0000340000Y0001100000D02*
X0000300000Y0001100000D01*
X0000410000Y0001030000D02*
X0000340000Y0001100000D01*
D33*
G36*
X0001057627Y0000075556D02*
X0001057071Y0000075000D01*
X0001057627Y0000074443D01*
X0001050556Y0000067372D01*
X0001050000Y0000067928D01*
X0001049443Y0000067372D01*
X0001042372Y0000074443D01*
X0001042928Y0000075000D01*
X0001042372Y0000075556D01*
X0001049443Y0000082627D01*
X0001050000Y0000082071D01*
X0001050556Y0000082627D01*
X0001057627Y0000075556D01*
X0001057627Y0000075556D01*
G37*
X0001057627Y0000075556D02*
X0001057071Y0000075000D01*
X0001057627Y0000074443D01*
X0001050556Y0000067372D01*
X0001050000Y0000067928D01*
X0001049443Y0000067372D01*
X0001042372Y0000074443D01*
X0001042928Y0000075000D01*
X0001042372Y0000075556D01*
X0001049443Y0000082627D01*
X0001050000Y0000082071D01*
X0001050556Y0000082627D01*
X0001057627Y0000075556D01*
G36*
X0001057627Y0000275556D02*
X0001057071Y0000275000D01*
X0001057627Y0000274443D01*
X0001050556Y0000267372D01*
X0001050000Y0000267928D01*
X0001049443Y0000267372D01*
X0001042372Y0000274443D01*
X0001042928Y0000275000D01*
X0001042372Y0000275556D01*
X0001049443Y0000282627D01*
X0001050000Y0000282071D01*
X0001050556Y0000282627D01*
X0001057627Y0000275556D01*
X0001057627Y0000275556D01*
G37*
X0001057627Y0000275556D02*
X0001057071Y0000275000D01*
X0001057627Y0000274443D01*
X0001050556Y0000267372D01*
X0001050000Y0000267928D01*
X0001049443Y0000267372D01*
X0001042372Y0000274443D01*
X0001042928Y0000275000D01*
X0001042372Y0000275556D01*
X0001049443Y0000282627D01*
X0001050000Y0000282071D01*
X0001050556Y0000282627D01*
X0001057627Y0000275556D01*
G36*
X0000559235Y0002139107D02*
X0000585641Y0002128142D01*
X0000614233Y0002128117D01*
X0000637629Y0002137784D01*
X0000637629Y0002064396D01*
X0000627745Y0002056881D01*
X0000623304Y0002058725D01*
X0000589990Y0002058754D01*
X0000559201Y0002046032D01*
X0000535624Y0002022496D01*
X0000522849Y0001991730D01*
X0000522820Y0001958416D01*
X0000524241Y0001954976D01*
X0000514248Y0001958471D01*
X0000505000Y0001952792D01*
X0000505000Y0001905000D01*
X0000558129Y0001905000D01*
X0000559077Y0001904049D01*
X0000589844Y0001891274D01*
X0000623158Y0001891245D01*
X0000653947Y0001903967D01*
X0000677524Y0001927503D01*
X0000690300Y0001958269D01*
X0000690313Y0001972876D01*
X0000721695Y0001996735D01*
X0000724061Y0001999409D01*
X0000727031Y0002001393D01*
X0000730773Y0002006993D01*
X0000735236Y0002012038D01*
X0000736399Y0002015414D01*
X0000738383Y0002018384D01*
X0000739697Y0002024989D01*
X0000741891Y0002031357D01*
X0000741673Y0002034922D01*
X0000742370Y0002038425D01*
X0000742370Y0002126763D01*
X0000758094Y0002088706D01*
X0000788546Y0002058201D01*
X0000828354Y0002041672D01*
X0000839288Y0002041662D01*
X0000840129Y0002037431D01*
X0000840129Y0002024701D01*
X0000837845Y0002030881D01*
X0000813840Y0002039799D01*
X0000788249Y0002038852D01*
X0000769005Y0002030881D01*
X0000765121Y0002020375D01*
X0000803425Y0001982071D01*
X0000803982Y0001982627D01*
X0000811053Y0001975556D01*
X0000810496Y0001975000D01*
X0000811053Y0001974443D01*
X0000803982Y0001967372D01*
X0000803425Y0001967928D01*
X0000802868Y0001967372D01*
X0000795797Y0001974443D01*
X0000796354Y0001975000D01*
X0000758049Y0002013304D01*
X0000747543Y0002009419D01*
X0000738625Y0001985414D01*
X0000739572Y0001959824D01*
X0000746802Y0001942370D01*
X0000740000Y0001942370D01*
X0000719958Y0001938383D01*
X0000702968Y0001927031D01*
X0000637968Y0001862031D01*
X0000626616Y0001845041D01*
X0000622629Y0001825000D01*
X0000622629Y0000579918D01*
X0000610721Y0000568030D01*
X0000599147Y0000540156D01*
X0000599120Y0000509975D01*
X0000610646Y0000482081D01*
X0000625498Y0000467203D01*
X0000609477Y0000452370D01*
X0000604872Y0000452370D01*
X0000604322Y0000463915D01*
X0000597789Y0000479685D01*
X0000588100Y0000482603D01*
X0000557866Y0000452370D01*
X0000552370Y0000452370D01*
X0000552370Y0000461015D01*
X0000581029Y0000489675D01*
X0000578110Y0000499364D01*
X0000556959Y0000506967D01*
X0000552025Y0000506731D01*
X0000548383Y0000525041D01*
X0000546346Y0000528090D01*
X0000537031Y0000542031D01*
X0000462370Y0000616692D01*
X0000462370Y0000634660D01*
X0000469481Y0000629908D01*
X0000498513Y0000624133D01*
X0000501486Y0000624133D01*
X0000530519Y0000629908D01*
X0000555131Y0000646354D01*
X0000571577Y0000670967D01*
X0000577352Y0000700000D01*
X0000571577Y0000729032D01*
X0000557567Y0000750000D01*
X0000571577Y0000770967D01*
X0000577352Y0000800000D01*
X0000571577Y0000829032D01*
X0000557567Y0000850000D01*
X0000571577Y0000870967D01*
X0000577352Y0000900000D01*
X0000571577Y0000929032D01*
X0000557567Y0000950000D01*
X0000571577Y0000970967D01*
X0000577352Y0001000000D01*
X0000571577Y0001029032D01*
X0000557567Y0001050000D01*
X0000571577Y0001070967D01*
X0000577352Y0001100000D01*
X0000571577Y0001129032D01*
X0000557567Y0001150000D01*
X0000571577Y0001170967D01*
X0000577352Y0001200000D01*
X0000571577Y0001229032D01*
X0000557567Y0001250000D01*
X0000571577Y0001270967D01*
X0000577352Y0001300000D01*
X0000575037Y0001311636D01*
X0000577031Y0001312968D01*
X0000592031Y0001327968D01*
X0000603383Y0001344958D01*
X0000605111Y0001353645D01*
X0000607370Y0001365000D01*
X0000607370Y0001645000D01*
X0000603383Y0001665041D01*
X0000602743Y0001666000D01*
X0000592031Y0001682031D01*
X0000585239Y0001688823D01*
X0000585239Y0001734000D01*
X0000582145Y0001750442D01*
X0000574707Y0001762001D01*
X0000580057Y0001770009D01*
X0000586023Y0001800000D01*
X0000580057Y0001829990D01*
X0000563068Y0001855416D01*
X0000551601Y0001863078D01*
X0000553178Y0001864486D01*
X0000563177Y0001885244D01*
X0000563281Y0001885865D01*
X0000558512Y0001895000D01*
X0000505000Y0001895000D01*
X0000505000Y0001894212D01*
X0000495000Y0001894212D01*
X0000495000Y0001895000D01*
X0000494212Y0001895000D01*
X0000494212Y0001905000D01*
X0000495000Y0001905000D01*
X0000495000Y0001952792D01*
X0000485751Y0001958471D01*
X0000464003Y0001950864D01*
X0000456370Y0001944044D01*
X0000456370Y0002007932D01*
X0000546902Y0002143731D01*
X0000547983Y0002146349D01*
X0000549998Y0002148360D01*
X0000559235Y0002139107D01*
X0000559235Y0002139107D01*
G37*
X0000559235Y0002139107D02*
X0000585641Y0002128142D01*
X0000614233Y0002128117D01*
X0000637629Y0002137784D01*
X0000637629Y0002064396D01*
X0000627745Y0002056881D01*
X0000623304Y0002058725D01*
X0000589990Y0002058754D01*
X0000559201Y0002046032D01*
X0000535624Y0002022496D01*
X0000522849Y0001991730D01*
X0000522820Y0001958416D01*
X0000524241Y0001954976D01*
X0000514248Y0001958471D01*
X0000505000Y0001952792D01*
X0000505000Y0001905000D01*
X0000558129Y0001905000D01*
X0000559077Y0001904049D01*
X0000589844Y0001891274D01*
X0000623158Y0001891245D01*
X0000653947Y0001903967D01*
X0000677524Y0001927503D01*
X0000690300Y0001958269D01*
X0000690313Y0001972876D01*
X0000721695Y0001996735D01*
X0000724061Y0001999409D01*
X0000727031Y0002001393D01*
X0000730773Y0002006993D01*
X0000735236Y0002012038D01*
X0000736399Y0002015414D01*
X0000738383Y0002018384D01*
X0000739697Y0002024989D01*
X0000741891Y0002031357D01*
X0000741673Y0002034922D01*
X0000742370Y0002038425D01*
X0000742370Y0002126763D01*
X0000758094Y0002088706D01*
X0000788546Y0002058201D01*
X0000828354Y0002041672D01*
X0000839288Y0002041662D01*
X0000840129Y0002037431D01*
X0000840129Y0002024701D01*
X0000837845Y0002030881D01*
X0000813840Y0002039799D01*
X0000788249Y0002038852D01*
X0000769005Y0002030881D01*
X0000765121Y0002020375D01*
X0000803425Y0001982071D01*
X0000803982Y0001982627D01*
X0000811053Y0001975556D01*
X0000810496Y0001975000D01*
X0000811053Y0001974443D01*
X0000803982Y0001967372D01*
X0000803425Y0001967928D01*
X0000802868Y0001967372D01*
X0000795797Y0001974443D01*
X0000796354Y0001975000D01*
X0000758049Y0002013304D01*
X0000747543Y0002009419D01*
X0000738625Y0001985414D01*
X0000739572Y0001959824D01*
X0000746802Y0001942370D01*
X0000740000Y0001942370D01*
X0000719958Y0001938383D01*
X0000702968Y0001927031D01*
X0000637968Y0001862031D01*
X0000626616Y0001845041D01*
X0000622629Y0001825000D01*
X0000622629Y0000579918D01*
X0000610721Y0000568030D01*
X0000599147Y0000540156D01*
X0000599120Y0000509975D01*
X0000610646Y0000482081D01*
X0000625498Y0000467203D01*
X0000609477Y0000452370D01*
X0000604872Y0000452370D01*
X0000604322Y0000463915D01*
X0000597789Y0000479685D01*
X0000588100Y0000482603D01*
X0000557866Y0000452370D01*
X0000552370Y0000452370D01*
X0000552370Y0000461015D01*
X0000581029Y0000489675D01*
X0000578110Y0000499364D01*
X0000556959Y0000506967D01*
X0000552025Y0000506731D01*
X0000548383Y0000525041D01*
X0000546346Y0000528090D01*
X0000537031Y0000542031D01*
X0000462370Y0000616692D01*
X0000462370Y0000634660D01*
X0000469481Y0000629908D01*
X0000498513Y0000624133D01*
X0000501486Y0000624133D01*
X0000530519Y0000629908D01*
X0000555131Y0000646354D01*
X0000571577Y0000670967D01*
X0000577352Y0000700000D01*
X0000571577Y0000729032D01*
X0000557567Y0000750000D01*
X0000571577Y0000770967D01*
X0000577352Y0000800000D01*
X0000571577Y0000829032D01*
X0000557567Y0000850000D01*
X0000571577Y0000870967D01*
X0000577352Y0000900000D01*
X0000571577Y0000929032D01*
X0000557567Y0000950000D01*
X0000571577Y0000970967D01*
X0000577352Y0001000000D01*
X0000571577Y0001029032D01*
X0000557567Y0001050000D01*
X0000571577Y0001070967D01*
X0000577352Y0001100000D01*
X0000571577Y0001129032D01*
X0000557567Y0001150000D01*
X0000571577Y0001170967D01*
X0000577352Y0001200000D01*
X0000571577Y0001229032D01*
X0000557567Y0001250000D01*
X0000571577Y0001270967D01*
X0000577352Y0001300000D01*
X0000575037Y0001311636D01*
X0000577031Y0001312968D01*
X0000592031Y0001327968D01*
X0000603383Y0001344958D01*
X0000605111Y0001353645D01*
X0000607370Y0001365000D01*
X0000607370Y0001645000D01*
X0000603383Y0001665041D01*
X0000602743Y0001666000D01*
X0000592031Y0001682031D01*
X0000585239Y0001688823D01*
X0000585239Y0001734000D01*
X0000582145Y0001750442D01*
X0000574707Y0001762001D01*
X0000580057Y0001770009D01*
X0000586023Y0001800000D01*
X0000580057Y0001829990D01*
X0000563068Y0001855416D01*
X0000551601Y0001863078D01*
X0000553178Y0001864486D01*
X0000563177Y0001885244D01*
X0000563281Y0001885865D01*
X0000558512Y0001895000D01*
X0000505000Y0001895000D01*
X0000505000Y0001894212D01*
X0000495000Y0001894212D01*
X0000495000Y0001895000D01*
X0000494212Y0001895000D01*
X0000494212Y0001905000D01*
X0000495000Y0001905000D01*
X0000495000Y0001952792D01*
X0000485751Y0001958471D01*
X0000464003Y0001950864D01*
X0000456370Y0001944044D01*
X0000456370Y0002007932D01*
X0000546902Y0002143731D01*
X0000547983Y0002146349D01*
X0000549998Y0002148360D01*
X0000559235Y0002139107D01*
G36*
X0001057627Y0000475556D02*
X0001057071Y0000475000D01*
X0001057627Y0000474443D01*
X0001050556Y0000467372D01*
X0001050000Y0000467928D01*
X0001049443Y0000467372D01*
X0001042372Y0000474443D01*
X0001042928Y0000475000D01*
X0001042372Y0000475556D01*
X0001049443Y0000482627D01*
X0001050000Y0000482071D01*
X0001050556Y0000482627D01*
X0001057627Y0000475556D01*
X0001057627Y0000475556D01*
G37*
X0001057627Y0000475556D02*
X0001057071Y0000475000D01*
X0001057627Y0000474443D01*
X0001050556Y0000467372D01*
X0001050000Y0000467928D01*
X0001049443Y0000467372D01*
X0001042372Y0000474443D01*
X0001042928Y0000475000D01*
X0001042372Y0000475556D01*
X0001049443Y0000482627D01*
X0001050000Y0000482071D01*
X0001050556Y0000482627D01*
X0001057627Y0000475556D01*
G36*
X0001196210Y0001022604D02*
X0001195653Y0001022047D01*
X0001196210Y0001021490D01*
X0001189139Y0001014419D01*
X0001188582Y0001014976D01*
X0001188025Y0001014419D01*
X0001180954Y0001021490D01*
X0001181511Y0001022047D01*
X0001180954Y0001022604D01*
X0001188025Y0001029675D01*
X0001188582Y0001029118D01*
X0001189139Y0001029675D01*
X0001196210Y0001022604D01*
X0001196210Y0001022604D01*
G37*
X0001196210Y0001022604D02*
X0001195653Y0001022047D01*
X0001196210Y0001021490D01*
X0001189139Y0001014419D01*
X0001188582Y0001014976D01*
X0001188025Y0001014419D01*
X0001180954Y0001021490D01*
X0001181511Y0001022047D01*
X0001180954Y0001022604D01*
X0001188025Y0001029675D01*
X0001188582Y0001029118D01*
X0001189139Y0001029675D01*
X0001196210Y0001022604D01*
G36*
X0001196210Y0001278509D02*
X0001195653Y0001277952D01*
X0001196210Y0001277395D01*
X0001189139Y0001270324D01*
X0001188582Y0001270881D01*
X0001188025Y0001270324D01*
X0001180954Y0001277395D01*
X0001181511Y0001277952D01*
X0001180954Y0001278509D01*
X0001188025Y0001285580D01*
X0001188582Y0001285023D01*
X0001189139Y0001285580D01*
X0001196210Y0001278509D01*
X0001196210Y0001278509D01*
G37*
X0001196210Y0001278509D02*
X0001195653Y0001277952D01*
X0001196210Y0001277395D01*
X0001189139Y0001270324D01*
X0001188582Y0001270881D01*
X0001188025Y0001270324D01*
X0001180954Y0001277395D01*
X0001181511Y0001277952D01*
X0001180954Y0001278509D01*
X0001188025Y0001285580D01*
X0001188582Y0001285023D01*
X0001189139Y0001285580D01*
X0001196210Y0001278509D01*
G36*
X0000965390Y0001985629D02*
X0000968484Y0001969187D01*
X0000978202Y0001954085D01*
X0000989315Y0001946492D01*
X0000985200Y0001935414D01*
X0000986147Y0001909824D01*
X0000988921Y0001903127D01*
X0000979085Y0001896797D01*
X0000968954Y0001881970D01*
X0000965390Y0001864370D01*
X0000965390Y0001785629D01*
X0000968484Y0001769187D01*
X0000978202Y0001754085D01*
X0000989315Y0001746492D01*
X0000985200Y0001735414D01*
X0000986147Y0001709824D01*
X0000994118Y0001690580D01*
X0000996362Y0001689750D01*
X0000979067Y0001672485D01*
X0000966294Y0001641726D01*
X0000966265Y0001608420D01*
X0000978984Y0001577638D01*
X0001002514Y0001554066D01*
X0001033274Y0001541294D01*
X0001066579Y0001541265D01*
X0001097361Y0001553984D01*
X0001099983Y0001556601D01*
X0001102514Y0001554066D01*
X0001133274Y0001541294D01*
X0001166579Y0001541265D01*
X0001197361Y0001553984D01*
X0001200629Y0001557246D01*
X0001200629Y0001442783D01*
X0001197485Y0001445933D01*
X0001166726Y0001458705D01*
X0001133420Y0001458734D01*
X0001102638Y0001446015D01*
X0001100016Y0001443398D01*
X0001097485Y0001445933D01*
X0001066726Y0001458705D01*
X0001033420Y0001458734D01*
X0001002638Y0001446015D01*
X0000979067Y0001422485D01*
X0000976240Y0001415679D01*
X0000973434Y0001429786D01*
X0000956562Y0001455037D01*
X0000931310Y0001471909D01*
X0000901524Y0001477834D01*
X0000898475Y0001477834D01*
X0000868689Y0001471909D01*
X0000848243Y0001458248D01*
X0000841204Y0001462951D01*
X0000848466Y0001470967D01*
X0000854799Y0001486258D01*
X0000849996Y0001495000D01*
X0000805000Y0001495000D01*
X0000805000Y0001494212D01*
X0000795000Y0001494212D01*
X0000795000Y0001495000D01*
X0000750003Y0001495000D01*
X0000745200Y0001486258D01*
X0000751533Y0001470967D01*
X0000758795Y0001462951D01*
X0000744868Y0001453645D01*
X0000728422Y0001429032D01*
X0000727370Y0001423741D01*
X0000727370Y0001513741D01*
X0000745200Y0001513741D01*
X0000750003Y0001505000D01*
X0000795000Y0001505000D01*
X0000795000Y0001550024D01*
X0000805000Y0001550024D01*
X0000805000Y0001505000D01*
X0000849996Y0001505000D01*
X0000854799Y0001513741D01*
X0000848466Y0001529032D01*
X0000833666Y0001545369D01*
X0000813741Y0001554799D01*
X0000805000Y0001550024D01*
X0000795000Y0001550024D01*
X0000786258Y0001554799D01*
X0000766333Y0001545369D01*
X0000751533Y0001529032D01*
X0000745200Y0001513741D01*
X0000727370Y0001513741D01*
X0000727370Y0001661899D01*
X0000767396Y0001661899D01*
X0000770314Y0001652210D01*
X0000791465Y0001644607D01*
X0000813915Y0001645678D01*
X0000829685Y0001652210D01*
X0000832603Y0001661899D01*
X0000800000Y0001694503D01*
X0000767396Y0001661899D01*
X0000727370Y0001661899D01*
X0000727370Y0001750489D01*
X0000736076Y0001736959D01*
X0000749409Y0001727849D01*
X0000743032Y0001710109D01*
X0000744103Y0001687659D01*
X0000750635Y0001671889D01*
X0000760325Y0001668970D01*
X0000792928Y0001701574D01*
X0000792372Y0001702131D01*
X0000799443Y0001709202D01*
X0000800000Y0001708645D01*
X0000800556Y0001709202D01*
X0000807627Y0001702131D01*
X0000807071Y0001701574D01*
X0000839675Y0001668970D01*
X0000849364Y0001671889D01*
X0000856967Y0001693040D01*
X0000855896Y0001715490D01*
X0000850667Y0001728114D01*
X0000863040Y0001736076D01*
X0000873171Y0001750903D01*
X0000876735Y0001768503D01*
X0000876735Y0001831496D01*
X0000875379Y0001838700D01*
X0000890041Y0001841616D01*
X0000907031Y0001852968D01*
X0000929531Y0001875468D01*
X0000940883Y0001892458D01*
X0000941746Y0001896797D01*
X0000944870Y0001912500D01*
X0000944870Y0002030807D01*
X0000965390Y0002051328D01*
X0000965390Y0001985629D01*
X0000965390Y0001985629D01*
G37*
X0000965390Y0001985629D02*
X0000968484Y0001969187D01*
X0000978202Y0001954085D01*
X0000989315Y0001946492D01*
X0000985200Y0001935414D01*
X0000986147Y0001909824D01*
X0000988921Y0001903127D01*
X0000979085Y0001896797D01*
X0000968954Y0001881970D01*
X0000965390Y0001864370D01*
X0000965390Y0001785629D01*
X0000968484Y0001769187D01*
X0000978202Y0001754085D01*
X0000989315Y0001746492D01*
X0000985200Y0001735414D01*
X0000986147Y0001709824D01*
X0000994118Y0001690580D01*
X0000996362Y0001689750D01*
X0000979067Y0001672485D01*
X0000966294Y0001641726D01*
X0000966265Y0001608420D01*
X0000978984Y0001577638D01*
X0001002514Y0001554066D01*
X0001033274Y0001541294D01*
X0001066579Y0001541265D01*
X0001097361Y0001553984D01*
X0001099983Y0001556601D01*
X0001102514Y0001554066D01*
X0001133274Y0001541294D01*
X0001166579Y0001541265D01*
X0001197361Y0001553984D01*
X0001200629Y0001557246D01*
X0001200629Y0001442783D01*
X0001197485Y0001445933D01*
X0001166726Y0001458705D01*
X0001133420Y0001458734D01*
X0001102638Y0001446015D01*
X0001100016Y0001443398D01*
X0001097485Y0001445933D01*
X0001066726Y0001458705D01*
X0001033420Y0001458734D01*
X0001002638Y0001446015D01*
X0000979067Y0001422485D01*
X0000976240Y0001415679D01*
X0000973434Y0001429786D01*
X0000956562Y0001455037D01*
X0000931310Y0001471909D01*
X0000901524Y0001477834D01*
X0000898475Y0001477834D01*
X0000868689Y0001471909D01*
X0000848243Y0001458248D01*
X0000841204Y0001462951D01*
X0000848466Y0001470967D01*
X0000854799Y0001486258D01*
X0000849996Y0001495000D01*
X0000805000Y0001495000D01*
X0000805000Y0001494212D01*
X0000795000Y0001494212D01*
X0000795000Y0001495000D01*
X0000750003Y0001495000D01*
X0000745200Y0001486258D01*
X0000751533Y0001470967D01*
X0000758795Y0001462951D01*
X0000744868Y0001453645D01*
X0000728422Y0001429032D01*
X0000727370Y0001423741D01*
X0000727370Y0001513741D01*
X0000745200Y0001513741D01*
X0000750003Y0001505000D01*
X0000795000Y0001505000D01*
X0000795000Y0001550024D01*
X0000805000Y0001550024D01*
X0000805000Y0001505000D01*
X0000849996Y0001505000D01*
X0000854799Y0001513741D01*
X0000848466Y0001529032D01*
X0000833666Y0001545369D01*
X0000813741Y0001554799D01*
X0000805000Y0001550024D01*
X0000795000Y0001550024D01*
X0000786258Y0001554799D01*
X0000766333Y0001545369D01*
X0000751533Y0001529032D01*
X0000745200Y0001513741D01*
X0000727370Y0001513741D01*
X0000727370Y0001661899D01*
X0000767396Y0001661899D01*
X0000770314Y0001652210D01*
X0000791465Y0001644607D01*
X0000813915Y0001645678D01*
X0000829685Y0001652210D01*
X0000832603Y0001661899D01*
X0000800000Y0001694503D01*
X0000767396Y0001661899D01*
X0000727370Y0001661899D01*
X0000727370Y0001750489D01*
X0000736076Y0001736959D01*
X0000749409Y0001727849D01*
X0000743032Y0001710109D01*
X0000744103Y0001687659D01*
X0000750635Y0001671889D01*
X0000760325Y0001668970D01*
X0000792928Y0001701574D01*
X0000792372Y0001702131D01*
X0000799443Y0001709202D01*
X0000800000Y0001708645D01*
X0000800556Y0001709202D01*
X0000807627Y0001702131D01*
X0000807071Y0001701574D01*
X0000839675Y0001668970D01*
X0000849364Y0001671889D01*
X0000856967Y0001693040D01*
X0000855896Y0001715490D01*
X0000850667Y0001728114D01*
X0000863040Y0001736076D01*
X0000873171Y0001750903D01*
X0000876735Y0001768503D01*
X0000876735Y0001831496D01*
X0000875379Y0001838700D01*
X0000890041Y0001841616D01*
X0000907031Y0001852968D01*
X0000929531Y0001875468D01*
X0000940883Y0001892458D01*
X0000941746Y0001896797D01*
X0000944870Y0001912500D01*
X0000944870Y0002030807D01*
X0000965390Y0002051328D01*
X0000965390Y0001985629D01*
G36*
X0001057627Y0001725556D02*
X0001057071Y0001725000D01*
X0001057627Y0001724443D01*
X0001050556Y0001717372D01*
X0001050000Y0001717928D01*
X0001049443Y0001717372D01*
X0001042372Y0001724443D01*
X0001042928Y0001725000D01*
X0001042372Y0001725556D01*
X0001049443Y0001732627D01*
X0001050000Y0001732071D01*
X0001050556Y0001732627D01*
X0001057627Y0001725556D01*
X0001057627Y0001725556D01*
G37*
X0001057627Y0001725556D02*
X0001057071Y0001725000D01*
X0001057627Y0001724443D01*
X0001050556Y0001717372D01*
X0001050000Y0001717928D01*
X0001049443Y0001717372D01*
X0001042372Y0001724443D01*
X0001042928Y0001725000D01*
X0001042372Y0001725556D01*
X0001049443Y0001732627D01*
X0001050000Y0001732071D01*
X0001050556Y0001732627D01*
X0001057627Y0001725556D01*
G36*
X0001057627Y0001925556D02*
X0001057071Y0001925000D01*
X0001057627Y0001924443D01*
X0001050556Y0001917372D01*
X0001050000Y0001917928D01*
X0001049443Y0001917372D01*
X0001042372Y0001924443D01*
X0001042928Y0001925000D01*
X0001042372Y0001925556D01*
X0001049443Y0001932627D01*
X0001050000Y0001932071D01*
X0001050556Y0001932627D01*
X0001057627Y0001925556D01*
X0001057627Y0001925556D01*
G37*
X0001057627Y0001925556D02*
X0001057071Y0001925000D01*
X0001057627Y0001924443D01*
X0001050556Y0001917372D01*
X0001050000Y0001917928D01*
X0001049443Y0001917372D01*
X0001042372Y0001924443D01*
X0001042928Y0001925000D01*
X0001042372Y0001925556D01*
X0001049443Y0001932627D01*
X0001050000Y0001932071D01*
X0001050556Y0001932627D01*
X0001057627Y0001925556D01*
G36*
X0000245000Y0001975000D02*
X0000245787Y0001975000D01*
X0000245787Y0001965000D01*
X0000245000Y0001965000D01*
X0000245000Y0001964212D01*
X0000235000Y0001964212D01*
X0000235000Y0001965000D01*
X0000234212Y0001965000D01*
X0000234212Y0001975000D01*
X0000235000Y0001975000D01*
X0000235000Y0001975787D01*
X0000245000Y0001975787D01*
X0000245000Y0001975000D01*
X0000245000Y0001975000D01*
G37*
X0000245000Y0001975000D02*
X0000245787Y0001975000D01*
X0000245787Y0001965000D01*
X0000245000Y0001965000D01*
X0000245000Y0001964212D01*
X0000235000Y0001964212D01*
X0000235000Y0001965000D01*
X0000234212Y0001965000D01*
X0000234212Y0001975000D01*
X0000235000Y0001975000D01*
X0000235000Y0001975787D01*
X0000245000Y0001975787D01*
X0000245000Y0001975000D01*
G36*
X0001057627Y0002125556D02*
X0001057071Y0002125000D01*
X0001057627Y0002124443D01*
X0001050556Y0002117372D01*
X0001050000Y0002117928D01*
X0001049443Y0002117372D01*
X0001042372Y0002124443D01*
X0001042928Y0002125000D01*
X0001042372Y0002125556D01*
X0001049443Y0002132627D01*
X0001050000Y0002132071D01*
X0001050556Y0002132627D01*
X0001057627Y0002125556D01*
X0001057627Y0002125556D01*
G37*
X0001057627Y0002125556D02*
X0001057071Y0002125000D01*
X0001057627Y0002124443D01*
X0001050556Y0002117372D01*
X0001050000Y0002117928D01*
X0001049443Y0002117372D01*
X0001042372Y0002124443D01*
X0001042928Y0002125000D01*
X0001042372Y0002125556D01*
X0001049443Y0002132627D01*
X0001050000Y0002132071D01*
X0001050556Y0002132627D01*
X0001057627Y0002125556D01*
G04 next file*
G04 #@! TF.FileFunction,Copper,L1,Top,Signal*
G04 Gerber Fmt 4.6, Leading zero omitted, Abs format (unit mm)*
G04 Created by KiCad (PCBNEW 4.0.7) date 11/30/19 11:05:29*
G01*
G04 APERTURE LIST*
G04 APERTURE END LIST*
D44*
D45*
X-0002327165Y-0002398425D02*
X0000347834Y0003008149D03*
X0000347834Y0003205000D03*
D46*
X0002247834Y0003451574D03*
X0002147834Y0003451574D03*
D45*
X0001847834Y0003451574D03*
D47*
X0001747834Y0003451574D03*
D48*
X0002072834Y0002501574D03*
D49*
X0001974409Y0002501574D03*
X0001875984Y0002501574D03*
X0001777559Y0002501574D03*
X0001679133Y0002501574D03*
D48*
X0001872834Y0002851574D03*
D49*
X0001872834Y0002950000D03*
D50*
X0002222834Y0003301574D03*
D51*
X0002122834Y0003301574D03*
X0002022834Y0003301574D03*
X0001922834Y0003301574D03*
X0001822834Y0003301574D03*
X0001722834Y0003301574D03*
X0001622834Y0003301574D03*
X0001522834Y0003301574D03*
X0001422834Y0003301574D03*
X0001322834Y0003301574D03*
X0001222834Y0003301574D03*
X0001122834Y0003301574D03*
X0001022834Y0003301574D03*
X0000922834Y0003301574D03*
D52*
X0002047834Y0002851574D03*
D53*
X0002146259Y0002851574D03*
D54*
X0001622834Y0003201574D03*
X0001522834Y0003201574D03*
X0001422834Y0003201574D03*
X0001322834Y0003201574D03*
X0001222834Y0003201574D03*
X0001122834Y0003201574D03*
X0001022834Y0003201574D03*
X0000922834Y0003201574D03*
X0000822834Y0003201574D03*
X0000822834Y0002901574D03*
X0000922834Y0002901574D03*
X0001022834Y0002901574D03*
X0001122834Y0002901574D03*
X0001222834Y0002901574D03*
X0001322834Y0002901574D03*
X0001422834Y0002901574D03*
X0001522834Y0002901574D03*
X0001622834Y0002901574D03*
D48*
X0001372834Y0002501574D03*
D49*
X0001274409Y0002501574D03*
X0001175984Y0002501574D03*
X0001077559Y0002501574D03*
X0000979133Y0002501574D03*
X0000621259Y0003201574D03*
D48*
X0000522834Y0003201574D03*
D55*
X0000622834Y0002901574D03*
D56*
X0000522834Y0002901574D03*
X0000422834Y0002901574D03*
D57*
X0000122834Y0002801574D03*
D58*
X0000122834Y0002901574D03*
X0000122834Y0003001574D03*
D59*
X0000490629Y0002641574D03*
D60*
X0000352834Y0002641574D03*
D59*
X0000780629Y0002641574D03*
D60*
X0000642834Y0002641574D03*
D45*
X0000597834Y0003451574D03*
D47*
X0000497834Y0003451574D03*
D61*
X0001397834Y0003451574D03*
X0001647834Y0003451574D03*
X0000947834Y0003551574D03*
X0000697834Y0003551574D03*
X0001397834Y0003551574D03*
X0001647834Y0003551574D03*
X0000947834Y0003451574D03*
X0000697834Y0003451574D03*
D49*
X0002047834Y0003176574D03*
X0001797834Y0003176574D03*
X0002047834Y0003076574D03*
X0001797834Y0003076574D03*
D62*
X0001044881Y0003412992D03*
X0001044881Y0003590157D03*
X0001300787Y0003412992D03*
X0001300787Y0003590157D03*
D50*
X0002222834Y0002701574D03*
D51*
X0002122834Y0002701574D03*
X0002022834Y0002701574D03*
X0001922834Y0002701574D03*
X0001822834Y0002701574D03*
X0001722834Y0002701574D03*
X0001622834Y0002701574D03*
X0001522834Y0002701574D03*
X0001422834Y0002701574D03*
X0001322834Y0002701574D03*
X0001222834Y0002701574D03*
X0001122834Y0002701574D03*
X0001022834Y0002701574D03*
X0000922834Y0002701574D03*
D63*
X0001625118Y0002811574D03*
X0001660551Y0002811574D03*
D45*
X0002047834Y0003451574D03*
D47*
X0001947834Y0003451574D03*
D45*
X0000397834Y0003451574D03*
D47*
X0000297834Y0003451574D03*
D46*
X0000197834Y0003451574D03*
X0000097834Y0003451574D03*
D64*
X0000892834Y0002481574D03*
D65*
X0002146259Y0002851574D02*
X0002182834Y0002851574D01*
X0002292834Y0003406574D02*
X0002247834Y0003451574D01*
X0002292834Y0002961574D02*
X0002292834Y0003406574D01*
X0002182834Y0002851574D02*
X0002292834Y0002961574D01*
D66*
X0000422834Y0002901574D02*
X0000422834Y0003081574D01*
X0000347834Y0003156574D02*
X0000347834Y0003205000D01*
X0000422834Y0003081574D02*
X0000347834Y0003156574D01*
X0000822834Y0003201574D02*
X0000621259Y0003201574D01*
D65*
X0002146259Y0002851574D02*
X0002146259Y0002785000D01*
X0002146259Y0002785000D02*
X0002122834Y0002761574D01*
X0002122834Y0002761574D02*
X0002122834Y0002701574D01*
X0001872834Y0002950000D02*
X0001774409Y0002950000D01*
X0000422834Y0002951574D02*
X0000422834Y0002901574D01*
X0000472834Y0003001574D02*
X0000422834Y0002951574D01*
X0001722834Y0003001574D02*
X0000472834Y0003001574D01*
X0001774409Y0002950000D02*
X0001722834Y0003001574D01*
D66*
X0001047834Y0003587204D02*
X0001044881Y0003590157D01*
X0001044881Y0003590157D02*
X0001300787Y0003590157D01*
X0002097834Y0002826574D02*
X0002097834Y0002801574D01*
X0002097834Y0002826574D02*
X0002097834Y0002926574D01*
X0002097834Y0002926574D02*
X0001997834Y0003026574D01*
X0001997834Y0003026574D02*
X0001997834Y0003176574D01*
X0001937834Y0003376574D02*
X0001972834Y0003341574D01*
X0001972834Y0003341574D02*
X0001972834Y0003201574D01*
X0001972834Y0003201574D02*
X0001997834Y0003176574D01*
X0001397834Y0003551574D02*
X0001572834Y0003376574D01*
X0001747834Y0003376574D02*
X0001572834Y0003376574D01*
X0001747834Y0003376574D02*
X0001937834Y0003376574D01*
X0001722834Y0002666574D02*
X0001722834Y0002701574D01*
X0001747834Y0002641574D02*
X0001722834Y0002666574D01*
X0002042834Y0002641574D02*
X0001747834Y0002641574D01*
X0002072834Y0002671574D02*
X0002042834Y0002641574D01*
X0002072834Y0002776574D02*
X0002072834Y0002671574D01*
X0002097834Y0002801574D02*
X0002072834Y0002776574D01*
X0001397834Y0003551574D02*
X0001435334Y0003551574D01*
X0001044881Y0003412992D02*
X0001300787Y0003412992D01*
D65*
X0000490629Y0002641574D02*
X0000642834Y0002641574D01*
X0000780629Y0002641574D02*
X0000780629Y0002668779D01*
X0000780629Y0002668779D02*
X0000697834Y0002751574D01*
X0000697834Y0002751574D02*
X0000222834Y0002751574D01*
X0000222834Y0002751574D02*
X0000122834Y0002801574D01*
D66*
X0000284409Y0003091574D02*
X0000347834Y0003008149D01*
X0000102834Y0003091574D02*
X0000284409Y0003091574D01*
X0000057834Y0003046574D02*
X0000102834Y0003091574D01*
X0000057834Y0002746574D02*
X0000057834Y0003046574D01*
X0000107834Y0002696574D02*
X0000057834Y0002746574D01*
X0000197834Y0002696574D02*
X0000107834Y0002696574D01*
X0000252834Y0002641574D02*
X0000197834Y0002696574D01*
X0000252834Y0002601574D02*
X0000252834Y0002641574D01*
X0000347834Y0002506574D02*
X0000252834Y0002601574D01*
X0000867834Y0002506574D02*
X0000347834Y0002506574D01*
X0000892834Y0002481574D02*
X0000867834Y0002506574D01*
X0001822834Y0003301574D02*
X0001822834Y0003306574D01*
X0001772834Y0003236574D02*
X0001807834Y0003236574D01*
X0000622834Y0002901574D02*
X0000677834Y0002956574D01*
X0000957834Y0002956574D02*
X0000677834Y0002956574D01*
X0000972834Y0002941574D02*
X0000957834Y0002956574D01*
X0000972834Y0002661574D02*
X0000972834Y0002941574D01*
X0001007834Y0002626574D02*
X0000972834Y0002661574D01*
X0001232834Y0002626574D02*
X0001007834Y0002626574D01*
X0001272834Y0002666574D02*
X0001232834Y0002626574D01*
X0001272834Y0002741574D02*
X0001272834Y0002666574D01*
X0001292834Y0002761574D02*
X0001272834Y0002741574D01*
X0001927834Y0002761574D02*
X0001292834Y0002761574D01*
X0001987834Y0002821574D02*
X0001927834Y0002761574D01*
X0001987834Y0002981574D02*
X0001987834Y0002821574D01*
X0001957834Y0003011574D02*
X0001987834Y0002981574D01*
X0001772834Y0003236574D02*
X0001722834Y0003286574D01*
X0001957834Y0003086574D02*
X0001957834Y0003011574D01*
X0001807834Y0003236574D02*
X0001957834Y0003086574D01*
X0001722834Y0003301574D02*
X0001722834Y0003286574D01*
X0001397834Y0003451574D02*
X0001382834Y0003451574D01*
X0001382834Y0003451574D02*
X0001332834Y0003501574D01*
X0001332834Y0003501574D02*
X0000997834Y0003501574D01*
X0000997834Y0003501574D02*
X0000947834Y0003451574D01*
X0001722834Y0002811574D02*
X0001727834Y0002811574D01*
X0001797834Y0003166574D02*
X0001922834Y0003031574D01*
X0001722834Y0002811574D02*
X0001660551Y0002811574D01*
X0001922834Y0002921574D02*
X0001922834Y0003031574D01*
X0001902834Y0002901574D02*
X0001922834Y0002921574D01*
X0001817834Y0002901574D02*
X0001902834Y0002901574D01*
X0001727834Y0002811574D02*
X0001817834Y0002901574D01*
X0001797834Y0003176574D02*
X0001747834Y0003176574D01*
X0001747834Y0003176574D02*
X0001622834Y0003301574D01*
X0001797834Y0003176574D02*
X0001782834Y0003176574D01*
X0001797834Y0003176574D02*
X0001797834Y0003166574D01*
X0000345334Y0003294074D02*
X0000410334Y0003294074D01*
X0000270334Y0003294074D02*
X0000345334Y0003294074D01*
X0000432834Y0003141574D02*
X0000497834Y0003076574D01*
X0000432834Y0003271574D02*
X0000432834Y0003141574D01*
X0000410334Y0003294074D02*
X0000432834Y0003271574D01*
X0001797834Y0003076574D02*
X0001632834Y0003076574D01*
X0001572834Y0003251574D02*
X0001522834Y0003301574D01*
X0001572834Y0003136574D02*
X0001572834Y0003251574D01*
X0001632834Y0003076574D02*
X0001572834Y0003136574D01*
X0000497834Y0003076574D02*
X0001797834Y0003076574D01*
X0000097834Y0003451574D02*
X0000097834Y0003416574D01*
X0000097834Y0003416574D02*
X0000142834Y0003371574D01*
X0001797834Y0003076574D02*
X0001772834Y0003076574D01*
X0000097834Y0003426574D02*
X0000097834Y0003451574D01*
X0000142834Y0003371574D02*
X0000192834Y0003371574D01*
X0000192834Y0003371574D02*
X0000270334Y0003294074D01*
X0000270334Y0003294074D02*
X0000272834Y0003291574D01*
D65*
X0001679133Y0002501574D02*
X0001679133Y0002532874D01*
X0001679133Y0002532874D02*
X0001747834Y0002601574D01*
X0002222834Y0002651574D02*
X0002222834Y0002701574D01*
X0002172834Y0002601574D02*
X0002222834Y0002651574D01*
X0001747834Y0002601574D02*
X0002172834Y0002601574D01*
X0001679133Y0002501574D02*
X0001679133Y0002507874D01*
X0001522834Y0002576574D02*
X0001604133Y0002576574D01*
X0001522834Y0002576574D02*
X0001054133Y0002576574D01*
X0000979133Y0002501574D02*
X0001054133Y0002576574D01*
X0001604133Y0002576574D02*
X0001679133Y0002501574D01*
X0000979133Y0002501574D02*
X0000972834Y0002501574D01*
X0000972834Y0002501574D02*
X0000897834Y0002576574D01*
X0000847834Y0002876574D02*
X0000822834Y0002901574D01*
X0000847834Y0002676574D02*
X0000847834Y0002876574D01*
X0000897834Y0002626574D02*
X0000847834Y0002676574D01*
X0000897834Y0002576574D02*
X0000897834Y0002626574D01*
X0000522834Y0002901574D02*
X0000522834Y0002851574D01*
X0000522834Y0002851574D02*
X0000572834Y0002801574D01*
X0000122834Y0002901574D02*
X0000147834Y0002901574D01*
X0000147834Y0002901574D02*
X0000297834Y0002801574D01*
X0000297834Y0002801574D02*
X0000572834Y0002801574D01*
X0000572834Y0002801574D02*
X0000722834Y0002801574D01*
X0000722834Y0002801574D02*
X0000822834Y0002901574D01*
D66*
X0002047834Y0003176574D02*
X0002047834Y0003076574D01*
X0001625118Y0002811574D02*
X0001292834Y0002811574D01*
X0001222834Y0002741574D02*
X0001222834Y0002701574D01*
X0001292834Y0002811574D02*
X0001222834Y0002741574D01*
D67*
G36*
X0002247277Y0003459202D02*
X0002247834Y0003458645D01*
X0002248391Y0003459202D01*
X0002255462Y0003452131D01*
X0002254905Y0003451574D01*
X0002255462Y0003451018D01*
X0002248391Y0003443947D01*
X0002247834Y0003444503D01*
X0002247277Y0003443947D01*
X0002240206Y0003451018D01*
X0002240763Y0003451574D01*
X0002240206Y0003452131D01*
X0002247277Y0003459202D01*
X0002247277Y0003459202D01*
G37*
X0002247277Y0003459202D02*
X0002247834Y0003458645D01*
X0002248391Y0003459202D01*
X0002255462Y0003452131D01*
X0002254905Y0003451574D01*
X0002255462Y0003451018D01*
X0002248391Y0003443947D01*
X0002247834Y0003444503D01*
X0002247277Y0003443947D01*
X0002240206Y0003451018D01*
X0002240763Y0003451574D01*
X0002240206Y0003452131D01*
X0002247277Y0003459202D01*
G36*
X0002047277Y0003459202D02*
X0002047834Y0003458645D01*
X0002048391Y0003459202D01*
X0002055462Y0003452131D01*
X0002054905Y0003451574D01*
X0002055462Y0003451018D01*
X0002048391Y0003443947D01*
X0002047834Y0003444503D01*
X0002047277Y0003443947D01*
X0002040206Y0003451018D01*
X0002040763Y0003451574D01*
X0002040206Y0003452131D01*
X0002047277Y0003459202D01*
X0002047277Y0003459202D01*
G37*
X0002047277Y0003459202D02*
X0002047834Y0003458645D01*
X0002048391Y0003459202D01*
X0002055462Y0003452131D01*
X0002054905Y0003451574D01*
X0002055462Y0003451018D01*
X0002048391Y0003443947D01*
X0002047834Y0003444503D01*
X0002047277Y0003443947D01*
X0002040206Y0003451018D01*
X0002040763Y0003451574D01*
X0002040206Y0003452131D01*
X0002047277Y0003459202D01*
G36*
X0000183727Y0002960810D02*
X0000194692Y0002987216D01*
X0000194717Y0003015807D01*
X0000185049Y0003039204D01*
X0000258437Y0003039204D01*
X0000265952Y0003029320D01*
X0000264109Y0003024879D01*
X0000264079Y0002991565D01*
X0000276801Y0002960776D01*
X0000300337Y0002937199D01*
X0000331104Y0002924424D01*
X0000364418Y0002924395D01*
X0000367858Y0002925816D01*
X0000364362Y0002915823D01*
X0000370042Y0002906574D01*
X0000417834Y0002906574D01*
X0000417834Y0002959704D01*
X0000418784Y0002960652D01*
X0000431560Y0002991419D01*
X0000431589Y0003024733D01*
X0000418867Y0003055522D01*
X0000395331Y0003079099D01*
X0000364564Y0003091875D01*
X0000349957Y0003091887D01*
X0000326099Y0003123270D01*
X0000323424Y0003125636D01*
X0000321440Y0003128606D01*
X0000315840Y0003132347D01*
X0000310796Y0003136811D01*
X0000307419Y0003137974D01*
X0000304450Y0003139958D01*
X0000297844Y0003141272D01*
X0000291476Y0003143465D01*
X0000287912Y0003143248D01*
X0000284409Y0003143944D01*
X0000196071Y0003143944D01*
X0000234127Y0003159669D01*
X0000264632Y0003190121D01*
X0000281162Y0003229928D01*
X0000281171Y0003240863D01*
X0000285402Y0003241704D01*
X0000298133Y0003241704D01*
X0000291953Y0003239419D01*
X0000283035Y0003215414D01*
X0000283982Y0003189824D01*
X0000291953Y0003170580D01*
X0000302459Y0003166695D01*
X0000340763Y0003205000D01*
X0000340206Y0003205556D01*
X0000347277Y0003212627D01*
X0000347834Y0003212071D01*
X0000348391Y0003212627D01*
X0000355462Y0003205556D01*
X0000354905Y0003205000D01*
X0000355462Y0003204443D01*
X0000348391Y0003197372D01*
X0000347834Y0003197928D01*
X0000309530Y0003159624D01*
X0000313414Y0003149118D01*
X0000337419Y0003140200D01*
X0000363010Y0003141147D01*
X0000380464Y0003148377D01*
X0000380464Y0003141574D01*
X0000384450Y0003121533D01*
X0000395803Y0003104543D01*
X0000460803Y0003039543D01*
X0000477793Y0003028191D01*
X0000497834Y0003024204D01*
X0001742915Y0003024204D01*
X0001754803Y0003012296D01*
X0001782677Y0003000721D01*
X0001812859Y0003000695D01*
X0001840753Y0003012221D01*
X0001855630Y0003027072D01*
X0001870464Y0003011052D01*
X0001870464Y0003006447D01*
X0001858919Y0003005896D01*
X0001843149Y0002999364D01*
X0001840230Y0002989675D01*
X0001870464Y0002959441D01*
X0001870464Y0002953944D01*
X0001861818Y0002953944D01*
X0001833159Y0002982603D01*
X0001823469Y0002979685D01*
X0001815867Y0002958534D01*
X0001816102Y0002953600D01*
X0001797793Y0002949958D01*
X0001794744Y0002947921D01*
X0001780803Y0002938606D01*
X0001706142Y0002863944D01*
X0001688174Y0002863944D01*
X0001692925Y0002871055D01*
X0001698700Y0002900088D01*
X0001698700Y0002903061D01*
X0001692925Y0002932093D01*
X0001676480Y0002956706D01*
X0001651867Y0002973152D01*
X0001622834Y0002978927D01*
X0001593801Y0002973152D01*
X0001572834Y0002959142D01*
X0001551867Y0002973152D01*
X0001522834Y0002978927D01*
X0001493801Y0002973152D01*
X0001472834Y0002959142D01*
X0001451867Y0002973152D01*
X0001422834Y0002978927D01*
X0001393801Y0002973152D01*
X0001372834Y0002959142D01*
X0001351867Y0002973152D01*
X0001322834Y0002978927D01*
X0001293801Y0002973152D01*
X0001272834Y0002959142D01*
X0001251867Y0002973152D01*
X0001222834Y0002978927D01*
X0001193801Y0002973152D01*
X0001172834Y0002959142D01*
X0001151867Y0002973152D01*
X0001122834Y0002978927D01*
X0001093801Y0002973152D01*
X0001072834Y0002959142D01*
X0001051867Y0002973152D01*
X0001022834Y0002978927D01*
X0001011197Y0002976612D01*
X0001009865Y0002978606D01*
X0000994865Y0002993606D01*
X0000977875Y0003004958D01*
X0000969189Y0003006686D01*
X0000957834Y0003008944D01*
X0000677834Y0003008944D01*
X0000657793Y0003004958D01*
X0000656834Y0003004317D01*
X0000640803Y0002993606D01*
X0000634011Y0002986814D01*
X0000588834Y0002986814D01*
X0000572392Y0002983720D01*
X0000560832Y0002976282D01*
X0000552825Y0002981632D01*
X0000522834Y0002987597D01*
X0000492843Y0002981632D01*
X0000467418Y0002964643D01*
X0000459756Y0002953176D01*
X0000458347Y0002954753D01*
X0000437590Y0002964752D01*
X0000436969Y0002964856D01*
X0000427834Y0002960087D01*
X0000427834Y0002906574D01*
X0000428622Y0002906574D01*
X0000428622Y0002896574D01*
X0000427834Y0002896574D01*
X0000427834Y0002895787D01*
X0000417834Y0002895787D01*
X0000417834Y0002896574D01*
X0000370042Y0002896574D01*
X0000364362Y0002887326D01*
X0000371970Y0002865577D01*
X0000378790Y0002857944D01*
X0000314902Y0002857944D01*
X0000179103Y0002948477D01*
X0000176485Y0002949558D01*
X0000174474Y0002951573D01*
X0000183727Y0002960810D01*
X0000183727Y0002960810D01*
G37*
X0000183727Y0002960810D02*
X0000194692Y0002987216D01*
X0000194717Y0003015807D01*
X0000185049Y0003039204D01*
X0000258437Y0003039204D01*
X0000265952Y0003029320D01*
X0000264109Y0003024879D01*
X0000264079Y0002991565D01*
X0000276801Y0002960776D01*
X0000300337Y0002937199D01*
X0000331104Y0002924424D01*
X0000364418Y0002924395D01*
X0000367858Y0002925816D01*
X0000364362Y0002915823D01*
X0000370042Y0002906574D01*
X0000417834Y0002906574D01*
X0000417834Y0002959704D01*
X0000418784Y0002960652D01*
X0000431560Y0002991419D01*
X0000431589Y0003024733D01*
X0000418867Y0003055522D01*
X0000395331Y0003079099D01*
X0000364564Y0003091875D01*
X0000349957Y0003091887D01*
X0000326099Y0003123270D01*
X0000323424Y0003125636D01*
X0000321440Y0003128606D01*
X0000315840Y0003132347D01*
X0000310796Y0003136811D01*
X0000307419Y0003137974D01*
X0000304450Y0003139958D01*
X0000297844Y0003141272D01*
X0000291476Y0003143465D01*
X0000287912Y0003143248D01*
X0000284409Y0003143944D01*
X0000196071Y0003143944D01*
X0000234127Y0003159669D01*
X0000264632Y0003190121D01*
X0000281162Y0003229928D01*
X0000281171Y0003240863D01*
X0000285402Y0003241704D01*
X0000298133Y0003241704D01*
X0000291953Y0003239419D01*
X0000283035Y0003215414D01*
X0000283982Y0003189824D01*
X0000291953Y0003170580D01*
X0000302459Y0003166695D01*
X0000340763Y0003205000D01*
X0000340206Y0003205556D01*
X0000347277Y0003212627D01*
X0000347834Y0003212071D01*
X0000348391Y0003212627D01*
X0000355462Y0003205556D01*
X0000354905Y0003205000D01*
X0000355462Y0003204443D01*
X0000348391Y0003197372D01*
X0000347834Y0003197928D01*
X0000309530Y0003159624D01*
X0000313414Y0003149118D01*
X0000337419Y0003140200D01*
X0000363010Y0003141147D01*
X0000380464Y0003148377D01*
X0000380464Y0003141574D01*
X0000384450Y0003121533D01*
X0000395803Y0003104543D01*
X0000460803Y0003039543D01*
X0000477793Y0003028191D01*
X0000497834Y0003024204D01*
X0001742915Y0003024204D01*
X0001754803Y0003012296D01*
X0001782677Y0003000721D01*
X0001812859Y0003000695D01*
X0001840753Y0003012221D01*
X0001855630Y0003027072D01*
X0001870464Y0003011052D01*
X0001870464Y0003006447D01*
X0001858919Y0003005896D01*
X0001843149Y0002999364D01*
X0001840230Y0002989675D01*
X0001870464Y0002959441D01*
X0001870464Y0002953944D01*
X0001861818Y0002953944D01*
X0001833159Y0002982603D01*
X0001823469Y0002979685D01*
X0001815867Y0002958534D01*
X0001816102Y0002953600D01*
X0001797793Y0002949958D01*
X0001794744Y0002947921D01*
X0001780803Y0002938606D01*
X0001706142Y0002863944D01*
X0001688174Y0002863944D01*
X0001692925Y0002871055D01*
X0001698700Y0002900088D01*
X0001698700Y0002903061D01*
X0001692925Y0002932093D01*
X0001676480Y0002956706D01*
X0001651867Y0002973152D01*
X0001622834Y0002978927D01*
X0001593801Y0002973152D01*
X0001572834Y0002959142D01*
X0001551867Y0002973152D01*
X0001522834Y0002978927D01*
X0001493801Y0002973152D01*
X0001472834Y0002959142D01*
X0001451867Y0002973152D01*
X0001422834Y0002978927D01*
X0001393801Y0002973152D01*
X0001372834Y0002959142D01*
X0001351867Y0002973152D01*
X0001322834Y0002978927D01*
X0001293801Y0002973152D01*
X0001272834Y0002959142D01*
X0001251867Y0002973152D01*
X0001222834Y0002978927D01*
X0001193801Y0002973152D01*
X0001172834Y0002959142D01*
X0001151867Y0002973152D01*
X0001122834Y0002978927D01*
X0001093801Y0002973152D01*
X0001072834Y0002959142D01*
X0001051867Y0002973152D01*
X0001022834Y0002978927D01*
X0001011197Y0002976612D01*
X0001009865Y0002978606D01*
X0000994865Y0002993606D01*
X0000977875Y0003004958D01*
X0000969189Y0003006686D01*
X0000957834Y0003008944D01*
X0000677834Y0003008944D01*
X0000657793Y0003004958D01*
X0000656834Y0003004317D01*
X0000640803Y0002993606D01*
X0000634011Y0002986814D01*
X0000588834Y0002986814D01*
X0000572392Y0002983720D01*
X0000560832Y0002976282D01*
X0000552825Y0002981632D01*
X0000522834Y0002987597D01*
X0000492843Y0002981632D01*
X0000467418Y0002964643D01*
X0000459756Y0002953176D01*
X0000458347Y0002954753D01*
X0000437590Y0002964752D01*
X0000436969Y0002964856D01*
X0000427834Y0002960087D01*
X0000427834Y0002906574D01*
X0000428622Y0002906574D01*
X0000428622Y0002896574D01*
X0000427834Y0002896574D01*
X0000427834Y0002895787D01*
X0000417834Y0002895787D01*
X0000417834Y0002896574D01*
X0000370042Y0002896574D01*
X0000364362Y0002887326D01*
X0000371970Y0002865577D01*
X0000378790Y0002857944D01*
X0000314902Y0002857944D01*
X0000179103Y0002948477D01*
X0000176485Y0002949558D01*
X0000174474Y0002951573D01*
X0000183727Y0002960810D01*
G36*
X0001847277Y0003459202D02*
X0001847834Y0003458645D01*
X0001848391Y0003459202D01*
X0001855462Y0003452131D01*
X0001854905Y0003451574D01*
X0001855462Y0003451018D01*
X0001848391Y0003443947D01*
X0001847834Y0003444503D01*
X0001847277Y0003443947D01*
X0001840206Y0003451018D01*
X0001840763Y0003451574D01*
X0001840206Y0003452131D01*
X0001847277Y0003459202D01*
X0001847277Y0003459202D01*
G37*
X0001847277Y0003459202D02*
X0001847834Y0003458645D01*
X0001848391Y0003459202D01*
X0001855462Y0003452131D01*
X0001854905Y0003451574D01*
X0001855462Y0003451018D01*
X0001848391Y0003443947D01*
X0001847834Y0003444503D01*
X0001847277Y0003443947D01*
X0001840206Y0003451018D01*
X0001840763Y0003451574D01*
X0001840206Y0003452131D01*
X0001847277Y0003459202D01*
G36*
X0001300230Y0003597785D02*
X0001300787Y0003597228D01*
X0001301344Y0003597785D01*
X0001308415Y0003590714D01*
X0001307858Y0003590157D01*
X0001308415Y0003589600D01*
X0001301344Y0003582529D01*
X0001300787Y0003583086D01*
X0001300230Y0003582529D01*
X0001293159Y0003589600D01*
X0001293716Y0003590157D01*
X0001293159Y0003590714D01*
X0001300230Y0003597785D01*
X0001300230Y0003597785D01*
G37*
X0001300230Y0003597785D02*
X0001300787Y0003597228D01*
X0001301344Y0003597785D01*
X0001308415Y0003590714D01*
X0001307858Y0003590157D01*
X0001308415Y0003589600D01*
X0001301344Y0003582529D01*
X0001300787Y0003583086D01*
X0001300230Y0003582529D01*
X0001293159Y0003589600D01*
X0001293716Y0003590157D01*
X0001293159Y0003590714D01*
X0001300230Y0003597785D01*
G36*
X0001044325Y0003597785D02*
X0001044881Y0003597228D01*
X0001045438Y0003597785D01*
X0001052509Y0003590714D01*
X0001051952Y0003590157D01*
X0001052509Y0003589600D01*
X0001045438Y0003582529D01*
X0001044881Y0003583086D01*
X0001044325Y0003582529D01*
X0001037254Y0003589600D01*
X0001037810Y0003590157D01*
X0001037254Y0003590714D01*
X0001044325Y0003597785D01*
X0001044325Y0003597785D01*
G37*
X0001044325Y0003597785D02*
X0001044881Y0003597228D01*
X0001045438Y0003597785D01*
X0001052509Y0003590714D01*
X0001051952Y0003590157D01*
X0001052509Y0003589600D01*
X0001045438Y0003582529D01*
X0001044881Y0003583086D01*
X0001044325Y0003582529D01*
X0001037254Y0003589600D01*
X0001037810Y0003590157D01*
X0001037254Y0003590714D01*
X0001044325Y0003597785D01*
G36*
X0000337204Y0003366965D02*
X0000353647Y0003370059D01*
X0000368748Y0003379776D01*
X0000376342Y0003390890D01*
X0000387419Y0003386775D01*
X0000413010Y0003387722D01*
X0000419707Y0003390496D01*
X0000426036Y0003380660D01*
X0000440863Y0003370529D01*
X0000458464Y0003366965D01*
X0000537204Y0003366965D01*
X0000553647Y0003370059D01*
X0000568748Y0003379776D01*
X0000576342Y0003390890D01*
X0000587419Y0003386775D01*
X0000613010Y0003387722D01*
X0000632254Y0003395693D01*
X0000633083Y0003397937D01*
X0000650349Y0003380641D01*
X0000681108Y0003367869D01*
X0000714414Y0003367840D01*
X0000745196Y0003380559D01*
X0000768767Y0003404089D01*
X0000781540Y0003434848D01*
X0000781569Y0003468154D01*
X0000768850Y0003498936D01*
X0000766232Y0003501558D01*
X0000768767Y0003504089D01*
X0000781540Y0003534848D01*
X0000781569Y0003568154D01*
X0000768850Y0003598936D01*
X0000765587Y0003602204D01*
X0000880051Y0003602204D01*
X0000876901Y0003599060D01*
X0000864129Y0003568300D01*
X0000864100Y0003534994D01*
X0000876818Y0003504213D01*
X0000879436Y0003501590D01*
X0000876901Y0003499060D01*
X0000864129Y0003468300D01*
X0000864100Y0003434994D01*
X0000876818Y0003404213D01*
X0000900349Y0003380641D01*
X0000907155Y0003377815D01*
X0000893048Y0003375009D01*
X0000867797Y0003358137D01*
X0000850924Y0003332885D01*
X0000844999Y0003303099D01*
X0000844999Y0003300049D01*
X0000850924Y0003270263D01*
X0000864586Y0003249817D01*
X0000859883Y0003242779D01*
X0000851867Y0003250041D01*
X0000836576Y0003256374D01*
X0000827834Y0003251571D01*
X0000827834Y0003206574D01*
X0000828622Y0003206574D01*
X0000828622Y0003196574D01*
X0000827834Y0003196574D01*
X0000827834Y0003151578D01*
X0000836576Y0003146775D01*
X0000851867Y0003153108D01*
X0000859883Y0003160370D01*
X0000869189Y0003146443D01*
X0000893801Y0003129997D01*
X0000899092Y0003128944D01*
X0000809092Y0003128944D01*
X0000809092Y0003146775D01*
X0000817834Y0003151578D01*
X0000817834Y0003196574D01*
X0000772809Y0003196574D01*
X0000772809Y0003206574D01*
X0000817834Y0003206574D01*
X0000817834Y0003251571D01*
X0000809092Y0003256374D01*
X0000793802Y0003250041D01*
X0000777464Y0003235241D01*
X0000768034Y0003215316D01*
X0000772809Y0003206574D01*
X0000772809Y0003196574D01*
X0000768034Y0003187833D01*
X0000777464Y0003167908D01*
X0000793802Y0003153108D01*
X0000809092Y0003146775D01*
X0000809092Y0003128944D01*
X0000660934Y0003128944D01*
X0000660934Y0003168970D01*
X0000670624Y0003171889D01*
X0000678226Y0003193040D01*
X0000677156Y0003215490D01*
X0000670624Y0003231260D01*
X0000660934Y0003234178D01*
X0000628330Y0003201574D01*
X0000660934Y0003168970D01*
X0000660934Y0003128944D01*
X0000572345Y0003128944D01*
X0000585874Y0003137650D01*
X0000594985Y0003150984D01*
X0000612725Y0003144607D01*
X0000635175Y0003145678D01*
X0000650945Y0003152210D01*
X0000653863Y0003161899D01*
X0000621259Y0003194503D01*
X0000620703Y0003193946D01*
X0000613631Y0003201018D01*
X0000614188Y0003201574D01*
X0000613631Y0003202131D01*
X0000620703Y0003209202D01*
X0000621259Y0003208645D01*
X0000653863Y0003241249D01*
X0000650945Y0003250939D01*
X0000629794Y0003258541D01*
X0000607344Y0003257471D01*
X0000594720Y0003252242D01*
X0000586758Y0003264614D01*
X0000571931Y0003274746D01*
X0000554330Y0003278310D01*
X0000491338Y0003278310D01*
X0000484134Y0003276954D01*
X0000481218Y0003291616D01*
X0000469865Y0003308606D01*
X0000447365Y0003331106D01*
X0000430375Y0003342458D01*
X0000426036Y0003343321D01*
X0000410334Y0003346444D01*
X0000292026Y0003346444D01*
X0000271506Y0003366965D01*
X0000337204Y0003366965D01*
X0000337204Y0003366965D01*
G37*
X0000337204Y0003366965D02*
X0000353647Y0003370059D01*
X0000368748Y0003379776D01*
X0000376342Y0003390890D01*
X0000387419Y0003386775D01*
X0000413010Y0003387722D01*
X0000419707Y0003390496D01*
X0000426036Y0003380660D01*
X0000440863Y0003370529D01*
X0000458464Y0003366965D01*
X0000537204Y0003366965D01*
X0000553647Y0003370059D01*
X0000568748Y0003379776D01*
X0000576342Y0003390890D01*
X0000587419Y0003386775D01*
X0000613010Y0003387722D01*
X0000632254Y0003395693D01*
X0000633083Y0003397937D01*
X0000650349Y0003380641D01*
X0000681108Y0003367869D01*
X0000714414Y0003367840D01*
X0000745196Y0003380559D01*
X0000768767Y0003404089D01*
X0000781540Y0003434848D01*
X0000781569Y0003468154D01*
X0000768850Y0003498936D01*
X0000766232Y0003501558D01*
X0000768767Y0003504089D01*
X0000781540Y0003534848D01*
X0000781569Y0003568154D01*
X0000768850Y0003598936D01*
X0000765587Y0003602204D01*
X0000880051Y0003602204D01*
X0000876901Y0003599060D01*
X0000864129Y0003568300D01*
X0000864100Y0003534994D01*
X0000876818Y0003504213D01*
X0000879436Y0003501590D01*
X0000876901Y0003499060D01*
X0000864129Y0003468300D01*
X0000864100Y0003434994D01*
X0000876818Y0003404213D01*
X0000900349Y0003380641D01*
X0000907155Y0003377815D01*
X0000893048Y0003375009D01*
X0000867797Y0003358137D01*
X0000850924Y0003332885D01*
X0000844999Y0003303099D01*
X0000844999Y0003300049D01*
X0000850924Y0003270263D01*
X0000864586Y0003249817D01*
X0000859883Y0003242779D01*
X0000851867Y0003250041D01*
X0000836576Y0003256374D01*
X0000827834Y0003251571D01*
X0000827834Y0003206574D01*
X0000828622Y0003206574D01*
X0000828622Y0003196574D01*
X0000827834Y0003196574D01*
X0000827834Y0003151578D01*
X0000836576Y0003146775D01*
X0000851867Y0003153108D01*
X0000859883Y0003160370D01*
X0000869189Y0003146443D01*
X0000893801Y0003129997D01*
X0000899092Y0003128944D01*
X0000809092Y0003128944D01*
X0000809092Y0003146775D01*
X0000817834Y0003151578D01*
X0000817834Y0003196574D01*
X0000772809Y0003196574D01*
X0000772809Y0003206574D01*
X0000817834Y0003206574D01*
X0000817834Y0003251571D01*
X0000809092Y0003256374D01*
X0000793802Y0003250041D01*
X0000777464Y0003235241D01*
X0000768034Y0003215316D01*
X0000772809Y0003206574D01*
X0000772809Y0003196574D01*
X0000768034Y0003187833D01*
X0000777464Y0003167908D01*
X0000793802Y0003153108D01*
X0000809092Y0003146775D01*
X0000809092Y0003128944D01*
X0000660934Y0003128944D01*
X0000660934Y0003168970D01*
X0000670624Y0003171889D01*
X0000678226Y0003193040D01*
X0000677156Y0003215490D01*
X0000670624Y0003231260D01*
X0000660934Y0003234178D01*
X0000628330Y0003201574D01*
X0000660934Y0003168970D01*
X0000660934Y0003128944D01*
X0000572345Y0003128944D01*
X0000585874Y0003137650D01*
X0000594985Y0003150984D01*
X0000612725Y0003144607D01*
X0000635175Y0003145678D01*
X0000650945Y0003152210D01*
X0000653863Y0003161899D01*
X0000621259Y0003194503D01*
X0000620703Y0003193946D01*
X0000613631Y0003201018D01*
X0000614188Y0003201574D01*
X0000613631Y0003202131D01*
X0000620703Y0003209202D01*
X0000621259Y0003208645D01*
X0000653863Y0003241249D01*
X0000650945Y0003250939D01*
X0000629794Y0003258541D01*
X0000607344Y0003257471D01*
X0000594720Y0003252242D01*
X0000586758Y0003264614D01*
X0000571931Y0003274746D01*
X0000554330Y0003278310D01*
X0000491338Y0003278310D01*
X0000484134Y0003276954D01*
X0000481218Y0003291616D01*
X0000469865Y0003308606D01*
X0000447365Y0003331106D01*
X0000430375Y0003342458D01*
X0000426036Y0003343321D01*
X0000410334Y0003346444D01*
X0000292026Y0003346444D01*
X0000271506Y0003366965D01*
X0000337204Y0003366965D01*
G36*
X0000597277Y0003459202D02*
X0000597834Y0003458645D01*
X0000598391Y0003459202D01*
X0000605462Y0003452131D01*
X0000604905Y0003451574D01*
X0000605462Y0003451018D01*
X0000598391Y0003443947D01*
X0000597834Y0003444503D01*
X0000597277Y0003443947D01*
X0000590206Y0003451018D01*
X0000590763Y0003451574D01*
X0000590206Y0003452131D01*
X0000597277Y0003459202D01*
X0000597277Y0003459202D01*
G37*
X0000597277Y0003459202D02*
X0000597834Y0003458645D01*
X0000598391Y0003459202D01*
X0000605462Y0003452131D01*
X0000604905Y0003451574D01*
X0000605462Y0003451018D01*
X0000598391Y0003443947D01*
X0000597834Y0003444503D01*
X0000597277Y0003443947D01*
X0000590206Y0003451018D01*
X0000590763Y0003451574D01*
X0000590206Y0003452131D01*
X0000597277Y0003459202D01*
G36*
X0000397277Y0003459202D02*
X0000397834Y0003458645D01*
X0000398391Y0003459202D01*
X0000405462Y0003452131D01*
X0000404905Y0003451574D01*
X0000405462Y0003451018D01*
X0000398391Y0003443947D01*
X0000397834Y0003444503D01*
X0000397277Y0003443947D01*
X0000390206Y0003451018D01*
X0000390763Y0003451574D01*
X0000390206Y0003452131D01*
X0000397277Y0003459202D01*
X0000397277Y0003459202D01*
G37*
X0000397277Y0003459202D02*
X0000397834Y0003458645D01*
X0000398391Y0003459202D01*
X0000405462Y0003452131D01*
X0000404905Y0003451574D01*
X0000405462Y0003451018D01*
X0000398391Y0003443947D01*
X0000397834Y0003444503D01*
X0000397277Y0003443947D01*
X0000390206Y0003451018D01*
X0000390763Y0003451574D01*
X0000390206Y0003452131D01*
X0000397277Y0003459202D01*
G36*
X0000347834Y0002646574D02*
X0000347834Y0002647362D01*
X0000357834Y0002647362D01*
X0000357834Y0002646574D01*
X0000358622Y0002646574D01*
X0000358622Y0002636574D01*
X0000357834Y0002636574D01*
X0000357834Y0002635787D01*
X0000347834Y0002635787D01*
X0000347834Y0002636574D01*
X0000347047Y0002636574D01*
X0000347047Y0002646574D01*
X0000347834Y0002646574D01*
X0000347834Y0002646574D01*
G37*
X0000347834Y0002646574D02*
X0000347834Y0002647362D01*
X0000357834Y0002647362D01*
X0000357834Y0002646574D01*
X0000358622Y0002646574D01*
X0000358622Y0002636574D01*
X0000357834Y0002636574D01*
X0000357834Y0002635787D01*
X0000347834Y0002635787D01*
X0000347834Y0002636574D01*
X0000347047Y0002636574D01*
X0000347047Y0002646574D01*
X0000347834Y0002646574D01*
G36*
X0000197277Y0003459202D02*
X0000197834Y0003458645D01*
X0000198391Y0003459202D01*
X0000205462Y0003452131D01*
X0000204905Y0003451574D01*
X0000205462Y0003451018D01*
X0000198391Y0003443947D01*
X0000197834Y0003444503D01*
X0000197277Y0003443947D01*
X0000190206Y0003451018D01*
X0000190763Y0003451574D01*
X0000190206Y0003452131D01*
X0000197277Y0003459202D01*
X0000197277Y0003459202D01*
G37*
X0000197277Y0003459202D02*
X0000197834Y0003458645D01*
X0000198391Y0003459202D01*
X0000205462Y0003452131D01*
X0000204905Y0003451574D01*
X0000205462Y0003451018D01*
X0000198391Y0003443947D01*
X0000197834Y0003444503D01*
X0000197277Y0003443947D01*
X0000190206Y0003451018D01*
X0000190763Y0003451574D01*
X0000190206Y0003452131D01*
X0000197277Y0003459202D01*
G04 next file*
G04 #@! TF.FileFunction,Copper,L1,Top,Signal*
G04 Gerber Fmt 4.6, Leading zero omitted, Abs format (unit mm)*
G04 Created by KiCad (PCBNEW 4.0.7) date 11/30/19 11:05:29*
G01*
G04 APERTURE LIST*
G04 APERTURE END LIST*
D68*
D69*
X-0003461417Y0004650000D02*
X0001945157Y0001975000D03*
X0002142007Y0001975000D03*
D70*
X0002388582Y0000075000D03*
X0002388582Y0000175000D03*
D69*
X0002388582Y0000475000D03*
D71*
X0002388582Y0000575000D03*
D72*
X0001438582Y0000250000D03*
D73*
X0001438582Y0000348425D03*
X0001438582Y0000446850D03*
X0001438582Y0000545275D03*
X0001438582Y0000643700D03*
D72*
X0001788582Y0000450000D03*
D73*
X0001887007Y0000450000D03*
D74*
X0002238582Y0000100000D03*
D75*
X0002238582Y0000200000D03*
X0002238582Y0000300000D03*
X0002238582Y0000400000D03*
X0002238582Y0000500000D03*
X0002238582Y0000600000D03*
X0002238582Y0000700000D03*
X0002238582Y0000800000D03*
X0002238582Y0000900000D03*
X0002238582Y0001000000D03*
X0002238582Y0001100000D03*
X0002238582Y0001200000D03*
X0002238582Y0001300000D03*
X0002238582Y0001400000D03*
D76*
X0001788582Y0000275000D03*
D77*
X0001788582Y0000176574D03*
D78*
X0002138582Y0000700000D03*
X0002138582Y0000800000D03*
X0002138582Y0000900000D03*
X0002138582Y0001000000D03*
X0002138582Y0001100000D03*
X0002138582Y0001200000D03*
X0002138582Y0001300000D03*
X0002138582Y0001400000D03*
X0002138582Y0001500000D03*
X0001838582Y0001500000D03*
X0001838582Y0001400000D03*
X0001838582Y0001300000D03*
X0001838582Y0001200000D03*
X0001838582Y0001100000D03*
X0001838582Y0001000000D03*
X0001838582Y0000900000D03*
X0001838582Y0000800000D03*
X0001838582Y0000700000D03*
D72*
X0001438582Y0000950000D03*
D73*
X0001438582Y0001048425D03*
X0001438582Y0001146850D03*
X0001438582Y0001245275D03*
X0001438582Y0001343700D03*
X0002138582Y0001701574D03*
D72*
X0002138582Y0001800000D03*
D79*
X0001838582Y0001700000D03*
D80*
X0001838582Y0001800000D03*
X0001838582Y0001900000D03*
D81*
X0001738582Y0002200000D03*
D82*
X0001838582Y0002200000D03*
X0001938582Y0002200000D03*
D83*
X0001578582Y0001832204D03*
D84*
X0001578582Y0001970000D03*
D83*
X0001578582Y0001542204D03*
D84*
X0001578582Y0001680000D03*
D69*
X0002388582Y0001725000D03*
D71*
X0002388582Y0001825000D03*
D85*
X0002388582Y0000925000D03*
X0002388582Y0000675000D03*
X0002488582Y0001375000D03*
X0002488582Y0001625000D03*
X0002488582Y0000925000D03*
X0002488582Y0000675000D03*
X0002388582Y0001375000D03*
X0002388582Y0001625000D03*
D73*
X0002113582Y0000275000D03*
X0002113582Y0000525000D03*
X0002013582Y0000275000D03*
X0002013582Y0000525000D03*
D86*
X0002350000Y0001277952D03*
X0002527165Y0001277952D03*
X0002350000Y0001022047D03*
X0002527165Y0001022047D03*
D74*
X0001638582Y0000100000D03*
D75*
X0001638582Y0000200000D03*
X0001638582Y0000300000D03*
X0001638582Y0000400000D03*
X0001638582Y0000500000D03*
X0001638582Y0000600000D03*
X0001638582Y0000700000D03*
X0001638582Y0000800000D03*
X0001638582Y0000900000D03*
X0001638582Y0001000000D03*
X0001638582Y0001100000D03*
X0001638582Y0001200000D03*
X0001638582Y0001300000D03*
X0001638582Y0001400000D03*
D87*
X0001748582Y0000697716D03*
X0001748582Y0000662283D03*
D69*
X0002388582Y0000275000D03*
D71*
X0002388582Y0000375000D03*
D69*
X0002388582Y0001925000D03*
D71*
X0002388582Y0002025000D03*
D70*
X0002388582Y0002125000D03*
X0002388582Y0002225000D03*
D88*
X0001418582Y0001430000D03*
D89*
X0001788582Y0000176574D02*
X0001788582Y0000140000D01*
X0002343582Y0000030000D02*
X0002388582Y0000075000D01*
X0001898582Y0000030000D02*
X0002343582Y0000030000D01*
X0001788582Y0000140000D02*
X0001898582Y0000030000D01*
D90*
X0001838582Y0001900000D02*
X0002018582Y0001900000D01*
X0002093582Y0001975000D02*
X0002142007Y0001975000D01*
X0002018582Y0001900000D02*
X0002093582Y0001975000D01*
X0002138582Y0001500000D02*
X0002138582Y0001701574D01*
D89*
X0001788582Y0000176574D02*
X0001722007Y0000176574D01*
X0001722007Y0000176574D02*
X0001698582Y0000200000D01*
X0001698582Y0000200000D02*
X0001638582Y0000200000D01*
X0001887007Y0000450000D02*
X0001887007Y0000548425D01*
X0001888582Y0001900000D02*
X0001838582Y0001900000D01*
X0001938582Y0001850000D02*
X0001888582Y0001900000D01*
X0001938582Y0000600000D02*
X0001938582Y0001850000D01*
X0001887007Y0000548425D02*
X0001938582Y0000600000D01*
D90*
X0002524212Y0001275000D02*
X0002527165Y0001277952D01*
X0002527165Y0001277952D02*
X0002527165Y0001022047D01*
X0001763582Y0000225000D02*
X0001738582Y0000225000D01*
X0001763582Y0000225000D02*
X0001863582Y0000225000D01*
X0001863582Y0000225000D02*
X0001963582Y0000325000D01*
X0001963582Y0000325000D02*
X0002113582Y0000325000D01*
X0002313582Y0000385000D02*
X0002278582Y0000350000D01*
X0002278582Y0000350000D02*
X0002138582Y0000350000D01*
X0002138582Y0000350000D02*
X0002113582Y0000325000D01*
X0002488582Y0000925000D02*
X0002313582Y0000750000D01*
X0002313582Y0000575000D02*
X0002313582Y0000750000D01*
X0002313582Y0000575000D02*
X0002313582Y0000385000D01*
X0001603582Y0000600000D02*
X0001638582Y0000600000D01*
X0001578582Y0000575000D02*
X0001603582Y0000600000D01*
X0001578582Y0000280000D02*
X0001578582Y0000575000D01*
X0001608582Y0000250000D02*
X0001578582Y0000280000D01*
X0001713582Y0000250000D02*
X0001608582Y0000250000D01*
X0001738582Y0000225000D02*
X0001713582Y0000250000D01*
X0002488582Y0000925000D02*
X0002488582Y0000887500D01*
X0002350000Y0001277952D02*
X0002350000Y0001022047D01*
D89*
X0001578582Y0001832204D02*
X0001578582Y0001680000D01*
X0001578582Y0001542204D02*
X0001605787Y0001542204D01*
X0001605787Y0001542204D02*
X0001688582Y0001625000D01*
X0001688582Y0001625000D02*
X0001688582Y0002100000D01*
X0001688582Y0002100000D02*
X0001738582Y0002200000D01*
D90*
X0002028582Y0002038425D02*
X0001945157Y0001975000D01*
X0002028582Y0002220000D02*
X0002028582Y0002038425D01*
X0001983582Y0002265000D02*
X0002028582Y0002220000D01*
X0001683582Y0002265000D02*
X0001983582Y0002265000D01*
X0001633582Y0002215000D02*
X0001683582Y0002265000D01*
X0001633582Y0002125000D02*
X0001633582Y0002215000D01*
X0001578582Y0002070000D02*
X0001633582Y0002125000D01*
X0001538582Y0002070000D02*
X0001578582Y0002070000D01*
X0001443582Y0001975000D02*
X0001538582Y0002070000D01*
X0001443582Y0001455000D02*
X0001443582Y0001975000D01*
X0001418582Y0001430000D02*
X0001443582Y0001455000D01*
X0002238582Y0000500000D02*
X0002243582Y0000500000D01*
X0002173582Y0000550000D02*
X0002173582Y0000515000D01*
X0001838582Y0001700000D02*
X0001893582Y0001645000D01*
X0001893582Y0001365000D02*
X0001893582Y0001645000D01*
X0001878582Y0001350000D02*
X0001893582Y0001365000D01*
X0001598582Y0001350000D02*
X0001878582Y0001350000D01*
X0001563582Y0001315000D02*
X0001598582Y0001350000D01*
X0001563582Y0001090000D02*
X0001563582Y0001315000D01*
X0001603582Y0001050000D02*
X0001563582Y0001090000D01*
X0001678582Y0001050000D02*
X0001603582Y0001050000D01*
X0001698582Y0001030000D02*
X0001678582Y0001050000D01*
X0001698582Y0000395000D02*
X0001698582Y0001030000D01*
X0001758582Y0000335000D02*
X0001698582Y0000395000D01*
X0001918582Y0000335000D02*
X0001758582Y0000335000D01*
X0001948582Y0000365000D02*
X0001918582Y0000335000D01*
X0002173582Y0000550000D02*
X0002223582Y0000600000D01*
X0002023582Y0000365000D02*
X0001948582Y0000365000D01*
X0002173582Y0000515000D02*
X0002023582Y0000365000D01*
X0002238582Y0000600000D02*
X0002223582Y0000600000D01*
X0002388582Y0000925000D02*
X0002388582Y0000940000D01*
X0002388582Y0000940000D02*
X0002438582Y0000990000D01*
X0002438582Y0000990000D02*
X0002438582Y0001325000D01*
X0002438582Y0001325000D02*
X0002388582Y0001375000D01*
X0001748582Y0000600000D02*
X0001748582Y0000595000D01*
X0002103582Y0000525000D02*
X0001968582Y0000400000D01*
X0001748582Y0000600000D02*
X0001748582Y0000662283D01*
X0001858582Y0000400000D02*
X0001968582Y0000400000D01*
X0001838582Y0000420000D02*
X0001858582Y0000400000D01*
X0001838582Y0000505000D02*
X0001838582Y0000420000D01*
X0001748582Y0000595000D02*
X0001838582Y0000505000D01*
X0002113582Y0000525000D02*
X0002113582Y0000575000D01*
X0002113582Y0000575000D02*
X0002238582Y0000700000D01*
X0002113582Y0000525000D02*
X0002113582Y0000540000D01*
X0002113582Y0000525000D02*
X0002103582Y0000525000D01*
X0002231082Y0001977500D02*
X0002231082Y0001912500D01*
X0002231082Y0002052500D02*
X0002231082Y0001977500D01*
X0002078582Y0001890000D02*
X0002013582Y0001825000D01*
X0002208582Y0001890000D02*
X0002078582Y0001890000D01*
X0002231082Y0001912500D02*
X0002208582Y0001890000D01*
X0002013582Y0000525000D02*
X0002013582Y0000690000D01*
X0002188582Y0000750000D02*
X0002238582Y0000800000D01*
X0002073582Y0000750000D02*
X0002188582Y0000750000D01*
X0002013582Y0000690000D02*
X0002073582Y0000750000D01*
X0002013582Y0001825000D02*
X0002013582Y0000525000D01*
X0002388582Y0002225000D02*
X0002353582Y0002225000D01*
X0002353582Y0002225000D02*
X0002308582Y0002180000D01*
X0002013582Y0000525000D02*
X0002013582Y0000550000D01*
X0002363582Y0002225000D02*
X0002388582Y0002225000D01*
X0002308582Y0002180000D02*
X0002308582Y0002130000D01*
X0002308582Y0002130000D02*
X0002231082Y0002052500D01*
X0002231082Y0002052500D02*
X0002228582Y0002050000D01*
D89*
X0001438582Y0000643700D02*
X0001469881Y0000643700D01*
X0001469881Y0000643700D02*
X0001538582Y0000575000D01*
X0001588582Y0000100000D02*
X0001638582Y0000100000D01*
X0001538582Y0000150000D02*
X0001588582Y0000100000D01*
X0001538582Y0000575000D02*
X0001538582Y0000150000D01*
X0001438582Y0000643700D02*
X0001444881Y0000643700D01*
X0001513582Y0000800000D02*
X0001513582Y0000718700D01*
X0001513582Y0000800000D02*
X0001513582Y0001268700D01*
X0001438582Y0001343700D02*
X0001513582Y0001268700D01*
X0001513582Y0000718700D02*
X0001438582Y0000643700D01*
X0001438582Y0001343700D02*
X0001438582Y0001350000D01*
X0001438582Y0001350000D02*
X0001513582Y0001425000D01*
X0001813582Y0001475000D02*
X0001838582Y0001500000D01*
X0001613582Y0001475000D02*
X0001813582Y0001475000D01*
X0001563582Y0001425000D02*
X0001613582Y0001475000D01*
X0001513582Y0001425000D02*
X0001563582Y0001425000D01*
X0001838582Y0001800000D02*
X0001788582Y0001800000D01*
X0001788582Y0001800000D02*
X0001738582Y0001750000D01*
X0001838582Y0002200000D02*
X0001838582Y0002175000D01*
X0001838582Y0002175000D02*
X0001738582Y0002025000D01*
X0001738582Y0002025000D02*
X0001738582Y0001750000D01*
X0001738582Y0001750000D02*
X0001738582Y0001600000D01*
X0001738582Y0001600000D02*
X0001838582Y0001500000D01*
D90*
X0002113582Y0000275000D02*
X0002013582Y0000275000D01*
X0001748582Y0000697716D02*
X0001748582Y0001030000D01*
X0001678582Y0001100000D02*
X0001638582Y0001100000D01*
X0001748582Y0001030000D02*
X0001678582Y0001100000D01*
D91*
G36*
X0002396210Y0000075556D02*
X0002395653Y0000075000D01*
X0002396210Y0000074443D01*
X0002389139Y0000067372D01*
X0002388582Y0000067928D01*
X0002388025Y0000067372D01*
X0002380954Y0000074443D01*
X0002381511Y0000075000D01*
X0002380954Y0000075556D01*
X0002388025Y0000082627D01*
X0002388582Y0000082071D01*
X0002389139Y0000082627D01*
X0002396210Y0000075556D01*
X0002396210Y0000075556D01*
G37*
X0002396210Y0000075556D02*
X0002395653Y0000075000D01*
X0002396210Y0000074443D01*
X0002389139Y0000067372D01*
X0002388582Y0000067928D01*
X0002388025Y0000067372D01*
X0002380954Y0000074443D01*
X0002381511Y0000075000D01*
X0002380954Y0000075556D01*
X0002388025Y0000082627D01*
X0002388582Y0000082071D01*
X0002389139Y0000082627D01*
X0002396210Y0000075556D01*
G36*
X0002396210Y0000275556D02*
X0002395653Y0000275000D01*
X0002396210Y0000274443D01*
X0002389139Y0000267372D01*
X0002388582Y0000267928D01*
X0002388025Y0000267372D01*
X0002380954Y0000274443D01*
X0002381511Y0000275000D01*
X0002380954Y0000275556D01*
X0002388025Y0000282627D01*
X0002388582Y0000282071D01*
X0002389139Y0000282627D01*
X0002396210Y0000275556D01*
X0002396210Y0000275556D01*
G37*
X0002396210Y0000275556D02*
X0002395653Y0000275000D01*
X0002396210Y0000274443D01*
X0002389139Y0000267372D01*
X0002388582Y0000267928D01*
X0002388025Y0000267372D01*
X0002380954Y0000274443D01*
X0002381511Y0000275000D01*
X0002380954Y0000275556D01*
X0002388025Y0000282627D01*
X0002388582Y0000282071D01*
X0002389139Y0000282627D01*
X0002396210Y0000275556D01*
G36*
X0001897818Y0002139107D02*
X0001924224Y0002128142D01*
X0001952815Y0002128117D01*
X0001976212Y0002137784D01*
X0001976212Y0002064396D01*
X0001966328Y0002056881D01*
X0001961887Y0002058725D01*
X0001928573Y0002058754D01*
X0001897784Y0002046032D01*
X0001874207Y0002022496D01*
X0001861431Y0001991730D01*
X0001861402Y0001958416D01*
X0001862824Y0001954976D01*
X0001852831Y0001958471D01*
X0001843582Y0001952792D01*
X0001843582Y0001905000D01*
X0001896712Y0001905000D01*
X0001897660Y0001904049D01*
X0001928427Y0001891274D01*
X0001961741Y0001891245D01*
X0001992530Y0001903967D01*
X0002016107Y0001927503D01*
X0002028883Y0001958269D01*
X0002028895Y0001972876D01*
X0002060277Y0001996735D01*
X0002062644Y0001999409D01*
X0002065613Y0002001393D01*
X0002069355Y0002006993D01*
X0002073819Y0002012038D01*
X0002074982Y0002015414D01*
X0002076966Y0002018384D01*
X0002078280Y0002024989D01*
X0002080473Y0002031357D01*
X0002080256Y0002034922D01*
X0002080952Y0002038425D01*
X0002080952Y0002126763D01*
X0002096677Y0002088706D01*
X0002127129Y0002058201D01*
X0002166936Y0002041672D01*
X0002177871Y0002041662D01*
X0002178712Y0002037431D01*
X0002178712Y0002024701D01*
X0002176427Y0002030881D01*
X0002152422Y0002039799D01*
X0002126832Y0002038852D01*
X0002107588Y0002030881D01*
X0002103703Y0002020375D01*
X0002142007Y0001982071D01*
X0002142564Y0001982627D01*
X0002149635Y0001975556D01*
X0002149078Y0001975000D01*
X0002149635Y0001974443D01*
X0002142564Y0001967372D01*
X0002142007Y0001967928D01*
X0002141451Y0001967372D01*
X0002134380Y0001974443D01*
X0002134936Y0001975000D01*
X0002096632Y0002013304D01*
X0002086126Y0002009419D01*
X0002077208Y0001985414D01*
X0002078155Y0001959824D01*
X0002085385Y0001942370D01*
X0002078582Y0001942370D01*
X0002058541Y0001938383D01*
X0002041551Y0001927031D01*
X0001976551Y0001862031D01*
X0001965199Y0001845041D01*
X0001961212Y0001825000D01*
X0001961212Y0000579918D01*
X0001949304Y0000568030D01*
X0001937729Y0000540156D01*
X0001937703Y0000509975D01*
X0001949229Y0000482081D01*
X0001964080Y0000467203D01*
X0001948060Y0000452370D01*
X0001943455Y0000452370D01*
X0001942904Y0000463915D01*
X0001936372Y0000479685D01*
X0001926682Y0000482603D01*
X0001896449Y0000452370D01*
X0001890952Y0000452370D01*
X0001890952Y0000461015D01*
X0001919611Y0000489675D01*
X0001916693Y0000499364D01*
X0001895542Y0000506967D01*
X0001890608Y0000506731D01*
X0001886966Y0000525041D01*
X0001884929Y0000528090D01*
X0001875613Y0000542031D01*
X0001800952Y0000616692D01*
X0001800952Y0000634660D01*
X0001808063Y0000629908D01*
X0001837096Y0000624133D01*
X0001840069Y0000624133D01*
X0001869101Y0000629908D01*
X0001893714Y0000646354D01*
X0001910160Y0000670967D01*
X0001915935Y0000700000D01*
X0001910160Y0000729032D01*
X0001896150Y0000750000D01*
X0001910160Y0000770967D01*
X0001915935Y0000800000D01*
X0001910160Y0000829032D01*
X0001896150Y0000850000D01*
X0001910160Y0000870967D01*
X0001915935Y0000900000D01*
X0001910160Y0000929032D01*
X0001896150Y0000950000D01*
X0001910160Y0000970967D01*
X0001915935Y0001000000D01*
X0001910160Y0001029032D01*
X0001896150Y0001050000D01*
X0001910160Y0001070967D01*
X0001915935Y0001100000D01*
X0001910160Y0001129032D01*
X0001896150Y0001150000D01*
X0001910160Y0001170967D01*
X0001915935Y0001200000D01*
X0001910160Y0001229032D01*
X0001896150Y0001250000D01*
X0001910160Y0001270967D01*
X0001915935Y0001300000D01*
X0001913620Y0001311636D01*
X0001915613Y0001312968D01*
X0001930613Y0001327968D01*
X0001941966Y0001344958D01*
X0001943694Y0001353645D01*
X0001945952Y0001365000D01*
X0001945952Y0001645000D01*
X0001941966Y0001665041D01*
X0001941325Y0001666000D01*
X0001930613Y0001682031D01*
X0001923822Y0001688823D01*
X0001923822Y0001734000D01*
X0001920728Y0001750442D01*
X0001913289Y0001762001D01*
X0001918640Y0001770009D01*
X0001924605Y0001800000D01*
X0001918640Y0001829990D01*
X0001901651Y0001855416D01*
X0001890184Y0001863078D01*
X0001891761Y0001864486D01*
X0001901760Y0001885244D01*
X0001901864Y0001885865D01*
X0001897095Y0001895000D01*
X0001843582Y0001895000D01*
X0001843582Y0001894212D01*
X0001833582Y0001894212D01*
X0001833582Y0001895000D01*
X0001832795Y0001895000D01*
X0001832795Y0001905000D01*
X0001833582Y0001905000D01*
X0001833582Y0001952792D01*
X0001824334Y0001958471D01*
X0001802585Y0001950864D01*
X0001794952Y0001944044D01*
X0001794952Y0002007932D01*
X0001885485Y0002143731D01*
X0001886566Y0002146349D01*
X0001888581Y0002148360D01*
X0001897818Y0002139107D01*
X0001897818Y0002139107D01*
G37*
X0001897818Y0002139107D02*
X0001924224Y0002128142D01*
X0001952815Y0002128117D01*
X0001976212Y0002137784D01*
X0001976212Y0002064396D01*
X0001966328Y0002056881D01*
X0001961887Y0002058725D01*
X0001928573Y0002058754D01*
X0001897784Y0002046032D01*
X0001874207Y0002022496D01*
X0001861431Y0001991730D01*
X0001861402Y0001958416D01*
X0001862824Y0001954976D01*
X0001852831Y0001958471D01*
X0001843582Y0001952792D01*
X0001843582Y0001905000D01*
X0001896712Y0001905000D01*
X0001897660Y0001904049D01*
X0001928427Y0001891274D01*
X0001961741Y0001891245D01*
X0001992530Y0001903967D01*
X0002016107Y0001927503D01*
X0002028883Y0001958269D01*
X0002028895Y0001972876D01*
X0002060277Y0001996735D01*
X0002062644Y0001999409D01*
X0002065613Y0002001393D01*
X0002069355Y0002006993D01*
X0002073819Y0002012038D01*
X0002074982Y0002015414D01*
X0002076966Y0002018384D01*
X0002078280Y0002024989D01*
X0002080473Y0002031357D01*
X0002080256Y0002034922D01*
X0002080952Y0002038425D01*
X0002080952Y0002126763D01*
X0002096677Y0002088706D01*
X0002127129Y0002058201D01*
X0002166936Y0002041672D01*
X0002177871Y0002041662D01*
X0002178712Y0002037431D01*
X0002178712Y0002024701D01*
X0002176427Y0002030881D01*
X0002152422Y0002039799D01*
X0002126832Y0002038852D01*
X0002107588Y0002030881D01*
X0002103703Y0002020375D01*
X0002142007Y0001982071D01*
X0002142564Y0001982627D01*
X0002149635Y0001975556D01*
X0002149078Y0001975000D01*
X0002149635Y0001974443D01*
X0002142564Y0001967372D01*
X0002142007Y0001967928D01*
X0002141451Y0001967372D01*
X0002134380Y0001974443D01*
X0002134936Y0001975000D01*
X0002096632Y0002013304D01*
X0002086126Y0002009419D01*
X0002077208Y0001985414D01*
X0002078155Y0001959824D01*
X0002085385Y0001942370D01*
X0002078582Y0001942370D01*
X0002058541Y0001938383D01*
X0002041551Y0001927031D01*
X0001976551Y0001862031D01*
X0001965199Y0001845041D01*
X0001961212Y0001825000D01*
X0001961212Y0000579918D01*
X0001949304Y0000568030D01*
X0001937729Y0000540156D01*
X0001937703Y0000509975D01*
X0001949229Y0000482081D01*
X0001964080Y0000467203D01*
X0001948060Y0000452370D01*
X0001943455Y0000452370D01*
X0001942904Y0000463915D01*
X0001936372Y0000479685D01*
X0001926682Y0000482603D01*
X0001896449Y0000452370D01*
X0001890952Y0000452370D01*
X0001890952Y0000461015D01*
X0001919611Y0000489675D01*
X0001916693Y0000499364D01*
X0001895542Y0000506967D01*
X0001890608Y0000506731D01*
X0001886966Y0000525041D01*
X0001884929Y0000528090D01*
X0001875613Y0000542031D01*
X0001800952Y0000616692D01*
X0001800952Y0000634660D01*
X0001808063Y0000629908D01*
X0001837096Y0000624133D01*
X0001840069Y0000624133D01*
X0001869101Y0000629908D01*
X0001893714Y0000646354D01*
X0001910160Y0000670967D01*
X0001915935Y0000700000D01*
X0001910160Y0000729032D01*
X0001896150Y0000750000D01*
X0001910160Y0000770967D01*
X0001915935Y0000800000D01*
X0001910160Y0000829032D01*
X0001896150Y0000850000D01*
X0001910160Y0000870967D01*
X0001915935Y0000900000D01*
X0001910160Y0000929032D01*
X0001896150Y0000950000D01*
X0001910160Y0000970967D01*
X0001915935Y0001000000D01*
X0001910160Y0001029032D01*
X0001896150Y0001050000D01*
X0001910160Y0001070967D01*
X0001915935Y0001100000D01*
X0001910160Y0001129032D01*
X0001896150Y0001150000D01*
X0001910160Y0001170967D01*
X0001915935Y0001200000D01*
X0001910160Y0001229032D01*
X0001896150Y0001250000D01*
X0001910160Y0001270967D01*
X0001915935Y0001300000D01*
X0001913620Y0001311636D01*
X0001915613Y0001312968D01*
X0001930613Y0001327968D01*
X0001941966Y0001344958D01*
X0001943694Y0001353645D01*
X0001945952Y0001365000D01*
X0001945952Y0001645000D01*
X0001941966Y0001665041D01*
X0001941325Y0001666000D01*
X0001930613Y0001682031D01*
X0001923822Y0001688823D01*
X0001923822Y0001734000D01*
X0001920728Y0001750442D01*
X0001913289Y0001762001D01*
X0001918640Y0001770009D01*
X0001924605Y0001800000D01*
X0001918640Y0001829990D01*
X0001901651Y0001855416D01*
X0001890184Y0001863078D01*
X0001891761Y0001864486D01*
X0001901760Y0001885244D01*
X0001901864Y0001885865D01*
X0001897095Y0001895000D01*
X0001843582Y0001895000D01*
X0001843582Y0001894212D01*
X0001833582Y0001894212D01*
X0001833582Y0001895000D01*
X0001832795Y0001895000D01*
X0001832795Y0001905000D01*
X0001833582Y0001905000D01*
X0001833582Y0001952792D01*
X0001824334Y0001958471D01*
X0001802585Y0001950864D01*
X0001794952Y0001944044D01*
X0001794952Y0002007932D01*
X0001885485Y0002143731D01*
X0001886566Y0002146349D01*
X0001888581Y0002148360D01*
X0001897818Y0002139107D01*
G36*
X0002396210Y0000475556D02*
X0002395653Y0000475000D01*
X0002396210Y0000474443D01*
X0002389139Y0000467372D01*
X0002388582Y0000467928D01*
X0002388025Y0000467372D01*
X0002380954Y0000474443D01*
X0002381511Y0000475000D01*
X0002380954Y0000475556D01*
X0002388025Y0000482627D01*
X0002388582Y0000482071D01*
X0002389139Y0000482627D01*
X0002396210Y0000475556D01*
X0002396210Y0000475556D01*
G37*
X0002396210Y0000475556D02*
X0002395653Y0000475000D01*
X0002396210Y0000474443D01*
X0002389139Y0000467372D01*
X0002388582Y0000467928D01*
X0002388025Y0000467372D01*
X0002380954Y0000474443D01*
X0002381511Y0000475000D01*
X0002380954Y0000475556D01*
X0002388025Y0000482627D01*
X0002388582Y0000482071D01*
X0002389139Y0000482627D01*
X0002396210Y0000475556D01*
G36*
X0002534793Y0001022604D02*
X0002534236Y0001022047D01*
X0002534793Y0001021490D01*
X0002527722Y0001014419D01*
X0002527165Y0001014976D01*
X0002526608Y0001014419D01*
X0002519537Y0001021490D01*
X0002520094Y0001022047D01*
X0002519537Y0001022604D01*
X0002526608Y0001029675D01*
X0002527165Y0001029118D01*
X0002527722Y0001029675D01*
X0002534793Y0001022604D01*
X0002534793Y0001022604D01*
G37*
X0002534793Y0001022604D02*
X0002534236Y0001022047D01*
X0002534793Y0001021490D01*
X0002527722Y0001014419D01*
X0002527165Y0001014976D01*
X0002526608Y0001014419D01*
X0002519537Y0001021490D01*
X0002520094Y0001022047D01*
X0002519537Y0001022604D01*
X0002526608Y0001029675D01*
X0002527165Y0001029118D01*
X0002527722Y0001029675D01*
X0002534793Y0001022604D01*
G36*
X0002534793Y0001278509D02*
X0002534236Y0001277952D01*
X0002534793Y0001277395D01*
X0002527722Y0001270324D01*
X0002527165Y0001270881D01*
X0002526608Y0001270324D01*
X0002519537Y0001277395D01*
X0002520094Y0001277952D01*
X0002519537Y0001278509D01*
X0002526608Y0001285580D01*
X0002527165Y0001285023D01*
X0002527722Y0001285580D01*
X0002534793Y0001278509D01*
X0002534793Y0001278509D01*
G37*
X0002534793Y0001278509D02*
X0002534236Y0001277952D01*
X0002534793Y0001277395D01*
X0002527722Y0001270324D01*
X0002527165Y0001270881D01*
X0002526608Y0001270324D01*
X0002519537Y0001277395D01*
X0002520094Y0001277952D01*
X0002519537Y0001278509D01*
X0002526608Y0001285580D01*
X0002527165Y0001285023D01*
X0002527722Y0001285580D01*
X0002534793Y0001278509D01*
G36*
X0002303973Y0001985629D02*
X0002307067Y0001969187D01*
X0002316784Y0001954085D01*
X0002327898Y0001946492D01*
X0002323783Y0001935414D01*
X0002324730Y0001909824D01*
X0002327504Y0001903127D01*
X0002317668Y0001896797D01*
X0002307537Y0001881970D01*
X0002303973Y0001864370D01*
X0002303973Y0001785629D01*
X0002307067Y0001769187D01*
X0002316784Y0001754085D01*
X0002327898Y0001746492D01*
X0002323783Y0001735414D01*
X0002324730Y0001709824D01*
X0002332701Y0001690580D01*
X0002334944Y0001689750D01*
X0002317649Y0001672485D01*
X0002304877Y0001641726D01*
X0002304848Y0001608420D01*
X0002317566Y0001577638D01*
X0002341097Y0001554066D01*
X0002371856Y0001541294D01*
X0002405162Y0001541265D01*
X0002435944Y0001553984D01*
X0002438566Y0001556601D01*
X0002441097Y0001554066D01*
X0002471856Y0001541294D01*
X0002505162Y0001541265D01*
X0002535944Y0001553984D01*
X0002539212Y0001557246D01*
X0002539212Y0001442783D01*
X0002536068Y0001445933D01*
X0002505308Y0001458705D01*
X0002472002Y0001458734D01*
X0002441221Y0001446015D01*
X0002438598Y0001443398D01*
X0002436068Y0001445933D01*
X0002405308Y0001458705D01*
X0002372002Y0001458734D01*
X0002341221Y0001446015D01*
X0002317649Y0001422485D01*
X0002314823Y0001415679D01*
X0002312017Y0001429786D01*
X0002295145Y0001455037D01*
X0002269893Y0001471909D01*
X0002240107Y0001477834D01*
X0002237057Y0001477834D01*
X0002207271Y0001471909D01*
X0002186825Y0001458248D01*
X0002179787Y0001462951D01*
X0002187048Y0001470967D01*
X0002193382Y0001486258D01*
X0002188579Y0001495000D01*
X0002143582Y0001495000D01*
X0002143582Y0001494212D01*
X0002133582Y0001494212D01*
X0002133582Y0001495000D01*
X0002088586Y0001495000D01*
X0002083783Y0001486258D01*
X0002090116Y0001470967D01*
X0002097378Y0001462951D01*
X0002083450Y0001453645D01*
X0002067005Y0001429032D01*
X0002065952Y0001423741D01*
X0002065952Y0001513741D01*
X0002083783Y0001513741D01*
X0002088586Y0001505000D01*
X0002133582Y0001505000D01*
X0002133582Y0001550024D01*
X0002143582Y0001550024D01*
X0002143582Y0001505000D01*
X0002188579Y0001505000D01*
X0002193382Y0001513741D01*
X0002187048Y0001529032D01*
X0002172249Y0001545369D01*
X0002152324Y0001554799D01*
X0002143582Y0001550024D01*
X0002133582Y0001550024D01*
X0002124840Y0001554799D01*
X0002104916Y0001545369D01*
X0002090116Y0001529032D01*
X0002083783Y0001513741D01*
X0002065952Y0001513741D01*
X0002065952Y0001661899D01*
X0002105978Y0001661899D01*
X0002108897Y0001652210D01*
X0002130048Y0001644607D01*
X0002152498Y0001645678D01*
X0002168267Y0001652210D01*
X0002171186Y0001661899D01*
X0002138582Y0001694503D01*
X0002105978Y0001661899D01*
X0002065952Y0001661899D01*
X0002065952Y0001750489D01*
X0002074658Y0001736959D01*
X0002087992Y0001727849D01*
X0002081615Y0001710109D01*
X0002082685Y0001687659D01*
X0002089217Y0001671889D01*
X0002098907Y0001668970D01*
X0002131511Y0001701574D01*
X0002130954Y0001702131D01*
X0002138025Y0001709202D01*
X0002138582Y0001708645D01*
X0002139139Y0001709202D01*
X0002146210Y0001702131D01*
X0002145653Y0001701574D01*
X0002178257Y0001668970D01*
X0002187947Y0001671889D01*
X0002195549Y0001693040D01*
X0002194479Y0001715490D01*
X0002189250Y0001728114D01*
X0002201622Y0001736076D01*
X0002211753Y0001750903D01*
X0002215318Y0001768503D01*
X0002215318Y0001831496D01*
X0002213962Y0001838700D01*
X0002228623Y0001841616D01*
X0002245613Y0001852968D01*
X0002268113Y0001875468D01*
X0002279466Y0001892458D01*
X0002280329Y0001896797D01*
X0002283452Y0001912500D01*
X0002283452Y0002030807D01*
X0002303973Y0002051328D01*
X0002303973Y0001985629D01*
X0002303973Y0001985629D01*
G37*
X0002303973Y0001985629D02*
X0002307067Y0001969187D01*
X0002316784Y0001954085D01*
X0002327898Y0001946492D01*
X0002323783Y0001935414D01*
X0002324730Y0001909824D01*
X0002327504Y0001903127D01*
X0002317668Y0001896797D01*
X0002307537Y0001881970D01*
X0002303973Y0001864370D01*
X0002303973Y0001785629D01*
X0002307067Y0001769187D01*
X0002316784Y0001754085D01*
X0002327898Y0001746492D01*
X0002323783Y0001735414D01*
X0002324730Y0001709824D01*
X0002332701Y0001690580D01*
X0002334944Y0001689750D01*
X0002317649Y0001672485D01*
X0002304877Y0001641726D01*
X0002304848Y0001608420D01*
X0002317566Y0001577638D01*
X0002341097Y0001554066D01*
X0002371856Y0001541294D01*
X0002405162Y0001541265D01*
X0002435944Y0001553984D01*
X0002438566Y0001556601D01*
X0002441097Y0001554066D01*
X0002471856Y0001541294D01*
X0002505162Y0001541265D01*
X0002535944Y0001553984D01*
X0002539212Y0001557246D01*
X0002539212Y0001442783D01*
X0002536068Y0001445933D01*
X0002505308Y0001458705D01*
X0002472002Y0001458734D01*
X0002441221Y0001446015D01*
X0002438598Y0001443398D01*
X0002436068Y0001445933D01*
X0002405308Y0001458705D01*
X0002372002Y0001458734D01*
X0002341221Y0001446015D01*
X0002317649Y0001422485D01*
X0002314823Y0001415679D01*
X0002312017Y0001429786D01*
X0002295145Y0001455037D01*
X0002269893Y0001471909D01*
X0002240107Y0001477834D01*
X0002237057Y0001477834D01*
X0002207271Y0001471909D01*
X0002186825Y0001458248D01*
X0002179787Y0001462951D01*
X0002187048Y0001470967D01*
X0002193382Y0001486258D01*
X0002188579Y0001495000D01*
X0002143582Y0001495000D01*
X0002143582Y0001494212D01*
X0002133582Y0001494212D01*
X0002133582Y0001495000D01*
X0002088586Y0001495000D01*
X0002083783Y0001486258D01*
X0002090116Y0001470967D01*
X0002097378Y0001462951D01*
X0002083450Y0001453645D01*
X0002067005Y0001429032D01*
X0002065952Y0001423741D01*
X0002065952Y0001513741D01*
X0002083783Y0001513741D01*
X0002088586Y0001505000D01*
X0002133582Y0001505000D01*
X0002133582Y0001550024D01*
X0002143582Y0001550024D01*
X0002143582Y0001505000D01*
X0002188579Y0001505000D01*
X0002193382Y0001513741D01*
X0002187048Y0001529032D01*
X0002172249Y0001545369D01*
X0002152324Y0001554799D01*
X0002143582Y0001550024D01*
X0002133582Y0001550024D01*
X0002124840Y0001554799D01*
X0002104916Y0001545369D01*
X0002090116Y0001529032D01*
X0002083783Y0001513741D01*
X0002065952Y0001513741D01*
X0002065952Y0001661899D01*
X0002105978Y0001661899D01*
X0002108897Y0001652210D01*
X0002130048Y0001644607D01*
X0002152498Y0001645678D01*
X0002168267Y0001652210D01*
X0002171186Y0001661899D01*
X0002138582Y0001694503D01*
X0002105978Y0001661899D01*
X0002065952Y0001661899D01*
X0002065952Y0001750489D01*
X0002074658Y0001736959D01*
X0002087992Y0001727849D01*
X0002081615Y0001710109D01*
X0002082685Y0001687659D01*
X0002089217Y0001671889D01*
X0002098907Y0001668970D01*
X0002131511Y0001701574D01*
X0002130954Y0001702131D01*
X0002138025Y0001709202D01*
X0002138582Y0001708645D01*
X0002139139Y0001709202D01*
X0002146210Y0001702131D01*
X0002145653Y0001701574D01*
X0002178257Y0001668970D01*
X0002187947Y0001671889D01*
X0002195549Y0001693040D01*
X0002194479Y0001715490D01*
X0002189250Y0001728114D01*
X0002201622Y0001736076D01*
X0002211753Y0001750903D01*
X0002215318Y0001768503D01*
X0002215318Y0001831496D01*
X0002213962Y0001838700D01*
X0002228623Y0001841616D01*
X0002245613Y0001852968D01*
X0002268113Y0001875468D01*
X0002279466Y0001892458D01*
X0002280329Y0001896797D01*
X0002283452Y0001912500D01*
X0002283452Y0002030807D01*
X0002303973Y0002051328D01*
X0002303973Y0001985629D01*
G36*
X0002396210Y0001725556D02*
X0002395653Y0001725000D01*
X0002396210Y0001724443D01*
X0002389139Y0001717372D01*
X0002388582Y0001717928D01*
X0002388025Y0001717372D01*
X0002380954Y0001724443D01*
X0002381511Y0001725000D01*
X0002380954Y0001725556D01*
X0002388025Y0001732627D01*
X0002388582Y0001732071D01*
X0002389139Y0001732627D01*
X0002396210Y0001725556D01*
X0002396210Y0001725556D01*
G37*
X0002396210Y0001725556D02*
X0002395653Y0001725000D01*
X0002396210Y0001724443D01*
X0002389139Y0001717372D01*
X0002388582Y0001717928D01*
X0002388025Y0001717372D01*
X0002380954Y0001724443D01*
X0002381511Y0001725000D01*
X0002380954Y0001725556D01*
X0002388025Y0001732627D01*
X0002388582Y0001732071D01*
X0002389139Y0001732627D01*
X0002396210Y0001725556D01*
G36*
X0002396210Y0001925556D02*
X0002395653Y0001925000D01*
X0002396210Y0001924443D01*
X0002389139Y0001917372D01*
X0002388582Y0001917928D01*
X0002388025Y0001917372D01*
X0002380954Y0001924443D01*
X0002381511Y0001925000D01*
X0002380954Y0001925556D01*
X0002388025Y0001932627D01*
X0002388582Y0001932071D01*
X0002389139Y0001932627D01*
X0002396210Y0001925556D01*
X0002396210Y0001925556D01*
G37*
X0002396210Y0001925556D02*
X0002395653Y0001925000D01*
X0002396210Y0001924443D01*
X0002389139Y0001917372D01*
X0002388582Y0001917928D01*
X0002388025Y0001917372D01*
X0002380954Y0001924443D01*
X0002381511Y0001925000D01*
X0002380954Y0001925556D01*
X0002388025Y0001932627D01*
X0002388582Y0001932071D01*
X0002389139Y0001932627D01*
X0002396210Y0001925556D01*
G36*
X0001583582Y0001975000D02*
X0001584370Y0001975000D01*
X0001584370Y0001965000D01*
X0001583582Y0001965000D01*
X0001583582Y0001964212D01*
X0001573582Y0001964212D01*
X0001573582Y0001965000D01*
X0001572795Y0001965000D01*
X0001572795Y0001975000D01*
X0001573582Y0001975000D01*
X0001573582Y0001975787D01*
X0001583582Y0001975787D01*
X0001583582Y0001975000D01*
X0001583582Y0001975000D01*
G37*
X0001583582Y0001975000D02*
X0001584370Y0001975000D01*
X0001584370Y0001965000D01*
X0001583582Y0001965000D01*
X0001583582Y0001964212D01*
X0001573582Y0001964212D01*
X0001573582Y0001965000D01*
X0001572795Y0001965000D01*
X0001572795Y0001975000D01*
X0001573582Y0001975000D01*
X0001573582Y0001975787D01*
X0001583582Y0001975787D01*
X0001583582Y0001975000D01*
G36*
X0002396210Y0002125556D02*
X0002395653Y0002125000D01*
X0002396210Y0002124443D01*
X0002389139Y0002117372D01*
X0002388582Y0002117928D01*
X0002388025Y0002117372D01*
X0002380954Y0002124443D01*
X0002381511Y0002125000D01*
X0002380954Y0002125556D01*
X0002388025Y0002132627D01*
X0002388582Y0002132071D01*
X0002389139Y0002132627D01*
X0002396210Y0002125556D01*
X0002396210Y0002125556D01*
G37*
X0002396210Y0002125556D02*
X0002395653Y0002125000D01*
X0002396210Y0002124443D01*
X0002389139Y0002117372D01*
X0002388582Y0002117928D01*
X0002388025Y0002117372D01*
X0002380954Y0002124443D01*
X0002381511Y0002125000D01*
X0002380954Y0002125556D01*
X0002388025Y0002132627D01*
X0002388582Y0002132071D01*
X0002389139Y0002132627D01*
X0002396210Y0002125556D01*
G04 next file*
G04 #@! TF.FileFunction,Copper,L1,Top,Signal*
G04 Gerber Fmt 4.6, Leading zero omitted, Abs format (unit mm)*
G04 Created by KiCad (PCBNEW 4.0.7) date 11/30/19 11:05:29*
G01*
G04 APERTURE LIST*
G04 APERTURE END LIST*
D92*
D93*
X-0002122834Y0004650000D02*
X0003283740Y0001975000D03*
X0003480590Y0001975000D03*
D94*
X0003727165Y0000075000D03*
X0003727165Y0000175000D03*
D93*
X0003727165Y0000475000D03*
D95*
X0003727165Y0000575000D03*
D96*
X0002777165Y0000250000D03*
D97*
X0002777165Y0000348425D03*
X0002777165Y0000446850D03*
X0002777165Y0000545275D03*
X0002777165Y0000643700D03*
D96*
X0003127165Y0000450000D03*
D97*
X0003225590Y0000450000D03*
D98*
X0003577165Y0000100000D03*
D99*
X0003577165Y0000200000D03*
X0003577165Y0000300000D03*
X0003577165Y0000400000D03*
X0003577165Y0000500000D03*
X0003577165Y0000600000D03*
X0003577165Y0000700000D03*
X0003577165Y0000800000D03*
X0003577165Y0000900000D03*
X0003577165Y0001000000D03*
X0003577165Y0001100000D03*
X0003577165Y0001200000D03*
X0003577165Y0001300000D03*
X0003577165Y0001400000D03*
D100*
X0003127165Y0000275000D03*
D101*
X0003127165Y0000176574D03*
D102*
X0003477165Y0000700000D03*
X0003477165Y0000800000D03*
X0003477165Y0000900000D03*
X0003477165Y0001000000D03*
X0003477165Y0001100000D03*
X0003477165Y0001200000D03*
X0003477165Y0001300000D03*
X0003477165Y0001400000D03*
X0003477165Y0001500000D03*
X0003177165Y0001500000D03*
X0003177165Y0001400000D03*
X0003177165Y0001300000D03*
X0003177165Y0001200000D03*
X0003177165Y0001100000D03*
X0003177165Y0001000000D03*
X0003177165Y0000900000D03*
X0003177165Y0000800000D03*
X0003177165Y0000700000D03*
D96*
X0002777165Y0000950000D03*
D97*
X0002777165Y0001048425D03*
X0002777165Y0001146850D03*
X0002777165Y0001245275D03*
X0002777165Y0001343700D03*
X0003477165Y0001701574D03*
D96*
X0003477165Y0001800000D03*
D103*
X0003177165Y0001700000D03*
D104*
X0003177165Y0001800000D03*
X0003177165Y0001900000D03*
D105*
X0003077165Y0002200000D03*
D106*
X0003177165Y0002200000D03*
X0003277165Y0002200000D03*
D107*
X0002917165Y0001832204D03*
D108*
X0002917165Y0001970000D03*
D107*
X0002917165Y0001542204D03*
D108*
X0002917165Y0001680000D03*
D93*
X0003727165Y0001725000D03*
D95*
X0003727165Y0001825000D03*
D109*
X0003727165Y0000925000D03*
X0003727165Y0000675000D03*
X0003827165Y0001375000D03*
X0003827165Y0001625000D03*
X0003827165Y0000925000D03*
X0003827165Y0000675000D03*
X0003727165Y0001375000D03*
X0003727165Y0001625000D03*
D97*
X0003452165Y0000275000D03*
X0003452165Y0000525000D03*
X0003352165Y0000275000D03*
X0003352165Y0000525000D03*
D110*
X0003688582Y0001277952D03*
X0003865748Y0001277952D03*
X0003688582Y0001022047D03*
X0003865748Y0001022047D03*
D98*
X0002977165Y0000100000D03*
D99*
X0002977165Y0000200000D03*
X0002977165Y0000300000D03*
X0002977165Y0000400000D03*
X0002977165Y0000500000D03*
X0002977165Y0000600000D03*
X0002977165Y0000700000D03*
X0002977165Y0000800000D03*
X0002977165Y0000900000D03*
X0002977165Y0001000000D03*
X0002977165Y0001100000D03*
X0002977165Y0001200000D03*
X0002977165Y0001300000D03*
X0002977165Y0001400000D03*
D111*
X0003087165Y0000697716D03*
X0003087165Y0000662283D03*
D93*
X0003727165Y0000275000D03*
D95*
X0003727165Y0000375000D03*
D93*
X0003727165Y0001925000D03*
D95*
X0003727165Y0002025000D03*
D94*
X0003727165Y0002125000D03*
X0003727165Y0002225000D03*
D112*
X0002757165Y0001430000D03*
D113*
X0003127165Y0000176574D02*
X0003127165Y0000140000D01*
X0003682165Y0000030000D02*
X0003727165Y0000075000D01*
X0003237165Y0000030000D02*
X0003682165Y0000030000D01*
X0003127165Y0000140000D02*
X0003237165Y0000030000D01*
D114*
X0003177165Y0001900000D02*
X0003357165Y0001900000D01*
X0003432165Y0001975000D02*
X0003480590Y0001975000D01*
X0003357165Y0001900000D02*
X0003432165Y0001975000D01*
X0003477165Y0001500000D02*
X0003477165Y0001701574D01*
D113*
X0003127165Y0000176574D02*
X0003060590Y0000176574D01*
X0003060590Y0000176574D02*
X0003037165Y0000200000D01*
X0003037165Y0000200000D02*
X0002977165Y0000200000D01*
X0003225590Y0000450000D02*
X0003225590Y0000548425D01*
X0003227165Y0001900000D02*
X0003177165Y0001900000D01*
X0003277165Y0001850000D02*
X0003227165Y0001900000D01*
X0003277165Y0000600000D02*
X0003277165Y0001850000D01*
X0003225590Y0000548425D02*
X0003277165Y0000600000D01*
D114*
X0003862795Y0001275000D02*
X0003865748Y0001277952D01*
X0003865748Y0001277952D02*
X0003865748Y0001022047D01*
X0003102165Y0000225000D02*
X0003077165Y0000225000D01*
X0003102165Y0000225000D02*
X0003202165Y0000225000D01*
X0003202165Y0000225000D02*
X0003302165Y0000325000D01*
X0003302165Y0000325000D02*
X0003452165Y0000325000D01*
X0003652165Y0000385000D02*
X0003617165Y0000350000D01*
X0003617165Y0000350000D02*
X0003477165Y0000350000D01*
X0003477165Y0000350000D02*
X0003452165Y0000325000D01*
X0003827165Y0000925000D02*
X0003652165Y0000750000D01*
X0003652165Y0000575000D02*
X0003652165Y0000750000D01*
X0003652165Y0000575000D02*
X0003652165Y0000385000D01*
X0002942165Y0000600000D02*
X0002977165Y0000600000D01*
X0002917165Y0000575000D02*
X0002942165Y0000600000D01*
X0002917165Y0000280000D02*
X0002917165Y0000575000D01*
X0002947165Y0000250000D02*
X0002917165Y0000280000D01*
X0003052165Y0000250000D02*
X0002947165Y0000250000D01*
X0003077165Y0000225000D02*
X0003052165Y0000250000D01*
X0003827165Y0000925000D02*
X0003827165Y0000887500D01*
X0003688582Y0001277952D02*
X0003688582Y0001022047D01*
D113*
X0002917165Y0001832204D02*
X0002917165Y0001680000D01*
X0002917165Y0001542204D02*
X0002944370Y0001542204D01*
X0002944370Y0001542204D02*
X0003027165Y0001625000D01*
X0003027165Y0001625000D02*
X0003027165Y0002100000D01*
X0003027165Y0002100000D02*
X0003077165Y0002200000D01*
D114*
X0003367165Y0002038425D02*
X0003283740Y0001975000D01*
X0003367165Y0002220000D02*
X0003367165Y0002038425D01*
X0003322165Y0002265000D02*
X0003367165Y0002220000D01*
X0003022165Y0002265000D02*
X0003322165Y0002265000D01*
X0002972165Y0002215000D02*
X0003022165Y0002265000D01*
X0002972165Y0002125000D02*
X0002972165Y0002215000D01*
X0002917165Y0002070000D02*
X0002972165Y0002125000D01*
X0002877165Y0002070000D02*
X0002917165Y0002070000D01*
X0002782165Y0001975000D02*
X0002877165Y0002070000D01*
X0002782165Y0001455000D02*
X0002782165Y0001975000D01*
X0002757165Y0001430000D02*
X0002782165Y0001455000D01*
X0003577165Y0000500000D02*
X0003582165Y0000500000D01*
X0003512165Y0000550000D02*
X0003512165Y0000515000D01*
X0003177165Y0001700000D02*
X0003232165Y0001645000D01*
X0003232165Y0001365000D02*
X0003232165Y0001645000D01*
X0003217165Y0001350000D02*
X0003232165Y0001365000D01*
X0002937165Y0001350000D02*
X0003217165Y0001350000D01*
X0002902165Y0001315000D02*
X0002937165Y0001350000D01*
X0002902165Y0001090000D02*
X0002902165Y0001315000D01*
X0002942165Y0001050000D02*
X0002902165Y0001090000D01*
X0003017165Y0001050000D02*
X0002942165Y0001050000D01*
X0003037165Y0001030000D02*
X0003017165Y0001050000D01*
X0003037165Y0000395000D02*
X0003037165Y0001030000D01*
X0003097165Y0000335000D02*
X0003037165Y0000395000D01*
X0003257165Y0000335000D02*
X0003097165Y0000335000D01*
X0003287165Y0000365000D02*
X0003257165Y0000335000D01*
X0003512165Y0000550000D02*
X0003562165Y0000600000D01*
X0003362165Y0000365000D02*
X0003287165Y0000365000D01*
X0003512165Y0000515000D02*
X0003362165Y0000365000D01*
X0003577165Y0000600000D02*
X0003562165Y0000600000D01*
X0003727165Y0000925000D02*
X0003727165Y0000940000D01*
X0003727165Y0000940000D02*
X0003777165Y0000990000D01*
X0003777165Y0000990000D02*
X0003777165Y0001325000D01*
X0003777165Y0001325000D02*
X0003727165Y0001375000D01*
X0003087165Y0000600000D02*
X0003087165Y0000595000D01*
X0003442165Y0000525000D02*
X0003307165Y0000400000D01*
X0003087165Y0000600000D02*
X0003087165Y0000662283D01*
X0003197165Y0000400000D02*
X0003307165Y0000400000D01*
X0003177165Y0000420000D02*
X0003197165Y0000400000D01*
X0003177165Y0000505000D02*
X0003177165Y0000420000D01*
X0003087165Y0000595000D02*
X0003177165Y0000505000D01*
X0003452165Y0000525000D02*
X0003452165Y0000575000D01*
X0003452165Y0000575000D02*
X0003577165Y0000700000D01*
X0003452165Y0000525000D02*
X0003452165Y0000540000D01*
X0003452165Y0000525000D02*
X0003442165Y0000525000D01*
X0003569665Y0001977500D02*
X0003569665Y0001912500D01*
X0003569665Y0002052500D02*
X0003569665Y0001977500D01*
X0003417165Y0001890000D02*
X0003352165Y0001825000D01*
X0003547165Y0001890000D02*
X0003417165Y0001890000D01*
X0003569665Y0001912500D02*
X0003547165Y0001890000D01*
X0003352165Y0000525000D02*
X0003352165Y0000690000D01*
X0003527165Y0000750000D02*
X0003577165Y0000800000D01*
X0003412165Y0000750000D02*
X0003527165Y0000750000D01*
X0003352165Y0000690000D02*
X0003412165Y0000750000D01*
X0003352165Y0001825000D02*
X0003352165Y0000525000D01*
X0003727165Y0002225000D02*
X0003692165Y0002225000D01*
X0003692165Y0002225000D02*
X0003647165Y0002180000D01*
X0003352165Y0000525000D02*
X0003352165Y0000550000D01*
X0003702165Y0002225000D02*
X0003727165Y0002225000D01*
X0003647165Y0002180000D02*
X0003647165Y0002130000D01*
X0003647165Y0002130000D02*
X0003569665Y0002052500D01*
X0003569665Y0002052500D02*
X0003567165Y0002050000D01*
D113*
X0002777165Y0000643700D02*
X0002808464Y0000643700D01*
X0002808464Y0000643700D02*
X0002877165Y0000575000D01*
X0002927165Y0000100000D02*
X0002977165Y0000100000D01*
X0002877165Y0000150000D02*
X0002927165Y0000100000D01*
X0002877165Y0000575000D02*
X0002877165Y0000150000D01*
X0002777165Y0000643700D02*
X0002783464Y0000643700D01*
X0002852165Y0000800000D02*
X0002852165Y0000718700D01*
X0002852165Y0000800000D02*
X0002852165Y0001268700D01*
X0002777165Y0001343700D02*
X0002852165Y0001268700D01*
X0002852165Y0000718700D02*
X0002777165Y0000643700D01*
X0002777165Y0001343700D02*
X0002777165Y0001350000D01*
X0002777165Y0001350000D02*
X0002852165Y0001425000D01*
X0003152165Y0001475000D02*
X0003177165Y0001500000D01*
X0002952165Y0001475000D02*
X0003152165Y0001475000D01*
X0002902165Y0001425000D02*
X0002952165Y0001475000D01*
X0002852165Y0001425000D02*
X0002902165Y0001425000D01*
X0003177165Y0001800000D02*
X0003127165Y0001800000D01*
X0003127165Y0001800000D02*
X0003077165Y0001750000D01*
X0003177165Y0002200000D02*
X0003177165Y0002175000D01*
X0003177165Y0002175000D02*
X0003077165Y0002025000D01*
X0003077165Y0002025000D02*
X0003077165Y0001750000D01*
X0003077165Y0001750000D02*
X0003077165Y0001600000D01*
X0003077165Y0001600000D02*
X0003177165Y0001500000D01*
D114*
X0003452165Y0000275000D02*
X0003352165Y0000275000D01*
X0003087165Y0000697716D02*
X0003087165Y0001030000D01*
X0003017165Y0001100000D02*
X0002977165Y0001100000D01*
X0003087165Y0001030000D02*
X0003017165Y0001100000D01*
D115*
G36*
X0003734793Y0000075556D02*
X0003734236Y0000075000D01*
X0003734793Y0000074443D01*
X0003727722Y0000067372D01*
X0003727165Y0000067928D01*
X0003726608Y0000067372D01*
X0003719537Y0000074443D01*
X0003720094Y0000075000D01*
X0003719537Y0000075556D01*
X0003726608Y0000082627D01*
X0003727165Y0000082071D01*
X0003727722Y0000082627D01*
X0003734793Y0000075556D01*
X0003734793Y0000075556D01*
G37*
X0003734793Y0000075556D02*
X0003734236Y0000075000D01*
X0003734793Y0000074443D01*
X0003727722Y0000067372D01*
X0003727165Y0000067928D01*
X0003726608Y0000067372D01*
X0003719537Y0000074443D01*
X0003720094Y0000075000D01*
X0003719537Y0000075556D01*
X0003726608Y0000082627D01*
X0003727165Y0000082071D01*
X0003727722Y0000082627D01*
X0003734793Y0000075556D01*
G36*
X0003734793Y0000275556D02*
X0003734236Y0000275000D01*
X0003734793Y0000274443D01*
X0003727722Y0000267372D01*
X0003727165Y0000267928D01*
X0003726608Y0000267372D01*
X0003719537Y0000274443D01*
X0003720094Y0000275000D01*
X0003719537Y0000275556D01*
X0003726608Y0000282627D01*
X0003727165Y0000282071D01*
X0003727722Y0000282627D01*
X0003734793Y0000275556D01*
X0003734793Y0000275556D01*
G37*
X0003734793Y0000275556D02*
X0003734236Y0000275000D01*
X0003734793Y0000274443D01*
X0003727722Y0000267372D01*
X0003727165Y0000267928D01*
X0003726608Y0000267372D01*
X0003719537Y0000274443D01*
X0003720094Y0000275000D01*
X0003719537Y0000275556D01*
X0003726608Y0000282627D01*
X0003727165Y0000282071D01*
X0003727722Y0000282627D01*
X0003734793Y0000275556D01*
G36*
X0003236401Y0002139107D02*
X0003262806Y0002128142D01*
X0003291398Y0002128117D01*
X0003314795Y0002137784D01*
X0003314795Y0002064396D01*
X0003304910Y0002056881D01*
X0003300470Y0002058725D01*
X0003267156Y0002058754D01*
X0003236367Y0002046032D01*
X0003212790Y0002022496D01*
X0003200014Y0001991730D01*
X0003199985Y0001958416D01*
X0003201406Y0001954976D01*
X0003191413Y0001958471D01*
X0003182165Y0001952792D01*
X0003182165Y0001905000D01*
X0003235294Y0001905000D01*
X0003236243Y0001904049D01*
X0003267010Y0001891274D01*
X0003300324Y0001891245D01*
X0003331113Y0001903967D01*
X0003354690Y0001927503D01*
X0003367465Y0001958269D01*
X0003367478Y0001972876D01*
X0003398860Y0001996735D01*
X0003401227Y0001999409D01*
X0003404196Y0002001393D01*
X0003407938Y0002006993D01*
X0003412402Y0002012038D01*
X0003413565Y0002015414D01*
X0003415549Y0002018384D01*
X0003416863Y0002024989D01*
X0003419056Y0002031357D01*
X0003418838Y0002034922D01*
X0003419535Y0002038425D01*
X0003419535Y0002126763D01*
X0003435260Y0002088706D01*
X0003465711Y0002058201D01*
X0003505519Y0002041672D01*
X0003516453Y0002041662D01*
X0003517295Y0002037431D01*
X0003517295Y0002024701D01*
X0003515010Y0002030881D01*
X0003491005Y0002039799D01*
X0003465415Y0002038852D01*
X0003446170Y0002030881D01*
X0003442286Y0002020375D01*
X0003480590Y0001982071D01*
X0003481147Y0001982627D01*
X0003488218Y0001975556D01*
X0003487661Y0001975000D01*
X0003488218Y0001974443D01*
X0003481147Y0001967372D01*
X0003480590Y0001967928D01*
X0003480033Y0001967372D01*
X0003472962Y0001974443D01*
X0003473519Y0001975000D01*
X0003435215Y0002013304D01*
X0003424709Y0002009419D01*
X0003415791Y0001985414D01*
X0003416737Y0001959824D01*
X0003423967Y0001942370D01*
X0003417165Y0001942370D01*
X0003397124Y0001938383D01*
X0003380134Y0001927031D01*
X0003315134Y0001862031D01*
X0003303781Y0001845041D01*
X0003299795Y0001825000D01*
X0003299795Y0000579918D01*
X0003287886Y0000568030D01*
X0003276312Y0000540156D01*
X0003276286Y0000509975D01*
X0003287811Y0000482081D01*
X0003302663Y0000467203D01*
X0003286643Y0000452370D01*
X0003282037Y0000452370D01*
X0003281487Y0000463915D01*
X0003274955Y0000479685D01*
X0003265265Y0000482603D01*
X0003235031Y0000452370D01*
X0003229535Y0000452370D01*
X0003229535Y0000461015D01*
X0003258194Y0000489675D01*
X0003255275Y0000499364D01*
X0003234125Y0000506967D01*
X0003229190Y0000506731D01*
X0003225549Y0000525041D01*
X0003223511Y0000528090D01*
X0003214196Y0000542031D01*
X0003139535Y0000616692D01*
X0003139535Y0000634660D01*
X0003146646Y0000629908D01*
X0003175679Y0000624133D01*
X0003178651Y0000624133D01*
X0003207684Y0000629908D01*
X0003232297Y0000646354D01*
X0003248742Y0000670967D01*
X0003254517Y0000700000D01*
X0003248742Y0000729032D01*
X0003234732Y0000750000D01*
X0003248742Y0000770967D01*
X0003254517Y0000800000D01*
X0003248742Y0000829032D01*
X0003234732Y0000850000D01*
X0003248742Y0000870967D01*
X0003254517Y0000900000D01*
X0003248742Y0000929032D01*
X0003234732Y0000950000D01*
X0003248742Y0000970967D01*
X0003254517Y0001000000D01*
X0003248742Y0001029032D01*
X0003234732Y0001050000D01*
X0003248742Y0001070967D01*
X0003254517Y0001100000D01*
X0003248742Y0001129032D01*
X0003234732Y0001150000D01*
X0003248742Y0001170967D01*
X0003254517Y0001200000D01*
X0003248742Y0001229032D01*
X0003234732Y0001250000D01*
X0003248742Y0001270967D01*
X0003254517Y0001300000D01*
X0003252203Y0001311636D01*
X0003254196Y0001312968D01*
X0003269196Y0001327968D01*
X0003280549Y0001344958D01*
X0003282276Y0001353645D01*
X0003284535Y0001365000D01*
X0003284535Y0001645000D01*
X0003280549Y0001665041D01*
X0003279908Y0001666000D01*
X0003269196Y0001682031D01*
X0003262404Y0001688823D01*
X0003262404Y0001734000D01*
X0003259310Y0001750442D01*
X0003251872Y0001762001D01*
X0003257222Y0001770009D01*
X0003263188Y0001800000D01*
X0003257222Y0001829990D01*
X0003240234Y0001855416D01*
X0003228767Y0001863078D01*
X0003230343Y0001864486D01*
X0003240342Y0001885244D01*
X0003240447Y0001885865D01*
X0003235677Y0001895000D01*
X0003182165Y0001895000D01*
X0003182165Y0001894212D01*
X0003172165Y0001894212D01*
X0003172165Y0001895000D01*
X0003171377Y0001895000D01*
X0003171377Y0001905000D01*
X0003172165Y0001905000D01*
X0003172165Y0001952792D01*
X0003162916Y0001958471D01*
X0003141168Y0001950864D01*
X0003133535Y0001944044D01*
X0003133535Y0002007932D01*
X0003224068Y0002143731D01*
X0003225149Y0002146349D01*
X0003227163Y0002148360D01*
X0003236401Y0002139107D01*
X0003236401Y0002139107D01*
G37*
X0003236401Y0002139107D02*
X0003262806Y0002128142D01*
X0003291398Y0002128117D01*
X0003314795Y0002137784D01*
X0003314795Y0002064396D01*
X0003304910Y0002056881D01*
X0003300470Y0002058725D01*
X0003267156Y0002058754D01*
X0003236367Y0002046032D01*
X0003212790Y0002022496D01*
X0003200014Y0001991730D01*
X0003199985Y0001958416D01*
X0003201406Y0001954976D01*
X0003191413Y0001958471D01*
X0003182165Y0001952792D01*
X0003182165Y0001905000D01*
X0003235294Y0001905000D01*
X0003236243Y0001904049D01*
X0003267010Y0001891274D01*
X0003300324Y0001891245D01*
X0003331113Y0001903967D01*
X0003354690Y0001927503D01*
X0003367465Y0001958269D01*
X0003367478Y0001972876D01*
X0003398860Y0001996735D01*
X0003401227Y0001999409D01*
X0003404196Y0002001393D01*
X0003407938Y0002006993D01*
X0003412402Y0002012038D01*
X0003413565Y0002015414D01*
X0003415549Y0002018384D01*
X0003416863Y0002024989D01*
X0003419056Y0002031357D01*
X0003418838Y0002034922D01*
X0003419535Y0002038425D01*
X0003419535Y0002126763D01*
X0003435260Y0002088706D01*
X0003465711Y0002058201D01*
X0003505519Y0002041672D01*
X0003516453Y0002041662D01*
X0003517295Y0002037431D01*
X0003517295Y0002024701D01*
X0003515010Y0002030881D01*
X0003491005Y0002039799D01*
X0003465415Y0002038852D01*
X0003446170Y0002030881D01*
X0003442286Y0002020375D01*
X0003480590Y0001982071D01*
X0003481147Y0001982627D01*
X0003488218Y0001975556D01*
X0003487661Y0001975000D01*
X0003488218Y0001974443D01*
X0003481147Y0001967372D01*
X0003480590Y0001967928D01*
X0003480033Y0001967372D01*
X0003472962Y0001974443D01*
X0003473519Y0001975000D01*
X0003435215Y0002013304D01*
X0003424709Y0002009419D01*
X0003415791Y0001985414D01*
X0003416737Y0001959824D01*
X0003423967Y0001942370D01*
X0003417165Y0001942370D01*
X0003397124Y0001938383D01*
X0003380134Y0001927031D01*
X0003315134Y0001862031D01*
X0003303781Y0001845041D01*
X0003299795Y0001825000D01*
X0003299795Y0000579918D01*
X0003287886Y0000568030D01*
X0003276312Y0000540156D01*
X0003276286Y0000509975D01*
X0003287811Y0000482081D01*
X0003302663Y0000467203D01*
X0003286643Y0000452370D01*
X0003282037Y0000452370D01*
X0003281487Y0000463915D01*
X0003274955Y0000479685D01*
X0003265265Y0000482603D01*
X0003235031Y0000452370D01*
X0003229535Y0000452370D01*
X0003229535Y0000461015D01*
X0003258194Y0000489675D01*
X0003255275Y0000499364D01*
X0003234125Y0000506967D01*
X0003229190Y0000506731D01*
X0003225549Y0000525041D01*
X0003223511Y0000528090D01*
X0003214196Y0000542031D01*
X0003139535Y0000616692D01*
X0003139535Y0000634660D01*
X0003146646Y0000629908D01*
X0003175679Y0000624133D01*
X0003178651Y0000624133D01*
X0003207684Y0000629908D01*
X0003232297Y0000646354D01*
X0003248742Y0000670967D01*
X0003254517Y0000700000D01*
X0003248742Y0000729032D01*
X0003234732Y0000750000D01*
X0003248742Y0000770967D01*
X0003254517Y0000800000D01*
X0003248742Y0000829032D01*
X0003234732Y0000850000D01*
X0003248742Y0000870967D01*
X0003254517Y0000900000D01*
X0003248742Y0000929032D01*
X0003234732Y0000950000D01*
X0003248742Y0000970967D01*
X0003254517Y0001000000D01*
X0003248742Y0001029032D01*
X0003234732Y0001050000D01*
X0003248742Y0001070967D01*
X0003254517Y0001100000D01*
X0003248742Y0001129032D01*
X0003234732Y0001150000D01*
X0003248742Y0001170967D01*
X0003254517Y0001200000D01*
X0003248742Y0001229032D01*
X0003234732Y0001250000D01*
X0003248742Y0001270967D01*
X0003254517Y0001300000D01*
X0003252203Y0001311636D01*
X0003254196Y0001312968D01*
X0003269196Y0001327968D01*
X0003280549Y0001344958D01*
X0003282276Y0001353645D01*
X0003284535Y0001365000D01*
X0003284535Y0001645000D01*
X0003280549Y0001665041D01*
X0003279908Y0001666000D01*
X0003269196Y0001682031D01*
X0003262404Y0001688823D01*
X0003262404Y0001734000D01*
X0003259310Y0001750442D01*
X0003251872Y0001762001D01*
X0003257222Y0001770009D01*
X0003263188Y0001800000D01*
X0003257222Y0001829990D01*
X0003240234Y0001855416D01*
X0003228767Y0001863078D01*
X0003230343Y0001864486D01*
X0003240342Y0001885244D01*
X0003240447Y0001885865D01*
X0003235677Y0001895000D01*
X0003182165Y0001895000D01*
X0003182165Y0001894212D01*
X0003172165Y0001894212D01*
X0003172165Y0001895000D01*
X0003171377Y0001895000D01*
X0003171377Y0001905000D01*
X0003172165Y0001905000D01*
X0003172165Y0001952792D01*
X0003162916Y0001958471D01*
X0003141168Y0001950864D01*
X0003133535Y0001944044D01*
X0003133535Y0002007932D01*
X0003224068Y0002143731D01*
X0003225149Y0002146349D01*
X0003227163Y0002148360D01*
X0003236401Y0002139107D01*
G36*
X0003734793Y0000475556D02*
X0003734236Y0000475000D01*
X0003734793Y0000474443D01*
X0003727722Y0000467372D01*
X0003727165Y0000467928D01*
X0003726608Y0000467372D01*
X0003719537Y0000474443D01*
X0003720094Y0000475000D01*
X0003719537Y0000475556D01*
X0003726608Y0000482627D01*
X0003727165Y0000482071D01*
X0003727722Y0000482627D01*
X0003734793Y0000475556D01*
X0003734793Y0000475556D01*
G37*
X0003734793Y0000475556D02*
X0003734236Y0000475000D01*
X0003734793Y0000474443D01*
X0003727722Y0000467372D01*
X0003727165Y0000467928D01*
X0003726608Y0000467372D01*
X0003719537Y0000474443D01*
X0003720094Y0000475000D01*
X0003719537Y0000475556D01*
X0003726608Y0000482627D01*
X0003727165Y0000482071D01*
X0003727722Y0000482627D01*
X0003734793Y0000475556D01*
G36*
X0003873375Y0001022604D02*
X0003872819Y0001022047D01*
X0003873375Y0001021490D01*
X0003866304Y0001014419D01*
X0003865748Y0001014976D01*
X0003865191Y0001014419D01*
X0003858120Y0001021490D01*
X0003858677Y0001022047D01*
X0003858120Y0001022604D01*
X0003865191Y0001029675D01*
X0003865748Y0001029118D01*
X0003866304Y0001029675D01*
X0003873375Y0001022604D01*
X0003873375Y0001022604D01*
G37*
X0003873375Y0001022604D02*
X0003872819Y0001022047D01*
X0003873375Y0001021490D01*
X0003866304Y0001014419D01*
X0003865748Y0001014976D01*
X0003865191Y0001014419D01*
X0003858120Y0001021490D01*
X0003858677Y0001022047D01*
X0003858120Y0001022604D01*
X0003865191Y0001029675D01*
X0003865748Y0001029118D01*
X0003866304Y0001029675D01*
X0003873375Y0001022604D01*
G36*
X0003873375Y0001278509D02*
X0003872819Y0001277952D01*
X0003873375Y0001277395D01*
X0003866304Y0001270324D01*
X0003865748Y0001270881D01*
X0003865191Y0001270324D01*
X0003858120Y0001277395D01*
X0003858677Y0001277952D01*
X0003858120Y0001278509D01*
X0003865191Y0001285580D01*
X0003865748Y0001285023D01*
X0003866304Y0001285580D01*
X0003873375Y0001278509D01*
X0003873375Y0001278509D01*
G37*
X0003873375Y0001278509D02*
X0003872819Y0001277952D01*
X0003873375Y0001277395D01*
X0003866304Y0001270324D01*
X0003865748Y0001270881D01*
X0003865191Y0001270324D01*
X0003858120Y0001277395D01*
X0003858677Y0001277952D01*
X0003858120Y0001278509D01*
X0003865191Y0001285580D01*
X0003865748Y0001285023D01*
X0003866304Y0001285580D01*
X0003873375Y0001278509D01*
G36*
X0003642555Y0001985629D02*
X0003645649Y0001969187D01*
X0003655367Y0001954085D01*
X0003666481Y0001946492D01*
X0003662365Y0001935414D01*
X0003663312Y0001909824D01*
X0003666086Y0001903127D01*
X0003656251Y0001896797D01*
X0003646120Y0001881970D01*
X0003642555Y0001864370D01*
X0003642555Y0001785629D01*
X0003645649Y0001769187D01*
X0003655367Y0001754085D01*
X0003666481Y0001746492D01*
X0003662365Y0001735414D01*
X0003663312Y0001709824D01*
X0003671284Y0001690580D01*
X0003673527Y0001689750D01*
X0003656232Y0001672485D01*
X0003643459Y0001641726D01*
X0003643430Y0001608420D01*
X0003656149Y0001577638D01*
X0003679679Y0001554066D01*
X0003710439Y0001541294D01*
X0003743745Y0001541265D01*
X0003774527Y0001553984D01*
X0003777149Y0001556601D01*
X0003779679Y0001554066D01*
X0003810439Y0001541294D01*
X0003843745Y0001541265D01*
X0003874527Y0001553984D01*
X0003877795Y0001557246D01*
X0003877795Y0001442783D01*
X0003874650Y0001445933D01*
X0003843891Y0001458705D01*
X0003810585Y0001458734D01*
X0003779803Y0001446015D01*
X0003777181Y0001443398D01*
X0003774650Y0001445933D01*
X0003743891Y0001458705D01*
X0003710585Y0001458734D01*
X0003679803Y0001446015D01*
X0003656232Y0001422485D01*
X0003653406Y0001415679D01*
X0003650600Y0001429786D01*
X0003633727Y0001455037D01*
X0003608476Y0001471909D01*
X0003578690Y0001477834D01*
X0003575640Y0001477834D01*
X0003545854Y0001471909D01*
X0003525408Y0001458248D01*
X0003518369Y0001462951D01*
X0003525631Y0001470967D01*
X0003531964Y0001486258D01*
X0003527162Y0001495000D01*
X0003482165Y0001495000D01*
X0003482165Y0001494212D01*
X0003472165Y0001494212D01*
X0003472165Y0001495000D01*
X0003427168Y0001495000D01*
X0003422366Y0001486258D01*
X0003428699Y0001470967D01*
X0003435960Y0001462951D01*
X0003422033Y0001453645D01*
X0003405587Y0001429032D01*
X0003404535Y0001423741D01*
X0003404535Y0001513741D01*
X0003422366Y0001513741D01*
X0003427168Y0001505000D01*
X0003472165Y0001505000D01*
X0003472165Y0001550024D01*
X0003482165Y0001550024D01*
X0003482165Y0001505000D01*
X0003527162Y0001505000D01*
X0003531964Y0001513741D01*
X0003525631Y0001529032D01*
X0003510832Y0001545369D01*
X0003490907Y0001554799D01*
X0003482165Y0001550024D01*
X0003472165Y0001550024D01*
X0003463423Y0001554799D01*
X0003443498Y0001545369D01*
X0003428699Y0001529032D01*
X0003422366Y0001513741D01*
X0003404535Y0001513741D01*
X0003404535Y0001661899D01*
X0003444561Y0001661899D01*
X0003447480Y0001652210D01*
X0003468630Y0001644607D01*
X0003491080Y0001645678D01*
X0003506850Y0001652210D01*
X0003509769Y0001661899D01*
X0003477165Y0001694503D01*
X0003444561Y0001661899D01*
X0003404535Y0001661899D01*
X0003404535Y0001750489D01*
X0003413241Y0001736959D01*
X0003426574Y0001727849D01*
X0003420198Y0001710109D01*
X0003421268Y0001687659D01*
X0003427800Y0001671889D01*
X0003437490Y0001668970D01*
X0003470094Y0001701574D01*
X0003469537Y0001702131D01*
X0003476608Y0001709202D01*
X0003477165Y0001708645D01*
X0003477722Y0001709202D01*
X0003484793Y0001702131D01*
X0003484236Y0001701574D01*
X0003516840Y0001668970D01*
X0003526530Y0001671889D01*
X0003534132Y0001693040D01*
X0003533062Y0001715490D01*
X0003527833Y0001728114D01*
X0003540205Y0001736076D01*
X0003550336Y0001750903D01*
X0003553900Y0001768503D01*
X0003553900Y0001831496D01*
X0003552545Y0001838700D01*
X0003567206Y0001841616D01*
X0003584196Y0001852968D01*
X0003606696Y0001875468D01*
X0003618049Y0001892458D01*
X0003618912Y0001896797D01*
X0003622035Y0001912500D01*
X0003622035Y0002030807D01*
X0003642555Y0002051328D01*
X0003642555Y0001985629D01*
X0003642555Y0001985629D01*
G37*
X0003642555Y0001985629D02*
X0003645649Y0001969187D01*
X0003655367Y0001954085D01*
X0003666481Y0001946492D01*
X0003662365Y0001935414D01*
X0003663312Y0001909824D01*
X0003666086Y0001903127D01*
X0003656251Y0001896797D01*
X0003646120Y0001881970D01*
X0003642555Y0001864370D01*
X0003642555Y0001785629D01*
X0003645649Y0001769187D01*
X0003655367Y0001754085D01*
X0003666481Y0001746492D01*
X0003662365Y0001735414D01*
X0003663312Y0001709824D01*
X0003671284Y0001690580D01*
X0003673527Y0001689750D01*
X0003656232Y0001672485D01*
X0003643459Y0001641726D01*
X0003643430Y0001608420D01*
X0003656149Y0001577638D01*
X0003679679Y0001554066D01*
X0003710439Y0001541294D01*
X0003743745Y0001541265D01*
X0003774527Y0001553984D01*
X0003777149Y0001556601D01*
X0003779679Y0001554066D01*
X0003810439Y0001541294D01*
X0003843745Y0001541265D01*
X0003874527Y0001553984D01*
X0003877795Y0001557246D01*
X0003877795Y0001442783D01*
X0003874650Y0001445933D01*
X0003843891Y0001458705D01*
X0003810585Y0001458734D01*
X0003779803Y0001446015D01*
X0003777181Y0001443398D01*
X0003774650Y0001445933D01*
X0003743891Y0001458705D01*
X0003710585Y0001458734D01*
X0003679803Y0001446015D01*
X0003656232Y0001422485D01*
X0003653406Y0001415679D01*
X0003650600Y0001429786D01*
X0003633727Y0001455037D01*
X0003608476Y0001471909D01*
X0003578690Y0001477834D01*
X0003575640Y0001477834D01*
X0003545854Y0001471909D01*
X0003525408Y0001458248D01*
X0003518369Y0001462951D01*
X0003525631Y0001470967D01*
X0003531964Y0001486258D01*
X0003527162Y0001495000D01*
X0003482165Y0001495000D01*
X0003482165Y0001494212D01*
X0003472165Y0001494212D01*
X0003472165Y0001495000D01*
X0003427168Y0001495000D01*
X0003422366Y0001486258D01*
X0003428699Y0001470967D01*
X0003435960Y0001462951D01*
X0003422033Y0001453645D01*
X0003405587Y0001429032D01*
X0003404535Y0001423741D01*
X0003404535Y0001513741D01*
X0003422366Y0001513741D01*
X0003427168Y0001505000D01*
X0003472165Y0001505000D01*
X0003472165Y0001550024D01*
X0003482165Y0001550024D01*
X0003482165Y0001505000D01*
X0003527162Y0001505000D01*
X0003531964Y0001513741D01*
X0003525631Y0001529032D01*
X0003510832Y0001545369D01*
X0003490907Y0001554799D01*
X0003482165Y0001550024D01*
X0003472165Y0001550024D01*
X0003463423Y0001554799D01*
X0003443498Y0001545369D01*
X0003428699Y0001529032D01*
X0003422366Y0001513741D01*
X0003404535Y0001513741D01*
X0003404535Y0001661899D01*
X0003444561Y0001661899D01*
X0003447480Y0001652210D01*
X0003468630Y0001644607D01*
X0003491080Y0001645678D01*
X0003506850Y0001652210D01*
X0003509769Y0001661899D01*
X0003477165Y0001694503D01*
X0003444561Y0001661899D01*
X0003404535Y0001661899D01*
X0003404535Y0001750489D01*
X0003413241Y0001736959D01*
X0003426574Y0001727849D01*
X0003420198Y0001710109D01*
X0003421268Y0001687659D01*
X0003427800Y0001671889D01*
X0003437490Y0001668970D01*
X0003470094Y0001701574D01*
X0003469537Y0001702131D01*
X0003476608Y0001709202D01*
X0003477165Y0001708645D01*
X0003477722Y0001709202D01*
X0003484793Y0001702131D01*
X0003484236Y0001701574D01*
X0003516840Y0001668970D01*
X0003526530Y0001671889D01*
X0003534132Y0001693040D01*
X0003533062Y0001715490D01*
X0003527833Y0001728114D01*
X0003540205Y0001736076D01*
X0003550336Y0001750903D01*
X0003553900Y0001768503D01*
X0003553900Y0001831496D01*
X0003552545Y0001838700D01*
X0003567206Y0001841616D01*
X0003584196Y0001852968D01*
X0003606696Y0001875468D01*
X0003618049Y0001892458D01*
X0003618912Y0001896797D01*
X0003622035Y0001912500D01*
X0003622035Y0002030807D01*
X0003642555Y0002051328D01*
X0003642555Y0001985629D01*
G36*
X0003734793Y0001725556D02*
X0003734236Y0001725000D01*
X0003734793Y0001724443D01*
X0003727722Y0001717372D01*
X0003727165Y0001717928D01*
X0003726608Y0001717372D01*
X0003719537Y0001724443D01*
X0003720094Y0001725000D01*
X0003719537Y0001725556D01*
X0003726608Y0001732627D01*
X0003727165Y0001732071D01*
X0003727722Y0001732627D01*
X0003734793Y0001725556D01*
X0003734793Y0001725556D01*
G37*
X0003734793Y0001725556D02*
X0003734236Y0001725000D01*
X0003734793Y0001724443D01*
X0003727722Y0001717372D01*
X0003727165Y0001717928D01*
X0003726608Y0001717372D01*
X0003719537Y0001724443D01*
X0003720094Y0001725000D01*
X0003719537Y0001725556D01*
X0003726608Y0001732627D01*
X0003727165Y0001732071D01*
X0003727722Y0001732627D01*
X0003734793Y0001725556D01*
G36*
X0003734793Y0001925556D02*
X0003734236Y0001925000D01*
X0003734793Y0001924443D01*
X0003727722Y0001917372D01*
X0003727165Y0001917928D01*
X0003726608Y0001917372D01*
X0003719537Y0001924443D01*
X0003720094Y0001925000D01*
X0003719537Y0001925556D01*
X0003726608Y0001932627D01*
X0003727165Y0001932071D01*
X0003727722Y0001932627D01*
X0003734793Y0001925556D01*
X0003734793Y0001925556D01*
G37*
X0003734793Y0001925556D02*
X0003734236Y0001925000D01*
X0003734793Y0001924443D01*
X0003727722Y0001917372D01*
X0003727165Y0001917928D01*
X0003726608Y0001917372D01*
X0003719537Y0001924443D01*
X0003720094Y0001925000D01*
X0003719537Y0001925556D01*
X0003726608Y0001932627D01*
X0003727165Y0001932071D01*
X0003727722Y0001932627D01*
X0003734793Y0001925556D01*
G36*
X0002922165Y0001975000D02*
X0002922952Y0001975000D01*
X0002922952Y0001965000D01*
X0002922165Y0001965000D01*
X0002922165Y0001964212D01*
X0002912165Y0001964212D01*
X0002912165Y0001965000D01*
X0002911377Y0001965000D01*
X0002911377Y0001975000D01*
X0002912165Y0001975000D01*
X0002912165Y0001975787D01*
X0002922165Y0001975787D01*
X0002922165Y0001975000D01*
X0002922165Y0001975000D01*
G37*
X0002922165Y0001975000D02*
X0002922952Y0001975000D01*
X0002922952Y0001965000D01*
X0002922165Y0001965000D01*
X0002922165Y0001964212D01*
X0002912165Y0001964212D01*
X0002912165Y0001965000D01*
X0002911377Y0001965000D01*
X0002911377Y0001975000D01*
X0002912165Y0001975000D01*
X0002912165Y0001975787D01*
X0002922165Y0001975787D01*
X0002922165Y0001975000D01*
G36*
X0003734793Y0002125556D02*
X0003734236Y0002125000D01*
X0003734793Y0002124443D01*
X0003727722Y0002117372D01*
X0003727165Y0002117928D01*
X0003726608Y0002117372D01*
X0003719537Y0002124443D01*
X0003720094Y0002125000D01*
X0003719537Y0002125556D01*
X0003726608Y0002132627D01*
X0003727165Y0002132071D01*
X0003727722Y0002132627D01*
X0003734793Y0002125556D01*
X0003734793Y0002125556D01*
G37*
X0003734793Y0002125556D02*
X0003734236Y0002125000D01*
X0003734793Y0002124443D01*
X0003727722Y0002117372D01*
X0003727165Y0002117928D01*
X0003726608Y0002117372D01*
X0003719537Y0002124443D01*
X0003720094Y0002125000D01*
X0003719537Y0002125556D01*
X0003726608Y0002132627D01*
X0003727165Y0002132071D01*
X0003727722Y0002132627D01*
X0003734793Y0002125556D01*
M02*