%MOIN*%
%OFA0B0*%
%FSLAX46Y46*%
%IPPOS*%
%LPD*%
%ADD10C,0.0039370078740157488*%
%ADD11C,0.066*%
%ADD12C,0.07874015748031496*%
%ADD13R,0.07874015748031496X0.07874015748031496*%
%ADD14R,0.062992125984251982X0.062992125984251982*%
%ADD15C,0.062992125984251982*%
%ADD16R,0.066929133858267723X0.066929133858267723*%
%ADD17O,0.066929133858267723X0.066929133858267723*%
%ADD18R,0.051181102362204731X0.051181102362204731*%
%ADD19C,0.051181102362204731*%
%ADD20O,0.062992125984251982X0.062992125984251982*%
%ADD21R,0.08X0.068*%
%ADD22O,0.08X0.068*%
%ADD23R,0.055000000000000007X0.055000000000000007*%
%ADD24C,0.055000000000000007*%
%ADD25C,0.094488188976377951*%
%ADD26R,0.094488188976377951X0.094488188976377951*%
%ADD27C,0.0787*%
%ADD28C,0.070866141732283464*%
%ADD29R,0.023622047244094488X0.015748031496062995*%
%ADD30C,0.024000000000000004*%
%ADD31C,0.016*%
%ADD32C,0.01*%
%ADD43C,0.0039370078740157488*%
%ADD44C,0.066*%
%ADD45C,0.07874015748031496*%
%ADD46R,0.07874015748031496X0.07874015748031496*%
%ADD47R,0.062992125984251982X0.062992125984251982*%
%ADD48C,0.062992125984251982*%
%ADD49R,0.066929133858267723X0.066929133858267723*%
%ADD50O,0.066929133858267723X0.066929133858267723*%
%ADD51R,0.051181102362204731X0.051181102362204731*%
%ADD52C,0.051181102362204731*%
%ADD53O,0.062992125984251982X0.062992125984251982*%
%ADD54R,0.068X0.08*%
%ADD55O,0.068X0.08*%
%ADD56R,0.055000000000000007X0.055000000000000007*%
%ADD57C,0.055000000000000007*%
%ADD58C,0.094488188976377951*%
%ADD59R,0.094488188976377951X0.094488188976377951*%
%ADD60C,0.0787*%
%ADD61C,0.070866141732283464*%
%ADD62R,0.015748031496062995X0.023622047244094488*%
%ADD63C,0.024000000000000004*%
%ADD64C,0.016*%
%ADD65C,0.01*%
%ADD66C,0.0039370078740157488*%
%ADD67C,0.066*%
%ADD68C,0.07874015748031496*%
%ADD69R,0.07874015748031496X0.07874015748031496*%
%ADD70R,0.062992125984251982X0.062992125984251982*%
%ADD71C,0.062992125984251982*%
%ADD72R,0.066929133858267723X0.066929133858267723*%
%ADD73O,0.066929133858267723X0.066929133858267723*%
%ADD74R,0.051181102362204731X0.051181102362204731*%
%ADD75C,0.051181102362204731*%
%ADD76O,0.062992125984251982X0.062992125984251982*%
%ADD77R,0.08X0.068*%
%ADD78O,0.08X0.068*%
%ADD79R,0.055000000000000007X0.055000000000000007*%
%ADD80C,0.055000000000000007*%
%ADD81C,0.094488188976377951*%
%ADD82R,0.094488188976377951X0.094488188976377951*%
%ADD83C,0.0787*%
%ADD84C,0.070866141732283464*%
%ADD85R,0.023622047244094488X0.015748031496062995*%
%ADD86C,0.024000000000000004*%
%ADD87C,0.016*%
%ADD88C,0.01*%
%ADD89C,0.0039370078740157488*%
%ADD90C,0.066*%
%ADD91C,0.07874015748031496*%
%ADD92R,0.07874015748031496X0.07874015748031496*%
%ADD93R,0.062992125984251982X0.062992125984251982*%
%ADD94C,0.062992125984251982*%
%ADD95R,0.066929133858267723X0.066929133858267723*%
%ADD96O,0.066929133858267723X0.066929133858267723*%
%ADD97R,0.051181102362204731X0.051181102362204731*%
%ADD98C,0.051181102362204731*%
%ADD99O,0.062992125984251982X0.062992125984251982*%
%ADD100R,0.08X0.068*%
%ADD101O,0.08X0.068*%
%ADD102R,0.055000000000000007X0.055000000000000007*%
%ADD103C,0.055000000000000007*%
%ADD104C,0.094488188976377951*%
%ADD105R,0.094488188976377951X0.094488188976377951*%
%ADD106C,0.0787*%
%ADD107C,0.070866141732283464*%
%ADD108R,0.023622047244094488X0.015748031496062995*%
%ADD109C,0.024000000000000004*%
%ADD110C,0.016*%
%ADD111C,0.01*%
G01*
D10*
D11*
X-0004799999Y0004650000D02*
X0001050000Y0000075000D03*
X0001050000Y0000175000D03*
D12*
X0001050000Y0000475000D03*
D13*
X0001050000Y0000575000D03*
D14*
X0000100000Y0000250000D03*
D15*
X0000100000Y0000348425D03*
X0000100000Y0000446850D03*
X0000100000Y0000545275D03*
X0000100000Y0000643700D03*
D14*
X0000450000Y0000450000D03*
D15*
X0000548425Y0000450000D03*
D16*
X0000900000Y0000100000D03*
D17*
X0000900000Y0000200000D03*
X0000900000Y0000300000D03*
X0000900000Y0000400000D03*
X0000900000Y0000500000D03*
X0000900000Y0000600000D03*
X0000900000Y0000700000D03*
X0000900000Y0000800000D03*
X0000900000Y0000900000D03*
X0000900000Y0001000000D03*
X0000900000Y0001100000D03*
X0000900000Y0001200000D03*
X0000900000Y0001300000D03*
X0000900000Y0001400000D03*
D18*
X0000450000Y0000275000D03*
D19*
X0000450000Y0000176574D03*
D20*
X0000800000Y0000700000D03*
X0000800000Y0000800000D03*
X0000800000Y0000900000D03*
X0000800000Y0001000000D03*
X0000800000Y0001100000D03*
X0000800000Y0001200000D03*
X0000800000Y0001300000D03*
X0000800000Y0001400000D03*
X0000800000Y0001500000D03*
X0000500000Y0001500000D03*
X0000500000Y0001400000D03*
X0000500000Y0001300000D03*
X0000500000Y0001200000D03*
X0000500000Y0001100000D03*
X0000500000Y0001000000D03*
X0000500000Y0000900000D03*
X0000500000Y0000800000D03*
X0000500000Y0000700000D03*
D14*
X0000100000Y0000950000D03*
D15*
X0000100000Y0001048425D03*
X0000100000Y0001146850D03*
X0000100000Y0001245275D03*
X0000100000Y0001343700D03*
X0000800000Y0001751574D03*
D14*
X0000800000Y0001850000D03*
D21*
X0000500000Y0001700000D03*
D22*
X0000500000Y0001800000D03*
X0000500000Y0001900000D03*
D23*
X0000400000Y0002150000D03*
D24*
X0000500000Y0002150000D03*
X0000600000Y0002150000D03*
D25*
X0000240000Y0001832204D03*
D26*
X0000240000Y0001970000D03*
D25*
X0000240000Y0001542204D03*
D26*
X0000240000Y0001680000D03*
D12*
X0001050000Y0001725000D03*
D13*
X0001050000Y0001825000D03*
D27*
X0001050000Y0000925000D03*
X0001050000Y0000675000D03*
X0001150000Y0001375000D03*
X0001150000Y0001625000D03*
X0001150000Y0000925000D03*
X0001150000Y0000675000D03*
X0001050000Y0001375000D03*
X0001050000Y0001625000D03*
D15*
X0000775000Y0000275000D03*
X0000775000Y0000525000D03*
X0000675000Y0000275000D03*
X0000675000Y0000525000D03*
D28*
X0001011417Y0001277952D03*
X0001188582Y0001277952D03*
X0001011417Y0001022047D03*
X0001188582Y0001022047D03*
D16*
X0000300000Y0000100000D03*
D17*
X0000300000Y0000200000D03*
X0000300000Y0000300000D03*
X0000300000Y0000400000D03*
X0000300000Y0000500000D03*
X0000300000Y0000600000D03*
X0000300000Y0000700000D03*
X0000300000Y0000800000D03*
X0000300000Y0000900000D03*
X0000300000Y0001000000D03*
X0000300000Y0001100000D03*
X0000300000Y0001200000D03*
X0000300000Y0001300000D03*
X0000300000Y0001400000D03*
D29*
X0000410000Y0000697716D03*
X0000410000Y0000662283D03*
D12*
X0001050000Y0000275000D03*
D13*
X0001050000Y0000375000D03*
D12*
X0001050000Y0001925000D03*
D13*
X0001050000Y0002025000D03*
D11*
X0001050000Y0002125000D03*
X0001050000Y0002225000D03*
D30*
X0000450000Y0000176574D02*
X0000383425Y0000176574D01*
X0000360000Y0000200000D02*
X0000300000Y0000200000D01*
X0000383425Y0000176574D02*
X0000360000Y0000200000D01*
D31*
X0001188582Y0001022047D02*
X0001188582Y0001111417D01*
X0000750000Y0001500000D02*
X0000800000Y0001500000D01*
X0000725000Y0001475000D02*
X0000750000Y0001500000D01*
X0000725000Y0001175000D02*
X0000725000Y0001475000D01*
X0000750000Y0001150000D02*
X0000725000Y0001175000D01*
X0001150000Y0001150000D02*
X0000750000Y0001150000D01*
X0001188582Y0001111417D02*
X0001150000Y0001150000D01*
D30*
X0000548425Y0000450000D02*
X0000548425Y0000548425D01*
X0000550000Y0001900000D02*
X0000500000Y0001900000D01*
X0000600000Y0001850000D02*
X0000550000Y0001900000D01*
X0000600000Y0000600000D02*
X0000600000Y0001850000D01*
X0000548425Y0000548425D02*
X0000600000Y0000600000D01*
D31*
X0001185629Y0001275000D02*
X0001188582Y0001277952D01*
X0001188582Y0001277952D02*
X0001188582Y0001022047D01*
X0000825000Y0000375000D02*
X0000825000Y0000500000D01*
X0000370000Y0000280000D02*
X0000425000Y0000225000D01*
X0000425000Y0000225000D02*
X0000525000Y0000225000D01*
X0000525000Y0000225000D02*
X0000625000Y0000325000D01*
X0000625000Y0000325000D02*
X0000775000Y0000325000D01*
X0000775000Y0000325000D02*
X0000825000Y0000375000D01*
X0001150000Y0000925000D02*
X0000975000Y0000750000D01*
X0000337500Y0000600000D02*
X0000300000Y0000600000D01*
X0000370000Y0000567500D02*
X0000337500Y0000600000D01*
X0000370000Y0000415000D02*
X0000370000Y0000567500D01*
X0000370000Y0000415000D02*
X0000370000Y0000280000D01*
X0000975000Y0000575000D02*
X0000975000Y0000750000D01*
X0000950000Y0000550000D02*
X0000975000Y0000575000D01*
X0000875000Y0000550000D02*
X0000950000Y0000550000D01*
X0000825000Y0000500000D02*
X0000875000Y0000550000D01*
X0001150000Y0000925000D02*
X0001150000Y0000887500D01*
D30*
X0000240000Y0001832204D02*
X0000240000Y0001680000D01*
X0000240000Y0001542204D02*
X0000267204Y0001542204D01*
X0000267204Y0001542204D02*
X0000350000Y0001625000D01*
X0000350000Y0001625000D02*
X0000350000Y0002100000D01*
X0000350000Y0002100000D02*
X0000400000Y0002150000D01*
D31*
X0000900000Y0000500000D02*
X0000905000Y0000500000D01*
X0000410000Y0000697716D02*
X0000410000Y0001050000D01*
X0000360000Y0001100000D02*
X0000300000Y0001100000D01*
X0000410000Y0001050000D02*
X0000360000Y0001100000D01*
X0000410000Y0000662283D02*
X0000410000Y0000697716D01*
X0000775000Y0000525000D02*
X0000765000Y0000525000D01*
X0000765000Y0000525000D02*
X0000610000Y0000370000D01*
X0000410000Y0000600000D02*
X0000410000Y0000662283D01*
X0000500000Y0000510000D02*
X0000410000Y0000600000D01*
X0000500000Y0000390000D02*
X0000500000Y0000510000D01*
X0000520000Y0000370000D02*
X0000500000Y0000390000D01*
X0000610000Y0000370000D02*
X0000520000Y0000370000D01*
X0001050000Y0002225000D02*
X0001015000Y0002225000D01*
X0000675000Y0001875000D02*
X0000675000Y0000525000D01*
X0000675000Y0001875000D02*
X0000800000Y0002000000D01*
X0000850000Y0002050000D02*
X0000800000Y0002000000D01*
X0000890000Y0002050000D02*
X0000850000Y0002050000D01*
X0000970000Y0002130000D02*
X0000890000Y0002050000D01*
X0000970000Y0002180000D02*
X0000970000Y0002130000D01*
X0001015000Y0002225000D02*
X0000970000Y0002180000D01*
X0000675000Y0000525000D02*
X0000675000Y0000550000D01*
X0000675000Y0000550000D02*
X0000725000Y0000600000D01*
X0000725000Y0000600000D02*
X0000900000Y0000600000D01*
X0001025000Y0002225000D02*
X0001050000Y0002225000D01*
D30*
X0000100000Y0000643700D02*
X0000131299Y0000643700D01*
X0000131299Y0000643700D02*
X0000200000Y0000575000D01*
X0000250000Y0000100000D02*
X0000300000Y0000100000D01*
X0000200000Y0000150000D02*
X0000250000Y0000100000D01*
X0000200000Y0000575000D02*
X0000200000Y0000150000D01*
X0000100000Y0000643700D02*
X0000106299Y0000643700D01*
X0000175000Y0000800000D02*
X0000175000Y0000718700D01*
X0000175000Y0000800000D02*
X0000175000Y0001268700D01*
X0000100000Y0001343700D02*
X0000175000Y0001268700D01*
X0000175000Y0000718700D02*
X0000100000Y0000643700D01*
X0000100000Y0001343700D02*
X0000100000Y0001350000D01*
X0000100000Y0001350000D02*
X0000175000Y0001425000D01*
X0000475000Y0001475000D02*
X0000500000Y0001500000D01*
X0000275000Y0001475000D02*
X0000475000Y0001475000D01*
X0000225000Y0001425000D02*
X0000275000Y0001475000D01*
X0000175000Y0001425000D02*
X0000225000Y0001425000D01*
X0000500000Y0001800000D02*
X0000450000Y0001800000D01*
X0000450000Y0001800000D02*
X0000400000Y0001750000D01*
X0000500000Y0002150000D02*
X0000500000Y0002125000D01*
X0000500000Y0002125000D02*
X0000400000Y0002025000D01*
X0000400000Y0002025000D02*
X0000400000Y0001750000D01*
X0000400000Y0001750000D02*
X0000400000Y0001600000D01*
X0000400000Y0001600000D02*
X0000500000Y0001500000D01*
D31*
X0000775000Y0000275000D02*
X0000675000Y0000275000D01*
X0000900000Y0000200000D02*
X0000815000Y0000200000D01*
X0000775000Y0000240000D02*
X0000775000Y0000275000D01*
X0000815000Y0000200000D02*
X0000775000Y0000240000D01*
D32*
G36*
X0000387968Y0000187968D02*
X0000394360Y0000183697D01*
X0000399095Y0000180534D01*
X0000400075Y0000163605D01*
X0000405527Y0000150443D01*
X0000414605Y0000148251D01*
X0000438984Y0000172629D01*
X0000461015Y0000172629D01*
X0000485394Y0000148251D01*
X0000491653Y0000149762D01*
X0000491634Y0000128543D01*
X0000508094Y0000088706D01*
X0000538546Y0000058201D01*
X0000559815Y0000049370D01*
X0000375227Y0000049370D01*
X0000378703Y0000066535D01*
X0000378703Y0000133464D01*
X0000377252Y0000141180D01*
X0000421676Y0000141180D01*
X0000423868Y0000132101D01*
X0000442877Y0000125487D01*
X0000462969Y0000126650D01*
X0000476131Y0000132101D01*
X0000478323Y0000141180D01*
X0000450000Y0000169503D01*
X0000421676Y0000141180D01*
X0000377252Y0000141180D01*
X0000375610Y0000149907D01*
X0000365892Y0000165008D01*
X0000352007Y0000174496D01*
X0000356751Y0000185949D01*
X0000351974Y0000195000D01*
X0000305000Y0000195000D01*
X0000305000Y0000194212D01*
X0000295000Y0000194212D01*
X0000295000Y0000195000D01*
X0000294212Y0000195000D01*
X0000294212Y0000205000D01*
X0000295000Y0000205000D01*
X0000295000Y0000205787D01*
X0000305000Y0000205787D01*
X0000305000Y0000205000D01*
X0000351974Y0000205000D01*
X0000356751Y0000214050D01*
X0000353119Y0000222817D01*
X0000387968Y0000187968D01*
X0000387968Y0000187968D01*
G37*
X0000387968Y0000187968D02*
X0000394360Y0000183697D01*
X0000399095Y0000180534D01*
X0000400075Y0000163605D01*
X0000405527Y0000150443D01*
X0000414605Y0000148251D01*
X0000438984Y0000172629D01*
X0000461015Y0000172629D01*
X0000485394Y0000148251D01*
X0000491653Y0000149762D01*
X0000491634Y0000128543D01*
X0000508094Y0000088706D01*
X0000538546Y0000058201D01*
X0000559815Y0000049370D01*
X0000375227Y0000049370D01*
X0000378703Y0000066535D01*
X0000378703Y0000133464D01*
X0000377252Y0000141180D01*
X0000421676Y0000141180D01*
X0000423868Y0000132101D01*
X0000442877Y0000125487D01*
X0000462969Y0000126650D01*
X0000476131Y0000132101D01*
X0000478323Y0000141180D01*
X0000450000Y0000169503D01*
X0000421676Y0000141180D01*
X0000377252Y0000141180D01*
X0000375610Y0000149907D01*
X0000365892Y0000165008D01*
X0000352007Y0000174496D01*
X0000356751Y0000185949D01*
X0000351974Y0000195000D01*
X0000305000Y0000195000D01*
X0000305000Y0000194212D01*
X0000295000Y0000194212D01*
X0000295000Y0000195000D01*
X0000294212Y0000195000D01*
X0000294212Y0000205000D01*
X0000295000Y0000205000D01*
X0000295000Y0000205787D01*
X0000305000Y0000205787D01*
X0000305000Y0000205000D01*
X0000351974Y0000205000D01*
X0000356751Y0000214050D01*
X0000353119Y0000222817D01*
X0000387968Y0000187968D01*
G36*
X0001057627Y0000075556D02*
X0001057071Y0000075000D01*
X0001057627Y0000074443D01*
X0001050556Y0000067372D01*
X0001050000Y0000067928D01*
X0001049443Y0000067372D01*
X0001042372Y0000074443D01*
X0001042928Y0000075000D01*
X0001042372Y0000075556D01*
X0001049443Y0000082627D01*
X0001050000Y0000082071D01*
X0001050556Y0000082627D01*
X0001057627Y0000075556D01*
X0001057627Y0000075556D01*
G37*
X0001057627Y0000075556D02*
X0001057071Y0000075000D01*
X0001057627Y0000074443D01*
X0001050556Y0000067372D01*
X0001050000Y0000067928D01*
X0001049443Y0000067372D01*
X0001042372Y0000074443D01*
X0001042928Y0000075000D01*
X0001042372Y0000075556D01*
X0001049443Y0000082627D01*
X0001050000Y0000082071D01*
X0001050556Y0000082627D01*
X0001057627Y0000075556D01*
G36*
X0001057627Y0000275556D02*
X0001057071Y0000275000D01*
X0001057627Y0000274443D01*
X0001050556Y0000267372D01*
X0001050000Y0000267928D01*
X0001049443Y0000267372D01*
X0001042372Y0000274443D01*
X0001042928Y0000275000D01*
X0001042372Y0000275556D01*
X0001049443Y0000282627D01*
X0001050000Y0000282071D01*
X0001050556Y0000282627D01*
X0001057627Y0000275556D01*
X0001057627Y0000275556D01*
G37*
X0001057627Y0000275556D02*
X0001057071Y0000275000D01*
X0001057627Y0000274443D01*
X0001050556Y0000267372D01*
X0001050000Y0000267928D01*
X0001049443Y0000267372D01*
X0001042372Y0000274443D01*
X0001042928Y0000275000D01*
X0001042372Y0000275556D01*
X0001049443Y0000282627D01*
X0001050000Y0000282071D01*
X0001050556Y0000282627D01*
X0001057627Y0000275556D01*
G36*
X0000788706Y0002241905D02*
X0000758201Y0002211453D01*
X0000741672Y0002171645D01*
X0000741634Y0002128543D01*
X0000758094Y0002088706D01*
X0000786344Y0002060407D01*
X0000637968Y0001912031D01*
X0000626616Y0001895041D01*
X0000622629Y0001875000D01*
X0000622629Y0000579918D01*
X0000610721Y0000568030D01*
X0000599147Y0000540156D01*
X0000599120Y0000509975D01*
X0000610646Y0000482081D01*
X0000629316Y0000463378D01*
X0000604264Y0000438326D01*
X0000605392Y0000441465D01*
X0000604322Y0000463915D01*
X0000597789Y0000479685D01*
X0000588100Y0000482603D01*
X0000555496Y0000450000D01*
X0000556053Y0000449443D01*
X0000552370Y0000445760D01*
X0000552370Y0000461015D01*
X0000581029Y0000489675D01*
X0000578110Y0000499364D01*
X0000556959Y0000506967D01*
X0000552370Y0000506748D01*
X0000552370Y0000510000D01*
X0000548383Y0000530041D01*
X0000547822Y0000530881D01*
X0000537031Y0000547031D01*
X0000462370Y0000621692D01*
X0000462370Y0000634660D01*
X0000469481Y0000629908D01*
X0000498513Y0000624133D01*
X0000501486Y0000624133D01*
X0000530519Y0000629908D01*
X0000555131Y0000646354D01*
X0000571577Y0000670967D01*
X0000577352Y0000700000D01*
X0000571577Y0000729032D01*
X0000557567Y0000750000D01*
X0000571577Y0000770967D01*
X0000577352Y0000800000D01*
X0000571577Y0000829032D01*
X0000557567Y0000850000D01*
X0000571577Y0000870967D01*
X0000577352Y0000900000D01*
X0000571577Y0000929032D01*
X0000557567Y0000950000D01*
X0000571577Y0000970967D01*
X0000577352Y0001000000D01*
X0000571577Y0001029032D01*
X0000557567Y0001050000D01*
X0000571577Y0001070967D01*
X0000577352Y0001100000D01*
X0000571577Y0001129032D01*
X0000557567Y0001150000D01*
X0000571577Y0001170967D01*
X0000577352Y0001200000D01*
X0000571577Y0001229032D01*
X0000557567Y0001250000D01*
X0000571577Y0001270967D01*
X0000577352Y0001300000D01*
X0000571577Y0001329032D01*
X0000557567Y0001350000D01*
X0000571577Y0001370967D01*
X0000577352Y0001400000D01*
X0000571577Y0001429032D01*
X0000557567Y0001450000D01*
X0000571577Y0001470967D01*
X0000577352Y0001500000D01*
X0000571577Y0001529032D01*
X0000555131Y0001553645D01*
X0000530519Y0001570091D01*
X0000504440Y0001575278D01*
X0000458694Y0001621025D01*
X0000460000Y0001620760D01*
X0000540000Y0001620760D01*
X0000556442Y0001623854D01*
X0000571544Y0001633572D01*
X0000581675Y0001648399D01*
X0000585239Y0001666000D01*
X0000585239Y0001734000D01*
X0000582145Y0001750442D01*
X0000574707Y0001762001D01*
X0000580057Y0001770009D01*
X0000586023Y0001800000D01*
X0000580057Y0001829990D01*
X0000563068Y0001855416D01*
X0000551601Y0001863078D01*
X0000553178Y0001864486D01*
X0000563177Y0001885244D01*
X0000563281Y0001885865D01*
X0000558512Y0001895000D01*
X0000505000Y0001895000D01*
X0000505000Y0001894212D01*
X0000495000Y0001894212D01*
X0000495000Y0001895000D01*
X0000494212Y0001895000D01*
X0000494212Y0001905000D01*
X0000495000Y0001905000D01*
X0000495000Y0001952792D01*
X0000505000Y0001952792D01*
X0000505000Y0001905000D01*
X0000558512Y0001905000D01*
X0000563281Y0001914134D01*
X0000563177Y0001914755D01*
X0000553178Y0001935513D01*
X0000535996Y0001950864D01*
X0000514248Y0001958471D01*
X0000505000Y0001952792D01*
X0000495000Y0001952792D01*
X0000485751Y0001958471D01*
X0000464003Y0001950864D01*
X0000456370Y0001944044D01*
X0000456370Y0002001650D01*
X0000539859Y0002085140D01*
X0000546077Y0002094446D01*
X0000549998Y0002098360D01*
X0000559235Y0002089107D01*
X0000585641Y0002078142D01*
X0000614233Y0002078117D01*
X0000640657Y0002089035D01*
X0000660892Y0002109235D01*
X0000671857Y0002135641D01*
X0000671882Y0002164233D01*
X0000660964Y0002190657D01*
X0000640764Y0002210892D01*
X0000614358Y0002221857D01*
X0000585766Y0002221882D01*
X0000559342Y0002210964D01*
X0000550001Y0002201639D01*
X0000540764Y0002210892D01*
X0000514358Y0002221857D01*
X0000485766Y0002221882D01*
X0000459342Y0002210964D01*
X0000458438Y0002210061D01*
X0000445100Y0002219175D01*
X0000427500Y0002222739D01*
X0000372500Y0002222739D01*
X0000356057Y0002219645D01*
X0000340955Y0002209927D01*
X0000330824Y0002195100D01*
X0000327260Y0002177500D01*
X0000327260Y0002156979D01*
X0000310140Y0002139859D01*
X0000297920Y0002121571D01*
X0000293629Y0002100000D01*
X0000293629Y0002041658D01*
X0000292216Y0002042244D01*
X0000251250Y0002042244D01*
X0000245000Y0002035994D01*
X0000245000Y0001975000D01*
X0000245787Y0001975000D01*
X0000245787Y0001965000D01*
X0000245000Y0001965000D01*
X0000245000Y0001964212D01*
X0000235000Y0001964212D01*
X0000235000Y0001965000D01*
X0000174005Y0001965000D01*
X0000167755Y0001958750D01*
X0000167755Y0001917783D01*
X0000171561Y0001908594D01*
X0000178594Y0001901561D01*
X0000179448Y0001901208D01*
X0000162378Y0001884167D01*
X0000148401Y0001850507D01*
X0000148370Y0001814061D01*
X0000162288Y0001780377D01*
X0000174452Y0001768191D01*
X0000161211Y0001759672D01*
X0000151080Y0001744844D01*
X0000147516Y0001727244D01*
X0000147516Y0001632755D01*
X0000150610Y0001616313D01*
X0000160328Y0001601211D01*
X0000165734Y0001597517D01*
X0000162378Y0001594167D01*
X0000148401Y0001560507D01*
X0000148370Y0001524061D01*
X0000162288Y0001490377D01*
X0000171895Y0001480752D01*
X0000153428Y0001477079D01*
X0000135140Y0001464859D01*
X0000089856Y0001419575D01*
X0000084975Y0001419580D01*
X0000057081Y0001408054D01*
X0000049370Y0001400356D01*
X0000049370Y0002022216D01*
X0000167755Y0002022216D01*
X0000167755Y0001981250D01*
X0000174005Y0001975000D01*
X0000235000Y0001975000D01*
X0000235000Y0002035994D01*
X0000228750Y0002042244D01*
X0000187783Y0002042244D01*
X0000178594Y0002038438D01*
X0000171561Y0002031405D01*
X0000167755Y0002022216D01*
X0000049370Y0002022216D01*
X0000049370Y0002109822D01*
X0000058094Y0002088706D01*
X0000088546Y0002058201D01*
X0000128354Y0002041672D01*
X0000171456Y0002041634D01*
X0000211293Y0002058094D01*
X0000241798Y0002088546D01*
X0000258327Y0002128354D01*
X0000258365Y0002171456D01*
X0000241905Y0002211293D01*
X0000211453Y0002241798D01*
X0000190184Y0002250629D01*
X0000809822Y0002250629D01*
X0000788706Y0002241905D01*
X0000788706Y0002241905D01*
G37*
X0000788706Y0002241905D02*
X0000758201Y0002211453D01*
X0000741672Y0002171645D01*
X0000741634Y0002128543D01*
X0000758094Y0002088706D01*
X0000786344Y0002060407D01*
X0000637968Y0001912031D01*
X0000626616Y0001895041D01*
X0000622629Y0001875000D01*
X0000622629Y0000579918D01*
X0000610721Y0000568030D01*
X0000599147Y0000540156D01*
X0000599120Y0000509975D01*
X0000610646Y0000482081D01*
X0000629316Y0000463378D01*
X0000604264Y0000438326D01*
X0000605392Y0000441465D01*
X0000604322Y0000463915D01*
X0000597789Y0000479685D01*
X0000588100Y0000482603D01*
X0000555496Y0000450000D01*
X0000556053Y0000449443D01*
X0000552370Y0000445760D01*
X0000552370Y0000461015D01*
X0000581029Y0000489675D01*
X0000578110Y0000499364D01*
X0000556959Y0000506967D01*
X0000552370Y0000506748D01*
X0000552370Y0000510000D01*
X0000548383Y0000530041D01*
X0000547822Y0000530881D01*
X0000537031Y0000547031D01*
X0000462370Y0000621692D01*
X0000462370Y0000634660D01*
X0000469481Y0000629908D01*
X0000498513Y0000624133D01*
X0000501486Y0000624133D01*
X0000530519Y0000629908D01*
X0000555131Y0000646354D01*
X0000571577Y0000670967D01*
X0000577352Y0000700000D01*
X0000571577Y0000729032D01*
X0000557567Y0000750000D01*
X0000571577Y0000770967D01*
X0000577352Y0000800000D01*
X0000571577Y0000829032D01*
X0000557567Y0000850000D01*
X0000571577Y0000870967D01*
X0000577352Y0000900000D01*
X0000571577Y0000929032D01*
X0000557567Y0000950000D01*
X0000571577Y0000970967D01*
X0000577352Y0001000000D01*
X0000571577Y0001029032D01*
X0000557567Y0001050000D01*
X0000571577Y0001070967D01*
X0000577352Y0001100000D01*
X0000571577Y0001129032D01*
X0000557567Y0001150000D01*
X0000571577Y0001170967D01*
X0000577352Y0001200000D01*
X0000571577Y0001229032D01*
X0000557567Y0001250000D01*
X0000571577Y0001270967D01*
X0000577352Y0001300000D01*
X0000571577Y0001329032D01*
X0000557567Y0001350000D01*
X0000571577Y0001370967D01*
X0000577352Y0001400000D01*
X0000571577Y0001429032D01*
X0000557567Y0001450000D01*
X0000571577Y0001470967D01*
X0000577352Y0001500000D01*
X0000571577Y0001529032D01*
X0000555131Y0001553645D01*
X0000530519Y0001570091D01*
X0000504440Y0001575278D01*
X0000458694Y0001621025D01*
X0000460000Y0001620760D01*
X0000540000Y0001620760D01*
X0000556442Y0001623854D01*
X0000571544Y0001633572D01*
X0000581675Y0001648399D01*
X0000585239Y0001666000D01*
X0000585239Y0001734000D01*
X0000582145Y0001750442D01*
X0000574707Y0001762001D01*
X0000580057Y0001770009D01*
X0000586023Y0001800000D01*
X0000580057Y0001829990D01*
X0000563068Y0001855416D01*
X0000551601Y0001863078D01*
X0000553178Y0001864486D01*
X0000563177Y0001885244D01*
X0000563281Y0001885865D01*
X0000558512Y0001895000D01*
X0000505000Y0001895000D01*
X0000505000Y0001894212D01*
X0000495000Y0001894212D01*
X0000495000Y0001895000D01*
X0000494212Y0001895000D01*
X0000494212Y0001905000D01*
X0000495000Y0001905000D01*
X0000495000Y0001952792D01*
X0000505000Y0001952792D01*
X0000505000Y0001905000D01*
X0000558512Y0001905000D01*
X0000563281Y0001914134D01*
X0000563177Y0001914755D01*
X0000553178Y0001935513D01*
X0000535996Y0001950864D01*
X0000514248Y0001958471D01*
X0000505000Y0001952792D01*
X0000495000Y0001952792D01*
X0000485751Y0001958471D01*
X0000464003Y0001950864D01*
X0000456370Y0001944044D01*
X0000456370Y0002001650D01*
X0000539859Y0002085140D01*
X0000546077Y0002094446D01*
X0000549998Y0002098360D01*
X0000559235Y0002089107D01*
X0000585641Y0002078142D01*
X0000614233Y0002078117D01*
X0000640657Y0002089035D01*
X0000660892Y0002109235D01*
X0000671857Y0002135641D01*
X0000671882Y0002164233D01*
X0000660964Y0002190657D01*
X0000640764Y0002210892D01*
X0000614358Y0002221857D01*
X0000585766Y0002221882D01*
X0000559342Y0002210964D01*
X0000550001Y0002201639D01*
X0000540764Y0002210892D01*
X0000514358Y0002221857D01*
X0000485766Y0002221882D01*
X0000459342Y0002210964D01*
X0000458438Y0002210061D01*
X0000445100Y0002219175D01*
X0000427500Y0002222739D01*
X0000372500Y0002222739D01*
X0000356057Y0002219645D01*
X0000340955Y0002209927D01*
X0000330824Y0002195100D01*
X0000327260Y0002177500D01*
X0000327260Y0002156979D01*
X0000310140Y0002139859D01*
X0000297920Y0002121571D01*
X0000293629Y0002100000D01*
X0000293629Y0002041658D01*
X0000292216Y0002042244D01*
X0000251250Y0002042244D01*
X0000245000Y0002035994D01*
X0000245000Y0001975000D01*
X0000245787Y0001975000D01*
X0000245787Y0001965000D01*
X0000245000Y0001965000D01*
X0000245000Y0001964212D01*
X0000235000Y0001964212D01*
X0000235000Y0001965000D01*
X0000174005Y0001965000D01*
X0000167755Y0001958750D01*
X0000167755Y0001917783D01*
X0000171561Y0001908594D01*
X0000178594Y0001901561D01*
X0000179448Y0001901208D01*
X0000162378Y0001884167D01*
X0000148401Y0001850507D01*
X0000148370Y0001814061D01*
X0000162288Y0001780377D01*
X0000174452Y0001768191D01*
X0000161211Y0001759672D01*
X0000151080Y0001744844D01*
X0000147516Y0001727244D01*
X0000147516Y0001632755D01*
X0000150610Y0001616313D01*
X0000160328Y0001601211D01*
X0000165734Y0001597517D01*
X0000162378Y0001594167D01*
X0000148401Y0001560507D01*
X0000148370Y0001524061D01*
X0000162288Y0001490377D01*
X0000171895Y0001480752D01*
X0000153428Y0001477079D01*
X0000135140Y0001464859D01*
X0000089856Y0001419575D01*
X0000084975Y0001419580D01*
X0000057081Y0001408054D01*
X0000049370Y0001400356D01*
X0000049370Y0002022216D01*
X0000167755Y0002022216D01*
X0000167755Y0001981250D01*
X0000174005Y0001975000D01*
X0000235000Y0001975000D01*
X0000235000Y0002035994D01*
X0000228750Y0002042244D01*
X0000187783Y0002042244D01*
X0000178594Y0002038438D01*
X0000171561Y0002031405D01*
X0000167755Y0002022216D01*
X0000049370Y0002022216D01*
X0000049370Y0002109822D01*
X0000058094Y0002088706D01*
X0000088546Y0002058201D01*
X0000128354Y0002041672D01*
X0000171456Y0002041634D01*
X0000211293Y0002058094D01*
X0000241798Y0002088546D01*
X0000258327Y0002128354D01*
X0000258365Y0002171456D01*
X0000241905Y0002211293D01*
X0000211453Y0002241798D01*
X0000190184Y0002250629D01*
X0000809822Y0002250629D01*
X0000788706Y0002241905D01*
G36*
X0001057627Y0000475556D02*
X0001057071Y0000475000D01*
X0001057627Y0000474443D01*
X0001050556Y0000467372D01*
X0001050000Y0000467928D01*
X0001049443Y0000467372D01*
X0001042372Y0000474443D01*
X0001042928Y0000475000D01*
X0001042372Y0000475556D01*
X0001049443Y0000482627D01*
X0001050000Y0000482071D01*
X0001050556Y0000482627D01*
X0001057627Y0000475556D01*
X0001057627Y0000475556D01*
G37*
X0001057627Y0000475556D02*
X0001057071Y0000475000D01*
X0001057627Y0000474443D01*
X0001050556Y0000467372D01*
X0001050000Y0000467928D01*
X0001049443Y0000467372D01*
X0001042372Y0000474443D01*
X0001042928Y0000475000D01*
X0001042372Y0000475556D01*
X0001049443Y0000482627D01*
X0001050000Y0000482071D01*
X0001050556Y0000482627D01*
X0001057627Y0000475556D01*
G36*
X0001102514Y0001304066D02*
X0001129661Y0001292794D01*
X0001127698Y0001287427D01*
X0001128707Y0001263407D01*
X0001135958Y0001245899D01*
X0001146056Y0001242497D01*
X0001181511Y0001277952D01*
X0001180954Y0001278509D01*
X0001188025Y0001285580D01*
X0001188582Y0001285023D01*
X0001189139Y0001285580D01*
X0001196210Y0001278509D01*
X0001195653Y0001277952D01*
X0001196210Y0001277395D01*
X0001189139Y0001270324D01*
X0001188582Y0001270881D01*
X0001153127Y0001235426D01*
X0001156529Y0001225329D01*
X0001179107Y0001217068D01*
X0001200629Y0001217972D01*
X0001200629Y0001081990D01*
X0001198057Y0001082931D01*
X0001174037Y0001081922D01*
X0001156529Y0001074670D01*
X0001153127Y0001064573D01*
X0001188582Y0001029118D01*
X0001189139Y0001029675D01*
X0001196210Y0001022604D01*
X0001195653Y0001022047D01*
X0001196210Y0001021490D01*
X0001189139Y0001014419D01*
X0001188582Y0001014976D01*
X0001188025Y0001014419D01*
X0001180954Y0001021490D01*
X0001181511Y0001022047D01*
X0001146056Y0001057502D01*
X0001135958Y0001054100D01*
X0001127698Y0001031522D01*
X0001128707Y0001007501D01*
X0001128959Y0001006891D01*
X0001102638Y0000996015D01*
X0001100016Y0000993398D01*
X0001097485Y0000995933D01*
X0001088527Y0000999652D01*
X0001091206Y0001006103D01*
X0001091234Y0001037851D01*
X0001079110Y0001067193D01*
X0001056681Y0001089661D01*
X0001027360Y0001101836D01*
X0000995613Y0001101864D01*
X0000978308Y0001094713D01*
X0000979359Y0001100000D01*
X0000973434Y0001129786D01*
X0000959928Y0001150000D01*
X0000973434Y0001170213D01*
X0000979359Y0001200000D01*
X0000978306Y0001205291D01*
X0000995473Y0001198163D01*
X0001027221Y0001198135D01*
X0001056563Y0001210259D01*
X0001079031Y0001232688D01*
X0001091206Y0001262009D01*
X0001091234Y0001293756D01*
X0001088518Y0001300330D01*
X0001097361Y0001303984D01*
X0001099983Y0001306601D01*
X0001102514Y0001304066D01*
X0001102514Y0001304066D01*
G37*
X0001102514Y0001304066D02*
X0001129661Y0001292794D01*
X0001127698Y0001287427D01*
X0001128707Y0001263407D01*
X0001135958Y0001245899D01*
X0001146056Y0001242497D01*
X0001181511Y0001277952D01*
X0001180954Y0001278509D01*
X0001188025Y0001285580D01*
X0001188582Y0001285023D01*
X0001189139Y0001285580D01*
X0001196210Y0001278509D01*
X0001195653Y0001277952D01*
X0001196210Y0001277395D01*
X0001189139Y0001270324D01*
X0001188582Y0001270881D01*
X0001153127Y0001235426D01*
X0001156529Y0001225329D01*
X0001179107Y0001217068D01*
X0001200629Y0001217972D01*
X0001200629Y0001081990D01*
X0001198057Y0001082931D01*
X0001174037Y0001081922D01*
X0001156529Y0001074670D01*
X0001153127Y0001064573D01*
X0001188582Y0001029118D01*
X0001189139Y0001029675D01*
X0001196210Y0001022604D01*
X0001195653Y0001022047D01*
X0001196210Y0001021490D01*
X0001189139Y0001014419D01*
X0001188582Y0001014976D01*
X0001188025Y0001014419D01*
X0001180954Y0001021490D01*
X0001181511Y0001022047D01*
X0001146056Y0001057502D01*
X0001135958Y0001054100D01*
X0001127698Y0001031522D01*
X0001128707Y0001007501D01*
X0001128959Y0001006891D01*
X0001102638Y0000996015D01*
X0001100016Y0000993398D01*
X0001097485Y0000995933D01*
X0001088527Y0000999652D01*
X0001091206Y0001006103D01*
X0001091234Y0001037851D01*
X0001079110Y0001067193D01*
X0001056681Y0001089661D01*
X0001027360Y0001101836D01*
X0000995613Y0001101864D01*
X0000978308Y0001094713D01*
X0000979359Y0001100000D01*
X0000973434Y0001129786D01*
X0000959928Y0001150000D01*
X0000973434Y0001170213D01*
X0000979359Y0001200000D01*
X0000978306Y0001205291D01*
X0000995473Y0001198163D01*
X0001027221Y0001198135D01*
X0001056563Y0001210259D01*
X0001079031Y0001232688D01*
X0001091206Y0001262009D01*
X0001091234Y0001293756D01*
X0001088518Y0001300330D01*
X0001097361Y0001303984D01*
X0001099983Y0001306601D01*
X0001102514Y0001304066D01*
G36*
X0000965390Y0001985629D02*
X0000968484Y0001969187D01*
X0000978202Y0001954085D01*
X0000989315Y0001946492D01*
X0000985200Y0001935414D01*
X0000986147Y0001909824D01*
X0000988921Y0001903127D01*
X0000979085Y0001896797D01*
X0000968954Y0001881970D01*
X0000965390Y0001864370D01*
X0000965390Y0001785629D01*
X0000968484Y0001769187D01*
X0000978202Y0001754085D01*
X0000989315Y0001746492D01*
X0000985200Y0001735414D01*
X0000986147Y0001709824D01*
X0000994118Y0001690580D01*
X0000996362Y0001689750D01*
X0000979067Y0001672485D01*
X0000966294Y0001641726D01*
X0000966265Y0001608420D01*
X0000978984Y0001577638D01*
X0001002514Y0001554066D01*
X0001033274Y0001541294D01*
X0001066579Y0001541265D01*
X0001097361Y0001553984D01*
X0001099983Y0001556601D01*
X0001102514Y0001554066D01*
X0001133274Y0001541294D01*
X0001166579Y0001541265D01*
X0001197361Y0001553984D01*
X0001200629Y0001557246D01*
X0001200629Y0001442783D01*
X0001197485Y0001445933D01*
X0001166726Y0001458705D01*
X0001133420Y0001458734D01*
X0001102638Y0001446015D01*
X0001100016Y0001443398D01*
X0001097485Y0001445933D01*
X0001066726Y0001458705D01*
X0001033420Y0001458734D01*
X0001002638Y0001446015D01*
X0000979067Y0001422485D01*
X0000976240Y0001415679D01*
X0000973434Y0001429786D01*
X0000956562Y0001455037D01*
X0000931310Y0001471909D01*
X0000901524Y0001477834D01*
X0000898475Y0001477834D01*
X0000868689Y0001471909D01*
X0000848243Y0001458248D01*
X0000841204Y0001462951D01*
X0000848466Y0001470967D01*
X0000854799Y0001486258D01*
X0000849996Y0001495000D01*
X0000805000Y0001495000D01*
X0000805000Y0001494212D01*
X0000795000Y0001494212D01*
X0000795000Y0001495000D01*
X0000750003Y0001495000D01*
X0000745200Y0001486258D01*
X0000751533Y0001470967D01*
X0000758795Y0001462951D01*
X0000744868Y0001453645D01*
X0000728422Y0001429032D01*
X0000727370Y0001423741D01*
X0000727370Y0001513741D01*
X0000745200Y0001513741D01*
X0000750003Y0001505000D01*
X0000795000Y0001505000D01*
X0000795000Y0001550024D01*
X0000805000Y0001550024D01*
X0000805000Y0001505000D01*
X0000849996Y0001505000D01*
X0000854799Y0001513741D01*
X0000848466Y0001529032D01*
X0000833666Y0001545369D01*
X0000813741Y0001554799D01*
X0000805000Y0001550024D01*
X0000795000Y0001550024D01*
X0000786258Y0001554799D01*
X0000766333Y0001545369D01*
X0000751533Y0001529032D01*
X0000745200Y0001513741D01*
X0000727370Y0001513741D01*
X0000727370Y0001711899D01*
X0000767396Y0001711899D01*
X0000770314Y0001702210D01*
X0000791465Y0001694607D01*
X0000813915Y0001695678D01*
X0000829685Y0001702210D01*
X0000832603Y0001711899D01*
X0000800000Y0001744503D01*
X0000767396Y0001711899D01*
X0000727370Y0001711899D01*
X0000727370Y0001800489D01*
X0000736076Y0001786959D01*
X0000749409Y0001777849D01*
X0000743032Y0001760109D01*
X0000744103Y0001737659D01*
X0000750635Y0001721889D01*
X0000760325Y0001718970D01*
X0000792928Y0001751574D01*
X0000792372Y0001752131D01*
X0000799443Y0001759202D01*
X0000800000Y0001758645D01*
X0000800556Y0001759202D01*
X0000807627Y0001752131D01*
X0000807071Y0001751574D01*
X0000839675Y0001718970D01*
X0000849364Y0001721889D01*
X0000856967Y0001743040D01*
X0000855896Y0001765490D01*
X0000850667Y0001778114D01*
X0000863040Y0001786076D01*
X0000873171Y0001800903D01*
X0000876735Y0001818503D01*
X0000876735Y0001881496D01*
X0000873641Y0001897938D01*
X0000863924Y0001913040D01*
X0000849096Y0001923171D01*
X0000831496Y0001926735D01*
X0000800797Y0001926735D01*
X0000837031Y0001962968D01*
X0000871692Y0001997629D01*
X0000890000Y0001997629D01*
X0000910041Y0002001616D01*
X0000927031Y0002012968D01*
X0000965390Y0002051328D01*
X0000965390Y0001985629D01*
X0000965390Y0001985629D01*
G37*
X0000965390Y0001985629D02*
X0000968484Y0001969187D01*
X0000978202Y0001954085D01*
X0000989315Y0001946492D01*
X0000985200Y0001935414D01*
X0000986147Y0001909824D01*
X0000988921Y0001903127D01*
X0000979085Y0001896797D01*
X0000968954Y0001881970D01*
X0000965390Y0001864370D01*
X0000965390Y0001785629D01*
X0000968484Y0001769187D01*
X0000978202Y0001754085D01*
X0000989315Y0001746492D01*
X0000985200Y0001735414D01*
X0000986147Y0001709824D01*
X0000994118Y0001690580D01*
X0000996362Y0001689750D01*
X0000979067Y0001672485D01*
X0000966294Y0001641726D01*
X0000966265Y0001608420D01*
X0000978984Y0001577638D01*
X0001002514Y0001554066D01*
X0001033274Y0001541294D01*
X0001066579Y0001541265D01*
X0001097361Y0001553984D01*
X0001099983Y0001556601D01*
X0001102514Y0001554066D01*
X0001133274Y0001541294D01*
X0001166579Y0001541265D01*
X0001197361Y0001553984D01*
X0001200629Y0001557246D01*
X0001200629Y0001442783D01*
X0001197485Y0001445933D01*
X0001166726Y0001458705D01*
X0001133420Y0001458734D01*
X0001102638Y0001446015D01*
X0001100016Y0001443398D01*
X0001097485Y0001445933D01*
X0001066726Y0001458705D01*
X0001033420Y0001458734D01*
X0001002638Y0001446015D01*
X0000979067Y0001422485D01*
X0000976240Y0001415679D01*
X0000973434Y0001429786D01*
X0000956562Y0001455037D01*
X0000931310Y0001471909D01*
X0000901524Y0001477834D01*
X0000898475Y0001477834D01*
X0000868689Y0001471909D01*
X0000848243Y0001458248D01*
X0000841204Y0001462951D01*
X0000848466Y0001470967D01*
X0000854799Y0001486258D01*
X0000849996Y0001495000D01*
X0000805000Y0001495000D01*
X0000805000Y0001494212D01*
X0000795000Y0001494212D01*
X0000795000Y0001495000D01*
X0000750003Y0001495000D01*
X0000745200Y0001486258D01*
X0000751533Y0001470967D01*
X0000758795Y0001462951D01*
X0000744868Y0001453645D01*
X0000728422Y0001429032D01*
X0000727370Y0001423741D01*
X0000727370Y0001513741D01*
X0000745200Y0001513741D01*
X0000750003Y0001505000D01*
X0000795000Y0001505000D01*
X0000795000Y0001550024D01*
X0000805000Y0001550024D01*
X0000805000Y0001505000D01*
X0000849996Y0001505000D01*
X0000854799Y0001513741D01*
X0000848466Y0001529032D01*
X0000833666Y0001545369D01*
X0000813741Y0001554799D01*
X0000805000Y0001550024D01*
X0000795000Y0001550024D01*
X0000786258Y0001554799D01*
X0000766333Y0001545369D01*
X0000751533Y0001529032D01*
X0000745200Y0001513741D01*
X0000727370Y0001513741D01*
X0000727370Y0001711899D01*
X0000767396Y0001711899D01*
X0000770314Y0001702210D01*
X0000791465Y0001694607D01*
X0000813915Y0001695678D01*
X0000829685Y0001702210D01*
X0000832603Y0001711899D01*
X0000800000Y0001744503D01*
X0000767396Y0001711899D01*
X0000727370Y0001711899D01*
X0000727370Y0001800489D01*
X0000736076Y0001786959D01*
X0000749409Y0001777849D01*
X0000743032Y0001760109D01*
X0000744103Y0001737659D01*
X0000750635Y0001721889D01*
X0000760325Y0001718970D01*
X0000792928Y0001751574D01*
X0000792372Y0001752131D01*
X0000799443Y0001759202D01*
X0000800000Y0001758645D01*
X0000800556Y0001759202D01*
X0000807627Y0001752131D01*
X0000807071Y0001751574D01*
X0000839675Y0001718970D01*
X0000849364Y0001721889D01*
X0000856967Y0001743040D01*
X0000855896Y0001765490D01*
X0000850667Y0001778114D01*
X0000863040Y0001786076D01*
X0000873171Y0001800903D01*
X0000876735Y0001818503D01*
X0000876735Y0001881496D01*
X0000873641Y0001897938D01*
X0000863924Y0001913040D01*
X0000849096Y0001923171D01*
X0000831496Y0001926735D01*
X0000800797Y0001926735D01*
X0000837031Y0001962968D01*
X0000871692Y0001997629D01*
X0000890000Y0001997629D01*
X0000910041Y0002001616D01*
X0000927031Y0002012968D01*
X0000965390Y0002051328D01*
X0000965390Y0001985629D01*
G36*
X0001057627Y0001725556D02*
X0001057071Y0001725000D01*
X0001057627Y0001724443D01*
X0001050556Y0001717372D01*
X0001050000Y0001717928D01*
X0001049443Y0001717372D01*
X0001042372Y0001724443D01*
X0001042928Y0001725000D01*
X0001042372Y0001725556D01*
X0001049443Y0001732627D01*
X0001050000Y0001732071D01*
X0001050556Y0001732627D01*
X0001057627Y0001725556D01*
X0001057627Y0001725556D01*
G37*
X0001057627Y0001725556D02*
X0001057071Y0001725000D01*
X0001057627Y0001724443D01*
X0001050556Y0001717372D01*
X0001050000Y0001717928D01*
X0001049443Y0001717372D01*
X0001042372Y0001724443D01*
X0001042928Y0001725000D01*
X0001042372Y0001725556D01*
X0001049443Y0001732627D01*
X0001050000Y0001732071D01*
X0001050556Y0001732627D01*
X0001057627Y0001725556D01*
G36*
X0001057627Y0001925556D02*
X0001057071Y0001925000D01*
X0001057627Y0001924443D01*
X0001050556Y0001917372D01*
X0001050000Y0001917928D01*
X0001049443Y0001917372D01*
X0001042372Y0001924443D01*
X0001042928Y0001925000D01*
X0001042372Y0001925556D01*
X0001049443Y0001932627D01*
X0001050000Y0001932071D01*
X0001050556Y0001932627D01*
X0001057627Y0001925556D01*
X0001057627Y0001925556D01*
G37*
X0001057627Y0001925556D02*
X0001057071Y0001925000D01*
X0001057627Y0001924443D01*
X0001050556Y0001917372D01*
X0001050000Y0001917928D01*
X0001049443Y0001917372D01*
X0001042372Y0001924443D01*
X0001042928Y0001925000D01*
X0001042372Y0001925556D01*
X0001049443Y0001932627D01*
X0001050000Y0001932071D01*
X0001050556Y0001932627D01*
X0001057627Y0001925556D01*
G36*
X0001057627Y0002125556D02*
X0001057071Y0002125000D01*
X0001057627Y0002124443D01*
X0001050556Y0002117372D01*
X0001050000Y0002117928D01*
X0001049443Y0002117372D01*
X0001042372Y0002124443D01*
X0001042928Y0002125000D01*
X0001042372Y0002125556D01*
X0001049443Y0002132627D01*
X0001050000Y0002132071D01*
X0001050556Y0002132627D01*
X0001057627Y0002125556D01*
X0001057627Y0002125556D01*
G37*
X0001057627Y0002125556D02*
X0001057071Y0002125000D01*
X0001057627Y0002124443D01*
X0001050556Y0002117372D01*
X0001050000Y0002117928D01*
X0001049443Y0002117372D01*
X0001042372Y0002124443D01*
X0001042928Y0002125000D01*
X0001042372Y0002125556D01*
X0001049443Y0002132627D01*
X0001050000Y0002132071D01*
X0001050556Y0002132627D01*
X0001057627Y0002125556D01*
G04 next file*
G04 #@! TF.FileFunction,Copper,L1,Top,Signal*
G04 Gerber Fmt 4.6, Leading zero omitted, Abs format (unit mm)*
G04 Created by KiCad (PCBNEW 4.0.6) date 09/06/18 10:25:07*
G01*
G04 APERTURE LIST*
G04 APERTURE END LIST*
D43*
D44*
X-0002327165Y-0002398425D02*
X0002247834Y0003451574D03*
X0002147834Y0003451574D03*
D45*
X0001847834Y0003451574D03*
D46*
X0001747834Y0003451574D03*
D47*
X0002072834Y0002501574D03*
D48*
X0001974409Y0002501574D03*
X0001875984Y0002501574D03*
X0001777559Y0002501574D03*
X0001679133Y0002501574D03*
D47*
X0001872834Y0002851574D03*
D48*
X0001872834Y0002950000D03*
D49*
X0002222834Y0003301574D03*
D50*
X0002122834Y0003301574D03*
X0002022834Y0003301574D03*
X0001922834Y0003301574D03*
X0001822834Y0003301574D03*
X0001722834Y0003301574D03*
X0001622834Y0003301574D03*
X0001522834Y0003301574D03*
X0001422834Y0003301574D03*
X0001322834Y0003301574D03*
X0001222834Y0003301574D03*
X0001122834Y0003301574D03*
X0001022834Y0003301574D03*
X0000922834Y0003301574D03*
D51*
X0002047834Y0002851574D03*
D52*
X0002146259Y0002851574D03*
D53*
X0001622834Y0003201574D03*
X0001522834Y0003201574D03*
X0001422834Y0003201574D03*
X0001322834Y0003201574D03*
X0001222834Y0003201574D03*
X0001122834Y0003201574D03*
X0001022834Y0003201574D03*
X0000922834Y0003201574D03*
X0000822834Y0003201574D03*
X0000822834Y0002901574D03*
X0000922834Y0002901574D03*
X0001022834Y0002901574D03*
X0001122834Y0002901574D03*
X0001222834Y0002901574D03*
X0001322834Y0002901574D03*
X0001422834Y0002901574D03*
X0001522834Y0002901574D03*
X0001622834Y0002901574D03*
D47*
X0001372834Y0002501574D03*
D48*
X0001274409Y0002501574D03*
X0001175984Y0002501574D03*
X0001077559Y0002501574D03*
X0000979133Y0002501574D03*
X0000571259Y0003201574D03*
D47*
X0000472834Y0003201574D03*
D54*
X0000622834Y0002901574D03*
D55*
X0000522834Y0002901574D03*
X0000422834Y0002901574D03*
D56*
X0000172834Y0002801574D03*
D57*
X0000172834Y0002901574D03*
X0000172834Y0003001574D03*
D58*
X0000490629Y0002641574D03*
D59*
X0000352834Y0002641574D03*
D58*
X0000780629Y0002641574D03*
D59*
X0000642834Y0002641574D03*
D45*
X0000597834Y0003451574D03*
D46*
X0000497834Y0003451574D03*
D60*
X0001397834Y0003451574D03*
X0001647834Y0003451574D03*
X0000947834Y0003551574D03*
X0000697834Y0003551574D03*
X0001397834Y0003551574D03*
X0001647834Y0003551574D03*
X0000947834Y0003451574D03*
X0000697834Y0003451574D03*
D48*
X0002047834Y0003176574D03*
X0001797834Y0003176574D03*
X0002047834Y0003076574D03*
X0001797834Y0003076574D03*
D61*
X0001044881Y0003412992D03*
X0001044881Y0003590157D03*
X0001300787Y0003412992D03*
X0001300787Y0003590157D03*
D49*
X0002222834Y0002701574D03*
D50*
X0002122834Y0002701574D03*
X0002022834Y0002701574D03*
X0001922834Y0002701574D03*
X0001822834Y0002701574D03*
X0001722834Y0002701574D03*
X0001622834Y0002701574D03*
X0001522834Y0002701574D03*
X0001422834Y0002701574D03*
X0001322834Y0002701574D03*
X0001222834Y0002701574D03*
X0001122834Y0002701574D03*
X0001022834Y0002701574D03*
X0000922834Y0002701574D03*
D62*
X0001625118Y0002811574D03*
X0001660551Y0002811574D03*
D45*
X0002047834Y0003451574D03*
D46*
X0001947834Y0003451574D03*
D45*
X0000397834Y0003451574D03*
D46*
X0000297834Y0003451574D03*
D44*
X0000197834Y0003451574D03*
X0000097834Y0003451574D03*
D63*
X0002146259Y0002851574D02*
X0002146259Y0002785000D01*
X0002122834Y0002761574D02*
X0002122834Y0002701574D01*
X0002146259Y0002785000D02*
X0002122834Y0002761574D01*
D64*
X0001300787Y0003590157D02*
X0001211417Y0003590157D01*
X0000822834Y0003151574D02*
X0000822834Y0003201574D01*
X0000847834Y0003126574D02*
X0000822834Y0003151574D01*
X0001147834Y0003126574D02*
X0000847834Y0003126574D01*
X0001172834Y0003151574D02*
X0001147834Y0003126574D01*
X0001172834Y0003551574D02*
X0001172834Y0003151574D01*
X0001211417Y0003590157D02*
X0001172834Y0003551574D01*
D63*
X0001872834Y0002950000D02*
X0001774409Y0002950000D01*
X0000422834Y0002951574D02*
X0000422834Y0002901574D01*
X0000472834Y0003001574D02*
X0000422834Y0002951574D01*
X0001722834Y0003001574D02*
X0000472834Y0003001574D01*
X0001774409Y0002950000D02*
X0001722834Y0003001574D01*
D64*
X0001047834Y0003587204D02*
X0001044881Y0003590157D01*
X0001044881Y0003590157D02*
X0001300787Y0003590157D01*
X0001947834Y0003226574D02*
X0001822834Y0003226574D01*
X0002042834Y0002771574D02*
X0002097834Y0002826574D01*
X0002097834Y0002826574D02*
X0002097834Y0002926574D01*
X0002097834Y0002926574D02*
X0001997834Y0003026574D01*
X0001997834Y0003026574D02*
X0001997834Y0003176574D01*
X0001997834Y0003176574D02*
X0001947834Y0003226574D01*
X0001397834Y0003551574D02*
X0001572834Y0003376574D01*
X0001722834Y0002739074D02*
X0001722834Y0002701574D01*
X0001755334Y0002771574D02*
X0001722834Y0002739074D01*
X0001907834Y0002771574D02*
X0001755334Y0002771574D01*
X0001907834Y0002771574D02*
X0002042834Y0002771574D01*
X0001747834Y0003376574D02*
X0001572834Y0003376574D01*
X0001772834Y0003351574D02*
X0001747834Y0003376574D01*
X0001772834Y0003276574D02*
X0001772834Y0003351574D01*
X0001822834Y0003226574D02*
X0001772834Y0003276574D01*
X0001397834Y0003551574D02*
X0001435334Y0003551574D01*
D63*
X0000490629Y0002641574D02*
X0000642834Y0002641574D01*
X0000780629Y0002641574D02*
X0000780629Y0002668779D01*
X0000780629Y0002668779D02*
X0000697834Y0002751574D01*
X0000697834Y0002751574D02*
X0000222834Y0002751574D01*
X0000222834Y0002751574D02*
X0000172834Y0002801574D01*
D64*
X0001822834Y0003301574D02*
X0001822834Y0003306574D01*
X0001625118Y0002811574D02*
X0001272834Y0002811574D01*
X0001222834Y0002761574D02*
X0001222834Y0002701574D01*
X0001272834Y0002811574D02*
X0001222834Y0002761574D01*
X0001660551Y0002811574D02*
X0001625118Y0002811574D01*
X0001797834Y0003176574D02*
X0001797834Y0003166574D01*
X0001797834Y0003166574D02*
X0001952834Y0003011574D01*
X0001722834Y0002811574D02*
X0001660551Y0002811574D01*
X0001812834Y0002901574D02*
X0001722834Y0002811574D01*
X0001932834Y0002901574D02*
X0001812834Y0002901574D01*
X0001952834Y0002921574D02*
X0001932834Y0002901574D01*
X0001952834Y0003011574D02*
X0001952834Y0002921574D01*
X0000097834Y0003451574D02*
X0000097834Y0003416574D01*
X0000447834Y0003076574D02*
X0001797834Y0003076574D01*
X0000447834Y0003076574D02*
X0000322834Y0003201574D01*
X0000272834Y0003251574D02*
X0000322834Y0003201574D01*
X0000272834Y0003291574D02*
X0000272834Y0003251574D01*
X0000192834Y0003371574D02*
X0000272834Y0003291574D01*
X0000142834Y0003371574D02*
X0000192834Y0003371574D01*
X0000097834Y0003416574D02*
X0000142834Y0003371574D01*
X0001797834Y0003076574D02*
X0001772834Y0003076574D01*
X0001772834Y0003076574D02*
X0001722834Y0003126574D01*
X0001722834Y0003126574D02*
X0001722834Y0003301574D01*
X0000097834Y0003426574D02*
X0000097834Y0003451574D01*
D63*
X0001679133Y0002501574D02*
X0001679133Y0002532874D01*
X0001679133Y0002532874D02*
X0001747834Y0002601574D01*
X0002222834Y0002651574D02*
X0002222834Y0002701574D01*
X0002172834Y0002601574D02*
X0002222834Y0002651574D01*
X0001747834Y0002601574D02*
X0002172834Y0002601574D01*
X0001679133Y0002501574D02*
X0001679133Y0002507874D01*
X0001522834Y0002576574D02*
X0001604133Y0002576574D01*
X0001522834Y0002576574D02*
X0001054133Y0002576574D01*
X0000979133Y0002501574D02*
X0001054133Y0002576574D01*
X0001604133Y0002576574D02*
X0001679133Y0002501574D01*
X0000979133Y0002501574D02*
X0000972834Y0002501574D01*
X0000972834Y0002501574D02*
X0000897834Y0002576574D01*
X0000847834Y0002876574D02*
X0000822834Y0002901574D01*
X0000847834Y0002676574D02*
X0000847834Y0002876574D01*
X0000897834Y0002626574D02*
X0000847834Y0002676574D01*
X0000897834Y0002576574D02*
X0000897834Y0002626574D01*
X0000522834Y0002901574D02*
X0000522834Y0002851574D01*
X0000522834Y0002851574D02*
X0000572834Y0002801574D01*
X0000172834Y0002901574D02*
X0000197834Y0002901574D01*
X0000197834Y0002901574D02*
X0000297834Y0002801574D01*
X0000297834Y0002801574D02*
X0000572834Y0002801574D01*
X0000572834Y0002801574D02*
X0000722834Y0002801574D01*
X0000722834Y0002801574D02*
X0000822834Y0002901574D01*
D64*
X0002047834Y0003176574D02*
X0002047834Y0003076574D01*
X0002122834Y0003301574D02*
X0002122834Y0003216574D01*
X0002082834Y0003176574D02*
X0002047834Y0003176574D01*
X0002122834Y0003216574D02*
X0002082834Y0003176574D01*
D65*
G36*
X0002134865Y0002789543D02*
X0002139136Y0002795935D01*
X0002142300Y0002800670D01*
X0002159229Y0002801650D01*
X0002172390Y0002807101D01*
X0002174583Y0002816180D01*
X0002150204Y0002840558D01*
X0002150204Y0002862590D01*
X0002174583Y0002886969D01*
X0002173071Y0002893228D01*
X0002194291Y0002893209D01*
X0002234127Y0002909669D01*
X0002264632Y0002940121D01*
X0002273464Y0002961390D01*
X0002273464Y0002776802D01*
X0002256299Y0002780278D01*
X0002189370Y0002780278D01*
X0002181654Y0002778826D01*
X0002181654Y0002823251D01*
X0002190732Y0002825443D01*
X0002197347Y0002844451D01*
X0002196184Y0002864544D01*
X0002190732Y0002877705D01*
X0002181654Y0002879898D01*
X0002153330Y0002851574D01*
X0002181654Y0002823251D01*
X0002181654Y0002778826D01*
X0002172927Y0002777184D01*
X0002157825Y0002767467D01*
X0002148338Y0002753582D01*
X0002136885Y0002758325D01*
X0002127834Y0002753549D01*
X0002127834Y0002706574D01*
X0002128622Y0002706574D01*
X0002128622Y0002696574D01*
X0002127834Y0002696574D01*
X0002127834Y0002695787D01*
X0002117834Y0002695787D01*
X0002117834Y0002696574D01*
X0002117047Y0002696574D01*
X0002117047Y0002706574D01*
X0002117834Y0002706574D01*
X0002117834Y0002753549D01*
X0002108783Y0002758325D01*
X0002100016Y0002754694D01*
X0002134865Y0002789543D01*
X0002134865Y0002789543D01*
G37*
X0002134865Y0002789543D02*
X0002139136Y0002795935D01*
X0002142300Y0002800670D01*
X0002159229Y0002801650D01*
X0002172390Y0002807101D01*
X0002174583Y0002816180D01*
X0002150204Y0002840558D01*
X0002150204Y0002862590D01*
X0002174583Y0002886969D01*
X0002173071Y0002893228D01*
X0002194291Y0002893209D01*
X0002234127Y0002909669D01*
X0002264632Y0002940121D01*
X0002273464Y0002961390D01*
X0002273464Y0002776802D01*
X0002256299Y0002780278D01*
X0002189370Y0002780278D01*
X0002181654Y0002778826D01*
X0002181654Y0002823251D01*
X0002190732Y0002825443D01*
X0002197347Y0002844451D01*
X0002196184Y0002864544D01*
X0002190732Y0002877705D01*
X0002181654Y0002879898D01*
X0002153330Y0002851574D01*
X0002181654Y0002823251D01*
X0002181654Y0002778826D01*
X0002172927Y0002777184D01*
X0002157825Y0002767467D01*
X0002148338Y0002753582D01*
X0002136885Y0002758325D01*
X0002127834Y0002753549D01*
X0002127834Y0002706574D01*
X0002128622Y0002706574D01*
X0002128622Y0002696574D01*
X0002127834Y0002696574D01*
X0002127834Y0002695787D01*
X0002117834Y0002695787D01*
X0002117834Y0002696574D01*
X0002117047Y0002696574D01*
X0002117047Y0002706574D01*
X0002117834Y0002706574D01*
X0002117834Y0002753549D01*
X0002108783Y0002758325D01*
X0002100016Y0002754694D01*
X0002134865Y0002789543D01*
G36*
X0002247277Y0003459202D02*
X0002247834Y0003458645D01*
X0002248391Y0003459202D01*
X0002255462Y0003452131D01*
X0002254905Y0003451574D01*
X0002255462Y0003451018D01*
X0002248391Y0003443947D01*
X0002247834Y0003444503D01*
X0002247277Y0003443947D01*
X0002240206Y0003451018D01*
X0002240763Y0003451574D01*
X0002240206Y0003452131D01*
X0002247277Y0003459202D01*
X0002247277Y0003459202D01*
G37*
X0002247277Y0003459202D02*
X0002247834Y0003458645D01*
X0002248391Y0003459202D01*
X0002255462Y0003452131D01*
X0002254905Y0003451574D01*
X0002255462Y0003451018D01*
X0002248391Y0003443947D01*
X0002247834Y0003444503D01*
X0002247277Y0003443947D01*
X0002240206Y0003451018D01*
X0002240763Y0003451574D01*
X0002240206Y0003452131D01*
X0002247277Y0003459202D01*
G36*
X0002047277Y0003459202D02*
X0002047834Y0003458645D01*
X0002048391Y0003459202D01*
X0002055462Y0003452131D01*
X0002054905Y0003451574D01*
X0002055462Y0003451018D01*
X0002048391Y0003443947D01*
X0002047834Y0003444503D01*
X0002047277Y0003443947D01*
X0002040206Y0003451018D01*
X0002040763Y0003451574D01*
X0002040206Y0003452131D01*
X0002047277Y0003459202D01*
X0002047277Y0003459202D01*
G37*
X0002047277Y0003459202D02*
X0002047834Y0003458645D01*
X0002048391Y0003459202D01*
X0002055462Y0003452131D01*
X0002054905Y0003451574D01*
X0002055462Y0003451018D01*
X0002048391Y0003443947D01*
X0002047834Y0003444503D01*
X0002047277Y0003443947D01*
X0002040206Y0003451018D01*
X0002040763Y0003451574D01*
X0002040206Y0003452131D01*
X0002047277Y0003459202D01*
G36*
X0000080929Y0003190281D02*
X0000111381Y0003159776D01*
X0000151188Y0003143247D01*
X0000194291Y0003143209D01*
X0000234127Y0003159669D01*
X0000262427Y0003187919D01*
X0000410803Y0003039543D01*
X0000427793Y0003028191D01*
X0000447834Y0003024204D01*
X0001742915Y0003024204D01*
X0001754803Y0003012296D01*
X0001782677Y0003000721D01*
X0001812859Y0003000695D01*
X0001840753Y0003012221D01*
X0001859455Y0003030891D01*
X0001884508Y0003005838D01*
X0001881369Y0003006967D01*
X0001858919Y0003005896D01*
X0001843149Y0002999364D01*
X0001840230Y0002989675D01*
X0001872834Y0002957071D01*
X0001873391Y0002957627D01*
X0001877074Y0002953944D01*
X0001861818Y0002953944D01*
X0001833159Y0002982603D01*
X0001823469Y0002979685D01*
X0001815867Y0002958534D01*
X0001816086Y0002953944D01*
X0001812834Y0002953944D01*
X0001792793Y0002949958D01*
X0001791953Y0002949397D01*
X0001775803Y0002938606D01*
X0001701142Y0002863944D01*
X0001688174Y0002863944D01*
X0001692925Y0002871055D01*
X0001698700Y0002900088D01*
X0001698700Y0002903061D01*
X0001692925Y0002932093D01*
X0001676480Y0002956706D01*
X0001651867Y0002973152D01*
X0001622834Y0002978927D01*
X0001593801Y0002973152D01*
X0001572834Y0002959142D01*
X0001551867Y0002973152D01*
X0001522834Y0002978927D01*
X0001493801Y0002973152D01*
X0001472834Y0002959142D01*
X0001451867Y0002973152D01*
X0001422834Y0002978927D01*
X0001393801Y0002973152D01*
X0001372834Y0002959142D01*
X0001351867Y0002973152D01*
X0001322834Y0002978927D01*
X0001293801Y0002973152D01*
X0001272834Y0002959142D01*
X0001251867Y0002973152D01*
X0001222834Y0002978927D01*
X0001193801Y0002973152D01*
X0001172834Y0002959142D01*
X0001151867Y0002973152D01*
X0001122834Y0002978927D01*
X0001093801Y0002973152D01*
X0001072834Y0002959142D01*
X0001051867Y0002973152D01*
X0001022834Y0002978927D01*
X0000993801Y0002973152D01*
X0000972834Y0002959142D01*
X0000951867Y0002973152D01*
X0000922834Y0002978927D01*
X0000893801Y0002973152D01*
X0000872834Y0002959142D01*
X0000851867Y0002973152D01*
X0000822834Y0002978927D01*
X0000793801Y0002973152D01*
X0000769189Y0002956706D01*
X0000752743Y0002932093D01*
X0000747556Y0002906015D01*
X0000701809Y0002860269D01*
X0000702073Y0002861574D01*
X0000702073Y0002941574D01*
X0000698980Y0002958017D01*
X0000689262Y0002973118D01*
X0000674435Y0002983249D01*
X0000656834Y0002986814D01*
X0000588834Y0002986814D01*
X0000572392Y0002983720D01*
X0000560832Y0002976282D01*
X0000552825Y0002981632D01*
X0000522834Y0002987597D01*
X0000492843Y0002981632D01*
X0000467418Y0002964643D01*
X0000459756Y0002953176D01*
X0000458347Y0002954753D01*
X0000437590Y0002964752D01*
X0000436969Y0002964856D01*
X0000427834Y0002960087D01*
X0000427834Y0002906574D01*
X0000428622Y0002906574D01*
X0000428622Y0002896574D01*
X0000427834Y0002896574D01*
X0000427834Y0002895787D01*
X0000417834Y0002895787D01*
X0000417834Y0002896574D01*
X0000370042Y0002896574D01*
X0000370042Y0002906574D01*
X0000417834Y0002906574D01*
X0000417834Y0002960087D01*
X0000408699Y0002964856D01*
X0000408079Y0002964752D01*
X0000387321Y0002954753D01*
X0000371970Y0002937571D01*
X0000364362Y0002915823D01*
X0000370042Y0002906574D01*
X0000370042Y0002896574D01*
X0000364362Y0002887326D01*
X0000371970Y0002865577D01*
X0000378790Y0002857944D01*
X0000321183Y0002857944D01*
X0000237694Y0002941434D01*
X0000228388Y0002947652D01*
X0000224474Y0002951573D01*
X0000233727Y0002960810D01*
X0000244692Y0002987216D01*
X0000244717Y0003015807D01*
X0000233798Y0003042232D01*
X0000213598Y0003062467D01*
X0000187193Y0003073432D01*
X0000158601Y0003073457D01*
X0000132176Y0003062538D01*
X0000111941Y0003042339D01*
X0000100977Y0003015933D01*
X0000100952Y0002987341D01*
X0000111870Y0002960916D01*
X0000121194Y0002951576D01*
X0000111941Y0002942339D01*
X0000100977Y0002915933D01*
X0000100952Y0002887341D01*
X0000111870Y0002860916D01*
X0000112772Y0002860013D01*
X0000103659Y0002846675D01*
X0000100095Y0002829074D01*
X0000100095Y0002774074D01*
X0000103189Y0002757632D01*
X0000112906Y0002742530D01*
X0000127733Y0002732399D01*
X0000145334Y0002728835D01*
X0000165854Y0002728835D01*
X0000182974Y0002711715D01*
X0000201262Y0002699495D01*
X0000222834Y0002695204D01*
X0000281175Y0002695204D01*
X0000280590Y0002693791D01*
X0000280590Y0002652824D01*
X0000286840Y0002646574D01*
X0000347834Y0002646574D01*
X0000347834Y0002647362D01*
X0000357834Y0002647362D01*
X0000357834Y0002646574D01*
X0000358622Y0002646574D01*
X0000358622Y0002636574D01*
X0000357834Y0002636574D01*
X0000357834Y0002575580D01*
X0000364084Y0002569330D01*
X0000405051Y0002569330D01*
X0000414240Y0002573136D01*
X0000421272Y0002580169D01*
X0000421626Y0002581023D01*
X0000438666Y0002563953D01*
X0000472326Y0002549976D01*
X0000508773Y0002549944D01*
X0000542457Y0002563862D01*
X0000554642Y0002576026D01*
X0000563162Y0002562786D01*
X0000577989Y0002552655D01*
X0000595590Y0002549091D01*
X0000690078Y0002549091D01*
X0000706521Y0002552185D01*
X0000721622Y0002561902D01*
X0000725316Y0002567309D01*
X0000728666Y0002563953D01*
X0000762326Y0002549976D01*
X0000798773Y0002549944D01*
X0000832457Y0002563862D01*
X0000842081Y0002573470D01*
X0000845755Y0002555002D01*
X0000857974Y0002536715D01*
X0000903258Y0002491431D01*
X0000903254Y0002486550D01*
X0000914780Y0002458656D01*
X0000922478Y0002450944D01*
X0000300617Y0002450944D01*
X0000300617Y0002569330D01*
X0000341584Y0002569330D01*
X0000347834Y0002575580D01*
X0000347834Y0002636574D01*
X0000286840Y0002636574D01*
X0000280590Y0002630324D01*
X0000280590Y0002589357D01*
X0000284396Y0002580169D01*
X0000291429Y0002573136D01*
X0000300617Y0002569330D01*
X0000300617Y0002450944D01*
X0000213012Y0002450944D01*
X0000234127Y0002459669D01*
X0000264632Y0002490121D01*
X0000281162Y0002529928D01*
X0000281199Y0002573031D01*
X0000264739Y0002612867D01*
X0000234288Y0002643372D01*
X0000194480Y0002659902D01*
X0000151377Y0002659940D01*
X0000111541Y0002643480D01*
X0000081036Y0002613028D01*
X0000072204Y0002591758D01*
X0000072204Y0003211397D01*
X0000080929Y0003190281D01*
X0000080929Y0003190281D01*
G37*
X0000080929Y0003190281D02*
X0000111381Y0003159776D01*
X0000151188Y0003143247D01*
X0000194291Y0003143209D01*
X0000234127Y0003159669D01*
X0000262427Y0003187919D01*
X0000410803Y0003039543D01*
X0000427793Y0003028191D01*
X0000447834Y0003024204D01*
X0001742915Y0003024204D01*
X0001754803Y0003012296D01*
X0001782677Y0003000721D01*
X0001812859Y0003000695D01*
X0001840753Y0003012221D01*
X0001859455Y0003030891D01*
X0001884508Y0003005838D01*
X0001881369Y0003006967D01*
X0001858919Y0003005896D01*
X0001843149Y0002999364D01*
X0001840230Y0002989675D01*
X0001872834Y0002957071D01*
X0001873391Y0002957627D01*
X0001877074Y0002953944D01*
X0001861818Y0002953944D01*
X0001833159Y0002982603D01*
X0001823469Y0002979685D01*
X0001815867Y0002958534D01*
X0001816086Y0002953944D01*
X0001812834Y0002953944D01*
X0001792793Y0002949958D01*
X0001791953Y0002949397D01*
X0001775803Y0002938606D01*
X0001701142Y0002863944D01*
X0001688174Y0002863944D01*
X0001692925Y0002871055D01*
X0001698700Y0002900088D01*
X0001698700Y0002903061D01*
X0001692925Y0002932093D01*
X0001676480Y0002956706D01*
X0001651867Y0002973152D01*
X0001622834Y0002978927D01*
X0001593801Y0002973152D01*
X0001572834Y0002959142D01*
X0001551867Y0002973152D01*
X0001522834Y0002978927D01*
X0001493801Y0002973152D01*
X0001472834Y0002959142D01*
X0001451867Y0002973152D01*
X0001422834Y0002978927D01*
X0001393801Y0002973152D01*
X0001372834Y0002959142D01*
X0001351867Y0002973152D01*
X0001322834Y0002978927D01*
X0001293801Y0002973152D01*
X0001272834Y0002959142D01*
X0001251867Y0002973152D01*
X0001222834Y0002978927D01*
X0001193801Y0002973152D01*
X0001172834Y0002959142D01*
X0001151867Y0002973152D01*
X0001122834Y0002978927D01*
X0001093801Y0002973152D01*
X0001072834Y0002959142D01*
X0001051867Y0002973152D01*
X0001022834Y0002978927D01*
X0000993801Y0002973152D01*
X0000972834Y0002959142D01*
X0000951867Y0002973152D01*
X0000922834Y0002978927D01*
X0000893801Y0002973152D01*
X0000872834Y0002959142D01*
X0000851867Y0002973152D01*
X0000822834Y0002978927D01*
X0000793801Y0002973152D01*
X0000769189Y0002956706D01*
X0000752743Y0002932093D01*
X0000747556Y0002906015D01*
X0000701809Y0002860269D01*
X0000702073Y0002861574D01*
X0000702073Y0002941574D01*
X0000698980Y0002958017D01*
X0000689262Y0002973118D01*
X0000674435Y0002983249D01*
X0000656834Y0002986814D01*
X0000588834Y0002986814D01*
X0000572392Y0002983720D01*
X0000560832Y0002976282D01*
X0000552825Y0002981632D01*
X0000522834Y0002987597D01*
X0000492843Y0002981632D01*
X0000467418Y0002964643D01*
X0000459756Y0002953176D01*
X0000458347Y0002954753D01*
X0000437590Y0002964752D01*
X0000436969Y0002964856D01*
X0000427834Y0002960087D01*
X0000427834Y0002906574D01*
X0000428622Y0002906574D01*
X0000428622Y0002896574D01*
X0000427834Y0002896574D01*
X0000427834Y0002895787D01*
X0000417834Y0002895787D01*
X0000417834Y0002896574D01*
X0000370042Y0002896574D01*
X0000370042Y0002906574D01*
X0000417834Y0002906574D01*
X0000417834Y0002960087D01*
X0000408699Y0002964856D01*
X0000408079Y0002964752D01*
X0000387321Y0002954753D01*
X0000371970Y0002937571D01*
X0000364362Y0002915823D01*
X0000370042Y0002906574D01*
X0000370042Y0002896574D01*
X0000364362Y0002887326D01*
X0000371970Y0002865577D01*
X0000378790Y0002857944D01*
X0000321183Y0002857944D01*
X0000237694Y0002941434D01*
X0000228388Y0002947652D01*
X0000224474Y0002951573D01*
X0000233727Y0002960810D01*
X0000244692Y0002987216D01*
X0000244717Y0003015807D01*
X0000233798Y0003042232D01*
X0000213598Y0003062467D01*
X0000187193Y0003073432D01*
X0000158601Y0003073457D01*
X0000132176Y0003062538D01*
X0000111941Y0003042339D01*
X0000100977Y0003015933D01*
X0000100952Y0002987341D01*
X0000111870Y0002960916D01*
X0000121194Y0002951576D01*
X0000111941Y0002942339D01*
X0000100977Y0002915933D01*
X0000100952Y0002887341D01*
X0000111870Y0002860916D01*
X0000112772Y0002860013D01*
X0000103659Y0002846675D01*
X0000100095Y0002829074D01*
X0000100095Y0002774074D01*
X0000103189Y0002757632D01*
X0000112906Y0002742530D01*
X0000127733Y0002732399D01*
X0000145334Y0002728835D01*
X0000165854Y0002728835D01*
X0000182974Y0002711715D01*
X0000201262Y0002699495D01*
X0000222834Y0002695204D01*
X0000281175Y0002695204D01*
X0000280590Y0002693791D01*
X0000280590Y0002652824D01*
X0000286840Y0002646574D01*
X0000347834Y0002646574D01*
X0000347834Y0002647362D01*
X0000357834Y0002647362D01*
X0000357834Y0002646574D01*
X0000358622Y0002646574D01*
X0000358622Y0002636574D01*
X0000357834Y0002636574D01*
X0000357834Y0002575580D01*
X0000364084Y0002569330D01*
X0000405051Y0002569330D01*
X0000414240Y0002573136D01*
X0000421272Y0002580169D01*
X0000421626Y0002581023D01*
X0000438666Y0002563953D01*
X0000472326Y0002549976D01*
X0000508773Y0002549944D01*
X0000542457Y0002563862D01*
X0000554642Y0002576026D01*
X0000563162Y0002562786D01*
X0000577989Y0002552655D01*
X0000595590Y0002549091D01*
X0000690078Y0002549091D01*
X0000706521Y0002552185D01*
X0000721622Y0002561902D01*
X0000725316Y0002567309D01*
X0000728666Y0002563953D01*
X0000762326Y0002549976D01*
X0000798773Y0002549944D01*
X0000832457Y0002563862D01*
X0000842081Y0002573470D01*
X0000845755Y0002555002D01*
X0000857974Y0002536715D01*
X0000903258Y0002491431D01*
X0000903254Y0002486550D01*
X0000914780Y0002458656D01*
X0000922478Y0002450944D01*
X0000300617Y0002450944D01*
X0000300617Y0002569330D01*
X0000341584Y0002569330D01*
X0000347834Y0002575580D01*
X0000347834Y0002636574D01*
X0000286840Y0002636574D01*
X0000280590Y0002630324D01*
X0000280590Y0002589357D01*
X0000284396Y0002580169D01*
X0000291429Y0002573136D01*
X0000300617Y0002569330D01*
X0000300617Y0002450944D01*
X0000213012Y0002450944D01*
X0000234127Y0002459669D01*
X0000264632Y0002490121D01*
X0000281162Y0002529928D01*
X0000281199Y0002573031D01*
X0000264739Y0002612867D01*
X0000234288Y0002643372D01*
X0000194480Y0002659902D01*
X0000151377Y0002659940D01*
X0000111541Y0002643480D01*
X0000081036Y0002613028D01*
X0000072204Y0002591758D01*
X0000072204Y0003211397D01*
X0000080929Y0003190281D01*
G36*
X0001847277Y0003459202D02*
X0001847834Y0003458645D01*
X0001848391Y0003459202D01*
X0001855462Y0003452131D01*
X0001854905Y0003451574D01*
X0001855462Y0003451018D01*
X0001848391Y0003443947D01*
X0001847834Y0003444503D01*
X0001847277Y0003443947D01*
X0001840206Y0003451018D01*
X0001840763Y0003451574D01*
X0001840206Y0003452131D01*
X0001847277Y0003459202D01*
X0001847277Y0003459202D01*
G37*
X0001847277Y0003459202D02*
X0001847834Y0003458645D01*
X0001848391Y0003459202D01*
X0001855462Y0003452131D01*
X0001854905Y0003451574D01*
X0001855462Y0003451018D01*
X0001848391Y0003443947D01*
X0001847834Y0003444503D01*
X0001847277Y0003443947D01*
X0001840206Y0003451018D01*
X0001840763Y0003451574D01*
X0001840206Y0003452131D01*
X0001847277Y0003459202D01*
G36*
X0001018767Y0003504089D02*
X0001030040Y0003531236D01*
X0001035406Y0003529273D01*
X0001059427Y0003530281D01*
X0001076934Y0003537533D01*
X0001080336Y0003547631D01*
X0001044881Y0003583086D01*
X0001044325Y0003582529D01*
X0001037254Y0003589600D01*
X0001037810Y0003590157D01*
X0001037254Y0003590714D01*
X0001044325Y0003597785D01*
X0001044881Y0003597228D01*
X0001045438Y0003597785D01*
X0001052509Y0003590714D01*
X0001051952Y0003590157D01*
X0001087407Y0003554702D01*
X0001097505Y0003558104D01*
X0001105766Y0003580682D01*
X0001104862Y0003602204D01*
X0001240844Y0003602204D01*
X0001239903Y0003599632D01*
X0001240911Y0003575611D01*
X0001248163Y0003558104D01*
X0001258261Y0003554702D01*
X0001293716Y0003590157D01*
X0001293159Y0003590714D01*
X0001300230Y0003597785D01*
X0001300787Y0003597228D01*
X0001301344Y0003597785D01*
X0001308415Y0003590714D01*
X0001307858Y0003590157D01*
X0001308415Y0003589600D01*
X0001301344Y0003582529D01*
X0001300787Y0003583086D01*
X0001265332Y0003547631D01*
X0001268734Y0003537533D01*
X0001291312Y0003529273D01*
X0001315333Y0003530281D01*
X0001315942Y0003530534D01*
X0001326818Y0003504213D01*
X0001329436Y0003501590D01*
X0001326901Y0003499060D01*
X0001323182Y0003490102D01*
X0001316730Y0003492781D01*
X0001284983Y0003492809D01*
X0001255641Y0003480685D01*
X0001233172Y0003458256D01*
X0001220998Y0003428935D01*
X0001220970Y0003397187D01*
X0001228120Y0003379882D01*
X0001222834Y0003380934D01*
X0001193048Y0003375009D01*
X0001172834Y0003361503D01*
X0001152620Y0003375009D01*
X0001122834Y0003380934D01*
X0001117542Y0003379881D01*
X0001124671Y0003397048D01*
X0001124698Y0003428796D01*
X0001112575Y0003458137D01*
X0001090145Y0003480606D01*
X0001060825Y0003492781D01*
X0001029077Y0003492809D01*
X0001022504Y0003490093D01*
X0001018850Y0003498936D01*
X0001016232Y0003501558D01*
X0001018767Y0003504089D01*
X0001018767Y0003504089D01*
G37*
X0001018767Y0003504089D02*
X0001030040Y0003531236D01*
X0001035406Y0003529273D01*
X0001059427Y0003530281D01*
X0001076934Y0003537533D01*
X0001080336Y0003547631D01*
X0001044881Y0003583086D01*
X0001044325Y0003582529D01*
X0001037254Y0003589600D01*
X0001037810Y0003590157D01*
X0001037254Y0003590714D01*
X0001044325Y0003597785D01*
X0001044881Y0003597228D01*
X0001045438Y0003597785D01*
X0001052509Y0003590714D01*
X0001051952Y0003590157D01*
X0001087407Y0003554702D01*
X0001097505Y0003558104D01*
X0001105766Y0003580682D01*
X0001104862Y0003602204D01*
X0001240844Y0003602204D01*
X0001239903Y0003599632D01*
X0001240911Y0003575611D01*
X0001248163Y0003558104D01*
X0001258261Y0003554702D01*
X0001293716Y0003590157D01*
X0001293159Y0003590714D01*
X0001300230Y0003597785D01*
X0001300787Y0003597228D01*
X0001301344Y0003597785D01*
X0001308415Y0003590714D01*
X0001307858Y0003590157D01*
X0001308415Y0003589600D01*
X0001301344Y0003582529D01*
X0001300787Y0003583086D01*
X0001265332Y0003547631D01*
X0001268734Y0003537533D01*
X0001291312Y0003529273D01*
X0001315333Y0003530281D01*
X0001315942Y0003530534D01*
X0001326818Y0003504213D01*
X0001329436Y0003501590D01*
X0001326901Y0003499060D01*
X0001323182Y0003490102D01*
X0001316730Y0003492781D01*
X0001284983Y0003492809D01*
X0001255641Y0003480685D01*
X0001233172Y0003458256D01*
X0001220998Y0003428935D01*
X0001220970Y0003397187D01*
X0001228120Y0003379882D01*
X0001222834Y0003380934D01*
X0001193048Y0003375009D01*
X0001172834Y0003361503D01*
X0001152620Y0003375009D01*
X0001122834Y0003380934D01*
X0001117542Y0003379881D01*
X0001124671Y0003397048D01*
X0001124698Y0003428796D01*
X0001112575Y0003458137D01*
X0001090145Y0003480606D01*
X0001060825Y0003492781D01*
X0001029077Y0003492809D01*
X0001022504Y0003490093D01*
X0001018850Y0003498936D01*
X0001016232Y0003501558D01*
X0001018767Y0003504089D01*
G36*
X0000337204Y0003366965D02*
X0000353647Y0003370059D01*
X0000368748Y0003379776D01*
X0000376342Y0003390890D01*
X0000387419Y0003386775D01*
X0000413010Y0003387722D01*
X0000419707Y0003390496D01*
X0000426036Y0003380660D01*
X0000440863Y0003370529D01*
X0000458464Y0003366965D01*
X0000537204Y0003366965D01*
X0000553647Y0003370059D01*
X0000568748Y0003379776D01*
X0000576342Y0003390890D01*
X0000587419Y0003386775D01*
X0000613010Y0003387722D01*
X0000632254Y0003395693D01*
X0000633083Y0003397937D01*
X0000650349Y0003380641D01*
X0000681108Y0003367869D01*
X0000714414Y0003367840D01*
X0000745196Y0003380559D01*
X0000768767Y0003404089D01*
X0000781540Y0003434848D01*
X0000781569Y0003468154D01*
X0000768850Y0003498936D01*
X0000766232Y0003501558D01*
X0000768767Y0003504089D01*
X0000781540Y0003534848D01*
X0000781569Y0003568154D01*
X0000768850Y0003598936D01*
X0000765587Y0003602204D01*
X0000880051Y0003602204D01*
X0000876901Y0003599060D01*
X0000864129Y0003568300D01*
X0000864100Y0003534994D01*
X0000876818Y0003504213D01*
X0000879436Y0003501590D01*
X0000876901Y0003499060D01*
X0000864129Y0003468300D01*
X0000864100Y0003434994D01*
X0000876818Y0003404213D01*
X0000900349Y0003380641D01*
X0000907155Y0003377815D01*
X0000893048Y0003375009D01*
X0000867797Y0003358137D01*
X0000850924Y0003332885D01*
X0000844999Y0003303099D01*
X0000844999Y0003300049D01*
X0000850924Y0003270263D01*
X0000864586Y0003249817D01*
X0000859883Y0003242779D01*
X0000851867Y0003250041D01*
X0000836576Y0003256374D01*
X0000827834Y0003251571D01*
X0000827834Y0003206574D01*
X0000828622Y0003206574D01*
X0000828622Y0003196574D01*
X0000827834Y0003196574D01*
X0000827834Y0003151578D01*
X0000836576Y0003146775D01*
X0000851867Y0003153108D01*
X0000859883Y0003160370D01*
X0000869189Y0003146443D01*
X0000893801Y0003129997D01*
X0000899092Y0003128944D01*
X0000809092Y0003128944D01*
X0000809092Y0003146775D01*
X0000817834Y0003151578D01*
X0000817834Y0003196574D01*
X0000772809Y0003196574D01*
X0000772809Y0003206574D01*
X0000817834Y0003206574D01*
X0000817834Y0003251571D01*
X0000809092Y0003256374D01*
X0000793802Y0003250041D01*
X0000777464Y0003235241D01*
X0000768034Y0003215316D01*
X0000772809Y0003206574D01*
X0000772809Y0003196574D01*
X0000768034Y0003187833D01*
X0000777464Y0003167908D01*
X0000793802Y0003153108D01*
X0000809092Y0003146775D01*
X0000809092Y0003128944D01*
X0000610934Y0003128944D01*
X0000610934Y0003168970D01*
X0000620624Y0003171889D01*
X0000628226Y0003193040D01*
X0000627156Y0003215490D01*
X0000620624Y0003231260D01*
X0000610934Y0003234178D01*
X0000578330Y0003201574D01*
X0000610934Y0003168970D01*
X0000610934Y0003128944D01*
X0000522345Y0003128944D01*
X0000535874Y0003137650D01*
X0000544985Y0003150984D01*
X0000562725Y0003144607D01*
X0000585175Y0003145678D01*
X0000600945Y0003152210D01*
X0000603863Y0003161899D01*
X0000571259Y0003194503D01*
X0000570703Y0003193946D01*
X0000563631Y0003201018D01*
X0000564188Y0003201574D01*
X0000563631Y0003202131D01*
X0000570703Y0003209202D01*
X0000571259Y0003208645D01*
X0000603863Y0003241249D01*
X0000600945Y0003250939D01*
X0000579794Y0003258541D01*
X0000557344Y0003257471D01*
X0000544720Y0003252242D01*
X0000536758Y0003264614D01*
X0000521931Y0003274746D01*
X0000504330Y0003278310D01*
X0000441338Y0003278310D01*
X0000424895Y0003275216D01*
X0000409794Y0003265498D01*
X0000399663Y0003250671D01*
X0000396099Y0003233070D01*
X0000396099Y0003202372D01*
X0000359865Y0003238606D01*
X0000325204Y0003273267D01*
X0000325204Y0003291574D01*
X0000321218Y0003311616D01*
X0000309865Y0003328606D01*
X0000271506Y0003366965D01*
X0000337204Y0003366965D01*
X0000337204Y0003366965D01*
G37*
X0000337204Y0003366965D02*
X0000353647Y0003370059D01*
X0000368748Y0003379776D01*
X0000376342Y0003390890D01*
X0000387419Y0003386775D01*
X0000413010Y0003387722D01*
X0000419707Y0003390496D01*
X0000426036Y0003380660D01*
X0000440863Y0003370529D01*
X0000458464Y0003366965D01*
X0000537204Y0003366965D01*
X0000553647Y0003370059D01*
X0000568748Y0003379776D01*
X0000576342Y0003390890D01*
X0000587419Y0003386775D01*
X0000613010Y0003387722D01*
X0000632254Y0003395693D01*
X0000633083Y0003397937D01*
X0000650349Y0003380641D01*
X0000681108Y0003367869D01*
X0000714414Y0003367840D01*
X0000745196Y0003380559D01*
X0000768767Y0003404089D01*
X0000781540Y0003434848D01*
X0000781569Y0003468154D01*
X0000768850Y0003498936D01*
X0000766232Y0003501558D01*
X0000768767Y0003504089D01*
X0000781540Y0003534848D01*
X0000781569Y0003568154D01*
X0000768850Y0003598936D01*
X0000765587Y0003602204D01*
X0000880051Y0003602204D01*
X0000876901Y0003599060D01*
X0000864129Y0003568300D01*
X0000864100Y0003534994D01*
X0000876818Y0003504213D01*
X0000879436Y0003501590D01*
X0000876901Y0003499060D01*
X0000864129Y0003468300D01*
X0000864100Y0003434994D01*
X0000876818Y0003404213D01*
X0000900349Y0003380641D01*
X0000907155Y0003377815D01*
X0000893048Y0003375009D01*
X0000867797Y0003358137D01*
X0000850924Y0003332885D01*
X0000844999Y0003303099D01*
X0000844999Y0003300049D01*
X0000850924Y0003270263D01*
X0000864586Y0003249817D01*
X0000859883Y0003242779D01*
X0000851867Y0003250041D01*
X0000836576Y0003256374D01*
X0000827834Y0003251571D01*
X0000827834Y0003206574D01*
X0000828622Y0003206574D01*
X0000828622Y0003196574D01*
X0000827834Y0003196574D01*
X0000827834Y0003151578D01*
X0000836576Y0003146775D01*
X0000851867Y0003153108D01*
X0000859883Y0003160370D01*
X0000869189Y0003146443D01*
X0000893801Y0003129997D01*
X0000899092Y0003128944D01*
X0000809092Y0003128944D01*
X0000809092Y0003146775D01*
X0000817834Y0003151578D01*
X0000817834Y0003196574D01*
X0000772809Y0003196574D01*
X0000772809Y0003206574D01*
X0000817834Y0003206574D01*
X0000817834Y0003251571D01*
X0000809092Y0003256374D01*
X0000793802Y0003250041D01*
X0000777464Y0003235241D01*
X0000768034Y0003215316D01*
X0000772809Y0003206574D01*
X0000772809Y0003196574D01*
X0000768034Y0003187833D01*
X0000777464Y0003167908D01*
X0000793802Y0003153108D01*
X0000809092Y0003146775D01*
X0000809092Y0003128944D01*
X0000610934Y0003128944D01*
X0000610934Y0003168970D01*
X0000620624Y0003171889D01*
X0000628226Y0003193040D01*
X0000627156Y0003215490D01*
X0000620624Y0003231260D01*
X0000610934Y0003234178D01*
X0000578330Y0003201574D01*
X0000610934Y0003168970D01*
X0000610934Y0003128944D01*
X0000522345Y0003128944D01*
X0000535874Y0003137650D01*
X0000544985Y0003150984D01*
X0000562725Y0003144607D01*
X0000585175Y0003145678D01*
X0000600945Y0003152210D01*
X0000603863Y0003161899D01*
X0000571259Y0003194503D01*
X0000570703Y0003193946D01*
X0000563631Y0003201018D01*
X0000564188Y0003201574D01*
X0000563631Y0003202131D01*
X0000570703Y0003209202D01*
X0000571259Y0003208645D01*
X0000603863Y0003241249D01*
X0000600945Y0003250939D01*
X0000579794Y0003258541D01*
X0000557344Y0003257471D01*
X0000544720Y0003252242D01*
X0000536758Y0003264614D01*
X0000521931Y0003274746D01*
X0000504330Y0003278310D01*
X0000441338Y0003278310D01*
X0000424895Y0003275216D01*
X0000409794Y0003265498D01*
X0000399663Y0003250671D01*
X0000396099Y0003233070D01*
X0000396099Y0003202372D01*
X0000359865Y0003238606D01*
X0000325204Y0003273267D01*
X0000325204Y0003291574D01*
X0000321218Y0003311616D01*
X0000309865Y0003328606D01*
X0000271506Y0003366965D01*
X0000337204Y0003366965D01*
G36*
X0000597277Y0003459202D02*
X0000597834Y0003458645D01*
X0000598391Y0003459202D01*
X0000605462Y0003452131D01*
X0000604905Y0003451574D01*
X0000605462Y0003451018D01*
X0000598391Y0003443947D01*
X0000597834Y0003444503D01*
X0000597277Y0003443947D01*
X0000590206Y0003451018D01*
X0000590763Y0003451574D01*
X0000590206Y0003452131D01*
X0000597277Y0003459202D01*
X0000597277Y0003459202D01*
G37*
X0000597277Y0003459202D02*
X0000597834Y0003458645D01*
X0000598391Y0003459202D01*
X0000605462Y0003452131D01*
X0000604905Y0003451574D01*
X0000605462Y0003451018D01*
X0000598391Y0003443947D01*
X0000597834Y0003444503D01*
X0000597277Y0003443947D01*
X0000590206Y0003451018D01*
X0000590763Y0003451574D01*
X0000590206Y0003452131D01*
X0000597277Y0003459202D01*
G36*
X0000397277Y0003459202D02*
X0000397834Y0003458645D01*
X0000398391Y0003459202D01*
X0000405462Y0003452131D01*
X0000404905Y0003451574D01*
X0000405462Y0003451018D01*
X0000398391Y0003443947D01*
X0000397834Y0003444503D01*
X0000397277Y0003443947D01*
X0000390206Y0003451018D01*
X0000390763Y0003451574D01*
X0000390206Y0003452131D01*
X0000397277Y0003459202D01*
X0000397277Y0003459202D01*
G37*
X0000397277Y0003459202D02*
X0000397834Y0003458645D01*
X0000398391Y0003459202D01*
X0000405462Y0003452131D01*
X0000404905Y0003451574D01*
X0000405462Y0003451018D01*
X0000398391Y0003443947D01*
X0000397834Y0003444503D01*
X0000397277Y0003443947D01*
X0000390206Y0003451018D01*
X0000390763Y0003451574D01*
X0000390206Y0003452131D01*
X0000397277Y0003459202D01*
G36*
X0000197277Y0003459202D02*
X0000197834Y0003458645D01*
X0000198391Y0003459202D01*
X0000205462Y0003452131D01*
X0000204905Y0003451574D01*
X0000205462Y0003451018D01*
X0000198391Y0003443947D01*
X0000197834Y0003444503D01*
X0000197277Y0003443947D01*
X0000190206Y0003451018D01*
X0000190763Y0003451574D01*
X0000190206Y0003452131D01*
X0000197277Y0003459202D01*
X0000197277Y0003459202D01*
G37*
X0000197277Y0003459202D02*
X0000197834Y0003458645D01*
X0000198391Y0003459202D01*
X0000205462Y0003452131D01*
X0000204905Y0003451574D01*
X0000205462Y0003451018D01*
X0000198391Y0003443947D01*
X0000197834Y0003444503D01*
X0000197277Y0003443947D01*
X0000190206Y0003451018D01*
X0000190763Y0003451574D01*
X0000190206Y0003452131D01*
X0000197277Y0003459202D01*
G04 next file*
G04 #@! TF.FileFunction,Copper,L1,Top,Signal*
G04 Gerber Fmt 4.6, Leading zero omitted, Abs format (unit mm)*
G04 Created by KiCad (PCBNEW 4.0.6) date 09/06/18 10:25:07*
G01*
G04 APERTURE LIST*
G04 APERTURE END LIST*
D66*
D67*
X-0003461417Y0004650000D02*
X0002388582Y0000075000D03*
X0002388582Y0000175000D03*
D68*
X0002388582Y0000475000D03*
D69*
X0002388582Y0000575000D03*
D70*
X0001438582Y0000250000D03*
D71*
X0001438582Y0000348425D03*
X0001438582Y0000446850D03*
X0001438582Y0000545275D03*
X0001438582Y0000643700D03*
D70*
X0001788582Y0000450000D03*
D71*
X0001887007Y0000450000D03*
D72*
X0002238582Y0000100000D03*
D73*
X0002238582Y0000200000D03*
X0002238582Y0000300000D03*
X0002238582Y0000400000D03*
X0002238582Y0000500000D03*
X0002238582Y0000600000D03*
X0002238582Y0000700000D03*
X0002238582Y0000800000D03*
X0002238582Y0000900000D03*
X0002238582Y0001000000D03*
X0002238582Y0001100000D03*
X0002238582Y0001200000D03*
X0002238582Y0001300000D03*
X0002238582Y0001400000D03*
D74*
X0001788582Y0000275000D03*
D75*
X0001788582Y0000176574D03*
D76*
X0002138582Y0000700000D03*
X0002138582Y0000800000D03*
X0002138582Y0000900000D03*
X0002138582Y0001000000D03*
X0002138582Y0001100000D03*
X0002138582Y0001200000D03*
X0002138582Y0001300000D03*
X0002138582Y0001400000D03*
X0002138582Y0001500000D03*
X0001838582Y0001500000D03*
X0001838582Y0001400000D03*
X0001838582Y0001300000D03*
X0001838582Y0001200000D03*
X0001838582Y0001100000D03*
X0001838582Y0001000000D03*
X0001838582Y0000900000D03*
X0001838582Y0000800000D03*
X0001838582Y0000700000D03*
D70*
X0001438582Y0000950000D03*
D71*
X0001438582Y0001048425D03*
X0001438582Y0001146850D03*
X0001438582Y0001245275D03*
X0001438582Y0001343700D03*
X0002138582Y0001751574D03*
D70*
X0002138582Y0001850000D03*
D77*
X0001838582Y0001700000D03*
D78*
X0001838582Y0001800000D03*
X0001838582Y0001900000D03*
D79*
X0001738582Y0002150000D03*
D80*
X0001838582Y0002150000D03*
X0001938582Y0002150000D03*
D81*
X0001578582Y0001832204D03*
D82*
X0001578582Y0001970000D03*
D81*
X0001578582Y0001542204D03*
D82*
X0001578582Y0001680000D03*
D68*
X0002388582Y0001725000D03*
D69*
X0002388582Y0001825000D03*
D83*
X0002388582Y0000925000D03*
X0002388582Y0000675000D03*
X0002488582Y0001375000D03*
X0002488582Y0001625000D03*
X0002488582Y0000925000D03*
X0002488582Y0000675000D03*
X0002388582Y0001375000D03*
X0002388582Y0001625000D03*
D71*
X0002113582Y0000275000D03*
X0002113582Y0000525000D03*
X0002013582Y0000275000D03*
X0002013582Y0000525000D03*
D84*
X0002350000Y0001277952D03*
X0002527165Y0001277952D03*
X0002350000Y0001022047D03*
X0002527165Y0001022047D03*
D72*
X0001638582Y0000100000D03*
D73*
X0001638582Y0000200000D03*
X0001638582Y0000300000D03*
X0001638582Y0000400000D03*
X0001638582Y0000500000D03*
X0001638582Y0000600000D03*
X0001638582Y0000700000D03*
X0001638582Y0000800000D03*
X0001638582Y0000900000D03*
X0001638582Y0001000000D03*
X0001638582Y0001100000D03*
X0001638582Y0001200000D03*
X0001638582Y0001300000D03*
X0001638582Y0001400000D03*
D85*
X0001748582Y0000697716D03*
X0001748582Y0000662283D03*
D68*
X0002388582Y0000275000D03*
D69*
X0002388582Y0000375000D03*
D68*
X0002388582Y0001925000D03*
D69*
X0002388582Y0002025000D03*
D67*
X0002388582Y0002125000D03*
X0002388582Y0002225000D03*
D86*
X0001788582Y0000176574D02*
X0001722007Y0000176574D01*
X0001698582Y0000200000D02*
X0001638582Y0000200000D01*
X0001722007Y0000176574D02*
X0001698582Y0000200000D01*
D87*
X0002527165Y0001022047D02*
X0002527165Y0001111417D01*
X0002088582Y0001500000D02*
X0002138582Y0001500000D01*
X0002063582Y0001475000D02*
X0002088582Y0001500000D01*
X0002063582Y0001175000D02*
X0002063582Y0001475000D01*
X0002088582Y0001150000D02*
X0002063582Y0001175000D01*
X0002488582Y0001150000D02*
X0002088582Y0001150000D01*
X0002527165Y0001111417D02*
X0002488582Y0001150000D01*
D86*
X0001887007Y0000450000D02*
X0001887007Y0000548425D01*
X0001888582Y0001900000D02*
X0001838582Y0001900000D01*
X0001938582Y0001850000D02*
X0001888582Y0001900000D01*
X0001938582Y0000600000D02*
X0001938582Y0001850000D01*
X0001887007Y0000548425D02*
X0001938582Y0000600000D01*
D87*
X0002524212Y0001275000D02*
X0002527165Y0001277952D01*
X0002527165Y0001277952D02*
X0002527165Y0001022047D01*
X0002163582Y0000375000D02*
X0002163582Y0000500000D01*
X0001708582Y0000280000D02*
X0001763582Y0000225000D01*
X0001763582Y0000225000D02*
X0001863582Y0000225000D01*
X0001863582Y0000225000D02*
X0001963582Y0000325000D01*
X0001963582Y0000325000D02*
X0002113582Y0000325000D01*
X0002113582Y0000325000D02*
X0002163582Y0000375000D01*
X0002488582Y0000925000D02*
X0002313582Y0000750000D01*
X0001676082Y0000600000D02*
X0001638582Y0000600000D01*
X0001708582Y0000567500D02*
X0001676082Y0000600000D01*
X0001708582Y0000415000D02*
X0001708582Y0000567500D01*
X0001708582Y0000415000D02*
X0001708582Y0000280000D01*
X0002313582Y0000575000D02*
X0002313582Y0000750000D01*
X0002288582Y0000550000D02*
X0002313582Y0000575000D01*
X0002213582Y0000550000D02*
X0002288582Y0000550000D01*
X0002163582Y0000500000D02*
X0002213582Y0000550000D01*
X0002488582Y0000925000D02*
X0002488582Y0000887500D01*
D86*
X0001578582Y0001832204D02*
X0001578582Y0001680000D01*
X0001578582Y0001542204D02*
X0001605787Y0001542204D01*
X0001605787Y0001542204D02*
X0001688582Y0001625000D01*
X0001688582Y0001625000D02*
X0001688582Y0002100000D01*
X0001688582Y0002100000D02*
X0001738582Y0002150000D01*
D87*
X0002238582Y0000500000D02*
X0002243582Y0000500000D01*
X0001748582Y0000697716D02*
X0001748582Y0001050000D01*
X0001698582Y0001100000D02*
X0001638582Y0001100000D01*
X0001748582Y0001050000D02*
X0001698582Y0001100000D01*
X0001748582Y0000662283D02*
X0001748582Y0000697716D01*
X0002113582Y0000525000D02*
X0002103582Y0000525000D01*
X0002103582Y0000525000D02*
X0001948582Y0000370000D01*
X0001748582Y0000600000D02*
X0001748582Y0000662283D01*
X0001838582Y0000510000D02*
X0001748582Y0000600000D01*
X0001838582Y0000390000D02*
X0001838582Y0000510000D01*
X0001858582Y0000370000D02*
X0001838582Y0000390000D01*
X0001948582Y0000370000D02*
X0001858582Y0000370000D01*
X0002388582Y0002225000D02*
X0002353582Y0002225000D01*
X0002013582Y0001875000D02*
X0002013582Y0000525000D01*
X0002013582Y0001875000D02*
X0002138582Y0002000000D01*
X0002188582Y0002050000D02*
X0002138582Y0002000000D01*
X0002228582Y0002050000D02*
X0002188582Y0002050000D01*
X0002308582Y0002130000D02*
X0002228582Y0002050000D01*
X0002308582Y0002180000D02*
X0002308582Y0002130000D01*
X0002353582Y0002225000D02*
X0002308582Y0002180000D01*
X0002013582Y0000525000D02*
X0002013582Y0000550000D01*
X0002013582Y0000550000D02*
X0002063582Y0000600000D01*
X0002063582Y0000600000D02*
X0002238582Y0000600000D01*
X0002363582Y0002225000D02*
X0002388582Y0002225000D01*
D86*
X0001438582Y0000643700D02*
X0001469881Y0000643700D01*
X0001469881Y0000643700D02*
X0001538582Y0000575000D01*
X0001588582Y0000100000D02*
X0001638582Y0000100000D01*
X0001538582Y0000150000D02*
X0001588582Y0000100000D01*
X0001538582Y0000575000D02*
X0001538582Y0000150000D01*
X0001438582Y0000643700D02*
X0001444881Y0000643700D01*
X0001513582Y0000800000D02*
X0001513582Y0000718700D01*
X0001513582Y0000800000D02*
X0001513582Y0001268700D01*
X0001438582Y0001343700D02*
X0001513582Y0001268700D01*
X0001513582Y0000718700D02*
X0001438582Y0000643700D01*
X0001438582Y0001343700D02*
X0001438582Y0001350000D01*
X0001438582Y0001350000D02*
X0001513582Y0001425000D01*
X0001813582Y0001475000D02*
X0001838582Y0001500000D01*
X0001613582Y0001475000D02*
X0001813582Y0001475000D01*
X0001563582Y0001425000D02*
X0001613582Y0001475000D01*
X0001513582Y0001425000D02*
X0001563582Y0001425000D01*
X0001838582Y0001800000D02*
X0001788582Y0001800000D01*
X0001788582Y0001800000D02*
X0001738582Y0001750000D01*
X0001838582Y0002150000D02*
X0001838582Y0002125000D01*
X0001838582Y0002125000D02*
X0001738582Y0002025000D01*
X0001738582Y0002025000D02*
X0001738582Y0001750000D01*
X0001738582Y0001750000D02*
X0001738582Y0001600000D01*
X0001738582Y0001600000D02*
X0001838582Y0001500000D01*
D87*
X0002113582Y0000275000D02*
X0002013582Y0000275000D01*
X0002238582Y0000200000D02*
X0002153582Y0000200000D01*
X0002113582Y0000240000D02*
X0002113582Y0000275000D01*
X0002153582Y0000200000D02*
X0002113582Y0000240000D01*
D88*
G36*
X0001726551Y0000187968D02*
X0001732943Y0000183697D01*
X0001737678Y0000180534D01*
X0001738658Y0000163605D01*
X0001744109Y0000150443D01*
X0001753188Y0000148251D01*
X0001777566Y0000172629D01*
X0001799598Y0000172629D01*
X0001823977Y0000148251D01*
X0001830236Y0000149762D01*
X0001830217Y0000128543D01*
X0001846677Y0000088706D01*
X0001877129Y0000058201D01*
X0001898398Y0000049370D01*
X0001713810Y0000049370D01*
X0001717286Y0000066535D01*
X0001717286Y0000133464D01*
X0001715834Y0000141180D01*
X0001760259Y0000141180D01*
X0001762451Y0000132101D01*
X0001781459Y0000125487D01*
X0001801552Y0000126650D01*
X0001814713Y0000132101D01*
X0001816905Y0000141180D01*
X0001788582Y0000169503D01*
X0001760259Y0000141180D01*
X0001715834Y0000141180D01*
X0001714192Y0000149907D01*
X0001704475Y0000165008D01*
X0001690589Y0000174496D01*
X0001695333Y0000185949D01*
X0001690557Y0000195000D01*
X0001643582Y0000195000D01*
X0001643582Y0000194212D01*
X0001633582Y0000194212D01*
X0001633582Y0000195000D01*
X0001632795Y0000195000D01*
X0001632795Y0000205000D01*
X0001633582Y0000205000D01*
X0001633582Y0000205787D01*
X0001643582Y0000205787D01*
X0001643582Y0000205000D01*
X0001690557Y0000205000D01*
X0001695333Y0000214050D01*
X0001691702Y0000222817D01*
X0001726551Y0000187968D01*
X0001726551Y0000187968D01*
G37*
X0001726551Y0000187968D02*
X0001732943Y0000183697D01*
X0001737678Y0000180534D01*
X0001738658Y0000163605D01*
X0001744109Y0000150443D01*
X0001753188Y0000148251D01*
X0001777566Y0000172629D01*
X0001799598Y0000172629D01*
X0001823977Y0000148251D01*
X0001830236Y0000149762D01*
X0001830217Y0000128543D01*
X0001846677Y0000088706D01*
X0001877129Y0000058201D01*
X0001898398Y0000049370D01*
X0001713810Y0000049370D01*
X0001717286Y0000066535D01*
X0001717286Y0000133464D01*
X0001715834Y0000141180D01*
X0001760259Y0000141180D01*
X0001762451Y0000132101D01*
X0001781459Y0000125487D01*
X0001801552Y0000126650D01*
X0001814713Y0000132101D01*
X0001816905Y0000141180D01*
X0001788582Y0000169503D01*
X0001760259Y0000141180D01*
X0001715834Y0000141180D01*
X0001714192Y0000149907D01*
X0001704475Y0000165008D01*
X0001690589Y0000174496D01*
X0001695333Y0000185949D01*
X0001690557Y0000195000D01*
X0001643582Y0000195000D01*
X0001643582Y0000194212D01*
X0001633582Y0000194212D01*
X0001633582Y0000195000D01*
X0001632795Y0000195000D01*
X0001632795Y0000205000D01*
X0001633582Y0000205000D01*
X0001633582Y0000205787D01*
X0001643582Y0000205787D01*
X0001643582Y0000205000D01*
X0001690557Y0000205000D01*
X0001695333Y0000214050D01*
X0001691702Y0000222817D01*
X0001726551Y0000187968D01*
G36*
X0002396210Y0000075556D02*
X0002395653Y0000075000D01*
X0002396210Y0000074443D01*
X0002389139Y0000067372D01*
X0002388582Y0000067928D01*
X0002388025Y0000067372D01*
X0002380954Y0000074443D01*
X0002381511Y0000075000D01*
X0002380954Y0000075556D01*
X0002388025Y0000082627D01*
X0002388582Y0000082071D01*
X0002389139Y0000082627D01*
X0002396210Y0000075556D01*
X0002396210Y0000075556D01*
G37*
X0002396210Y0000075556D02*
X0002395653Y0000075000D01*
X0002396210Y0000074443D01*
X0002389139Y0000067372D01*
X0002388582Y0000067928D01*
X0002388025Y0000067372D01*
X0002380954Y0000074443D01*
X0002381511Y0000075000D01*
X0002380954Y0000075556D01*
X0002388025Y0000082627D01*
X0002388582Y0000082071D01*
X0002389139Y0000082627D01*
X0002396210Y0000075556D01*
G36*
X0002396210Y0000275556D02*
X0002395653Y0000275000D01*
X0002396210Y0000274443D01*
X0002389139Y0000267372D01*
X0002388582Y0000267928D01*
X0002388025Y0000267372D01*
X0002380954Y0000274443D01*
X0002381511Y0000275000D01*
X0002380954Y0000275556D01*
X0002388025Y0000282627D01*
X0002388582Y0000282071D01*
X0002389139Y0000282627D01*
X0002396210Y0000275556D01*
X0002396210Y0000275556D01*
G37*
X0002396210Y0000275556D02*
X0002395653Y0000275000D01*
X0002396210Y0000274443D01*
X0002389139Y0000267372D01*
X0002388582Y0000267928D01*
X0002388025Y0000267372D01*
X0002380954Y0000274443D01*
X0002381511Y0000275000D01*
X0002380954Y0000275556D01*
X0002388025Y0000282627D01*
X0002388582Y0000282071D01*
X0002389139Y0000282627D01*
X0002396210Y0000275556D01*
G36*
X0002127289Y0002241905D02*
X0002096784Y0002211453D01*
X0002080255Y0002171645D01*
X0002080217Y0002128543D01*
X0002096677Y0002088706D01*
X0002124927Y0002060407D01*
X0001976551Y0001912031D01*
X0001965199Y0001895041D01*
X0001961212Y0001875000D01*
X0001961212Y0000579918D01*
X0001949304Y0000568030D01*
X0001937729Y0000540156D01*
X0001937703Y0000509975D01*
X0001949229Y0000482081D01*
X0001967899Y0000463378D01*
X0001942846Y0000438326D01*
X0001943975Y0000441465D01*
X0001942904Y0000463915D01*
X0001936372Y0000479685D01*
X0001926682Y0000482603D01*
X0001894078Y0000450000D01*
X0001894635Y0000449443D01*
X0001890952Y0000445760D01*
X0001890952Y0000461015D01*
X0001919611Y0000489675D01*
X0001916693Y0000499364D01*
X0001895542Y0000506967D01*
X0001890952Y0000506748D01*
X0001890952Y0000510000D01*
X0001886966Y0000530041D01*
X0001886404Y0000530881D01*
X0001875613Y0000547031D01*
X0001800952Y0000621692D01*
X0001800952Y0000634660D01*
X0001808063Y0000629908D01*
X0001837096Y0000624133D01*
X0001840069Y0000624133D01*
X0001869101Y0000629908D01*
X0001893714Y0000646354D01*
X0001910160Y0000670967D01*
X0001915935Y0000700000D01*
X0001910160Y0000729032D01*
X0001896150Y0000750000D01*
X0001910160Y0000770967D01*
X0001915935Y0000800000D01*
X0001910160Y0000829032D01*
X0001896150Y0000850000D01*
X0001910160Y0000870967D01*
X0001915935Y0000900000D01*
X0001910160Y0000929032D01*
X0001896150Y0000950000D01*
X0001910160Y0000970967D01*
X0001915935Y0001000000D01*
X0001910160Y0001029032D01*
X0001896150Y0001050000D01*
X0001910160Y0001070967D01*
X0001915935Y0001100000D01*
X0001910160Y0001129032D01*
X0001896150Y0001150000D01*
X0001910160Y0001170967D01*
X0001915935Y0001200000D01*
X0001910160Y0001229032D01*
X0001896150Y0001250000D01*
X0001910160Y0001270967D01*
X0001915935Y0001300000D01*
X0001910160Y0001329032D01*
X0001896150Y0001350000D01*
X0001910160Y0001370967D01*
X0001915935Y0001400000D01*
X0001910160Y0001429032D01*
X0001896150Y0001450000D01*
X0001910160Y0001470967D01*
X0001915935Y0001500000D01*
X0001910160Y0001529032D01*
X0001893714Y0001553645D01*
X0001869101Y0001570091D01*
X0001843023Y0001575278D01*
X0001797276Y0001621025D01*
X0001798582Y0001620760D01*
X0001878582Y0001620760D01*
X0001895025Y0001623854D01*
X0001910126Y0001633572D01*
X0001920257Y0001648399D01*
X0001923822Y0001666000D01*
X0001923822Y0001734000D01*
X0001920728Y0001750442D01*
X0001913289Y0001762001D01*
X0001918640Y0001770009D01*
X0001924605Y0001800000D01*
X0001918640Y0001829990D01*
X0001901651Y0001855416D01*
X0001890184Y0001863078D01*
X0001891761Y0001864486D01*
X0001901760Y0001885244D01*
X0001901864Y0001885865D01*
X0001897095Y0001895000D01*
X0001843582Y0001895000D01*
X0001843582Y0001894212D01*
X0001833582Y0001894212D01*
X0001833582Y0001895000D01*
X0001832795Y0001895000D01*
X0001832795Y0001905000D01*
X0001833582Y0001905000D01*
X0001833582Y0001952792D01*
X0001843582Y0001952792D01*
X0001843582Y0001905000D01*
X0001897095Y0001905000D01*
X0001901864Y0001914134D01*
X0001901760Y0001914755D01*
X0001891761Y0001935513D01*
X0001874579Y0001950864D01*
X0001852831Y0001958471D01*
X0001843582Y0001952792D01*
X0001833582Y0001952792D01*
X0001824334Y0001958471D01*
X0001802585Y0001950864D01*
X0001794952Y0001944044D01*
X0001794952Y0002001650D01*
X0001878442Y0002085140D01*
X0001884660Y0002094446D01*
X0001888581Y0002098360D01*
X0001897818Y0002089107D01*
X0001924224Y0002078142D01*
X0001952815Y0002078117D01*
X0001979240Y0002089035D01*
X0001999475Y0002109235D01*
X0002010440Y0002135641D01*
X0002010465Y0002164233D01*
X0001999546Y0002190657D01*
X0001979347Y0002210892D01*
X0001952941Y0002221857D01*
X0001924349Y0002221882D01*
X0001897924Y0002210964D01*
X0001888584Y0002201639D01*
X0001879347Y0002210892D01*
X0001852941Y0002221857D01*
X0001824349Y0002221882D01*
X0001797924Y0002210964D01*
X0001797021Y0002210061D01*
X0001783683Y0002219175D01*
X0001766082Y0002222739D01*
X0001711082Y0002222739D01*
X0001694640Y0002219645D01*
X0001679538Y0002209927D01*
X0001669407Y0002195100D01*
X0001665843Y0002177500D01*
X0001665843Y0002156979D01*
X0001648723Y0002139859D01*
X0001636503Y0002121571D01*
X0001632212Y0002100000D01*
X0001632212Y0002041658D01*
X0001630799Y0002042244D01*
X0001589832Y0002042244D01*
X0001583582Y0002035994D01*
X0001583582Y0001975000D01*
X0001584370Y0001975000D01*
X0001584370Y0001965000D01*
X0001583582Y0001965000D01*
X0001583582Y0001964212D01*
X0001573582Y0001964212D01*
X0001573582Y0001965000D01*
X0001512588Y0001965000D01*
X0001506338Y0001958750D01*
X0001506338Y0001917783D01*
X0001510144Y0001908594D01*
X0001517177Y0001901561D01*
X0001518031Y0001901208D01*
X0001500961Y0001884167D01*
X0001486984Y0001850507D01*
X0001486952Y0001814061D01*
X0001500870Y0001780377D01*
X0001513034Y0001768191D01*
X0001499794Y0001759672D01*
X0001489663Y0001744844D01*
X0001486099Y0001727244D01*
X0001486099Y0001632755D01*
X0001489193Y0001616313D01*
X0001498910Y0001601211D01*
X0001504317Y0001597517D01*
X0001500961Y0001594167D01*
X0001486984Y0001560507D01*
X0001486952Y0001524061D01*
X0001500870Y0001490377D01*
X0001510478Y0001480752D01*
X0001492010Y0001477079D01*
X0001473723Y0001464859D01*
X0001428439Y0001419575D01*
X0001423558Y0001419580D01*
X0001395664Y0001408054D01*
X0001387952Y0001400356D01*
X0001387952Y0002022216D01*
X0001506338Y0002022216D01*
X0001506338Y0001981250D01*
X0001512588Y0001975000D01*
X0001573582Y0001975000D01*
X0001573582Y0002035994D01*
X0001567332Y0002042244D01*
X0001526365Y0002042244D01*
X0001517177Y0002038438D01*
X0001510144Y0002031405D01*
X0001506338Y0002022216D01*
X0001387952Y0002022216D01*
X0001387952Y0002109822D01*
X0001396677Y0002088706D01*
X0001427129Y0002058201D01*
X0001466936Y0002041672D01*
X0001510039Y0002041634D01*
X0001549875Y0002058094D01*
X0001580380Y0002088546D01*
X0001596910Y0002128354D01*
X0001596947Y0002171456D01*
X0001580487Y0002211293D01*
X0001550036Y0002241798D01*
X0001528766Y0002250629D01*
X0002148404Y0002250629D01*
X0002127289Y0002241905D01*
X0002127289Y0002241905D01*
G37*
X0002127289Y0002241905D02*
X0002096784Y0002211453D01*
X0002080255Y0002171645D01*
X0002080217Y0002128543D01*
X0002096677Y0002088706D01*
X0002124927Y0002060407D01*
X0001976551Y0001912031D01*
X0001965199Y0001895041D01*
X0001961212Y0001875000D01*
X0001961212Y0000579918D01*
X0001949304Y0000568030D01*
X0001937729Y0000540156D01*
X0001937703Y0000509975D01*
X0001949229Y0000482081D01*
X0001967899Y0000463378D01*
X0001942846Y0000438326D01*
X0001943975Y0000441465D01*
X0001942904Y0000463915D01*
X0001936372Y0000479685D01*
X0001926682Y0000482603D01*
X0001894078Y0000450000D01*
X0001894635Y0000449443D01*
X0001890952Y0000445760D01*
X0001890952Y0000461015D01*
X0001919611Y0000489675D01*
X0001916693Y0000499364D01*
X0001895542Y0000506967D01*
X0001890952Y0000506748D01*
X0001890952Y0000510000D01*
X0001886966Y0000530041D01*
X0001886404Y0000530881D01*
X0001875613Y0000547031D01*
X0001800952Y0000621692D01*
X0001800952Y0000634660D01*
X0001808063Y0000629908D01*
X0001837096Y0000624133D01*
X0001840069Y0000624133D01*
X0001869101Y0000629908D01*
X0001893714Y0000646354D01*
X0001910160Y0000670967D01*
X0001915935Y0000700000D01*
X0001910160Y0000729032D01*
X0001896150Y0000750000D01*
X0001910160Y0000770967D01*
X0001915935Y0000800000D01*
X0001910160Y0000829032D01*
X0001896150Y0000850000D01*
X0001910160Y0000870967D01*
X0001915935Y0000900000D01*
X0001910160Y0000929032D01*
X0001896150Y0000950000D01*
X0001910160Y0000970967D01*
X0001915935Y0001000000D01*
X0001910160Y0001029032D01*
X0001896150Y0001050000D01*
X0001910160Y0001070967D01*
X0001915935Y0001100000D01*
X0001910160Y0001129032D01*
X0001896150Y0001150000D01*
X0001910160Y0001170967D01*
X0001915935Y0001200000D01*
X0001910160Y0001229032D01*
X0001896150Y0001250000D01*
X0001910160Y0001270967D01*
X0001915935Y0001300000D01*
X0001910160Y0001329032D01*
X0001896150Y0001350000D01*
X0001910160Y0001370967D01*
X0001915935Y0001400000D01*
X0001910160Y0001429032D01*
X0001896150Y0001450000D01*
X0001910160Y0001470967D01*
X0001915935Y0001500000D01*
X0001910160Y0001529032D01*
X0001893714Y0001553645D01*
X0001869101Y0001570091D01*
X0001843023Y0001575278D01*
X0001797276Y0001621025D01*
X0001798582Y0001620760D01*
X0001878582Y0001620760D01*
X0001895025Y0001623854D01*
X0001910126Y0001633572D01*
X0001920257Y0001648399D01*
X0001923822Y0001666000D01*
X0001923822Y0001734000D01*
X0001920728Y0001750442D01*
X0001913289Y0001762001D01*
X0001918640Y0001770009D01*
X0001924605Y0001800000D01*
X0001918640Y0001829990D01*
X0001901651Y0001855416D01*
X0001890184Y0001863078D01*
X0001891761Y0001864486D01*
X0001901760Y0001885244D01*
X0001901864Y0001885865D01*
X0001897095Y0001895000D01*
X0001843582Y0001895000D01*
X0001843582Y0001894212D01*
X0001833582Y0001894212D01*
X0001833582Y0001895000D01*
X0001832795Y0001895000D01*
X0001832795Y0001905000D01*
X0001833582Y0001905000D01*
X0001833582Y0001952792D01*
X0001843582Y0001952792D01*
X0001843582Y0001905000D01*
X0001897095Y0001905000D01*
X0001901864Y0001914134D01*
X0001901760Y0001914755D01*
X0001891761Y0001935513D01*
X0001874579Y0001950864D01*
X0001852831Y0001958471D01*
X0001843582Y0001952792D01*
X0001833582Y0001952792D01*
X0001824334Y0001958471D01*
X0001802585Y0001950864D01*
X0001794952Y0001944044D01*
X0001794952Y0002001650D01*
X0001878442Y0002085140D01*
X0001884660Y0002094446D01*
X0001888581Y0002098360D01*
X0001897818Y0002089107D01*
X0001924224Y0002078142D01*
X0001952815Y0002078117D01*
X0001979240Y0002089035D01*
X0001999475Y0002109235D01*
X0002010440Y0002135641D01*
X0002010465Y0002164233D01*
X0001999546Y0002190657D01*
X0001979347Y0002210892D01*
X0001952941Y0002221857D01*
X0001924349Y0002221882D01*
X0001897924Y0002210964D01*
X0001888584Y0002201639D01*
X0001879347Y0002210892D01*
X0001852941Y0002221857D01*
X0001824349Y0002221882D01*
X0001797924Y0002210964D01*
X0001797021Y0002210061D01*
X0001783683Y0002219175D01*
X0001766082Y0002222739D01*
X0001711082Y0002222739D01*
X0001694640Y0002219645D01*
X0001679538Y0002209927D01*
X0001669407Y0002195100D01*
X0001665843Y0002177500D01*
X0001665843Y0002156979D01*
X0001648723Y0002139859D01*
X0001636503Y0002121571D01*
X0001632212Y0002100000D01*
X0001632212Y0002041658D01*
X0001630799Y0002042244D01*
X0001589832Y0002042244D01*
X0001583582Y0002035994D01*
X0001583582Y0001975000D01*
X0001584370Y0001975000D01*
X0001584370Y0001965000D01*
X0001583582Y0001965000D01*
X0001583582Y0001964212D01*
X0001573582Y0001964212D01*
X0001573582Y0001965000D01*
X0001512588Y0001965000D01*
X0001506338Y0001958750D01*
X0001506338Y0001917783D01*
X0001510144Y0001908594D01*
X0001517177Y0001901561D01*
X0001518031Y0001901208D01*
X0001500961Y0001884167D01*
X0001486984Y0001850507D01*
X0001486952Y0001814061D01*
X0001500870Y0001780377D01*
X0001513034Y0001768191D01*
X0001499794Y0001759672D01*
X0001489663Y0001744844D01*
X0001486099Y0001727244D01*
X0001486099Y0001632755D01*
X0001489193Y0001616313D01*
X0001498910Y0001601211D01*
X0001504317Y0001597517D01*
X0001500961Y0001594167D01*
X0001486984Y0001560507D01*
X0001486952Y0001524061D01*
X0001500870Y0001490377D01*
X0001510478Y0001480752D01*
X0001492010Y0001477079D01*
X0001473723Y0001464859D01*
X0001428439Y0001419575D01*
X0001423558Y0001419580D01*
X0001395664Y0001408054D01*
X0001387952Y0001400356D01*
X0001387952Y0002022216D01*
X0001506338Y0002022216D01*
X0001506338Y0001981250D01*
X0001512588Y0001975000D01*
X0001573582Y0001975000D01*
X0001573582Y0002035994D01*
X0001567332Y0002042244D01*
X0001526365Y0002042244D01*
X0001517177Y0002038438D01*
X0001510144Y0002031405D01*
X0001506338Y0002022216D01*
X0001387952Y0002022216D01*
X0001387952Y0002109822D01*
X0001396677Y0002088706D01*
X0001427129Y0002058201D01*
X0001466936Y0002041672D01*
X0001510039Y0002041634D01*
X0001549875Y0002058094D01*
X0001580380Y0002088546D01*
X0001596910Y0002128354D01*
X0001596947Y0002171456D01*
X0001580487Y0002211293D01*
X0001550036Y0002241798D01*
X0001528766Y0002250629D01*
X0002148404Y0002250629D01*
X0002127289Y0002241905D01*
G36*
X0002396210Y0000475556D02*
X0002395653Y0000475000D01*
X0002396210Y0000474443D01*
X0002389139Y0000467372D01*
X0002388582Y0000467928D01*
X0002388025Y0000467372D01*
X0002380954Y0000474443D01*
X0002381511Y0000475000D01*
X0002380954Y0000475556D01*
X0002388025Y0000482627D01*
X0002388582Y0000482071D01*
X0002389139Y0000482627D01*
X0002396210Y0000475556D01*
X0002396210Y0000475556D01*
G37*
X0002396210Y0000475556D02*
X0002395653Y0000475000D01*
X0002396210Y0000474443D01*
X0002389139Y0000467372D01*
X0002388582Y0000467928D01*
X0002388025Y0000467372D01*
X0002380954Y0000474443D01*
X0002381511Y0000475000D01*
X0002380954Y0000475556D01*
X0002388025Y0000482627D01*
X0002388582Y0000482071D01*
X0002389139Y0000482627D01*
X0002396210Y0000475556D01*
G36*
X0002441097Y0001304066D02*
X0002468244Y0001292794D01*
X0002466281Y0001287427D01*
X0002467289Y0001263407D01*
X0002474541Y0001245899D01*
X0002484639Y0001242497D01*
X0002520094Y0001277952D01*
X0002519537Y0001278509D01*
X0002526608Y0001285580D01*
X0002527165Y0001285023D01*
X0002527722Y0001285580D01*
X0002534793Y0001278509D01*
X0002534236Y0001277952D01*
X0002534793Y0001277395D01*
X0002527722Y0001270324D01*
X0002527165Y0001270881D01*
X0002491710Y0001235426D01*
X0002495112Y0001225329D01*
X0002517690Y0001217068D01*
X0002539212Y0001217972D01*
X0002539212Y0001081990D01*
X0002536640Y0001082931D01*
X0002512619Y0001081922D01*
X0002495112Y0001074670D01*
X0002491710Y0001064573D01*
X0002527165Y0001029118D01*
X0002527722Y0001029675D01*
X0002534793Y0001022604D01*
X0002534236Y0001022047D01*
X0002534793Y0001021490D01*
X0002527722Y0001014419D01*
X0002527165Y0001014976D01*
X0002526608Y0001014419D01*
X0002519537Y0001021490D01*
X0002520094Y0001022047D01*
X0002484639Y0001057502D01*
X0002474541Y0001054100D01*
X0002466281Y0001031522D01*
X0002467289Y0001007501D01*
X0002467542Y0001006891D01*
X0002441221Y0000996015D01*
X0002438598Y0000993398D01*
X0002436068Y0000995933D01*
X0002427110Y0000999652D01*
X0002429789Y0001006103D01*
X0002429817Y0001037851D01*
X0002417693Y0001067193D01*
X0002395263Y0001089661D01*
X0002365943Y0001101836D01*
X0002334195Y0001101864D01*
X0002316890Y0001094713D01*
X0002317942Y0001100000D01*
X0002312017Y0001129786D01*
X0002298510Y0001150000D01*
X0002312017Y0001170213D01*
X0002317942Y0001200000D01*
X0002316889Y0001205291D01*
X0002334056Y0001198163D01*
X0002365804Y0001198135D01*
X0002395145Y0001210259D01*
X0002417614Y0001232688D01*
X0002429789Y0001262009D01*
X0002429817Y0001293756D01*
X0002427100Y0001300330D01*
X0002435944Y0001303984D01*
X0002438566Y0001306601D01*
X0002441097Y0001304066D01*
X0002441097Y0001304066D01*
G37*
X0002441097Y0001304066D02*
X0002468244Y0001292794D01*
X0002466281Y0001287427D01*
X0002467289Y0001263407D01*
X0002474541Y0001245899D01*
X0002484639Y0001242497D01*
X0002520094Y0001277952D01*
X0002519537Y0001278509D01*
X0002526608Y0001285580D01*
X0002527165Y0001285023D01*
X0002527722Y0001285580D01*
X0002534793Y0001278509D01*
X0002534236Y0001277952D01*
X0002534793Y0001277395D01*
X0002527722Y0001270324D01*
X0002527165Y0001270881D01*
X0002491710Y0001235426D01*
X0002495112Y0001225329D01*
X0002517690Y0001217068D01*
X0002539212Y0001217972D01*
X0002539212Y0001081990D01*
X0002536640Y0001082931D01*
X0002512619Y0001081922D01*
X0002495112Y0001074670D01*
X0002491710Y0001064573D01*
X0002527165Y0001029118D01*
X0002527722Y0001029675D01*
X0002534793Y0001022604D01*
X0002534236Y0001022047D01*
X0002534793Y0001021490D01*
X0002527722Y0001014419D01*
X0002527165Y0001014976D01*
X0002526608Y0001014419D01*
X0002519537Y0001021490D01*
X0002520094Y0001022047D01*
X0002484639Y0001057502D01*
X0002474541Y0001054100D01*
X0002466281Y0001031522D01*
X0002467289Y0001007501D01*
X0002467542Y0001006891D01*
X0002441221Y0000996015D01*
X0002438598Y0000993398D01*
X0002436068Y0000995933D01*
X0002427110Y0000999652D01*
X0002429789Y0001006103D01*
X0002429817Y0001037851D01*
X0002417693Y0001067193D01*
X0002395263Y0001089661D01*
X0002365943Y0001101836D01*
X0002334195Y0001101864D01*
X0002316890Y0001094713D01*
X0002317942Y0001100000D01*
X0002312017Y0001129786D01*
X0002298510Y0001150000D01*
X0002312017Y0001170213D01*
X0002317942Y0001200000D01*
X0002316889Y0001205291D01*
X0002334056Y0001198163D01*
X0002365804Y0001198135D01*
X0002395145Y0001210259D01*
X0002417614Y0001232688D01*
X0002429789Y0001262009D01*
X0002429817Y0001293756D01*
X0002427100Y0001300330D01*
X0002435944Y0001303984D01*
X0002438566Y0001306601D01*
X0002441097Y0001304066D01*
G36*
X0002303973Y0001985629D02*
X0002307067Y0001969187D01*
X0002316784Y0001954085D01*
X0002327898Y0001946492D01*
X0002323783Y0001935414D01*
X0002324730Y0001909824D01*
X0002327504Y0001903127D01*
X0002317668Y0001896797D01*
X0002307537Y0001881970D01*
X0002303973Y0001864370D01*
X0002303973Y0001785629D01*
X0002307067Y0001769187D01*
X0002316784Y0001754085D01*
X0002327898Y0001746492D01*
X0002323783Y0001735414D01*
X0002324730Y0001709824D01*
X0002332701Y0001690580D01*
X0002334944Y0001689750D01*
X0002317649Y0001672485D01*
X0002304877Y0001641726D01*
X0002304848Y0001608420D01*
X0002317566Y0001577638D01*
X0002341097Y0001554066D01*
X0002371856Y0001541294D01*
X0002405162Y0001541265D01*
X0002435944Y0001553984D01*
X0002438566Y0001556601D01*
X0002441097Y0001554066D01*
X0002471856Y0001541294D01*
X0002505162Y0001541265D01*
X0002535944Y0001553984D01*
X0002539212Y0001557246D01*
X0002539212Y0001442783D01*
X0002536068Y0001445933D01*
X0002505308Y0001458705D01*
X0002472002Y0001458734D01*
X0002441221Y0001446015D01*
X0002438598Y0001443398D01*
X0002436068Y0001445933D01*
X0002405308Y0001458705D01*
X0002372002Y0001458734D01*
X0002341221Y0001446015D01*
X0002317649Y0001422485D01*
X0002314823Y0001415679D01*
X0002312017Y0001429786D01*
X0002295145Y0001455037D01*
X0002269893Y0001471909D01*
X0002240107Y0001477834D01*
X0002237057Y0001477834D01*
X0002207271Y0001471909D01*
X0002186825Y0001458248D01*
X0002179787Y0001462951D01*
X0002187048Y0001470967D01*
X0002193382Y0001486258D01*
X0002188579Y0001495000D01*
X0002143582Y0001495000D01*
X0002143582Y0001494212D01*
X0002133582Y0001494212D01*
X0002133582Y0001495000D01*
X0002088586Y0001495000D01*
X0002083783Y0001486258D01*
X0002090116Y0001470967D01*
X0002097378Y0001462951D01*
X0002083450Y0001453645D01*
X0002067005Y0001429032D01*
X0002065952Y0001423741D01*
X0002065952Y0001513741D01*
X0002083783Y0001513741D01*
X0002088586Y0001505000D01*
X0002133582Y0001505000D01*
X0002133582Y0001550024D01*
X0002143582Y0001550024D01*
X0002143582Y0001505000D01*
X0002188579Y0001505000D01*
X0002193382Y0001513741D01*
X0002187048Y0001529032D01*
X0002172249Y0001545369D01*
X0002152324Y0001554799D01*
X0002143582Y0001550024D01*
X0002133582Y0001550024D01*
X0002124840Y0001554799D01*
X0002104916Y0001545369D01*
X0002090116Y0001529032D01*
X0002083783Y0001513741D01*
X0002065952Y0001513741D01*
X0002065952Y0001711899D01*
X0002105978Y0001711899D01*
X0002108897Y0001702210D01*
X0002130048Y0001694607D01*
X0002152498Y0001695678D01*
X0002168267Y0001702210D01*
X0002171186Y0001711899D01*
X0002138582Y0001744503D01*
X0002105978Y0001711899D01*
X0002065952Y0001711899D01*
X0002065952Y0001800489D01*
X0002074658Y0001786959D01*
X0002087992Y0001777849D01*
X0002081615Y0001760109D01*
X0002082685Y0001737659D01*
X0002089217Y0001721889D01*
X0002098907Y0001718970D01*
X0002131511Y0001751574D01*
X0002130954Y0001752131D01*
X0002138025Y0001759202D01*
X0002138582Y0001758645D01*
X0002139139Y0001759202D01*
X0002146210Y0001752131D01*
X0002145653Y0001751574D01*
X0002178257Y0001718970D01*
X0002187947Y0001721889D01*
X0002195549Y0001743040D01*
X0002194479Y0001765490D01*
X0002189250Y0001778114D01*
X0002201622Y0001786076D01*
X0002211753Y0001800903D01*
X0002215318Y0001818503D01*
X0002215318Y0001881496D01*
X0002212224Y0001897938D01*
X0002202506Y0001913040D01*
X0002187679Y0001923171D01*
X0002170078Y0001926735D01*
X0002139380Y0001926735D01*
X0002175613Y0001962968D01*
X0002210275Y0001997629D01*
X0002228582Y0001997629D01*
X0002248623Y0002001616D01*
X0002265613Y0002012968D01*
X0002303973Y0002051328D01*
X0002303973Y0001985629D01*
X0002303973Y0001985629D01*
G37*
X0002303973Y0001985629D02*
X0002307067Y0001969187D01*
X0002316784Y0001954085D01*
X0002327898Y0001946492D01*
X0002323783Y0001935414D01*
X0002324730Y0001909824D01*
X0002327504Y0001903127D01*
X0002317668Y0001896797D01*
X0002307537Y0001881970D01*
X0002303973Y0001864370D01*
X0002303973Y0001785629D01*
X0002307067Y0001769187D01*
X0002316784Y0001754085D01*
X0002327898Y0001746492D01*
X0002323783Y0001735414D01*
X0002324730Y0001709824D01*
X0002332701Y0001690580D01*
X0002334944Y0001689750D01*
X0002317649Y0001672485D01*
X0002304877Y0001641726D01*
X0002304848Y0001608420D01*
X0002317566Y0001577638D01*
X0002341097Y0001554066D01*
X0002371856Y0001541294D01*
X0002405162Y0001541265D01*
X0002435944Y0001553984D01*
X0002438566Y0001556601D01*
X0002441097Y0001554066D01*
X0002471856Y0001541294D01*
X0002505162Y0001541265D01*
X0002535944Y0001553984D01*
X0002539212Y0001557246D01*
X0002539212Y0001442783D01*
X0002536068Y0001445933D01*
X0002505308Y0001458705D01*
X0002472002Y0001458734D01*
X0002441221Y0001446015D01*
X0002438598Y0001443398D01*
X0002436068Y0001445933D01*
X0002405308Y0001458705D01*
X0002372002Y0001458734D01*
X0002341221Y0001446015D01*
X0002317649Y0001422485D01*
X0002314823Y0001415679D01*
X0002312017Y0001429786D01*
X0002295145Y0001455037D01*
X0002269893Y0001471909D01*
X0002240107Y0001477834D01*
X0002237057Y0001477834D01*
X0002207271Y0001471909D01*
X0002186825Y0001458248D01*
X0002179787Y0001462951D01*
X0002187048Y0001470967D01*
X0002193382Y0001486258D01*
X0002188579Y0001495000D01*
X0002143582Y0001495000D01*
X0002143582Y0001494212D01*
X0002133582Y0001494212D01*
X0002133582Y0001495000D01*
X0002088586Y0001495000D01*
X0002083783Y0001486258D01*
X0002090116Y0001470967D01*
X0002097378Y0001462951D01*
X0002083450Y0001453645D01*
X0002067005Y0001429032D01*
X0002065952Y0001423741D01*
X0002065952Y0001513741D01*
X0002083783Y0001513741D01*
X0002088586Y0001505000D01*
X0002133582Y0001505000D01*
X0002133582Y0001550024D01*
X0002143582Y0001550024D01*
X0002143582Y0001505000D01*
X0002188579Y0001505000D01*
X0002193382Y0001513741D01*
X0002187048Y0001529032D01*
X0002172249Y0001545369D01*
X0002152324Y0001554799D01*
X0002143582Y0001550024D01*
X0002133582Y0001550024D01*
X0002124840Y0001554799D01*
X0002104916Y0001545369D01*
X0002090116Y0001529032D01*
X0002083783Y0001513741D01*
X0002065952Y0001513741D01*
X0002065952Y0001711899D01*
X0002105978Y0001711899D01*
X0002108897Y0001702210D01*
X0002130048Y0001694607D01*
X0002152498Y0001695678D01*
X0002168267Y0001702210D01*
X0002171186Y0001711899D01*
X0002138582Y0001744503D01*
X0002105978Y0001711899D01*
X0002065952Y0001711899D01*
X0002065952Y0001800489D01*
X0002074658Y0001786959D01*
X0002087992Y0001777849D01*
X0002081615Y0001760109D01*
X0002082685Y0001737659D01*
X0002089217Y0001721889D01*
X0002098907Y0001718970D01*
X0002131511Y0001751574D01*
X0002130954Y0001752131D01*
X0002138025Y0001759202D01*
X0002138582Y0001758645D01*
X0002139139Y0001759202D01*
X0002146210Y0001752131D01*
X0002145653Y0001751574D01*
X0002178257Y0001718970D01*
X0002187947Y0001721889D01*
X0002195549Y0001743040D01*
X0002194479Y0001765490D01*
X0002189250Y0001778114D01*
X0002201622Y0001786076D01*
X0002211753Y0001800903D01*
X0002215318Y0001818503D01*
X0002215318Y0001881496D01*
X0002212224Y0001897938D01*
X0002202506Y0001913040D01*
X0002187679Y0001923171D01*
X0002170078Y0001926735D01*
X0002139380Y0001926735D01*
X0002175613Y0001962968D01*
X0002210275Y0001997629D01*
X0002228582Y0001997629D01*
X0002248623Y0002001616D01*
X0002265613Y0002012968D01*
X0002303973Y0002051328D01*
X0002303973Y0001985629D01*
G36*
X0002396210Y0001725556D02*
X0002395653Y0001725000D01*
X0002396210Y0001724443D01*
X0002389139Y0001717372D01*
X0002388582Y0001717928D01*
X0002388025Y0001717372D01*
X0002380954Y0001724443D01*
X0002381511Y0001725000D01*
X0002380954Y0001725556D01*
X0002388025Y0001732627D01*
X0002388582Y0001732071D01*
X0002389139Y0001732627D01*
X0002396210Y0001725556D01*
X0002396210Y0001725556D01*
G37*
X0002396210Y0001725556D02*
X0002395653Y0001725000D01*
X0002396210Y0001724443D01*
X0002389139Y0001717372D01*
X0002388582Y0001717928D01*
X0002388025Y0001717372D01*
X0002380954Y0001724443D01*
X0002381511Y0001725000D01*
X0002380954Y0001725556D01*
X0002388025Y0001732627D01*
X0002388582Y0001732071D01*
X0002389139Y0001732627D01*
X0002396210Y0001725556D01*
G36*
X0002396210Y0001925556D02*
X0002395653Y0001925000D01*
X0002396210Y0001924443D01*
X0002389139Y0001917372D01*
X0002388582Y0001917928D01*
X0002388025Y0001917372D01*
X0002380954Y0001924443D01*
X0002381511Y0001925000D01*
X0002380954Y0001925556D01*
X0002388025Y0001932627D01*
X0002388582Y0001932071D01*
X0002389139Y0001932627D01*
X0002396210Y0001925556D01*
X0002396210Y0001925556D01*
G37*
X0002396210Y0001925556D02*
X0002395653Y0001925000D01*
X0002396210Y0001924443D01*
X0002389139Y0001917372D01*
X0002388582Y0001917928D01*
X0002388025Y0001917372D01*
X0002380954Y0001924443D01*
X0002381511Y0001925000D01*
X0002380954Y0001925556D01*
X0002388025Y0001932627D01*
X0002388582Y0001932071D01*
X0002389139Y0001932627D01*
X0002396210Y0001925556D01*
G36*
X0002396210Y0002125556D02*
X0002395653Y0002125000D01*
X0002396210Y0002124443D01*
X0002389139Y0002117372D01*
X0002388582Y0002117928D01*
X0002388025Y0002117372D01*
X0002380954Y0002124443D01*
X0002381511Y0002125000D01*
X0002380954Y0002125556D01*
X0002388025Y0002132627D01*
X0002388582Y0002132071D01*
X0002389139Y0002132627D01*
X0002396210Y0002125556D01*
X0002396210Y0002125556D01*
G37*
X0002396210Y0002125556D02*
X0002395653Y0002125000D01*
X0002396210Y0002124443D01*
X0002389139Y0002117372D01*
X0002388582Y0002117928D01*
X0002388025Y0002117372D01*
X0002380954Y0002124443D01*
X0002381511Y0002125000D01*
X0002380954Y0002125556D01*
X0002388025Y0002132627D01*
X0002388582Y0002132071D01*
X0002389139Y0002132627D01*
X0002396210Y0002125556D01*
G04 next file*
G04 #@! TF.FileFunction,Copper,L1,Top,Signal*
G04 Gerber Fmt 4.6, Leading zero omitted, Abs format (unit mm)*
G04 Created by KiCad (PCBNEW 4.0.6) date 09/06/18 10:25:07*
G01*
G04 APERTURE LIST*
G04 APERTURE END LIST*
D89*
D90*
X-0002122834Y0004650000D02*
X0003727165Y0000075000D03*
X0003727165Y0000175000D03*
D91*
X0003727165Y0000475000D03*
D92*
X0003727165Y0000575000D03*
D93*
X0002777165Y0000250000D03*
D94*
X0002777165Y0000348425D03*
X0002777165Y0000446850D03*
X0002777165Y0000545275D03*
X0002777165Y0000643700D03*
D93*
X0003127165Y0000450000D03*
D94*
X0003225590Y0000450000D03*
D95*
X0003577165Y0000100000D03*
D96*
X0003577165Y0000200000D03*
X0003577165Y0000300000D03*
X0003577165Y0000400000D03*
X0003577165Y0000500000D03*
X0003577165Y0000600000D03*
X0003577165Y0000700000D03*
X0003577165Y0000800000D03*
X0003577165Y0000900000D03*
X0003577165Y0001000000D03*
X0003577165Y0001100000D03*
X0003577165Y0001200000D03*
X0003577165Y0001300000D03*
X0003577165Y0001400000D03*
D97*
X0003127165Y0000275000D03*
D98*
X0003127165Y0000176574D03*
D99*
X0003477165Y0000700000D03*
X0003477165Y0000800000D03*
X0003477165Y0000900000D03*
X0003477165Y0001000000D03*
X0003477165Y0001100000D03*
X0003477165Y0001200000D03*
X0003477165Y0001300000D03*
X0003477165Y0001400000D03*
X0003477165Y0001500000D03*
X0003177165Y0001500000D03*
X0003177165Y0001400000D03*
X0003177165Y0001300000D03*
X0003177165Y0001200000D03*
X0003177165Y0001100000D03*
X0003177165Y0001000000D03*
X0003177165Y0000900000D03*
X0003177165Y0000800000D03*
X0003177165Y0000700000D03*
D93*
X0002777165Y0000950000D03*
D94*
X0002777165Y0001048425D03*
X0002777165Y0001146850D03*
X0002777165Y0001245275D03*
X0002777165Y0001343700D03*
X0003477165Y0001751574D03*
D93*
X0003477165Y0001850000D03*
D100*
X0003177165Y0001700000D03*
D101*
X0003177165Y0001800000D03*
X0003177165Y0001900000D03*
D102*
X0003077165Y0002150000D03*
D103*
X0003177165Y0002150000D03*
X0003277165Y0002150000D03*
D104*
X0002917165Y0001832204D03*
D105*
X0002917165Y0001970000D03*
D104*
X0002917165Y0001542204D03*
D105*
X0002917165Y0001680000D03*
D91*
X0003727165Y0001725000D03*
D92*
X0003727165Y0001825000D03*
D106*
X0003727165Y0000925000D03*
X0003727165Y0000675000D03*
X0003827165Y0001375000D03*
X0003827165Y0001625000D03*
X0003827165Y0000925000D03*
X0003827165Y0000675000D03*
X0003727165Y0001375000D03*
X0003727165Y0001625000D03*
D94*
X0003452165Y0000275000D03*
X0003452165Y0000525000D03*
X0003352165Y0000275000D03*
X0003352165Y0000525000D03*
D107*
X0003688582Y0001277952D03*
X0003865748Y0001277952D03*
X0003688582Y0001022047D03*
X0003865748Y0001022047D03*
D95*
X0002977165Y0000100000D03*
D96*
X0002977165Y0000200000D03*
X0002977165Y0000300000D03*
X0002977165Y0000400000D03*
X0002977165Y0000500000D03*
X0002977165Y0000600000D03*
X0002977165Y0000700000D03*
X0002977165Y0000800000D03*
X0002977165Y0000900000D03*
X0002977165Y0001000000D03*
X0002977165Y0001100000D03*
X0002977165Y0001200000D03*
X0002977165Y0001300000D03*
X0002977165Y0001400000D03*
D108*
X0003087165Y0000697716D03*
X0003087165Y0000662283D03*
D91*
X0003727165Y0000275000D03*
D92*
X0003727165Y0000375000D03*
D91*
X0003727165Y0001925000D03*
D92*
X0003727165Y0002025000D03*
D90*
X0003727165Y0002125000D03*
X0003727165Y0002225000D03*
D109*
X0003127165Y0000176574D02*
X0003060590Y0000176574D01*
X0003037165Y0000200000D02*
X0002977165Y0000200000D01*
X0003060590Y0000176574D02*
X0003037165Y0000200000D01*
D110*
X0003865748Y0001022047D02*
X0003865748Y0001111417D01*
X0003427165Y0001500000D02*
X0003477165Y0001500000D01*
X0003402165Y0001475000D02*
X0003427165Y0001500000D01*
X0003402165Y0001175000D02*
X0003402165Y0001475000D01*
X0003427165Y0001150000D02*
X0003402165Y0001175000D01*
X0003827165Y0001150000D02*
X0003427165Y0001150000D01*
X0003865748Y0001111417D02*
X0003827165Y0001150000D01*
D109*
X0003225590Y0000450000D02*
X0003225590Y0000548425D01*
X0003227165Y0001900000D02*
X0003177165Y0001900000D01*
X0003277165Y0001850000D02*
X0003227165Y0001900000D01*
X0003277165Y0000600000D02*
X0003277165Y0001850000D01*
X0003225590Y0000548425D02*
X0003277165Y0000600000D01*
D110*
X0003862795Y0001275000D02*
X0003865748Y0001277952D01*
X0003865748Y0001277952D02*
X0003865748Y0001022047D01*
X0003502165Y0000375000D02*
X0003502165Y0000500000D01*
X0003047165Y0000280000D02*
X0003102165Y0000225000D01*
X0003102165Y0000225000D02*
X0003202165Y0000225000D01*
X0003202165Y0000225000D02*
X0003302165Y0000325000D01*
X0003302165Y0000325000D02*
X0003452165Y0000325000D01*
X0003452165Y0000325000D02*
X0003502165Y0000375000D01*
X0003827165Y0000925000D02*
X0003652165Y0000750000D01*
X0003014665Y0000600000D02*
X0002977165Y0000600000D01*
X0003047165Y0000567500D02*
X0003014665Y0000600000D01*
X0003047165Y0000415000D02*
X0003047165Y0000567500D01*
X0003047165Y0000415000D02*
X0003047165Y0000280000D01*
X0003652165Y0000575000D02*
X0003652165Y0000750000D01*
X0003627165Y0000550000D02*
X0003652165Y0000575000D01*
X0003552165Y0000550000D02*
X0003627165Y0000550000D01*
X0003502165Y0000500000D02*
X0003552165Y0000550000D01*
X0003827165Y0000925000D02*
X0003827165Y0000887500D01*
D109*
X0002917165Y0001832204D02*
X0002917165Y0001680000D01*
X0002917165Y0001542204D02*
X0002944370Y0001542204D01*
X0002944370Y0001542204D02*
X0003027165Y0001625000D01*
X0003027165Y0001625000D02*
X0003027165Y0002100000D01*
X0003027165Y0002100000D02*
X0003077165Y0002150000D01*
D110*
X0003577165Y0000500000D02*
X0003582165Y0000500000D01*
X0003087165Y0000697716D02*
X0003087165Y0001050000D01*
X0003037165Y0001100000D02*
X0002977165Y0001100000D01*
X0003087165Y0001050000D02*
X0003037165Y0001100000D01*
X0003087165Y0000662283D02*
X0003087165Y0000697716D01*
X0003452165Y0000525000D02*
X0003442165Y0000525000D01*
X0003442165Y0000525000D02*
X0003287165Y0000370000D01*
X0003087165Y0000600000D02*
X0003087165Y0000662283D01*
X0003177165Y0000510000D02*
X0003087165Y0000600000D01*
X0003177165Y0000390000D02*
X0003177165Y0000510000D01*
X0003197165Y0000370000D02*
X0003177165Y0000390000D01*
X0003287165Y0000370000D02*
X0003197165Y0000370000D01*
X0003727165Y0002225000D02*
X0003692165Y0002225000D01*
X0003352165Y0001875000D02*
X0003352165Y0000525000D01*
X0003352165Y0001875000D02*
X0003477165Y0002000000D01*
X0003527165Y0002050000D02*
X0003477165Y0002000000D01*
X0003567165Y0002050000D02*
X0003527165Y0002050000D01*
X0003647165Y0002130000D02*
X0003567165Y0002050000D01*
X0003647165Y0002180000D02*
X0003647165Y0002130000D01*
X0003692165Y0002225000D02*
X0003647165Y0002180000D01*
X0003352165Y0000525000D02*
X0003352165Y0000550000D01*
X0003352165Y0000550000D02*
X0003402165Y0000600000D01*
X0003402165Y0000600000D02*
X0003577165Y0000600000D01*
X0003702165Y0002225000D02*
X0003727165Y0002225000D01*
D109*
X0002777165Y0000643700D02*
X0002808464Y0000643700D01*
X0002808464Y0000643700D02*
X0002877165Y0000575000D01*
X0002927165Y0000100000D02*
X0002977165Y0000100000D01*
X0002877165Y0000150000D02*
X0002927165Y0000100000D01*
X0002877165Y0000575000D02*
X0002877165Y0000150000D01*
X0002777165Y0000643700D02*
X0002783464Y0000643700D01*
X0002852165Y0000800000D02*
X0002852165Y0000718700D01*
X0002852165Y0000800000D02*
X0002852165Y0001268700D01*
X0002777165Y0001343700D02*
X0002852165Y0001268700D01*
X0002852165Y0000718700D02*
X0002777165Y0000643700D01*
X0002777165Y0001343700D02*
X0002777165Y0001350000D01*
X0002777165Y0001350000D02*
X0002852165Y0001425000D01*
X0003152165Y0001475000D02*
X0003177165Y0001500000D01*
X0002952165Y0001475000D02*
X0003152165Y0001475000D01*
X0002902165Y0001425000D02*
X0002952165Y0001475000D01*
X0002852165Y0001425000D02*
X0002902165Y0001425000D01*
X0003177165Y0001800000D02*
X0003127165Y0001800000D01*
X0003127165Y0001800000D02*
X0003077165Y0001750000D01*
X0003177165Y0002150000D02*
X0003177165Y0002125000D01*
X0003177165Y0002125000D02*
X0003077165Y0002025000D01*
X0003077165Y0002025000D02*
X0003077165Y0001750000D01*
X0003077165Y0001750000D02*
X0003077165Y0001600000D01*
X0003077165Y0001600000D02*
X0003177165Y0001500000D01*
D110*
X0003452165Y0000275000D02*
X0003352165Y0000275000D01*
X0003577165Y0000200000D02*
X0003492165Y0000200000D01*
X0003452165Y0000240000D02*
X0003452165Y0000275000D01*
X0003492165Y0000200000D02*
X0003452165Y0000240000D01*
D111*
G36*
X0003065134Y0000187968D02*
X0003071526Y0000183697D01*
X0003076261Y0000180534D01*
X0003077240Y0000163605D01*
X0003082692Y0000150443D01*
X0003091771Y0000148251D01*
X0003116149Y0000172629D01*
X0003138181Y0000172629D01*
X0003162559Y0000148251D01*
X0003168818Y0000149762D01*
X0003168800Y0000128543D01*
X0003185260Y0000088706D01*
X0003215711Y0000058201D01*
X0003236981Y0000049370D01*
X0003052393Y0000049370D01*
X0003055869Y0000066535D01*
X0003055869Y0000133464D01*
X0003054417Y0000141180D01*
X0003098842Y0000141180D01*
X0003101034Y0000132101D01*
X0003120042Y0000125487D01*
X0003140135Y0000126650D01*
X0003153296Y0000132101D01*
X0003155488Y0000141180D01*
X0003127165Y0000169503D01*
X0003098842Y0000141180D01*
X0003054417Y0000141180D01*
X0003052775Y0000149907D01*
X0003043057Y0000165008D01*
X0003029172Y0000174496D01*
X0003033916Y0000185949D01*
X0003029140Y0000195000D01*
X0002982165Y0000195000D01*
X0002982165Y0000194212D01*
X0002972165Y0000194212D01*
X0002972165Y0000195000D01*
X0002971377Y0000195000D01*
X0002971377Y0000205000D01*
X0002972165Y0000205000D01*
X0002972165Y0000205787D01*
X0002982165Y0000205787D01*
X0002982165Y0000205000D01*
X0003029140Y0000205000D01*
X0003033916Y0000214050D01*
X0003030285Y0000222817D01*
X0003065134Y0000187968D01*
X0003065134Y0000187968D01*
G37*
X0003065134Y0000187968D02*
X0003071526Y0000183697D01*
X0003076261Y0000180534D01*
X0003077240Y0000163605D01*
X0003082692Y0000150443D01*
X0003091771Y0000148251D01*
X0003116149Y0000172629D01*
X0003138181Y0000172629D01*
X0003162559Y0000148251D01*
X0003168818Y0000149762D01*
X0003168800Y0000128543D01*
X0003185260Y0000088706D01*
X0003215711Y0000058201D01*
X0003236981Y0000049370D01*
X0003052393Y0000049370D01*
X0003055869Y0000066535D01*
X0003055869Y0000133464D01*
X0003054417Y0000141180D01*
X0003098842Y0000141180D01*
X0003101034Y0000132101D01*
X0003120042Y0000125487D01*
X0003140135Y0000126650D01*
X0003153296Y0000132101D01*
X0003155488Y0000141180D01*
X0003127165Y0000169503D01*
X0003098842Y0000141180D01*
X0003054417Y0000141180D01*
X0003052775Y0000149907D01*
X0003043057Y0000165008D01*
X0003029172Y0000174496D01*
X0003033916Y0000185949D01*
X0003029140Y0000195000D01*
X0002982165Y0000195000D01*
X0002982165Y0000194212D01*
X0002972165Y0000194212D01*
X0002972165Y0000195000D01*
X0002971377Y0000195000D01*
X0002971377Y0000205000D01*
X0002972165Y0000205000D01*
X0002972165Y0000205787D01*
X0002982165Y0000205787D01*
X0002982165Y0000205000D01*
X0003029140Y0000205000D01*
X0003033916Y0000214050D01*
X0003030285Y0000222817D01*
X0003065134Y0000187968D01*
G36*
X0003734793Y0000075556D02*
X0003734236Y0000075000D01*
X0003734793Y0000074443D01*
X0003727722Y0000067372D01*
X0003727165Y0000067928D01*
X0003726608Y0000067372D01*
X0003719537Y0000074443D01*
X0003720094Y0000075000D01*
X0003719537Y0000075556D01*
X0003726608Y0000082627D01*
X0003727165Y0000082071D01*
X0003727722Y0000082627D01*
X0003734793Y0000075556D01*
X0003734793Y0000075556D01*
G37*
X0003734793Y0000075556D02*
X0003734236Y0000075000D01*
X0003734793Y0000074443D01*
X0003727722Y0000067372D01*
X0003727165Y0000067928D01*
X0003726608Y0000067372D01*
X0003719537Y0000074443D01*
X0003720094Y0000075000D01*
X0003719537Y0000075556D01*
X0003726608Y0000082627D01*
X0003727165Y0000082071D01*
X0003727722Y0000082627D01*
X0003734793Y0000075556D01*
G36*
X0003734793Y0000275556D02*
X0003734236Y0000275000D01*
X0003734793Y0000274443D01*
X0003727722Y0000267372D01*
X0003727165Y0000267928D01*
X0003726608Y0000267372D01*
X0003719537Y0000274443D01*
X0003720094Y0000275000D01*
X0003719537Y0000275556D01*
X0003726608Y0000282627D01*
X0003727165Y0000282071D01*
X0003727722Y0000282627D01*
X0003734793Y0000275556D01*
X0003734793Y0000275556D01*
G37*
X0003734793Y0000275556D02*
X0003734236Y0000275000D01*
X0003734793Y0000274443D01*
X0003727722Y0000267372D01*
X0003727165Y0000267928D01*
X0003726608Y0000267372D01*
X0003719537Y0000274443D01*
X0003720094Y0000275000D01*
X0003719537Y0000275556D01*
X0003726608Y0000282627D01*
X0003727165Y0000282071D01*
X0003727722Y0000282627D01*
X0003734793Y0000275556D01*
G36*
X0003465872Y0002241905D02*
X0003435367Y0002211453D01*
X0003418837Y0002171645D01*
X0003418800Y0002128543D01*
X0003435260Y0002088706D01*
X0003463510Y0002060407D01*
X0003315134Y0001912031D01*
X0003303781Y0001895041D01*
X0003299795Y0001875000D01*
X0003299795Y0000579918D01*
X0003287886Y0000568030D01*
X0003276312Y0000540156D01*
X0003276286Y0000509975D01*
X0003287811Y0000482081D01*
X0003306481Y0000463378D01*
X0003281429Y0000438326D01*
X0003282557Y0000441465D01*
X0003281487Y0000463915D01*
X0003274955Y0000479685D01*
X0003265265Y0000482603D01*
X0003232661Y0000450000D01*
X0003233218Y0000449443D01*
X0003229535Y0000445760D01*
X0003229535Y0000461015D01*
X0003258194Y0000489675D01*
X0003255275Y0000499364D01*
X0003234125Y0000506967D01*
X0003229535Y0000506748D01*
X0003229535Y0000510000D01*
X0003225549Y0000530041D01*
X0003224987Y0000530881D01*
X0003214196Y0000547031D01*
X0003139535Y0000621692D01*
X0003139535Y0000634660D01*
X0003146646Y0000629908D01*
X0003175679Y0000624133D01*
X0003178651Y0000624133D01*
X0003207684Y0000629908D01*
X0003232297Y0000646354D01*
X0003248742Y0000670967D01*
X0003254517Y0000700000D01*
X0003248742Y0000729032D01*
X0003234732Y0000750000D01*
X0003248742Y0000770967D01*
X0003254517Y0000800000D01*
X0003248742Y0000829032D01*
X0003234732Y0000850000D01*
X0003248742Y0000870967D01*
X0003254517Y0000900000D01*
X0003248742Y0000929032D01*
X0003234732Y0000950000D01*
X0003248742Y0000970967D01*
X0003254517Y0001000000D01*
X0003248742Y0001029032D01*
X0003234732Y0001050000D01*
X0003248742Y0001070967D01*
X0003254517Y0001100000D01*
X0003248742Y0001129032D01*
X0003234732Y0001150000D01*
X0003248742Y0001170967D01*
X0003254517Y0001200000D01*
X0003248742Y0001229032D01*
X0003234732Y0001250000D01*
X0003248742Y0001270967D01*
X0003254517Y0001300000D01*
X0003248742Y0001329032D01*
X0003234732Y0001350000D01*
X0003248742Y0001370967D01*
X0003254517Y0001400000D01*
X0003248742Y0001429032D01*
X0003234732Y0001450000D01*
X0003248742Y0001470967D01*
X0003254517Y0001500000D01*
X0003248742Y0001529032D01*
X0003232297Y0001553645D01*
X0003207684Y0001570091D01*
X0003181606Y0001575278D01*
X0003135859Y0001621025D01*
X0003137165Y0001620760D01*
X0003217165Y0001620760D01*
X0003233607Y0001623854D01*
X0003248709Y0001633572D01*
X0003258840Y0001648399D01*
X0003262404Y0001666000D01*
X0003262404Y0001734000D01*
X0003259310Y0001750442D01*
X0003251872Y0001762001D01*
X0003257222Y0001770009D01*
X0003263188Y0001800000D01*
X0003257222Y0001829990D01*
X0003240234Y0001855416D01*
X0003228767Y0001863078D01*
X0003230343Y0001864486D01*
X0003240342Y0001885244D01*
X0003240447Y0001885865D01*
X0003235677Y0001895000D01*
X0003182165Y0001895000D01*
X0003182165Y0001894212D01*
X0003172165Y0001894212D01*
X0003172165Y0001895000D01*
X0003171377Y0001895000D01*
X0003171377Y0001905000D01*
X0003172165Y0001905000D01*
X0003172165Y0001952792D01*
X0003182165Y0001952792D01*
X0003182165Y0001905000D01*
X0003235677Y0001905000D01*
X0003240447Y0001914134D01*
X0003240342Y0001914755D01*
X0003230343Y0001935513D01*
X0003213162Y0001950864D01*
X0003191413Y0001958471D01*
X0003182165Y0001952792D01*
X0003172165Y0001952792D01*
X0003162916Y0001958471D01*
X0003141168Y0001950864D01*
X0003133535Y0001944044D01*
X0003133535Y0002001650D01*
X0003217025Y0002085140D01*
X0003223243Y0002094446D01*
X0003227163Y0002098360D01*
X0003236401Y0002089107D01*
X0003262806Y0002078142D01*
X0003291398Y0002078117D01*
X0003317823Y0002089035D01*
X0003338058Y0002109235D01*
X0003349022Y0002135641D01*
X0003349047Y0002164233D01*
X0003338129Y0002190657D01*
X0003317929Y0002210892D01*
X0003291523Y0002221857D01*
X0003262932Y0002221882D01*
X0003236507Y0002210964D01*
X0003227166Y0002201639D01*
X0003217929Y0002210892D01*
X0003191523Y0002221857D01*
X0003162932Y0002221882D01*
X0003136507Y0002210964D01*
X0003135603Y0002210061D01*
X0003122266Y0002219175D01*
X0003104665Y0002222739D01*
X0003049665Y0002222739D01*
X0003033222Y0002219645D01*
X0003018121Y0002209927D01*
X0003007990Y0002195100D01*
X0003004426Y0002177500D01*
X0003004426Y0002156979D01*
X0002987305Y0002139859D01*
X0002975086Y0002121571D01*
X0002970795Y0002100000D01*
X0002970795Y0002041658D01*
X0002969382Y0002042244D01*
X0002928415Y0002042244D01*
X0002922165Y0002035994D01*
X0002922165Y0001975000D01*
X0002922952Y0001975000D01*
X0002922952Y0001965000D01*
X0002922165Y0001965000D01*
X0002922165Y0001964212D01*
X0002912165Y0001964212D01*
X0002912165Y0001965000D01*
X0002851171Y0001965000D01*
X0002844921Y0001958750D01*
X0002844921Y0001917783D01*
X0002848727Y0001908594D01*
X0002855759Y0001901561D01*
X0002856614Y0001901208D01*
X0002839543Y0001884167D01*
X0002825567Y0001850507D01*
X0002825535Y0001814061D01*
X0002839453Y0001780377D01*
X0002851617Y0001768191D01*
X0002838377Y0001759672D01*
X0002828246Y0001744844D01*
X0002824681Y0001727244D01*
X0002824681Y0001632755D01*
X0002827775Y0001616313D01*
X0002837493Y0001601211D01*
X0002842899Y0001597517D01*
X0002839543Y0001594167D01*
X0002825567Y0001560507D01*
X0002825535Y0001524061D01*
X0002839453Y0001490377D01*
X0002849061Y0001480752D01*
X0002830593Y0001477079D01*
X0002812305Y0001464859D01*
X0002767021Y0001419575D01*
X0002762140Y0001419580D01*
X0002734246Y0001408054D01*
X0002726535Y0001400356D01*
X0002726535Y0002022216D01*
X0002844921Y0002022216D01*
X0002844921Y0001981250D01*
X0002851171Y0001975000D01*
X0002912165Y0001975000D01*
X0002912165Y0002035994D01*
X0002905915Y0002042244D01*
X0002864948Y0002042244D01*
X0002855759Y0002038438D01*
X0002848727Y0002031405D01*
X0002844921Y0002022216D01*
X0002726535Y0002022216D01*
X0002726535Y0002109822D01*
X0002735260Y0002088706D01*
X0002765711Y0002058201D01*
X0002805519Y0002041672D01*
X0002848622Y0002041634D01*
X0002888458Y0002058094D01*
X0002918963Y0002088546D01*
X0002935492Y0002128354D01*
X0002935530Y0002171456D01*
X0002919070Y0002211293D01*
X0002888618Y0002241798D01*
X0002867349Y0002250629D01*
X0003486987Y0002250629D01*
X0003465872Y0002241905D01*
X0003465872Y0002241905D01*
G37*
X0003465872Y0002241905D02*
X0003435367Y0002211453D01*
X0003418837Y0002171645D01*
X0003418800Y0002128543D01*
X0003435260Y0002088706D01*
X0003463510Y0002060407D01*
X0003315134Y0001912031D01*
X0003303781Y0001895041D01*
X0003299795Y0001875000D01*
X0003299795Y0000579918D01*
X0003287886Y0000568030D01*
X0003276312Y0000540156D01*
X0003276286Y0000509975D01*
X0003287811Y0000482081D01*
X0003306481Y0000463378D01*
X0003281429Y0000438326D01*
X0003282557Y0000441465D01*
X0003281487Y0000463915D01*
X0003274955Y0000479685D01*
X0003265265Y0000482603D01*
X0003232661Y0000450000D01*
X0003233218Y0000449443D01*
X0003229535Y0000445760D01*
X0003229535Y0000461015D01*
X0003258194Y0000489675D01*
X0003255275Y0000499364D01*
X0003234125Y0000506967D01*
X0003229535Y0000506748D01*
X0003229535Y0000510000D01*
X0003225549Y0000530041D01*
X0003224987Y0000530881D01*
X0003214196Y0000547031D01*
X0003139535Y0000621692D01*
X0003139535Y0000634660D01*
X0003146646Y0000629908D01*
X0003175679Y0000624133D01*
X0003178651Y0000624133D01*
X0003207684Y0000629908D01*
X0003232297Y0000646354D01*
X0003248742Y0000670967D01*
X0003254517Y0000700000D01*
X0003248742Y0000729032D01*
X0003234732Y0000750000D01*
X0003248742Y0000770967D01*
X0003254517Y0000800000D01*
X0003248742Y0000829032D01*
X0003234732Y0000850000D01*
X0003248742Y0000870967D01*
X0003254517Y0000900000D01*
X0003248742Y0000929032D01*
X0003234732Y0000950000D01*
X0003248742Y0000970967D01*
X0003254517Y0001000000D01*
X0003248742Y0001029032D01*
X0003234732Y0001050000D01*
X0003248742Y0001070967D01*
X0003254517Y0001100000D01*
X0003248742Y0001129032D01*
X0003234732Y0001150000D01*
X0003248742Y0001170967D01*
X0003254517Y0001200000D01*
X0003248742Y0001229032D01*
X0003234732Y0001250000D01*
X0003248742Y0001270967D01*
X0003254517Y0001300000D01*
X0003248742Y0001329032D01*
X0003234732Y0001350000D01*
X0003248742Y0001370967D01*
X0003254517Y0001400000D01*
X0003248742Y0001429032D01*
X0003234732Y0001450000D01*
X0003248742Y0001470967D01*
X0003254517Y0001500000D01*
X0003248742Y0001529032D01*
X0003232297Y0001553645D01*
X0003207684Y0001570091D01*
X0003181606Y0001575278D01*
X0003135859Y0001621025D01*
X0003137165Y0001620760D01*
X0003217165Y0001620760D01*
X0003233607Y0001623854D01*
X0003248709Y0001633572D01*
X0003258840Y0001648399D01*
X0003262404Y0001666000D01*
X0003262404Y0001734000D01*
X0003259310Y0001750442D01*
X0003251872Y0001762001D01*
X0003257222Y0001770009D01*
X0003263188Y0001800000D01*
X0003257222Y0001829990D01*
X0003240234Y0001855416D01*
X0003228767Y0001863078D01*
X0003230343Y0001864486D01*
X0003240342Y0001885244D01*
X0003240447Y0001885865D01*
X0003235677Y0001895000D01*
X0003182165Y0001895000D01*
X0003182165Y0001894212D01*
X0003172165Y0001894212D01*
X0003172165Y0001895000D01*
X0003171377Y0001895000D01*
X0003171377Y0001905000D01*
X0003172165Y0001905000D01*
X0003172165Y0001952792D01*
X0003182165Y0001952792D01*
X0003182165Y0001905000D01*
X0003235677Y0001905000D01*
X0003240447Y0001914134D01*
X0003240342Y0001914755D01*
X0003230343Y0001935513D01*
X0003213162Y0001950864D01*
X0003191413Y0001958471D01*
X0003182165Y0001952792D01*
X0003172165Y0001952792D01*
X0003162916Y0001958471D01*
X0003141168Y0001950864D01*
X0003133535Y0001944044D01*
X0003133535Y0002001650D01*
X0003217025Y0002085140D01*
X0003223243Y0002094446D01*
X0003227163Y0002098360D01*
X0003236401Y0002089107D01*
X0003262806Y0002078142D01*
X0003291398Y0002078117D01*
X0003317823Y0002089035D01*
X0003338058Y0002109235D01*
X0003349022Y0002135641D01*
X0003349047Y0002164233D01*
X0003338129Y0002190657D01*
X0003317929Y0002210892D01*
X0003291523Y0002221857D01*
X0003262932Y0002221882D01*
X0003236507Y0002210964D01*
X0003227166Y0002201639D01*
X0003217929Y0002210892D01*
X0003191523Y0002221857D01*
X0003162932Y0002221882D01*
X0003136507Y0002210964D01*
X0003135603Y0002210061D01*
X0003122266Y0002219175D01*
X0003104665Y0002222739D01*
X0003049665Y0002222739D01*
X0003033222Y0002219645D01*
X0003018121Y0002209927D01*
X0003007990Y0002195100D01*
X0003004426Y0002177500D01*
X0003004426Y0002156979D01*
X0002987305Y0002139859D01*
X0002975086Y0002121571D01*
X0002970795Y0002100000D01*
X0002970795Y0002041658D01*
X0002969382Y0002042244D01*
X0002928415Y0002042244D01*
X0002922165Y0002035994D01*
X0002922165Y0001975000D01*
X0002922952Y0001975000D01*
X0002922952Y0001965000D01*
X0002922165Y0001965000D01*
X0002922165Y0001964212D01*
X0002912165Y0001964212D01*
X0002912165Y0001965000D01*
X0002851171Y0001965000D01*
X0002844921Y0001958750D01*
X0002844921Y0001917783D01*
X0002848727Y0001908594D01*
X0002855759Y0001901561D01*
X0002856614Y0001901208D01*
X0002839543Y0001884167D01*
X0002825567Y0001850507D01*
X0002825535Y0001814061D01*
X0002839453Y0001780377D01*
X0002851617Y0001768191D01*
X0002838377Y0001759672D01*
X0002828246Y0001744844D01*
X0002824681Y0001727244D01*
X0002824681Y0001632755D01*
X0002827775Y0001616313D01*
X0002837493Y0001601211D01*
X0002842899Y0001597517D01*
X0002839543Y0001594167D01*
X0002825567Y0001560507D01*
X0002825535Y0001524061D01*
X0002839453Y0001490377D01*
X0002849061Y0001480752D01*
X0002830593Y0001477079D01*
X0002812305Y0001464859D01*
X0002767021Y0001419575D01*
X0002762140Y0001419580D01*
X0002734246Y0001408054D01*
X0002726535Y0001400356D01*
X0002726535Y0002022216D01*
X0002844921Y0002022216D01*
X0002844921Y0001981250D01*
X0002851171Y0001975000D01*
X0002912165Y0001975000D01*
X0002912165Y0002035994D01*
X0002905915Y0002042244D01*
X0002864948Y0002042244D01*
X0002855759Y0002038438D01*
X0002848727Y0002031405D01*
X0002844921Y0002022216D01*
X0002726535Y0002022216D01*
X0002726535Y0002109822D01*
X0002735260Y0002088706D01*
X0002765711Y0002058201D01*
X0002805519Y0002041672D01*
X0002848622Y0002041634D01*
X0002888458Y0002058094D01*
X0002918963Y0002088546D01*
X0002935492Y0002128354D01*
X0002935530Y0002171456D01*
X0002919070Y0002211293D01*
X0002888618Y0002241798D01*
X0002867349Y0002250629D01*
X0003486987Y0002250629D01*
X0003465872Y0002241905D01*
G36*
X0003734793Y0000475556D02*
X0003734236Y0000475000D01*
X0003734793Y0000474443D01*
X0003727722Y0000467372D01*
X0003727165Y0000467928D01*
X0003726608Y0000467372D01*
X0003719537Y0000474443D01*
X0003720094Y0000475000D01*
X0003719537Y0000475556D01*
X0003726608Y0000482627D01*
X0003727165Y0000482071D01*
X0003727722Y0000482627D01*
X0003734793Y0000475556D01*
X0003734793Y0000475556D01*
G37*
X0003734793Y0000475556D02*
X0003734236Y0000475000D01*
X0003734793Y0000474443D01*
X0003727722Y0000467372D01*
X0003727165Y0000467928D01*
X0003726608Y0000467372D01*
X0003719537Y0000474443D01*
X0003720094Y0000475000D01*
X0003719537Y0000475556D01*
X0003726608Y0000482627D01*
X0003727165Y0000482071D01*
X0003727722Y0000482627D01*
X0003734793Y0000475556D01*
G36*
X0003779679Y0001304066D02*
X0003806827Y0001292794D01*
X0003804863Y0001287427D01*
X0003805872Y0001263407D01*
X0003813124Y0001245899D01*
X0003823222Y0001242497D01*
X0003858677Y0001277952D01*
X0003858120Y0001278509D01*
X0003865191Y0001285580D01*
X0003865748Y0001285023D01*
X0003866304Y0001285580D01*
X0003873375Y0001278509D01*
X0003872819Y0001277952D01*
X0003873375Y0001277395D01*
X0003866304Y0001270324D01*
X0003865748Y0001270881D01*
X0003830293Y0001235426D01*
X0003833695Y0001225329D01*
X0003856273Y0001217068D01*
X0003877795Y0001217972D01*
X0003877795Y0001081990D01*
X0003875223Y0001082931D01*
X0003851202Y0001081922D01*
X0003833695Y0001074670D01*
X0003830293Y0001064573D01*
X0003865748Y0001029118D01*
X0003866304Y0001029675D01*
X0003873375Y0001022604D01*
X0003872819Y0001022047D01*
X0003873375Y0001021490D01*
X0003866304Y0001014419D01*
X0003865748Y0001014976D01*
X0003865191Y0001014419D01*
X0003858120Y0001021490D01*
X0003858677Y0001022047D01*
X0003823222Y0001057502D01*
X0003813124Y0001054100D01*
X0003804863Y0001031522D01*
X0003805872Y0001007501D01*
X0003806125Y0001006891D01*
X0003779803Y0000996015D01*
X0003777181Y0000993398D01*
X0003774650Y0000995933D01*
X0003765693Y0000999652D01*
X0003768371Y0001006103D01*
X0003768399Y0001037851D01*
X0003756275Y0001067193D01*
X0003733846Y0001089661D01*
X0003704526Y0001101836D01*
X0003672778Y0001101864D01*
X0003655473Y0001094713D01*
X0003656524Y0001100000D01*
X0003650600Y0001129786D01*
X0003637093Y0001150000D01*
X0003650600Y0001170213D01*
X0003656524Y0001200000D01*
X0003655472Y0001205291D01*
X0003672639Y0001198163D01*
X0003704386Y0001198135D01*
X0003733728Y0001210259D01*
X0003756197Y0001232688D01*
X0003768371Y0001262009D01*
X0003768399Y0001293756D01*
X0003765683Y0001300330D01*
X0003774527Y0001303984D01*
X0003777149Y0001306601D01*
X0003779679Y0001304066D01*
X0003779679Y0001304066D01*
G37*
X0003779679Y0001304066D02*
X0003806827Y0001292794D01*
X0003804863Y0001287427D01*
X0003805872Y0001263407D01*
X0003813124Y0001245899D01*
X0003823222Y0001242497D01*
X0003858677Y0001277952D01*
X0003858120Y0001278509D01*
X0003865191Y0001285580D01*
X0003865748Y0001285023D01*
X0003866304Y0001285580D01*
X0003873375Y0001278509D01*
X0003872819Y0001277952D01*
X0003873375Y0001277395D01*
X0003866304Y0001270324D01*
X0003865748Y0001270881D01*
X0003830293Y0001235426D01*
X0003833695Y0001225329D01*
X0003856273Y0001217068D01*
X0003877795Y0001217972D01*
X0003877795Y0001081990D01*
X0003875223Y0001082931D01*
X0003851202Y0001081922D01*
X0003833695Y0001074670D01*
X0003830293Y0001064573D01*
X0003865748Y0001029118D01*
X0003866304Y0001029675D01*
X0003873375Y0001022604D01*
X0003872819Y0001022047D01*
X0003873375Y0001021490D01*
X0003866304Y0001014419D01*
X0003865748Y0001014976D01*
X0003865191Y0001014419D01*
X0003858120Y0001021490D01*
X0003858677Y0001022047D01*
X0003823222Y0001057502D01*
X0003813124Y0001054100D01*
X0003804863Y0001031522D01*
X0003805872Y0001007501D01*
X0003806125Y0001006891D01*
X0003779803Y0000996015D01*
X0003777181Y0000993398D01*
X0003774650Y0000995933D01*
X0003765693Y0000999652D01*
X0003768371Y0001006103D01*
X0003768399Y0001037851D01*
X0003756275Y0001067193D01*
X0003733846Y0001089661D01*
X0003704526Y0001101836D01*
X0003672778Y0001101864D01*
X0003655473Y0001094713D01*
X0003656524Y0001100000D01*
X0003650600Y0001129786D01*
X0003637093Y0001150000D01*
X0003650600Y0001170213D01*
X0003656524Y0001200000D01*
X0003655472Y0001205291D01*
X0003672639Y0001198163D01*
X0003704386Y0001198135D01*
X0003733728Y0001210259D01*
X0003756197Y0001232688D01*
X0003768371Y0001262009D01*
X0003768399Y0001293756D01*
X0003765683Y0001300330D01*
X0003774527Y0001303984D01*
X0003777149Y0001306601D01*
X0003779679Y0001304066D01*
G36*
X0003642555Y0001985629D02*
X0003645649Y0001969187D01*
X0003655367Y0001954085D01*
X0003666481Y0001946492D01*
X0003662365Y0001935414D01*
X0003663312Y0001909824D01*
X0003666086Y0001903127D01*
X0003656251Y0001896797D01*
X0003646120Y0001881970D01*
X0003642555Y0001864370D01*
X0003642555Y0001785629D01*
X0003645649Y0001769187D01*
X0003655367Y0001754085D01*
X0003666481Y0001746492D01*
X0003662365Y0001735414D01*
X0003663312Y0001709824D01*
X0003671284Y0001690580D01*
X0003673527Y0001689750D01*
X0003656232Y0001672485D01*
X0003643459Y0001641726D01*
X0003643430Y0001608420D01*
X0003656149Y0001577638D01*
X0003679679Y0001554066D01*
X0003710439Y0001541294D01*
X0003743745Y0001541265D01*
X0003774527Y0001553984D01*
X0003777149Y0001556601D01*
X0003779679Y0001554066D01*
X0003810439Y0001541294D01*
X0003843745Y0001541265D01*
X0003874527Y0001553984D01*
X0003877795Y0001557246D01*
X0003877795Y0001442783D01*
X0003874650Y0001445933D01*
X0003843891Y0001458705D01*
X0003810585Y0001458734D01*
X0003779803Y0001446015D01*
X0003777181Y0001443398D01*
X0003774650Y0001445933D01*
X0003743891Y0001458705D01*
X0003710585Y0001458734D01*
X0003679803Y0001446015D01*
X0003656232Y0001422485D01*
X0003653406Y0001415679D01*
X0003650600Y0001429786D01*
X0003633727Y0001455037D01*
X0003608476Y0001471909D01*
X0003578690Y0001477834D01*
X0003575640Y0001477834D01*
X0003545854Y0001471909D01*
X0003525408Y0001458248D01*
X0003518369Y0001462951D01*
X0003525631Y0001470967D01*
X0003531964Y0001486258D01*
X0003527162Y0001495000D01*
X0003482165Y0001495000D01*
X0003482165Y0001494212D01*
X0003472165Y0001494212D01*
X0003472165Y0001495000D01*
X0003427168Y0001495000D01*
X0003422366Y0001486258D01*
X0003428699Y0001470967D01*
X0003435960Y0001462951D01*
X0003422033Y0001453645D01*
X0003405587Y0001429032D01*
X0003404535Y0001423741D01*
X0003404535Y0001513741D01*
X0003422366Y0001513741D01*
X0003427168Y0001505000D01*
X0003472165Y0001505000D01*
X0003472165Y0001550024D01*
X0003482165Y0001550024D01*
X0003482165Y0001505000D01*
X0003527162Y0001505000D01*
X0003531964Y0001513741D01*
X0003525631Y0001529032D01*
X0003510832Y0001545369D01*
X0003490907Y0001554799D01*
X0003482165Y0001550024D01*
X0003472165Y0001550024D01*
X0003463423Y0001554799D01*
X0003443498Y0001545369D01*
X0003428699Y0001529032D01*
X0003422366Y0001513741D01*
X0003404535Y0001513741D01*
X0003404535Y0001711899D01*
X0003444561Y0001711899D01*
X0003447480Y0001702210D01*
X0003468630Y0001694607D01*
X0003491080Y0001695678D01*
X0003506850Y0001702210D01*
X0003509769Y0001711899D01*
X0003477165Y0001744503D01*
X0003444561Y0001711899D01*
X0003404535Y0001711899D01*
X0003404535Y0001800489D01*
X0003413241Y0001786959D01*
X0003426574Y0001777849D01*
X0003420198Y0001760109D01*
X0003421268Y0001737659D01*
X0003427800Y0001721889D01*
X0003437490Y0001718970D01*
X0003470094Y0001751574D01*
X0003469537Y0001752131D01*
X0003476608Y0001759202D01*
X0003477165Y0001758645D01*
X0003477722Y0001759202D01*
X0003484793Y0001752131D01*
X0003484236Y0001751574D01*
X0003516840Y0001718970D01*
X0003526530Y0001721889D01*
X0003534132Y0001743040D01*
X0003533062Y0001765490D01*
X0003527833Y0001778114D01*
X0003540205Y0001786076D01*
X0003550336Y0001800903D01*
X0003553900Y0001818503D01*
X0003553900Y0001881496D01*
X0003550806Y0001897938D01*
X0003541089Y0001913040D01*
X0003526262Y0001923171D01*
X0003508661Y0001926735D01*
X0003477963Y0001926735D01*
X0003514196Y0001962968D01*
X0003548857Y0001997629D01*
X0003567165Y0001997629D01*
X0003587206Y0002001616D01*
X0003604196Y0002012968D01*
X0003642555Y0002051328D01*
X0003642555Y0001985629D01*
X0003642555Y0001985629D01*
G37*
X0003642555Y0001985629D02*
X0003645649Y0001969187D01*
X0003655367Y0001954085D01*
X0003666481Y0001946492D01*
X0003662365Y0001935414D01*
X0003663312Y0001909824D01*
X0003666086Y0001903127D01*
X0003656251Y0001896797D01*
X0003646120Y0001881970D01*
X0003642555Y0001864370D01*
X0003642555Y0001785629D01*
X0003645649Y0001769187D01*
X0003655367Y0001754085D01*
X0003666481Y0001746492D01*
X0003662365Y0001735414D01*
X0003663312Y0001709824D01*
X0003671284Y0001690580D01*
X0003673527Y0001689750D01*
X0003656232Y0001672485D01*
X0003643459Y0001641726D01*
X0003643430Y0001608420D01*
X0003656149Y0001577638D01*
X0003679679Y0001554066D01*
X0003710439Y0001541294D01*
X0003743745Y0001541265D01*
X0003774527Y0001553984D01*
X0003777149Y0001556601D01*
X0003779679Y0001554066D01*
X0003810439Y0001541294D01*
X0003843745Y0001541265D01*
X0003874527Y0001553984D01*
X0003877795Y0001557246D01*
X0003877795Y0001442783D01*
X0003874650Y0001445933D01*
X0003843891Y0001458705D01*
X0003810585Y0001458734D01*
X0003779803Y0001446015D01*
X0003777181Y0001443398D01*
X0003774650Y0001445933D01*
X0003743891Y0001458705D01*
X0003710585Y0001458734D01*
X0003679803Y0001446015D01*
X0003656232Y0001422485D01*
X0003653406Y0001415679D01*
X0003650600Y0001429786D01*
X0003633727Y0001455037D01*
X0003608476Y0001471909D01*
X0003578690Y0001477834D01*
X0003575640Y0001477834D01*
X0003545854Y0001471909D01*
X0003525408Y0001458248D01*
X0003518369Y0001462951D01*
X0003525631Y0001470967D01*
X0003531964Y0001486258D01*
X0003527162Y0001495000D01*
X0003482165Y0001495000D01*
X0003482165Y0001494212D01*
X0003472165Y0001494212D01*
X0003472165Y0001495000D01*
X0003427168Y0001495000D01*
X0003422366Y0001486258D01*
X0003428699Y0001470967D01*
X0003435960Y0001462951D01*
X0003422033Y0001453645D01*
X0003405587Y0001429032D01*
X0003404535Y0001423741D01*
X0003404535Y0001513741D01*
X0003422366Y0001513741D01*
X0003427168Y0001505000D01*
X0003472165Y0001505000D01*
X0003472165Y0001550024D01*
X0003482165Y0001550024D01*
X0003482165Y0001505000D01*
X0003527162Y0001505000D01*
X0003531964Y0001513741D01*
X0003525631Y0001529032D01*
X0003510832Y0001545369D01*
X0003490907Y0001554799D01*
X0003482165Y0001550024D01*
X0003472165Y0001550024D01*
X0003463423Y0001554799D01*
X0003443498Y0001545369D01*
X0003428699Y0001529032D01*
X0003422366Y0001513741D01*
X0003404535Y0001513741D01*
X0003404535Y0001711899D01*
X0003444561Y0001711899D01*
X0003447480Y0001702210D01*
X0003468630Y0001694607D01*
X0003491080Y0001695678D01*
X0003506850Y0001702210D01*
X0003509769Y0001711899D01*
X0003477165Y0001744503D01*
X0003444561Y0001711899D01*
X0003404535Y0001711899D01*
X0003404535Y0001800489D01*
X0003413241Y0001786959D01*
X0003426574Y0001777849D01*
X0003420198Y0001760109D01*
X0003421268Y0001737659D01*
X0003427800Y0001721889D01*
X0003437490Y0001718970D01*
X0003470094Y0001751574D01*
X0003469537Y0001752131D01*
X0003476608Y0001759202D01*
X0003477165Y0001758645D01*
X0003477722Y0001759202D01*
X0003484793Y0001752131D01*
X0003484236Y0001751574D01*
X0003516840Y0001718970D01*
X0003526530Y0001721889D01*
X0003534132Y0001743040D01*
X0003533062Y0001765490D01*
X0003527833Y0001778114D01*
X0003540205Y0001786076D01*
X0003550336Y0001800903D01*
X0003553900Y0001818503D01*
X0003553900Y0001881496D01*
X0003550806Y0001897938D01*
X0003541089Y0001913040D01*
X0003526262Y0001923171D01*
X0003508661Y0001926735D01*
X0003477963Y0001926735D01*
X0003514196Y0001962968D01*
X0003548857Y0001997629D01*
X0003567165Y0001997629D01*
X0003587206Y0002001616D01*
X0003604196Y0002012968D01*
X0003642555Y0002051328D01*
X0003642555Y0001985629D01*
G36*
X0003734793Y0001725556D02*
X0003734236Y0001725000D01*
X0003734793Y0001724443D01*
X0003727722Y0001717372D01*
X0003727165Y0001717928D01*
X0003726608Y0001717372D01*
X0003719537Y0001724443D01*
X0003720094Y0001725000D01*
X0003719537Y0001725556D01*
X0003726608Y0001732627D01*
X0003727165Y0001732071D01*
X0003727722Y0001732627D01*
X0003734793Y0001725556D01*
X0003734793Y0001725556D01*
G37*
X0003734793Y0001725556D02*
X0003734236Y0001725000D01*
X0003734793Y0001724443D01*
X0003727722Y0001717372D01*
X0003727165Y0001717928D01*
X0003726608Y0001717372D01*
X0003719537Y0001724443D01*
X0003720094Y0001725000D01*
X0003719537Y0001725556D01*
X0003726608Y0001732627D01*
X0003727165Y0001732071D01*
X0003727722Y0001732627D01*
X0003734793Y0001725556D01*
G36*
X0003734793Y0001925556D02*
X0003734236Y0001925000D01*
X0003734793Y0001924443D01*
X0003727722Y0001917372D01*
X0003727165Y0001917928D01*
X0003726608Y0001917372D01*
X0003719537Y0001924443D01*
X0003720094Y0001925000D01*
X0003719537Y0001925556D01*
X0003726608Y0001932627D01*
X0003727165Y0001932071D01*
X0003727722Y0001932627D01*
X0003734793Y0001925556D01*
X0003734793Y0001925556D01*
G37*
X0003734793Y0001925556D02*
X0003734236Y0001925000D01*
X0003734793Y0001924443D01*
X0003727722Y0001917372D01*
X0003727165Y0001917928D01*
X0003726608Y0001917372D01*
X0003719537Y0001924443D01*
X0003720094Y0001925000D01*
X0003719537Y0001925556D01*
X0003726608Y0001932627D01*
X0003727165Y0001932071D01*
X0003727722Y0001932627D01*
X0003734793Y0001925556D01*
G36*
X0003734793Y0002125556D02*
X0003734236Y0002125000D01*
X0003734793Y0002124443D01*
X0003727722Y0002117372D01*
X0003727165Y0002117928D01*
X0003726608Y0002117372D01*
X0003719537Y0002124443D01*
X0003720094Y0002125000D01*
X0003719537Y0002125556D01*
X0003726608Y0002132627D01*
X0003727165Y0002132071D01*
X0003727722Y0002132627D01*
X0003734793Y0002125556D01*
X0003734793Y0002125556D01*
G37*
X0003734793Y0002125556D02*
X0003734236Y0002125000D01*
X0003734793Y0002124443D01*
X0003727722Y0002117372D01*
X0003727165Y0002117928D01*
X0003726608Y0002117372D01*
X0003719537Y0002124443D01*
X0003720094Y0002125000D01*
X0003719537Y0002125556D01*
X0003726608Y0002132627D01*
X0003727165Y0002132071D01*
X0003727722Y0002132627D01*
X0003734793Y0002125556D01*
M02*