G04 #@! TF.FileFunction,Copper,L1,Top,Signal*
%FSLAX46Y46*%
G04 Gerber Fmt 4.6, Leading zero omitted, Abs format (unit mm)*
G04 Created by KiCad (PCBNEW 4.0.6) date 09/06/18 10:25:07*
%MOMM*%
%LPD*%
G01*
G04 APERTURE LIST*
%ADD10C,0.100000*%
%ADD11C,1.676400*%
%ADD12C,2.000000*%
%ADD13R,2.000000X2.000000*%
%ADD14R,1.600000X1.600000*%
%ADD15C,1.600000*%
%ADD16R,1.700000X1.700000*%
%ADD17O,1.700000X1.700000*%
%ADD18R,1.300000X1.300000*%
%ADD19C,1.300000*%
%ADD20O,1.600000X1.600000*%
%ADD21R,2.032000X1.727200*%
%ADD22O,2.032000X1.727200*%
%ADD23R,1.397000X1.397000*%
%ADD24C,1.397000*%
%ADD25C,2.400000*%
%ADD26R,2.400000X2.400000*%
%ADD27C,1.998980*%
%ADD28C,1.800000*%
%ADD29R,0.600000X0.400000*%
%ADD30C,0.609600*%
%ADD31C,0.406400*%
%ADD32C,0.254000*%
G04 APERTURE END LIST*
D10*
D11*
X148590000Y-116205000D03*
X148590000Y-113665000D03*
D12*
X148590000Y-106045000D03*
D13*
X148590000Y-103505000D03*
D14*
X124460000Y-111760000D03*
D15*
X124460000Y-109260000D03*
X124460000Y-106760000D03*
X124460000Y-104260000D03*
X124460000Y-101760000D03*
D14*
X133350000Y-106680000D03*
D15*
X135850000Y-106680000D03*
D16*
X144780000Y-115570000D03*
D17*
X144780000Y-113030000D03*
X144780000Y-110490000D03*
X144780000Y-107950000D03*
X144780000Y-105410000D03*
X144780000Y-102870000D03*
X144780000Y-100330000D03*
X144780000Y-97790000D03*
X144780000Y-95250000D03*
X144780000Y-92710000D03*
X144780000Y-90170000D03*
X144780000Y-87630000D03*
X144780000Y-85090000D03*
X144780000Y-82550000D03*
D18*
X133350000Y-111125000D03*
D19*
X133350000Y-113625000D03*
D20*
X142240000Y-100330000D03*
X142240000Y-97790000D03*
X142240000Y-95250000D03*
X142240000Y-92710000D03*
X142240000Y-90170000D03*
X142240000Y-87630000D03*
X142240000Y-85090000D03*
X142240000Y-82550000D03*
X142240000Y-80010000D03*
X134620000Y-80010000D03*
X134620000Y-82550000D03*
X134620000Y-85090000D03*
X134620000Y-87630000D03*
X134620000Y-90170000D03*
X134620000Y-92710000D03*
X134620000Y-95250000D03*
X134620000Y-97790000D03*
X134620000Y-100330000D03*
D14*
X124460000Y-93980000D03*
D15*
X124460000Y-91480000D03*
X124460000Y-88980000D03*
X124460000Y-86480000D03*
X124460000Y-83980000D03*
X142240000Y-73620000D03*
D14*
X142240000Y-71120000D03*
D21*
X134620000Y-74930000D03*
D22*
X134620000Y-72390000D03*
X134620000Y-69850000D03*
D23*
X132080000Y-63500000D03*
D24*
X134620000Y-63500000D03*
X137160000Y-63500000D03*
D25*
X128016000Y-71572000D03*
D26*
X128016000Y-68072000D03*
D25*
X128016000Y-78938000D03*
D26*
X128016000Y-75438000D03*
D12*
X148590000Y-74295000D03*
D13*
X148590000Y-71755000D03*
D27*
X148590000Y-94615000D03*
X148590000Y-100965000D03*
X151130000Y-83185000D03*
X151130000Y-76835000D03*
X151130000Y-94615000D03*
X151130000Y-100965000D03*
X148590000Y-83185000D03*
X148590000Y-76835000D03*
D15*
X141605000Y-111125000D03*
X141605000Y-104775000D03*
X139065000Y-111125000D03*
X139065000Y-104775000D03*
D28*
X147610000Y-85650000D03*
X152110000Y-85650000D03*
X147610000Y-92150000D03*
X152110000Y-92150000D03*
D16*
X129540000Y-115570000D03*
D17*
X129540000Y-113030000D03*
X129540000Y-110490000D03*
X129540000Y-107950000D03*
X129540000Y-105410000D03*
X129540000Y-102870000D03*
X129540000Y-100330000D03*
X129540000Y-97790000D03*
X129540000Y-95250000D03*
X129540000Y-92710000D03*
X129540000Y-90170000D03*
X129540000Y-87630000D03*
X129540000Y-85090000D03*
X129540000Y-82550000D03*
D29*
X132334000Y-100388000D03*
X132334000Y-101288000D03*
D12*
X148590000Y-111125000D03*
D13*
X148590000Y-108585000D03*
D12*
X148590000Y-69215000D03*
D13*
X148590000Y-66675000D03*
D11*
X148590000Y-64135000D03*
X148590000Y-61595000D03*
D30*
X133350000Y-113625000D02*
X131659000Y-113625000D01*
X131064000Y-113030000D02*
X129540000Y-113030000D01*
X131659000Y-113625000D02*
X131064000Y-113030000D01*
D31*
X152110000Y-92150000D02*
X152110000Y-89880000D01*
X140970000Y-80010000D02*
X142240000Y-80010000D01*
X140335000Y-80645000D02*
X140970000Y-80010000D01*
X140335000Y-88265000D02*
X140335000Y-80645000D01*
X140970000Y-88900000D02*
X140335000Y-88265000D01*
X151130000Y-88900000D02*
X140970000Y-88900000D01*
X152110000Y-89880000D02*
X151130000Y-88900000D01*
D30*
X135850000Y-106680000D02*
X135850000Y-104180000D01*
X135890000Y-69850000D02*
X134620000Y-69850000D01*
X137160000Y-71120000D02*
X135890000Y-69850000D01*
X137160000Y-102870000D02*
X137160000Y-71120000D01*
X135850000Y-104180000D02*
X137160000Y-102870000D01*
D31*
X152035000Y-85725000D02*
X152110000Y-85650000D01*
X152110000Y-85650000D02*
X152110000Y-92150000D01*
X142875000Y-108585000D02*
X142875000Y-105410000D01*
X131318000Y-110998000D02*
X132715000Y-112395000D01*
X132715000Y-112395000D02*
X135255000Y-112395000D01*
X135255000Y-112395000D02*
X137795000Y-109855000D01*
X137795000Y-109855000D02*
X141605000Y-109855000D01*
X141605000Y-109855000D02*
X142875000Y-108585000D01*
X151130000Y-94615000D02*
X146685000Y-99060000D01*
X130492500Y-102870000D02*
X129540000Y-102870000D01*
X131318000Y-103695500D02*
X130492500Y-102870000D01*
X131318000Y-107569000D02*
X131318000Y-103695500D01*
X131318000Y-107569000D02*
X131318000Y-110998000D01*
X146685000Y-103505000D02*
X146685000Y-99060000D01*
X146050000Y-104140000D02*
X146685000Y-103505000D01*
X144145000Y-104140000D02*
X146050000Y-104140000D01*
X142875000Y-105410000D02*
X144145000Y-104140000D01*
X151130000Y-94615000D02*
X151130000Y-95567500D01*
D30*
X128016000Y-71572000D02*
X128016000Y-75438000D01*
X128016000Y-78938000D02*
X128707000Y-78938000D01*
X128707000Y-78938000D02*
X130810000Y-76835000D01*
X130810000Y-76835000D02*
X130810000Y-64770000D01*
X130810000Y-64770000D02*
X132080000Y-63500000D01*
D31*
X144780000Y-105410000D02*
X144907000Y-105410000D01*
X132334000Y-100388000D02*
X132334000Y-91440000D01*
X131064000Y-90170000D02*
X129540000Y-90170000D01*
X132334000Y-91440000D02*
X131064000Y-90170000D01*
X132334000Y-101288000D02*
X132334000Y-100388000D01*
X141605000Y-104775000D02*
X141351000Y-104775000D01*
X141351000Y-104775000D02*
X137414000Y-108712000D01*
X132334000Y-102870000D02*
X132334000Y-101288000D01*
X134620000Y-105156000D02*
X132334000Y-102870000D01*
X134620000Y-108204000D02*
X134620000Y-105156000D01*
X135128000Y-108712000D02*
X134620000Y-108204000D01*
X137414000Y-108712000D02*
X135128000Y-108712000D01*
X148590000Y-61595000D02*
X147701000Y-61595000D01*
X139065000Y-70485000D02*
X139065000Y-104775000D01*
X139065000Y-70485000D02*
X142240000Y-67310000D01*
X143510000Y-66040000D02*
X142240000Y-67310000D01*
X144526000Y-66040000D02*
X143510000Y-66040000D01*
X146558000Y-64008000D02*
X144526000Y-66040000D01*
X146558000Y-62738000D02*
X146558000Y-64008000D01*
X147701000Y-61595000D02*
X146558000Y-62738000D01*
X139065000Y-104775000D02*
X139065000Y-104140000D01*
X139065000Y-104140000D02*
X140335000Y-102870000D01*
X140335000Y-102870000D02*
X144780000Y-102870000D01*
X147955000Y-61595000D02*
X148590000Y-61595000D01*
D30*
X124460000Y-101760000D02*
X125255000Y-101760000D01*
X125255000Y-101760000D02*
X127000000Y-103505000D01*
X128270000Y-115570000D02*
X129540000Y-115570000D01*
X127000000Y-114300000D02*
X128270000Y-115570000D01*
X127000000Y-103505000D02*
X127000000Y-114300000D01*
X124460000Y-101760000D02*
X124620000Y-101760000D01*
X126365000Y-97790000D02*
X126365000Y-99855000D01*
X126365000Y-97790000D02*
X126365000Y-85885000D01*
X124460000Y-83980000D02*
X126365000Y-85885000D01*
X126365000Y-99855000D02*
X124460000Y-101760000D01*
X124460000Y-83980000D02*
X124460000Y-83820000D01*
X124460000Y-83820000D02*
X126365000Y-81915000D01*
X133985000Y-80645000D02*
X134620000Y-80010000D01*
X128905000Y-80645000D02*
X133985000Y-80645000D01*
X127635000Y-81915000D02*
X128905000Y-80645000D01*
X126365000Y-81915000D02*
X127635000Y-81915000D01*
X134620000Y-72390000D02*
X133350000Y-72390000D01*
X133350000Y-72390000D02*
X132080000Y-73660000D01*
X134620000Y-63500000D02*
X134620000Y-64135000D01*
X134620000Y-64135000D02*
X132080000Y-66675000D01*
X132080000Y-66675000D02*
X132080000Y-73660000D01*
X132080000Y-73660000D02*
X132080000Y-77470000D01*
X132080000Y-77470000D02*
X134620000Y-80010000D01*
D31*
X141605000Y-111125000D02*
X139065000Y-111125000D01*
X144780000Y-113030000D02*
X142621000Y-113030000D01*
X141605000Y-112014000D02*
X141605000Y-111125000D01*
X142621000Y-113030000D02*
X141605000Y-112014000D01*
D32*
G36*
X131774406Y-113335593D02*
X131936765Y-113444078D01*
X132057029Y-113524436D01*
X132081917Y-113954428D01*
X132220389Y-114288729D01*
X132450984Y-114344410D01*
X133070195Y-113725200D01*
X133629805Y-113725200D01*
X134249016Y-114344410D01*
X134407994Y-114306022D01*
X134407523Y-114845005D01*
X134825607Y-115856846D01*
X135599082Y-116631672D01*
X136139325Y-116856000D01*
X131450787Y-116856000D01*
X131539079Y-116420000D01*
X131539079Y-114720000D01*
X131502202Y-114524016D01*
X132630590Y-114524016D01*
X132686271Y-114754611D01*
X133169078Y-114922622D01*
X133679428Y-114893083D01*
X134013729Y-114754611D01*
X134069410Y-114524016D01*
X133350000Y-113804605D01*
X132630590Y-114524016D01*
X131502202Y-114524016D01*
X131460494Y-114302359D01*
X131213669Y-113918781D01*
X130860984Y-113677801D01*
X130981476Y-113386890D01*
X130860155Y-113157000D01*
X129667000Y-113157000D01*
X129667000Y-113177000D01*
X129413000Y-113177000D01*
X129413000Y-113157000D01*
X129393000Y-113157000D01*
X129393000Y-112903000D01*
X129413000Y-112903000D01*
X129413000Y-112883000D01*
X129667000Y-112883000D01*
X129667000Y-112903000D01*
X130860155Y-112903000D01*
X130981476Y-112673110D01*
X130889245Y-112450432D01*
X131774406Y-113335593D01*
X131774406Y-113335593D01*
G37*
X131774406Y-113335593D02*
X131936765Y-113444078D01*
X132057029Y-113524436D01*
X132081917Y-113954428D01*
X132220389Y-114288729D01*
X132450984Y-114344410D01*
X133070195Y-113725200D01*
X133629805Y-113725200D01*
X134249016Y-114344410D01*
X134407994Y-114306022D01*
X134407523Y-114845005D01*
X134825607Y-115856846D01*
X135599082Y-116631672D01*
X136139325Y-116856000D01*
X131450787Y-116856000D01*
X131539079Y-116420000D01*
X131539079Y-114720000D01*
X131502202Y-114524016D01*
X132630590Y-114524016D01*
X132686271Y-114754611D01*
X133169078Y-114922622D01*
X133679428Y-114893083D01*
X134013729Y-114754611D01*
X134069410Y-114524016D01*
X133350000Y-113804605D01*
X132630590Y-114524016D01*
X131502202Y-114524016D01*
X131460494Y-114302359D01*
X131213669Y-113918781D01*
X130860984Y-113677801D01*
X130981476Y-113386890D01*
X130860155Y-113157000D01*
X129667000Y-113157000D01*
X129667000Y-113177000D01*
X129413000Y-113177000D01*
X129413000Y-113157000D01*
X129393000Y-113157000D01*
X129393000Y-112903000D01*
X129413000Y-112903000D01*
X129413000Y-112883000D01*
X129667000Y-112883000D01*
X129667000Y-112903000D01*
X130860155Y-112903000D01*
X130981476Y-112673110D01*
X130889245Y-112450432D01*
X131774406Y-113335593D01*
G36*
X148783748Y-116190858D02*
X148769605Y-116205000D01*
X148783748Y-116219143D01*
X148604143Y-116398748D01*
X148590000Y-116384605D01*
X148575858Y-116398748D01*
X148396253Y-116219143D01*
X148410395Y-116205000D01*
X148396253Y-116190858D01*
X148575858Y-116011253D01*
X148590000Y-116025395D01*
X148604143Y-116011253D01*
X148783748Y-116190858D01*
X148783748Y-116190858D01*
G37*
X148783748Y-116190858D02*
X148769605Y-116205000D01*
X148783748Y-116219143D01*
X148604143Y-116398748D01*
X148590000Y-116384605D01*
X148575858Y-116398748D01*
X148396253Y-116219143D01*
X148410395Y-116205000D01*
X148396253Y-116190858D01*
X148575858Y-116011253D01*
X148590000Y-116025395D01*
X148604143Y-116011253D01*
X148783748Y-116190858D01*
G36*
X148783748Y-111110858D02*
X148769605Y-111125000D01*
X148783748Y-111139143D01*
X148604143Y-111318748D01*
X148590000Y-111304605D01*
X148575858Y-111318748D01*
X148396253Y-111139143D01*
X148410395Y-111125000D01*
X148396253Y-111110858D01*
X148575858Y-110931253D01*
X148590000Y-110945395D01*
X148604143Y-110931253D01*
X148783748Y-111110858D01*
X148783748Y-111110858D01*
G37*
X148783748Y-111110858D02*
X148769605Y-111125000D01*
X148783748Y-111139143D01*
X148604143Y-111318748D01*
X148590000Y-111304605D01*
X148575858Y-111318748D01*
X148396253Y-111139143D01*
X148410395Y-111125000D01*
X148396253Y-111110858D01*
X148575858Y-110931253D01*
X148590000Y-110945395D01*
X148604143Y-110931253D01*
X148783748Y-111110858D01*
G36*
X141953154Y-61165607D02*
X141178328Y-61939082D01*
X140758479Y-62950192D01*
X140757523Y-64045005D01*
X141175607Y-65056846D01*
X141893161Y-65775653D01*
X138124407Y-69544407D01*
X137836055Y-69975954D01*
X137734800Y-70485000D01*
X137734800Y-103380066D01*
X137432322Y-103682017D01*
X137138335Y-104390014D01*
X137137666Y-105156622D01*
X137430416Y-105865132D01*
X137904635Y-106340179D01*
X137268307Y-106976507D01*
X137296965Y-106896777D01*
X137269778Y-106326546D01*
X137103864Y-105925995D01*
X136857745Y-105851861D01*
X136029605Y-106680000D01*
X136043748Y-106694142D01*
X135950200Y-106787690D01*
X135950200Y-106400195D01*
X136678139Y-105672255D01*
X136604005Y-105426136D01*
X136066777Y-105233035D01*
X135950200Y-105238593D01*
X135950200Y-105156000D01*
X135848945Y-104646954D01*
X135834685Y-104625613D01*
X135560593Y-104215406D01*
X133664200Y-102319014D01*
X133664200Y-101989632D01*
X133844817Y-102110316D01*
X134582248Y-102257000D01*
X134657752Y-102257000D01*
X135395183Y-102110316D01*
X136020347Y-101692595D01*
X136438068Y-101067431D01*
X136584752Y-100330000D01*
X136438068Y-99592569D01*
X136082217Y-99060000D01*
X136438068Y-98527431D01*
X136584752Y-97790000D01*
X136438068Y-97052569D01*
X136082217Y-96520000D01*
X136438068Y-95987431D01*
X136584752Y-95250000D01*
X136438068Y-94512569D01*
X136082217Y-93980000D01*
X136438068Y-93447431D01*
X136584752Y-92710000D01*
X136438068Y-91972569D01*
X136082217Y-91440000D01*
X136438068Y-90907431D01*
X136584752Y-90170000D01*
X136438068Y-89432569D01*
X136082217Y-88900000D01*
X136438068Y-88367431D01*
X136584752Y-87630000D01*
X136438068Y-86892569D01*
X136082217Y-86360000D01*
X136438068Y-85827431D01*
X136584752Y-85090000D01*
X136438068Y-84352569D01*
X136082217Y-83820000D01*
X136438068Y-83287431D01*
X136584752Y-82550000D01*
X136438068Y-81812569D01*
X136082217Y-81280000D01*
X136438068Y-80747431D01*
X136584752Y-80010000D01*
X136438068Y-79272569D01*
X136020347Y-78647405D01*
X135395183Y-78229684D01*
X134732798Y-78097928D01*
X133570833Y-76935962D01*
X133604000Y-76942679D01*
X135636000Y-76942679D01*
X136053641Y-76864094D01*
X136437219Y-76617269D01*
X136694548Y-76240656D01*
X136785079Y-75793600D01*
X136785079Y-74066400D01*
X136706494Y-73648759D01*
X136517564Y-73355152D01*
X136653459Y-73151770D01*
X136804984Y-72390000D01*
X136653459Y-71628230D01*
X136221951Y-70982433D01*
X135930686Y-70787816D01*
X135970732Y-70752036D01*
X136224709Y-70224791D01*
X136227358Y-70209026D01*
X136106217Y-69977000D01*
X134747000Y-69977000D01*
X134747000Y-69997000D01*
X134493000Y-69997000D01*
X134493000Y-69977000D01*
X134473000Y-69977000D01*
X134473000Y-69723000D01*
X134493000Y-69723000D01*
X134493000Y-68509076D01*
X134747000Y-68509076D01*
X134747000Y-69723000D01*
X136106217Y-69723000D01*
X136227358Y-69490974D01*
X136224709Y-69475209D01*
X135970732Y-68947964D01*
X135534320Y-68558046D01*
X134981913Y-68364816D01*
X134747000Y-68509076D01*
X134493000Y-68509076D01*
X134258087Y-68364816D01*
X133705680Y-68558046D01*
X133511800Y-68731271D01*
X133511800Y-67268070D01*
X135632435Y-65147436D01*
X135790375Y-64911063D01*
X135889964Y-64811648D01*
X136124587Y-65046681D01*
X136795292Y-65325183D01*
X137521521Y-65325817D01*
X138192712Y-65048486D01*
X138706681Y-64535413D01*
X138985183Y-63864708D01*
X138985817Y-63138479D01*
X138708486Y-62467288D01*
X138195413Y-61953319D01*
X137524708Y-61674817D01*
X136798479Y-61674183D01*
X136127288Y-61951514D01*
X135890036Y-62188352D01*
X135655413Y-61953319D01*
X134984708Y-61674817D01*
X134258479Y-61674183D01*
X133587288Y-61951514D01*
X133564333Y-61974429D01*
X133225556Y-61742952D01*
X132778500Y-61652421D01*
X131381500Y-61652421D01*
X130963859Y-61731006D01*
X130580281Y-61977831D01*
X130322952Y-62354444D01*
X130232421Y-62801500D01*
X130232421Y-63322709D01*
X129797565Y-63757565D01*
X129487189Y-64222074D01*
X129378200Y-64770000D01*
X129378200Y-66251866D01*
X129342310Y-66237000D01*
X128301750Y-66237000D01*
X128143000Y-66395750D01*
X128143000Y-67945000D01*
X128163000Y-67945000D01*
X128163000Y-68199000D01*
X128143000Y-68199000D01*
X128143000Y-68219000D01*
X127889000Y-68219000D01*
X127889000Y-68199000D01*
X126339750Y-68199000D01*
X126181000Y-68357750D01*
X126181000Y-69398309D01*
X126277673Y-69631698D01*
X126456301Y-69810327D01*
X126477997Y-69819314D01*
X126044415Y-70252139D01*
X125689404Y-71107100D01*
X125688597Y-72032838D01*
X126042115Y-72888418D01*
X126351084Y-73197927D01*
X126014781Y-73414331D01*
X125757452Y-73790944D01*
X125666921Y-74238000D01*
X125666921Y-76638000D01*
X125745506Y-77055641D01*
X125992331Y-77439219D01*
X126129654Y-77533048D01*
X126044415Y-77618139D01*
X125689404Y-78473100D01*
X125688597Y-79398838D01*
X126042115Y-80254418D01*
X126286154Y-80498883D01*
X125817074Y-80592189D01*
X125352565Y-80902564D01*
X124202355Y-82052774D01*
X124078378Y-82052666D01*
X123369868Y-82345416D01*
X123174000Y-82540943D01*
X123174000Y-66745691D01*
X126181000Y-66745691D01*
X126181000Y-67786250D01*
X126339750Y-67945000D01*
X127889000Y-67945000D01*
X127889000Y-66395750D01*
X127730250Y-66237000D01*
X126689690Y-66237000D01*
X126456301Y-66333673D01*
X126277673Y-66512302D01*
X126181000Y-66745691D01*
X123174000Y-66745691D01*
X123174000Y-64520516D01*
X123395607Y-65056846D01*
X124169082Y-65831672D01*
X125180192Y-66251521D01*
X126275005Y-66252477D01*
X127286846Y-65834393D01*
X128061672Y-65060918D01*
X128481521Y-64049808D01*
X128482477Y-62954995D01*
X128064393Y-61943154D01*
X127290918Y-61168328D01*
X126750675Y-60944000D01*
X142489484Y-60944000D01*
X141953154Y-61165607D01*
X141953154Y-61165607D01*
G37*
X141953154Y-61165607D02*
X141178328Y-61939082D01*
X140758479Y-62950192D01*
X140757523Y-64045005D01*
X141175607Y-65056846D01*
X141893161Y-65775653D01*
X138124407Y-69544407D01*
X137836055Y-69975954D01*
X137734800Y-70485000D01*
X137734800Y-103380066D01*
X137432322Y-103682017D01*
X137138335Y-104390014D01*
X137137666Y-105156622D01*
X137430416Y-105865132D01*
X137904635Y-106340179D01*
X137268307Y-106976507D01*
X137296965Y-106896777D01*
X137269778Y-106326546D01*
X137103864Y-105925995D01*
X136857745Y-105851861D01*
X136029605Y-106680000D01*
X136043748Y-106694142D01*
X135950200Y-106787690D01*
X135950200Y-106400195D01*
X136678139Y-105672255D01*
X136604005Y-105426136D01*
X136066777Y-105233035D01*
X135950200Y-105238593D01*
X135950200Y-105156000D01*
X135848945Y-104646954D01*
X135834685Y-104625613D01*
X135560593Y-104215406D01*
X133664200Y-102319014D01*
X133664200Y-101989632D01*
X133844817Y-102110316D01*
X134582248Y-102257000D01*
X134657752Y-102257000D01*
X135395183Y-102110316D01*
X136020347Y-101692595D01*
X136438068Y-101067431D01*
X136584752Y-100330000D01*
X136438068Y-99592569D01*
X136082217Y-99060000D01*
X136438068Y-98527431D01*
X136584752Y-97790000D01*
X136438068Y-97052569D01*
X136082217Y-96520000D01*
X136438068Y-95987431D01*
X136584752Y-95250000D01*
X136438068Y-94512569D01*
X136082217Y-93980000D01*
X136438068Y-93447431D01*
X136584752Y-92710000D01*
X136438068Y-91972569D01*
X136082217Y-91440000D01*
X136438068Y-90907431D01*
X136584752Y-90170000D01*
X136438068Y-89432569D01*
X136082217Y-88900000D01*
X136438068Y-88367431D01*
X136584752Y-87630000D01*
X136438068Y-86892569D01*
X136082217Y-86360000D01*
X136438068Y-85827431D01*
X136584752Y-85090000D01*
X136438068Y-84352569D01*
X136082217Y-83820000D01*
X136438068Y-83287431D01*
X136584752Y-82550000D01*
X136438068Y-81812569D01*
X136082217Y-81280000D01*
X136438068Y-80747431D01*
X136584752Y-80010000D01*
X136438068Y-79272569D01*
X136020347Y-78647405D01*
X135395183Y-78229684D01*
X134732798Y-78097928D01*
X133570833Y-76935962D01*
X133604000Y-76942679D01*
X135636000Y-76942679D01*
X136053641Y-76864094D01*
X136437219Y-76617269D01*
X136694548Y-76240656D01*
X136785079Y-75793600D01*
X136785079Y-74066400D01*
X136706494Y-73648759D01*
X136517564Y-73355152D01*
X136653459Y-73151770D01*
X136804984Y-72390000D01*
X136653459Y-71628230D01*
X136221951Y-70982433D01*
X135930686Y-70787816D01*
X135970732Y-70752036D01*
X136224709Y-70224791D01*
X136227358Y-70209026D01*
X136106217Y-69977000D01*
X134747000Y-69977000D01*
X134747000Y-69997000D01*
X134493000Y-69997000D01*
X134493000Y-69977000D01*
X134473000Y-69977000D01*
X134473000Y-69723000D01*
X134493000Y-69723000D01*
X134493000Y-68509076D01*
X134747000Y-68509076D01*
X134747000Y-69723000D01*
X136106217Y-69723000D01*
X136227358Y-69490974D01*
X136224709Y-69475209D01*
X135970732Y-68947964D01*
X135534320Y-68558046D01*
X134981913Y-68364816D01*
X134747000Y-68509076D01*
X134493000Y-68509076D01*
X134258087Y-68364816D01*
X133705680Y-68558046D01*
X133511800Y-68731271D01*
X133511800Y-67268070D01*
X135632435Y-65147436D01*
X135790375Y-64911063D01*
X135889964Y-64811648D01*
X136124587Y-65046681D01*
X136795292Y-65325183D01*
X137521521Y-65325817D01*
X138192712Y-65048486D01*
X138706681Y-64535413D01*
X138985183Y-63864708D01*
X138985817Y-63138479D01*
X138708486Y-62467288D01*
X138195413Y-61953319D01*
X137524708Y-61674817D01*
X136798479Y-61674183D01*
X136127288Y-61951514D01*
X135890036Y-62188352D01*
X135655413Y-61953319D01*
X134984708Y-61674817D01*
X134258479Y-61674183D01*
X133587288Y-61951514D01*
X133564333Y-61974429D01*
X133225556Y-61742952D01*
X132778500Y-61652421D01*
X131381500Y-61652421D01*
X130963859Y-61731006D01*
X130580281Y-61977831D01*
X130322952Y-62354444D01*
X130232421Y-62801500D01*
X130232421Y-63322709D01*
X129797565Y-63757565D01*
X129487189Y-64222074D01*
X129378200Y-64770000D01*
X129378200Y-66251866D01*
X129342310Y-66237000D01*
X128301750Y-66237000D01*
X128143000Y-66395750D01*
X128143000Y-67945000D01*
X128163000Y-67945000D01*
X128163000Y-68199000D01*
X128143000Y-68199000D01*
X128143000Y-68219000D01*
X127889000Y-68219000D01*
X127889000Y-68199000D01*
X126339750Y-68199000D01*
X126181000Y-68357750D01*
X126181000Y-69398309D01*
X126277673Y-69631698D01*
X126456301Y-69810327D01*
X126477997Y-69819314D01*
X126044415Y-70252139D01*
X125689404Y-71107100D01*
X125688597Y-72032838D01*
X126042115Y-72888418D01*
X126351084Y-73197927D01*
X126014781Y-73414331D01*
X125757452Y-73790944D01*
X125666921Y-74238000D01*
X125666921Y-76638000D01*
X125745506Y-77055641D01*
X125992331Y-77439219D01*
X126129654Y-77533048D01*
X126044415Y-77618139D01*
X125689404Y-78473100D01*
X125688597Y-79398838D01*
X126042115Y-80254418D01*
X126286154Y-80498883D01*
X125817074Y-80592189D01*
X125352565Y-80902564D01*
X124202355Y-82052774D01*
X124078378Y-82052666D01*
X123369868Y-82345416D01*
X123174000Y-82540943D01*
X123174000Y-66745691D01*
X126181000Y-66745691D01*
X126181000Y-67786250D01*
X126339750Y-67945000D01*
X127889000Y-67945000D01*
X127889000Y-66395750D01*
X127730250Y-66237000D01*
X126689690Y-66237000D01*
X126456301Y-66333673D01*
X126277673Y-66512302D01*
X126181000Y-66745691D01*
X123174000Y-66745691D01*
X123174000Y-64520516D01*
X123395607Y-65056846D01*
X124169082Y-65831672D01*
X125180192Y-66251521D01*
X126275005Y-66252477D01*
X127286846Y-65834393D01*
X128061672Y-65060918D01*
X128481521Y-64049808D01*
X128482477Y-62954995D01*
X128064393Y-61943154D01*
X127290918Y-61168328D01*
X126750675Y-60944000D01*
X142489484Y-60944000D01*
X141953154Y-61165607D01*
G36*
X148783748Y-106030858D02*
X148769605Y-106045000D01*
X148783748Y-106059143D01*
X148604143Y-106238748D01*
X148590000Y-106224605D01*
X148575858Y-106238748D01*
X148396253Y-106059143D01*
X148410395Y-106045000D01*
X148396253Y-106030858D01*
X148575858Y-105851253D01*
X148590000Y-105865395D01*
X148604143Y-105851253D01*
X148783748Y-106030858D01*
X148783748Y-106030858D01*
G37*
X148783748Y-106030858D02*
X148769605Y-106045000D01*
X148783748Y-106059143D01*
X148604143Y-106238748D01*
X148590000Y-106224605D01*
X148575858Y-106238748D01*
X148396253Y-106059143D01*
X148410395Y-106045000D01*
X148396253Y-106030858D01*
X148575858Y-105851253D01*
X148590000Y-105865395D01*
X148604143Y-105851253D01*
X148783748Y-106030858D01*
G36*
X149923868Y-84986699D02*
X150613413Y-85273024D01*
X150563542Y-85409336D01*
X150589161Y-86019460D01*
X150773357Y-86464148D01*
X151029841Y-86550554D01*
X151930395Y-85650000D01*
X151916253Y-85635858D01*
X152095858Y-85456253D01*
X152110000Y-85470395D01*
X152124143Y-85456253D01*
X152303748Y-85635858D01*
X152289605Y-85650000D01*
X152303748Y-85664143D01*
X152124143Y-85843748D01*
X152110000Y-85829605D01*
X151209446Y-86730159D01*
X151295852Y-86986643D01*
X151869336Y-87196458D01*
X152416000Y-87173504D01*
X152416000Y-90627446D01*
X152350664Y-90603542D01*
X151740540Y-90629161D01*
X151295852Y-90813357D01*
X151209446Y-91069841D01*
X152110000Y-91970395D01*
X152124143Y-91956253D01*
X152303748Y-92135858D01*
X152289605Y-92150000D01*
X152303748Y-92164143D01*
X152124143Y-92343748D01*
X152110000Y-92329605D01*
X152095858Y-92343748D01*
X151916253Y-92164143D01*
X151930395Y-92150000D01*
X151029841Y-91249446D01*
X150773357Y-91335852D01*
X150563542Y-91909336D01*
X150589161Y-92519460D01*
X150595579Y-92534953D01*
X149927014Y-92811199D01*
X149860408Y-92877689D01*
X149796132Y-92813301D01*
X149568606Y-92718824D01*
X149636647Y-92554964D01*
X149637351Y-91748574D01*
X149329409Y-91003297D01*
X148759702Y-90432595D01*
X148014964Y-90123353D01*
X147208574Y-90122649D01*
X146769025Y-90304267D01*
X146795732Y-90170000D01*
X146645242Y-89413435D01*
X146302176Y-88900000D01*
X146645242Y-88386565D01*
X146795732Y-87630000D01*
X146768996Y-87495587D01*
X147205036Y-87676647D01*
X148011426Y-87677351D01*
X148756703Y-87369409D01*
X149327405Y-86799702D01*
X149636647Y-86054964D01*
X149637351Y-85248574D01*
X149568364Y-85081613D01*
X149792986Y-84988801D01*
X149859592Y-84922311D01*
X149923868Y-84986699D01*
X149923868Y-84986699D01*
G37*
X149923868Y-84986699D02*
X150613413Y-85273024D01*
X150563542Y-85409336D01*
X150589161Y-86019460D01*
X150773357Y-86464148D01*
X151029841Y-86550554D01*
X151930395Y-85650000D01*
X151916253Y-85635858D01*
X152095858Y-85456253D01*
X152110000Y-85470395D01*
X152124143Y-85456253D01*
X152303748Y-85635858D01*
X152289605Y-85650000D01*
X152303748Y-85664143D01*
X152124143Y-85843748D01*
X152110000Y-85829605D01*
X151209446Y-86730159D01*
X151295852Y-86986643D01*
X151869336Y-87196458D01*
X152416000Y-87173504D01*
X152416000Y-90627446D01*
X152350664Y-90603542D01*
X151740540Y-90629161D01*
X151295852Y-90813357D01*
X151209446Y-91069841D01*
X152110000Y-91970395D01*
X152124143Y-91956253D01*
X152303748Y-92135858D01*
X152289605Y-92150000D01*
X152303748Y-92164143D01*
X152124143Y-92343748D01*
X152110000Y-92329605D01*
X152095858Y-92343748D01*
X151916253Y-92164143D01*
X151930395Y-92150000D01*
X151029841Y-91249446D01*
X150773357Y-91335852D01*
X150563542Y-91909336D01*
X150589161Y-92519460D01*
X150595579Y-92534953D01*
X149927014Y-92811199D01*
X149860408Y-92877689D01*
X149796132Y-92813301D01*
X149568606Y-92718824D01*
X149636647Y-92554964D01*
X149637351Y-91748574D01*
X149329409Y-91003297D01*
X148759702Y-90432595D01*
X148014964Y-90123353D01*
X147208574Y-90122649D01*
X146769025Y-90304267D01*
X146795732Y-90170000D01*
X146645242Y-89413435D01*
X146302176Y-88900000D01*
X146645242Y-88386565D01*
X146795732Y-87630000D01*
X146768996Y-87495587D01*
X147205036Y-87676647D01*
X148011426Y-87677351D01*
X148756703Y-87369409D01*
X149327405Y-86799702D01*
X149636647Y-86054964D01*
X149637351Y-85248574D01*
X149568364Y-85081613D01*
X149792986Y-84988801D01*
X149859592Y-84922311D01*
X149923868Y-84986699D01*
G36*
X146440921Y-67675000D02*
X146519506Y-68092641D01*
X146766331Y-68476219D01*
X147048621Y-68669100D01*
X146944092Y-68950461D01*
X146968144Y-69600460D01*
X147038607Y-69770573D01*
X146788781Y-69931331D01*
X146531452Y-70307944D01*
X146440921Y-70755000D01*
X146440921Y-72755000D01*
X146519506Y-73172641D01*
X146766331Y-73556219D01*
X147048621Y-73749100D01*
X146944092Y-74030461D01*
X146968144Y-74680460D01*
X147170613Y-75169264D01*
X147227601Y-75190334D01*
X146788301Y-75628868D01*
X146463880Y-76410159D01*
X146463142Y-77256129D01*
X146786199Y-78037986D01*
X147383868Y-78636699D01*
X148165159Y-78961120D01*
X149011129Y-78961858D01*
X149792986Y-78638801D01*
X149859592Y-78572311D01*
X149923868Y-78636699D01*
X150705159Y-78961120D01*
X151551129Y-78961858D01*
X152332986Y-78638801D01*
X152416000Y-78555932D01*
X152416000Y-81463309D01*
X152336132Y-81383301D01*
X151554841Y-81058880D01*
X150708871Y-81058142D01*
X149927014Y-81381199D01*
X149860408Y-81447689D01*
X149796132Y-81383301D01*
X149014841Y-81058880D01*
X148168871Y-81058142D01*
X147387014Y-81381199D01*
X146788301Y-81978868D01*
X146716515Y-82151748D01*
X146645242Y-81793435D01*
X146216682Y-81152050D01*
X145575297Y-80723490D01*
X144818732Y-80573000D01*
X144741268Y-80573000D01*
X143984703Y-80723490D01*
X143465376Y-81070493D01*
X143286594Y-80951035D01*
X143471041Y-80747423D01*
X143631904Y-80359039D01*
X143509915Y-80137000D01*
X142367000Y-80137000D01*
X142367000Y-80157000D01*
X142113000Y-80157000D01*
X142113000Y-80137000D01*
X140970085Y-80137000D01*
X140848096Y-80359039D01*
X141008959Y-80747423D01*
X141193406Y-80951035D01*
X140839653Y-81187405D01*
X140421932Y-81812569D01*
X140395200Y-81946960D01*
X140395200Y-79660961D01*
X140848096Y-79660961D01*
X140970085Y-79883000D01*
X142113000Y-79883000D01*
X142113000Y-78739371D01*
X142367000Y-78739371D01*
X142367000Y-79883000D01*
X143509915Y-79883000D01*
X143631904Y-79660961D01*
X143471041Y-79272577D01*
X143095134Y-78857611D01*
X142589041Y-78618086D01*
X142367000Y-78739371D01*
X142113000Y-78739371D01*
X141890959Y-78618086D01*
X141384866Y-78857611D01*
X141008959Y-79272577D01*
X140848096Y-79660961D01*
X140395200Y-79660961D01*
X140395200Y-74627745D01*
X141411861Y-74627745D01*
X141485995Y-74873864D01*
X142023223Y-75066965D01*
X142593454Y-75039778D01*
X142994005Y-74873864D01*
X143068139Y-74627745D01*
X142240000Y-73799605D01*
X141411861Y-74627745D01*
X140395200Y-74627745D01*
X140395200Y-72377571D01*
X140616331Y-72721219D01*
X140954999Y-72952621D01*
X140793035Y-73403223D01*
X140820222Y-73973454D01*
X140986136Y-74374005D01*
X141232255Y-74448139D01*
X142060395Y-73620000D01*
X142046252Y-73605858D01*
X142225858Y-73426253D01*
X142240000Y-73440395D01*
X142254143Y-73426253D01*
X142433748Y-73605858D01*
X142419605Y-73620000D01*
X143247745Y-74448139D01*
X143493864Y-74374005D01*
X143686965Y-73836777D01*
X143659778Y-73266546D01*
X143526958Y-72945890D01*
X143841219Y-72743669D01*
X144098548Y-72367056D01*
X144189079Y-71920000D01*
X144189079Y-70320000D01*
X144110494Y-69902359D01*
X143863669Y-69518781D01*
X143487056Y-69261452D01*
X143040000Y-69170921D01*
X142260265Y-69170921D01*
X143180593Y-68250593D01*
X144060987Y-67370200D01*
X144526000Y-67370200D01*
X145035046Y-67268945D01*
X145466593Y-66980593D01*
X146440921Y-66006265D01*
X146440921Y-67675000D01*
X146440921Y-67675000D01*
G37*
X146440921Y-67675000D02*
X146519506Y-68092641D01*
X146766331Y-68476219D01*
X147048621Y-68669100D01*
X146944092Y-68950461D01*
X146968144Y-69600460D01*
X147038607Y-69770573D01*
X146788781Y-69931331D01*
X146531452Y-70307944D01*
X146440921Y-70755000D01*
X146440921Y-72755000D01*
X146519506Y-73172641D01*
X146766331Y-73556219D01*
X147048621Y-73749100D01*
X146944092Y-74030461D01*
X146968144Y-74680460D01*
X147170613Y-75169264D01*
X147227601Y-75190334D01*
X146788301Y-75628868D01*
X146463880Y-76410159D01*
X146463142Y-77256129D01*
X146786199Y-78037986D01*
X147383868Y-78636699D01*
X148165159Y-78961120D01*
X149011129Y-78961858D01*
X149792986Y-78638801D01*
X149859592Y-78572311D01*
X149923868Y-78636699D01*
X150705159Y-78961120D01*
X151551129Y-78961858D01*
X152332986Y-78638801D01*
X152416000Y-78555932D01*
X152416000Y-81463309D01*
X152336132Y-81383301D01*
X151554841Y-81058880D01*
X150708871Y-81058142D01*
X149927014Y-81381199D01*
X149860408Y-81447689D01*
X149796132Y-81383301D01*
X149014841Y-81058880D01*
X148168871Y-81058142D01*
X147387014Y-81381199D01*
X146788301Y-81978868D01*
X146716515Y-82151748D01*
X146645242Y-81793435D01*
X146216682Y-81152050D01*
X145575297Y-80723490D01*
X144818732Y-80573000D01*
X144741268Y-80573000D01*
X143984703Y-80723490D01*
X143465376Y-81070493D01*
X143286594Y-80951035D01*
X143471041Y-80747423D01*
X143631904Y-80359039D01*
X143509915Y-80137000D01*
X142367000Y-80137000D01*
X142367000Y-80157000D01*
X142113000Y-80157000D01*
X142113000Y-80137000D01*
X140970085Y-80137000D01*
X140848096Y-80359039D01*
X141008959Y-80747423D01*
X141193406Y-80951035D01*
X140839653Y-81187405D01*
X140421932Y-81812569D01*
X140395200Y-81946960D01*
X140395200Y-79660961D01*
X140848096Y-79660961D01*
X140970085Y-79883000D01*
X142113000Y-79883000D01*
X142113000Y-78739371D01*
X142367000Y-78739371D01*
X142367000Y-79883000D01*
X143509915Y-79883000D01*
X143631904Y-79660961D01*
X143471041Y-79272577D01*
X143095134Y-78857611D01*
X142589041Y-78618086D01*
X142367000Y-78739371D01*
X142113000Y-78739371D01*
X141890959Y-78618086D01*
X141384866Y-78857611D01*
X141008959Y-79272577D01*
X140848096Y-79660961D01*
X140395200Y-79660961D01*
X140395200Y-74627745D01*
X141411861Y-74627745D01*
X141485995Y-74873864D01*
X142023223Y-75066965D01*
X142593454Y-75039778D01*
X142994005Y-74873864D01*
X143068139Y-74627745D01*
X142240000Y-73799605D01*
X141411861Y-74627745D01*
X140395200Y-74627745D01*
X140395200Y-72377571D01*
X140616331Y-72721219D01*
X140954999Y-72952621D01*
X140793035Y-73403223D01*
X140820222Y-73973454D01*
X140986136Y-74374005D01*
X141232255Y-74448139D01*
X142060395Y-73620000D01*
X142046252Y-73605858D01*
X142225858Y-73426253D01*
X142240000Y-73440395D01*
X142254143Y-73426253D01*
X142433748Y-73605858D01*
X142419605Y-73620000D01*
X143247745Y-74448139D01*
X143493864Y-74374005D01*
X143686965Y-73836777D01*
X143659778Y-73266546D01*
X143526958Y-72945890D01*
X143841219Y-72743669D01*
X144098548Y-72367056D01*
X144189079Y-71920000D01*
X144189079Y-70320000D01*
X144110494Y-69902359D01*
X143863669Y-69518781D01*
X143487056Y-69261452D01*
X143040000Y-69170921D01*
X142260265Y-69170921D01*
X143180593Y-68250593D01*
X144060987Y-67370200D01*
X144526000Y-67370200D01*
X145035046Y-67268945D01*
X145466593Y-66980593D01*
X146440921Y-66006265D01*
X146440921Y-67675000D01*
G36*
X148783748Y-74280858D02*
X148769605Y-74295000D01*
X148783748Y-74309143D01*
X148604143Y-74488748D01*
X148590000Y-74474605D01*
X148575858Y-74488748D01*
X148396253Y-74309143D01*
X148410395Y-74295000D01*
X148396253Y-74280858D01*
X148575858Y-74101253D01*
X148590000Y-74115395D01*
X148604143Y-74101253D01*
X148783748Y-74280858D01*
X148783748Y-74280858D01*
G37*
X148783748Y-74280858D02*
X148769605Y-74295000D01*
X148783748Y-74309143D01*
X148604143Y-74488748D01*
X148590000Y-74474605D01*
X148575858Y-74488748D01*
X148396253Y-74309143D01*
X148410395Y-74295000D01*
X148396253Y-74280858D01*
X148575858Y-74101253D01*
X148590000Y-74115395D01*
X148604143Y-74101253D01*
X148783748Y-74280858D01*
G36*
X148783748Y-69200858D02*
X148769605Y-69215000D01*
X148783748Y-69229143D01*
X148604143Y-69408748D01*
X148590000Y-69394605D01*
X148575858Y-69408748D01*
X148396253Y-69229143D01*
X148410395Y-69215000D01*
X148396253Y-69200858D01*
X148575858Y-69021253D01*
X148590000Y-69035395D01*
X148604143Y-69021253D01*
X148783748Y-69200858D01*
X148783748Y-69200858D01*
G37*
X148783748Y-69200858D02*
X148769605Y-69215000D01*
X148783748Y-69229143D01*
X148604143Y-69408748D01*
X148590000Y-69394605D01*
X148575858Y-69408748D01*
X148396253Y-69229143D01*
X148410395Y-69215000D01*
X148396253Y-69200858D01*
X148575858Y-69021253D01*
X148590000Y-69035395D01*
X148604143Y-69021253D01*
X148783748Y-69200858D01*
G36*
X148783748Y-64120858D02*
X148769605Y-64135000D01*
X148783748Y-64149143D01*
X148604143Y-64328748D01*
X148590000Y-64314605D01*
X148575858Y-64328748D01*
X148396253Y-64149143D01*
X148410395Y-64135000D01*
X148396253Y-64120858D01*
X148575858Y-63941253D01*
X148590000Y-63955395D01*
X148604143Y-63941253D01*
X148783748Y-64120858D01*
X148783748Y-64120858D01*
G37*
X148783748Y-64120858D02*
X148769605Y-64135000D01*
X148783748Y-64149143D01*
X148604143Y-64328748D01*
X148590000Y-64314605D01*
X148575858Y-64328748D01*
X148396253Y-64149143D01*
X148410395Y-64135000D01*
X148396253Y-64120858D01*
X148575858Y-63941253D01*
X148590000Y-63955395D01*
X148604143Y-63941253D01*
X148783748Y-64120858D01*
M02*
