<?xml version="1.0" encoding="UTF-8" standalone="no"?>
<svg
   xmlns:dc="http://purl.org/dc/elements/1.1/"
   xmlns:cc="http://creativecommons.org/ns#"
   xmlns:rdf="http://www.w3.org/1999/02/22-rdf-syntax-ns#"
   xmlns:svg="http://www.w3.org/2000/svg"
   xmlns="http://www.w3.org/2000/svg"
   xmlns:sodipodi="http://sodipodi.sourceforge.net/DTD/sodipodi-0.dtd"
   xmlns:inkscape="http://www.inkscape.org/namespaces/inkscape"
   width="64mm"
   height="28mm"
   viewBox="-32 -53 64 28"
   version="1.1"
   id="svg2"
   inkscape:version="0.92.2 (5c3e80d, 2017-08-06)"
   sodipodi:docname="Name_Plate_Turtle.svg">
  <metadata
     id="metadata14">
    <rdf:RDF>
      <cc:Work
         rdf:about="">
        <dc:format>image/svg+xml</dc:format>
        <dc:type
           rdf:resource="http://purl.org/dc/dcmitype/StillImage" />
        <dc:title>svgOutput</dc:title>
      </cc:Work>
    </rdf:RDF>
  </metadata>
  <defs
     id="defs12" />
  <sodipodi:namedview
     pagecolor="#ffffff"
     bordercolor="#666666"
     borderopacity="1"
     objecttolerance="10"
     gridtolerance="10"
     guidetolerance="10"
     inkscape:pageopacity="0"
     inkscape:pageshadow="2"
     inkscape:window-width="1534"
     inkscape:window-height="877"
     id="namedview10"
     showgrid="false"
     inkscape:zoom="2.6105556"
     inkscape:cx="114.57736"
     inkscape:cy="48.840179"
     inkscape:window-x="58"
     inkscape:window-y="-8"
     inkscape:window-maximized="1"
     inkscape:current-layer="svg2" />
  <title
     id="title4">svgOutput</title>
  <desc
     id="desc6">made with tinkercad</desc>
  <g
     aria-label="Turtle"
     transform="matrix(0.26458333,0,0,0.26458333,-31.290541,-41.648649)"
     style="font-style:normal;font-variant:normal;font-weight:normal;font-stretch:normal;font-size:16px;line-height:1.25;font-family:Stencil;-inkscape-font-specification:Stencil;letter-spacing:0px;word-spacing:0px;fill:#000000;fill-opacity:1;stroke:none"
     id="flowRoot3698">
    <path
       d="m 65.363931,17.031901 -0.604167,13.104165 q -0.8125,-0.125 -2.604166,-0.312499 -1.104167,-0.0625 -3.583334,-0.125 -0.125,1.229166 -0.4375,5.937499 -0.229166,4.5625 -0.749999,13.395833 H 47.301432 q -0.166667,-4.208333 -0.625,-13.229166 -0.208333,-3.125 -0.4375,-6.104166 l -3.291667,0.125 -2.979166,0.312499 -0.520833,-13.104165 z"
       style="font-style:normal;font-variant:normal;font-weight:normal;font-stretch:normal;font-size:42.66666412px;font-family:'Showcard Gothic';-inkscape-font-specification:'Showcard Gothic'"
       id="path3714" />
    <path
       d="m 94.801428,17.031901 -0.479167,13.479165 q -0.208333,5.770833 -0.208333,17.458333 -5.333333,1.916666 -10.874999,1.916666 -6.833333,0 -10.395833,-2.729166 -3.020833,-2.3125 -4.270833,-7.208333 -0.729167,-2.8125 -1.375,-10.291666 -0.625,-6.916666 -0.770833,-12.624999 h 13.437499 q -0.104167,2.749999 -0.25,8.958332 -0.0625,3.458334 0.04167,9.8125 0.02083,4.833333 0.833333,6.520833 0.854166,1.791666 3.416666,1.791666 0.729167,0 1.625,-0.416666 0,-4.291667 -0.25,-13.645833 -0.208333,-4.6875 -0.770833,-13.020832 z"
       style="font-style:normal;font-variant:normal;font-weight:normal;font-stretch:normal;font-size:42.66666412px;font-family:'Showcard Gothic';-inkscape-font-specification:'Showcard Gothic'"
       id="path3716" />
    <path
       d="m 124.48893,29.011067 q 0,3.833333 -2.14584,6.791666 -1.89583,2.583333 -4.75,3.708333 0.60417,0.9375 2.97917,3.9375 1.1875,1.375 3.625,3.624999 -0.97917,0.354167 -4.3125,1.791667 -2.33333,1.0625 -4.39583,2.083333 -0.60417,-0.75 -2.6875,-3.875 -0.95834,-1.583333 -2.8125,-5.333333 h -0.0417 l -0.20833,7.291667 H 98.00976 Q 97.780594,44.490232 97.363927,34.052733 97.176427,27.9069 96.50976,17.031901 q 5.72917,-0.604167 10.45833,-0.604167 17.52084,0 17.52084,12.583333 z m -9.45834,4.499999 q 0,-1.979166 -1.66666,-2.833333 -1.22917,-0.625 -3.08334,-0.541667 l -0.125,7.125 q 1.72917,0 3.08334,-0.770833 1.79166,-1 1.79166,-2.979167 z"
       style="font-style:normal;font-variant:normal;font-weight:normal;font-stretch:normal;font-size:42.66666412px;font-family:'Showcard Gothic';-inkscape-font-specification:'Showcard Gothic'"
       id="path3718" />
    <path
       d="m 151.11392,17.031901 -0.60416,13.104165 q -0.8125,-0.125 -2.60417,-0.312499 -1.10417,-0.0625 -3.58333,-0.125 -0.125,1.229166 -0.4375,5.937499 -0.22917,4.5625 -0.75,13.395833 h -10.08334 q -0.16666,-4.208333 -0.625,-13.229166 -0.20833,-3.125 -0.4375,-6.104166 l -3.29166,0.125 -2.97917,0.312499 -0.52083,-13.104165 z"
       style="font-style:normal;font-variant:normal;font-weight:normal;font-stretch:normal;font-size:42.66666412px;font-family:'Showcard Gothic';-inkscape-font-specification:'Showcard Gothic'"
       id="path3720" />
    <path
       d="m 173.96809,42.719399 q -0.20834,0.833333 -0.77084,3.145833 -0.29166,1.354167 -0.5,3.166667 h -18.85416 q -0.10417,-4.895833 -0.52083,-16.124999 -0.27084,-5.75 -0.97917,-15.874999 h 14.45833 l -1.1875,26.541665 q 2.02083,0 6.0625,-0.4375 0.83333,-0.08333 2.29167,-0.416667 z"
       style="font-style:normal;font-variant:normal;font-weight:normal;font-stretch:normal;font-size:42.66666412px;font-family:'Showcard Gothic';-inkscape-font-specification:'Showcard Gothic'"
       id="path3722" />
    <path
       d="M 196.82225,17.031901 195.92642,30.2194 q -0.77084,-0.125 -3.33334,-0.4375 -1.75,-0.166667 -3.83333,-0.208333 l -0.3125,3.979166 q 2.29167,0.0625 7.47917,-0.104167 -0.22917,0.770834 -0.72917,2.875 -0.29167,1.270833 -0.52083,2.9375 -0.60417,-0.145833 -3.02084,-0.375 -1.125,-0.0625 -3.33333,-0.04167 l -0.20833,4.645833 q 1.5625,-0.02083 5.75,-0.270833 0.79166,-0.0625 2.60416,-0.5 -0.16666,0.645833 -0.77083,3.104167 -0.29167,1.270833 -0.70833,3.208333 h -18.64584 l -0.60416,-16.333333 q -0.16667,-5.604166 -0.8125,-15.666665 z"
       style="font-style:normal;font-variant:normal;font-weight:normal;font-stretch:normal;font-size:42.66666412px;font-family:'Showcard Gothic';-inkscape-font-specification:'Showcard Gothic'"
       id="path3724" />
  </g>
  <flowRoot
     xml:space="preserve"
     id="flowRoot3706"
     style="fill:black;fill-opacity:1;stroke:none;font-family:'Snap ITC';font-style:normal;font-weight:normal;font-size:40px;line-height:1.25;letter-spacing:0px;word-spacing:0px;-inkscape-font-specification:'Snap ITC';font-stretch:normal;font-variant:normal;"><flowRegion
       id="flowRegion3708"
       style="-inkscape-font-specification:'Snap ITC';font-family:'Snap ITC';font-weight:normal;font-style:normal;font-stretch:normal;font-variant:normal;"><rect
         id="rect3710"
         width="150.15961"
         height="55.160671"
         x="49.414768"
         y="27.682487"
         style="-inkscape-font-specification:'Snap ITC';font-family:'Snap ITC';font-weight:normal;font-style:normal;font-stretch:normal;font-variant:normal;" /></flowRegion><flowPara
       id="flowPara3712"></flowPara></flowRoot></svg>
