G04 #@! TF.FileFunction,Copper,L1,Top,Signal*
%FSLAX46Y46*%
G04 Gerber Fmt 4.6, Leading zero omitted, Abs format (unit mm)*
G04 Created by KiCad (PCBNEW 4.0.6) date 02/13/20 12:12:51*
%MOMM*%
%LPD*%
G01*
G04 APERTURE LIST*
%ADD10C,0.100000*%
%ADD11R,2.000000X2.000000*%
%ADD12C,2.000000*%
%ADD13R,2.032000X1.727200*%
%ADD14O,2.032000X1.727200*%
%ADD15O,2.200000X1.700000*%
%ADD16C,1.676400*%
%ADD17R,1.800000X1.800000*%
%ADD18C,1.800000*%
%ADD19O,2.000000X1.600000*%
%ADD20C,1.600000*%
%ADD21R,1.600000X1.600000*%
%ADD22C,2.400000*%
%ADD23R,2.400000X2.400000*%
%ADD24R,0.600000X0.400000*%
%ADD25C,1.998980*%
%ADD26C,0.685800*%
%ADD27C,0.406400*%
%ADD28C,0.609600*%
%ADD29C,0.254000*%
G04 APERTURE END LIST*
D10*
D11*
X124460000Y-111760000D03*
D12*
X124460000Y-109260000D03*
X124460000Y-106760000D03*
X124460000Y-104260000D03*
X124460000Y-101760000D03*
D13*
X134620000Y-74930000D03*
D14*
X134620000Y-72390000D03*
X134620000Y-69850000D03*
D15*
X129540000Y-115570000D03*
X129540000Y-113030000D03*
X129540000Y-110490000D03*
X129540000Y-107950000D03*
X129540000Y-105410000D03*
X129540000Y-102870000D03*
X129540000Y-100330000D03*
X129540000Y-97790000D03*
X129540000Y-95250000D03*
X129540000Y-92710000D03*
X129540000Y-90170000D03*
X129540000Y-87630000D03*
X129540000Y-85090000D03*
X129540000Y-82550000D03*
D12*
X139359000Y-67945000D03*
X144359000Y-67945000D03*
X147955000Y-111125000D03*
D11*
X147955000Y-108585000D03*
D16*
X147955000Y-64135000D03*
X147955000Y-61595000D03*
D17*
X133350000Y-106680000D03*
D18*
X135850000Y-106680000D03*
D11*
X132715000Y-111125000D03*
D12*
X132715000Y-113625000D03*
D19*
X142240000Y-100330000D03*
X142240000Y-97790000D03*
X142240000Y-95250000D03*
X142240000Y-92710000D03*
X142240000Y-90170000D03*
X142240000Y-87630000D03*
X142240000Y-85090000D03*
X142240000Y-82550000D03*
X142240000Y-80010000D03*
X134620000Y-80010000D03*
X134620000Y-82550000D03*
X134620000Y-85090000D03*
X134620000Y-87630000D03*
X134620000Y-90170000D03*
X134620000Y-92710000D03*
X134620000Y-95250000D03*
X134620000Y-97790000D03*
X134620000Y-100330000D03*
D20*
X142240000Y-74890000D03*
D21*
X142240000Y-72390000D03*
D11*
X132080000Y-62230000D03*
D12*
X134620000Y-62230000D03*
X137160000Y-62230000D03*
D22*
X128016000Y-71572000D03*
D23*
X128016000Y-68072000D03*
D22*
X128016000Y-78938000D03*
D23*
X128016000Y-75438000D03*
D12*
X147610000Y-85650000D03*
X152110000Y-85650000D03*
X147610000Y-92150000D03*
X152110000Y-92150000D03*
D24*
X132334000Y-93530000D03*
X132334000Y-94430000D03*
D16*
X147955000Y-116205000D03*
X147955000Y-113665000D03*
D12*
X147955000Y-106045000D03*
D11*
X147955000Y-103505000D03*
D12*
X147955000Y-69215000D03*
D11*
X147955000Y-66675000D03*
D12*
X147955000Y-74295000D03*
D11*
X147955000Y-71755000D03*
D25*
X139065000Y-111125000D03*
X139065000Y-104775000D03*
X141605000Y-111125000D03*
X141605000Y-104775000D03*
X151130000Y-83185000D03*
X151130000Y-76835000D03*
X148590000Y-83185000D03*
X148590000Y-76835000D03*
X151130000Y-94615000D03*
X151130000Y-100965000D03*
X148590000Y-94615000D03*
X148590000Y-100965000D03*
D15*
X144780000Y-115570000D03*
X144780000Y-113030000D03*
X144780000Y-110490000D03*
X144780000Y-107950000D03*
X144780000Y-105410000D03*
X144780000Y-102870000D03*
X144780000Y-100330000D03*
X144780000Y-97790000D03*
X144780000Y-95250000D03*
X144780000Y-92710000D03*
X144780000Y-90170000D03*
X144780000Y-87630000D03*
X144780000Y-85090000D03*
X144780000Y-82550000D03*
D11*
X124460000Y-93980000D03*
D12*
X124460000Y-91480000D03*
X124460000Y-88980000D03*
X124460000Y-86480000D03*
X124460000Y-83980000D03*
D26*
X123952000Y-81788000D03*
D27*
X144589500Y-65976500D02*
X144526000Y-66040000D01*
D28*
X147955000Y-74295000D02*
X147066000Y-74295000D01*
X147066000Y-74295000D02*
X146471000Y-74890000D01*
X146471000Y-74890000D02*
X142240000Y-74890000D01*
X147955000Y-113665000D02*
X149352000Y-113665000D01*
X152781000Y-92821000D02*
X152110000Y-92150000D01*
X152781000Y-110236000D02*
X152781000Y-92821000D01*
X149352000Y-113665000D02*
X152781000Y-110236000D01*
X152110000Y-85650000D02*
X152110000Y-92150000D01*
X147955000Y-74295000D02*
X151511000Y-74295000D01*
X152908000Y-84852000D02*
X152110000Y-85650000D01*
X152908000Y-75692000D02*
X152908000Y-84852000D01*
X151511000Y-74295000D02*
X152908000Y-75692000D01*
X147955000Y-69215000D02*
X149225000Y-69215000D01*
X149352000Y-74295000D02*
X147955000Y-74295000D01*
X150495000Y-73152000D02*
X149352000Y-74295000D01*
X150495000Y-70485000D02*
X150495000Y-73152000D01*
X149225000Y-69215000D02*
X150495000Y-70485000D01*
X142240000Y-80010000D02*
X142240000Y-74890000D01*
X147955000Y-69215000D02*
X149733000Y-69215000D01*
X148971000Y-61595000D02*
X147955000Y-61595000D01*
X150495000Y-63119000D02*
X148971000Y-61595000D01*
X150495000Y-68453000D02*
X150495000Y-63119000D01*
X149733000Y-69215000D02*
X150495000Y-68453000D01*
X132715000Y-113625000D02*
X132715000Y-115570000D01*
X146431000Y-115189000D02*
X147955000Y-113665000D01*
X146431000Y-116840000D02*
X146431000Y-115189000D01*
X145923000Y-117348000D02*
X146431000Y-116840000D01*
X134493000Y-117348000D02*
X145923000Y-117348000D01*
X132715000Y-115570000D02*
X134493000Y-117348000D01*
X132715000Y-113625000D02*
X131659000Y-113625000D01*
X131659000Y-113625000D02*
X131064000Y-113030000D01*
X131064000Y-113030000D02*
X129540000Y-113030000D01*
X135850000Y-106680000D02*
X135850000Y-104180000D01*
X135890000Y-69850000D02*
X134620000Y-69850000D01*
X137160000Y-71120000D02*
X135890000Y-69850000D01*
X137160000Y-102870000D02*
X137160000Y-71120000D01*
X135850000Y-104180000D02*
X137160000Y-102870000D01*
D27*
X152035000Y-85725000D02*
X152110000Y-85650000D01*
X147955000Y-61595000D02*
X147701000Y-61595000D01*
X147320000Y-61595000D02*
X147955000Y-61595000D01*
X142240000Y-109220000D02*
X140716000Y-109220000D01*
X146367500Y-101917500D02*
X146685000Y-101600000D01*
X146685000Y-101600000D02*
X146685000Y-100076000D01*
X146685000Y-100076000D02*
X148590000Y-98171000D01*
X148590000Y-94615000D02*
X148590000Y-98171000D01*
X145796000Y-108966000D02*
X145542000Y-109220000D01*
X145796000Y-108966000D02*
X146367500Y-108267500D01*
X145542000Y-109220000D02*
X142240000Y-109220000D01*
X146367500Y-108267500D02*
X146367500Y-101917500D01*
X128270000Y-109220000D02*
X128016000Y-108966000D01*
X130810000Y-109220000D02*
X128270000Y-109220000D01*
X131318000Y-109728000D02*
X130810000Y-109220000D01*
X140208000Y-109728000D02*
X131318000Y-109728000D01*
X140716000Y-109220000D02*
X140208000Y-109728000D01*
X128016000Y-108966000D02*
X128016000Y-103505000D01*
X128651000Y-102870000D02*
X128016000Y-103505000D01*
X128651000Y-102870000D02*
X129540000Y-102870000D01*
X147610000Y-85650000D02*
X147610000Y-92150000D01*
D28*
X128016000Y-71572000D02*
X128016000Y-75438000D01*
X128016000Y-78938000D02*
X128707000Y-78938000D01*
X128707000Y-78938000D02*
X130810000Y-76835000D01*
X130810000Y-76835000D02*
X130810000Y-64770000D01*
X130810000Y-64770000D02*
X132080000Y-62230000D01*
D27*
X139446000Y-66334000D02*
X139359000Y-67945000D01*
X139446000Y-61722000D02*
X139446000Y-66334000D01*
X138303000Y-60579000D02*
X139446000Y-61722000D01*
X130683000Y-60579000D02*
X138303000Y-60579000D01*
X129413000Y-61849000D02*
X130683000Y-60579000D01*
X129413000Y-64135000D02*
X129413000Y-61849000D01*
X128016000Y-65532000D02*
X129413000Y-64135000D01*
X127000000Y-65532000D02*
X128016000Y-65532000D01*
X124587000Y-67945000D02*
X127000000Y-65532000D01*
X124587000Y-81153000D02*
X124587000Y-67945000D01*
X123952000Y-81788000D02*
X124587000Y-81153000D01*
X143129000Y-105029000D02*
X143129000Y-105791000D01*
X139065000Y-109093000D02*
X131699000Y-109093000D01*
X131699000Y-109093000D02*
X131064000Y-108458000D01*
X131064000Y-108458000D02*
X131064000Y-108077000D01*
X143129000Y-104140000D02*
X143129000Y-105029000D01*
X134620000Y-74930000D02*
X136017000Y-76327000D01*
X136017000Y-83439000D02*
X136017000Y-76327000D01*
X135636000Y-83820000D02*
X136017000Y-83439000D01*
X128524000Y-83820000D02*
X135636000Y-83820000D01*
X127635000Y-84709000D02*
X128524000Y-83820000D01*
X127635000Y-90424000D02*
X127635000Y-84709000D01*
X128651000Y-91440000D02*
X127635000Y-90424000D01*
X130556000Y-91440000D02*
X128651000Y-91440000D01*
X131064000Y-91948000D02*
X130556000Y-91440000D01*
X131064000Y-108077000D02*
X131064000Y-91948000D01*
X143129000Y-104140000D02*
X144399000Y-102870000D01*
X139319000Y-108839000D02*
X139065000Y-109093000D01*
X141097000Y-107061000D02*
X139319000Y-108839000D01*
X141859000Y-107061000D02*
X141097000Y-107061000D01*
X143129000Y-105791000D02*
X141859000Y-107061000D01*
X144780000Y-102870000D02*
X144399000Y-102870000D01*
X147955000Y-108585000D02*
X149225000Y-108585000D01*
X151130000Y-106680000D02*
X151130000Y-100965000D01*
X149225000Y-108585000D02*
X151130000Y-106680000D01*
X147955000Y-103505000D02*
X147955000Y-101600000D01*
X147955000Y-101600000D02*
X148590000Y-100965000D01*
X137922000Y-107950000D02*
X137414000Y-108458000D01*
X131826000Y-107823000D02*
X131826000Y-103505000D01*
X131826000Y-103505000D02*
X132334000Y-102997000D01*
X132334000Y-102870000D02*
X132334000Y-102997000D01*
X141351000Y-104775000D02*
X137922000Y-107950000D01*
X132334000Y-102870000D02*
X132334000Y-94430000D01*
X132461000Y-108458000D02*
X131826000Y-107823000D01*
X137414000Y-108458000D02*
X132461000Y-108458000D01*
X141605000Y-104775000D02*
X141605000Y-103505000D01*
X141605000Y-103505000D02*
X144780000Y-100330000D01*
X141605000Y-104775000D02*
X141605000Y-104394000D01*
X141605000Y-104775000D02*
X141351000Y-104775000D01*
X144145000Y-70104000D02*
X145034000Y-70104000D01*
X140716000Y-70104000D02*
X139065000Y-71755000D01*
X144018000Y-70104000D02*
X140716000Y-70104000D01*
X139065000Y-104775000D02*
X139065000Y-71755000D01*
X144018000Y-70104000D02*
X144145000Y-70104000D01*
X146050000Y-65532000D02*
X147447000Y-64135000D01*
X146050000Y-69088000D02*
X146050000Y-65532000D01*
X145034000Y-70104000D02*
X146050000Y-69088000D01*
X147447000Y-64135000D02*
X147955000Y-64135000D01*
X139065000Y-104775000D02*
X139065000Y-100584000D01*
X143510000Y-99060000D02*
X144780000Y-97790000D01*
X140589000Y-99060000D02*
X143510000Y-99060000D01*
X139065000Y-100584000D02*
X140589000Y-99060000D01*
X139065000Y-104775000D02*
X139065000Y-104140000D01*
D28*
X124460000Y-101760000D02*
X124554000Y-101760000D01*
X124554000Y-101760000D02*
X127762000Y-98552000D01*
X124460000Y-83980000D02*
X126365000Y-85885000D01*
X126365000Y-92583000D02*
X126365000Y-85885000D01*
X127762000Y-93980000D02*
X126365000Y-92583000D01*
X127762000Y-98552000D02*
X127762000Y-93980000D01*
X129540000Y-115570000D02*
X128524000Y-115570000D01*
X128524000Y-115570000D02*
X127762000Y-114808000D01*
X125255000Y-101760000D02*
X127000000Y-103505000D01*
X127000000Y-110236000D02*
X127000000Y-103505000D01*
X127762000Y-110998000D02*
X127000000Y-110236000D01*
X127762000Y-114808000D02*
X127762000Y-110998000D01*
X124460000Y-101760000D02*
X125255000Y-101760000D01*
X124460000Y-101760000D02*
X124620000Y-101760000D01*
X124460000Y-83980000D02*
X124460000Y-83820000D01*
X124460000Y-83820000D02*
X126365000Y-81915000D01*
X133985000Y-80645000D02*
X134620000Y-80010000D01*
X128905000Y-80645000D02*
X133985000Y-80645000D01*
X127635000Y-81915000D02*
X128905000Y-80645000D01*
X126365000Y-81915000D02*
X127635000Y-81915000D01*
X134620000Y-72390000D02*
X133350000Y-72390000D01*
X133350000Y-72390000D02*
X132080000Y-73660000D01*
X134620000Y-62230000D02*
X134620000Y-62865000D01*
X134620000Y-62865000D02*
X132080000Y-66675000D01*
X132080000Y-66675000D02*
X132080000Y-73660000D01*
X132080000Y-73660000D02*
X132080000Y-77470000D01*
X132080000Y-77470000D02*
X134620000Y-80010000D01*
D27*
X141605000Y-111125000D02*
X141605000Y-112268000D01*
X142367000Y-113030000D02*
X144780000Y-113030000D01*
X141605000Y-112268000D02*
X142367000Y-113030000D01*
X141605000Y-111125000D02*
X139065000Y-111125000D01*
X132334000Y-93530000D02*
X132334000Y-91948000D01*
X130556000Y-90170000D02*
X129540000Y-90170000D01*
X132334000Y-91948000D02*
X130556000Y-90170000D01*
D29*
G36*
X136938142Y-111546129D02*
X136938835Y-111547806D01*
X136614995Y-111547523D01*
X135603154Y-111965607D01*
X134828328Y-112739082D01*
X134408479Y-113750192D01*
X134407523Y-114845005D01*
X134825607Y-115856846D01*
X135599082Y-116631672D01*
X136139325Y-116856000D01*
X131306383Y-116856000D01*
X131660140Y-116326565D01*
X131810630Y-115570000D01*
X131667777Y-114851831D01*
X131742074Y-114777534D01*
X131840736Y-115044387D01*
X132450461Y-115270908D01*
X133100460Y-115246856D01*
X133589264Y-115044387D01*
X133687927Y-114777532D01*
X132715000Y-113804605D01*
X132700858Y-113818748D01*
X132521253Y-113639143D01*
X132535395Y-113625000D01*
X132521253Y-113610858D01*
X132700858Y-113431253D01*
X132715000Y-113445395D01*
X132729143Y-113431253D01*
X132908748Y-113610858D01*
X132894605Y-113625000D01*
X133867532Y-114597927D01*
X134134387Y-114499264D01*
X134360908Y-113889539D01*
X134336856Y-113239540D01*
X134279475Y-113101009D01*
X134516219Y-112948669D01*
X134773548Y-112572056D01*
X134864079Y-112125000D01*
X134864079Y-111058200D01*
X136938568Y-111058200D01*
X136938142Y-111546129D01*
X136938142Y-111546129D01*
G37*
X136938142Y-111546129D02*
X136938835Y-111547806D01*
X136614995Y-111547523D01*
X135603154Y-111965607D01*
X134828328Y-112739082D01*
X134408479Y-113750192D01*
X134407523Y-114845005D01*
X134825607Y-115856846D01*
X135599082Y-116631672D01*
X136139325Y-116856000D01*
X131306383Y-116856000D01*
X131660140Y-116326565D01*
X131810630Y-115570000D01*
X131667777Y-114851831D01*
X131742074Y-114777534D01*
X131840736Y-115044387D01*
X132450461Y-115270908D01*
X133100460Y-115246856D01*
X133589264Y-115044387D01*
X133687927Y-114777532D01*
X132715000Y-113804605D01*
X132700858Y-113818748D01*
X132521253Y-113639143D01*
X132535395Y-113625000D01*
X132521253Y-113610858D01*
X132700858Y-113431253D01*
X132715000Y-113445395D01*
X132729143Y-113431253D01*
X132908748Y-113610858D01*
X132894605Y-113625000D01*
X133867532Y-114597927D01*
X134134387Y-114499264D01*
X134360908Y-113889539D01*
X134336856Y-113239540D01*
X134279475Y-113101009D01*
X134516219Y-112948669D01*
X134773548Y-112572056D01*
X134864079Y-112125000D01*
X134864079Y-111058200D01*
X136938568Y-111058200D01*
X136938142Y-111546129D01*
G36*
X152416000Y-114176491D02*
X152198739Y-115268738D01*
X151649993Y-116089993D01*
X150828738Y-116638738D01*
X149819418Y-116839505D01*
X149919859Y-116597617D01*
X149920541Y-115815812D01*
X149621987Y-115093258D01*
X149112152Y-114582533D01*
X149240491Y-114441983D01*
X149413389Y-114024569D01*
X149292295Y-113792000D01*
X148261608Y-113792000D01*
X148148749Y-113679141D01*
X147969141Y-113858749D01*
X148082000Y-113971608D01*
X148082000Y-114239909D01*
X147828000Y-114239688D01*
X147828000Y-113971608D01*
X147940859Y-113858749D01*
X147761251Y-113679141D01*
X147648392Y-113792000D01*
X146896508Y-113792000D01*
X146900140Y-113786565D01*
X146949583Y-113538000D01*
X147648392Y-113538000D01*
X147761251Y-113650859D01*
X147940859Y-113471251D01*
X147828000Y-113358392D01*
X147828000Y-112765819D01*
X148082000Y-112756420D01*
X148082000Y-113538000D01*
X149292295Y-113538000D01*
X149413389Y-113305431D01*
X149164775Y-112774700D01*
X148850285Y-112487532D01*
X148927927Y-112277532D01*
X147955000Y-111304605D01*
X147940858Y-111318748D01*
X147761253Y-111139143D01*
X147775395Y-111125000D01*
X147761253Y-111110858D01*
X147940858Y-110931253D01*
X147955000Y-110945395D01*
X147969143Y-110931253D01*
X148148748Y-111110858D01*
X148134605Y-111125000D01*
X149107532Y-112097927D01*
X149374387Y-111999264D01*
X149600908Y-111389539D01*
X149576856Y-110739540D01*
X149506393Y-110569427D01*
X149756219Y-110408669D01*
X150013548Y-110032056D01*
X150104079Y-109585000D01*
X150104079Y-109566696D01*
X150165593Y-109525593D01*
X152070594Y-107620593D01*
X152315009Y-107254800D01*
X152358945Y-107189046D01*
X152416000Y-106902210D01*
X152416000Y-114176491D01*
X152416000Y-114176491D01*
G37*
X152416000Y-114176491D02*
X152198739Y-115268738D01*
X151649993Y-116089993D01*
X150828738Y-116638738D01*
X149819418Y-116839505D01*
X149919859Y-116597617D01*
X149920541Y-115815812D01*
X149621987Y-115093258D01*
X149112152Y-114582533D01*
X149240491Y-114441983D01*
X149413389Y-114024569D01*
X149292295Y-113792000D01*
X148261608Y-113792000D01*
X148148749Y-113679141D01*
X147969141Y-113858749D01*
X148082000Y-113971608D01*
X148082000Y-114239909D01*
X147828000Y-114239688D01*
X147828000Y-113971608D01*
X147940859Y-113858749D01*
X147761251Y-113679141D01*
X147648392Y-113792000D01*
X146896508Y-113792000D01*
X146900140Y-113786565D01*
X146949583Y-113538000D01*
X147648392Y-113538000D01*
X147761251Y-113650859D01*
X147940859Y-113471251D01*
X147828000Y-113358392D01*
X147828000Y-112765819D01*
X148082000Y-112756420D01*
X148082000Y-113538000D01*
X149292295Y-113538000D01*
X149413389Y-113305431D01*
X149164775Y-112774700D01*
X148850285Y-112487532D01*
X148927927Y-112277532D01*
X147955000Y-111304605D01*
X147940858Y-111318748D01*
X147761253Y-111139143D01*
X147775395Y-111125000D01*
X147761253Y-111110858D01*
X147940858Y-110931253D01*
X147955000Y-110945395D01*
X147969143Y-110931253D01*
X148148748Y-111110858D01*
X148134605Y-111125000D01*
X149107532Y-112097927D01*
X149374387Y-111999264D01*
X149600908Y-111389539D01*
X149576856Y-110739540D01*
X149506393Y-110569427D01*
X149756219Y-110408669D01*
X150013548Y-110032056D01*
X150104079Y-109585000D01*
X150104079Y-109566696D01*
X150165593Y-109525593D01*
X152070594Y-107620593D01*
X152315009Y-107254800D01*
X152358945Y-107189046D01*
X152416000Y-106902210D01*
X152416000Y-114176491D01*
G36*
X129667000Y-112903000D02*
X129687000Y-112903000D01*
X129687000Y-113157000D01*
X129667000Y-113157000D01*
X129667000Y-113177000D01*
X129413000Y-113177000D01*
X129413000Y-113157000D01*
X129393000Y-113157000D01*
X129393000Y-112903000D01*
X129413000Y-112903000D01*
X129413000Y-112883000D01*
X129667000Y-112883000D01*
X129667000Y-112903000D01*
X129667000Y-112903000D01*
G37*
X129667000Y-112903000D02*
X129687000Y-112903000D01*
X129687000Y-113157000D01*
X129667000Y-113157000D01*
X129667000Y-113177000D01*
X129413000Y-113177000D01*
X129413000Y-113157000D01*
X129393000Y-113157000D01*
X129393000Y-112903000D01*
X129413000Y-112903000D01*
X129413000Y-112883000D01*
X129667000Y-112883000D01*
X129667000Y-112903000D01*
G36*
X135953578Y-64032131D02*
X136735057Y-64356630D01*
X137581230Y-64357368D01*
X138115800Y-64136488D01*
X138115800Y-66180622D01*
X137556869Y-66738578D01*
X137232370Y-67520057D01*
X137231632Y-68366230D01*
X137554766Y-69148274D01*
X138152578Y-69747131D01*
X138886805Y-70052009D01*
X138124407Y-70814407D01*
X137836055Y-71245954D01*
X137734800Y-71755000D01*
X137734800Y-103098191D01*
X137263301Y-103568868D01*
X136938880Y-104350159D01*
X136938142Y-105196129D01*
X137261199Y-105977986D01*
X137661170Y-106378656D01*
X137384458Y-106634872D01*
X137370839Y-106310540D01*
X137186643Y-105865852D01*
X136930159Y-105779446D01*
X136029605Y-106680000D01*
X136043748Y-106694143D01*
X135864143Y-106873748D01*
X135850000Y-106859605D01*
X135835858Y-106873748D01*
X135656253Y-106694143D01*
X135670395Y-106680000D01*
X135656253Y-106665858D01*
X135835858Y-106486253D01*
X135850000Y-106500395D01*
X136750554Y-105599841D01*
X136664148Y-105343357D01*
X136090664Y-105133542D01*
X135480540Y-105159161D01*
X135250938Y-105254265D01*
X135073669Y-104978781D01*
X134697056Y-104721452D01*
X134250000Y-104630921D01*
X133156200Y-104630921D01*
X133156200Y-104055987D01*
X133274593Y-103937594D01*
X133562945Y-103506046D01*
X133574932Y-103445783D01*
X133664200Y-102997000D01*
X133664200Y-102114951D01*
X134378330Y-102257000D01*
X134861670Y-102257000D01*
X135599101Y-102110316D01*
X136224265Y-101692595D01*
X136641986Y-101067431D01*
X136788670Y-100330000D01*
X136641986Y-99592569D01*
X136286135Y-99060000D01*
X136641986Y-98527431D01*
X136788670Y-97790000D01*
X136641986Y-97052569D01*
X136286135Y-96520000D01*
X136641986Y-95987431D01*
X136788670Y-95250000D01*
X136641986Y-94512569D01*
X136286135Y-93980000D01*
X136641986Y-93447431D01*
X136788670Y-92710000D01*
X136641986Y-91972569D01*
X136286135Y-91440000D01*
X136641986Y-90907431D01*
X136788670Y-90170000D01*
X136641986Y-89432569D01*
X136286135Y-88900000D01*
X136641986Y-88367431D01*
X136788670Y-87630000D01*
X136641986Y-86892569D01*
X136286135Y-86360000D01*
X136641986Y-85827431D01*
X136788670Y-85090000D01*
X136698832Y-84638354D01*
X136957593Y-84379594D01*
X137245945Y-83948046D01*
X137265871Y-83847869D01*
X137347200Y-83439000D01*
X137347200Y-76327000D01*
X137245945Y-75817954D01*
X137229672Y-75793600D01*
X136957593Y-75386406D01*
X136785079Y-75213892D01*
X136785079Y-74066400D01*
X136706494Y-73648759D01*
X136517564Y-73355152D01*
X136653459Y-73151770D01*
X136804984Y-72390000D01*
X136653459Y-71628230D01*
X136221951Y-70982433D01*
X135930686Y-70787816D01*
X135970732Y-70752036D01*
X136224709Y-70224791D01*
X136227358Y-70209026D01*
X136106217Y-69977000D01*
X134747000Y-69977000D01*
X134747000Y-69997000D01*
X134493000Y-69997000D01*
X134493000Y-69977000D01*
X134473000Y-69977000D01*
X134473000Y-69723000D01*
X134493000Y-69723000D01*
X134493000Y-68509076D01*
X134747000Y-68509076D01*
X134747000Y-69723000D01*
X136106217Y-69723000D01*
X136227358Y-69490974D01*
X136224709Y-69475209D01*
X135970732Y-68947964D01*
X135534320Y-68558046D01*
X134981913Y-68364816D01*
X134747000Y-68509076D01*
X134493000Y-68509076D01*
X134258087Y-68364816D01*
X133705680Y-68558046D01*
X133511800Y-68731271D01*
X133511800Y-67108515D01*
X135461729Y-64183621D01*
X135823274Y-64034234D01*
X135889591Y-63968032D01*
X135953578Y-64032131D01*
X135953578Y-64032131D01*
G37*
X135953578Y-64032131D02*
X136735057Y-64356630D01*
X137581230Y-64357368D01*
X138115800Y-64136488D01*
X138115800Y-66180622D01*
X137556869Y-66738578D01*
X137232370Y-67520057D01*
X137231632Y-68366230D01*
X137554766Y-69148274D01*
X138152578Y-69747131D01*
X138886805Y-70052009D01*
X138124407Y-70814407D01*
X137836055Y-71245954D01*
X137734800Y-71755000D01*
X137734800Y-103098191D01*
X137263301Y-103568868D01*
X136938880Y-104350159D01*
X136938142Y-105196129D01*
X137261199Y-105977986D01*
X137661170Y-106378656D01*
X137384458Y-106634872D01*
X137370839Y-106310540D01*
X137186643Y-105865852D01*
X136930159Y-105779446D01*
X136029605Y-106680000D01*
X136043748Y-106694143D01*
X135864143Y-106873748D01*
X135850000Y-106859605D01*
X135835858Y-106873748D01*
X135656253Y-106694143D01*
X135670395Y-106680000D01*
X135656253Y-106665858D01*
X135835858Y-106486253D01*
X135850000Y-106500395D01*
X136750554Y-105599841D01*
X136664148Y-105343357D01*
X136090664Y-105133542D01*
X135480540Y-105159161D01*
X135250938Y-105254265D01*
X135073669Y-104978781D01*
X134697056Y-104721452D01*
X134250000Y-104630921D01*
X133156200Y-104630921D01*
X133156200Y-104055987D01*
X133274593Y-103937594D01*
X133562945Y-103506046D01*
X133574932Y-103445783D01*
X133664200Y-102997000D01*
X133664200Y-102114951D01*
X134378330Y-102257000D01*
X134861670Y-102257000D01*
X135599101Y-102110316D01*
X136224265Y-101692595D01*
X136641986Y-101067431D01*
X136788670Y-100330000D01*
X136641986Y-99592569D01*
X136286135Y-99060000D01*
X136641986Y-98527431D01*
X136788670Y-97790000D01*
X136641986Y-97052569D01*
X136286135Y-96520000D01*
X136641986Y-95987431D01*
X136788670Y-95250000D01*
X136641986Y-94512569D01*
X136286135Y-93980000D01*
X136641986Y-93447431D01*
X136788670Y-92710000D01*
X136641986Y-91972569D01*
X136286135Y-91440000D01*
X136641986Y-90907431D01*
X136788670Y-90170000D01*
X136641986Y-89432569D01*
X136286135Y-88900000D01*
X136641986Y-88367431D01*
X136788670Y-87630000D01*
X136641986Y-86892569D01*
X136286135Y-86360000D01*
X136641986Y-85827431D01*
X136788670Y-85090000D01*
X136698832Y-84638354D01*
X136957593Y-84379594D01*
X137245945Y-83948046D01*
X137265871Y-83847869D01*
X137347200Y-83439000D01*
X137347200Y-76327000D01*
X137245945Y-75817954D01*
X137229672Y-75793600D01*
X136957593Y-75386406D01*
X136785079Y-75213892D01*
X136785079Y-74066400D01*
X136706494Y-73648759D01*
X136517564Y-73355152D01*
X136653459Y-73151770D01*
X136804984Y-72390000D01*
X136653459Y-71628230D01*
X136221951Y-70982433D01*
X135930686Y-70787816D01*
X135970732Y-70752036D01*
X136224709Y-70224791D01*
X136227358Y-70209026D01*
X136106217Y-69977000D01*
X134747000Y-69977000D01*
X134747000Y-69997000D01*
X134493000Y-69997000D01*
X134493000Y-69977000D01*
X134473000Y-69977000D01*
X134473000Y-69723000D01*
X134493000Y-69723000D01*
X134493000Y-68509076D01*
X134747000Y-68509076D01*
X134747000Y-69723000D01*
X136106217Y-69723000D01*
X136227358Y-69490974D01*
X136224709Y-69475209D01*
X135970732Y-68947964D01*
X135534320Y-68558046D01*
X134981913Y-68364816D01*
X134747000Y-68509076D01*
X134493000Y-68509076D01*
X134258087Y-68364816D01*
X133705680Y-68558046D01*
X133511800Y-68731271D01*
X133511800Y-67108515D01*
X135461729Y-64183621D01*
X135823274Y-64034234D01*
X135889591Y-63968032D01*
X135953578Y-64032131D01*
G36*
X148148748Y-106030858D02*
X148134605Y-106045000D01*
X148148748Y-106059143D01*
X147969143Y-106238748D01*
X147955000Y-106224605D01*
X147940858Y-106238748D01*
X147761253Y-106059143D01*
X147775395Y-106045000D01*
X147761253Y-106030858D01*
X147940858Y-105851253D01*
X147955000Y-105865395D01*
X147969143Y-105851253D01*
X148148748Y-106030858D01*
X148148748Y-106030858D01*
G37*
X148148748Y-106030858D02*
X148134605Y-106045000D01*
X148148748Y-106059143D01*
X147969143Y-106238748D01*
X147955000Y-106224605D01*
X147940858Y-106238748D01*
X147761253Y-106059143D01*
X147775395Y-106045000D01*
X147761253Y-106030858D01*
X147940858Y-105851253D01*
X147955000Y-105865395D01*
X147969143Y-105851253D01*
X148148748Y-106030858D01*
G36*
X149923868Y-84986699D02*
X150520238Y-85234334D01*
X150464092Y-85385461D01*
X150488144Y-86035460D01*
X150690613Y-86524264D01*
X150957468Y-86622927D01*
X151930395Y-85650000D01*
X151916253Y-85635858D01*
X152095858Y-85456253D01*
X152110000Y-85470395D01*
X152124143Y-85456253D01*
X152303748Y-85635858D01*
X152289605Y-85650000D01*
X152303748Y-85664143D01*
X152124143Y-85843748D01*
X152110000Y-85829605D01*
X151137073Y-86802532D01*
X151235736Y-87069387D01*
X151845461Y-87295908D01*
X152416000Y-87274796D01*
X152416000Y-90519495D01*
X152374539Y-90504092D01*
X151724540Y-90528144D01*
X151235736Y-90730613D01*
X151137073Y-90997468D01*
X152110000Y-91970395D01*
X152124143Y-91956253D01*
X152303748Y-92135858D01*
X152289605Y-92150000D01*
X152303748Y-92164143D01*
X152124143Y-92343748D01*
X152110000Y-92329605D01*
X152095858Y-92343748D01*
X151916253Y-92164143D01*
X151930395Y-92150000D01*
X150957468Y-91177073D01*
X150690613Y-91275736D01*
X150464092Y-91885461D01*
X150488144Y-92535460D01*
X150503665Y-92572931D01*
X149927014Y-92811199D01*
X149860408Y-92877689D01*
X149796132Y-92813301D01*
X149660961Y-92757173D01*
X149736630Y-92574943D01*
X149737368Y-91728770D01*
X149414234Y-90946726D01*
X148940200Y-90471863D01*
X148940200Y-87327529D01*
X149412131Y-86856422D01*
X149736630Y-86074943D01*
X149737368Y-85228770D01*
X149660785Y-85043425D01*
X149792986Y-84988801D01*
X149859592Y-84922311D01*
X149923868Y-84986699D01*
X149923868Y-84986699D01*
G37*
X149923868Y-84986699D02*
X150520238Y-85234334D01*
X150464092Y-85385461D01*
X150488144Y-86035460D01*
X150690613Y-86524264D01*
X150957468Y-86622927D01*
X151930395Y-85650000D01*
X151916253Y-85635858D01*
X152095858Y-85456253D01*
X152110000Y-85470395D01*
X152124143Y-85456253D01*
X152303748Y-85635858D01*
X152289605Y-85650000D01*
X152303748Y-85664143D01*
X152124143Y-85843748D01*
X152110000Y-85829605D01*
X151137073Y-86802532D01*
X151235736Y-87069387D01*
X151845461Y-87295908D01*
X152416000Y-87274796D01*
X152416000Y-90519495D01*
X152374539Y-90504092D01*
X151724540Y-90528144D01*
X151235736Y-90730613D01*
X151137073Y-90997468D01*
X152110000Y-91970395D01*
X152124143Y-91956253D01*
X152303748Y-92135858D01*
X152289605Y-92150000D01*
X152303748Y-92164143D01*
X152124143Y-92343748D01*
X152110000Y-92329605D01*
X152095858Y-92343748D01*
X151916253Y-92164143D01*
X151930395Y-92150000D01*
X150957468Y-91177073D01*
X150690613Y-91275736D01*
X150464092Y-91885461D01*
X150488144Y-92535460D01*
X150503665Y-92572931D01*
X149927014Y-92811199D01*
X149860408Y-92877689D01*
X149796132Y-92813301D01*
X149660961Y-92757173D01*
X149736630Y-92574943D01*
X149737368Y-91728770D01*
X149414234Y-90946726D01*
X148940200Y-90471863D01*
X148940200Y-87327529D01*
X149412131Y-86856422D01*
X149736630Y-86074943D01*
X149737368Y-85228770D01*
X149660785Y-85043425D01*
X149792986Y-84988801D01*
X149859592Y-84922311D01*
X149923868Y-84986699D01*
G36*
X145805921Y-72755000D02*
X145884506Y-73172641D01*
X146131331Y-73556219D01*
X146413621Y-73749100D01*
X146309092Y-74030461D01*
X146333144Y-74680460D01*
X146535613Y-75169264D01*
X146802468Y-75267927D01*
X147775395Y-74295000D01*
X147761253Y-74280858D01*
X147940858Y-74101253D01*
X147955000Y-74115395D01*
X147969143Y-74101253D01*
X148148748Y-74280858D01*
X148134605Y-74295000D01*
X148148748Y-74309143D01*
X147969143Y-74488748D01*
X147955000Y-74474605D01*
X147406428Y-75023177D01*
X147387014Y-75031199D01*
X146788301Y-75628868D01*
X146463880Y-76410159D01*
X146463142Y-77256129D01*
X146786199Y-78037986D01*
X147383868Y-78636699D01*
X148165159Y-78961120D01*
X149011129Y-78961858D01*
X149792986Y-78638801D01*
X149859592Y-78572311D01*
X149923868Y-78636699D01*
X150705159Y-78961120D01*
X151551129Y-78961858D01*
X152332986Y-78638801D01*
X152416000Y-78555932D01*
X152416000Y-81463309D01*
X152336132Y-81383301D01*
X151554841Y-81058880D01*
X150708871Y-81058142D01*
X149927014Y-81381199D01*
X149860408Y-81447689D01*
X149796132Y-81383301D01*
X149014841Y-81058880D01*
X148168871Y-81058142D01*
X147387014Y-81381199D01*
X146912386Y-81854999D01*
X146900140Y-81793435D01*
X146471580Y-81152050D01*
X145830195Y-80723490D01*
X145073630Y-80573000D01*
X144486370Y-80573000D01*
X143729805Y-80723490D01*
X143623453Y-80794552D01*
X143821442Y-80416730D01*
X143831904Y-80359039D01*
X143709915Y-80137000D01*
X142367000Y-80137000D01*
X142367000Y-80157000D01*
X142113000Y-80157000D01*
X142113000Y-80137000D01*
X140770085Y-80137000D01*
X140648096Y-80359039D01*
X140658558Y-80416730D01*
X140919363Y-80914424D01*
X140974909Y-80960776D01*
X140635735Y-81187405D01*
X140395200Y-81547391D01*
X140395200Y-79660961D01*
X140648096Y-79660961D01*
X140770085Y-79883000D01*
X142113000Y-79883000D01*
X142113000Y-78730529D01*
X142367000Y-78730529D01*
X142367000Y-79883000D01*
X143709915Y-79883000D01*
X143831904Y-79660961D01*
X143821442Y-79603270D01*
X143560637Y-79105576D01*
X143129226Y-78745572D01*
X142592886Y-78578066D01*
X142367000Y-78730529D01*
X142113000Y-78730529D01*
X141887114Y-78578066D01*
X141350774Y-78745572D01*
X140919363Y-79105576D01*
X140658558Y-79603270D01*
X140648096Y-79660961D01*
X140395200Y-79660961D01*
X140395200Y-75897745D01*
X141411861Y-75897745D01*
X141485995Y-76143864D01*
X142023223Y-76336965D01*
X142593454Y-76309778D01*
X142994005Y-76143864D01*
X143068139Y-75897745D01*
X142240000Y-75069605D01*
X141411861Y-75897745D01*
X140395200Y-75897745D01*
X140395200Y-73647571D01*
X140616331Y-73991219D01*
X140954999Y-74222621D01*
X140793035Y-74673223D01*
X140820222Y-75243454D01*
X140986136Y-75644005D01*
X141232255Y-75718139D01*
X142060395Y-74890000D01*
X142046252Y-74875858D01*
X142225858Y-74696253D01*
X142240000Y-74710395D01*
X142254143Y-74696253D01*
X142433748Y-74875858D01*
X142419605Y-74890000D01*
X143247745Y-75718139D01*
X143493864Y-75644005D01*
X143686965Y-75106777D01*
X143659778Y-74536546D01*
X143526958Y-74215890D01*
X143841219Y-74013669D01*
X144098548Y-73637056D01*
X144189079Y-73190000D01*
X144189079Y-71590000D01*
X144159763Y-71434200D01*
X145034000Y-71434200D01*
X145543046Y-71332945D01*
X145805921Y-71157297D01*
X145805921Y-72755000D01*
X145805921Y-72755000D01*
G37*
X145805921Y-72755000D02*
X145884506Y-73172641D01*
X146131331Y-73556219D01*
X146413621Y-73749100D01*
X146309092Y-74030461D01*
X146333144Y-74680460D01*
X146535613Y-75169264D01*
X146802468Y-75267927D01*
X147775395Y-74295000D01*
X147761253Y-74280858D01*
X147940858Y-74101253D01*
X147955000Y-74115395D01*
X147969143Y-74101253D01*
X148148748Y-74280858D01*
X148134605Y-74295000D01*
X148148748Y-74309143D01*
X147969143Y-74488748D01*
X147955000Y-74474605D01*
X147406428Y-75023177D01*
X147387014Y-75031199D01*
X146788301Y-75628868D01*
X146463880Y-76410159D01*
X146463142Y-77256129D01*
X146786199Y-78037986D01*
X147383868Y-78636699D01*
X148165159Y-78961120D01*
X149011129Y-78961858D01*
X149792986Y-78638801D01*
X149859592Y-78572311D01*
X149923868Y-78636699D01*
X150705159Y-78961120D01*
X151551129Y-78961858D01*
X152332986Y-78638801D01*
X152416000Y-78555932D01*
X152416000Y-81463309D01*
X152336132Y-81383301D01*
X151554841Y-81058880D01*
X150708871Y-81058142D01*
X149927014Y-81381199D01*
X149860408Y-81447689D01*
X149796132Y-81383301D01*
X149014841Y-81058880D01*
X148168871Y-81058142D01*
X147387014Y-81381199D01*
X146912386Y-81854999D01*
X146900140Y-81793435D01*
X146471580Y-81152050D01*
X145830195Y-80723490D01*
X145073630Y-80573000D01*
X144486370Y-80573000D01*
X143729805Y-80723490D01*
X143623453Y-80794552D01*
X143821442Y-80416730D01*
X143831904Y-80359039D01*
X143709915Y-80137000D01*
X142367000Y-80137000D01*
X142367000Y-80157000D01*
X142113000Y-80157000D01*
X142113000Y-80137000D01*
X140770085Y-80137000D01*
X140648096Y-80359039D01*
X140658558Y-80416730D01*
X140919363Y-80914424D01*
X140974909Y-80960776D01*
X140635735Y-81187405D01*
X140395200Y-81547391D01*
X140395200Y-79660961D01*
X140648096Y-79660961D01*
X140770085Y-79883000D01*
X142113000Y-79883000D01*
X142113000Y-78730529D01*
X142367000Y-78730529D01*
X142367000Y-79883000D01*
X143709915Y-79883000D01*
X143831904Y-79660961D01*
X143821442Y-79603270D01*
X143560637Y-79105576D01*
X143129226Y-78745572D01*
X142592886Y-78578066D01*
X142367000Y-78730529D01*
X142113000Y-78730529D01*
X141887114Y-78578066D01*
X141350774Y-78745572D01*
X140919363Y-79105576D01*
X140658558Y-79603270D01*
X140648096Y-79660961D01*
X140395200Y-79660961D01*
X140395200Y-75897745D01*
X141411861Y-75897745D01*
X141485995Y-76143864D01*
X142023223Y-76336965D01*
X142593454Y-76309778D01*
X142994005Y-76143864D01*
X143068139Y-75897745D01*
X142240000Y-75069605D01*
X141411861Y-75897745D01*
X140395200Y-75897745D01*
X140395200Y-73647571D01*
X140616331Y-73991219D01*
X140954999Y-74222621D01*
X140793035Y-74673223D01*
X140820222Y-75243454D01*
X140986136Y-75644005D01*
X141232255Y-75718139D01*
X142060395Y-74890000D01*
X142046252Y-74875858D01*
X142225858Y-74696253D01*
X142240000Y-74710395D01*
X142254143Y-74696253D01*
X142433748Y-74875858D01*
X142419605Y-74890000D01*
X143247745Y-75718139D01*
X143493864Y-75644005D01*
X143686965Y-75106777D01*
X143659778Y-74536546D01*
X143526958Y-74215890D01*
X143841219Y-74013669D01*
X144098548Y-73637056D01*
X144189079Y-73190000D01*
X144189079Y-71590000D01*
X144159763Y-71434200D01*
X145034000Y-71434200D01*
X145543046Y-71332945D01*
X145805921Y-71157297D01*
X145805921Y-72755000D01*
G36*
X146496611Y-61235431D02*
X146617705Y-61468000D01*
X147648392Y-61468000D01*
X147761251Y-61580859D01*
X147940859Y-61401251D01*
X147828000Y-61288392D01*
X147828000Y-60944000D01*
X148082000Y-60944000D01*
X148082000Y-61288392D01*
X147969141Y-61401251D01*
X148148749Y-61580859D01*
X148261608Y-61468000D01*
X149292295Y-61468000D01*
X149413389Y-61235431D01*
X149276872Y-60944000D01*
X149736491Y-60944000D01*
X150828738Y-61161262D01*
X151649993Y-61710007D01*
X152198739Y-62531262D01*
X152416000Y-63623509D01*
X152416000Y-75113309D01*
X152336132Y-75033301D01*
X151554841Y-74708880D01*
X150708871Y-74708142D01*
X149927014Y-75031199D01*
X149860408Y-75097689D01*
X149796132Y-75033301D01*
X149474514Y-74899753D01*
X149600908Y-74559539D01*
X149576856Y-73909540D01*
X149506393Y-73739427D01*
X149756219Y-73578669D01*
X150013548Y-73202056D01*
X150104079Y-72755000D01*
X150104079Y-70755000D01*
X150025494Y-70337359D01*
X149778669Y-69953781D01*
X149496379Y-69760900D01*
X149600908Y-69479539D01*
X149576856Y-68829540D01*
X149506393Y-68659427D01*
X149756219Y-68498669D01*
X150013548Y-68122056D01*
X150104079Y-67675000D01*
X150104079Y-65675000D01*
X150025494Y-65257359D01*
X149778669Y-64873781D01*
X149776682Y-64872424D01*
X149919859Y-64527617D01*
X149920541Y-63745812D01*
X149621987Y-63023258D01*
X149112152Y-62512533D01*
X149240491Y-62371983D01*
X149413389Y-61954569D01*
X149292295Y-61722000D01*
X148261608Y-61722000D01*
X148148749Y-61609141D01*
X147969141Y-61788749D01*
X148082000Y-61901608D01*
X148082000Y-62169909D01*
X147828000Y-62169688D01*
X147828000Y-61901608D01*
X147940859Y-61788749D01*
X147761251Y-61609141D01*
X147648392Y-61722000D01*
X146617705Y-61722000D01*
X146496611Y-61954569D01*
X146745225Y-62485300D01*
X146787381Y-62523793D01*
X146289956Y-63020350D01*
X146262362Y-63086804D01*
X146262477Y-62954995D01*
X145844393Y-61943154D01*
X145070918Y-61168328D01*
X144530675Y-60944000D01*
X146617325Y-60944000D01*
X146496611Y-61235431D01*
X146496611Y-61235431D01*
G37*
X146496611Y-61235431D02*
X146617705Y-61468000D01*
X147648392Y-61468000D01*
X147761251Y-61580859D01*
X147940859Y-61401251D01*
X147828000Y-61288392D01*
X147828000Y-60944000D01*
X148082000Y-60944000D01*
X148082000Y-61288392D01*
X147969141Y-61401251D01*
X148148749Y-61580859D01*
X148261608Y-61468000D01*
X149292295Y-61468000D01*
X149413389Y-61235431D01*
X149276872Y-60944000D01*
X149736491Y-60944000D01*
X150828738Y-61161262D01*
X151649993Y-61710007D01*
X152198739Y-62531262D01*
X152416000Y-63623509D01*
X152416000Y-75113309D01*
X152336132Y-75033301D01*
X151554841Y-74708880D01*
X150708871Y-74708142D01*
X149927014Y-75031199D01*
X149860408Y-75097689D01*
X149796132Y-75033301D01*
X149474514Y-74899753D01*
X149600908Y-74559539D01*
X149576856Y-73909540D01*
X149506393Y-73739427D01*
X149756219Y-73578669D01*
X150013548Y-73202056D01*
X150104079Y-72755000D01*
X150104079Y-70755000D01*
X150025494Y-70337359D01*
X149778669Y-69953781D01*
X149496379Y-69760900D01*
X149600908Y-69479539D01*
X149576856Y-68829540D01*
X149506393Y-68659427D01*
X149756219Y-68498669D01*
X150013548Y-68122056D01*
X150104079Y-67675000D01*
X150104079Y-65675000D01*
X150025494Y-65257359D01*
X149778669Y-64873781D01*
X149776682Y-64872424D01*
X149919859Y-64527617D01*
X149920541Y-63745812D01*
X149621987Y-63023258D01*
X149112152Y-62512533D01*
X149240491Y-62371983D01*
X149413389Y-61954569D01*
X149292295Y-61722000D01*
X148261608Y-61722000D01*
X148148749Y-61609141D01*
X147969141Y-61788749D01*
X148082000Y-61901608D01*
X148082000Y-62169909D01*
X147828000Y-62169688D01*
X147828000Y-61901608D01*
X147940859Y-61788749D01*
X147761251Y-61609141D01*
X147648392Y-61722000D01*
X146617705Y-61722000D01*
X146496611Y-61954569D01*
X146745225Y-62485300D01*
X146787381Y-62523793D01*
X146289956Y-63020350D01*
X146262362Y-63086804D01*
X146262477Y-62954995D01*
X145844393Y-61943154D01*
X145070918Y-61168328D01*
X144530675Y-60944000D01*
X146617325Y-60944000D01*
X146496611Y-61235431D01*
G36*
X148148748Y-69200858D02*
X148134605Y-69215000D01*
X148148748Y-69229143D01*
X147969143Y-69408748D01*
X147955000Y-69394605D01*
X147940858Y-69408748D01*
X147761253Y-69229143D01*
X147775395Y-69215000D01*
X147761253Y-69200858D01*
X147940858Y-69021253D01*
X147955000Y-69035395D01*
X147969143Y-69021253D01*
X148148748Y-69200858D01*
X148148748Y-69200858D01*
G37*
X148148748Y-69200858D02*
X148134605Y-69215000D01*
X148148748Y-69229143D01*
X147969143Y-69408748D01*
X147955000Y-69394605D01*
X147940858Y-69408748D01*
X147761253Y-69229143D01*
X147775395Y-69215000D01*
X147761253Y-69200858D01*
X147940858Y-69021253D01*
X147955000Y-69035395D01*
X147969143Y-69021253D01*
X148148748Y-69200858D01*
G36*
X141175607Y-65056846D02*
X141949082Y-65831672D01*
X142960192Y-66251521D01*
X143237923Y-66251764D01*
X143297055Y-66549045D01*
X143412303Y-66721525D01*
X143386073Y-66792468D01*
X144359000Y-67765395D01*
X144373143Y-67751253D01*
X144552748Y-67930858D01*
X144538605Y-67945000D01*
X144552748Y-67959143D01*
X144373143Y-68138748D01*
X144359000Y-68124605D01*
X144344858Y-68138748D01*
X144165253Y-67959143D01*
X144179395Y-67945000D01*
X143206468Y-66972073D01*
X142939613Y-67070736D01*
X142713092Y-67680461D01*
X142737144Y-68330460D01*
X142920781Y-68773800D01*
X141317934Y-68773800D01*
X141485630Y-68369943D01*
X141486368Y-67523770D01*
X141163234Y-66741726D01*
X140772880Y-66350690D01*
X140776200Y-66334000D01*
X140776200Y-64090207D01*
X141175607Y-65056846D01*
X141175607Y-65056846D01*
G37*
X141175607Y-65056846D02*
X141949082Y-65831672D01*
X142960192Y-66251521D01*
X143237923Y-66251764D01*
X143297055Y-66549045D01*
X143412303Y-66721525D01*
X143386073Y-66792468D01*
X144359000Y-67765395D01*
X144373143Y-67751253D01*
X144552748Y-67930858D01*
X144538605Y-67945000D01*
X144552748Y-67959143D01*
X144373143Y-68138748D01*
X144359000Y-68124605D01*
X144344858Y-68138748D01*
X144165253Y-67959143D01*
X144179395Y-67945000D01*
X143206468Y-66972073D01*
X142939613Y-67070736D01*
X142713092Y-67680461D01*
X142737144Y-68330460D01*
X142920781Y-68773800D01*
X141317934Y-68773800D01*
X141485630Y-68369943D01*
X141486368Y-67523770D01*
X141163234Y-66741726D01*
X140772880Y-66350690D01*
X140776200Y-66334000D01*
X140776200Y-64090207D01*
X141175607Y-65056846D01*
G36*
X128143000Y-67945000D02*
X128163000Y-67945000D01*
X128163000Y-68199000D01*
X128143000Y-68199000D01*
X128143000Y-68219000D01*
X127889000Y-68219000D01*
X127889000Y-68199000D01*
X127869000Y-68199000D01*
X127869000Y-67945000D01*
X127889000Y-67945000D01*
X127889000Y-67925000D01*
X128143000Y-67925000D01*
X128143000Y-67945000D01*
X128143000Y-67945000D01*
G37*
X128143000Y-67945000D02*
X128163000Y-67945000D01*
X128163000Y-68199000D01*
X128143000Y-68199000D01*
X128143000Y-68219000D01*
X127889000Y-68219000D01*
X127889000Y-68199000D01*
X127869000Y-68199000D01*
X127869000Y-67945000D01*
X127889000Y-67945000D01*
X127889000Y-67925000D01*
X128143000Y-67925000D01*
X128143000Y-67945000D01*
M02*
