M48
;DRILL file {KiCad 4.0.6} date 09/06/18 10:25:14
;FORMAT={-:-/ absolute / inch / decimal}
FMAT,2
INCH,TZ
T1C0.031
T2C0.032
T3C0.032
T4C0.039
T5C0.039
T6C0.040
T7C0.047
T8C0.128
%
G90
G05
M72
T1
X5.25Y-4.2
X5.25Y-4.375
X5.3Y-3.15
X5.3Y-3.25
X5.3Y-3.35
X5.3Y-3.45
X5.3Y-3.55
X5.3Y-3.65
X5.3Y-3.75
X5.3Y-3.85
X5.3Y-3.95
X5.3484Y-4.2
X5.475Y-4.125
X5.475Y-4.375
X5.575Y-4.125
X5.575Y-4.375
X5.6Y-2.8
X5.6Y-2.8984
X5.6Y-3.15
X5.6Y-3.25
X5.6Y-3.35
X5.6Y-3.45
X5.6Y-3.55
X5.6Y-3.65
X5.6Y-3.75
X5.6Y-3.85
X5.6Y-3.95
T2
X5.25Y-4.4734
T3
X5.2Y-2.5
X5.3Y-2.5
X5.4Y-2.5
X5.85Y-2.425
X5.85Y-2.525
X5.85Y-4.475
X5.85Y-4.575
T4
X4.9Y-3.3063
X4.9Y-3.4047
X4.9Y-3.5031
X4.9Y-3.6016
X4.9Y-3.7
X4.9Y-4.0063
X4.9Y-4.1047
X4.9Y-4.2031
X4.9Y-4.3016
X4.9Y-4.4
X5.1Y-3.25
X5.1Y-3.35
X5.1Y-3.45
X5.1Y-3.55
X5.1Y-3.65
X5.1Y-3.75
X5.1Y-3.85
X5.1Y-3.95
X5.1Y-4.05
X5.1Y-4.15
X5.1Y-4.25
X5.1Y-4.35
X5.1Y-4.45
X5.1Y-4.55
X5.7Y-3.25
X5.7Y-3.35
X5.7Y-3.45
X5.7Y-3.55
X5.7Y-3.65
X5.7Y-3.75
X5.7Y-3.85
X5.7Y-3.95
X5.7Y-4.05
X5.7Y-4.15
X5.7Y-4.25
X5.7Y-4.35
X5.7Y-4.45
X5.7Y-4.55
X5.8114Y-3.372
X5.8114Y-3.628
X5.9886Y-3.372
X5.9886Y-3.628
T5
X5.85Y-2.625
X5.85Y-2.725
X5.85Y-2.825
X5.85Y-2.925
X5.85Y-3.025
X5.85Y-3.275
X5.85Y-3.725
X5.85Y-3.975
X5.85Y-4.075
X5.85Y-4.175
X5.85Y-4.275
X5.85Y-4.375
X5.95Y-3.025
X5.95Y-3.275
X5.95Y-3.725
X5.95Y-3.975
T6
X5.3Y-2.75
X5.3Y-2.85
X5.3Y-2.95
T7
X5.04Y-2.68
X5.04Y-2.8178
X5.04Y-2.97
X5.04Y-3.1078
T8
X4.95Y-2.5
X5.4Y-4.5
X5.65Y-2.5
T0
M30
