G04 #@! TF.FileFunction,Copper,L2,Bot,Signal*
%FSLAX46Y46*%
G04 Gerber Fmt 4.6, Leading zero omitted, Abs format (unit mm)*
G04 Created by KiCad (PCBNEW 4.0.7) date 02/16/20 15:39:30*
%MOMM*%
%LPD*%
G01*
G04 APERTURE LIST*
%ADD10C,0.100000*%
%ADD11C,1.676400*%
%ADD12R,1.676400X1.676400*%
%ADD13R,2.000000X2.000000*%
%ADD14C,2.000000*%
%ADD15R,2.032000X1.727200*%
%ADD16O,2.032000X1.727200*%
%ADD17O,2.200000X1.700000*%
%ADD18R,1.800000X1.800000*%
%ADD19C,1.800000*%
%ADD20O,2.000000X1.600000*%
%ADD21C,1.600000*%
%ADD22R,1.600000X1.600000*%
%ADD23C,2.400000*%
%ADD24R,2.400000X2.400000*%
%ADD25C,1.998980*%
%ADD26C,0.685800*%
%ADD27C,0.609600*%
%ADD28C,0.406400*%
%ADD29C,0.304800*%
%ADD30C,0.254000*%
G04 APERTURE END LIST*
D10*
D11*
X147955000Y-116205000D03*
D12*
X147955000Y-113665000D03*
D13*
X124460000Y-111760000D03*
D14*
X124460000Y-109260000D03*
X124460000Y-106760000D03*
X124460000Y-104260000D03*
X124460000Y-101760000D03*
D15*
X134620000Y-75565000D03*
D16*
X134620000Y-73025000D03*
X134620000Y-70485000D03*
D17*
X129540000Y-115570000D03*
X129540000Y-113030000D03*
X129540000Y-110490000D03*
X129540000Y-107950000D03*
X129540000Y-105410000D03*
X129540000Y-102870000D03*
X129540000Y-100330000D03*
X129540000Y-97790000D03*
X129540000Y-95250000D03*
X129540000Y-92710000D03*
X129540000Y-90170000D03*
X129540000Y-87630000D03*
X129540000Y-85090000D03*
X129540000Y-82550000D03*
D14*
X139740000Y-68580000D03*
X144740000Y-68580000D03*
X147955000Y-111125000D03*
D13*
X147955000Y-108585000D03*
D18*
X134874000Y-105029000D03*
D19*
X134874000Y-107529000D03*
D14*
X132715000Y-113792000D03*
X132715000Y-111292000D03*
D20*
X142240000Y-100330000D03*
X142240000Y-97790000D03*
X142240000Y-95250000D03*
X142240000Y-92710000D03*
X142240000Y-90170000D03*
X142240000Y-87630000D03*
X142240000Y-85090000D03*
X142240000Y-82550000D03*
X142240000Y-80010000D03*
X134620000Y-80010000D03*
X134620000Y-82550000D03*
X134620000Y-85090000D03*
X134620000Y-87630000D03*
X134620000Y-90170000D03*
X134620000Y-92710000D03*
X134620000Y-95250000D03*
X134620000Y-97790000D03*
X134620000Y-100330000D03*
D21*
X142240000Y-74890000D03*
D22*
X142240000Y-72390000D03*
D13*
X132080000Y-62230000D03*
D14*
X134620000Y-62230000D03*
X137160000Y-62230000D03*
D23*
X128016000Y-71572000D03*
D24*
X128016000Y-68072000D03*
D23*
X128016000Y-78938000D03*
D24*
X128016000Y-75438000D03*
D14*
X147610000Y-85650000D03*
X152110000Y-85650000D03*
X147610000Y-92150000D03*
X152110000Y-92150000D03*
X147955000Y-106045000D03*
D13*
X147955000Y-103505000D03*
D14*
X147955000Y-69215000D03*
D13*
X147955000Y-66675000D03*
D14*
X147955000Y-74295000D03*
D13*
X147955000Y-71755000D03*
D25*
X139065000Y-111125000D03*
X139065000Y-104775000D03*
X141605000Y-111125000D03*
X141605000Y-104775000D03*
X151130000Y-83185000D03*
X151130000Y-76835000D03*
X148590000Y-83185000D03*
X148590000Y-76835000D03*
X151130000Y-94615000D03*
X151130000Y-100965000D03*
X148590000Y-94615000D03*
X148590000Y-100965000D03*
D17*
X144780000Y-115570000D03*
X144780000Y-113030000D03*
X144780000Y-110490000D03*
X144780000Y-107950000D03*
X144780000Y-105410000D03*
X144780000Y-102870000D03*
X144780000Y-100330000D03*
X144780000Y-97790000D03*
X144780000Y-95250000D03*
X144780000Y-92710000D03*
X144780000Y-90170000D03*
X144780000Y-87630000D03*
X144780000Y-85090000D03*
X144780000Y-82550000D03*
D13*
X124460000Y-93980000D03*
D14*
X124460000Y-91480000D03*
X124460000Y-88980000D03*
X124460000Y-86480000D03*
X124460000Y-83980000D03*
D11*
X147955000Y-64135000D03*
D12*
X147955000Y-61595000D03*
D26*
X123952000Y-81788000D03*
D27*
X134620000Y-70485000D02*
X133985000Y-70485000D01*
X133985000Y-70485000D02*
X131572000Y-68072000D01*
X131572000Y-68072000D02*
X128016000Y-68072000D01*
X144740000Y-68580000D02*
X144740000Y-69255000D01*
X144740000Y-69255000D02*
X143510000Y-70485000D01*
X143510000Y-70485000D02*
X134620000Y-70485000D01*
X147955000Y-69215000D02*
X145375000Y-69215000D01*
X145375000Y-69215000D02*
X144740000Y-68580000D01*
X132715000Y-111292000D02*
X132715000Y-108458000D01*
X133644000Y-107529000D02*
X134874000Y-107529000D01*
X132715000Y-108458000D02*
X133644000Y-107529000D01*
X129540000Y-113030000D02*
X130048000Y-113030000D01*
X130048000Y-113030000D02*
X131786000Y-111292000D01*
X131786000Y-111292000D02*
X132715000Y-111292000D01*
X147955000Y-113665000D02*
X147955000Y-111125000D01*
X147955000Y-111125000D02*
X148590000Y-111125000D01*
X148590000Y-111125000D02*
X150495000Y-109220000D01*
X149225000Y-106045000D02*
X147955000Y-106045000D01*
X150495000Y-107315000D02*
X149225000Y-106045000D01*
X150495000Y-109220000D02*
X150495000Y-107315000D01*
D28*
X144740000Y-68580000D02*
X144526000Y-68580000D01*
X147955000Y-106045000D02*
X147320000Y-106045000D01*
X147955000Y-69215000D02*
X147320000Y-69215000D01*
X147447000Y-106045000D02*
X147955000Y-106045000D01*
X147701000Y-61595000D02*
X147955000Y-61595000D01*
X129540000Y-100330000D02*
X131826000Y-100330000D01*
X137160000Y-97790000D02*
X142240000Y-97790000D01*
X135890000Y-99060000D02*
X137160000Y-97790000D01*
X133096000Y-99060000D02*
X135890000Y-99060000D01*
X131826000Y-100330000D02*
X133096000Y-99060000D01*
X146685000Y-95885000D02*
X146685000Y-98044000D01*
X146685000Y-95885000D02*
X146685000Y-93075000D01*
X147610000Y-92150000D02*
X146685000Y-93075000D01*
X145669000Y-99060000D02*
X138430000Y-99060000D01*
X146685000Y-98044000D02*
X145669000Y-99060000D01*
X129540000Y-105410000D02*
X130810000Y-105410000D01*
X135255000Y-102235000D02*
X138430000Y-99060000D01*
X133985000Y-102235000D02*
X135255000Y-102235000D01*
X130810000Y-105410000D02*
X133985000Y-102235000D01*
X133096000Y-104394000D02*
X134366000Y-103124000D01*
X142240000Y-100330000D02*
X138557000Y-100330000D01*
X133096000Y-104394000D02*
X129540000Y-107950000D01*
X138430000Y-100330000D02*
X138557000Y-100330000D01*
X135636000Y-103124000D02*
X138430000Y-100330000D01*
X134366000Y-103124000D02*
X135636000Y-103124000D01*
X124460000Y-109260000D02*
X125944000Y-109260000D01*
X127635000Y-99695000D02*
X128270000Y-99060000D01*
X132715000Y-97790000D02*
X134620000Y-97790000D01*
X131445000Y-99060000D02*
X128270000Y-99060000D01*
X132715000Y-97790000D02*
X131445000Y-99060000D01*
X127635000Y-104013000D02*
X127635000Y-99695000D01*
X127000000Y-104648000D02*
X127635000Y-104013000D01*
X127000000Y-108204000D02*
X127000000Y-104648000D01*
X125944000Y-109260000D02*
X127000000Y-108204000D01*
X128905000Y-104140000D02*
X128397000Y-104140000D01*
X127635000Y-109855000D02*
X125730000Y-111760000D01*
X124460000Y-111760000D02*
X125730000Y-111760000D01*
X132080000Y-102870000D02*
X134620000Y-100330000D01*
X132080000Y-102870000D02*
X130810000Y-104140000D01*
X130810000Y-104140000D02*
X128905000Y-104140000D01*
X127635000Y-105410000D02*
X127635000Y-109855000D01*
X127635000Y-104902000D02*
X127635000Y-105410000D01*
X128397000Y-104140000D02*
X127635000Y-104902000D01*
X124460000Y-91480000D02*
X125690000Y-91480000D01*
X133413500Y-87566500D02*
X134620000Y-87630000D01*
X132143500Y-88836500D02*
X133413500Y-87566500D01*
X128270000Y-88900000D02*
X132143500Y-88836500D01*
X125690000Y-91480000D02*
X128270000Y-88900000D01*
X124500000Y-91440000D02*
X124460000Y-91480000D01*
X124500000Y-91440000D02*
X124460000Y-91480000D01*
X134620000Y-90170000D02*
X132715000Y-90170000D01*
X125730000Y-93980000D02*
X124460000Y-93980000D01*
X128270000Y-91440000D02*
X125730000Y-93980000D01*
X131445000Y-91440000D02*
X128270000Y-91440000D01*
X132715000Y-90170000D02*
X131445000Y-91440000D01*
X127000000Y-98425000D02*
X127000000Y-97790000D01*
X134620000Y-95250000D02*
X132715000Y-95250000D01*
X128270000Y-96520000D02*
X127635000Y-97155000D01*
X131445000Y-96520000D02*
X128270000Y-96520000D01*
X132715000Y-95250000D02*
X131445000Y-96520000D01*
X125523000Y-106760000D02*
X126365000Y-105918000D01*
X126365000Y-105918000D02*
X126365000Y-104394000D01*
X126365000Y-104394000D02*
X127000000Y-103759000D01*
X127000000Y-103759000D02*
X127000000Y-98425000D01*
X125523000Y-106760000D02*
X124460000Y-106760000D01*
X127000000Y-97790000D02*
X127635000Y-97155000D01*
X124460000Y-106680000D02*
X124460000Y-106720000D01*
X124460000Y-106680000D02*
X124460000Y-106720000D01*
X124460000Y-104260000D02*
X124721000Y-104260000D01*
X124721000Y-104260000D02*
X126365000Y-102616000D01*
X132842000Y-92710000D02*
X134620000Y-92710000D01*
X131572000Y-93980000D02*
X132842000Y-92710000D01*
X128270000Y-93980000D02*
X131572000Y-93980000D01*
X127635000Y-94615000D02*
X128270000Y-93980000D01*
X127635000Y-96266000D02*
X127635000Y-94615000D01*
X126365000Y-97536000D02*
X127635000Y-96266000D01*
X126365000Y-102616000D02*
X126365000Y-97536000D01*
X124460000Y-104260000D02*
X125229000Y-104260000D01*
X124460000Y-104140000D02*
X124460000Y-104220000D01*
X134620000Y-85090000D02*
X133350000Y-85090000D01*
X127080000Y-86360000D02*
X124460000Y-88980000D01*
X132080000Y-86360000D02*
X127080000Y-86360000D01*
X133350000Y-85090000D02*
X132080000Y-86360000D01*
X134620000Y-82550000D02*
X132715000Y-82550000D01*
X127120000Y-83820000D02*
X124460000Y-86480000D01*
X131445000Y-83820000D02*
X127120000Y-83820000D01*
X132715000Y-82550000D02*
X131445000Y-83820000D01*
X142240000Y-95250000D02*
X144780000Y-95250000D01*
X142240000Y-92710000D02*
X144780000Y-92710000D01*
X144780000Y-105410000D02*
X144018000Y-105410000D01*
X144018000Y-105410000D02*
X143129000Y-106299000D01*
X143129000Y-106299000D02*
X143129000Y-112903000D01*
X143129000Y-112903000D02*
X140335000Y-115697000D01*
X122809000Y-82931000D02*
X123952000Y-81788000D01*
X122809000Y-113538000D02*
X122809000Y-82931000D01*
X126492000Y-117221000D02*
X122809000Y-113538000D01*
X138811000Y-117221000D02*
X126492000Y-117221000D01*
X140335000Y-115697000D02*
X138811000Y-117221000D01*
X149733000Y-93091000D02*
X149733000Y-93218000D01*
X149733000Y-93091000D02*
X149733000Y-84582000D01*
X151130000Y-83185000D02*
X149733000Y-84582000D01*
X149733000Y-93218000D02*
X151130000Y-94615000D01*
X136906000Y-81788000D02*
X136906000Y-81026000D01*
X129540000Y-92710000D02*
X131572000Y-92710000D01*
X136906000Y-90297000D02*
X136906000Y-81788000D01*
X135763000Y-91440000D02*
X136906000Y-90297000D01*
X132842000Y-91440000D02*
X135763000Y-91440000D01*
X131572000Y-92710000D02*
X132842000Y-91440000D01*
X146685000Y-77978000D02*
X151130000Y-82423000D01*
X139954000Y-77978000D02*
X146685000Y-77978000D01*
X136906000Y-81026000D02*
X139954000Y-77978000D01*
X151130000Y-82423000D02*
X151130000Y-83185000D01*
X147955000Y-108585000D02*
X148590000Y-108585000D01*
X148590000Y-76835000D02*
X148590000Y-76708000D01*
X148590000Y-76708000D02*
X149860000Y-75438000D01*
X149860000Y-75438000D02*
X149860000Y-72771000D01*
X149860000Y-72771000D02*
X148844000Y-71755000D01*
X148844000Y-71755000D02*
X147955000Y-71755000D01*
X147955000Y-103505000D02*
X147447000Y-103505000D01*
X151130000Y-76835000D02*
X151130000Y-68453000D01*
X149352000Y-66675000D02*
X147955000Y-66675000D01*
X151130000Y-68453000D02*
X149352000Y-66675000D01*
X129540000Y-97790000D02*
X131445000Y-97790000D01*
X140335000Y-82550000D02*
X142240000Y-82550000D01*
X139065000Y-83820000D02*
X140335000Y-82550000D01*
X139065000Y-93980000D02*
X139065000Y-83820000D01*
X136525000Y-96520000D02*
X139065000Y-93980000D01*
X132715000Y-96520000D02*
X136525000Y-96520000D01*
X131445000Y-97790000D02*
X132715000Y-96520000D01*
X146304000Y-107315000D02*
X146304000Y-104902000D01*
X147955000Y-116205000D02*
X146304000Y-114554000D01*
X146304000Y-112395000D02*
X146304000Y-114554000D01*
X146304000Y-112395000D02*
X146304000Y-107315000D01*
X145542000Y-104140000D02*
X142240000Y-104140000D01*
X146304000Y-104902000D02*
X145542000Y-104140000D01*
X142240000Y-104140000D02*
X141605000Y-104775000D01*
X147955000Y-116205000D02*
X147574000Y-116205000D01*
X147955000Y-116205000D02*
X148463000Y-116205000D01*
X147701000Y-64135000D02*
X147955000Y-64135000D01*
D27*
X142240000Y-72390000D02*
X139700000Y-72390000D01*
X139065000Y-73025000D02*
X134620000Y-73025000D01*
X139700000Y-72390000D02*
X139065000Y-73025000D01*
X132715000Y-113792000D02*
X132842000Y-113792000D01*
X132842000Y-113792000D02*
X136652000Y-109982000D01*
X136652000Y-106807000D02*
X134874000Y-105029000D01*
X136652000Y-109982000D02*
X136652000Y-106807000D01*
X129540000Y-115570000D02*
X130937000Y-115570000D01*
X130937000Y-115570000D02*
X132715000Y-113792000D01*
X132715000Y-114006000D02*
X132715000Y-113919000D01*
X132715000Y-114006000D02*
X132755000Y-114006000D01*
D29*
X129540000Y-115570000D02*
X130048000Y-115570000D01*
D28*
X142240000Y-90170000D02*
X144780000Y-90170000D01*
X142240000Y-87630000D02*
X144780000Y-87630000D01*
X142240000Y-85090000D02*
X144780000Y-85090000D01*
X137795000Y-83185000D02*
X137795000Y-81153000D01*
X129540000Y-95250000D02*
X131445000Y-95250000D01*
X137795000Y-91440000D02*
X137795000Y-83185000D01*
X135255000Y-93980000D02*
X137795000Y-91440000D01*
X132715000Y-93980000D02*
X135255000Y-93980000D01*
X131445000Y-95250000D02*
X132715000Y-93980000D01*
X148590000Y-81534000D02*
X148590000Y-83185000D01*
X145669000Y-78613000D02*
X148590000Y-81534000D01*
X140335000Y-78613000D02*
X145669000Y-78613000D01*
X137795000Y-81153000D02*
X140335000Y-78613000D01*
D30*
G36*
X152416000Y-114176491D02*
X152198739Y-115268738D01*
X151649993Y-116089993D01*
X150828738Y-116638738D01*
X149819418Y-116839505D01*
X149919859Y-116597617D01*
X149920541Y-115815812D01*
X149621987Y-115093258D01*
X149349269Y-114820064D01*
X149428200Y-114629509D01*
X149428200Y-113950750D01*
X149269450Y-113792000D01*
X148082000Y-113792000D01*
X148082000Y-113812000D01*
X147828000Y-113812000D01*
X147828000Y-113792000D01*
X147808000Y-113792000D01*
X147808000Y-113538000D01*
X147828000Y-113538000D01*
X147828000Y-113518000D01*
X148082000Y-113518000D01*
X148082000Y-113538000D01*
X149269450Y-113538000D01*
X149428200Y-113379250D01*
X149428200Y-112700491D01*
X149331527Y-112467102D01*
X149152899Y-112288473D01*
X149147700Y-112286320D01*
X149221814Y-112212206D01*
X149107534Y-112097926D01*
X149374387Y-111999264D01*
X149600908Y-111389539D01*
X149576856Y-110739540D01*
X149506393Y-110569427D01*
X149756219Y-110408669D01*
X150013548Y-110032056D01*
X150104079Y-109585000D01*
X150104079Y-107585000D01*
X150025494Y-107167359D01*
X149778669Y-106783781D01*
X149496379Y-106590900D01*
X149600908Y-106309539D01*
X149576856Y-105659540D01*
X149506393Y-105489427D01*
X149756219Y-105328669D01*
X150013548Y-104952056D01*
X150104079Y-104505000D01*
X150104079Y-102841529D01*
X150705159Y-103091120D01*
X151551129Y-103091858D01*
X152332986Y-102768801D01*
X152416000Y-102685932D01*
X152416000Y-114176491D01*
X152416000Y-114176491D01*
G37*
X152416000Y-114176491D02*
X152198739Y-115268738D01*
X151649993Y-116089993D01*
X150828738Y-116638738D01*
X149819418Y-116839505D01*
X149919859Y-116597617D01*
X149920541Y-115815812D01*
X149621987Y-115093258D01*
X149349269Y-114820064D01*
X149428200Y-114629509D01*
X149428200Y-113950750D01*
X149269450Y-113792000D01*
X148082000Y-113792000D01*
X148082000Y-113812000D01*
X147828000Y-113812000D01*
X147828000Y-113792000D01*
X147808000Y-113792000D01*
X147808000Y-113538000D01*
X147828000Y-113538000D01*
X147828000Y-113518000D01*
X148082000Y-113518000D01*
X148082000Y-113538000D01*
X149269450Y-113538000D01*
X149428200Y-113379250D01*
X149428200Y-112700491D01*
X149331527Y-112467102D01*
X149152899Y-112288473D01*
X149147700Y-112286320D01*
X149221814Y-112212206D01*
X149107534Y-112097926D01*
X149374387Y-111999264D01*
X149600908Y-111389539D01*
X149576856Y-110739540D01*
X149506393Y-110569427D01*
X149756219Y-110408669D01*
X150013548Y-110032056D01*
X150104079Y-109585000D01*
X150104079Y-107585000D01*
X150025494Y-107167359D01*
X149778669Y-106783781D01*
X149496379Y-106590900D01*
X149600908Y-106309539D01*
X149576856Y-105659540D01*
X149506393Y-105489427D01*
X149756219Y-105328669D01*
X150013548Y-104952056D01*
X150104079Y-104505000D01*
X150104079Y-102841529D01*
X150705159Y-103091120D01*
X151551129Y-103091858D01*
X152332986Y-102768801D01*
X152416000Y-102685932D01*
X152416000Y-114176491D01*
G36*
X129667000Y-112903000D02*
X129687000Y-112903000D01*
X129687000Y-113157000D01*
X129667000Y-113157000D01*
X129667000Y-113177000D01*
X129413000Y-113177000D01*
X129413000Y-113157000D01*
X129393000Y-113157000D01*
X129393000Y-112903000D01*
X129413000Y-112903000D01*
X129413000Y-112883000D01*
X129667000Y-112883000D01*
X129667000Y-112903000D01*
X129667000Y-112903000D01*
G37*
X129667000Y-112903000D02*
X129687000Y-112903000D01*
X129687000Y-113157000D01*
X129667000Y-113157000D01*
X129667000Y-113177000D01*
X129413000Y-113177000D01*
X129413000Y-113157000D01*
X129393000Y-113157000D01*
X129393000Y-112903000D01*
X129413000Y-112903000D01*
X129413000Y-112883000D01*
X129667000Y-112883000D01*
X129667000Y-112903000D01*
G36*
X133150331Y-106730219D02*
X133455458Y-106938704D01*
X133327542Y-107288336D01*
X133353161Y-107898460D01*
X133537357Y-108343148D01*
X133793841Y-108429554D01*
X134694395Y-107529000D01*
X134680253Y-107514858D01*
X134859858Y-107335253D01*
X134874000Y-107349395D01*
X134888143Y-107335253D01*
X135067748Y-107514858D01*
X135053605Y-107529000D01*
X135067748Y-107543143D01*
X134888143Y-107722748D01*
X134874000Y-107708605D01*
X133973446Y-108609159D01*
X134059852Y-108865643D01*
X134633336Y-109075458D01*
X135220200Y-109050816D01*
X135220200Y-109388929D01*
X134151084Y-110458046D01*
X134134387Y-110417736D01*
X133867532Y-110319073D01*
X132894605Y-111292000D01*
X132908748Y-111306143D01*
X132729143Y-111485748D01*
X132715000Y-111471605D01*
X132700858Y-111485748D01*
X132521253Y-111306143D01*
X132535395Y-111292000D01*
X132521253Y-111277858D01*
X132700858Y-111098253D01*
X132715000Y-111112395D01*
X133687927Y-110139468D01*
X133589264Y-109872613D01*
X132979539Y-109646092D01*
X132329540Y-109670144D01*
X131840736Y-109872613D01*
X131742074Y-110139466D01*
X131740614Y-110138006D01*
X131660140Y-109733435D01*
X131317074Y-109220000D01*
X131660140Y-108706565D01*
X131810630Y-107950000D01*
X131746017Y-107625169D01*
X132950897Y-106420289D01*
X133150331Y-106730219D01*
X133150331Y-106730219D01*
G37*
X133150331Y-106730219D02*
X133455458Y-106938704D01*
X133327542Y-107288336D01*
X133353161Y-107898460D01*
X133537357Y-108343148D01*
X133793841Y-108429554D01*
X134694395Y-107529000D01*
X134680253Y-107514858D01*
X134859858Y-107335253D01*
X134874000Y-107349395D01*
X134888143Y-107335253D01*
X135067748Y-107514858D01*
X135053605Y-107529000D01*
X135067748Y-107543143D01*
X134888143Y-107722748D01*
X134874000Y-107708605D01*
X133973446Y-108609159D01*
X134059852Y-108865643D01*
X134633336Y-109075458D01*
X135220200Y-109050816D01*
X135220200Y-109388929D01*
X134151084Y-110458046D01*
X134134387Y-110417736D01*
X133867532Y-110319073D01*
X132894605Y-111292000D01*
X132908748Y-111306143D01*
X132729143Y-111485748D01*
X132715000Y-111471605D01*
X132700858Y-111485748D01*
X132521253Y-111306143D01*
X132535395Y-111292000D01*
X132521253Y-111277858D01*
X132700858Y-111098253D01*
X132715000Y-111112395D01*
X133687927Y-110139468D01*
X133589264Y-109872613D01*
X132979539Y-109646092D01*
X132329540Y-109670144D01*
X131840736Y-109872613D01*
X131742074Y-110139466D01*
X131740614Y-110138006D01*
X131660140Y-109733435D01*
X131317074Y-109220000D01*
X131660140Y-108706565D01*
X131810630Y-107950000D01*
X131746017Y-107625169D01*
X132950897Y-106420289D01*
X133150331Y-106730219D01*
G36*
X148148748Y-111110858D02*
X148134605Y-111125000D01*
X148148748Y-111139143D01*
X147969143Y-111318748D01*
X147955000Y-111304605D01*
X147940858Y-111318748D01*
X147761253Y-111139143D01*
X147775395Y-111125000D01*
X147761253Y-111110858D01*
X147940858Y-110931253D01*
X147955000Y-110945395D01*
X147969143Y-110931253D01*
X148148748Y-111110858D01*
X148148748Y-111110858D01*
G37*
X148148748Y-111110858D02*
X148134605Y-111125000D01*
X148148748Y-111139143D01*
X147969143Y-111318748D01*
X147955000Y-111304605D01*
X147940858Y-111318748D01*
X147761253Y-111139143D01*
X147775395Y-111125000D01*
X147761253Y-111110858D01*
X147940858Y-110931253D01*
X147955000Y-110945395D01*
X147969143Y-110931253D01*
X148148748Y-111110858D01*
G36*
X148148748Y-106030858D02*
X148134605Y-106045000D01*
X148148748Y-106059143D01*
X147969143Y-106238748D01*
X147955000Y-106224605D01*
X147940858Y-106238748D01*
X147761253Y-106059143D01*
X147775395Y-106045000D01*
X147761253Y-106030858D01*
X147940858Y-105851253D01*
X147955000Y-105865395D01*
X147969143Y-105851253D01*
X148148748Y-106030858D01*
X148148748Y-106030858D01*
G37*
X148148748Y-106030858D02*
X148134605Y-106045000D01*
X148148748Y-106059143D01*
X147969143Y-106238748D01*
X147955000Y-106224605D01*
X147940858Y-106238748D01*
X147761253Y-106059143D01*
X147775395Y-106045000D01*
X147761253Y-106030858D01*
X147940858Y-105851253D01*
X147955000Y-105865395D01*
X147969143Y-105851253D01*
X148148748Y-106030858D01*
G36*
X152303748Y-92135858D02*
X152289605Y-92150000D01*
X152303748Y-92164143D01*
X152124143Y-92343748D01*
X152110000Y-92329605D01*
X152095858Y-92343748D01*
X151916253Y-92164143D01*
X151930395Y-92150000D01*
X151916253Y-92135858D01*
X152095858Y-91956253D01*
X152110000Y-91970395D01*
X152124143Y-91956253D01*
X152303748Y-92135858D01*
X152303748Y-92135858D01*
G37*
X152303748Y-92135858D02*
X152289605Y-92150000D01*
X152303748Y-92164143D01*
X152124143Y-92343748D01*
X152110000Y-92329605D01*
X152095858Y-92343748D01*
X151916253Y-92164143D01*
X151930395Y-92150000D01*
X151916253Y-92135858D01*
X152095858Y-91956253D01*
X152110000Y-91970395D01*
X152124143Y-91956253D01*
X152303748Y-92135858D01*
G36*
X152303748Y-85635858D02*
X152289605Y-85650000D01*
X152303748Y-85664143D01*
X152124143Y-85843748D01*
X152110000Y-85829605D01*
X152095858Y-85843748D01*
X151916253Y-85664143D01*
X151930395Y-85650000D01*
X151916253Y-85635858D01*
X152095858Y-85456253D01*
X152110000Y-85470395D01*
X152124143Y-85456253D01*
X152303748Y-85635858D01*
X152303748Y-85635858D01*
G37*
X152303748Y-85635858D02*
X152289605Y-85650000D01*
X152303748Y-85664143D01*
X152124143Y-85843748D01*
X152110000Y-85829605D01*
X152095858Y-85843748D01*
X151916253Y-85664143D01*
X151930395Y-85650000D01*
X151916253Y-85635858D01*
X152095858Y-85456253D01*
X152110000Y-85470395D01*
X152124143Y-85456253D01*
X152303748Y-85635858D01*
G36*
X129930921Y-61230000D02*
X129930921Y-63230000D01*
X130009506Y-63647641D01*
X130256331Y-64031219D01*
X130632944Y-64288548D01*
X131080000Y-64379079D01*
X133080000Y-64379079D01*
X133497641Y-64300494D01*
X133718150Y-64158601D01*
X134195057Y-64356630D01*
X135041230Y-64357368D01*
X135823274Y-64034234D01*
X135889591Y-63968032D01*
X135953578Y-64032131D01*
X136735057Y-64356630D01*
X137581230Y-64357368D01*
X138363274Y-64034234D01*
X138962131Y-63436422D01*
X139286630Y-62654943D01*
X139287368Y-61808770D01*
X138964234Y-61026726D01*
X138881652Y-60944000D01*
X142489484Y-60944000D01*
X141953154Y-61165607D01*
X141178328Y-61939082D01*
X140758479Y-62950192D01*
X140757523Y-64045005D01*
X141175607Y-65056846D01*
X141949082Y-65831672D01*
X142960192Y-66251521D01*
X144055005Y-66252477D01*
X145066846Y-65834393D01*
X145841672Y-65060918D01*
X146026908Y-64614820D01*
X146135617Y-64877915D01*
X145896452Y-65227944D01*
X145805921Y-65675000D01*
X145805921Y-67334471D01*
X145712926Y-67427466D01*
X145614264Y-67160613D01*
X145004539Y-66934092D01*
X144354540Y-66958144D01*
X143865736Y-67160613D01*
X143767073Y-67427468D01*
X144740000Y-68400395D01*
X144754143Y-68386253D01*
X144933748Y-68565858D01*
X144919605Y-68580000D01*
X145892532Y-69552927D01*
X146159387Y-69454264D01*
X146312486Y-69042170D01*
X146333144Y-69600460D01*
X146403607Y-69770573D01*
X146153781Y-69931331D01*
X145896452Y-70307944D01*
X145805921Y-70755000D01*
X145805921Y-72755000D01*
X145884506Y-73172641D01*
X146131331Y-73556219D01*
X146413621Y-73749100D01*
X146309092Y-74030461D01*
X146333144Y-74680460D01*
X146535613Y-75169264D01*
X146802468Y-75267927D01*
X147775395Y-74295000D01*
X147761253Y-74280858D01*
X147940858Y-74101253D01*
X147955000Y-74115395D01*
X147969143Y-74101253D01*
X148148748Y-74280858D01*
X148134605Y-74295000D01*
X148148748Y-74309143D01*
X147969143Y-74488748D01*
X147955000Y-74474605D01*
X147406428Y-75023177D01*
X147387014Y-75031199D01*
X146788301Y-75628868D01*
X146463880Y-76410159D01*
X146463673Y-76647800D01*
X139954000Y-76647800D01*
X139444954Y-76749055D01*
X139013407Y-77037407D01*
X136664593Y-79386221D01*
X136641986Y-79272569D01*
X136224265Y-78647405D01*
X135599101Y-78229684D01*
X134861670Y-78083000D01*
X134378330Y-78083000D01*
X133640899Y-78229684D01*
X133015735Y-78647405D01*
X132598014Y-79272569D01*
X132451330Y-80010000D01*
X132598014Y-80747431D01*
X132913641Y-81219800D01*
X132715000Y-81219800D01*
X132205954Y-81321055D01*
X131774406Y-81609407D01*
X131632197Y-81751616D01*
X131231580Y-81152050D01*
X130590195Y-80723490D01*
X129833630Y-80573000D01*
X129671895Y-80573000D01*
X129987585Y-80257861D01*
X130342596Y-79402900D01*
X130343403Y-78477162D01*
X129989885Y-77621582D01*
X129903378Y-77534924D01*
X130017219Y-77461669D01*
X130274548Y-77085056D01*
X130365079Y-76638000D01*
X130365079Y-74238000D01*
X130286494Y-73820359D01*
X130039669Y-73436781D01*
X129684686Y-73194231D01*
X129854213Y-73025000D01*
X132435016Y-73025000D01*
X132586541Y-73786770D01*
X132724182Y-73992764D01*
X132545452Y-74254344D01*
X132454921Y-74701400D01*
X132454921Y-76428600D01*
X132533506Y-76846241D01*
X132780331Y-77229819D01*
X133156944Y-77487148D01*
X133604000Y-77577679D01*
X135636000Y-77577679D01*
X136053641Y-77499094D01*
X136437219Y-77252269D01*
X136694548Y-76875656D01*
X136785079Y-76428600D01*
X136785079Y-75897745D01*
X141411861Y-75897745D01*
X141485995Y-76143864D01*
X142023223Y-76336965D01*
X142593454Y-76309778D01*
X142994005Y-76143864D01*
X143068139Y-75897745D01*
X142240000Y-75069605D01*
X141411861Y-75897745D01*
X136785079Y-75897745D01*
X136785079Y-74701400D01*
X136739054Y-74456800D01*
X139065000Y-74456800D01*
X139612926Y-74347811D01*
X140077435Y-74037435D01*
X140293070Y-73821800D01*
X140507313Y-73821800D01*
X140616331Y-73991219D01*
X140954999Y-74222621D01*
X140793035Y-74673223D01*
X140820222Y-75243454D01*
X140986136Y-75644005D01*
X141232255Y-75718139D01*
X142060395Y-74890000D01*
X142046252Y-74875858D01*
X142225858Y-74696253D01*
X142240000Y-74710395D01*
X142254143Y-74696253D01*
X142433748Y-74875858D01*
X142419605Y-74890000D01*
X143247745Y-75718139D01*
X143493864Y-75644005D01*
X143686965Y-75106777D01*
X143659778Y-74536546D01*
X143526958Y-74215890D01*
X143841219Y-74013669D01*
X144098548Y-73637056D01*
X144189079Y-73190000D01*
X144189079Y-71590000D01*
X144110494Y-71172359D01*
X143863669Y-70788781D01*
X143487056Y-70531452D01*
X143040000Y-70440921D01*
X141440000Y-70440921D01*
X141022359Y-70519506D01*
X140638781Y-70766331D01*
X140507682Y-70958200D01*
X139700000Y-70958200D01*
X139152074Y-71067189D01*
X138687565Y-71377564D01*
X138471929Y-71593200D01*
X136185684Y-71593200D01*
X135930686Y-71422816D01*
X135970732Y-71387036D01*
X136224709Y-70859791D01*
X136227358Y-70844026D01*
X136106217Y-70612000D01*
X134747000Y-70612000D01*
X134747000Y-70632000D01*
X134493000Y-70632000D01*
X134493000Y-70612000D01*
X133133783Y-70612000D01*
X133012642Y-70844026D01*
X133015291Y-70859791D01*
X133269268Y-71387036D01*
X133309314Y-71422816D01*
X133018049Y-71617433D01*
X132586541Y-72263230D01*
X132435016Y-73025000D01*
X129854213Y-73025000D01*
X129987585Y-72891861D01*
X130342596Y-72036900D01*
X130343403Y-71111162D01*
X129989885Y-70255582D01*
X129860504Y-70125974D01*
X133012642Y-70125974D01*
X133133783Y-70358000D01*
X134493000Y-70358000D01*
X134493000Y-69144076D01*
X134747000Y-69144076D01*
X134747000Y-70358000D01*
X136106217Y-70358000D01*
X136227358Y-70125974D01*
X136224709Y-70110209D01*
X135970732Y-69582964D01*
X135534320Y-69193046D01*
X134985956Y-69001230D01*
X137612632Y-69001230D01*
X137935766Y-69783274D01*
X138533578Y-70382131D01*
X139315057Y-70706630D01*
X140161230Y-70707368D01*
X140943274Y-70384234D01*
X141542131Y-69786422D01*
X141564508Y-69732532D01*
X143767073Y-69732532D01*
X143865736Y-69999387D01*
X144475461Y-70225908D01*
X145125460Y-70201856D01*
X145614264Y-69999387D01*
X145712927Y-69732532D01*
X144740000Y-68759605D01*
X143767073Y-69732532D01*
X141564508Y-69732532D01*
X141866630Y-69004943D01*
X141867231Y-68315461D01*
X143094092Y-68315461D01*
X143118144Y-68965460D01*
X143320613Y-69454264D01*
X143587468Y-69552927D01*
X144560395Y-68580000D01*
X143587468Y-67607073D01*
X143320613Y-67705736D01*
X143094092Y-68315461D01*
X141867231Y-68315461D01*
X141867368Y-68158770D01*
X141544234Y-67376726D01*
X140946422Y-66777869D01*
X140164943Y-66453370D01*
X139318770Y-66452632D01*
X138536726Y-66775766D01*
X137937869Y-67373578D01*
X137613370Y-68155057D01*
X137612632Y-69001230D01*
X134985956Y-69001230D01*
X134981913Y-68999816D01*
X134747000Y-69144076D01*
X134493000Y-69144076D01*
X134258087Y-68999816D01*
X133705680Y-69193046D01*
X133269268Y-69582964D01*
X133015291Y-70110209D01*
X133012642Y-70125974D01*
X129860504Y-70125974D01*
X129554268Y-69819204D01*
X129575699Y-69810327D01*
X129754327Y-69631698D01*
X129851000Y-69398309D01*
X129851000Y-68357750D01*
X129692250Y-68199000D01*
X128143000Y-68199000D01*
X128143000Y-68219000D01*
X127889000Y-68219000D01*
X127889000Y-68199000D01*
X126339750Y-68199000D01*
X126181000Y-68357750D01*
X126181000Y-69398309D01*
X126277673Y-69631698D01*
X126456301Y-69810327D01*
X126477997Y-69819314D01*
X126044415Y-70252139D01*
X125689404Y-71107100D01*
X125688597Y-72032838D01*
X126042115Y-72888418D01*
X126351084Y-73197927D01*
X126014781Y-73414331D01*
X125757452Y-73790944D01*
X125666921Y-74238000D01*
X125666921Y-76638000D01*
X125745506Y-77055641D01*
X125992331Y-77439219D01*
X126129654Y-77533048D01*
X126044415Y-77618139D01*
X125689404Y-78473100D01*
X125688597Y-79398838D01*
X126042115Y-80254418D01*
X126696139Y-80909585D01*
X127551100Y-81264596D01*
X127773090Y-81264790D01*
X127419860Y-81793435D01*
X127281345Y-82489800D01*
X127120000Y-82489800D01*
X126610954Y-82591055D01*
X126279129Y-82812775D01*
X126264234Y-82776726D01*
X125666422Y-82177869D01*
X125421649Y-82076230D01*
X125422155Y-81496902D01*
X125198847Y-80956456D01*
X124785719Y-80542606D01*
X124245664Y-80318356D01*
X123660902Y-80317845D01*
X123174000Y-80519029D01*
X123174000Y-66745691D01*
X126181000Y-66745691D01*
X126181000Y-67786250D01*
X126339750Y-67945000D01*
X127889000Y-67945000D01*
X127889000Y-66395750D01*
X128143000Y-66395750D01*
X128143000Y-67945000D01*
X129692250Y-67945000D01*
X129851000Y-67786250D01*
X129851000Y-66745691D01*
X129754327Y-66512302D01*
X129575699Y-66333673D01*
X129342310Y-66237000D01*
X128301750Y-66237000D01*
X128143000Y-66395750D01*
X127889000Y-66395750D01*
X127730250Y-66237000D01*
X126689690Y-66237000D01*
X126456301Y-66333673D01*
X126277673Y-66512302D01*
X126181000Y-66745691D01*
X123174000Y-66745691D01*
X123174000Y-64520516D01*
X123395607Y-65056846D01*
X124169082Y-65831672D01*
X125180192Y-66251521D01*
X126275005Y-66252477D01*
X127286846Y-65834393D01*
X128061672Y-65060918D01*
X128481521Y-64049808D01*
X128482477Y-62954995D01*
X128064393Y-61943154D01*
X127290918Y-61168328D01*
X126750675Y-60944000D01*
X129988837Y-60944000D01*
X129930921Y-61230000D01*
X129930921Y-61230000D01*
G37*
X129930921Y-61230000D02*
X129930921Y-63230000D01*
X130009506Y-63647641D01*
X130256331Y-64031219D01*
X130632944Y-64288548D01*
X131080000Y-64379079D01*
X133080000Y-64379079D01*
X133497641Y-64300494D01*
X133718150Y-64158601D01*
X134195057Y-64356630D01*
X135041230Y-64357368D01*
X135823274Y-64034234D01*
X135889591Y-63968032D01*
X135953578Y-64032131D01*
X136735057Y-64356630D01*
X137581230Y-64357368D01*
X138363274Y-64034234D01*
X138962131Y-63436422D01*
X139286630Y-62654943D01*
X139287368Y-61808770D01*
X138964234Y-61026726D01*
X138881652Y-60944000D01*
X142489484Y-60944000D01*
X141953154Y-61165607D01*
X141178328Y-61939082D01*
X140758479Y-62950192D01*
X140757523Y-64045005D01*
X141175607Y-65056846D01*
X141949082Y-65831672D01*
X142960192Y-66251521D01*
X144055005Y-66252477D01*
X145066846Y-65834393D01*
X145841672Y-65060918D01*
X146026908Y-64614820D01*
X146135617Y-64877915D01*
X145896452Y-65227944D01*
X145805921Y-65675000D01*
X145805921Y-67334471D01*
X145712926Y-67427466D01*
X145614264Y-67160613D01*
X145004539Y-66934092D01*
X144354540Y-66958144D01*
X143865736Y-67160613D01*
X143767073Y-67427468D01*
X144740000Y-68400395D01*
X144754143Y-68386253D01*
X144933748Y-68565858D01*
X144919605Y-68580000D01*
X145892532Y-69552927D01*
X146159387Y-69454264D01*
X146312486Y-69042170D01*
X146333144Y-69600460D01*
X146403607Y-69770573D01*
X146153781Y-69931331D01*
X145896452Y-70307944D01*
X145805921Y-70755000D01*
X145805921Y-72755000D01*
X145884506Y-73172641D01*
X146131331Y-73556219D01*
X146413621Y-73749100D01*
X146309092Y-74030461D01*
X146333144Y-74680460D01*
X146535613Y-75169264D01*
X146802468Y-75267927D01*
X147775395Y-74295000D01*
X147761253Y-74280858D01*
X147940858Y-74101253D01*
X147955000Y-74115395D01*
X147969143Y-74101253D01*
X148148748Y-74280858D01*
X148134605Y-74295000D01*
X148148748Y-74309143D01*
X147969143Y-74488748D01*
X147955000Y-74474605D01*
X147406428Y-75023177D01*
X147387014Y-75031199D01*
X146788301Y-75628868D01*
X146463880Y-76410159D01*
X146463673Y-76647800D01*
X139954000Y-76647800D01*
X139444954Y-76749055D01*
X139013407Y-77037407D01*
X136664593Y-79386221D01*
X136641986Y-79272569D01*
X136224265Y-78647405D01*
X135599101Y-78229684D01*
X134861670Y-78083000D01*
X134378330Y-78083000D01*
X133640899Y-78229684D01*
X133015735Y-78647405D01*
X132598014Y-79272569D01*
X132451330Y-80010000D01*
X132598014Y-80747431D01*
X132913641Y-81219800D01*
X132715000Y-81219800D01*
X132205954Y-81321055D01*
X131774406Y-81609407D01*
X131632197Y-81751616D01*
X131231580Y-81152050D01*
X130590195Y-80723490D01*
X129833630Y-80573000D01*
X129671895Y-80573000D01*
X129987585Y-80257861D01*
X130342596Y-79402900D01*
X130343403Y-78477162D01*
X129989885Y-77621582D01*
X129903378Y-77534924D01*
X130017219Y-77461669D01*
X130274548Y-77085056D01*
X130365079Y-76638000D01*
X130365079Y-74238000D01*
X130286494Y-73820359D01*
X130039669Y-73436781D01*
X129684686Y-73194231D01*
X129854213Y-73025000D01*
X132435016Y-73025000D01*
X132586541Y-73786770D01*
X132724182Y-73992764D01*
X132545452Y-74254344D01*
X132454921Y-74701400D01*
X132454921Y-76428600D01*
X132533506Y-76846241D01*
X132780331Y-77229819D01*
X133156944Y-77487148D01*
X133604000Y-77577679D01*
X135636000Y-77577679D01*
X136053641Y-77499094D01*
X136437219Y-77252269D01*
X136694548Y-76875656D01*
X136785079Y-76428600D01*
X136785079Y-75897745D01*
X141411861Y-75897745D01*
X141485995Y-76143864D01*
X142023223Y-76336965D01*
X142593454Y-76309778D01*
X142994005Y-76143864D01*
X143068139Y-75897745D01*
X142240000Y-75069605D01*
X141411861Y-75897745D01*
X136785079Y-75897745D01*
X136785079Y-74701400D01*
X136739054Y-74456800D01*
X139065000Y-74456800D01*
X139612926Y-74347811D01*
X140077435Y-74037435D01*
X140293070Y-73821800D01*
X140507313Y-73821800D01*
X140616331Y-73991219D01*
X140954999Y-74222621D01*
X140793035Y-74673223D01*
X140820222Y-75243454D01*
X140986136Y-75644005D01*
X141232255Y-75718139D01*
X142060395Y-74890000D01*
X142046252Y-74875858D01*
X142225858Y-74696253D01*
X142240000Y-74710395D01*
X142254143Y-74696253D01*
X142433748Y-74875858D01*
X142419605Y-74890000D01*
X143247745Y-75718139D01*
X143493864Y-75644005D01*
X143686965Y-75106777D01*
X143659778Y-74536546D01*
X143526958Y-74215890D01*
X143841219Y-74013669D01*
X144098548Y-73637056D01*
X144189079Y-73190000D01*
X144189079Y-71590000D01*
X144110494Y-71172359D01*
X143863669Y-70788781D01*
X143487056Y-70531452D01*
X143040000Y-70440921D01*
X141440000Y-70440921D01*
X141022359Y-70519506D01*
X140638781Y-70766331D01*
X140507682Y-70958200D01*
X139700000Y-70958200D01*
X139152074Y-71067189D01*
X138687565Y-71377564D01*
X138471929Y-71593200D01*
X136185684Y-71593200D01*
X135930686Y-71422816D01*
X135970732Y-71387036D01*
X136224709Y-70859791D01*
X136227358Y-70844026D01*
X136106217Y-70612000D01*
X134747000Y-70612000D01*
X134747000Y-70632000D01*
X134493000Y-70632000D01*
X134493000Y-70612000D01*
X133133783Y-70612000D01*
X133012642Y-70844026D01*
X133015291Y-70859791D01*
X133269268Y-71387036D01*
X133309314Y-71422816D01*
X133018049Y-71617433D01*
X132586541Y-72263230D01*
X132435016Y-73025000D01*
X129854213Y-73025000D01*
X129987585Y-72891861D01*
X130342596Y-72036900D01*
X130343403Y-71111162D01*
X129989885Y-70255582D01*
X129860504Y-70125974D01*
X133012642Y-70125974D01*
X133133783Y-70358000D01*
X134493000Y-70358000D01*
X134493000Y-69144076D01*
X134747000Y-69144076D01*
X134747000Y-70358000D01*
X136106217Y-70358000D01*
X136227358Y-70125974D01*
X136224709Y-70110209D01*
X135970732Y-69582964D01*
X135534320Y-69193046D01*
X134985956Y-69001230D01*
X137612632Y-69001230D01*
X137935766Y-69783274D01*
X138533578Y-70382131D01*
X139315057Y-70706630D01*
X140161230Y-70707368D01*
X140943274Y-70384234D01*
X141542131Y-69786422D01*
X141564508Y-69732532D01*
X143767073Y-69732532D01*
X143865736Y-69999387D01*
X144475461Y-70225908D01*
X145125460Y-70201856D01*
X145614264Y-69999387D01*
X145712927Y-69732532D01*
X144740000Y-68759605D01*
X143767073Y-69732532D01*
X141564508Y-69732532D01*
X141866630Y-69004943D01*
X141867231Y-68315461D01*
X143094092Y-68315461D01*
X143118144Y-68965460D01*
X143320613Y-69454264D01*
X143587468Y-69552927D01*
X144560395Y-68580000D01*
X143587468Y-67607073D01*
X143320613Y-67705736D01*
X143094092Y-68315461D01*
X141867231Y-68315461D01*
X141867368Y-68158770D01*
X141544234Y-67376726D01*
X140946422Y-66777869D01*
X140164943Y-66453370D01*
X139318770Y-66452632D01*
X138536726Y-66775766D01*
X137937869Y-67373578D01*
X137613370Y-68155057D01*
X137612632Y-69001230D01*
X134985956Y-69001230D01*
X134981913Y-68999816D01*
X134747000Y-69144076D01*
X134493000Y-69144076D01*
X134258087Y-68999816D01*
X133705680Y-69193046D01*
X133269268Y-69582964D01*
X133015291Y-70110209D01*
X133012642Y-70125974D01*
X129860504Y-70125974D01*
X129554268Y-69819204D01*
X129575699Y-69810327D01*
X129754327Y-69631698D01*
X129851000Y-69398309D01*
X129851000Y-68357750D01*
X129692250Y-68199000D01*
X128143000Y-68199000D01*
X128143000Y-68219000D01*
X127889000Y-68219000D01*
X127889000Y-68199000D01*
X126339750Y-68199000D01*
X126181000Y-68357750D01*
X126181000Y-69398309D01*
X126277673Y-69631698D01*
X126456301Y-69810327D01*
X126477997Y-69819314D01*
X126044415Y-70252139D01*
X125689404Y-71107100D01*
X125688597Y-72032838D01*
X126042115Y-72888418D01*
X126351084Y-73197927D01*
X126014781Y-73414331D01*
X125757452Y-73790944D01*
X125666921Y-74238000D01*
X125666921Y-76638000D01*
X125745506Y-77055641D01*
X125992331Y-77439219D01*
X126129654Y-77533048D01*
X126044415Y-77618139D01*
X125689404Y-78473100D01*
X125688597Y-79398838D01*
X126042115Y-80254418D01*
X126696139Y-80909585D01*
X127551100Y-81264596D01*
X127773090Y-81264790D01*
X127419860Y-81793435D01*
X127281345Y-82489800D01*
X127120000Y-82489800D01*
X126610954Y-82591055D01*
X126279129Y-82812775D01*
X126264234Y-82776726D01*
X125666422Y-82177869D01*
X125421649Y-82076230D01*
X125422155Y-81496902D01*
X125198847Y-80956456D01*
X124785719Y-80542606D01*
X124245664Y-80318356D01*
X123660902Y-80317845D01*
X123174000Y-80519029D01*
X123174000Y-66745691D01*
X126181000Y-66745691D01*
X126181000Y-67786250D01*
X126339750Y-67945000D01*
X127889000Y-67945000D01*
X127889000Y-66395750D01*
X128143000Y-66395750D01*
X128143000Y-67945000D01*
X129692250Y-67945000D01*
X129851000Y-67786250D01*
X129851000Y-66745691D01*
X129754327Y-66512302D01*
X129575699Y-66333673D01*
X129342310Y-66237000D01*
X128301750Y-66237000D01*
X128143000Y-66395750D01*
X127889000Y-66395750D01*
X127730250Y-66237000D01*
X126689690Y-66237000D01*
X126456301Y-66333673D01*
X126277673Y-66512302D01*
X126181000Y-66745691D01*
X123174000Y-66745691D01*
X123174000Y-64520516D01*
X123395607Y-65056846D01*
X124169082Y-65831672D01*
X125180192Y-66251521D01*
X126275005Y-66252477D01*
X127286846Y-65834393D01*
X128061672Y-65060918D01*
X128481521Y-64049808D01*
X128482477Y-62954995D01*
X128064393Y-61943154D01*
X127290918Y-61168328D01*
X126750675Y-60944000D01*
X129988837Y-60944000D01*
X129930921Y-61230000D01*
G36*
X146035452Y-80860638D02*
X145830195Y-80723490D01*
X145073630Y-80573000D01*
X144486370Y-80573000D01*
X143729805Y-80723490D01*
X143623453Y-80794552D01*
X143821442Y-80416730D01*
X143831904Y-80359039D01*
X143709915Y-80137000D01*
X142367000Y-80137000D01*
X142367000Y-80157000D01*
X142113000Y-80157000D01*
X142113000Y-80137000D01*
X142093000Y-80137000D01*
X142093000Y-79943200D01*
X145118014Y-79943200D01*
X146035452Y-80860638D01*
X146035452Y-80860638D01*
G37*
X146035452Y-80860638D02*
X145830195Y-80723490D01*
X145073630Y-80573000D01*
X144486370Y-80573000D01*
X143729805Y-80723490D01*
X143623453Y-80794552D01*
X143821442Y-80416730D01*
X143831904Y-80359039D01*
X143709915Y-80137000D01*
X142367000Y-80137000D01*
X142367000Y-80157000D01*
X142113000Y-80157000D01*
X142113000Y-80137000D01*
X142093000Y-80137000D01*
X142093000Y-79943200D01*
X145118014Y-79943200D01*
X146035452Y-80860638D01*
G36*
X148148748Y-69200858D02*
X148134605Y-69215000D01*
X148148748Y-69229143D01*
X147969143Y-69408748D01*
X147955000Y-69394605D01*
X147940858Y-69408748D01*
X147761253Y-69229143D01*
X147775395Y-69215000D01*
X147761253Y-69200858D01*
X147940858Y-69021253D01*
X147955000Y-69035395D01*
X147969143Y-69021253D01*
X148148748Y-69200858D01*
X148148748Y-69200858D01*
G37*
X148148748Y-69200858D02*
X148134605Y-69215000D01*
X148148748Y-69229143D01*
X147969143Y-69408748D01*
X147955000Y-69394605D01*
X147940858Y-69408748D01*
X147761253Y-69229143D01*
X147775395Y-69215000D01*
X147761253Y-69200858D01*
X147940858Y-69021253D01*
X147955000Y-69035395D01*
X147969143Y-69021253D01*
X148148748Y-69200858D01*
G36*
X146481800Y-61309250D02*
X146640550Y-61468000D01*
X147828000Y-61468000D01*
X147828000Y-61448000D01*
X148082000Y-61448000D01*
X148082000Y-61468000D01*
X149269450Y-61468000D01*
X149428200Y-61309250D01*
X149428200Y-60944000D01*
X149736491Y-60944000D01*
X150828738Y-61161262D01*
X151649993Y-61710007D01*
X152198739Y-62531262D01*
X152416000Y-63623509D01*
X152416000Y-68230790D01*
X152358945Y-67943954D01*
X152179235Y-67675000D01*
X152070594Y-67512407D01*
X150292593Y-65734407D01*
X150089755Y-65598874D01*
X150025494Y-65257359D01*
X149778669Y-64873781D01*
X149776682Y-64872424D01*
X149919859Y-64527617D01*
X149920541Y-63745812D01*
X149621987Y-63023258D01*
X149349269Y-62750064D01*
X149428200Y-62559509D01*
X149428200Y-61880750D01*
X149269450Y-61722000D01*
X148082000Y-61722000D01*
X148082000Y-61742000D01*
X147828000Y-61742000D01*
X147828000Y-61722000D01*
X146640550Y-61722000D01*
X146481800Y-61880750D01*
X146481800Y-62559509D01*
X146560726Y-62750052D01*
X146289956Y-63020350D01*
X146262362Y-63086804D01*
X146262477Y-62954995D01*
X145844393Y-61943154D01*
X145070918Y-61168328D01*
X144530675Y-60944000D01*
X146481800Y-60944000D01*
X146481800Y-61309250D01*
X146481800Y-61309250D01*
G37*
X146481800Y-61309250D02*
X146640550Y-61468000D01*
X147828000Y-61468000D01*
X147828000Y-61448000D01*
X148082000Y-61448000D01*
X148082000Y-61468000D01*
X149269450Y-61468000D01*
X149428200Y-61309250D01*
X149428200Y-60944000D01*
X149736491Y-60944000D01*
X150828738Y-61161262D01*
X151649993Y-61710007D01*
X152198739Y-62531262D01*
X152416000Y-63623509D01*
X152416000Y-68230790D01*
X152358945Y-67943954D01*
X152179235Y-67675000D01*
X152070594Y-67512407D01*
X150292593Y-65734407D01*
X150089755Y-65598874D01*
X150025494Y-65257359D01*
X149778669Y-64873781D01*
X149776682Y-64872424D01*
X149919859Y-64527617D01*
X149920541Y-63745812D01*
X149621987Y-63023258D01*
X149349269Y-62750064D01*
X149428200Y-62559509D01*
X149428200Y-61880750D01*
X149269450Y-61722000D01*
X148082000Y-61722000D01*
X148082000Y-61742000D01*
X147828000Y-61742000D01*
X147828000Y-61722000D01*
X146640550Y-61722000D01*
X146481800Y-61880750D01*
X146481800Y-62559509D01*
X146560726Y-62750052D01*
X146289956Y-63020350D01*
X146262362Y-63086804D01*
X146262477Y-62954995D01*
X145844393Y-61943154D01*
X145070918Y-61168328D01*
X144530675Y-60944000D01*
X146481800Y-60944000D01*
X146481800Y-61309250D01*
M02*
