G04 #@! TF.FileFunction,Copper,L2,Bot,Signal*
%FSLAX46Y46*%
G04 Gerber Fmt 4.6, Leading zero omitted, Abs format (unit mm)*
G04 Created by KiCad (PCBNEW 4.0.6) date 02/13/20 12:12:51*
%MOMM*%
%LPD*%
G01*
G04 APERTURE LIST*
%ADD10C,0.100000*%
%ADD11R,2.000000X2.000000*%
%ADD12C,2.000000*%
%ADD13R,2.032000X1.727200*%
%ADD14O,2.032000X1.727200*%
%ADD15O,2.200000X1.700000*%
%ADD16C,1.676400*%
%ADD17R,1.800000X1.800000*%
%ADD18C,1.800000*%
%ADD19O,2.000000X1.600000*%
%ADD20C,1.600000*%
%ADD21R,1.600000X1.600000*%
%ADD22C,2.400000*%
%ADD23R,2.400000X2.400000*%
%ADD24R,0.400000X0.600000*%
%ADD25C,1.998980*%
%ADD26C,0.685800*%
%ADD27C,0.609600*%
%ADD28C,0.406400*%
%ADD29C,0.304800*%
%ADD30C,0.254000*%
G04 APERTURE END LIST*
D10*
D11*
X124460000Y-111760000D03*
D12*
X124460000Y-109260000D03*
X124460000Y-106760000D03*
X124460000Y-104260000D03*
X124460000Y-101760000D03*
D13*
X134620000Y-74930000D03*
D14*
X134620000Y-72390000D03*
X134620000Y-69850000D03*
D15*
X129540000Y-115570000D03*
X129540000Y-113030000D03*
X129540000Y-110490000D03*
X129540000Y-107950000D03*
X129540000Y-105410000D03*
X129540000Y-102870000D03*
X129540000Y-100330000D03*
X129540000Y-97790000D03*
X129540000Y-95250000D03*
X129540000Y-92710000D03*
X129540000Y-90170000D03*
X129540000Y-87630000D03*
X129540000Y-85090000D03*
X129540000Y-82550000D03*
D12*
X139359000Y-67945000D03*
X144359000Y-67945000D03*
X147955000Y-111125000D03*
D11*
X147955000Y-108585000D03*
D16*
X147955000Y-64135000D03*
X147955000Y-61595000D03*
D17*
X133350000Y-106680000D03*
D18*
X135850000Y-106680000D03*
D11*
X132715000Y-111125000D03*
D12*
X132715000Y-113625000D03*
D19*
X142240000Y-100330000D03*
X142240000Y-97790000D03*
X142240000Y-95250000D03*
X142240000Y-92710000D03*
X142240000Y-90170000D03*
X142240000Y-87630000D03*
X142240000Y-85090000D03*
X142240000Y-82550000D03*
X142240000Y-80010000D03*
X134620000Y-80010000D03*
X134620000Y-82550000D03*
X134620000Y-85090000D03*
X134620000Y-87630000D03*
X134620000Y-90170000D03*
X134620000Y-92710000D03*
X134620000Y-95250000D03*
X134620000Y-97790000D03*
X134620000Y-100330000D03*
D20*
X142240000Y-74890000D03*
D21*
X142240000Y-72390000D03*
D11*
X132080000Y-62230000D03*
D12*
X134620000Y-62230000D03*
X137160000Y-62230000D03*
D22*
X128016000Y-71572000D03*
D23*
X128016000Y-68072000D03*
D22*
X128016000Y-78938000D03*
D23*
X128016000Y-75438000D03*
D12*
X147610000Y-85650000D03*
X152110000Y-85650000D03*
X147610000Y-92150000D03*
X152110000Y-92150000D03*
D24*
X136964000Y-66040000D03*
X137864000Y-66040000D03*
D16*
X147955000Y-116205000D03*
X147955000Y-113665000D03*
D12*
X147955000Y-106045000D03*
D11*
X147955000Y-103505000D03*
D12*
X147955000Y-69215000D03*
D11*
X147955000Y-66675000D03*
D12*
X147955000Y-74295000D03*
D11*
X147955000Y-71755000D03*
D25*
X139065000Y-111125000D03*
X139065000Y-104775000D03*
X141605000Y-111125000D03*
X141605000Y-104775000D03*
X151130000Y-83185000D03*
X151130000Y-76835000D03*
X148590000Y-83185000D03*
X148590000Y-76835000D03*
X151130000Y-94615000D03*
X151130000Y-100965000D03*
X148590000Y-94615000D03*
X148590000Y-100965000D03*
D15*
X144780000Y-115570000D03*
X144780000Y-113030000D03*
X144780000Y-110490000D03*
X144780000Y-107950000D03*
X144780000Y-105410000D03*
X144780000Y-102870000D03*
X144780000Y-100330000D03*
X144780000Y-97790000D03*
X144780000Y-95250000D03*
X144780000Y-92710000D03*
X144780000Y-90170000D03*
X144780000Y-87630000D03*
X144780000Y-85090000D03*
X144780000Y-82550000D03*
D11*
X124460000Y-93980000D03*
D12*
X124460000Y-91480000D03*
X124460000Y-88980000D03*
X124460000Y-86480000D03*
X124460000Y-83980000D03*
D26*
X123952000Y-81788000D03*
D27*
X132715000Y-113625000D02*
X133644000Y-113625000D01*
X133644000Y-113625000D02*
X135850000Y-111419000D01*
X135850000Y-111419000D02*
X135850000Y-106680000D01*
X147955000Y-69215000D02*
X145629000Y-69215000D01*
X145629000Y-69215000D02*
X144359000Y-67945000D01*
X134620000Y-69850000D02*
X142454000Y-69850000D01*
X142454000Y-69850000D02*
X144359000Y-67945000D01*
X147955000Y-113665000D02*
X147955000Y-111125000D01*
X147955000Y-111125000D02*
X148590000Y-111125000D01*
X148590000Y-111125000D02*
X150495000Y-109220000D01*
X149225000Y-106045000D02*
X147955000Y-106045000D01*
X150495000Y-107315000D02*
X149225000Y-106045000D01*
X150495000Y-109220000D02*
X150495000Y-107315000D01*
X132715000Y-113625000D02*
X132715000Y-113538000D01*
D28*
X144359000Y-67945000D02*
X144145000Y-67945000D01*
X147955000Y-106045000D02*
X147320000Y-106045000D01*
X147955000Y-69215000D02*
X147320000Y-69215000D01*
X147447000Y-106045000D02*
X147955000Y-106045000D01*
D27*
X132715000Y-113625000D02*
X132755000Y-113625000D01*
X134620000Y-69850000D02*
X132715000Y-69850000D01*
X132715000Y-69850000D02*
X130937000Y-68072000D01*
X130937000Y-68072000D02*
X128016000Y-68072000D01*
D28*
X147701000Y-61595000D02*
X147955000Y-61595000D01*
X129540000Y-100330000D02*
X131826000Y-100330000D01*
X137160000Y-97790000D02*
X142240000Y-97790000D01*
X135890000Y-99060000D02*
X137160000Y-97790000D01*
X133096000Y-99060000D02*
X135890000Y-99060000D01*
X131826000Y-100330000D02*
X133096000Y-99060000D01*
X146685000Y-95885000D02*
X146685000Y-98044000D01*
X146685000Y-95885000D02*
X146685000Y-93075000D01*
X147610000Y-92150000D02*
X146685000Y-93075000D01*
X145669000Y-99060000D02*
X138430000Y-99060000D01*
X146685000Y-98044000D02*
X145669000Y-99060000D01*
X129540000Y-105410000D02*
X130810000Y-105410000D01*
X135255000Y-102235000D02*
X138430000Y-99060000D01*
X133985000Y-102235000D02*
X135255000Y-102235000D01*
X130810000Y-105410000D02*
X133985000Y-102235000D01*
X129540000Y-107950000D02*
X133096000Y-104394000D01*
X138557000Y-100330000D02*
X142240000Y-100330000D01*
X134493000Y-104394000D02*
X138557000Y-100330000D01*
X133096000Y-104394000D02*
X134493000Y-104394000D01*
X124460000Y-109260000D02*
X125944000Y-109260000D01*
X127635000Y-99695000D02*
X128270000Y-99060000D01*
X132715000Y-97790000D02*
X134620000Y-97790000D01*
X131445000Y-99060000D02*
X128270000Y-99060000D01*
X132715000Y-97790000D02*
X131445000Y-99060000D01*
X127635000Y-104013000D02*
X127635000Y-99695000D01*
X127000000Y-104648000D02*
X127635000Y-104013000D01*
X127000000Y-108204000D02*
X127000000Y-104648000D01*
X125944000Y-109260000D02*
X127000000Y-108204000D01*
X128905000Y-104140000D02*
X128397000Y-104140000D01*
X127635000Y-109855000D02*
X125730000Y-111760000D01*
X124460000Y-111760000D02*
X125730000Y-111760000D01*
X132080000Y-102870000D02*
X134620000Y-100330000D01*
X132080000Y-102870000D02*
X130810000Y-104140000D01*
X130810000Y-104140000D02*
X128905000Y-104140000D01*
X127635000Y-105410000D02*
X127635000Y-109855000D01*
X127635000Y-104902000D02*
X127635000Y-105410000D01*
X128397000Y-104140000D02*
X127635000Y-104902000D01*
X124460000Y-91480000D02*
X125690000Y-91480000D01*
X133413500Y-87566500D02*
X134620000Y-87630000D01*
X132143500Y-88836500D02*
X133413500Y-87566500D01*
X128270000Y-88900000D02*
X132143500Y-88836500D01*
X125690000Y-91480000D02*
X128270000Y-88900000D01*
X124500000Y-91440000D02*
X124460000Y-91480000D01*
X124500000Y-91440000D02*
X124460000Y-91480000D01*
X134620000Y-90170000D02*
X132715000Y-90170000D01*
X125730000Y-93980000D02*
X124460000Y-93980000D01*
X128270000Y-91440000D02*
X125730000Y-93980000D01*
X131445000Y-91440000D02*
X128270000Y-91440000D01*
X132715000Y-90170000D02*
X131445000Y-91440000D01*
X127000000Y-98425000D02*
X127000000Y-97790000D01*
X134620000Y-95250000D02*
X132715000Y-95250000D01*
X128270000Y-96520000D02*
X127635000Y-97155000D01*
X131445000Y-96520000D02*
X128270000Y-96520000D01*
X132715000Y-95250000D02*
X131445000Y-96520000D01*
X125523000Y-106760000D02*
X126365000Y-105918000D01*
X126365000Y-105918000D02*
X126365000Y-104394000D01*
X126365000Y-104394000D02*
X127000000Y-103759000D01*
X127000000Y-103759000D02*
X127000000Y-98425000D01*
X125523000Y-106760000D02*
X124460000Y-106760000D01*
X127000000Y-97790000D02*
X127635000Y-97155000D01*
X124460000Y-106680000D02*
X124460000Y-106720000D01*
X124460000Y-106680000D02*
X124460000Y-106720000D01*
X124460000Y-104260000D02*
X124721000Y-104260000D01*
X124721000Y-104260000D02*
X126365000Y-102616000D01*
X132842000Y-92710000D02*
X134620000Y-92710000D01*
X131572000Y-93980000D02*
X132842000Y-92710000D01*
X128270000Y-93980000D02*
X131572000Y-93980000D01*
X127635000Y-94615000D02*
X128270000Y-93980000D01*
X127635000Y-96266000D02*
X127635000Y-94615000D01*
X126365000Y-97536000D02*
X127635000Y-96266000D01*
X126365000Y-102616000D02*
X126365000Y-97536000D01*
X124460000Y-104260000D02*
X125229000Y-104260000D01*
X124460000Y-104140000D02*
X124460000Y-104220000D01*
X134620000Y-85090000D02*
X133350000Y-85090000D01*
X127080000Y-86360000D02*
X124460000Y-88980000D01*
X132080000Y-86360000D02*
X127080000Y-86360000D01*
X133350000Y-85090000D02*
X132080000Y-86360000D01*
X134620000Y-82550000D02*
X132715000Y-82550000D01*
X127120000Y-83820000D02*
X124460000Y-86480000D01*
X131445000Y-83820000D02*
X127120000Y-83820000D01*
X132715000Y-82550000D02*
X131445000Y-83820000D01*
X142240000Y-95250000D02*
X144780000Y-95250000D01*
X142240000Y-92710000D02*
X144780000Y-92710000D01*
X144780000Y-105410000D02*
X144018000Y-105410000D01*
X144018000Y-105410000D02*
X143129000Y-106299000D01*
X143129000Y-106299000D02*
X143129000Y-112903000D01*
X143129000Y-112903000D02*
X140335000Y-115697000D01*
X122809000Y-82931000D02*
X123952000Y-81788000D01*
X122809000Y-113538000D02*
X122809000Y-82931000D01*
X126492000Y-117221000D02*
X122809000Y-113538000D01*
X138811000Y-117221000D02*
X126492000Y-117221000D01*
X140335000Y-115697000D02*
X138811000Y-117221000D01*
X149733000Y-93091000D02*
X149733000Y-93218000D01*
X149733000Y-93091000D02*
X149733000Y-84582000D01*
X151130000Y-83185000D02*
X149733000Y-84582000D01*
X149733000Y-93218000D02*
X151130000Y-94615000D01*
X136906000Y-81788000D02*
X136906000Y-81026000D01*
X129540000Y-92710000D02*
X131572000Y-92710000D01*
X136906000Y-90297000D02*
X136906000Y-81788000D01*
X135763000Y-91440000D02*
X136906000Y-90297000D01*
X132842000Y-91440000D02*
X135763000Y-91440000D01*
X131572000Y-92710000D02*
X132842000Y-91440000D01*
X146685000Y-77978000D02*
X151130000Y-82423000D01*
X139954000Y-77978000D02*
X146685000Y-77978000D01*
X136906000Y-81026000D02*
X139954000Y-77978000D01*
X151130000Y-82423000D02*
X151130000Y-83185000D01*
X147955000Y-108585000D02*
X148590000Y-108585000D01*
X148590000Y-76835000D02*
X148590000Y-76708000D01*
X148590000Y-76708000D02*
X149860000Y-75438000D01*
X149860000Y-75438000D02*
X149860000Y-72771000D01*
X149860000Y-72771000D02*
X148844000Y-71755000D01*
X148844000Y-71755000D02*
X147955000Y-71755000D01*
X147955000Y-103505000D02*
X147447000Y-103505000D01*
X151130000Y-76835000D02*
X151130000Y-68453000D01*
X149352000Y-66675000D02*
X147955000Y-66675000D01*
X151130000Y-68453000D02*
X149352000Y-66675000D01*
X129540000Y-97790000D02*
X131445000Y-97790000D01*
X140335000Y-82550000D02*
X142240000Y-82550000D01*
X139065000Y-83820000D02*
X140335000Y-82550000D01*
X139065000Y-93980000D02*
X139065000Y-83820000D01*
X136525000Y-96520000D02*
X139065000Y-93980000D01*
X132715000Y-96520000D02*
X136525000Y-96520000D01*
X131445000Y-97790000D02*
X132715000Y-96520000D01*
X146304000Y-107315000D02*
X146304000Y-104902000D01*
X147955000Y-116205000D02*
X146304000Y-114554000D01*
X146304000Y-112395000D02*
X146304000Y-114554000D01*
X146304000Y-112395000D02*
X146304000Y-107315000D01*
X145542000Y-104140000D02*
X142240000Y-104140000D01*
X146304000Y-104902000D02*
X145542000Y-104140000D01*
X142240000Y-104140000D02*
X141605000Y-104775000D01*
X147955000Y-116205000D02*
X147574000Y-116205000D01*
X147955000Y-116205000D02*
X148463000Y-116205000D01*
X144526000Y-66040000D02*
X144653000Y-66040000D01*
X144653000Y-66040000D02*
X146558000Y-64135000D01*
X146558000Y-64135000D02*
X147955000Y-64135000D01*
X137864000Y-66040000D02*
X144526000Y-66040000D01*
X147701000Y-64135000D02*
X147955000Y-64135000D01*
D29*
X132715000Y-111125000D02*
X132715000Y-107315000D01*
X132715000Y-107315000D02*
X133350000Y-106680000D01*
X129540000Y-115570000D02*
X130048000Y-115570000D01*
X130048000Y-115570000D02*
X131191000Y-114427000D01*
X131191000Y-112649000D02*
X132715000Y-111125000D01*
X131191000Y-114427000D02*
X131191000Y-112649000D01*
D28*
X134620000Y-72390000D02*
X142240000Y-72390000D01*
X142240000Y-90170000D02*
X144780000Y-90170000D01*
X142240000Y-87630000D02*
X144780000Y-87630000D01*
X142240000Y-85090000D02*
X144780000Y-85090000D01*
X137795000Y-83185000D02*
X137795000Y-81153000D01*
X129540000Y-95250000D02*
X131445000Y-95250000D01*
X137795000Y-91440000D02*
X137795000Y-83185000D01*
X135255000Y-93980000D02*
X137795000Y-91440000D01*
X132715000Y-93980000D02*
X135255000Y-93980000D01*
X131445000Y-95250000D02*
X132715000Y-93980000D01*
X148590000Y-81534000D02*
X148590000Y-83185000D01*
X145669000Y-78613000D02*
X148590000Y-81534000D01*
X140335000Y-78613000D02*
X145669000Y-78613000D01*
X137795000Y-81153000D02*
X140335000Y-78613000D01*
X125730000Y-66040000D02*
X124968000Y-66802000D01*
X124968000Y-66802000D02*
X124968000Y-79248000D01*
X124968000Y-79248000D02*
X126492000Y-80772000D01*
X126492000Y-80772000D02*
X130810000Y-80772000D01*
X130810000Y-80772000D02*
X133858000Y-77724000D01*
X133858000Y-77724000D02*
X134874000Y-77724000D01*
X134874000Y-77724000D02*
X136144000Y-78994000D01*
X136144000Y-78994000D02*
X136144000Y-85598000D01*
X136144000Y-85598000D02*
X135382000Y-86360000D01*
X135382000Y-86360000D02*
X133350000Y-86360000D01*
X125730000Y-66040000D02*
X136964000Y-66040000D01*
X129540000Y-87630000D02*
X132080000Y-87630000D01*
X133350000Y-86360000D02*
X132080000Y-87630000D01*
D30*
G36*
X152416000Y-114176491D02*
X152198739Y-115268738D01*
X151649993Y-116089993D01*
X150828738Y-116638738D01*
X149819418Y-116839505D01*
X149919859Y-116597617D01*
X149920541Y-115815812D01*
X149621987Y-115093258D01*
X149112152Y-114582533D01*
X149240491Y-114441983D01*
X149413389Y-114024569D01*
X149292295Y-113792000D01*
X148261608Y-113792000D01*
X148148749Y-113679141D01*
X147969141Y-113858749D01*
X148082000Y-113971608D01*
X148082000Y-114239909D01*
X147870912Y-114239725D01*
X147828000Y-114196814D01*
X147828000Y-113971608D01*
X147940859Y-113858749D01*
X147761251Y-113679141D01*
X147648392Y-113792000D01*
X147634200Y-113792000D01*
X147634200Y-113538000D01*
X147648392Y-113538000D01*
X147761251Y-113650859D01*
X147940859Y-113471251D01*
X147828000Y-113358392D01*
X147828000Y-112765819D01*
X148082000Y-112756420D01*
X148082000Y-113538000D01*
X149292295Y-113538000D01*
X149413389Y-113305431D01*
X149164775Y-112774700D01*
X148850285Y-112487532D01*
X148927927Y-112277532D01*
X147955000Y-111304605D01*
X147940858Y-111318748D01*
X147761253Y-111139143D01*
X147775395Y-111125000D01*
X147761253Y-111110858D01*
X147940858Y-110931253D01*
X147955000Y-110945395D01*
X147969143Y-110931253D01*
X148148748Y-111110858D01*
X148134605Y-111125000D01*
X149107532Y-112097927D01*
X149374387Y-111999264D01*
X149600908Y-111389539D01*
X149576856Y-110739540D01*
X149506393Y-110569427D01*
X149756219Y-110408669D01*
X150013548Y-110032056D01*
X150104079Y-109585000D01*
X150104079Y-107585000D01*
X150025494Y-107167359D01*
X149778669Y-106783781D01*
X149496379Y-106590900D01*
X149600908Y-106309539D01*
X149576856Y-105659540D01*
X149506393Y-105489427D01*
X149756219Y-105328669D01*
X150013548Y-104952056D01*
X150104079Y-104505000D01*
X150104079Y-102841529D01*
X150705159Y-103091120D01*
X151551129Y-103091858D01*
X152332986Y-102768801D01*
X152416000Y-102685932D01*
X152416000Y-114176491D01*
X152416000Y-114176491D01*
G37*
X152416000Y-114176491D02*
X152198739Y-115268738D01*
X151649993Y-116089993D01*
X150828738Y-116638738D01*
X149819418Y-116839505D01*
X149919859Y-116597617D01*
X149920541Y-115815812D01*
X149621987Y-115093258D01*
X149112152Y-114582533D01*
X149240491Y-114441983D01*
X149413389Y-114024569D01*
X149292295Y-113792000D01*
X148261608Y-113792000D01*
X148148749Y-113679141D01*
X147969141Y-113858749D01*
X148082000Y-113971608D01*
X148082000Y-114239909D01*
X147870912Y-114239725D01*
X147828000Y-114196814D01*
X147828000Y-113971608D01*
X147940859Y-113858749D01*
X147761251Y-113679141D01*
X147648392Y-113792000D01*
X147634200Y-113792000D01*
X147634200Y-113538000D01*
X147648392Y-113538000D01*
X147761251Y-113650859D01*
X147940859Y-113471251D01*
X147828000Y-113358392D01*
X147828000Y-112765819D01*
X148082000Y-112756420D01*
X148082000Y-113538000D01*
X149292295Y-113538000D01*
X149413389Y-113305431D01*
X149164775Y-112774700D01*
X148850285Y-112487532D01*
X148927927Y-112277532D01*
X147955000Y-111304605D01*
X147940858Y-111318748D01*
X147761253Y-111139143D01*
X147775395Y-111125000D01*
X147761253Y-111110858D01*
X147940858Y-110931253D01*
X147955000Y-110945395D01*
X147969143Y-110931253D01*
X148148748Y-111110858D01*
X148134605Y-111125000D01*
X149107532Y-112097927D01*
X149374387Y-111999264D01*
X149600908Y-111389539D01*
X149576856Y-110739540D01*
X149506393Y-110569427D01*
X149756219Y-110408669D01*
X150013548Y-110032056D01*
X150104079Y-109585000D01*
X150104079Y-107585000D01*
X150025494Y-107167359D01*
X149778669Y-106783781D01*
X149496379Y-106590900D01*
X149600908Y-106309539D01*
X149576856Y-105659540D01*
X149506393Y-105489427D01*
X149756219Y-105328669D01*
X150013548Y-104952056D01*
X150104079Y-104505000D01*
X150104079Y-102841529D01*
X150705159Y-103091120D01*
X151551129Y-103091858D01*
X152332986Y-102768801D01*
X152416000Y-102685932D01*
X152416000Y-114176491D01*
G36*
X140635735Y-101692595D02*
X141260899Y-102110316D01*
X141998330Y-102257000D01*
X142481670Y-102257000D01*
X142637467Y-102226010D01*
X142521345Y-102809800D01*
X142417379Y-102809800D01*
X142029841Y-102648880D01*
X141183871Y-102648142D01*
X140402014Y-102971199D01*
X140335408Y-103037689D01*
X140271132Y-102973301D01*
X139489841Y-102648880D01*
X138643871Y-102648142D01*
X137862014Y-102971199D01*
X137263301Y-103568868D01*
X136938880Y-104350159D01*
X136938142Y-105196129D01*
X137261199Y-105977986D01*
X137858868Y-106576699D01*
X138640159Y-106901120D01*
X139486129Y-106901858D01*
X140267986Y-106578801D01*
X140334592Y-106512311D01*
X140398868Y-106576699D01*
X141180159Y-106901120D01*
X141798800Y-106901660D01*
X141798800Y-108998678D01*
X141183871Y-108998142D01*
X140402014Y-109321199D01*
X140335408Y-109387689D01*
X140271132Y-109323301D01*
X139489841Y-108998880D01*
X138643871Y-108998142D01*
X137862014Y-109321199D01*
X137263301Y-109918868D01*
X136938880Y-110700159D01*
X136938142Y-111546129D01*
X136938835Y-111547806D01*
X136614995Y-111547523D01*
X135603154Y-111965607D01*
X134828328Y-112739082D01*
X134408479Y-113750192D01*
X134407523Y-114845005D01*
X134825607Y-115856846D01*
X134859502Y-115890800D01*
X131746819Y-115890800D01*
X131799031Y-115628313D01*
X132095672Y-115331672D01*
X132198756Y-115177396D01*
X132450461Y-115270908D01*
X133100460Y-115246856D01*
X133589264Y-115044387D01*
X133687927Y-114777532D01*
X132715000Y-113804605D01*
X132700858Y-113818748D01*
X132521253Y-113639143D01*
X132535395Y-113625000D01*
X132521253Y-113610858D01*
X132700858Y-113431253D01*
X132715000Y-113445395D01*
X132729143Y-113431253D01*
X132908748Y-113610858D01*
X132894605Y-113625000D01*
X133867532Y-114597927D01*
X134134387Y-114499264D01*
X134360908Y-113889539D01*
X134336856Y-113239540D01*
X134279475Y-113101009D01*
X134516219Y-112948669D01*
X134773548Y-112572056D01*
X134864079Y-112125000D01*
X134864079Y-110125000D01*
X134785494Y-109707359D01*
X134538669Y-109323781D01*
X134162056Y-109066452D01*
X133994400Y-109032501D01*
X133994400Y-108729079D01*
X134250000Y-108729079D01*
X134667641Y-108650494D01*
X135051219Y-108403669D01*
X135259704Y-108098542D01*
X135609336Y-108226458D01*
X136219460Y-108200839D01*
X136664148Y-108016643D01*
X136750554Y-107760159D01*
X135850000Y-106859605D01*
X135835858Y-106873748D01*
X135656253Y-106694143D01*
X135670395Y-106680000D01*
X136029605Y-106680000D01*
X136930159Y-107580554D01*
X137186643Y-107494148D01*
X137396458Y-106920664D01*
X137370839Y-106310540D01*
X137186643Y-105865852D01*
X136930159Y-105779446D01*
X136029605Y-106680000D01*
X135670395Y-106680000D01*
X135656253Y-106665858D01*
X135835858Y-106486253D01*
X135850000Y-106500395D01*
X136750554Y-105599841D01*
X136664148Y-105343357D01*
X136090664Y-105133542D01*
X135614657Y-105153529D01*
X139107986Y-101660200D01*
X140614089Y-101660200D01*
X140635735Y-101692595D01*
X140635735Y-101692595D01*
G37*
X140635735Y-101692595D02*
X141260899Y-102110316D01*
X141998330Y-102257000D01*
X142481670Y-102257000D01*
X142637467Y-102226010D01*
X142521345Y-102809800D01*
X142417379Y-102809800D01*
X142029841Y-102648880D01*
X141183871Y-102648142D01*
X140402014Y-102971199D01*
X140335408Y-103037689D01*
X140271132Y-102973301D01*
X139489841Y-102648880D01*
X138643871Y-102648142D01*
X137862014Y-102971199D01*
X137263301Y-103568868D01*
X136938880Y-104350159D01*
X136938142Y-105196129D01*
X137261199Y-105977986D01*
X137858868Y-106576699D01*
X138640159Y-106901120D01*
X139486129Y-106901858D01*
X140267986Y-106578801D01*
X140334592Y-106512311D01*
X140398868Y-106576699D01*
X141180159Y-106901120D01*
X141798800Y-106901660D01*
X141798800Y-108998678D01*
X141183871Y-108998142D01*
X140402014Y-109321199D01*
X140335408Y-109387689D01*
X140271132Y-109323301D01*
X139489841Y-108998880D01*
X138643871Y-108998142D01*
X137862014Y-109321199D01*
X137263301Y-109918868D01*
X136938880Y-110700159D01*
X136938142Y-111546129D01*
X136938835Y-111547806D01*
X136614995Y-111547523D01*
X135603154Y-111965607D01*
X134828328Y-112739082D01*
X134408479Y-113750192D01*
X134407523Y-114845005D01*
X134825607Y-115856846D01*
X134859502Y-115890800D01*
X131746819Y-115890800D01*
X131799031Y-115628313D01*
X132095672Y-115331672D01*
X132198756Y-115177396D01*
X132450461Y-115270908D01*
X133100460Y-115246856D01*
X133589264Y-115044387D01*
X133687927Y-114777532D01*
X132715000Y-113804605D01*
X132700858Y-113818748D01*
X132521253Y-113639143D01*
X132535395Y-113625000D01*
X132521253Y-113610858D01*
X132700858Y-113431253D01*
X132715000Y-113445395D01*
X132729143Y-113431253D01*
X132908748Y-113610858D01*
X132894605Y-113625000D01*
X133867532Y-114597927D01*
X134134387Y-114499264D01*
X134360908Y-113889539D01*
X134336856Y-113239540D01*
X134279475Y-113101009D01*
X134516219Y-112948669D01*
X134773548Y-112572056D01*
X134864079Y-112125000D01*
X134864079Y-110125000D01*
X134785494Y-109707359D01*
X134538669Y-109323781D01*
X134162056Y-109066452D01*
X133994400Y-109032501D01*
X133994400Y-108729079D01*
X134250000Y-108729079D01*
X134667641Y-108650494D01*
X135051219Y-108403669D01*
X135259704Y-108098542D01*
X135609336Y-108226458D01*
X136219460Y-108200839D01*
X136664148Y-108016643D01*
X136750554Y-107760159D01*
X135850000Y-106859605D01*
X135835858Y-106873748D01*
X135656253Y-106694143D01*
X135670395Y-106680000D01*
X136029605Y-106680000D01*
X136930159Y-107580554D01*
X137186643Y-107494148D01*
X137396458Y-106920664D01*
X137370839Y-106310540D01*
X137186643Y-105865852D01*
X136930159Y-105779446D01*
X136029605Y-106680000D01*
X135670395Y-106680000D01*
X135656253Y-106665858D01*
X135835858Y-106486253D01*
X135850000Y-106500395D01*
X136750554Y-105599841D01*
X136664148Y-105343357D01*
X136090664Y-105133542D01*
X135614657Y-105153529D01*
X139107986Y-101660200D01*
X140614089Y-101660200D01*
X140635735Y-101692595D01*
G36*
X129667000Y-112903000D02*
X129687000Y-112903000D01*
X129687000Y-113157000D01*
X129667000Y-113157000D01*
X129667000Y-113177000D01*
X129413000Y-113177000D01*
X129413000Y-113157000D01*
X129393000Y-113157000D01*
X129393000Y-112903000D01*
X129413000Y-112903000D01*
X129413000Y-112883000D01*
X129667000Y-112883000D01*
X129667000Y-112903000D01*
X129667000Y-112903000D01*
G37*
X129667000Y-112903000D02*
X129687000Y-112903000D01*
X129687000Y-113157000D01*
X129667000Y-113157000D01*
X129667000Y-113177000D01*
X129413000Y-113177000D01*
X129413000Y-113157000D01*
X129393000Y-113157000D01*
X129393000Y-112903000D01*
X129413000Y-112903000D01*
X129413000Y-112883000D01*
X129667000Y-112883000D01*
X129667000Y-112903000D01*
G36*
X148148748Y-106030858D02*
X148134605Y-106045000D01*
X148148748Y-106059143D01*
X147969143Y-106238748D01*
X147955000Y-106224605D01*
X147940858Y-106238748D01*
X147761253Y-106059143D01*
X147775395Y-106045000D01*
X147761253Y-106030858D01*
X147940858Y-105851253D01*
X147955000Y-105865395D01*
X147969143Y-105851253D01*
X148148748Y-106030858D01*
X148148748Y-106030858D01*
G37*
X148148748Y-106030858D02*
X148134605Y-106045000D01*
X148148748Y-106059143D01*
X147969143Y-106238748D01*
X147955000Y-106224605D01*
X147940858Y-106238748D01*
X147761253Y-106059143D01*
X147775395Y-106045000D01*
X147761253Y-106030858D01*
X147940858Y-105851253D01*
X147955000Y-105865395D01*
X147969143Y-105851253D01*
X148148748Y-106030858D01*
G36*
X152303748Y-92135858D02*
X152289605Y-92150000D01*
X152303748Y-92164143D01*
X152124143Y-92343748D01*
X152110000Y-92329605D01*
X152095858Y-92343748D01*
X151916253Y-92164143D01*
X151930395Y-92150000D01*
X151916253Y-92135858D01*
X152095858Y-91956253D01*
X152110000Y-91970395D01*
X152124143Y-91956253D01*
X152303748Y-92135858D01*
X152303748Y-92135858D01*
G37*
X152303748Y-92135858D02*
X152289605Y-92150000D01*
X152303748Y-92164143D01*
X152124143Y-92343748D01*
X152110000Y-92329605D01*
X152095858Y-92343748D01*
X151916253Y-92164143D01*
X151930395Y-92150000D01*
X151916253Y-92135858D01*
X152095858Y-91956253D01*
X152110000Y-91970395D01*
X152124143Y-91956253D01*
X152303748Y-92135858D01*
G36*
X152303748Y-85635858D02*
X152289605Y-85650000D01*
X152303748Y-85664143D01*
X152124143Y-85843748D01*
X152110000Y-85829605D01*
X152095858Y-85843748D01*
X151916253Y-85664143D01*
X151930395Y-85650000D01*
X151916253Y-85635858D01*
X152095858Y-85456253D01*
X152110000Y-85470395D01*
X152124143Y-85456253D01*
X152303748Y-85635858D01*
X152303748Y-85635858D01*
G37*
X152303748Y-85635858D02*
X152289605Y-85650000D01*
X152303748Y-85664143D01*
X152124143Y-85843748D01*
X152110000Y-85829605D01*
X152095858Y-85843748D01*
X151916253Y-85664143D01*
X151930395Y-85650000D01*
X151916253Y-85635858D01*
X152095858Y-85456253D01*
X152110000Y-85470395D01*
X152124143Y-85456253D01*
X152303748Y-85635858D01*
G36*
X146035452Y-80860638D02*
X145830195Y-80723490D01*
X145073630Y-80573000D01*
X144486370Y-80573000D01*
X143729805Y-80723490D01*
X143623453Y-80794552D01*
X143821442Y-80416730D01*
X143831904Y-80359039D01*
X143709915Y-80137000D01*
X142367000Y-80137000D01*
X142367000Y-80157000D01*
X142113000Y-80157000D01*
X142113000Y-80137000D01*
X142093000Y-80137000D01*
X142093000Y-79943200D01*
X145118014Y-79943200D01*
X146035452Y-80860638D01*
X146035452Y-80860638D01*
G37*
X146035452Y-80860638D02*
X145830195Y-80723490D01*
X145073630Y-80573000D01*
X144486370Y-80573000D01*
X143729805Y-80723490D01*
X143623453Y-80794552D01*
X143821442Y-80416730D01*
X143831904Y-80359039D01*
X143709915Y-80137000D01*
X142367000Y-80137000D01*
X142367000Y-80157000D01*
X142113000Y-80157000D01*
X142113000Y-80137000D01*
X142093000Y-80137000D01*
X142093000Y-79943200D01*
X145118014Y-79943200D01*
X146035452Y-80860638D01*
G36*
X136316944Y-67398548D02*
X136764000Y-67489079D01*
X137164000Y-67489079D01*
X137252118Y-67472498D01*
X137232370Y-67520057D01*
X137231632Y-68366230D01*
X137554766Y-69148274D01*
X138152578Y-69747131D01*
X138934057Y-70071630D01*
X139780230Y-70072368D01*
X140562274Y-69749234D01*
X141161131Y-69151422D01*
X141183508Y-69097532D01*
X143386073Y-69097532D01*
X143484736Y-69364387D01*
X144094461Y-69590908D01*
X144744460Y-69566856D01*
X145233264Y-69364387D01*
X145331927Y-69097532D01*
X144359000Y-68124605D01*
X143386073Y-69097532D01*
X141183508Y-69097532D01*
X141485630Y-68369943D01*
X141486368Y-67523770D01*
X141422914Y-67370200D01*
X142828358Y-67370200D01*
X142713092Y-67680461D01*
X142737144Y-68330460D01*
X142939613Y-68819264D01*
X143206468Y-68917927D01*
X144179395Y-67945000D01*
X144165253Y-67930858D01*
X144344858Y-67751253D01*
X144359000Y-67765395D01*
X144373143Y-67751253D01*
X144552748Y-67930858D01*
X144538605Y-67945000D01*
X145511532Y-68917927D01*
X145778387Y-68819264D01*
X145988371Y-68254052D01*
X146131331Y-68476219D01*
X146413621Y-68669100D01*
X146309092Y-68950461D01*
X146333144Y-69600460D01*
X146403607Y-69770573D01*
X146153781Y-69931331D01*
X145896452Y-70307944D01*
X145805921Y-70755000D01*
X145805921Y-72755000D01*
X145884506Y-73172641D01*
X146131331Y-73556219D01*
X146413621Y-73749100D01*
X146309092Y-74030461D01*
X146333144Y-74680460D01*
X146535613Y-75169264D01*
X146802468Y-75267927D01*
X147775395Y-74295000D01*
X147761253Y-74280858D01*
X147940858Y-74101253D01*
X147955000Y-74115395D01*
X147969143Y-74101253D01*
X148148748Y-74280858D01*
X148134605Y-74295000D01*
X148148748Y-74309143D01*
X147969143Y-74488748D01*
X147955000Y-74474605D01*
X147406428Y-75023177D01*
X147387014Y-75031199D01*
X146788301Y-75628868D01*
X146463880Y-76410159D01*
X146463673Y-76647800D01*
X139954000Y-76647800D01*
X139444954Y-76749055D01*
X139013407Y-77037407D01*
X137404952Y-78645862D01*
X137372945Y-78484954D01*
X137365024Y-78473100D01*
X137084593Y-78053406D01*
X135920359Y-76889173D01*
X136053641Y-76864094D01*
X136437219Y-76617269D01*
X136694548Y-76240656D01*
X136763989Y-75897745D01*
X141411861Y-75897745D01*
X141485995Y-76143864D01*
X142023223Y-76336965D01*
X142593454Y-76309778D01*
X142994005Y-76143864D01*
X143068139Y-75897745D01*
X142240000Y-75069605D01*
X141411861Y-75897745D01*
X136763989Y-75897745D01*
X136785079Y-75793600D01*
X136785079Y-74066400D01*
X136719937Y-73720200D01*
X140441936Y-73720200D01*
X140616331Y-73991219D01*
X140954999Y-74222621D01*
X140793035Y-74673223D01*
X140820222Y-75243454D01*
X140986136Y-75644005D01*
X141232255Y-75718139D01*
X142060395Y-74890000D01*
X142046252Y-74875858D01*
X142225858Y-74696253D01*
X142240000Y-74710395D01*
X142254143Y-74696253D01*
X142433748Y-74875858D01*
X142419605Y-74890000D01*
X143247745Y-75718139D01*
X143493864Y-75644005D01*
X143686965Y-75106777D01*
X143659778Y-74536546D01*
X143526958Y-74215890D01*
X143841219Y-74013669D01*
X144098548Y-73637056D01*
X144189079Y-73190000D01*
X144189079Y-71590000D01*
X144110494Y-71172359D01*
X143863669Y-70788781D01*
X143487056Y-70531452D01*
X143040000Y-70440921D01*
X141440000Y-70440921D01*
X141022359Y-70519506D01*
X140638781Y-70766331D01*
X140438262Y-71059800D01*
X136273646Y-71059800D01*
X136221951Y-70982433D01*
X135930686Y-70787816D01*
X135970732Y-70752036D01*
X136224709Y-70224791D01*
X136227358Y-70209026D01*
X136106217Y-69977000D01*
X134747000Y-69977000D01*
X134747000Y-69997000D01*
X134493000Y-69997000D01*
X134493000Y-69977000D01*
X133133783Y-69977000D01*
X133012642Y-70209026D01*
X133015291Y-70224791D01*
X133269268Y-70752036D01*
X133309314Y-70787816D01*
X133018049Y-70982433D01*
X132586541Y-71628230D01*
X132435016Y-72390000D01*
X132586541Y-73151770D01*
X132724182Y-73357764D01*
X132545452Y-73619344D01*
X132454921Y-74066400D01*
X132454921Y-75793600D01*
X132533506Y-76211241D01*
X132780331Y-76594819D01*
X132987648Y-76736473D01*
X132917407Y-76783407D01*
X130342635Y-79358179D01*
X130343403Y-78477162D01*
X129989885Y-77621582D01*
X129903378Y-77534924D01*
X130017219Y-77461669D01*
X130274548Y-77085056D01*
X130365079Y-76638000D01*
X130365079Y-74238000D01*
X130286494Y-73820359D01*
X130039669Y-73436781D01*
X129684686Y-73194231D01*
X129987585Y-72891861D01*
X130342596Y-72036900D01*
X130343403Y-71111162D01*
X129989885Y-70255582D01*
X129554268Y-69819204D01*
X129575699Y-69810327D01*
X129754327Y-69631698D01*
X129812616Y-69490974D01*
X133012642Y-69490974D01*
X133133783Y-69723000D01*
X134493000Y-69723000D01*
X134493000Y-68509076D01*
X134747000Y-68509076D01*
X134747000Y-69723000D01*
X136106217Y-69723000D01*
X136227358Y-69490974D01*
X136224709Y-69475209D01*
X135970732Y-68947964D01*
X135534320Y-68558046D01*
X134981913Y-68364816D01*
X134747000Y-68509076D01*
X134493000Y-68509076D01*
X134258087Y-68364816D01*
X133705680Y-68558046D01*
X133269268Y-68947964D01*
X133015291Y-69475209D01*
X133012642Y-69490974D01*
X129812616Y-69490974D01*
X129851000Y-69398309D01*
X129851000Y-68357750D01*
X129692250Y-68199000D01*
X128143000Y-68199000D01*
X128143000Y-68219000D01*
X127889000Y-68219000D01*
X127889000Y-68199000D01*
X127869000Y-68199000D01*
X127869000Y-67945000D01*
X127889000Y-67945000D01*
X127889000Y-67925000D01*
X128143000Y-67925000D01*
X128143000Y-67945000D01*
X129692250Y-67945000D01*
X129851000Y-67786250D01*
X129851000Y-67370200D01*
X136275455Y-67370200D01*
X136316944Y-67398548D01*
X136316944Y-67398548D01*
G37*
X136316944Y-67398548D02*
X136764000Y-67489079D01*
X137164000Y-67489079D01*
X137252118Y-67472498D01*
X137232370Y-67520057D01*
X137231632Y-68366230D01*
X137554766Y-69148274D01*
X138152578Y-69747131D01*
X138934057Y-70071630D01*
X139780230Y-70072368D01*
X140562274Y-69749234D01*
X141161131Y-69151422D01*
X141183508Y-69097532D01*
X143386073Y-69097532D01*
X143484736Y-69364387D01*
X144094461Y-69590908D01*
X144744460Y-69566856D01*
X145233264Y-69364387D01*
X145331927Y-69097532D01*
X144359000Y-68124605D01*
X143386073Y-69097532D01*
X141183508Y-69097532D01*
X141485630Y-68369943D01*
X141486368Y-67523770D01*
X141422914Y-67370200D01*
X142828358Y-67370200D01*
X142713092Y-67680461D01*
X142737144Y-68330460D01*
X142939613Y-68819264D01*
X143206468Y-68917927D01*
X144179395Y-67945000D01*
X144165253Y-67930858D01*
X144344858Y-67751253D01*
X144359000Y-67765395D01*
X144373143Y-67751253D01*
X144552748Y-67930858D01*
X144538605Y-67945000D01*
X145511532Y-68917927D01*
X145778387Y-68819264D01*
X145988371Y-68254052D01*
X146131331Y-68476219D01*
X146413621Y-68669100D01*
X146309092Y-68950461D01*
X146333144Y-69600460D01*
X146403607Y-69770573D01*
X146153781Y-69931331D01*
X145896452Y-70307944D01*
X145805921Y-70755000D01*
X145805921Y-72755000D01*
X145884506Y-73172641D01*
X146131331Y-73556219D01*
X146413621Y-73749100D01*
X146309092Y-74030461D01*
X146333144Y-74680460D01*
X146535613Y-75169264D01*
X146802468Y-75267927D01*
X147775395Y-74295000D01*
X147761253Y-74280858D01*
X147940858Y-74101253D01*
X147955000Y-74115395D01*
X147969143Y-74101253D01*
X148148748Y-74280858D01*
X148134605Y-74295000D01*
X148148748Y-74309143D01*
X147969143Y-74488748D01*
X147955000Y-74474605D01*
X147406428Y-75023177D01*
X147387014Y-75031199D01*
X146788301Y-75628868D01*
X146463880Y-76410159D01*
X146463673Y-76647800D01*
X139954000Y-76647800D01*
X139444954Y-76749055D01*
X139013407Y-77037407D01*
X137404952Y-78645862D01*
X137372945Y-78484954D01*
X137365024Y-78473100D01*
X137084593Y-78053406D01*
X135920359Y-76889173D01*
X136053641Y-76864094D01*
X136437219Y-76617269D01*
X136694548Y-76240656D01*
X136763989Y-75897745D01*
X141411861Y-75897745D01*
X141485995Y-76143864D01*
X142023223Y-76336965D01*
X142593454Y-76309778D01*
X142994005Y-76143864D01*
X143068139Y-75897745D01*
X142240000Y-75069605D01*
X141411861Y-75897745D01*
X136763989Y-75897745D01*
X136785079Y-75793600D01*
X136785079Y-74066400D01*
X136719937Y-73720200D01*
X140441936Y-73720200D01*
X140616331Y-73991219D01*
X140954999Y-74222621D01*
X140793035Y-74673223D01*
X140820222Y-75243454D01*
X140986136Y-75644005D01*
X141232255Y-75718139D01*
X142060395Y-74890000D01*
X142046252Y-74875858D01*
X142225858Y-74696253D01*
X142240000Y-74710395D01*
X142254143Y-74696253D01*
X142433748Y-74875858D01*
X142419605Y-74890000D01*
X143247745Y-75718139D01*
X143493864Y-75644005D01*
X143686965Y-75106777D01*
X143659778Y-74536546D01*
X143526958Y-74215890D01*
X143841219Y-74013669D01*
X144098548Y-73637056D01*
X144189079Y-73190000D01*
X144189079Y-71590000D01*
X144110494Y-71172359D01*
X143863669Y-70788781D01*
X143487056Y-70531452D01*
X143040000Y-70440921D01*
X141440000Y-70440921D01*
X141022359Y-70519506D01*
X140638781Y-70766331D01*
X140438262Y-71059800D01*
X136273646Y-71059800D01*
X136221951Y-70982433D01*
X135930686Y-70787816D01*
X135970732Y-70752036D01*
X136224709Y-70224791D01*
X136227358Y-70209026D01*
X136106217Y-69977000D01*
X134747000Y-69977000D01*
X134747000Y-69997000D01*
X134493000Y-69997000D01*
X134493000Y-69977000D01*
X133133783Y-69977000D01*
X133012642Y-70209026D01*
X133015291Y-70224791D01*
X133269268Y-70752036D01*
X133309314Y-70787816D01*
X133018049Y-70982433D01*
X132586541Y-71628230D01*
X132435016Y-72390000D01*
X132586541Y-73151770D01*
X132724182Y-73357764D01*
X132545452Y-73619344D01*
X132454921Y-74066400D01*
X132454921Y-75793600D01*
X132533506Y-76211241D01*
X132780331Y-76594819D01*
X132987648Y-76736473D01*
X132917407Y-76783407D01*
X130342635Y-79358179D01*
X130343403Y-78477162D01*
X129989885Y-77621582D01*
X129903378Y-77534924D01*
X130017219Y-77461669D01*
X130274548Y-77085056D01*
X130365079Y-76638000D01*
X130365079Y-74238000D01*
X130286494Y-73820359D01*
X130039669Y-73436781D01*
X129684686Y-73194231D01*
X129987585Y-72891861D01*
X130342596Y-72036900D01*
X130343403Y-71111162D01*
X129989885Y-70255582D01*
X129554268Y-69819204D01*
X129575699Y-69810327D01*
X129754327Y-69631698D01*
X129812616Y-69490974D01*
X133012642Y-69490974D01*
X133133783Y-69723000D01*
X134493000Y-69723000D01*
X134493000Y-68509076D01*
X134747000Y-68509076D01*
X134747000Y-69723000D01*
X136106217Y-69723000D01*
X136227358Y-69490974D01*
X136224709Y-69475209D01*
X135970732Y-68947964D01*
X135534320Y-68558046D01*
X134981913Y-68364816D01*
X134747000Y-68509076D01*
X134493000Y-68509076D01*
X134258087Y-68364816D01*
X133705680Y-68558046D01*
X133269268Y-68947964D01*
X133015291Y-69475209D01*
X133012642Y-69490974D01*
X129812616Y-69490974D01*
X129851000Y-69398309D01*
X129851000Y-68357750D01*
X129692250Y-68199000D01*
X128143000Y-68199000D01*
X128143000Y-68219000D01*
X127889000Y-68219000D01*
X127889000Y-68199000D01*
X127869000Y-68199000D01*
X127869000Y-67945000D01*
X127889000Y-67945000D01*
X127889000Y-67925000D01*
X128143000Y-67925000D01*
X128143000Y-67945000D01*
X129692250Y-67945000D01*
X129851000Y-67786250D01*
X129851000Y-67370200D01*
X136275455Y-67370200D01*
X136316944Y-67398548D01*
G36*
X148148748Y-69200858D02*
X148134605Y-69215000D01*
X148148748Y-69229143D01*
X147969143Y-69408748D01*
X147955000Y-69394605D01*
X147940858Y-69408748D01*
X147761253Y-69229143D01*
X147775395Y-69215000D01*
X147761253Y-69200858D01*
X147940858Y-69021253D01*
X147955000Y-69035395D01*
X147969143Y-69021253D01*
X148148748Y-69200858D01*
X148148748Y-69200858D01*
G37*
X148148748Y-69200858D02*
X148134605Y-69215000D01*
X148148748Y-69229143D01*
X147969143Y-69408748D01*
X147955000Y-69394605D01*
X147940858Y-69408748D01*
X147761253Y-69229143D01*
X147775395Y-69215000D01*
X147761253Y-69200858D01*
X147940858Y-69021253D01*
X147955000Y-69035395D01*
X147969143Y-69021253D01*
X148148748Y-69200858D01*
G36*
X146496611Y-61235431D02*
X146617705Y-61468000D01*
X147648392Y-61468000D01*
X147761251Y-61580859D01*
X147940859Y-61401251D01*
X147828000Y-61288392D01*
X147828000Y-60944000D01*
X148082000Y-60944000D01*
X148082000Y-61288392D01*
X147969141Y-61401251D01*
X148148749Y-61580859D01*
X148261608Y-61468000D01*
X149292295Y-61468000D01*
X149413389Y-61235431D01*
X149276872Y-60944000D01*
X149736491Y-60944000D01*
X150828738Y-61161262D01*
X151649993Y-61710007D01*
X152198739Y-62531262D01*
X152416000Y-63623509D01*
X152416000Y-68230790D01*
X152358945Y-67943954D01*
X152179235Y-67675000D01*
X152070594Y-67512407D01*
X150292593Y-65734407D01*
X150089755Y-65598874D01*
X150025494Y-65257359D01*
X149778669Y-64873781D01*
X149776682Y-64872424D01*
X149919859Y-64527617D01*
X149920541Y-63745812D01*
X149621987Y-63023258D01*
X149112152Y-62512533D01*
X149240491Y-62371983D01*
X149413389Y-61954569D01*
X149292295Y-61722000D01*
X148261608Y-61722000D01*
X148148749Y-61609141D01*
X147969141Y-61788749D01*
X148082000Y-61901608D01*
X148082000Y-62169909D01*
X147828000Y-62169688D01*
X147828000Y-61901608D01*
X147940859Y-61788749D01*
X147761251Y-61609141D01*
X147648392Y-61722000D01*
X146617705Y-61722000D01*
X146496611Y-61954569D01*
X146745225Y-62485300D01*
X146787381Y-62523793D01*
X146492914Y-62817746D01*
X146227575Y-62870525D01*
X145844393Y-61943154D01*
X145070918Y-61168328D01*
X144530675Y-60944000D01*
X146617325Y-60944000D01*
X146496611Y-61235431D01*
X146496611Y-61235431D01*
G37*
X146496611Y-61235431D02*
X146617705Y-61468000D01*
X147648392Y-61468000D01*
X147761251Y-61580859D01*
X147940859Y-61401251D01*
X147828000Y-61288392D01*
X147828000Y-60944000D01*
X148082000Y-60944000D01*
X148082000Y-61288392D01*
X147969141Y-61401251D01*
X148148749Y-61580859D01*
X148261608Y-61468000D01*
X149292295Y-61468000D01*
X149413389Y-61235431D01*
X149276872Y-60944000D01*
X149736491Y-60944000D01*
X150828738Y-61161262D01*
X151649993Y-61710007D01*
X152198739Y-62531262D01*
X152416000Y-63623509D01*
X152416000Y-68230790D01*
X152358945Y-67943954D01*
X152179235Y-67675000D01*
X152070594Y-67512407D01*
X150292593Y-65734407D01*
X150089755Y-65598874D01*
X150025494Y-65257359D01*
X149778669Y-64873781D01*
X149776682Y-64872424D01*
X149919859Y-64527617D01*
X149920541Y-63745812D01*
X149621987Y-63023258D01*
X149112152Y-62512533D01*
X149240491Y-62371983D01*
X149413389Y-61954569D01*
X149292295Y-61722000D01*
X148261608Y-61722000D01*
X148148749Y-61609141D01*
X147969141Y-61788749D01*
X148082000Y-61901608D01*
X148082000Y-62169909D01*
X147828000Y-62169688D01*
X147828000Y-61901608D01*
X147940859Y-61788749D01*
X147761251Y-61609141D01*
X147648392Y-61722000D01*
X146617705Y-61722000D01*
X146496611Y-61954569D01*
X146745225Y-62485300D01*
X146787381Y-62523793D01*
X146492914Y-62817746D01*
X146227575Y-62870525D01*
X145844393Y-61943154D01*
X145070918Y-61168328D01*
X144530675Y-60944000D01*
X146617325Y-60944000D01*
X146496611Y-61235431D01*
M02*
