G04 #@! TF.FileFunction,Soldermask,Top*
%FSLAX46Y46*%
G04 Gerber Fmt 4.6, Leading zero omitted, Abs format (unit mm)*
G04 Created by KiCad (PCBNEW 4.0.6) date 02/13/20 12:12:51*
%MOMM*%
%LPD*%
G01*
G04 APERTURE LIST*
%ADD10C,0.100000*%
%ADD11R,2.000000X2.000000*%
%ADD12C,2.000000*%
%ADD13C,1.100000*%
%ADD14R,2.032000X1.727200*%
%ADD15O,2.032000X1.727200*%
%ADD16O,2.200000X1.700000*%
%ADD17C,1.676400*%
%ADD18R,1.800000X1.800000*%
%ADD19C,1.800000*%
%ADD20O,2.000000X1.600000*%
%ADD21C,3.250000*%
%ADD22C,1.600000*%
%ADD23R,1.600000X1.600000*%
%ADD24C,2.400000*%
%ADD25R,2.400000X2.400000*%
%ADD26R,0.600000X0.400000*%
%ADD27C,1.998980*%
G04 APERTURE END LIST*
D10*
D11*
X124460000Y-111760000D03*
D12*
X124460000Y-109260000D03*
X124460000Y-106760000D03*
X124460000Y-104260000D03*
X124460000Y-101760000D03*
D13*
X126460000Y-113360000D03*
D14*
X134620000Y-74930000D03*
D15*
X134620000Y-72390000D03*
X134620000Y-69850000D03*
D16*
X129540000Y-115570000D03*
X129540000Y-113030000D03*
X129540000Y-110490000D03*
X129540000Y-107950000D03*
X129540000Y-105410000D03*
X129540000Y-102870000D03*
X129540000Y-100330000D03*
X129540000Y-97790000D03*
X129540000Y-95250000D03*
X129540000Y-92710000D03*
X129540000Y-90170000D03*
X129540000Y-87630000D03*
X129540000Y-85090000D03*
X129540000Y-82550000D03*
D12*
X139359000Y-67945000D03*
X144359000Y-67945000D03*
X147955000Y-111125000D03*
D11*
X147955000Y-108585000D03*
D17*
X147955000Y-64135000D03*
X147955000Y-61595000D03*
D18*
X133350000Y-106680000D03*
D19*
X135850000Y-106680000D03*
D11*
X132715000Y-111125000D03*
D12*
X132715000Y-113625000D03*
D20*
X142240000Y-100330000D03*
X142240000Y-97790000D03*
X142240000Y-95250000D03*
X142240000Y-92710000D03*
X142240000Y-90170000D03*
X142240000Y-87630000D03*
X142240000Y-85090000D03*
X142240000Y-82550000D03*
X142240000Y-80010000D03*
X134620000Y-80010000D03*
X134620000Y-82550000D03*
X134620000Y-85090000D03*
X134620000Y-87630000D03*
X134620000Y-90170000D03*
X134620000Y-92710000D03*
X134620000Y-95250000D03*
X134620000Y-97790000D03*
X134620000Y-100330000D03*
D21*
X137160000Y-114300000D03*
X143510000Y-63500000D03*
X125730000Y-63500000D03*
D22*
X142240000Y-74890000D03*
D23*
X142240000Y-72390000D03*
D11*
X132080000Y-62230000D03*
D12*
X134620000Y-62230000D03*
X137160000Y-62230000D03*
D24*
X128016000Y-71572000D03*
D25*
X128016000Y-68072000D03*
D24*
X128016000Y-78938000D03*
D25*
X128016000Y-75438000D03*
D12*
X147610000Y-85650000D03*
X152110000Y-85650000D03*
X147610000Y-92150000D03*
X152110000Y-92150000D03*
D26*
X132334000Y-93530000D03*
X132334000Y-94430000D03*
D17*
X147955000Y-116205000D03*
X147955000Y-113665000D03*
D12*
X147955000Y-106045000D03*
D11*
X147955000Y-103505000D03*
D12*
X147955000Y-69215000D03*
D11*
X147955000Y-66675000D03*
D12*
X147955000Y-74295000D03*
D11*
X147955000Y-71755000D03*
D27*
X139065000Y-111125000D03*
X139065000Y-104775000D03*
X141605000Y-111125000D03*
X141605000Y-104775000D03*
X151130000Y-83185000D03*
X151130000Y-76835000D03*
X148590000Y-83185000D03*
X148590000Y-76835000D03*
X151130000Y-94615000D03*
X151130000Y-100965000D03*
X148590000Y-94615000D03*
X148590000Y-100965000D03*
D16*
X144780000Y-115570000D03*
X144780000Y-113030000D03*
X144780000Y-110490000D03*
X144780000Y-107950000D03*
X144780000Y-105410000D03*
X144780000Y-102870000D03*
X144780000Y-100330000D03*
X144780000Y-97790000D03*
X144780000Y-95250000D03*
X144780000Y-92710000D03*
X144780000Y-90170000D03*
X144780000Y-87630000D03*
X144780000Y-85090000D03*
X144780000Y-82550000D03*
D11*
X124460000Y-93980000D03*
D12*
X124460000Y-91480000D03*
X124460000Y-88980000D03*
X124460000Y-86480000D03*
X124460000Y-83980000D03*
D13*
X126460000Y-95580000D03*
M02*
