<?xml version='1.0' encoding='UTF-8' standalone='no'?>
<!-- Created with Fritzing (http://www.fritzing.org/) -->
<svg xmlns="http://www.w3.org/2000/svg" height="0.7in" version="1.2" width="1.41791in" y="0in" x="0in"  viewBox="0 0 102.09 50.4" baseProfile="tiny">
    <desc >
        <referenceFile >ItsyBitsy M4 rev C_pcb.svg</referenceFile>
    </desc>
    <desc >Fritzing footprint generated by brd2svg</desc>
    <g id="silkscreen"  gorn="0.2">
        <path stroke="white" d="M1.57049,32.3177L3.00236,30.8942L3.00236,18.7941L1.57049,17.3705L1.57049,3.84686A3.312,3.312,0,0,1,5.15017,0.288L98.2224,0.288A3.312,3.312,0,0,1,101.802,3.84686L101.802,46.5531A3.312,3.312,0,0,1,98.2224,50.112L5.15017,50.112A3.312,3.312,0,0,1,1.57049,46.5531L1.57049,32.3177M13.1856,19.6724a0.704126,0.704126,0,1,0,1.40826,0,0.704126,0.704126,0,1,0,-1.40826,0zM13.1856,30.7276a0.704126,0.704126,0,1,0,1.40826,0,0.704126,0.704126,0,1,0,-1.40826,0z" stroke-width="0.576" fill="none" />
        <g >
            <title >element:IC2</title>
            <g >
                <title >package:TQFN48_7MM</title>
                <line stroke-linecap="round" y1="17.6953" y2="17.6953" stroke="white" x2="45.445" stroke-width="0.36" x1="47.0041" />
                <line stroke-linecap="round" y1="17.6953" y2="19.2543" stroke="white" x2="45.445" stroke-width="0.36" x1="45.445" />
                <line stroke-linecap="round" y1="17.6953" y2="17.6953" stroke="white" x2="65.8545" stroke-width="0.36" x1="64.2954" />
                <line stroke-linecap="round" y1="17.6953" y2="19.2543" stroke="white" x2="65.8545" stroke-width="0.36" x1="65.8545" />
                <line stroke-linecap="round" y1="36.5457" y2="38.1047" stroke="white" x2="65.8545" stroke-width="0.36" x1="65.8545" />
                <line stroke-linecap="round" y1="38.1047" y2="38.1047" stroke="white" x2="64.2954" stroke-width="0.36" x1="65.8545" />
                <g >
                    <title >polygon</title>
                    <path stroke-linecap="round" stroke="white" d="M47.0097,38.484L45.1377,38.484L45.1377,36.612L47.0097,38.484M45.1377,38.34L46.8657,38.34L45.1377,38.34M45.1377,37.98L46.5057,37.98L45.1377,37.98M45.1377,37.62L46.1457,37.62L45.1377,37.62M45.1377,37.26L45.7857,37.26L45.1377,37.26" stroke-width="0.36" fill="none" />
                </g>
            </g>
        </g>
        <g >
            <title >element:JP2</title>
            <g >
                <title >package:1X14_ROUND70</title>
            </g>
        </g>
        <g >
            <title >element:JP4</title>
            <g >
                <title >package:1X14_ROUND70</title>
            </g>
        </g>
        <g >
            <title >element:U$4</title>
            <g >
                <title >package:ITSYM4_TOP</title>
            </g>
        </g>
        <g >
            <title >element:U$5</title>
            <g >
                <title >package:ITSYM4_BOT</title>
            </g>
        </g>
        <g >
            <title >element:X3</title>
            <g >
                <title >package:4UCONN_20329_V2</title>
                <line stroke-linecap="round" y1="18.1134" y2="20.3811" stroke="white" x2="17.0078" stroke-width="0.36" x1="17.0078" />
                <line stroke-linecap="round" y1="30.0189" y2="32.2866" stroke="white" x2="17.0078" stroke-width="0.36" x1="17.0078" />
                <line stroke-linecap="round" y1="14.4284" y2="14.4284" stroke="white" x2="1.70078" stroke-width="0.36" x1="4.25197" />
                <line stroke-linecap="round" y1="14.4284" y2="35.9716" stroke="white" x2="1.70078" stroke-width="0.36" x1="1.70078" />
                <line stroke-linecap="round" y1="35.9716" y2="35.9716" stroke="white" x2="4.25197" stroke-width="0.36" x1="1.70078" />
            </g>
        </g>
        <line y1="39.515" y2="39.515" fill-opacity="1" stroke="white" x2="1.28976" stroke-width="0.576" fill="none" x1="0.288" />
        <line y1="10.885" y2="10.885" fill-opacity="1" stroke="white" x2="1.28976" stroke-width="0.576" fill="none" x1="0.288" />
        <line y1="39.515" y2="10.885" fill-opacity="1" stroke="white" x2="0.288" stroke-width="0.576" fill="none" x1="0.288" />
    </g>
    <g id="copper1"  gorn="0.3">
        <g id="copper0"  gorn="0.3.0">
            <circle id="connector102pad" cy="46.8" cx="55.2897" stroke="#F7BD13" connectorname="A3" stroke-width="0.95868" fill="none" r="1.89666"  gorn="0.3.0.0"/>
            <circle id="connector86pad" cy="3.6" cx="33.6897" stroke="#F7BD13" connectorname="D12" stroke-width="0.95868" fill="none" r="1.89666"  gorn="0.3.0.1"/>
            <circle id="connector94pad" cy="3.6" cx="91.2895" stroke="#F7BD13" connectorname="TX_D1" stroke-width="0.95868" fill="none" r="1.89666"  gorn="0.3.0.2"/>
            <circle id="connector82pad" cy="3.6" cx="4.88976" stroke="#F7BD13" connectorname="VBAT" stroke-width="0.95868" fill="none" r="1.89666"  gorn="0.3.0.3"/>
            <circle id="connector90pad" cy="3.6" cx="62.4897" stroke="#F7BD13" connectorname="D7" stroke-width="0.95868" fill="none" r="1.89666"  gorn="0.3.0.4"/>
            <circle id="connector98pad" cy="46.8" cx="84.0895" stroke="#F7BD13" connectorname="MOSI" stroke-width="0.95868" fill="none" r="1.89666"  gorn="0.3.0.5"/>
            <circle id="connector106pad" cy="46.8" cx="26.4897" stroke="#F7BD13" connectorname="VHI" stroke-width="0.95868" fill="none" r="1.89666"  gorn="0.3.0.6"/>
            <circle id="connector84pad" cy="3.6" cx="19.2897" stroke="#F7BD13" connectorname="VBUS" stroke-width="0.95868" fill="none" r="1.89666"  gorn="0.3.0.7"/>
            <circle id="connector88pad" cy="3.6" cx="48.0897" stroke="#F7BD13" connectorname="D10" stroke-width="0.95868" fill="none" r="1.89666"  gorn="0.3.0.8"/>
            <circle id="connector92pad" cy="3.6" cx="76.8895" stroke="#F7BD13" connectorname="SCL" stroke-width="0.95868" fill="none" r="1.89666"  gorn="0.3.0.9"/>
            <circle id="connector96pad" cy="46.8" cx="98.4895" stroke="#F7BD13" connectorname="D2" stroke-width="0.95868" fill="none" r="1.89666"  gorn="0.3.0.10"/>
            <circle id="connector100pad" cy="46.8" cx="69.6897" stroke="#F7BD13" connectorname="A5" stroke-width="0.95868" fill="none" r="1.89666"  gorn="0.3.0.11"/>
            <circle id="connector104pad" cy="46.8" cx="40.8897" stroke="#F7BD13" connectorname="A1" stroke-width="0.95868" fill="none" r="1.89666"  gorn="0.3.0.12"/>
            <circle id="connector108pad" cy="46.8" cx="12.0897" stroke="#F7BD13" connectorname="+3V3" stroke-width="0.95868" fill="none" r="1.89666"  gorn="0.3.0.13"/>
            <circle id="connector83pad" cy="3.6" cx="12.0897" stroke="#F7BD13" connectorname="GND" stroke-width="0.95868" fill="none" r="1.89666"  gorn="0.3.0.14"/>
            <circle id="connector85pad" cy="3.6" cx="26.4897" stroke="#F7BD13" connectorname="D13" stroke-width="0.95868" fill="none" r="1.89666"  gorn="0.3.0.15"/>
            <circle id="connector87pad" cy="3.6" cx="40.8897" stroke="#F7BD13" connectorname="D11" stroke-width="0.95868" fill="none" r="1.89666"  gorn="0.3.0.16"/>
            <circle id="connector89pad" cy="3.6" cx="55.2897" stroke="#F7BD13" connectorname="D9" stroke-width="0.95868" fill="none" r="1.89666"  gorn="0.3.0.17"/>
            <circle id="connector91pad" cy="3.6" cx="69.6897" stroke="#F7BD13" connectorname="D5_5V" stroke-width="0.95868" fill="none" r="1.89666"  gorn="0.3.0.18"/>
            <circle id="connector93pad" cy="3.6" cx="84.0895" stroke="#F7BD13" connectorname="SDA" stroke-width="0.95868" fill="none" r="1.89666"  gorn="0.3.0.19"/>
            <circle id="connector95pad" cy="3.6" cx="98.4895" stroke="#F7BD13" connectorname="RX_D0" stroke-width="0.95868" fill="none" r="1.89666"  gorn="0.3.0.20"/>
            <circle id="connector97pad" cy="46.8" cx="91.2895" stroke="#F7BD13" connectorname="MISO" stroke-width="0.95868" fill="none" r="1.89666"  gorn="0.3.0.21"/>
            <circle id="connector99pad" cy="46.8" cx="76.8895" stroke="#F7BD13" connectorname="SCK" stroke-width="0.95868" fill="none" r="1.89666"  gorn="0.3.0.22"/>
            <circle id="connector101pad" cy="46.8" cx="62.4897" stroke="#F7BD13" connectorname="A4" stroke-width="0.95868" fill="none" r="1.89666"  gorn="0.3.0.23"/>
            <circle id="connector103pad" cy="46.8" cx="48.0897" stroke="#F7BD13" connectorname="A2" stroke-width="0.95868" fill="none" r="1.89666"  gorn="0.3.0.24"/>
            <circle id="connector105pad" cy="46.8" cx="33.6897" stroke="#F7BD13" connectorname="A0" stroke-width="0.95868" fill="none" r="1.89666"  gorn="0.3.0.25"/>
            <circle id="connector107pad" cy="46.8" cx="19.2897" stroke="#F7BD13" connectorname="AREF" stroke-width="0.95868" fill="none" r="1.89666"  gorn="0.3.0.26"/>
            <circle id="connector109pad" cy="46.8" cx="4.88976" stroke="#F7BD13" connectorname="!RESET" stroke-width="0.95868" fill="none" r="1.89666"  gorn="0.3.0.27"/>
            <circle id="connector77pad" cy="39.6" cx="98.4895" stroke="#F7BD13" connectorname="EN" stroke-width="1.10268" fill="none" r="1.96866"  gorn="0.3.0.28"/>
            <circle id="connector78pad" cy="32.4" cx="98.4895" stroke="#F7BD13" connectorname="SWDIO" stroke-width="1.10268" fill="none" r="1.96866"  gorn="0.3.0.29"/>
            <circle id="connector79pad" cy="25.2" cx="98.4895" stroke="#F7BD13" connectorname="SWCLK" stroke-width="1.10268" fill="none" r="1.96866"  gorn="0.3.0.30"/>
            <circle id="connector80pad" cy="18" cx="98.4895" stroke="#F7BD13" connectorname="D3" stroke-width="1.10268" fill="none" r="1.96866"  gorn="0.3.0.31"/>
            <circle id="connector81pad" cy="10.8" cx="98.4895" stroke="#F7BD13" connectorname="D4" stroke-width="1.10268" fill="none" r="1.96866"  gorn="0.3.0.32"/>
        </g>
    </g>
</svg>
