<?xml version="1.0" standalone="no"?>
 <!DOCTYPE svg PUBLIC "-//W3C//DTD SVG 1.1//EN" 
 "http://www.w3.org/Graphics/SVG/1.1/DTD/svg11.dtd"> 
<svg
  xmlns:svg="http://www.w3.org/2000/svg"
  xmlns="http://www.w3.org/2000/svg"
  xmlns:xlink="http://www.w3.org/1999/xlink"
  version="1.1"
  width="27.940000cm" height="21.590000cm" viewBox="0 0 279400000 215900000">
<title>SVG Picture created as project-Edge_Cuts.svg date 2023/07/16 12:49:36 </title>
  <desc>Picture generated by PCBNEW </desc>
<g style="fill:#000000; fill-opacity:1.000000;stroke:#000000; stroke-opacity:1.000000;
stroke-linecap:round; stroke-linejoin:round;"
 transform="translate(0 0) scale(1 1)">
</g>
<g style="fill:#000000; fill-opacity:0.0; 
stroke:#000000; stroke-width:0.000000; stroke-opacity:1; 
stroke-linecap:round; stroke-linejoin:round;">
</g>
<g style="fill:#000000; fill-opacity:0.0; 
stroke:#000000; stroke-width:21200.000000; stroke-opacity:1; 
stroke-linecap:round; stroke-linejoin:round;">
</g>
<g style="fill:#000000; fill-opacity:0.0; 
stroke:#000000; stroke-width:150000.000000; stroke-opacity:1; 
stroke-linecap:round; stroke-linejoin:round;">
<rect x="159400000.000000" y="171900000.000000" width="108000000.000000" height="32000000.000000" rx="0.000000" />
</g>
<g style="fill:#000000; fill-opacity:0.0; 
stroke:#000000; stroke-width:21200.000000; stroke-opacity:1; 
stroke-linecap:round; stroke-linejoin:round;">
</g>
<g style="fill:#000000; fill-opacity:0.0; 
stroke:#000000; stroke-width:150000.000000; stroke-opacity:1; 
stroke-linecap:round; stroke-linejoin:round;">
<rect x="10000000.000000" y="10000000.000000" width="259400000.000000" height="195900000.000000" rx="0.000000" />
</g>
<g style="fill:#000000; fill-opacity:0.0; 
stroke:#000000; stroke-width:21200.000000; stroke-opacity:1; 
stroke-linecap:round; stroke-linejoin:round;">
</g>
<g style="fill:#000000; fill-opacity:0.0; 
stroke:#000000; stroke-width:150000.000000; stroke-opacity:1; 
stroke-linecap:round; stroke-linejoin:round;">
<rect x="12000000.000000" y="12000000.000000" width="255400000.000000" height="191900000.000000" rx="0.000000" />
</g>
<g style="fill:#000000; fill-opacity:0.0; 
stroke:#000000; stroke-width:21200.000000; stroke-opacity:1; 
stroke-linecap:round; stroke-linejoin:round;">
</g>
<g style="fill:#000000; fill-opacity:0.0; 
stroke:#000000; stroke-width:150000.000000; stroke-opacity:1; 
stroke-linecap:round; stroke-linejoin:round;">
<path d="M60000000 12000000
L60000000 10000000
" />
</g>
<g style="fill:#000000; fill-opacity:0.0; 
stroke:#000000; stroke-width:21200.000000; stroke-opacity:1; 
stroke-linecap:round; stroke-linejoin:round;">
</g>
<g style="fill:#000000; fill-opacity:0.0; 
stroke:#000000; stroke-width:150000.000000; stroke-opacity:1; 
stroke-linecap:round; stroke-linejoin:round;">
<path d="M110000000 12000000
L110000000 10000000
" />
</g>
<g style="fill:#000000; fill-opacity:0.0; 
stroke:#000000; stroke-width:21200.000000; stroke-opacity:1; 
stroke-linecap:round; stroke-linejoin:round;">
</g>
<g style="fill:#000000; fill-opacity:0.0; 
stroke:#000000; stroke-width:150000.000000; stroke-opacity:1; 
stroke-linecap:round; stroke-linejoin:round;">
<path d="M160000000 12000000
L160000000 10000000
" />
</g>
<g style="fill:#000000; fill-opacity:0.0; 
stroke:#000000; stroke-width:21200.000000; stroke-opacity:1; 
stroke-linecap:round; stroke-linejoin:round;">
</g>
<g style="fill:#000000; fill-opacity:0.0; 
stroke:#000000; stroke-width:150000.000000; stroke-opacity:1; 
stroke-linecap:round; stroke-linejoin:round;">
<path d="M210000000 12000000
L210000000 10000000
" />
</g>
<g style="fill:#000000; fill-opacity:0.0; 
stroke:#000000; stroke-width:21200.000000; stroke-opacity:1; 
stroke-linecap:round; stroke-linejoin:round;">
</g>
<g style="fill:#000000; fill-opacity:0.0; 
stroke:#000000; stroke-width:150000.000000; stroke-opacity:1; 
stroke-linecap:round; stroke-linejoin:round;">
<path d="M260000000 12000000
L260000000 10000000
" />
</g>
<g style="fill:#000000; fill-opacity:0.0; 
stroke:#000000; stroke-width:21200.000000; stroke-opacity:1; 
stroke-linecap:round; stroke-linejoin:round;">
</g>
<g style="fill:#000000; fill-opacity:0.0; 
stroke:#000000; stroke-width:150000.000000; stroke-opacity:1; 
stroke-linecap:round; stroke-linejoin:round;">
<text x="35000000.000000" y="11650000.000000"
textLength="1433095.000000" font-size="1733333.000000" lengthAdjust="spacingAndGlyphs"
text-anchor="start" opacity="0">1</text>
<g class="stroked-text"><desc>1</desc>
<path d="M36065476 11588095
L35322619 11588095
" />
<path d="M35694047 11588095
L35694047 10288095
L35570238 10473809
L35446428 10597619
L35322619 10659523
" />
</g></g>
<g style="fill:#000000; fill-opacity:0.0; 
stroke:#000000; stroke-width:21200.000000; stroke-opacity:1; 
stroke-linecap:round; stroke-linejoin:round;">
</g>
<g style="fill:#000000; fill-opacity:0.0; 
stroke:#000000; stroke-width:150000.000000; stroke-opacity:1; 
stroke-linecap:round; stroke-linejoin:round;">
<text x="85000000.000000" y="11650000.000000"
textLength="1388095.000000" font-size="1733333.000000" lengthAdjust="spacingAndGlyphs"
text-anchor="start" opacity="0">2</text>
<g class="stroked-text"><desc>2</desc>
<path d="M85322619 10411904
L85384523 10350000
L85508333 10288095
L85817857 10288095
L85941666 10350000
L86003571 10411904
L86065476 10535714
L86065476 10659523
L86003571 10845238
L85260714 11588095
L86065476 11588095
" />
</g></g>
<g style="fill:#000000; fill-opacity:0.0; 
stroke:#000000; stroke-width:21200.000000; stroke-opacity:1; 
stroke-linecap:round; stroke-linejoin:round;">
</g>
<g style="fill:#000000; fill-opacity:0.0; 
stroke:#000000; stroke-width:150000.000000; stroke-opacity:1; 
stroke-linecap:round; stroke-linejoin:round;">
<text x="135000000.000000" y="11650000.000000"
textLength="1388095.000000" font-size="1733333.000000" lengthAdjust="spacingAndGlyphs"
text-anchor="start" opacity="0">3</text>
<g class="stroked-text"><desc>3</desc>
<path d="M135260714 10288095
L136065476 10288095
L135632142 10783333
L135817857 10783333
L135941666 10845238
L136003571 10907142
L136065476 11030952
L136065476 11340476
L136003571 11464285
L135941666 11526190
L135817857 11588095
L135446428 11588095
L135322619 11526190
L135260714 11464285
" />
</g></g>
<g style="fill:#000000; fill-opacity:0.0; 
stroke:#000000; stroke-width:21200.000000; stroke-opacity:1; 
stroke-linecap:round; stroke-linejoin:round;">
</g>
<g style="fill:#000000; fill-opacity:0.0; 
stroke:#000000; stroke-width:150000.000000; stroke-opacity:1; 
stroke-linecap:round; stroke-linejoin:round;">
<text x="185000000.000000" y="11650000.000000"
textLength="1388095.000000" font-size="1733333.000000" lengthAdjust="spacingAndGlyphs"
text-anchor="start" opacity="0">4</text>
<g class="stroked-text"><desc>4</desc>
<path d="M185941666 10721428
L185941666 11588095
" />
<path d="M185632142 10226190
L185322619 11154761
L186127380 11154761
" />
</g></g>
<g style="fill:#000000; fill-opacity:0.0; 
stroke:#000000; stroke-width:21200.000000; stroke-opacity:1; 
stroke-linecap:round; stroke-linejoin:round;">
</g>
<g style="fill:#000000; fill-opacity:0.0; 
stroke:#000000; stroke-width:150000.000000; stroke-opacity:1; 
stroke-linecap:round; stroke-linejoin:round;">
<text x="235000000.000000" y="11650000.000000"
textLength="1388095.000000" font-size="1733333.000000" lengthAdjust="spacingAndGlyphs"
text-anchor="start" opacity="0">5</text>
<g class="stroked-text"><desc>5</desc>
<path d="M236003571 10288095
L235384523 10288095
L235322619 10907142
L235384523 10845238
L235508333 10783333
L235817857 10783333
L235941666 10845238
L236003571 10907142
L236065476 11030952
L236065476 11340476
L236003571 11464285
L235941666 11526190
L235817857 11588095
L235508333 11588095
L235384523 11526190
L235322619 11464285
" />
</g></g>
<g style="fill:#000000; fill-opacity:0.0; 
stroke:#000000; stroke-width:21200.000000; stroke-opacity:1; 
stroke-linecap:round; stroke-linejoin:round;">
</g>
<g style="fill:#000000; fill-opacity:0.0; 
stroke:#000000; stroke-width:150000.000000; stroke-opacity:1; 
stroke-linecap:round; stroke-linejoin:round;">
<path d="M60000000 203900000
L60000000 205900000
" />
</g>
<g style="fill:#000000; fill-opacity:0.0; 
stroke:#000000; stroke-width:21200.000000; stroke-opacity:1; 
stroke-linecap:round; stroke-linejoin:round;">
</g>
<g style="fill:#000000; fill-opacity:0.0; 
stroke:#000000; stroke-width:150000.000000; stroke-opacity:1; 
stroke-linecap:round; stroke-linejoin:round;">
<path d="M110000000 203900000
L110000000 205900000
" />
</g>
<g style="fill:#000000; fill-opacity:0.0; 
stroke:#000000; stroke-width:21200.000000; stroke-opacity:1; 
stroke-linecap:round; stroke-linejoin:round;">
</g>
<g style="fill:#000000; fill-opacity:0.0; 
stroke:#000000; stroke-width:150000.000000; stroke-opacity:1; 
stroke-linecap:round; stroke-linejoin:round;">
<path d="M160000000 203900000
L160000000 205900000
" />
</g>
<g style="fill:#000000; fill-opacity:0.0; 
stroke:#000000; stroke-width:21200.000000; stroke-opacity:1; 
stroke-linecap:round; stroke-linejoin:round;">
</g>
<g style="fill:#000000; fill-opacity:0.0; 
stroke:#000000; stroke-width:150000.000000; stroke-opacity:1; 
stroke-linecap:round; stroke-linejoin:round;">
<path d="M210000000 203900000
L210000000 205900000
" />
</g>
<g style="fill:#000000; fill-opacity:0.0; 
stroke:#000000; stroke-width:21200.000000; stroke-opacity:1; 
stroke-linecap:round; stroke-linejoin:round;">
</g>
<g style="fill:#000000; fill-opacity:0.0; 
stroke:#000000; stroke-width:150000.000000; stroke-opacity:1; 
stroke-linecap:round; stroke-linejoin:round;">
<path d="M260000000 203900000
L260000000 205900000
" />
</g>
<g style="fill:#000000; fill-opacity:0.0; 
stroke:#000000; stroke-width:21200.000000; stroke-opacity:1; 
stroke-linecap:round; stroke-linejoin:round;">
</g>
<g style="fill:#000000; fill-opacity:0.0; 
stroke:#000000; stroke-width:150000.000000; stroke-opacity:1; 
stroke-linecap:round; stroke-linejoin:round;">
<text x="35000000.000000" y="205550000.000000"
textLength="1388095.000000" font-size="1733333.000000" lengthAdjust="spacingAndGlyphs"
text-anchor="start" opacity="0">1</text>
<g class="stroked-text"><desc>1</desc>
<path d="M36065476 205488095
L35322619 205488095
" />
<path d="M35694047 205488095
L35694047 204188095
L35570238 204373809
L35446428 204497619
L35322619 204559523
" />
</g></g>
<g style="fill:#000000; fill-opacity:0.0; 
stroke:#000000; stroke-width:21200.000000; stroke-opacity:1; 
stroke-linecap:round; stroke-linejoin:round;">
</g>
<g style="fill:#000000; fill-opacity:0.0; 
stroke:#000000; stroke-width:150000.000000; stroke-opacity:1; 
stroke-linecap:round; stroke-linejoin:round;">
<text x="85000000.000000" y="205550000.000000"
textLength="1388095.000000" font-size="1733333.000000" lengthAdjust="spacingAndGlyphs"
text-anchor="start" opacity="0">2</text>
<g class="stroked-text"><desc>2</desc>
<path d="M85322619 204311904
L85384523 204250000
L85508333 204188095
L85817857 204188095
L85941666 204250000
L86003571 204311904
L86065476 204435714
L86065476 204559523
L86003571 204745238
L85260714 205488095
L86065476 205488095
" />
</g></g>
<g style="fill:#000000; fill-opacity:0.0; 
stroke:#000000; stroke-width:21200.000000; stroke-opacity:1; 
stroke-linecap:round; stroke-linejoin:round;">
</g>
<g style="fill:#000000; fill-opacity:0.0; 
stroke:#000000; stroke-width:150000.000000; stroke-opacity:1; 
stroke-linecap:round; stroke-linejoin:round;">
<text x="135000000.000000" y="205550000.000000"
textLength="1388095.000000" font-size="1733333.000000" lengthAdjust="spacingAndGlyphs"
text-anchor="start" opacity="0">3</text>
<g class="stroked-text"><desc>3</desc>
<path d="M135260714 204188095
L136065476 204188095
L135632142 204683333
L135817857 204683333
L135941666 204745238
L136003571 204807142
L136065476 204930952
L136065476 205240476
L136003571 205364285
L135941666 205426190
L135817857 205488095
L135446428 205488095
L135322619 205426190
L135260714 205364285
" />
</g></g>
<g style="fill:#000000; fill-opacity:0.0; 
stroke:#000000; stroke-width:21200.000000; stroke-opacity:1; 
stroke-linecap:round; stroke-linejoin:round;">
</g>
<g style="fill:#000000; fill-opacity:0.0; 
stroke:#000000; stroke-width:150000.000000; stroke-opacity:1; 
stroke-linecap:round; stroke-linejoin:round;">
<text x="185000000.000000" y="205550000.000000"
textLength="1388095.000000" font-size="1733333.000000" lengthAdjust="spacingAndGlyphs"
text-anchor="start" opacity="0">4</text>
<g class="stroked-text"><desc>4</desc>
<path d="M185941666 204621428
L185941666 205488095
" />
<path d="M185632142 204126190
L185322619 205054761
L186127380 205054761
" />
</g></g>
<g style="fill:#000000; fill-opacity:0.0; 
stroke:#000000; stroke-width:21200.000000; stroke-opacity:1; 
stroke-linecap:round; stroke-linejoin:round;">
</g>
<g style="fill:#000000; fill-opacity:0.0; 
stroke:#000000; stroke-width:150000.000000; stroke-opacity:1; 
stroke-linecap:round; stroke-linejoin:round;">
<text x="235000000.000000" y="205550000.000000"
textLength="1388095.000000" font-size="1733333.000000" lengthAdjust="spacingAndGlyphs"
text-anchor="start" opacity="0">5</text>
<g class="stroked-text"><desc>5</desc>
<path d="M236003571 204188095
L235384523 204188095
L235322619 204807142
L235384523 204745238
L235508333 204683333
L235817857 204683333
L235941666 204745238
L236003571 204807142
L236065476 204930952
L236065476 205240476
L236003571 205364285
L235941666 205426190
L235817857 205488095
L235508333 205488095
L235384523 205426190
L235322619 205364285
" />
</g></g>
<g style="fill:#000000; fill-opacity:0.0; 
stroke:#000000; stroke-width:21200.000000; stroke-opacity:1; 
stroke-linecap:round; stroke-linejoin:round;">
</g>
<g style="fill:#000000; fill-opacity:0.0; 
stroke:#000000; stroke-width:150000.000000; stroke-opacity:1; 
stroke-linecap:round; stroke-linejoin:round;">
<path d="M10000000 60000000
L12000000 60000000
" />
</g>
<g style="fill:#000000; fill-opacity:0.0; 
stroke:#000000; stroke-width:21200.000000; stroke-opacity:1; 
stroke-linecap:round; stroke-linejoin:round;">
</g>
<g style="fill:#000000; fill-opacity:0.0; 
stroke:#000000; stroke-width:150000.000000; stroke-opacity:1; 
stroke-linecap:round; stroke-linejoin:round;">
<path d="M10000000 110000000
L12000000 110000000
" />
</g>
<g style="fill:#000000; fill-opacity:0.0; 
stroke:#000000; stroke-width:21200.000000; stroke-opacity:1; 
stroke-linecap:round; stroke-linejoin:round;">
</g>
<g style="fill:#000000; fill-opacity:0.0; 
stroke:#000000; stroke-width:150000.000000; stroke-opacity:1; 
stroke-linecap:round; stroke-linejoin:round;">
<path d="M10000000 160000000
L12000000 160000000
" />
</g>
<g style="fill:#000000; fill-opacity:0.0; 
stroke:#000000; stroke-width:21200.000000; stroke-opacity:1; 
stroke-linecap:round; stroke-linejoin:round;">
</g>
<g style="fill:#000000; fill-opacity:0.0; 
stroke:#000000; stroke-width:150000.000000; stroke-opacity:1; 
stroke-linecap:round; stroke-linejoin:round;">
<text x="11000000.000000" y="35650000.000000"
textLength="1264286.000000" font-size="1733333.000000" lengthAdjust="spacingAndGlyphs"
text-anchor="middle" opacity="0">A</text>
<g class="stroked-text"><desc>A</desc>
<path d="M10690476 35216666
L11309523 35216666
" />
<path d="M10566666 35588095
L11000000 34288095
L11433333 35588095
" />
</g></g>
<g style="fill:#000000; fill-opacity:0.0; 
stroke:#000000; stroke-width:21200.000000; stroke-opacity:1; 
stroke-linecap:round; stroke-linejoin:round;">
</g>
<g style="fill:#000000; fill-opacity:0.0; 
stroke:#000000; stroke-width:150000.000000; stroke-opacity:1; 
stroke-linecap:round; stroke-linejoin:round;">
<text x="11000000.000000" y="85650000.000000"
textLength="1450000.000000" font-size="1733333.000000" lengthAdjust="spacingAndGlyphs"
text-anchor="middle" opacity="0">B</text>
<g class="stroked-text"><desc>B</desc>
<path d="M11092857 84907142
L11278571 84969047
L11340476 85030952
L11402380 85154761
L11402380 85340476
L11340476 85464285
L11278571 85526190
L11154761 85588095
L10659523 85588095
L10659523 84288095
L11092857 84288095
L11216666 84350000
L11278571 84411904
L11340476 84535714
L11340476 84659523
L11278571 84783333
L11216666 84845238
L11092857 84907142
L10659523 84907142
" />
</g></g>
<g style="fill:#000000; fill-opacity:0.0; 
stroke:#000000; stroke-width:21200.000000; stroke-opacity:1; 
stroke-linecap:round; stroke-linejoin:round;">
</g>
<g style="fill:#000000; fill-opacity:0.0; 
stroke:#000000; stroke-width:150000.000000; stroke-opacity:1; 
stroke-linecap:round; stroke-linejoin:round;">
<text x="11000000.000000" y="135650000.000000"
textLength="1450000.000000" font-size="1733333.000000" lengthAdjust="spacingAndGlyphs"
text-anchor="middle" opacity="0">C</text>
<g class="stroked-text"><desc>C</desc>
<path d="M11402380 135464285
L11340476 135526190
L11154761 135588095
L11030952 135588095
L10845238 135526190
L10721428 135402380
L10659523 135278571
L10597619 135030952
L10597619 134845238
L10659523 134597619
L10721428 134473809
L10845238 134350000
L11030952 134288095
L11154761 134288095
L11340476 134350000
L11402380 134411904
" />
</g></g>
<g style="fill:#000000; fill-opacity:0.0; 
stroke:#000000; stroke-width:21200.000000; stroke-opacity:1; 
stroke-linecap:round; stroke-linejoin:round;">
</g>
<g style="fill:#000000; fill-opacity:0.0; 
stroke:#000000; stroke-width:150000.000000; stroke-opacity:1; 
stroke-linecap:round; stroke-linejoin:round;">
<text x="11000000.000000" y="185650000.000000"
textLength="1450000.000000" font-size="1733333.000000" lengthAdjust="spacingAndGlyphs"
text-anchor="middle" opacity="0">D</text>
<g class="stroked-text"><desc>D</desc>
<path d="M10659523 185588095
L10659523 184288095
L10969047 184288095
L11154761 184350000
L11278571 184473809
L11340476 184597619
L11402380 184845238
L11402380 185030952
L11340476 185278571
L11278571 185402380
L11154761 185526190
L10969047 185588095
L10659523 185588095
" />
</g></g>
<g style="fill:#000000; fill-opacity:0.0; 
stroke:#000000; stroke-width:21200.000000; stroke-opacity:1; 
stroke-linecap:round; stroke-linejoin:round;">
</g>
<g style="fill:#000000; fill-opacity:0.0; 
stroke:#000000; stroke-width:150000.000000; stroke-opacity:1; 
stroke-linecap:round; stroke-linejoin:round;">
<path d="M269400000 60000000
L267400000 60000000
" />
</g>
<g style="fill:#000000; fill-opacity:0.0; 
stroke:#000000; stroke-width:21200.000000; stroke-opacity:1; 
stroke-linecap:round; stroke-linejoin:round;">
</g>
<g style="fill:#000000; fill-opacity:0.0; 
stroke:#000000; stroke-width:150000.000000; stroke-opacity:1; 
stroke-linecap:round; stroke-linejoin:round;">
<path d="M269400000 110000000
L267400000 110000000
" />
</g>
<g style="fill:#000000; fill-opacity:0.0; 
stroke:#000000; stroke-width:21200.000000; stroke-opacity:1; 
stroke-linecap:round; stroke-linejoin:round;">
</g>
<g style="fill:#000000; fill-opacity:0.0; 
stroke:#000000; stroke-width:150000.000000; stroke-opacity:1; 
stroke-linecap:round; stroke-linejoin:round;">
<path d="M269400000 160000000
L267400000 160000000
" />
</g>
<g style="fill:#000000; fill-opacity:0.0; 
stroke:#000000; stroke-width:21200.000000; stroke-opacity:1; 
stroke-linecap:round; stroke-linejoin:round;">
</g>
<g style="fill:#000000; fill-opacity:0.0; 
stroke:#000000; stroke-width:150000.000000; stroke-opacity:1; 
stroke-linecap:round; stroke-linejoin:round;">
<text x="268400000.000000" y="35650000.000000"
textLength="1264286.000000" font-size="1733333.000000" lengthAdjust="spacingAndGlyphs"
text-anchor="middle" opacity="0">A</text>
<g class="stroked-text"><desc>A</desc>
<path d="M268090476 35216666
L268709523 35216666
" />
<path d="M267966666 35588095
L268400000 34288095
L268833333 35588095
" />
</g></g>
<g style="fill:#000000; fill-opacity:0.0; 
stroke:#000000; stroke-width:21200.000000; stroke-opacity:1; 
stroke-linecap:round; stroke-linejoin:round;">
</g>
<g style="fill:#000000; fill-opacity:0.0; 
stroke:#000000; stroke-width:150000.000000; stroke-opacity:1; 
stroke-linecap:round; stroke-linejoin:round;">
<text x="268400000.000000" y="85650000.000000"
textLength="1450000.000000" font-size="1733333.000000" lengthAdjust="spacingAndGlyphs"
text-anchor="middle" opacity="0">B</text>
<g class="stroked-text"><desc>B</desc>
<path d="M268492857 84907142
L268678571 84969047
L268740476 85030952
L268802380 85154761
L268802380 85340476
L268740476 85464285
L268678571 85526190
L268554761 85588095
L268059523 85588095
L268059523 84288095
L268492857 84288095
L268616666 84350000
L268678571 84411904
L268740476 84535714
L268740476 84659523
L268678571 84783333
L268616666 84845238
L268492857 84907142
L268059523 84907142
" />
</g></g>
<g style="fill:#000000; fill-opacity:0.0; 
stroke:#000000; stroke-width:21200.000000; stroke-opacity:1; 
stroke-linecap:round; stroke-linejoin:round;">
</g>
<g style="fill:#000000; fill-opacity:0.0; 
stroke:#000000; stroke-width:150000.000000; stroke-opacity:1; 
stroke-linecap:round; stroke-linejoin:round;">
<text x="268400000.000000" y="135650000.000000"
textLength="1450000.000000" font-size="1733333.000000" lengthAdjust="spacingAndGlyphs"
text-anchor="middle" opacity="0">C</text>
<g class="stroked-text"><desc>C</desc>
<path d="M268802380 135464285
L268740476 135526190
L268554761 135588095
L268430952 135588095
L268245238 135526190
L268121428 135402380
L268059523 135278571
L267997619 135030952
L267997619 134845238
L268059523 134597619
L268121428 134473809
L268245238 134350000
L268430952 134288095
L268554761 134288095
L268740476 134350000
L268802380 134411904
" />
</g></g>
<g style="fill:#000000; fill-opacity:0.0; 
stroke:#000000; stroke-width:21200.000000; stroke-opacity:1; 
stroke-linecap:round; stroke-linejoin:round;">
</g>
<g style="fill:#000000; fill-opacity:0.0; 
stroke:#000000; stroke-width:150000.000000; stroke-opacity:1; 
stroke-linecap:round; stroke-linejoin:round;">
<text x="268400000.000000" y="185650000.000000"
textLength="1450000.000000" font-size="1733333.000000" lengthAdjust="spacingAndGlyphs"
text-anchor="middle" opacity="0">D</text>
<g class="stroked-text"><desc>D</desc>
<path d="M268059523 185588095
L268059523 184288095
L268369047 184288095
L268554761 184350000
L268678571 184473809
L268740476 184597619
L268802380 184845238
L268802380 185030952
L268740476 185278571
L268678571 185402380
L268554761 185526190
L268369047 185588095
L268059523 185588095
" />
</g></g>
<g style="fill:#000000; fill-opacity:0.0; 
stroke:#000000; stroke-width:21200.000000; stroke-opacity:1; 
stroke-linecap:round; stroke-linejoin:round;">
</g>
<g style="fill:#000000; fill-opacity:0.0; 
stroke:#000000; stroke-width:150000.000000; stroke-opacity:1; 
stroke-linecap:round; stroke-linejoin:round;">
<text x="182400000.000000" y="199750000.000000"
textLength="22150000.000000" font-size="2000000.000000" lengthAdjust="spacingAndGlyphs"
text-anchor="start" opacity="0">Date: 2023-06-18</text>
<g class="stroked-text"><desc>Date: 2023-06-18</desc>
<path d="M182832142 199678571
L182832142 198178571
L183189285 198178571
L183403571 198250000
L183546428 198392857
L183617857 198535714
L183689285 198821428
L183689285 199035714
L183617857 199321428
L183546428 199464285
L183403571 199607142
L183189285 199678571
L182832142 199678571
" />
<path d="M184975000 199678571
L184975000 198892857
L184903571 198750000
L184760714 198678571
L184475000 198678571
L184332142 198750000
" />
<path d="M184975000 199607142
L184832142 199678571
L184475000 199678571
L184332142 199607142
L184260714 199464285
L184260714 199321428
L184332142 199178571
L184475000 199107142
L184832142 199107142
L184975000 199035714
" />
<path d="M185475000 198678571
L186046428 198678571
" />
<path d="M185689285 198178571
L185689285 199464285
L185760714 199607142
L185903571 199678571
L186046428 199678571
" />
<path d="M187117857 199607142
L186975000 199678571
L186689285 199678571
L186546428 199607142
L186475000 199464285
L186475000 198892857
L186546428 198750000
L186689285 198678571
L186975000 198678571
L187117857 198750000
L187189285 198892857
L187189285 199035714
L186475000 199178571
" />
<path d="M187832142 199535714
L187903571 199607142
L187832142 199678571
L187760714 199607142
L187832142 199535714
L187832142 199678571
" />
<path d="M187832142 198750000
L187903571 198821428
L187832142 198892857
L187760714 198821428
L187832142 198750000
L187832142 198892857
" />
<path d="M189617857 198321428
L189689285 198250000
L189832142 198178571
L190189285 198178571
L190332142 198250000
L190403571 198321428
L190475000 198464285
L190475000 198607142
L190403571 198821428
L189546428 199678571
L190475000 199678571
" />
<path d="M191403571 198178571
L191546428 198178571
L191689285 198250000
L191760714 198321428
L191832142 198464285
L191903571 198750000
L191903571 199107142
L191832142 199392857
L191760714 199535714
L191689285 199607142
L191546428 199678571
L191403571 199678571
L191260714 199607142
L191189285 199535714
L191117857 199392857
L191046428 199107142
L191046428 198750000
L191117857 198464285
L191189285 198321428
L191260714 198250000
L191403571 198178571
" />
<path d="M192475000 198321428
L192546428 198250000
L192689285 198178571
L193046428 198178571
L193189285 198250000
L193260714 198321428
L193332142 198464285
L193332142 198607142
L193260714 198821428
L192403571 199678571
L193332142 199678571
" />
<path d="M193832142 198178571
L194760714 198178571
L194260714 198750000
L194475000 198750000
L194617857 198821428
L194689285 198892857
L194760714 199035714
L194760714 199392857
L194689285 199535714
L194617857 199607142
L194475000 199678571
L194046428 199678571
L193903571 199607142
L193832142 199535714
" />
<path d="M195403571 199107142
L196546428 199107142
" />
<path d="M197546428 198178571
L197689285 198178571
L197832142 198250000
L197903571 198321428
L197975000 198464285
L198046428 198750000
L198046428 199107142
L197975000 199392857
L197903571 199535714
L197832142 199607142
L197689285 199678571
L197546428 199678571
L197403571 199607142
L197332142 199535714
L197260714 199392857
L197189285 199107142
L197189285 198750000
L197260714 198464285
L197332142 198321428
L197403571 198250000
L197546428 198178571
" />
<path d="M199332142 198178571
L199046428 198178571
L198903571 198250000
L198832142 198321428
L198689285 198535714
L198617857 198821428
L198617857 199392857
L198689285 199535714
L198760714 199607142
L198903571 199678571
L199189285 199678571
L199332142 199607142
L199403571 199535714
L199475000 199392857
L199475000 199035714
L199403571 198892857
L199332142 198821428
L199189285 198750000
L198903571 198750000
L198760714 198821428
L198689285 198892857
L198617857 199035714
" />
<path d="M200117857 199107142
L201260714 199107142
" />
<path d="M202760714 199678571
L201903571 199678571
" />
<path d="M202332142 199678571
L202332142 198178571
L202189285 198392857
L202046428 198535714
L201903571 198607142
" />
<path d="M203617857 198821428
L203475000 198750000
L203403571 198678571
L203332142 198535714
L203332142 198464285
L203403571 198321428
L203475000 198250000
L203617857 198178571
L203903571 198178571
L204046428 198250000
L204117857 198321428
L204189285 198464285
L204189285 198535714
L204117857 198678571
L204046428 198750000
L203903571 198821428
L203617857 198821428
L203475000 198892857
L203403571 198964285
L203332142 199107142
L203332142 199392857
L203403571 199535714
L203475000 199607142
L203617857 199678571
L203903571 199678571
L204046428 199607142
L204117857 199535714
L204189285 199392857
L204189285 199107142
L204117857 198964285
L204046428 198892857
L203903571 198821428
" />
</g></g>
<g style="fill:#000000; fill-opacity:0.0; 
stroke:#000000; stroke-width:21200.000000; stroke-opacity:1; 
stroke-linecap:round; stroke-linejoin:round;">
</g>
<g style="fill:#000000; fill-opacity:0.0; 
stroke:#000000; stroke-width:150000.000000; stroke-opacity:1; 
stroke-linecap:round; stroke-linejoin:round;">
<path d="M159400000 200400000
L267400000 200400000
" />
</g>
<g style="fill:#000000; fill-opacity:0.0; 
stroke:#000000; stroke-width:21200.000000; stroke-opacity:1; 
stroke-linecap:round; stroke-linejoin:round;">
</g>
<g style="fill:#000000; fill-opacity:0.0; 
stroke:#000000; stroke-width:150000.000000; stroke-opacity:1; 
stroke-linecap:round; stroke-linejoin:round;">
<text x="160400000.000000" y="202550000.000000"
textLength="32507143.000000" font-size="2000000.000000" lengthAdjust="spacingAndGlyphs"
text-anchor="start" opacity="0">KiCad E.D.A.  kicad (6.0.10)</text>
<g class="stroked-text"><desc>KiCad E.D.A.  kicad (6.0.10)</desc>
<path d="M160832142 202478571
L160832142 200978571
" />
<path d="M161689285 202478571
L161046428 201621428
" />
<path d="M161689285 200978571
L160832142 201835714
" />
<path d="M162332142 202478571
L162332142 201478571
" />
<path d="M162332142 200978571
L162260714 201050000
L162332142 201121428
L162403571 201050000
L162332142 200978571
L162332142 201121428
" />
<path d="M163903571 202335714
L163832142 202407142
L163617857 202478571
L163475000 202478571
L163260714 202407142
L163117857 202264285
L163046428 202121428
L162975000 201835714
L162975000 201621428
L163046428 201335714
L163117857 201192857
L163260714 201050000
L163475000 200978571
L163617857 200978571
L163832142 201050000
L163903571 201121428
" />
<path d="M165189285 202478571
L165189285 201692857
L165117857 201550000
L164975000 201478571
L164689285 201478571
L164546428 201550000
" />
<path d="M165189285 202407142
L165046428 202478571
L164689285 202478571
L164546428 202407142
L164475000 202264285
L164475000 202121428
L164546428 201978571
L164689285 201907142
L165046428 201907142
L165189285 201835714
" />
<path d="M166546428 202478571
L166546428 200978571
" />
<path d="M166546428 202407142
L166403571 202478571
L166117857 202478571
L165975000 202407142
L165903571 202335714
L165832142 202192857
L165832142 201764285
L165903571 201621428
L165975000 201550000
L166117857 201478571
L166403571 201478571
L166546428 201550000
" />
<path d="M168403571 201692857
L168903571 201692857
" />
<path d="M169117857 202478571
L168403571 202478571
L168403571 200978571
L169117857 200978571
" />
<path d="M169760714 202335714
L169832142 202407142
L169760714 202478571
L169689285 202407142
L169760714 202335714
L169760714 202478571
" />
<path d="M170475000 202478571
L170475000 200978571
L170832142 200978571
L171046428 201050000
L171189285 201192857
L171260714 201335714
L171332142 201621428
L171332142 201835714
L171260714 202121428
L171189285 202264285
L171046428 202407142
L170832142 202478571
L170475000 202478571
" />
<path d="M171975000 202335714
L172046428 202407142
L171975000 202478571
L171903571 202407142
L171975000 202335714
L171975000 202478571
" />
<path d="M172617857 202050000
L173332142 202050000
" />
<path d="M172475000 202478571
L172975000 200978571
L173475000 202478571
" />
<path d="M173975000 202335714
L174046428 202407142
L173975000 202478571
L173903571 202407142
L173975000 202335714
L173975000 202478571
" />
<path d="M176975000 202478571
L176975000 200978571
" />
<path d="M177117857 201907142
L177546428 202478571
" />
<path d="M177546428 201478571
L176975000 202050000
" />
<path d="M178189285 202478571
L178189285 201478571
" />
<path d="M178189285 200978571
L178117857 201050000
L178189285 201121428
L178260714 201050000
L178189285 200978571
L178189285 201121428
" />
<path d="M179546428 202407142
L179403571 202478571
L179117857 202478571
L178975000 202407142
L178903571 202335714
L178832142 202192857
L178832142 201764285
L178903571 201621428
L178975000 201550000
L179117857 201478571
L179403571 201478571
L179546428 201550000
" />
<path d="M180832142 202478571
L180832142 201692857
L180760714 201550000
L180617857 201478571
L180332142 201478571
L180189285 201550000
" />
<path d="M180832142 202407142
L180689285 202478571
L180332142 202478571
L180189285 202407142
L180117857 202264285
L180117857 202121428
L180189285 201978571
L180332142 201907142
L180689285 201907142
L180832142 201835714
" />
<path d="M182189285 202478571
L182189285 200978571
" />
<path d="M182189285 202407142
L182046428 202478571
L181760714 202478571
L181617857 202407142
L181546428 202335714
L181475000 202192857
L181475000 201764285
L181546428 201621428
L181617857 201550000
L181760714 201478571
L182046428 201478571
L182189285 201550000
" />
<path d="M184475000 203050000
L184403571 202978571
L184260714 202764285
L184189285 202621428
L184117857 202407142
L184046428 202050000
L184046428 201764285
L184117857 201407142
L184189285 201192857
L184260714 201050000
L184403571 200835714
L184475000 200764285
" />
<path d="M185689285 200978571
L185403571 200978571
L185260714 201050000
L185189285 201121428
L185046428 201335714
L184975000 201621428
L184975000 202192857
L185046428 202335714
L185117857 202407142
L185260714 202478571
L185546428 202478571
L185689285 202407142
L185760714 202335714
L185832142 202192857
L185832142 201835714
L185760714 201692857
L185689285 201621428
L185546428 201550000
L185260714 201550000
L185117857 201621428
L185046428 201692857
L184975000 201835714
" />
<path d="M186475000 202335714
L186546428 202407142
L186475000 202478571
L186403571 202407142
L186475000 202335714
L186475000 202478571
" />
<path d="M187475000 200978571
L187617857 200978571
L187760714 201050000
L187832142 201121428
L187903571 201264285
L187975000 201550000
L187975000 201907142
L187903571 202192857
L187832142 202335714
L187760714 202407142
L187617857 202478571
L187475000 202478571
L187332142 202407142
L187260714 202335714
L187189285 202192857
L187117857 201907142
L187117857 201550000
L187189285 201264285
L187260714 201121428
L187332142 201050000
L187475000 200978571
" />
<path d="M188617857 202335714
L188689285 202407142
L188617857 202478571
L188546428 202407142
L188617857 202335714
L188617857 202478571
" />
<path d="M190117857 202478571
L189260714 202478571
" />
<path d="M189689285 202478571
L189689285 200978571
L189546428 201192857
L189403571 201335714
L189260714 201407142
" />
<path d="M191046428 200978571
L191189285 200978571
L191332142 201050000
L191403571 201121428
L191475000 201264285
L191546428 201550000
L191546428 201907142
L191475000 202192857
L191403571 202335714
L191332142 202407142
L191189285 202478571
L191046428 202478571
L190903571 202407142
L190832142 202335714
L190760714 202192857
L190689285 201907142
L190689285 201550000
L190760714 201264285
L190832142 201121428
L190903571 201050000
L191046428 200978571
" />
<path d="M192046428 203050000
L192117857 202978571
L192260714 202764285
L192332142 202621428
L192403571 202407142
L192475000 202050000
L192475000 201764285
L192403571 201407142
L192332142 201192857
L192260714 201050000
L192117857 200835714
L192046428 200764285
" />
</g></g>
<g style="fill:#000000; fill-opacity:0.0; 
stroke:#000000; stroke-width:21200.000000; stroke-opacity:1; 
stroke-linecap:round; stroke-linejoin:round;">
</g>
<g style="fill:#000000; fill-opacity:0.0; 
stroke:#000000; stroke-width:150000.000000; stroke-opacity:1; 
stroke-linecap:round; stroke-linejoin:round;">
<path d="M159400000 197400000
L267400000 197400000
" />
</g>
<g style="fill:#000000; fill-opacity:0.0; 
stroke:#000000; stroke-width:21200.000000; stroke-opacity:1; 
stroke-linecap:round; stroke-linejoin:round;">
</g>
<g style="fill:#000000; fill-opacity:0.0; 
stroke:#000000; stroke-width:300000.000000; stroke-opacity:1; 
stroke-linecap:round; stroke-linejoin:round;">
<text x="245400000.000000" y="199750000.000000"
textLength="9507143.000000" font-size="2000000.000000" lengthAdjust="spacingAndGlyphs"
text-anchor="start" opacity="0">Rev: 0.0</text>
<g class="stroked-text"><desc>Rev: 0.0</desc>
<path d="M246809285 199678571
L246309285 198964285
" />
<path d="M245952142 199678571
L245952142 198178571
L246523571 198178571
L246666428 198250000
L246737857 198321428
L246809285 198464285
L246809285 198678571
L246737857 198821428
L246666428 198892857
L246523571 198964285
L245952142 198964285
" />
<path d="M248023571 199607142
L247880714 199678571
L247595000 199678571
L247452142 199607142
L247380714 199464285
L247380714 198892857
L247452142 198750000
L247595000 198678571
L247880714 198678571
L248023571 198750000
L248095000 198892857
L248095000 199035714
L247380714 199178571
" />
<path d="M248595000 198678571
L248952142 199678571
L249309285 198678571
" />
<path d="M249880714 199535714
L249952142 199607142
L249880714 199678571
L249809285 199607142
L249880714 199535714
L249880714 199678571
" />
<path d="M249880714 198750000
L249952142 198821428
L249880714 198892857
L249809285 198821428
L249880714 198750000
L249880714 198892857
" />
<path d="M252023571 198178571
L252166428 198178571
L252309285 198250000
L252380714 198321428
L252452142 198464285
L252523571 198750000
L252523571 199107142
L252452142 199392857
L252380714 199535714
L252309285 199607142
L252166428 199678571
L252023571 199678571
L251880714 199607142
L251809285 199535714
L251737857 199392857
L251666428 199107142
L251666428 198750000
L251737857 198464285
L251809285 198321428
L251880714 198250000
L252023571 198178571
" />
<path d="M253166428 199535714
L253237857 199607142
L253166428 199678571
L253095000 199607142
L253166428 199535714
L253166428 199678571
" />
<path d="M254166428 198178571
L254309285 198178571
L254452142 198250000
L254523571 198321428
L254595000 198464285
L254666428 198750000
L254666428 199107142
L254595000 199392857
L254523571 199535714
L254452142 199607142
L254309285 199678571
L254166428 199678571
L254023571 199607142
L253952142 199535714
L253880714 199392857
L253809285 199107142
L253809285 198750000
L253880714 198464285
L253952142 198321428
L254023571 198250000
L254166428 198178571
" />
</g></g>
<g style="fill:#000000; fill-opacity:0.0; 
stroke:#000000; stroke-width:21200.000000; stroke-opacity:1; 
stroke-linecap:round; stroke-linejoin:round;">
</g>
<g style="fill:#000000; fill-opacity:0.0; 
stroke:#000000; stroke-width:150000.000000; stroke-opacity:1; 
stroke-linecap:round; stroke-linejoin:round;">
<text x="160400000.000000" y="199750000.000000"
textLength="16318571.000000" font-size="2000000.000000" lengthAdjust="spacingAndGlyphs"
text-anchor="start" opacity="0">Size: USLetter</text>
<g class="stroked-text"><desc>Size: USLetter</desc>
<path d="M160760714 199607142
L160975000 199678571
L161332142 199678571
L161475000 199607142
L161546428 199535714
L161617857 199392857
L161617857 199250000
L161546428 199107142
L161475000 199035714
L161332142 198964285
L161046428 198892857
L160903571 198821428
L160832142 198750000
L160760714 198607142
L160760714 198464285
L160832142 198321428
L160903571 198250000
L161046428 198178571
L161403571 198178571
L161617857 198250000
" />
<path d="M162260714 199678571
L162260714 198678571
" />
<path d="M162260714 198178571
L162189285 198250000
L162260714 198321428
L162332142 198250000
L162260714 198178571
L162260714 198321428
" />
<path d="M162832142 198678571
L163617857 198678571
L162832142 199678571
L163617857 199678571
" />
<path d="M164760714 199607142
L164617857 199678571
L164332142 199678571
L164189285 199607142
L164117857 199464285
L164117857 198892857
L164189285 198750000
L164332142 198678571
L164617857 198678571
L164760714 198750000
L164832142 198892857
L164832142 199035714
L164117857 199178571
" />
<path d="M165475000 199535714
L165546428 199607142
L165475000 199678571
L165403571 199607142
L165475000 199535714
L165475000 199678571
" />
<path d="M165475000 198750000
L165546428 198821428
L165475000 198892857
L165403571 198821428
L165475000 198750000
L165475000 198892857
" />
<path d="M167332142 198178571
L167332142 199392857
L167403571 199535714
L167475000 199607142
L167617857 199678571
L167903571 199678571
L168046428 199607142
L168117857 199535714
L168189285 199392857
L168189285 198178571
" />
<path d="M168832142 199607142
L169046428 199678571
L169403571 199678571
L169546428 199607142
L169617857 199535714
L169689285 199392857
L169689285 199250000
L169617857 199107142
L169546428 199035714
L169403571 198964285
L169117857 198892857
L168975000 198821428
L168903571 198750000
L168832142 198607142
L168832142 198464285
L168903571 198321428
L168975000 198250000
L169117857 198178571
L169475000 198178571
L169689285 198250000
" />
<path d="M171046428 199678571
L170332142 199678571
L170332142 198178571
" />
<path d="M172117857 199607142
L171975000 199678571
L171689285 199678571
L171546428 199607142
L171475000 199464285
L171475000 198892857
L171546428 198750000
L171689285 198678571
L171975000 198678571
L172117857 198750000
L172189285 198892857
L172189285 199035714
L171475000 199178571
" />
<path d="M172617857 198678571
L173189285 198678571
" />
<path d="M172832142 198178571
L172832142 199464285
L172903571 199607142
L173046428 199678571
L173189285 199678571
" />
<path d="M173475000 198678571
L174046428 198678571
" />
<path d="M173689285 198178571
L173689285 199464285
L173760714 199607142
L173903571 199678571
L174046428 199678571
" />
<path d="M175117857 199607142
L174975000 199678571
L174689285 199678571
L174546428 199607142
L174475000 199464285
L174475000 198892857
L174546428 198750000
L174689285 198678571
L174975000 198678571
L175117857 198750000
L175189285 198892857
L175189285 199035714
L174475000 199178571
" />
<path d="M175832142 199678571
L175832142 198678571
" />
<path d="M175832142 198964285
L175903571 198821428
L175975000 198750000
L176117857 198678571
L176260714 198678571
" />
</g></g>
<g style="fill:#000000; fill-opacity:0.0; 
stroke:#000000; stroke-width:21200.000000; stroke-opacity:1; 
stroke-linecap:round; stroke-linejoin:round;">
</g>
<g style="fill:#000000; fill-opacity:0.0; 
stroke:#000000; stroke-width:150000.000000; stroke-opacity:1; 
stroke-linecap:round; stroke-linejoin:round;">
<text x="245400000.000000" y="202550000.000000"
textLength="8507143.000000" font-size="2000000.000000" lengthAdjust="spacingAndGlyphs"
text-anchor="start" opacity="0">Id: 1/1</text>
<g class="stroked-text"><desc>Id: 1/1</desc>
<path d="M245832142 202478571
L245832142 200978571
" />
<path d="M247189285 202478571
L247189285 200978571
" />
<path d="M247189285 202407142
L247046428 202478571
L246760714 202478571
L246617857 202407142
L246546428 202335714
L246475000 202192857
L246475000 201764285
L246546428 201621428
L246617857 201550000
L246760714 201478571
L247046428 201478571
L247189285 201550000
" />
<path d="M247903571 202335714
L247975000 202407142
L247903571 202478571
L247832142 202407142
L247903571 202335714
L247903571 202478571
" />
<path d="M247903571 201550000
L247975000 201621428
L247903571 201692857
L247832142 201621428
L247903571 201550000
L247903571 201692857
" />
<path d="M250546428 202478571
L249689285 202478571
" />
<path d="M250117857 202478571
L250117857 200978571
L249975000 201192857
L249832142 201335714
L249689285 201407142
" />
<path d="M252260714 200907142
L250975000 202835714
" />
<path d="M253546428 202478571
L252689285 202478571
" />
<path d="M253117857 202478571
L253117857 200978571
L252975000 201192857
L252832142 201335714
L252689285 201407142
" />
</g></g>
<g style="fill:#000000; fill-opacity:0.0; 
stroke:#000000; stroke-width:21200.000000; stroke-opacity:1; 
stroke-linecap:round; stroke-linejoin:round;">
</g>
<g style="fill:#000000; fill-opacity:0.0; 
stroke:#000000; stroke-width:150000.000000; stroke-opacity:1; 
stroke-linecap:round; stroke-linejoin:round;">
<path d="M159400000 193400000
L267400000 193400000
" />
</g>
<g style="fill:#000000; fill-opacity:0.0; 
stroke:#000000; stroke-width:21200.000000; stroke-opacity:1; 
stroke-linecap:round; stroke-linejoin:round;">
</g>
<g style="fill:#000000; fill-opacity:0.0; 
stroke:#000000; stroke-width:400000.000000; stroke-opacity:1; 
stroke-linecap:round; stroke-linejoin:round;">
<text x="160400000.000000" y="196200000.000000"
textLength="42457262.000000" font-size="2666666.000000" lengthAdjust="spacingAndGlyphs"
text-anchor="start" opacity="0">Title: Rpi Pico Robot Board</text>
<g class="stroked-text"><desc>Title: Rpi Pico Robot Board</desc>
<path d="M161112380 194104761
L162255238 194104761
" />
<path d="M161433809 196104761
L161683809 194104761
" />
<path d="M162671904 196104761
L162838571 194771428
" />
<path d="M162921904 194104761
L162814761 194200000
L162898095 194295238
L163005238 194200000
L162921904 194104761
L162898095 194295238
" />
<path d="M163505238 194771428
L164267142 194771428
" />
<path d="M163874285 194104761
L163660000 195819047
L163731428 196009523
L163910000 196104761
L164100476 196104761
" />
<path d="M165052857 196104761
L164874285 196009523
L164802857 195819047
L165017142 194104761
" />
<path d="M166588571 196009523
L166386190 196104761
L166005238 196104761
L165826666 196009523
L165755238 195819047
L165850476 195057142
L165969523 194866666
L166171904 194771428
L166552857 194771428
L166731428 194866666
L166802857 195057142
L166779047 195247619
L165802857 195438095
" />
<path d="M167552857 195914285
L167636190 196009523
L167529047 196104761
L167445714 196009523
L167552857 195914285
L167529047 196104761
" />
<path d="M167683809 194866666
L167767142 194961904
L167660000 195057142
L167576666 194961904
L167683809 194866666
L167660000 195057142
" />
<path d="M171148095 196104761
L170600476 195152380
" />
<path d="M170005238 196104761
L170255238 194104761
L171017142 194104761
L171195714 194200000
L171279047 194295238
L171350476 194485714
L171314761 194771428
L171195714 194961904
L171088571 195057142
L170886190 195152380
L170124285 195152380
" />
<path d="M172171904 194771428
L171921904 196771428
" />
<path d="M172160000 194866666
L172362380 194771428
L172743333 194771428
L172921904 194866666
L173005238 194961904
L173076666 195152380
L173005238 195723809
L172886190 195914285
L172779047 196009523
L172576666 196104761
L172195714 196104761
L172017142 196009523
" />
<path d="M173814761 196104761
L173981428 194771428
" />
<path d="M174064761 194104761
L173957619 194200000
L174040952 194295238
L174148095 194200000
L174064761 194104761
L174040952 194295238
" />
<path d="M176290952 196104761
L176540952 194104761
L177302857 194104761
L177481428 194200000
L177564761 194295238
L177636190 194485714
L177600476 194771428
L177481428 194961904
L177374285 195057142
L177171904 195152380
L176410000 195152380
" />
<path d="M178290952 196104761
L178457619 194771428
" />
<path d="M178540952 194104761
L178433809 194200000
L178517142 194295238
L178624285 194200000
L178540952 194104761
L178517142 194295238
" />
<path d="M180112380 196009523
L179910000 196104761
L179529047 196104761
L179350476 196009523
L179267142 195914285
L179195714 195723809
L179267142 195152380
L179386190 194961904
L179493333 194866666
L179695714 194771428
L180076666 194771428
L180255238 194866666
" />
<path d="M181243333 196104761
L181064761 196009523
L180981428 195914285
L180910000 195723809
L180981428 195152380
L181100476 194961904
L181207619 194866666
L181410000 194771428
L181695714 194771428
L181874285 194866666
L181957619 194961904
L182029047 195152380
L181957619 195723809
L181838571 195914285
L181731428 196009523
L181529047 196104761
L181243333 196104761
" />
<path d="M185433809 196104761
L184886190 195152380
" />
<path d="M184290952 196104761
L184540952 194104761
L185302857 194104761
L185481428 194200000
L185564761 194295238
L185636190 194485714
L185600476 194771428
L185481428 194961904
L185374285 195057142
L185171904 195152380
L184410000 195152380
" />
<path d="M186576666 196104761
L186398095 196009523
L186314761 195914285
L186243333 195723809
L186314761 195152380
L186433809 194961904
L186540952 194866666
L186743333 194771428
L187029047 194771428
L187207619 194866666
L187290952 194961904
L187362380 195152380
L187290952 195723809
L187171904 195914285
L187064761 196009523
L186862380 196104761
L186576666 196104761
" />
<path d="M188100476 196104761
L188350476 194104761
" />
<path d="M188255238 194866666
L188457619 194771428
L188838571 194771428
L189017142 194866666
L189100476 194961904
L189171904 195152380
L189100476 195723809
L188981428 195914285
L188874285 196009523
L188671904 196104761
L188290952 196104761
L188112380 196009523
" />
<path d="M190195714 196104761
L190017142 196009523
L189933809 195914285
L189862380 195723809
L189933809 195152380
L190052857 194961904
L190160000 194866666
L190362380 194771428
L190648095 194771428
L190826666 194866666
L190910000 194961904
L190981428 195152380
L190910000 195723809
L190790952 195914285
L190683809 196009523
L190481428 196104761
L190195714 196104761
" />
<path d="M191600476 194771428
L192362380 194771428
" />
<path d="M191969523 194104761
L191755238 195819047
L191826666 196009523
L192005238 196104761
L192195714 196104761
" />
<path d="M195183809 195057142
L195457619 195152380
L195540952 195247619
L195612380 195438095
L195576666 195723809
L195457619 195914285
L195350476 196009523
L195148095 196104761
L194386190 196104761
L194636190 194104761
L195302857 194104761
L195481428 194200000
L195564761 194295238
L195636190 194485714
L195612380 194676190
L195493333 194866666
L195386190 194961904
L195183809 195057142
L194517142 195057142
" />
<path d="M196671904 196104761
L196493333 196009523
L196410000 195914285
L196338571 195723809
L196410000 195152380
L196529047 194961904
L196636190 194866666
L196838571 194771428
L197124285 194771428
L197302857 194866666
L197386190 194961904
L197457619 195152380
L197386190 195723809
L197267142 195914285
L197160000 196009523
L196957619 196104761
L196671904 196104761
" />
<path d="M199052857 196104761
L199183809 195057142
L199112380 194866666
L198933809 194771428
L198552857 194771428
L198350476 194866666
" />
<path d="M199064761 196009523
L198862380 196104761
L198386190 196104761
L198207619 196009523
L198136190 195819047
L198160000 195628571
L198279047 195438095
L198481428 195342857
L198957619 195342857
L199160000 195247619
" />
<path d="M200005238 196104761
L200171904 194771428
" />
<path d="M200124285 195152380
L200243333 194961904
L200350476 194866666
L200552857 194771428
L200743333 194771428
" />
<path d="M202100476 196104761
L202350476 194104761
" />
<path d="M202112380 196009523
L201910000 196104761
L201529047 196104761
L201350476 196009523
L201267142 195914285
L201195714 195723809
L201267142 195152380
L201386190 194961904
L201493333 194866666
L201695714 194771428
L202076666 194771428
L202255238 194866666
" />
</g></g>
<g style="fill:#000000; fill-opacity:0.0; 
stroke:#000000; stroke-width:21200.000000; stroke-opacity:1; 
stroke-linecap:round; stroke-linejoin:round;">
</g>
<g style="fill:#000000; fill-opacity:0.0; 
stroke:#000000; stroke-width:150000.000000; stroke-opacity:1; 
stroke-linecap:round; stroke-linejoin:round;">
<text x="160400000.000000" y="192350000.000000"
textLength="26020000.000000" font-size="2000000.000000" lengthAdjust="spacingAndGlyphs"
text-anchor="start" opacity="0">File: project.kicad_pcb</text>
<g class="stroked-text"><desc>File: project.kicad_pcb</desc>
<path d="M161332142 191492857
L160832142 191492857
" />
<path d="M160832142 192278571
L160832142 190778571
L161546428 190778571
" />
<path d="M162117857 192278571
L162117857 191278571
" />
<path d="M162117857 190778571
L162046428 190850000
L162117857 190921428
L162189285 190850000
L162117857 190778571
L162117857 190921428
" />
<path d="M163046428 192278571
L162903571 192207142
L162832142 192064285
L162832142 190778571
" />
<path d="M164189285 192207142
L164046428 192278571
L163760714 192278571
L163617857 192207142
L163546428 192064285
L163546428 191492857
L163617857 191350000
L163760714 191278571
L164046428 191278571
L164189285 191350000
L164260714 191492857
L164260714 191635714
L163546428 191778571
" />
<path d="M164903571 192135714
L164975000 192207142
L164903571 192278571
L164832142 192207142
L164903571 192135714
L164903571 192278571
" />
<path d="M164903571 191350000
L164975000 191421428
L164903571 191492857
L164832142 191421428
L164903571 191350000
L164903571 191492857
" />
<path d="M166760714 191278571
L166760714 192778571
" />
<path d="M166760714 191350000
L166903571 191278571
L167189285 191278571
L167332142 191350000
L167403571 191421428
L167475000 191564285
L167475000 191992857
L167403571 192135714
L167332142 192207142
L167189285 192278571
L166903571 192278571
L166760714 192207142
" />
<path d="M168117857 192278571
L168117857 191278571
" />
<path d="M168117857 191564285
L168189285 191421428
L168260714 191350000
L168403571 191278571
L168546428 191278571
" />
<path d="M169260714 192278571
L169117857 192207142
L169046428 192135714
L168975000 191992857
L168975000 191564285
L169046428 191421428
L169117857 191350000
L169260714 191278571
L169475000 191278571
L169617857 191350000
L169689285 191421428
L169760714 191564285
L169760714 191992857
L169689285 192135714
L169617857 192207142
L169475000 192278571
L169260714 192278571
" />
<path d="M170403571 191278571
L170403571 192564285
L170332142 192707142
L170189285 192778571
L170117857 192778571
" />
<path d="M170403571 190778571
L170332142 190850000
L170403571 190921428
L170475000 190850000
L170403571 190778571
L170403571 190921428
" />
<path d="M171689285 192207142
L171546428 192278571
L171260714 192278571
L171117857 192207142
L171046428 192064285
L171046428 191492857
L171117857 191350000
L171260714 191278571
L171546428 191278571
L171689285 191350000
L171760714 191492857
L171760714 191635714
L171046428 191778571
" />
<path d="M173046428 192207142
L172903571 192278571
L172617857 192278571
L172475000 192207142
L172403571 192135714
L172332142 191992857
L172332142 191564285
L172403571 191421428
L172475000 191350000
L172617857 191278571
L172903571 191278571
L173046428 191350000
" />
<path d="M173475000 191278571
L174046428 191278571
" />
<path d="M173689285 190778571
L173689285 192064285
L173760714 192207142
L173903571 192278571
L174046428 192278571
" />
<path d="M174546428 192135714
L174617857 192207142
L174546428 192278571
L174475000 192207142
L174546428 192135714
L174546428 192278571
" />
<path d="M175260714 192278571
L175260714 190778571
" />
<path d="M175403571 191707142
L175832142 192278571
" />
<path d="M175832142 191278571
L175260714 191850000
" />
<path d="M176475000 192278571
L176475000 191278571
" />
<path d="M176475000 190778571
L176403571 190850000
L176475000 190921428
L176546428 190850000
L176475000 190778571
L176475000 190921428
" />
<path d="M177832142 192207142
L177689285 192278571
L177403571 192278571
L177260714 192207142
L177189285 192135714
L177117857 191992857
L177117857 191564285
L177189285 191421428
L177260714 191350000
L177403571 191278571
L177689285 191278571
L177832142 191350000
" />
<path d="M179117857 192278571
L179117857 191492857
L179046428 191350000
L178903571 191278571
L178617857 191278571
L178475000 191350000
" />
<path d="M179117857 192207142
L178975000 192278571
L178617857 192278571
L178475000 192207142
L178403571 192064285
L178403571 191921428
L178475000 191778571
L178617857 191707142
L178975000 191707142
L179117857 191635714
" />
<path d="M180475000 192278571
L180475000 190778571
" />
<path d="M180475000 192207142
L180332142 192278571
L180046428 192278571
L179903571 192207142
L179832142 192135714
L179760714 191992857
L179760714 191564285
L179832142 191421428
L179903571 191350000
L180046428 191278571
L180332142 191278571
L180475000 191350000
" />
<path d="M180832142 192421428
L181975000 192421428
" />
<path d="M182332142 191278571
L182332142 192778571
" />
<path d="M182332142 191350000
L182475000 191278571
L182760714 191278571
L182903571 191350000
L182975000 191421428
L183046428 191564285
L183046428 191992857
L182975000 192135714
L182903571 192207142
L182760714 192278571
L182475000 192278571
L182332142 192207142
" />
<path d="M184332142 192207142
L184189285 192278571
L183903571 192278571
L183760714 192207142
L183689285 192135714
L183617857 191992857
L183617857 191564285
L183689285 191421428
L183760714 191350000
L183903571 191278571
L184189285 191278571
L184332142 191350000
" />
<path d="M184975000 192278571
L184975000 190778571
" />
<path d="M184975000 191350000
L185117857 191278571
L185403571 191278571
L185546428 191350000
L185617857 191421428
L185689285 191564285
L185689285 191992857
L185617857 192135714
L185546428 192207142
L185403571 192278571
L185117857 192278571
L184975000 192207142
" />
</g></g>
<g style="fill:#000000; fill-opacity:0.0; 
stroke:#000000; stroke-width:21200.000000; stroke-opacity:1; 
stroke-linecap:round; stroke-linejoin:round;">
</g>
<g style="fill:#000000; fill-opacity:0.0; 
stroke:#000000; stroke-width:150000.000000; stroke-opacity:1; 
stroke-linecap:round; stroke-linejoin:round;">
<path d="M159400000 187400000
L267400000 187400000
" />
</g>
<g style="fill:#000000; fill-opacity:0.0; 
stroke:#000000; stroke-width:21200.000000; stroke-opacity:1; 
stroke-linecap:round; stroke-linejoin:round;">
</g>
<g style="fill:#000000; fill-opacity:0.0; 
stroke:#000000; stroke-width:150000.000000; stroke-opacity:1; 
stroke-linecap:round; stroke-linejoin:round;">
<text x="160400000.000000" y="189650000.000000"
textLength="8221429.000000" font-size="2000000.000000" lengthAdjust="spacingAndGlyphs"
text-anchor="start" opacity="0">Sheet: </text>
<g class="stroked-text"><desc>Sheet: </desc>
<path d="M160760714 189507142
L160975000 189578571
L161332142 189578571
L161475000 189507142
L161546428 189435714
L161617857 189292857
L161617857 189150000
L161546428 189007142
L161475000 188935714
L161332142 188864285
L161046428 188792857
L160903571 188721428
L160832142 188650000
L160760714 188507142
L160760714 188364285
L160832142 188221428
L160903571 188150000
L161046428 188078571
L161403571 188078571
L161617857 188150000
" />
<path d="M162260714 189578571
L162260714 188078571
" />
<path d="M162903571 189578571
L162903571 188792857
L162832142 188650000
L162689285 188578571
L162475000 188578571
L162332142 188650000
L162260714 188721428
" />
<path d="M164189285 189507142
L164046428 189578571
L163760714 189578571
L163617857 189507142
L163546428 189364285
L163546428 188792857
L163617857 188650000
L163760714 188578571
L164046428 188578571
L164189285 188650000
L164260714 188792857
L164260714 188935714
L163546428 189078571
" />
<path d="M165475000 189507142
L165332142 189578571
L165046428 189578571
L164903571 189507142
L164832142 189364285
L164832142 188792857
L164903571 188650000
L165046428 188578571
L165332142 188578571
L165475000 188650000
L165546428 188792857
L165546428 188935714
L164832142 189078571
" />
<path d="M165975000 188578571
L166546428 188578571
" />
<path d="M166189285 188078571
L166189285 189364285
L166260714 189507142
L166403571 189578571
L166546428 189578571
" />
<path d="M167046428 189435714
L167117857 189507142
L167046428 189578571
L166975000 189507142
L167046428 189435714
L167046428 189578571
" />
<path d="M167046428 188650000
L167117857 188721428
L167046428 188792857
L166975000 188721428
L167046428 188650000
L167046428 188792857
" />
</g></g>
<g style="fill:#000000; fill-opacity:0.0; 
stroke:#000000; stroke-width:21200.000000; stroke-opacity:1; 
stroke-linecap:round; stroke-linejoin:round;">
</g>
<g style="fill:#000000; fill-opacity:0.0; 
stroke:#000000; stroke-width:300000.000000; stroke-opacity:1; 
stroke-linecap:round; stroke-linejoin:round;">
<text x="160400000.000000" y="186650000.000000"
textLength="20650000.000000" font-size="2000000.000000" lengthAdjust="spacingAndGlyphs"
text-anchor="start" opacity="0">www.MakersBox.us</text>
<g class="stroked-text"><desc>www.MakersBox.us</desc>
<path d="M160809285 185578571
L161095000 186578571
L161380714 185864285
L161666428 186578571
L161952142 185578571
" />
<path d="M162380714 185578571
L162666428 186578571
L162952142 185864285
L163237857 186578571
L163523571 185578571
" />
<path d="M163952142 185578571
L164237857 186578571
L164523571 185864285
L164809285 186578571
L165095000 185578571
" />
<path d="M165666428 186435714
L165737857 186507142
L165666428 186578571
L165595000 186507142
L165666428 186435714
L165666428 186578571
" />
<path d="M166380714 186578571
L166380714 185078571
L166880714 186150000
L167380714 185078571
L167380714 186578571
" />
<path d="M168737857 186578571
L168737857 185792857
L168666428 185650000
L168523571 185578571
L168237857 185578571
L168095000 185650000
" />
<path d="M168737857 186507142
L168595000 186578571
L168237857 186578571
L168095000 186507142
L168023571 186364285
L168023571 186221428
L168095000 186078571
L168237857 186007142
L168595000 186007142
L168737857 185935714
" />
<path d="M169452142 186578571
L169452142 185078571
" />
<path d="M169595000 186007142
L170023571 186578571
" />
<path d="M170023571 185578571
L169452142 186150000
" />
<path d="M171237857 186507142
L171095000 186578571
L170809285 186578571
L170666428 186507142
L170595000 186364285
L170595000 185792857
L170666428 185650000
L170809285 185578571
L171095000 185578571
L171237857 185650000
L171309285 185792857
L171309285 185935714
L170595000 186078571
" />
<path d="M171952142 186578571
L171952142 185578571
" />
<path d="M171952142 185864285
L172023571 185721428
L172095000 185650000
L172237857 185578571
L172380714 185578571
" />
<path d="M172809285 186507142
L172952142 186578571
L173237857 186578571
L173380714 186507142
L173452142 186364285
L173452142 186292857
L173380714 186150000
L173237857 186078571
L173023571 186078571
L172880714 186007142
L172809285 185864285
L172809285 185792857
L172880714 185650000
L173023571 185578571
L173237857 185578571
L173380714 185650000
" />
<path d="M174595000 185792857
L174809285 185864285
L174880714 185935714
L174952142 186078571
L174952142 186292857
L174880714 186435714
L174809285 186507142
L174666428 186578571
L174095000 186578571
L174095000 185078571
L174595000 185078571
L174737857 185150000
L174809285 185221428
L174880714 185364285
L174880714 185507142
L174809285 185650000
L174737857 185721428
L174595000 185792857
L174095000 185792857
" />
<path d="M175809285 186578571
L175666428 186507142
L175595000 186435714
L175523571 186292857
L175523571 185864285
L175595000 185721428
L175666428 185650000
L175809285 185578571
L176023571 185578571
L176166428 185650000
L176237857 185721428
L176309285 185864285
L176309285 186292857
L176237857 186435714
L176166428 186507142
L176023571 186578571
L175809285 186578571
" />
<path d="M176809285 186578571
L177595000 185578571
" />
<path d="M176809285 185578571
L177595000 186578571
" />
<path d="M178166428 186435714
L178237857 186507142
L178166428 186578571
L178095000 186507142
L178166428 186435714
L178166428 186578571
" />
<path d="M179523571 185578571
L179523571 186578571
" />
<path d="M178880714 185578571
L178880714 186364285
L178952142 186507142
L179095000 186578571
L179309285 186578571
L179452142 186507142
L179523571 186435714
" />
<path d="M180166428 186507142
L180309285 186578571
L180595000 186578571
L180737857 186507142
L180809285 186364285
L180809285 186292857
L180737857 186150000
L180595000 186078571
L180380714 186078571
L180237857 186007142
L180166428 185864285
L180166428 185792857
L180237857 185650000
L180380714 185578571
L180595000 185578571
L180737857 185650000
" />
</g></g>
<g style="fill:#000000; fill-opacity:0.0; 
stroke:#000000; stroke-width:21200.000000; stroke-opacity:1; 
stroke-linecap:round; stroke-linejoin:round;">
</g>
<g style="fill:#000000; fill-opacity:0.0; 
stroke:#000000; stroke-width:150000.000000; stroke-opacity:1; 
stroke-linecap:round; stroke-linejoin:round;">
<text x="160400000.000000" y="183650000.000000"
textLength="9961429.000000" font-size="2000000.000000" lengthAdjust="spacingAndGlyphs"
text-anchor="start" opacity="0">K. Olsen</text>
<g class="stroked-text"><desc>K. Olsen</desc>
<path d="M160832142 183578571
L160832142 182078571
" />
<path d="M161689285 183578571
L161046428 182721428
" />
<path d="M161689285 182078571
L160832142 182935714
" />
<path d="M162332142 183435714
L162403571 183507142
L162332142 183578571
L162260714 183507142
L162332142 183435714
L162332142 183578571
" />
<path d="M164475000 182078571
L164760714 182078571
L164903571 182150000
L165046428 182292857
L165117857 182578571
L165117857 183078571
L165046428 183364285
L164903571 183507142
L164760714 183578571
L164475000 183578571
L164332142 183507142
L164189285 183364285
L164117857 183078571
L164117857 182578571
L164189285 182292857
L164332142 182150000
L164475000 182078571
" />
<path d="M165975000 183578571
L165832142 183507142
L165760714 183364285
L165760714 182078571
" />
<path d="M166475000 183507142
L166617857 183578571
L166903571 183578571
L167046428 183507142
L167117857 183364285
L167117857 183292857
L167046428 183150000
L166903571 183078571
L166689285 183078571
L166546428 183007142
L166475000 182864285
L166475000 182792857
L166546428 182650000
L166689285 182578571
L166903571 182578571
L167046428 182650000
" />
<path d="M168332142 183507142
L168189285 183578571
L167903571 183578571
L167760714 183507142
L167689285 183364285
L167689285 182792857
L167760714 182650000
L167903571 182578571
L168189285 182578571
L168332142 182650000
L168403571 182792857
L168403571 182935714
L167689285 183078571
" />
<path d="M169046428 182578571
L169046428 183578571
" />
<path d="M169046428 182721428
L169117857 182650000
L169260714 182578571
L169475000 182578571
L169617857 182650000
L169689285 182792857
L169689285 183578571
" />
</g></g>
<g style="fill:#000000; fill-opacity:0.0; 
stroke:#000000; stroke-width:21200.000000; stroke-opacity:1; 
stroke-linecap:round; stroke-linejoin:round;">
</g>
<g style="fill:#000000; fill-opacity:0.0; 
stroke:#000000; stroke-width:150000.000000; stroke-opacity:1; 
stroke-linecap:round; stroke-linejoin:round;">
<text x="160400000.000000" y="180650000.000000"
textLength="150000.000000" font-size="2000000.000000" lengthAdjust="spacingAndGlyphs"
text-anchor="start" opacity="0"></text>
<g class="stroked-text"><desc></desc>
</g></g>
<g style="fill:#000000; fill-opacity:0.0; 
stroke:#000000; stroke-width:21200.000000; stroke-opacity:1; 
stroke-linecap:round; stroke-linejoin:round;">
</g>
<g style="fill:#000000; fill-opacity:0.0; 
stroke:#000000; stroke-width:150000.000000; stroke-opacity:1; 
stroke-linecap:round; stroke-linejoin:round;">
<text x="160400000.000000" y="177650000.000000"
textLength="150000.000000" font-size="2000000.000000" lengthAdjust="spacingAndGlyphs"
text-anchor="start" opacity="0"></text>
<g class="stroked-text"><desc></desc>
</g></g>
<g style="fill:#000000; fill-opacity:0.0; 
stroke:#000000; stroke-width:21200.000000; stroke-opacity:1; 
stroke-linecap:round; stroke-linejoin:round;">
</g>
<g style="fill:#000000; fill-opacity:0.0; 
stroke:#000000; stroke-width:150000.000000; stroke-opacity:1; 
stroke-linecap:round; stroke-linejoin:round;">
<text x="160400000.000000" y="174650000.000000"
textLength="150000.000000" font-size="2000000.000000" lengthAdjust="spacingAndGlyphs"
text-anchor="start" opacity="0"></text>
<g class="stroked-text"><desc></desc>
</g></g>
<g style="fill:#000000; fill-opacity:0.0; 
stroke:#000000; stroke-width:21200.000000; stroke-opacity:1; 
stroke-linecap:round; stroke-linejoin:round;">
</g>
<g style="fill:#000000; fill-opacity:0.0; 
stroke:#000000; stroke-width:150000.000000; stroke-opacity:1; 
stroke-linecap:round; stroke-linejoin:round;">
<path d="M179400000 197400000
L179400000 200400000
" />
</g>
<g style="fill:#000000; fill-opacity:0.0; 
stroke:#000000; stroke-width:21200.000000; stroke-opacity:1; 
stroke-linecap:round; stroke-linejoin:round;">
</g>
<g style="fill:#000000; fill-opacity:0.0; 
stroke:#000000; stroke-width:150000.000000; stroke-opacity:1; 
stroke-linecap:round; stroke-linejoin:round;">
<path d="M243400000 197400000
L243400000 203900000
" />
</g>
<g style="fill:#D0D2CD; fill-opacity:0.0; 
stroke:#D0D2CD; stroke-width:150000.000000; stroke-opacity:1; 
stroke-linecap:round; stroke-linejoin:round;">
</g>
<g style="fill:#D0D2CD; fill-opacity:0.0; 
stroke:#D0D2CD; stroke-width:254000.000000; stroke-opacity:1; 
stroke-linecap:round; stroke-linejoin:round;">
<path d="M107315000 114300000
L133350000 114300000
" />
<path d="M104775000 102870000
L104775000 111760000
" />
<path d="M107315000 100330000
L133350000 100330000
" />
<path d="M133350000.000000 114300000.000000 A2540000.000000 2540000.000000 0.0 0 0 135890000.000000 111760000.000000" />
<path d="M135890000.000000 102870000.000000 A2540000.000000 2540000.000000 0.0 0 0 133350000.000000 100330000.000000" />
<path d="M104775000.000000 111760000.000000 A2540000.000000 2540000.000000 0.0 0 0 107315000.000000 114300000.000000" />
<path d="M107315000.000000 100330000.000000 A2540000.000000 2540000.000000 0.0 0 0 104775000.000000 102870000.000000" />
<path d="M135890000 111760000
L135890000 102870000
" />
<g >
</g>
<g >
</g>
<g >
</g>
<g >
</g>
<g >
</g>
<g >
</g>
<g >
</g>
<g >
</g>
<g >
</g>
<g >
</g>
<g >
</g>
<g >
</g>
</g> 
</svg>
