<?xml version="1.0" standalone="no"?>
 <!DOCTYPE svg PUBLIC "-//W3C//DTD SVG 1.1//EN" 
 "http://www.w3.org/Graphics/SVG/1.1/DTD/svg11.dtd"> 
<svg
  xmlns:svg="http://www.w3.org/2000/svg"
  xmlns="http://www.w3.org/2000/svg"
  xmlns:xlink="http://www.w3.org/1999/xlink"
  version="1.1"
  width="3.279140cm" height="1.833880cm" viewBox="0 0 32791400 18338800">
<title>SVG Picture created as project-brd.svg date 2023/07/16 12:50:26 </title>
  <desc>Picture generated by PCBNEW </desc>
<g style="fill:#000000; fill-opacity:1.000000;stroke:#000000; stroke-opacity:1.000000;
stroke-linecap:round; stroke-linejoin:round;"
 transform="translate(0 0) scale(1 1)">
</g>
<g style="fill:#000000; fill-opacity:0.0; 
stroke:#000000; stroke-width:0.000000; stroke-opacity:1; 
stroke-linecap:round; stroke-linejoin:round;">
<g >
</g>
<g style="fill:#C83434; fill-opacity:0.0; 
stroke:#C83434; stroke-width:0.000000; stroke-opacity:1; 
stroke-linecap:round; stroke-linejoin:round;">
</g>
<g style="fill:#C83434; fill-opacity:0.0; 
stroke:#C83434; stroke-width:1.000000; stroke-opacity:1; 
stroke-linecap:round; stroke-linejoin:round;">
</g>
<g style="fill:#C83434; fill-opacity:1.0; 
stroke:#C83434; stroke-width:1.000000; stroke-opacity:1; 
stroke-linecap:round; stroke-linejoin:round;">
<path style="fill:#C83434; fill-opacity:1.0; 
stroke:#C83434; stroke-width:1.000000; stroke-opacity:1; 
stroke-linecap:round; stroke-linejoin:round;fill-rule:evenodd;"
d="M 27167500.000000,10217500.000000
27167500.000000,11917500.000000
25467500.000000,11917500.000000
25467500.000000,10217500.000000
Z" /> 
<circle cx="26317500.000000" cy="8527500.000000" r="850000.000000" /> 
<circle cx="26317500.000000" cy="5987500.000000" r="850000.000000" /> 
<circle cx="26317500.000000" cy="3447500.000000" r="850000.000000" /> 
</g>
<g >
</g>
<g style="fill:#C83434; fill-opacity:1.0; 
stroke:#C83434; stroke-width:1.000000; stroke-opacity:1; 
stroke-linecap:round; stroke-linejoin:round;">
<path style="fill:#C83434; fill-opacity:1.0; 
stroke:#C83434; stroke-width:1.000000; stroke-opacity:1; 
stroke-linecap:round; stroke-linejoin:round;fill-rule:evenodd;"
d="M 11592500.000000,13097500.000000
11592500.000000,11597500.000000
13092500.000000,11597500.000000
13092500.000000,13097500.000000
Z" /> 
<circle cx="19962500.000000" cy="12347500.000000" r="750000.000000" /> 
</g>
<g >
</g>
<g style="fill:#C83434; fill-opacity:1.0; 
stroke:#C83434; stroke-width:1.000000; stroke-opacity:1; 
stroke-linecap:round; stroke-linejoin:round;">
<path style="fill:#C83434; fill-opacity:1.0; 
stroke:#C83434; stroke-width:1.000000; stroke-opacity:1; 
stroke-linecap:round; stroke-linejoin:round;fill-rule:evenodd;"
d="M 12788707.000000,6432500.000000
12788707.000000,4032500.000000
15188707.000000,4032500.000000
15188707.000000,6432500.000000
Z" /> 
<circle cx="17488707.000000" cy="5232500.000000" r="1200000.000000" /> 
</g>
<g style="fill:#C83434; fill-opacity:1.0; 
stroke:#C83434; stroke-width:21200.000000; stroke-opacity:1; 
stroke-linecap:round; stroke-linejoin:round;">
</g>
<g style="fill:#C83434; fill-opacity:1.0; 
stroke:#C83434; stroke-width:1.000000; stroke-opacity:1; 
stroke-linecap:round; stroke-linejoin:round;">
<circle cx="20988707.000000" cy="5232500.000000" r="1200000.000000" /> 
</g>
<g style="fill:#C83434; fill-opacity:1.0; 
stroke:#C83434; stroke-width:21200.000000; stroke-opacity:1; 
stroke-linecap:round; stroke-linejoin:round;">
</g>
<g >
</g>
<g style="fill:#C83434; fill-opacity:1.0; 
stroke:#C83434; stroke-width:21200.000000; stroke-opacity:1; 
stroke-linecap:round; stroke-linejoin:round;">
</g>
<g style="fill:#C83434; fill-opacity:1.0; 
stroke:#C83434; stroke-width:1.000000; stroke-opacity:1; 
stroke-linecap:round; stroke-linejoin:round;">
<path style="fill:#C83434; fill-opacity:1.0; 
stroke:#C83434; stroke-width:1.000000; stroke-opacity:1; 
stroke-linecap:round; stroke-linejoin:round;fill-rule:evenodd;"
d="M 3192500.000000,8902500.000000
4992500.000000,8902500.000000
4992500.000000,10702500.000000
3192500.000000,10702500.000000
Z" /> 
<circle cx="4092500.000000" cy="12342500.000000" r="900000.000000" /> 
</g>
<g style="fill:#C83434; fill-opacity:1.0; 
stroke:#C83434; stroke-width:21200.000000; stroke-opacity:1; 
stroke-linecap:round; stroke-linejoin:round;">
</g>
<g >
</g>
<g style="fill:#C83434; fill-opacity:1.0; 
stroke:#C83434; stroke-width:21200.000000; stroke-opacity:1; 
stroke-linecap:round; stroke-linejoin:round;">
</g>
<g style="fill:#C83434; fill-opacity:1.0; 
stroke:#C83434; stroke-width:1.000000; stroke-opacity:1; 
stroke-linecap:round; stroke-linejoin:round;">
<circle cx="19332500.000000" cy="14887500.000000" r="999490.000000" /> 
</g>
<g style="fill:#C83434; fill-opacity:1.0; 
stroke:#C83434; stroke-width:21200.000000; stroke-opacity:1; 
stroke-linecap:round; stroke-linejoin:round;">
</g>
<g style="fill:#C83434; fill-opacity:1.0; 
stroke:#C83434; stroke-width:1.000000; stroke-opacity:1; 
stroke-linecap:round; stroke-linejoin:round;">
<circle cx="12982500.000000" cy="14887500.000000" r="999490.000000" /> 
</g>
<g style="fill:#C83434; fill-opacity:1.0; 
stroke:#C83434; stroke-width:21200.000000; stroke-opacity:1; 
stroke-linecap:round; stroke-linejoin:round;">
</g>
<g >
</g>
<g style="fill:#C83434; fill-opacity:1.0; 
stroke:#C83434; stroke-width:21200.000000; stroke-opacity:1; 
stroke-linecap:round; stroke-linejoin:round;">
</g>
<g style="fill:#C83434; fill-opacity:1.0; 
stroke:#C83434; stroke-width:1.000000; stroke-opacity:1; 
stroke-linecap:round; stroke-linejoin:round;">
<path style="fill:#C83434; fill-opacity:1.0; 
stroke:#C83434; stroke-width:1.000000; stroke-opacity:1; 
stroke-linecap:round; stroke-linejoin:round;fill-rule:evenodd;"
d="M 8172500.000000,6267500.000000
10172500.000000,6267500.000000
10172500.000000,8267500.000000
8172500.000000,8267500.000000
Z" /> 
<circle cx="9172500.000000" cy="9807500.000000" r="1000000.000000" /> 
</g>
<g style="fill:#C83434; fill-opacity:1.0; 
stroke:#C83434; stroke-width:21200.000000; stroke-opacity:1; 
stroke-linecap:round; stroke-linejoin:round;">
</g>
<g style="fill:#C83434; fill-opacity:1.0; 
stroke:#C83434; stroke-width:1.000000; stroke-opacity:1; 
stroke-linecap:round; stroke-linejoin:round;">
<circle cx="9172500.000000" cy="12347500.000000" r="1000000.000000" /> 
</g>
<g style="fill:#C83434; fill-opacity:1.0; 
stroke:#C83434; stroke-width:21200.000000; stroke-opacity:1; 
stroke-linecap:round; stroke-linejoin:round;">
</g>
<g >
</g>
<g style="fill:#C83434; fill-opacity:1.0; 
stroke:#C83434; stroke-width:21200.000000; stroke-opacity:1; 
stroke-linecap:round; stroke-linejoin:round;">
</g>
<g style="fill:#C83434; fill-opacity:1.0; 
stroke:#C83434; stroke-width:1.000000; stroke-opacity:1; 
stroke-linecap:round; stroke-linejoin:round;">
<path style="fill:#C83434; fill-opacity:1.0; 
stroke:#C83434; stroke-width:1.000000; stroke-opacity:1; 
stroke-linecap:round; stroke-linejoin:round;fill-rule:evenodd;"
d="M 29707500.000000,3877500.000000
29707500.000000,5577500.000000
28007500.000000,5577500.000000
28007500.000000,3877500.000000
Z" /> 
<circle cx="28857500.000000" cy="7267500.000000" r="850000.000000" /> 
</g>
<g >
</g>
<g style="fill:#C83434; fill-opacity:1.0; 
stroke:#C83434; stroke-width:1.000000; stroke-opacity:1; 
stroke-linecap:round; stroke-linejoin:round;">
<path style="fill:#C83434; fill-opacity:1.0; 
stroke:#C83434; stroke-width:1.000000; stroke-opacity:1; 
stroke-linecap:round; stroke-linejoin:round;fill-rule:evenodd;"
d="M 21657500.000000,14037500.000000
23357500.000000,14037500.000000
23357500.000000,15737500.000000
21657500.000000,15737500.000000
Z" /> 
<circle cx="25047500.000000" cy="14887500.000000" r="850000.000000" /> 
</g>
<g >
</g>
<g style="fill:#C83434; fill-opacity:1.0; 
stroke:#C83434; stroke-width:1.000000; stroke-opacity:1; 
stroke-linecap:round; stroke-linejoin:round;">
<path style="fill:#C83434; fill-opacity:1.0; 
stroke:#C83434; stroke-width:1.000000; stroke-opacity:1; 
stroke-linecap:round; stroke-linejoin:round;fill-rule:evenodd;"
d="M 6752500.000000,3877500.000000
6752500.000000,5577500.000000
5052500.000000,5577500.000000
5052500.000000,3877500.000000
Z" /> 
<circle cx="5902500.000000" cy="7267500.000000" r="850000.000000" /> 
</g>
<g >
</g>
<g >
</g>
<g style="fill:#C83434; fill-opacity:1.0; 
stroke:#C83434; stroke-width:1.000000; stroke-opacity:1; 
stroke-linecap:round; stroke-linejoin:round;">
</g>
<g style="fill:#C83434; fill-opacity:1.0; 
stroke:#C83434; stroke-width:406400.000000; stroke-opacity:1; 
stroke-linecap:round; stroke-linejoin:round;">
</g>
<g style="fill:#C83434; fill-opacity:0.0; 
stroke:#C83434; stroke-width:406400.000000; stroke-opacity:1; 
stroke-linecap:round; stroke-linejoin:round;">
<path d="M5362500 9807500
L4097500 9807500
" />
<path d="M15649500 9807500
L13988707 8146707
" />
<path d="M5902500 7267500
L5902500 9267500
" />
<path d="M21237500 9807500
L15649500 9807500
" />
<path d="M5902500 9267500
L5362500 9807500
" />
<path d="M25047500 14887500
L25047500 13617500
" />
<path d="M25047500 13617500
L21237500 9807500
" />
<path d="M13988707 8146707
L13988707 5232500
" />
<path d="M4097500 9807500
L4092500 9802500
" />
<path d="M22507500 13363500
L21491500 12347500
" />
<path d="M22507500 14887500
L22507500 13363500
" />
<path d="M21491500 12347500
L19327500 12347500
" />
<path d="M18697500 14887500
L16157500 12347500
" />
<path d="M5997500 5362500
L6632500 4727500
" />
<path d="M10442500 4727500
L11712500 5997500
" />
<path d="M5902500 4727500
L10442500 4727500
" />
<path d="M11712500 11077500
L12342500 11707500
" />
<path d="M12342500 11707500
L12342500 12347500
" />
<path d="M16157500 12347500
L11707500 12347500
" />
<path d="M11712500 5997500
L11712500 11077500
" />
<path d="M12342500 12347500
L9172500 12347500
" />
<path d="M12982500 14887500
L6637500 14887500
" />
<path d="M6637500 14887500
L4092500 12342500
" />
<path d="M24539500 5225500
L24539500 9807500
" />
<path d="M25799500 11067500
L26317500 11067500
" />
<path d="M24539500 9807500
L25799500 11067500
" />
<path d="M26317500 3447500
L24539500 5225500
" />
</g>
<g >
</g>
</g>
<g style="fill:#FFFFFF; fill-opacity:0.0; 
stroke:#FFFFFF; stroke-width:406400.000000; stroke-opacity:1; 
stroke-linecap:round; stroke-linejoin:round;">
</g>
<g style="fill:#FFFFFF; fill-opacity:1.0; 
stroke:#FFFFFF; stroke-width:1.000000; stroke-opacity:1; 
stroke-linecap:round; stroke-linejoin:round;">
<circle cx="26317500.000000" cy="11067500.000000" r="500000.000000" /> 
</g>
<g style="fill:#FFFFFF; fill-opacity:1.0; 
stroke:#FFFFFF; stroke-width:21200.000000; stroke-opacity:1; 
stroke-linecap:round; stroke-linejoin:round;">
</g>
<g style="fill:#FFFFFF; fill-opacity:1.0; 
stroke:#FFFFFF; stroke-width:1.000000; stroke-opacity:1; 
stroke-linecap:round; stroke-linejoin:round;">
<circle cx="26317500.000000" cy="8527500.000000" r="500000.000000" /> 
</g>
<g style="fill:#FFFFFF; fill-opacity:1.0; 
stroke:#FFFFFF; stroke-width:21200.000000; stroke-opacity:1; 
stroke-linecap:round; stroke-linejoin:round;">
</g>
<g style="fill:#FFFFFF; fill-opacity:1.0; 
stroke:#FFFFFF; stroke-width:1.000000; stroke-opacity:1; 
stroke-linecap:round; stroke-linejoin:round;">
<circle cx="26317500.000000" cy="5987500.000000" r="500000.000000" /> 
</g>
<g style="fill:#FFFFFF; fill-opacity:1.0; 
stroke:#FFFFFF; stroke-width:21200.000000; stroke-opacity:1; 
stroke-linecap:round; stroke-linejoin:round;">
</g>
<g style="fill:#FFFFFF; fill-opacity:1.0; 
stroke:#FFFFFF; stroke-width:1.000000; stroke-opacity:1; 
stroke-linecap:round; stroke-linejoin:round;">
<circle cx="26317500.000000" cy="3447500.000000" r="500000.000000" /> 
</g>
<g style="fill:#FFFFFF; fill-opacity:1.0; 
stroke:#FFFFFF; stroke-width:21200.000000; stroke-opacity:1; 
stroke-linecap:round; stroke-linejoin:round;">
</g>
<g style="fill:#FFFFFF; fill-opacity:1.0; 
stroke:#FFFFFF; stroke-width:1.000000; stroke-opacity:1; 
stroke-linecap:round; stroke-linejoin:round;">
<circle cx="12342500.000000" cy="12347500.000000" r="375000.000000" /> 
</g>
<g style="fill:#FFFFFF; fill-opacity:1.0; 
stroke:#FFFFFF; stroke-width:21200.000000; stroke-opacity:1; 
stroke-linecap:round; stroke-linejoin:round;">
</g>
<g style="fill:#FFFFFF; fill-opacity:1.0; 
stroke:#FFFFFF; stroke-width:1.000000; stroke-opacity:1; 
stroke-linecap:round; stroke-linejoin:round;">
<circle cx="19962500.000000" cy="12347500.000000" r="375000.000000" /> 
</g>
<g style="fill:#FFFFFF; fill-opacity:1.0; 
stroke:#FFFFFF; stroke-width:21200.000000; stroke-opacity:1; 
stroke-linecap:round; stroke-linejoin:round;">
</g>
<g style="fill:#FFFFFF; fill-opacity:1.0; 
stroke:#FFFFFF; stroke-width:1.000000; stroke-opacity:1; 
stroke-linecap:round; stroke-linejoin:round;">
<circle cx="13988707.000000" cy="5232500.000000" r="600000.000000" /> 
</g>
<g style="fill:#FFFFFF; fill-opacity:1.0; 
stroke:#FFFFFF; stroke-width:21200.000000; stroke-opacity:1; 
stroke-linecap:round; stroke-linejoin:round;">
</g>
<g style="fill:#FFFFFF; fill-opacity:1.0; 
stroke:#FFFFFF; stroke-width:1.000000; stroke-opacity:1; 
stroke-linecap:round; stroke-linejoin:round;">
<circle cx="17488707.000000" cy="5232500.000000" r="600000.000000" /> 
</g>
<g style="fill:#FFFFFF; fill-opacity:1.0; 
stroke:#FFFFFF; stroke-width:21200.000000; stroke-opacity:1; 
stroke-linecap:round; stroke-linejoin:round;">
</g>
<g style="fill:#FFFFFF; fill-opacity:1.0; 
stroke:#FFFFFF; stroke-width:1.000000; stroke-opacity:1; 
stroke-linecap:round; stroke-linejoin:round;">
<circle cx="20988707.000000" cy="5232500.000000" r="600000.000000" /> 
</g>
<g style="fill:#FFFFFF; fill-opacity:1.0; 
stroke:#FFFFFF; stroke-width:21200.000000; stroke-opacity:1; 
stroke-linecap:round; stroke-linejoin:round;">
</g>
<g style="fill:#FFFFFF; fill-opacity:1.0; 
stroke:#FFFFFF; stroke-width:1.000000; stroke-opacity:1; 
stroke-linecap:round; stroke-linejoin:round;">
<circle cx="4092500.000000" cy="9802500.000000" r="450000.000000" /> 
</g>
<g style="fill:#FFFFFF; fill-opacity:1.0; 
stroke:#FFFFFF; stroke-width:21200.000000; stroke-opacity:1; 
stroke-linecap:round; stroke-linejoin:round;">
</g>
<g style="fill:#FFFFFF; fill-opacity:1.0; 
stroke:#FFFFFF; stroke-width:1.000000; stroke-opacity:1; 
stroke-linecap:round; stroke-linejoin:round;">
<circle cx="4092500.000000" cy="12342500.000000" r="450000.000000" /> 
</g>
<g style="fill:#FFFFFF; fill-opacity:1.0; 
stroke:#FFFFFF; stroke-width:21200.000000; stroke-opacity:1; 
stroke-linecap:round; stroke-linejoin:round;">
</g>
<g style="fill:#FFFFFF; fill-opacity:1.0; 
stroke:#FFFFFF; stroke-width:1.000000; stroke-opacity:1; 
stroke-linecap:round; stroke-linejoin:round;">
<circle cx="19332500.000000" cy="14887500.000000" r="400000.000000" /> 
</g>
<g style="fill:#FFFFFF; fill-opacity:1.0; 
stroke:#FFFFFF; stroke-width:21200.000000; stroke-opacity:1; 
stroke-linecap:round; stroke-linejoin:round;">
</g>
<g style="fill:#FFFFFF; fill-opacity:1.0; 
stroke:#FFFFFF; stroke-width:1.000000; stroke-opacity:1; 
stroke-linecap:round; stroke-linejoin:round;">
<circle cx="12982500.000000" cy="14887500.000000" r="400000.000000" /> 
</g>
<g style="fill:#FFFFFF; fill-opacity:1.0; 
stroke:#FFFFFF; stroke-width:21200.000000; stroke-opacity:1; 
stroke-linecap:round; stroke-linejoin:round;">
</g>
<g style="fill:#FFFFFF; fill-opacity:1.0; 
stroke:#FFFFFF; stroke-width:1.000000; stroke-opacity:1; 
stroke-linecap:round; stroke-linejoin:round;">
<circle cx="9172500.000000" cy="7267500.000000" r="406400.000000" /> 
</g>
<g style="fill:#FFFFFF; fill-opacity:1.0; 
stroke:#FFFFFF; stroke-width:21200.000000; stroke-opacity:1; 
stroke-linecap:round; stroke-linejoin:round;">
</g>
<g style="fill:#FFFFFF; fill-opacity:1.0; 
stroke:#FFFFFF; stroke-width:1.000000; stroke-opacity:1; 
stroke-linecap:round; stroke-linejoin:round;">
<circle cx="9172500.000000" cy="9807500.000000" r="406400.000000" /> 
</g>
<g style="fill:#FFFFFF; fill-opacity:1.0; 
stroke:#FFFFFF; stroke-width:21200.000000; stroke-opacity:1; 
stroke-linecap:round; stroke-linejoin:round;">
</g>
<g style="fill:#FFFFFF; fill-opacity:1.0; 
stroke:#FFFFFF; stroke-width:1.000000; stroke-opacity:1; 
stroke-linecap:round; stroke-linejoin:round;">
<circle cx="9172500.000000" cy="12347500.000000" r="406400.000000" /> 
</g>
<g style="fill:#FFFFFF; fill-opacity:1.0; 
stroke:#FFFFFF; stroke-width:21200.000000; stroke-opacity:1; 
stroke-linecap:round; stroke-linejoin:round;">
</g>
<g style="fill:#FFFFFF; fill-opacity:1.0; 
stroke:#FFFFFF; stroke-width:1.000000; stroke-opacity:1; 
stroke-linecap:round; stroke-linejoin:round;">
<circle cx="28857500.000000" cy="4727500.000000" r="500000.000000" /> 
</g>
<g style="fill:#FFFFFF; fill-opacity:1.0; 
stroke:#FFFFFF; stroke-width:21200.000000; stroke-opacity:1; 
stroke-linecap:round; stroke-linejoin:round;">
</g>
<g style="fill:#FFFFFF; fill-opacity:1.0; 
stroke:#FFFFFF; stroke-width:1.000000; stroke-opacity:1; 
stroke-linecap:round; stroke-linejoin:round;">
<circle cx="28857500.000000" cy="7267500.000000" r="500000.000000" /> 
</g>
<g style="fill:#FFFFFF; fill-opacity:1.0; 
stroke:#FFFFFF; stroke-width:21200.000000; stroke-opacity:1; 
stroke-linecap:round; stroke-linejoin:round;">
</g>
<g style="fill:#FFFFFF; fill-opacity:1.0; 
stroke:#FFFFFF; stroke-width:1.000000; stroke-opacity:1; 
stroke-linecap:round; stroke-linejoin:round;">
<circle cx="22507500.000000" cy="14887500.000000" r="500000.000000" /> 
</g>
<g style="fill:#FFFFFF; fill-opacity:1.0; 
stroke:#FFFFFF; stroke-width:21200.000000; stroke-opacity:1; 
stroke-linecap:round; stroke-linejoin:round;">
</g>
<g style="fill:#FFFFFF; fill-opacity:1.0; 
stroke:#FFFFFF; stroke-width:1.000000; stroke-opacity:1; 
stroke-linecap:round; stroke-linejoin:round;">
<circle cx="25047500.000000" cy="14887500.000000" r="500000.000000" /> 
</g>
<g style="fill:#FFFFFF; fill-opacity:1.0; 
stroke:#FFFFFF; stroke-width:21200.000000; stroke-opacity:1; 
stroke-linecap:round; stroke-linejoin:round;">
</g>
<g style="fill:#FFFFFF; fill-opacity:1.0; 
stroke:#FFFFFF; stroke-width:1.000000; stroke-opacity:1; 
stroke-linecap:round; stroke-linejoin:round;">
<circle cx="5902500.000000" cy="4727500.000000" r="500000.000000" /> 
</g>
<g style="fill:#FFFFFF; fill-opacity:1.0; 
stroke:#FFFFFF; stroke-width:21200.000000; stroke-opacity:1; 
stroke-linecap:round; stroke-linejoin:round;">
</g>
<g style="fill:#FFFFFF; fill-opacity:1.0; 
stroke:#FFFFFF; stroke-width:1.000000; stroke-opacity:1; 
stroke-linecap:round; stroke-linejoin:round;">
<circle cx="5902500.000000" cy="7267500.000000" r="500000.000000" /> 
</g>
<g style="fill:#FFFFFF; fill-opacity:1.0; 
stroke:#FFFFFF; stroke-width:21200.000000; stroke-opacity:1; 
stroke-linecap:round; stroke-linejoin:round;">
</g>
<g style="fill:#000000; fill-opacity:1.0; 
stroke:#000000; stroke-width:21200.000000; stroke-opacity:1; 
stroke-linecap:round; stroke-linejoin:round;">
</g>
<g style="fill:#F2EDA1; fill-opacity:1.0; 
stroke:#F2EDA1; stroke-width:21200.000000; stroke-opacity:1; 
stroke-linecap:round; stroke-linejoin:round;">
</g>
<g style="fill:#F2EDA1; fill-opacity:1.0; 
stroke:#F2EDA1; stroke-width:150000.000000; stroke-opacity:1; 
stroke-linecap:round; stroke-linejoin:round;">
</g>
<g style="fill:#F2EDA1; fill-opacity:0.0; 
stroke:#F2EDA1; stroke-width:150000.000000; stroke-opacity:1; 
stroke-linecap:round; stroke-linejoin:round;">
<path d="M1552500 3457500
L5997500 3457500
" />
<path d="M1552500 8537500
L5997500 8537500
" />
<path d="M27587500 3457500
L32667500 3457500
" />
<path d="M27587500 8537500
L32667500 8537500
" />
<path d="M26317500 13617500
L26317500 16157500
" />
<path d="M1552500 5997500
L5997500 5997500
" />
<path d="M21237500 13617500
L21237500 16157500
" />
<path d="M27647500 5957500
L32667500 5997500
" />
<path d="M23777500 12347500
L23777500 16157500
" />
<g transform="rotate(-90.000000 28857500.000000 11712500.000000)">
<text x="28857500.000000" y="12212500.000000"
textLength="4956905.000000" font-size="1333333.000000" lengthAdjust="spacingAndGlyphs"
text-anchor="middle" opacity="0">SERVO</text>
</g>
<g class="stroked-text"><desc>SERVO</desc>
<path d="M29262261 13902976
L29309880 13760119
L29309880 13522023
L29262261 13426785
L29214642 13379166
L29119404 13331547
L29024166 13331547
L28928928 13379166
L28881309 13426785
L28833690 13522023
L28786071 13712500
L28738452 13807738
L28690833 13855357
L28595595 13902976
L28500357 13902976
L28405119 13855357
L28357500 13807738
L28309880 13712500
L28309880 13474404
L28357500 13331547
" />
<path d="M28786071 12902976
L28786071 12569642
" />
<path d="M29309880 12426785
L29309880 12902976
L28309880 12902976
L28309880 12426785
" />
<path d="M29309880 11426785
L28833690 11760119
" />
<path d="M29309880 11998214
L28309880 11998214
L28309880 11617261
L28357500 11522023
L28405119 11474404
L28500357 11426785
L28643214 11426785
L28738452 11474404
L28786071 11522023
L28833690 11617261
L28833690 11998214
" />
<path d="M28309880 11141071
L29309880 10807738
L28309880 10474404
" />
<path d="M28309880 9950595
L28309880 9760119
L28357500 9664880
L28452738 9569642
L28643214 9522023
L28976547 9522023
L29167023 9569642
L29262261 9664880
L29309880 9760119
L29309880 9950595
L29262261 10045833
L29167023 10141071
L28976547 10188690
L28643214 10188690
L28452738 10141071
L28357500 10045833
L28309880 9950595
" />
</g><text x="23777500.000000" y="13382500.000000"
textLength="5947381.000000" font-size="1066666.000000" lengthAdjust="spacingAndGlyphs"
text-anchor="middle" opacity="0">BATT GND</text>
<g class="stroked-text"><desc>BATT GND</desc>
<path d="M21358452 12925357
L21472738 12963452
L21510833 13001547
L21548928 13077738
L21548928 13192023
L21510833 13268214
L21472738 13306309
L21396547 13344404
L21091785 13344404
L21091785 12544404
L21358452 12544404
L21434642 12582500
L21472738 12620595
L21510833 12696785
L21510833 12772976
L21472738 12849166
L21434642 12887261
L21358452 12925357
L21091785 12925357
" />
<path d="M21853690 13115833
L22234642 13115833
" />
<path d="M21777500 13344404
L22044166 12544404
L22310833 13344404
" />
<path d="M22463214 12544404
L22920357 12544404
" />
<path d="M22691785 13344404
L22691785 12544404
" />
<path d="M23072738 12544404
L23529880 12544404
" />
<path d="M23301309 13344404
L23301309 12544404
" />
<path d="M24825119 12582500
L24748928 12544404
L24634642 12544404
L24520357 12582500
L24444166 12658690
L24406071 12734880
L24367976 12887261
L24367976 13001547
L24406071 13153928
L24444166 13230119
L24520357 13306309
L24634642 13344404
L24710833 13344404
L24825119 13306309
L24863214 13268214
L24863214 13001547
L24710833 13001547
" />
<path d="M25206071 13344404
L25206071 12544404
L25663214 13344404
L25663214 12544404
" />
<path d="M26044166 13344404
L26044166 12544404
L26234642 12544404
L26348928 12582500
L26425119 12658690
L26463214 12734880
L26501309 12887261
L26501309 13001547
L26463214 13153928
L26425119 13230119
L26348928 13306309
L26234642 13344404
L26044166 13344404
" />
</g></g>
<g style="fill:#F2EDA1; fill-opacity:0.0; 
stroke:#F2EDA1; stroke-width:250000.000000; stroke-opacity:1; 
stroke-linecap:round; stroke-linejoin:round;">
<text x="4727500.000000" y="15487500.000000"
textLength="2709286.000000" font-size="1600000.000000" lengthAdjust="spacingAndGlyphs"
text-anchor="middle" opacity="0">ON</text>
<g class="stroked-text"><desc>ON</desc>
<path d="M3984642 14230357
L4213214 14230357
L4327500 14287500
L4441785 14401785
L4498928 14630357
L4498928 15030357
L4441785 15258928
L4327500 15373214
L4213214 15430357
L3984642 15430357
L3870357 15373214
L3756071 15258928
L3698928 15030357
L3698928 14630357
L3756071 14401785
L3870357 14287500
L3984642 14230357
" />
<path d="M5013214 15430357
L5013214 14230357
L5698928 15430357
L5698928 14230357
" />
</g></g>
<g style="fill:#F2EDA1; fill-opacity:0.0; 
stroke:#F2EDA1; stroke-width:150000.000000; stroke-opacity:1; 
stroke-linecap:round; stroke-linejoin:round;">
<g transform="rotate(-90.000000 23777500.000000 7267500.000000)">
<text x="23777500.000000" y="7767500.000000"
textLength="9277381.000000" font-size="1333333.000000" lengthAdjust="spacingAndGlyphs"
text-anchor="middle" opacity="0">S  -  +  S</text>
</g>
<g class="stroked-text"><desc>S  -  +  S</desc>
<path d="M24182261 11553214
L24229880 11410357
L24229880 11172261
L24182261 11077023
L24134642 11029404
L24039404 10981785
L23944166 10981785
L23848928 11029404
L23801309 11077023
L23753690 11172261
L23706071 11362738
L23658452 11457976
L23610833 11505595
L23515595 11553214
L23420357 11553214
L23325119 11505595
L23277500 11457976
L23229880 11362738
L23229880 11124642
L23277500 10981785
" />
<path d="M23848928 9029404
L23848928 8267500
" />
<path d="M23848928 6267500
L23848928 5505595
" />
<path d="M24229880 5886547
L23467976 5886547
" />
<path d="M24182261 3553214
L24229880 3410357
L24229880 3172261
L24182261 3077023
L24134642 3029404
L24039404 2981785
L23944166 2981785
L23848928 3029404
L23801309 3077023
L23753690 3172261
L23706071 3362738
L23658452 3457976
L23610833 3505595
L23515595 3553214
L23420357 3553214
L23325119 3505595
L23277500 3457976
L23229880 3362738
L23229880 3124642
L23277500 2981785
" />
</g></g>
<g style="fill:#F2EDA1; fill-opacity:0.0; 
stroke:#F2EDA1; stroke-width:200000.000000; stroke-opacity:1; 
stroke-linecap:round; stroke-linejoin:round;">
<g transform="rotate(-180.000000 17488707.000000 10823500.000000)">
<text x="17488707.000000" y="11573500.000000"
textLength="8480714.000000" font-size="2000000.000000" lengthAdjust="spacingAndGlyphs"
text-anchor="middle" opacity="0">+    -</text>
</g>
<g class="stroked-text"><desc>+    -</desc>
<path d="M21274421 10716357
L20131564 10716357
" />
<path d="M20702992 10144928
L20702992 11287785
" />
<path d="M14845849 10716357
L13702992 10716357
" />
</g><g transform="rotate(-270.000000 31397500.000000 5957500.000000)">
<text x="31397500.000000" y="6707500.000000"
textLength="5117143.000000" font-size="2000000.000000" lengthAdjust="spacingAndGlyphs"
text-anchor="middle" opacity="0">+ -</text>
</g>
<g class="stroked-text"><desc>+ -</desc>
<path d="M31290357 3886071
L31290357 5028928
" />
<path d="M30718928 4457500
L31861785 4457500
" />
<path d="M31290357 6886071
L31290357 8028928
" />
</g><g transform="rotate(-270.000000 3775000.000000 5997500.000000)">
<text x="3775000.000000" y="6747500.000000"
textLength="5117143.000000" font-size="2000000.000000" lengthAdjust="spacingAndGlyphs"
text-anchor="middle" opacity="0">+ -</text>
</g>
<g class="stroked-text"><desc>+ -</desc>
<path d="M3667857 3926071
L3667857 5068928
" />
<path d="M3096428 4497500
L4239285 4497500
" />
<path d="M3667857 6926071
L3667857 8068928
" />
</g></g>
<g style="fill:#F2EDA1; fill-opacity:0.0; 
stroke:#F2EDA1; stroke-width:150000.000000; stroke-opacity:1; 
stroke-linecap:round; stroke-linejoin:round;">
<text x="16538500.000000" y="12847500.000000"
textLength="2212381.000000" font-size="1333333.000000" lengthAdjust="spacingAndGlyphs"
text-anchor="middle" opacity="0">D1</text>
<g class="stroked-text"><desc>D1</desc>
<path d="M15800404 12799880
L15800404 11799880
L16038500 11799880
L16181357 11847500
L16276595 11942738
L16324214 12037976
L16371833 12228452
L16371833 12371309
L16324214 12561785
L16276595 12657023
L16181357 12752261
L16038500 12799880
L15800404 12799880
" />
<path d="M17324214 12799880
L16752785 12799880
" />
<path d="M17038500 12799880
L17038500 11799880
L16943261 11942738
L16848023 12037976
L16752785 12085595
" />
</g><text x="21360037.000000" y="3452500.000000"
textLength="1909286.000000" font-size="1333333.000000" lengthAdjust="spacingAndGlyphs"
text-anchor="middle" opacity="0">J1</text>
<g class="stroked-text"><desc>J1</desc>
<path d="M21026703 2404880
L21026703 3119166
L20979084 3262023
L20883846 3357261
L20740989 3404880
L20645751 3404880
" />
<path d="M22026703 3404880
L21455275 3404880
" />
<path d="M21740989 3404880
L21740989 2404880
L21645751 2547738
L21550513 2642976
L21455275 2690595
" />
</g><text x="16157500.000000" y="15387500.000000"
textLength="2147381.000000" font-size="1333333.000000" lengthAdjust="spacingAndGlyphs"
text-anchor="middle" opacity="0">1K</text>
<g class="stroked-text"><desc>1K</desc>
<path d="M15943214 15339880
L15371785 15339880
" />
<path d="M15657500 15339880
L15657500 14339880
L15562261 14482738
L15467023 14577976
L15371785 14625595
" />
<path d="M16371785 15339880
L16371785 14339880
" />
<path d="M16943214 15339880
L16514642 14768452
" />
<path d="M16943214 14339880
L16371785 14911309
" />
</g></g>
<g style="fill:#F2EDA1; fill-opacity:0.0; 
stroke:#F2EDA1; stroke-width:120000.000000; stroke-opacity:1; 
stroke-linecap:round; stroke-linejoin:round;">
<path d="M27647500 11067500
L27647500 12397500
" />
<path d="M27647500 2117500
L24987500 2117500
" />
<path d="M27647500 9797500
L27647500 2117500
" />
<path d="M27647500 12397500
L26317500 12397500
" />
<path d="M27647500 9797500
L24987500 9797500
" />
<path d="M24987500 9797500
L24987500 2117500
" />
<path d="M17792500 11427500
L14512500 11427500
" />
<path d="M15088500 11427500
L15088500 13267500
" />
<path d="M14512500 13267500
L17792500 13267500
" />
<path d="M14512500 11427500
L14512500 13267500
" />
<path d="M18972500 12347500
L17792500 12347500
" />
<path d="M13332500 12347500
L14512500 12347500
" />
<path d="M15208500 11427500
L15208500 13267500
" />
<path d="M17792500 13267500
L17792500 11427500
" />
<path d="M14968500 11427500
L14968500 13267500
" />
<path d="M12178707 2072500
L22798707 2072500
" />
<path d="M11938707 9392500
L11938707 10032500
" />
<path d="M20013707 6413500
L19919707 6506500
" />
<path d="M16513707 6413500
L16419707 6506500
" />
<path d="M16343707 6173500
L16214707 6301500
" />
<path d="M11938707 10032500
L12338707 10032500
" />
<path d="M12178707 2072500
L12178707 9792500
" />
<path d="M19843707 6173500
L19714707 6301500
" />
<path d="M12178707 9792500
L22798707 9792500
" />
<path d="M12178707 8232500
L22798707 8232500
" />
<path d="M22263707 4163500
L22134707 4291500
" />
<path d="M18763707 4163500
L18634707 4291500
" />
<path d="M22798707 2072500
L22798707 9792500
" />
<path d="M12178707 9332500
L22798707 9332500
" />
<path d="M18558707 3957500
L18464707 4051500
" />
<path d="M22058707 3957500
L21964707 4051500
" />
<path d="M13988707.000000 6912499.999997 A1679990.000000 1679990.000000 0.0 0 0 14878971.050226 6657221.080378" />
<path d="M12548706.398806 4366499.638448 A1680343.000000 1680343.000000 0.0 0 0 12563348.611378 6122394.242629" />
<path d="M14854707.361552 3792499.398806 A1680343.000000 1680343.000000 0.0 0 0 13098812.757371 3807141.611378" />
<path d="M15413706.819796 6123499.887325 A1680629.000000 1680629.000000 0.0 0 0 15414211.012956 4342306.991909" />
<path d="M13122706.771207 6672500.380443 A1680358.000000 1680358.000000 0.0 0 0 14017381.006545 6912599.383539" />
<circle cx="20988707.000000" cy="5232500.000000" r="1680000.000000" /> 
<circle cx="17488707.000000" cy="5232500.000000" r="1680000.000000" /> 
<path d="M5328500 9512500
L5172500 9512500
" />
<path d="M3012500 9512500
L2856500 9512500
" />
<path d="M5171108.058574 12744835.090817 A1990000.000000 1990000.000000 0.0 0 0 5328016.033343 9512499.957900" />
<path d="M5172337.090354 12113630.087115 A1500000.000000 1500000.000000 0.0 0 0 5172500.047155 10031538.954550" />
<path d="M3012499.952845 10031538.954550 A1500000.000000 1500000.000000 0.0 0 0 3012662.909646 12113630.087115" />
<path d="M2856983.966657 9512499.957900 A1990000.000000 1990000.000000 0.0 0 0 3013891.941426 12744835.090817" />
</g>
<g style="fill:#F2EDA1; fill-opacity:0.0; 
stroke:#F2EDA1; stroke-width:254000.000000; stroke-opacity:1; 
stroke-linecap:round; stroke-linejoin:round;">
<path d="M14506500 13998500
L17808500 13998500
" />
<path d="M14506500 15776500
L14506500 14252500
" />
<path d="M14506500 13998500
L14506500 14252500
" />
<path d="M17808500 15776500
L14506500 15776500
" />
<path d="M17808500 13998500
L17808500 15776500
" />
<path d="M17808500 14887500
L18570500 14887500
" />
<path d="M14506500 14887500
L13744500 14887500
" />
</g>
<g style="fill:#F2EDA1; fill-opacity:0.0; 
stroke:#F2EDA1; stroke-width:150000.000000; stroke-opacity:1; 
stroke-linecap:round; stroke-linejoin:round;">
<path d="M10442500 8537500
L7902500 8537500
" />
<path d="M7902500 13617500
L7902500 5997500
" />
<path d="M10442500 13617500
L7902500 13617500
" />
<path d="M10442500 5997500
L10442500 13617500
" />
<path d="M7902500 5997500
L10442500 5997500
" />
<g >
</g>
<g >
</g>
<g >
</g>
<g >
</g>
<g >
</g>
<g style="fill:#000000; fill-opacity:0.0; 
stroke:#000000; stroke-width:150000.000000; stroke-opacity:1; 
stroke-linecap:round; stroke-linejoin:round;">
</g>
<g style="fill:#000000; fill-opacity:1.0; 
stroke:#000000; stroke-width:1.000000; stroke-opacity:1; 
stroke-linecap:round; stroke-linejoin:round;">
<circle cx="19332500.000000" cy="14887500.000000" r="999490.000000" /> 
</g>
<g style="fill:#000000; fill-opacity:1.0; 
stroke:#000000; stroke-width:21200.000000; stroke-opacity:1; 
stroke-linecap:round; stroke-linejoin:round;">
</g>
<g style="fill:#000000; fill-opacity:1.0; 
stroke:#000000; stroke-width:1.000000; stroke-opacity:1; 
stroke-linecap:round; stroke-linejoin:round;">
<circle cx="12982500.000000" cy="14887500.000000" r="999490.000000" /> 
</g>
<g style="fill:#000000; fill-opacity:1.0; 
stroke:#000000; stroke-width:21200.000000; stroke-opacity:1; 
stroke-linecap:round; stroke-linejoin:round;">
</g>
<g >
</g>
<g style="fill:#000000; fill-opacity:1.0; 
stroke:#000000; stroke-width:21200.000000; stroke-opacity:1; 
stroke-linecap:round; stroke-linejoin:round;">
</g>
<g style="fill:#000000; fill-opacity:1.0; 
stroke:#000000; stroke-width:1.000000; stroke-opacity:1; 
stroke-linecap:round; stroke-linejoin:round;">
<path style="fill:#000000; fill-opacity:1.0; 
stroke:#000000; stroke-width:1.000000; stroke-opacity:1; 
stroke-linecap:round; stroke-linejoin:round;fill-rule:evenodd;"
d="M 8172500.000000,6267500.000000
10172500.000000,6267500.000000
10172500.000000,8267500.000000
8172500.000000,8267500.000000
Z" /> 
<circle cx="9172500.000000" cy="9807500.000000" r="1000000.000000" /> 
</g>
<g style="fill:#000000; fill-opacity:1.0; 
stroke:#000000; stroke-width:21200.000000; stroke-opacity:1; 
stroke-linecap:round; stroke-linejoin:round;">
</g>
<g style="fill:#000000; fill-opacity:1.0; 
stroke:#000000; stroke-width:1.000000; stroke-opacity:1; 
stroke-linecap:round; stroke-linejoin:round;">
<circle cx="9172500.000000" cy="12347500.000000" r="1000000.000000" /> 
</g>
<g style="fill:#000000; fill-opacity:1.0; 
stroke:#000000; stroke-width:21200.000000; stroke-opacity:1; 
stroke-linecap:round; stroke-linejoin:round;">
</g>
<g >
</g>
<g >
</g>
<g >
</g>
<g >
</g>
<g >
</g>
<g >
</g>
</g>
<g style="fill:#FFFFFF; fill-opacity:1.0; 
stroke:#FFFFFF; stroke-width:21200.000000; stroke-opacity:1; 
stroke-linecap:round; stroke-linejoin:round;">
</g>
<g style="fill:#FFFFFF; fill-opacity:1.0; 
stroke:#FFFFFF; stroke-width:1.000000; stroke-opacity:1; 
stroke-linecap:round; stroke-linejoin:round;">
<circle cx="26317500.000000" cy="11067500.000000" r="500000.000000" /> 
</g>
<g style="fill:#FFFFFF; fill-opacity:1.0; 
stroke:#FFFFFF; stroke-width:21200.000000; stroke-opacity:1; 
stroke-linecap:round; stroke-linejoin:round;">
</g>
<g style="fill:#FFFFFF; fill-opacity:1.0; 
stroke:#FFFFFF; stroke-width:1.000000; stroke-opacity:1; 
stroke-linecap:round; stroke-linejoin:round;">
<circle cx="26317500.000000" cy="8527500.000000" r="500000.000000" /> 
</g>
<g style="fill:#FFFFFF; fill-opacity:1.0; 
stroke:#FFFFFF; stroke-width:21200.000000; stroke-opacity:1; 
stroke-linecap:round; stroke-linejoin:round;">
</g>
<g style="fill:#FFFFFF; fill-opacity:1.0; 
stroke:#FFFFFF; stroke-width:1.000000; stroke-opacity:1; 
stroke-linecap:round; stroke-linejoin:round;">
<circle cx="26317500.000000" cy="5987500.000000" r="500000.000000" /> 
</g>
<g style="fill:#FFFFFF; fill-opacity:1.0; 
stroke:#FFFFFF; stroke-width:21200.000000; stroke-opacity:1; 
stroke-linecap:round; stroke-linejoin:round;">
</g>
<g style="fill:#FFFFFF; fill-opacity:1.0; 
stroke:#FFFFFF; stroke-width:1.000000; stroke-opacity:1; 
stroke-linecap:round; stroke-linejoin:round;">
<circle cx="26317500.000000" cy="3447500.000000" r="500000.000000" /> 
</g>
<g style="fill:#FFFFFF; fill-opacity:1.0; 
stroke:#FFFFFF; stroke-width:21200.000000; stroke-opacity:1; 
stroke-linecap:round; stroke-linejoin:round;">
</g>
<g style="fill:#FFFFFF; fill-opacity:1.0; 
stroke:#FFFFFF; stroke-width:1.000000; stroke-opacity:1; 
stroke-linecap:round; stroke-linejoin:round;">
<circle cx="12342500.000000" cy="12347500.000000" r="375000.000000" /> 
</g>
<g style="fill:#FFFFFF; fill-opacity:1.0; 
stroke:#FFFFFF; stroke-width:21200.000000; stroke-opacity:1; 
stroke-linecap:round; stroke-linejoin:round;">
</g>
<g style="fill:#FFFFFF; fill-opacity:1.0; 
stroke:#FFFFFF; stroke-width:1.000000; stroke-opacity:1; 
stroke-linecap:round; stroke-linejoin:round;">
<circle cx="19962500.000000" cy="12347500.000000" r="375000.000000" /> 
</g>
<g style="fill:#FFFFFF; fill-opacity:1.0; 
stroke:#FFFFFF; stroke-width:21200.000000; stroke-opacity:1; 
stroke-linecap:round; stroke-linejoin:round;">
</g>
<g style="fill:#FFFFFF; fill-opacity:1.0; 
stroke:#FFFFFF; stroke-width:1.000000; stroke-opacity:1; 
stroke-linecap:round; stroke-linejoin:round;">
<circle cx="13988707.000000" cy="5232500.000000" r="600000.000000" /> 
</g>
<g style="fill:#FFFFFF; fill-opacity:1.0; 
stroke:#FFFFFF; stroke-width:21200.000000; stroke-opacity:1; 
stroke-linecap:round; stroke-linejoin:round;">
</g>
<g style="fill:#FFFFFF; fill-opacity:1.0; 
stroke:#FFFFFF; stroke-width:1.000000; stroke-opacity:1; 
stroke-linecap:round; stroke-linejoin:round;">
<circle cx="17488707.000000" cy="5232500.000000" r="600000.000000" /> 
</g>
<g style="fill:#FFFFFF; fill-opacity:1.0; 
stroke:#FFFFFF; stroke-width:21200.000000; stroke-opacity:1; 
stroke-linecap:round; stroke-linejoin:round;">
</g>
<g style="fill:#FFFFFF; fill-opacity:1.0; 
stroke:#FFFFFF; stroke-width:1.000000; stroke-opacity:1; 
stroke-linecap:round; stroke-linejoin:round;">
<circle cx="20988707.000000" cy="5232500.000000" r="600000.000000" /> 
</g>
<g style="fill:#FFFFFF; fill-opacity:1.0; 
stroke:#FFFFFF; stroke-width:21200.000000; stroke-opacity:1; 
stroke-linecap:round; stroke-linejoin:round;">
</g>
<g style="fill:#FFFFFF; fill-opacity:1.0; 
stroke:#FFFFFF; stroke-width:1.000000; stroke-opacity:1; 
stroke-linecap:round; stroke-linejoin:round;">
<circle cx="4092500.000000" cy="9802500.000000" r="450000.000000" /> 
</g>
<g style="fill:#FFFFFF; fill-opacity:1.0; 
stroke:#FFFFFF; stroke-width:21200.000000; stroke-opacity:1; 
stroke-linecap:round; stroke-linejoin:round;">
</g>
<g style="fill:#FFFFFF; fill-opacity:1.0; 
stroke:#FFFFFF; stroke-width:1.000000; stroke-opacity:1; 
stroke-linecap:round; stroke-linejoin:round;">
<circle cx="4092500.000000" cy="12342500.000000" r="450000.000000" /> 
</g>
<g style="fill:#FFFFFF; fill-opacity:1.0; 
stroke:#FFFFFF; stroke-width:21200.000000; stroke-opacity:1; 
stroke-linecap:round; stroke-linejoin:round;">
</g>
<g style="fill:#FFFFFF; fill-opacity:1.0; 
stroke:#FFFFFF; stroke-width:1.000000; stroke-opacity:1; 
stroke-linecap:round; stroke-linejoin:round;">
<circle cx="19332500.000000" cy="14887500.000000" r="400000.000000" /> 
</g>
<g style="fill:#FFFFFF; fill-opacity:1.0; 
stroke:#FFFFFF; stroke-width:21200.000000; stroke-opacity:1; 
stroke-linecap:round; stroke-linejoin:round;">
</g>
<g style="fill:#FFFFFF; fill-opacity:1.0; 
stroke:#FFFFFF; stroke-width:1.000000; stroke-opacity:1; 
stroke-linecap:round; stroke-linejoin:round;">
<circle cx="12982500.000000" cy="14887500.000000" r="400000.000000" /> 
</g>
<g style="fill:#FFFFFF; fill-opacity:1.0; 
stroke:#FFFFFF; stroke-width:21200.000000; stroke-opacity:1; 
stroke-linecap:round; stroke-linejoin:round;">
</g>
<g style="fill:#FFFFFF; fill-opacity:1.0; 
stroke:#FFFFFF; stroke-width:1.000000; stroke-opacity:1; 
stroke-linecap:round; stroke-linejoin:round;">
<circle cx="9172500.000000" cy="7267500.000000" r="406400.000000" /> 
</g>
<g style="fill:#FFFFFF; fill-opacity:1.0; 
stroke:#FFFFFF; stroke-width:21200.000000; stroke-opacity:1; 
stroke-linecap:round; stroke-linejoin:round;">
</g>
<g style="fill:#FFFFFF; fill-opacity:1.0; 
stroke:#FFFFFF; stroke-width:1.000000; stroke-opacity:1; 
stroke-linecap:round; stroke-linejoin:round;">
<circle cx="9172500.000000" cy="9807500.000000" r="406400.000000" /> 
</g>
<g style="fill:#FFFFFF; fill-opacity:1.0; 
stroke:#FFFFFF; stroke-width:21200.000000; stroke-opacity:1; 
stroke-linecap:round; stroke-linejoin:round;">
</g>
<g style="fill:#FFFFFF; fill-opacity:1.0; 
stroke:#FFFFFF; stroke-width:1.000000; stroke-opacity:1; 
stroke-linecap:round; stroke-linejoin:round;">
<circle cx="9172500.000000" cy="12347500.000000" r="406400.000000" /> 
</g>
<g style="fill:#FFFFFF; fill-opacity:1.0; 
stroke:#FFFFFF; stroke-width:21200.000000; stroke-opacity:1; 
stroke-linecap:round; stroke-linejoin:round;">
</g>
<g style="fill:#FFFFFF; fill-opacity:1.0; 
stroke:#FFFFFF; stroke-width:1.000000; stroke-opacity:1; 
stroke-linecap:round; stroke-linejoin:round;">
<circle cx="28857500.000000" cy="4727500.000000" r="500000.000000" /> 
</g>
<g style="fill:#FFFFFF; fill-opacity:1.0; 
stroke:#FFFFFF; stroke-width:21200.000000; stroke-opacity:1; 
stroke-linecap:round; stroke-linejoin:round;">
</g>
<g style="fill:#FFFFFF; fill-opacity:1.0; 
stroke:#FFFFFF; stroke-width:1.000000; stroke-opacity:1; 
stroke-linecap:round; stroke-linejoin:round;">
<circle cx="28857500.000000" cy="7267500.000000" r="500000.000000" /> 
</g>
<g style="fill:#FFFFFF; fill-opacity:1.0; 
stroke:#FFFFFF; stroke-width:21200.000000; stroke-opacity:1; 
stroke-linecap:round; stroke-linejoin:round;">
</g>
<g style="fill:#FFFFFF; fill-opacity:1.0; 
stroke:#FFFFFF; stroke-width:1.000000; stroke-opacity:1; 
stroke-linecap:round; stroke-linejoin:round;">
<circle cx="22507500.000000" cy="14887500.000000" r="500000.000000" /> 
</g>
<g style="fill:#FFFFFF; fill-opacity:1.0; 
stroke:#FFFFFF; stroke-width:21200.000000; stroke-opacity:1; 
stroke-linecap:round; stroke-linejoin:round;">
</g>
<g style="fill:#FFFFFF; fill-opacity:1.0; 
stroke:#FFFFFF; stroke-width:1.000000; stroke-opacity:1; 
stroke-linecap:round; stroke-linejoin:round;">
<circle cx="25047500.000000" cy="14887500.000000" r="500000.000000" /> 
</g>
<g style="fill:#FFFFFF; fill-opacity:1.0; 
stroke:#FFFFFF; stroke-width:21200.000000; stroke-opacity:1; 
stroke-linecap:round; stroke-linejoin:round;">
</g>
<g style="fill:#FFFFFF; fill-opacity:1.0; 
stroke:#FFFFFF; stroke-width:1.000000; stroke-opacity:1; 
stroke-linecap:round; stroke-linejoin:round;">
<circle cx="5902500.000000" cy="4727500.000000" r="500000.000000" /> 
</g>
<g style="fill:#FFFFFF; fill-opacity:1.0; 
stroke:#FFFFFF; stroke-width:21200.000000; stroke-opacity:1; 
stroke-linecap:round; stroke-linejoin:round;">
</g>
<g style="fill:#FFFFFF; fill-opacity:1.0; 
stroke:#FFFFFF; stroke-width:1.000000; stroke-opacity:1; 
stroke-linecap:round; stroke-linejoin:round;">
<circle cx="5902500.000000" cy="7267500.000000" r="500000.000000" /> 
</g>
<g style="fill:#FFFFFF; fill-opacity:1.0; 
stroke:#FFFFFF; stroke-width:21200.000000; stroke-opacity:1; 
stroke-linecap:round; stroke-linejoin:round;">
</g>
<g style="fill:#000000; fill-opacity:1.0; 
stroke:#000000; stroke-width:21200.000000; stroke-opacity:1; 
stroke-linecap:round; stroke-linejoin:round;">
</g>
<g style="fill:#D0D2CD; fill-opacity:1.0; 
stroke:#D0D2CD; stroke-width:21200.000000; stroke-opacity:1; 
stroke-linecap:round; stroke-linejoin:round;">
</g>
<g style="fill:#D0D2CD; fill-opacity:1.0; 
stroke:#D0D2CD; stroke-width:254000.000000; stroke-opacity:1; 
stroke-linecap:round; stroke-linejoin:round;">
</g>
<g style="fill:#D0D2CD; fill-opacity:0.0; 
stroke:#D0D2CD; stroke-width:254000.000000; stroke-opacity:1; 
stroke-linecap:round; stroke-linejoin:round;">
<path d="M4092500 16157500
L30127500 16157500
" />
<path d="M1552500 4727500
L1552500 13617500
" />
<path d="M4092500 2187500
L30127500 2187500
" />
<path d="M30127500.000000 16157500.000000 A2540000.000000 2540000.000000 0.0 0 0 32667500.000000 13617500.000000" />
<path d="M32667500.000000 4727500.000000 A2540000.000000 2540000.000000 0.0 0 0 30127500.000000 2187500.000000" />
<path d="M1552500.000000 13617500.000000 A2540000.000000 2540000.000000 0.0 0 0 4092500.000000 16157500.000000" />
<path d="M4092500.000000 2187500.000000 A2540000.000000 2540000.000000 0.0 0 0 1552500.000000 4727500.000000" />
<path d="M32667500 13617500
L32667500 4727500
" />
<g >
</g>
<g >
</g>
<g >
</g>
<g >
</g>
<g >
</g>
<g >
</g>
<g >
</g>
<g >
</g>
<g >
</g>
<g >
</g>
<g >
</g>
<g >
</g>
</g> 
</svg>
