<?xml version="1.0" encoding="UTF-8" standalone="no"?>
<svg
   width="42mm"
   viewBox="0 0 42 33.999997"
   id="svg889"
   y="0in"
   gorn="0"
   x="0in"
   height="34mm"
   version="1.2"
   xmlns="http://www.w3.org/2000/svg"
   xmlns:svg="http://www.w3.org/2000/svg">
  <g
     id="28BYJ-48"
     gorn="0.1.0.1.0"
     style="display:inline"
     transform="rotate(-90,20.990813,27.539001)">
    <g
       id="g1120"
       gorn="0.1.0.1.0.1"
       style="display:inline">
      <path
         id="path17738"
         gorn="0.1.0.1.0.1.0"
         d="m 14.58836,30.21623 3.12313,8e-5 10e-7,-1e-6 v -0.926056 l -10e-7,-1e-6 -3.12313,-0.003 z"
         style="display:inline;fill:#ffff00;fill-opacity:1;stroke:#c8c800;stroke-width:0.0850001;stroke-linecap:butt;stroke-linejoin:miter;stroke-miterlimit:4;stroke-dasharray:none;stroke-opacity:1" />
      <path
         id="rect4096"
         gorn="0.1.0.1.0.1.1"
         d="m 17.705992,24.890788 v 0.925995 H 14.58836 v -0.925995 z"
         style="fill:#0000e8;stroke:#0000b6;stroke-width:0.0740018;stroke-linecap:round" />
      <path
         id="rect6726"
         gorn="0.1.0.1.0.1.2"
         d="m 17.705992,25.990536 v 0.925996 H 14.58836 v -0.925996 z"
         style="fill:#ff5ae8;stroke:#ff2f92;stroke-width:0.0740018;stroke-linecap:round" />
      <path
         id="rect6810"
         gorn="0.1.0.1.0.1.3"
         d="m 17.705992,28.190288 v 0.925996 H 14.58836 v -0.925995 z"
         style="display:inline;fill:#ff9300;stroke:#c57100;stroke-width:0.0740018;stroke-linecap:round" />
      <path
         id="path15561"
         gorn="0.1.0.1.0.1.4"
         d="m 14.58836,27.091347 3.117631,-7.9e-5 10e-7,1e-6 v 0.925996 l -10e-7,1e-6 -3.117631,0.0031 z"
         style="display:inline;fill:#ff0000;fill-opacity:1;stroke:#d20202;stroke-width:0.085;stroke-linecap:butt;stroke-linejoin:miter;stroke-miterlimit:4;stroke-dasharray:none;stroke-opacity:1" />
    </g>
    <g
       id="g1144"
       gorn="0.1.0.1.0.2">
      <path
         id="path31255"
         gorn="0.1.0.1.0.2.0"
         d="m 21.278935,18.873525 -1.620573,1.620573 v 14.122136 l 1.5875,1.5875 h 2.315104 V 18.873525 Z"
         style="fill:#0ab5ff;fill-opacity:1;stroke:#0aaaff;stroke-width:0.1;stroke-linecap:butt;stroke-linejoin:miter;stroke-miterlimit:4;stroke-dasharray:none;stroke-opacity:1" />
      <g
         transform="rotate(90)"
         id="g849">
        <rect
           width="14.493617"
           id="rect31121"
           y="-22.85474"
           gorn="0.1.0.1.0.2.1.0"
           x="20.297667"
           ry="0.47437122"
           height="5.1944551"
           style="fill:#0ab5ff;fill-opacity:1;stroke:#0aaaff;stroke-width:0.1;stroke-linecap:round;stroke-miterlimit:4;stroke-dasharray:none;stroke-opacity:1" />
      </g>
    </g>
    <g
       id="g1162"
       gorn="0.1.0.1.0.3">
      <g
         transform="rotate(90)"
         id="g853">
        <circle
           r="13.975126"
           id="path26086"
           gorn="0.1.0.1.0.3.0.0"
           cy="-34.513641"
           cx="27.548189"
           style="display:inline;fill:#d6d6d6;fill-opacity:1;stroke:#a4a4a4;stroke-width:0.05;stroke-linecap:round;stroke-miterlimit:4;stroke-dasharray:none;stroke-opacity:1" />
      </g>
      <path
         id="path5709"
         gorn="0.1.0.1.0.3.1"
         d="m 30.592062,14.154434 0.0021,0.587044 c -2.095908,0.492519 -5.100509,2.444433 -6.454899,4.396631 l -0.721404,-0.01602 c -0.526834,0.695498 -0.988774,1.433506 -1.37976,2.210718 l -2.950208,0.0036 V 33.75427 l 2.944524,0.01188 c 0.388761,0.780241 0.844172,1.524815 1.358573,2.204516 l 0.748275,-0.02325 c 1.354394,1.952195 4.358474,3.904112 6.454386,4.396633 l -10e-4,0.599445 c 0.145134,0.04275 0.291451,0.0829 0.438216,0.120923 v 3.940844 c 0,1.932998 1.567048,3.483507 3.500045,3.483507 1.932996,0 3.499979,-1.567048 3.500044,-3.500046 v -3.92534 c 0.160923,-0.04155 0.320424,-0.0852 0.479041,-0.132291 v -0.587045 c 3.896328,-1.152508 7.321356,-4.54543 8.458397,-7.836212 l 0.614949,-0.0041 c 0.584914,-1.539882 0.905371,-3.209709 0.905371,-4.954736 0,-1.729438 -0.334373,-3.430069 -0.929659,-4.965072 l -0.590661,-0.0062 c -1.13711,-3.290816 -4.562138,-6.683738 -8.458468,-7.836248 v -0.573092 c -0.157291,-0.04868 -0.319518,-0.09118 -0.478906,-0.134358 l -1.34e-4,-3.926375 c -6.6e-5,-1.9329971 -1.567048,-3.5000453 -3.500045,-3.5000453 -1.932997,0 -3.500154,1.5505118 -3.500045,3.4835083 l 2.24e-4,3.942912 c -0.145744,0.03776 -0.291868,0.07831 -0.438956,0.120406 z m 5.939172,-4.045231 c -6.8e-5,1.104676 -0.895719,2.000095 -2.000395,1.999878 -1.104474,-6.8e-5 -1.99981,-0.895404 -1.999878,-1.999878 6.8e-5,-1.1044746 0.895404,-1.9998108 1.999878,-1.9998783 1.104676,-2.177e-4 2.000327,0.8952021 2.000395,1.9998783 z m 0,34.877975 c -6.8e-5,1.104675 -0.895719,2.000094 -2.000395,1.999877 -1.104474,-6.6e-5 -1.99981,-0.895403 -1.999878,-1.999877 6.8e-5,-1.104474 0.895404,-1.999811 1.999878,-1.99988 1.104676,-2.17e-4 2.000327,0.895202 2.000395,1.99988 z"
         style="display:inline;fill:#d6d6d6;fill-opacity:1;stroke:#a4a4a4;stroke-width:0.0499999;stroke-linecap:butt;stroke-linejoin:miter;stroke-miterlimit:4;stroke-dasharray:none;stroke-opacity:1" />
      <path
         id="path3100"
         gorn="0.1.0.1.0.3.2"
         d="m 34.513644,28.142596 a 0.5944075,0.5944075 0 0 1 -0.594408,-0.594407 0.5944075,0.5944075 0 0 1 0.594408,-0.594407 0.5944075,0.5944075 0 0 1 0.594407,0.594407 0.5944075,0.5944075 0 0 1 -0.594407,0.594407 z"
         style="fill:#a4a4a4;fill-opacity:1;stroke:#828282;stroke-width:0.0499999;stroke-linecap:round" />
      <path
         id="path3985"
         gorn="0.1.0.1.0.3.3"
         d="m 29.949582,30.59826 a 0.5944075,0.5944075 0 0 1 -0.594408,-0.594407 0.5944075,0.5944075 0 0 1 0.594408,-0.594407 0.5944075,0.5944075 0 0 1 0.594407,0.594407 0.5944075,0.5944075 0 0 1 -0.594407,0.594407 z"
         style="fill:#a4a4a4;fill-opacity:1;stroke:#828282;stroke-width:0.0499999;stroke-linecap:round" />
      <path
         id="path3987"
         gorn="0.1.0.1.0.3.4"
         d="m 34.019557,33.885591 a 0.5944075,0.5944075 0 0 1 -0.594408,-0.594407 0.5944075,0.5944075 0 0 1 0.594408,-0.594407 0.5944075,0.5944075 0 0 1 0.594407,0.594407 0.5944075,0.5944075 0 0 1 -0.594407,0.594407 z"
         style="fill:#a4a4a4;fill-opacity:1;stroke:#828282;stroke-width:0.0499999;stroke-linecap:round" />
      <path
         id="path3989"
         gorn="0.1.0.1.0.3.5"
         d="m 39.911611,33.6126 a 0.5944075,0.5944075 0 0 1 -0.594408,-0.594407 0.5944075,0.5944075 0 0 1 0.594408,-0.594407 0.5944075,0.5944075 0 0 1 0.594407,0.594407 0.5944075,0.5944075 0 0 1 -0.594407,0.594407 z"
         style="fill:#a4a4a4;fill-opacity:1;stroke:#828282;stroke-width:0.05;stroke-linecap:round;stroke-miterlimit:4;stroke-dasharray:none" />
      <g
         transform="rotate(90)"
         id="g861">
        <circle
           r="4.4381323"
           id="path4013"
           gorn="0.1.0.1.0.3.6.0"
           cy="-42.465759"
           cx="27.538887"
           style="display:inline;fill:none;fill-opacity:1;stroke:#828282;stroke-width:0.0499999;stroke-linecap:round;stroke-miterlimit:4;stroke-dasharray:none;stroke-opacity:1" />
      </g>
      <g
         transform="rotate(90)"
         id="g864">
        <circle
           r="3.9236383"
           id="circle4053"
           gorn="0.1.0.1.0.3.7.0"
           cy="-42.465759"
           cx="27.538887"
           style="fill:#a4a4a4;fill-opacity:1;stroke:#828282;stroke-width:0.0499999;stroke-linecap:round;stroke-miterlimit:4;stroke-dasharray:none;stroke-opacity:1" />
      </g>
    </g>
    <g
       id="g1172"
       gorn="0.1.0.1.0.4">
      <g
         transform="rotate(90)"
         id="g868">
        <circle
           r="3.7"
           id="path66660"
           gorn="0.1.0.1.0.4.0.0"
           cy="-42.465633"
           cx="27.538788"
           style="fill:#ffffff;fill-opacity:1;stroke:none;stroke-width:0.100363;stroke-linecap:round;stroke-miterlimit:4;stroke-dasharray:none;stroke-opacity:1" />
      </g>
      <g
         transform="rotate(90)"
         id="g871">
        <circle
           r="2.5"
           id="path45592"
           gorn="0.1.0.1.0.4.1.0"
           cy="-42.465633"
           cx="27.538788"
           style="display:inline;fill:#cfb175;fill-opacity:1;stroke:#958056;stroke-width:0.1;stroke-linecap:round;stroke-miterlimit:4;stroke-dasharray:none;stroke-opacity:1" />
      </g>
      <path
         id="path59310"
         gorn="0.1.0.1.0.4.2"
         d="m 43.970056,29.532306 -0.0031,-0.706417 a 1.9794266,1.9794266 0 0 1 -1.501201,0.692465 1.9794266,1.9794266 0 0 1 -1.502234,-0.716752 l -0.0021,0.737422 c 0.417817,0.313811 0.93688,0.499711 1.49965,0.499711 0.566802,0 1.089609,-0.188528 1.508952,-0.506429 z m -0.01499,-3.269051 -0.0031,-0.731221 C 43.535705,25.222296 43.01984,25.03904 42.461104,25.03904 c -0.558058,0 -1.073313,0.182386 -1.489314,0.491443 l -0.0021,0.738973 a 1.9794266,1.9794266 0 0 1 1.496033,-0.710034 1.9794266,1.9794266 0 0 1 1.489314,0.703833 z"
         style="display:inline;fill:#958056;stroke-width:0.0981697;stroke-linecap:round" />
      <path
         id="path64920"
         gorn="0.1.0.1.0.4.3"
         d="m 42.465632,29.523302 c -0.571921,0 -1.090436,-0.245033 -1.452586,-0.632138 l 7.63e-4,-2.686664 c 0.363031,-0.399549 0.866351,-0.653328 1.448723,-0.653328 0.55773,0 1.082395,0.250747 1.442918,0.621165 l 0.01235,2.721457 c -0.360796,0.372884 -0.892331,0.629508 -1.452172,0.629508 z"
         style="fill:#cfb175;stroke:#958056;stroke-width:0.1;stroke-linecap:round" />
    </g>
  </g>
</svg>
