<?xml version='1.0' encoding='UTF-8' standalone='no'?>
<svg
  xmlns="http://www.w3.org/2000/svg"
  xmlns:svg="http://www.w3.org/2000/svg"
  height="1.2598487in"
  width="1.3622048in"
  viewBox="0 0 13622.048 12598.487"
  version="1.2">
  <g
    id="breadboard">
    <g
      id="g33442"
      display="inline">
      <path
        id="path824"
        d="M 2.7083931e-6,3.1517439e-5 V 12598.487 H 13622.048 V 3.1517439e-5 Z M 984.29503,533.85503 A 568.52312,568.52312 0 0 1 1552.7365,1102.2965 568.52312,568.52312 0 0 1 984.29503,1670.9416 568.52312,568.52312 0 0 1 415.65006,1102.2965 568.52312,568.52312 0 0 1 984.29503,533.85503 Z m 11653.45897,0 a 568.52312,568.52312 0 0 1 568.644,568.44147 568.52312,568.52312 0 0 1 -568.644,568.6451 568.52312,568.52312 0 0 1 -568.443,-568.6451 568.52312,568.52312 0 0 1 568.443,-568.44147 z M 984.29503,10927.546 a 568.52312,568.52312 0 0 1 568.44147,568.442 568.52312,568.52312 0 0 1 -568.44147,568.644 568.52312,568.52312 0 0 1 -568.64497,-568.644 568.52312,568.52312 0 0 1 568.64497,-568.442 z m 11653.45897,0 a 568.52312,568.52312 0 0 1 568.644,568.442 568.52312,568.52312 0 0 1 -568.644,568.644 568.52312,568.52312 0 0 1 -568.443,-568.644 568.52312,568.52312 0 0 1 568.443,-568.442 z"
        display="inline"
        fill="#2f8a5b"
        stroke-width="142.914"
      />
      <g
        id="g33677"
        display="inline">
        <g
          id="g19405"
          transform="matrix(104.16681,0,0,104.16681,-4e-5,0)">
          <rect
            id="rect8079"
            width="6.5192604"
            height="12.566497"
            x="103.58491"
            y="91.541939"
            fill="none"
            stroke="#ffffff"
            stroke-width="0.661832"
            stroke-linecap="round"
            stroke-miterlimit="4"
            stroke-dasharray="none"
            stroke-opacity="1"
          />
          <rect
            id="rect8077"
            width="6.5192604"
            height="12.566497"
            x="93.984909"
            y="91.541939"
            fill="none"
            stroke="#ffffff"
            stroke-width="0.661832"
            stroke-linecap="round"
            stroke-miterlimit="4"
            stroke-dasharray="none"
            stroke-opacity="1"
          />
          <rect
            id="rect8075"
            width="6.5192604"
            height="12.566497"
            x="84.384926"
            y="91.541939"
            fill="none"
            stroke="#ffffff"
            stroke-width="0.661832"
            stroke-linecap="round"
            stroke-miterlimit="4"
            stroke-dasharray="none"
            stroke-opacity="1"
          />
          <rect
            id="rect7848"
            width="6.5192604"
            height="12.566497"
            x="74.784943"
            y="91.541939"
            fill="none"
            stroke="#ffffff"
            stroke-width="0.661832"
            stroke-linecap="round"
            stroke-miterlimit="4"
            stroke-dasharray="none"
            stroke-opacity="1"
          />
        </g>
        <path
          id="line924"
          d="M 1921.2626,9040.9573 H 3078.7444 M 1959.4843,1961.0588 H 3040.5225 V 11879.585 H 1959.4843 Z"
          display="inline"
          fill="none"
          stroke="#ffffff"
          stroke-width="84.7138"
          stroke-miterlimit="10"
        />
        <rect
          x="3450.4231"
          y="9951.4609"
          width="4101.7144"
          height="1098.0148"
          id="rect914"
          ry="0"
          display="inline"
          fill="none"
          stroke="#ffffff"
          stroke-width="78.7895"
          stroke-miterlimit="10"
          stroke-dasharray="none"
        />
        <g
          aria-label="IN1 IN2 IN3 IN4 IN5 IN6 IN7"
          id="text23486"
          transform="matrix(104.16681,0,0,104.16681,-4e-5,0)"
          font-size="5.99999"
          line-height="1.6"
          font-family="'Droid Sans'"
          display="inline"
          stroke-width="0.999999">
          <path
            d="M 8.016537,26.068081 H 6.4638049 V 25.769253 L 6.9677104,25.649136 V 22.203829 L 6.4638049,22.083712 V 21.784884 H 8.016537 v 0.298828 l -0.5039055,0.120117 v 3.445307 l 0.5039055,0.120117 z"
            id="path41112"
            font-family="'Droid Sans'"
            fill="#ffffff"
          />
          <path
            d="M 12.053641,26.068081 H 11.423759 L 9.3173165,22.523164 H 9.293879 q 0.017578,0.225586 0.029297,0.448242 0.011719,0.190429 0.017578,0.398437 0.00879,0.208007 0.00879,0.374999 v 2.323239 H 8.8456374 V 21.784884 H 9.46966 l 2.097653,3.527339 h 0.02051 q -0.0088,-0.222656 -0.02051,-0.439453 -0.0029,-0.09375 -0.0088,-0.190429 -0.0029,-0.09961 -0.0088,-0.196289 -0.0029,-0.09961 -0.0059,-0.190429 0,-0.09082 0,-0.166992 v -2.343747 h 0.509765 z"
            id="path41114"
            font-family="'Droid Sans'"
            fill="#ffffff"
          />
          <path
            d="M 14.716723,26.068081 H 14.201099 V 23.39328 q 0,-0.125976 0,-0.269531 0.0029,-0.143554 0.0059,-0.284179 0.0059,-0.143555 0.0088,-0.272461 0.0059,-0.131835 0.0088,-0.231445 -0.04981,0.05273 -0.08789,0.09082 -0.03809,0.03808 -0.0791,0.07324 -0.03809,0.03516 -0.08203,0.07617 -0.04394,0.03809 -0.105469,0.09082 l -0.433593,0.354491 -0.281249,-0.360351 1.122068,-0.875975 h 0.439453 z"
            id="path41116"
            font-family="'Droid Sans'"
            fill="#ffffff"
          />
          <path
            d="M 8.016537,35.668067 H 6.4638049 V 35.36924 L 6.9677104,35.249123 V 31.803815 L 6.4638049,31.683698 V 31.38487 H 8.016537 v 0.298828 l -0.5039055,0.120117 v 3.445308 L 8.016537,35.36924 Z"
            id="path41118"
            font-family="'Droid Sans'"
            fill="#ffffff"
          />
          <path
            d="M 12.053641,35.668067 H 11.423759 L 9.3173165,32.123151 H 9.293879 q 0.017578,0.225585 0.029297,0.448241 0.011719,0.190429 0.017578,0.398437 0.00879,0.208007 0.00879,0.374999 v 2.323239 H 8.8456374 V 31.38487 H 9.46966 l 2.097653,3.527339 h 0.02051 q -0.0088,-0.222656 -0.02051,-0.439452 -0.0029,-0.09375 -0.0088,-0.19043 -0.0029,-0.09961 -0.0088,-0.196289 -0.0029,-0.09961 -0.0059,-0.190429 0,-0.09082 0,-0.166992 V 31.38487 h 0.509765 z"
            id="path41120"
            font-family="'Droid Sans'"
            fill="#ffffff"
          />
          <path
            d="m 15.586839,35.668067 h -2.671871 v -0.45703 l 1.025389,-1.11621 q 0.219726,-0.237304 0.392577,-0.433593 0.172852,-0.196289 0.292969,-0.383788 0.123046,-0.1875 0.187499,-0.375 0.06445,-0.190429 0.06445,-0.413085 0,-0.172851 -0.0498,-0.304687 -0.04981,-0.131836 -0.143555,-0.222656 -0.09082,-0.09375 -0.216796,-0.140625 -0.125977,-0.04687 -0.28125,-0.04687 -0.27832,0 -0.503905,0.114258 -0.222656,0.111328 -0.424804,0.287109 l -0.298828,-0.348633 q 0.117187,-0.105468 0.251953,-0.196288 0.134765,-0.09375 0.290038,-0.161133 0.155273,-0.06738 0.328125,-0.105468 0.172851,-0.04102 0.363281,-0.04102 0.281249,0 0.506835,0.0791 0.228515,0.0791 0.386718,0.228516 0.158203,0.146484 0.243164,0.360351 0.08789,0.210937 0.08789,0.477538 0,0.249023 -0.0791,0.474609 -0.07617,0.225585 -0.213867,0.445312 -0.134766,0.216796 -0.325195,0.436523 -0.1875,0.219726 -0.407226,0.45703 l -0.823241,0.875975 v 0.02344 h 2.018552 z"
            id="path41122"
            font-family="'Droid Sans'"
            fill="#ffffff"
          />
          <path
            d="M 8.016537,45.268054 H 6.4638049 V 44.969226 L 6.9677104,44.849109 V 41.403801 L 6.4638049,41.283684 V 40.984857 H 8.016537 v 0.298827 l -0.5039055,0.120117 v 3.445308 l 0.5039055,0.120117 z"
            id="path41124"
            font-family="'Droid Sans'"
            fill="#ffffff"
          />
          <path
            d="M 12.053641,45.268054 H 11.423759 L 9.3173165,41.723137 H 9.293879 q 0.017578,0.225586 0.029297,0.448241 0.011719,0.19043 0.017578,0.398437 0.00879,0.208008 0.00879,0.375 v 2.323239 H 8.8456374 V 40.984857 H 9.46966 l 2.097653,3.527338 h 0.02051 q -0.0088,-0.222656 -0.02051,-0.439452 -0.0029,-0.09375 -0.0088,-0.190429 -0.0029,-0.09961 -0.0088,-0.196289 -0.0029,-0.09961 -0.0059,-0.19043 0,-0.09082 0,-0.166992 v -2.343746 h 0.509765 z"
            id="path41126"
            font-family="'Droid Sans'"
            fill="#ffffff"
          />
          <path
            d="m 15.449144,41.986808 q 0,0.213867 -0.06738,0.389648 -0.06738,0.175781 -0.190429,0.304687 -0.120117,0.128906 -0.290039,0.213867 -0.169922,0.08203 -0.377929,0.117188 v 0.01758 q 0.518554,0.06445 0.788085,0.331054 0.26953,0.263671 0.26953,0.688475 0,0.28125 -0.09668,0.515625 -0.09375,0.234374 -0.287109,0.404296 -0.193359,0.169922 -0.489257,0.263672 -0.295898,0.09375 -0.700195,0.09375 -0.319335,0 -0.603514,-0.0498 -0.28125,-0.0498 -0.530273,-0.181641 v -0.498046 q 0.254882,0.134766 0.550781,0.208008 0.298827,0.07324 0.571288,0.07324 0.269531,0 0.465819,-0.05859 0.196289,-0.05859 0.322266,-0.166992 0.128906,-0.108398 0.187499,-0.266601 0.06152,-0.158203 0.06152,-0.354492 0,-0.199218 -0.0791,-0.339843 -0.07617,-0.143554 -0.219726,-0.234375 -0.143555,-0.09375 -0.351562,-0.137695 -0.205078,-0.04395 -0.46582,-0.04395 h -0.389648 v -0.442382 h 0.389648 q 0.237305,0 0.421875,-0.05859 0.18457,-0.05859 0.307616,-0.166992 0.125977,-0.108398 0.19043,-0.257812 0.06445,-0.149414 0.06445,-0.328124 0,-0.152344 -0.05273,-0.272461 -0.05274,-0.120117 -0.149414,-0.202148 -0.09668,-0.08496 -0.231445,-0.128906 -0.134766,-0.04395 -0.298828,-0.04395 -0.313476,0 -0.55371,0.09961 -0.237304,0.09668 -0.454101,0.254882 l -0.269531,-0.36621 q 0.111328,-0.09082 0.246094,-0.169922 0.137695,-0.0791 0.298827,-0.137695 0.161133,-0.06152 0.342773,-0.09668 0.18457,-0.03516 0.389648,-0.03516 0.316406,0 0.55371,0.0791 0.240234,0.0791 0.401367,0.222656 0.161132,0.140625 0.243164,0.336913 0.08203,0.193359 0.08203,0.424804 z"
            id="path41128"
            font-family="'Droid Sans'"
            fill="#ffffff"
          />
          <path
            d="M 8.016537,54.86804 H 6.4638049 V 54.569212 L 6.9677104,54.449095 V 51.003788 L 6.4638049,50.883671 V 50.584843 H 8.016537 v 0.298828 l -0.5039055,0.120117 v 3.445307 l 0.5039055,0.120117 z"
            id="path41130"
            font-family="'Droid Sans'"
            fill="#ffffff"
          />
          <path
            d="M 12.053641,54.86804 H 11.423759 L 9.3173165,51.323123 H 9.293879 q 0.017578,0.225586 0.029297,0.448242 0.011719,0.190429 0.017578,0.398437 0.00879,0.208007 0.00879,0.374999 V 54.86804 H 8.8456374 V 50.584843 H 9.46966 l 2.097653,3.527339 h 0.02051 q -0.0088,-0.222656 -0.02051,-0.439453 -0.0029,-0.09375 -0.0088,-0.190429 -0.0029,-0.09961 -0.0088,-0.196289 -0.0029,-0.09961 -0.0059,-0.190429 0,-0.09082 0,-0.166992 v -2.343747 h 0.509765 z"
            id="path41132"
            font-family="'Droid Sans'"
            fill="#ffffff"
          />
          <path
            d="m 15.818284,53.907104 h -0.624023 v 0.960936 h -0.515624 v -0.960936 h -1.977536 v -0.46582 l 1.94238,-2.879878 h 0.55078 v 2.859371 h 0.624023 z m -1.139647,-0.486327 v -1.042968 q 0,-0.164062 0.0029,-0.342773 0.0059,-0.18164 0.01172,-0.351562 0.0059,-0.172851 0.01172,-0.322265 0.0088,-0.149414 0.01172,-0.249023 h -0.02637 q -0.02051,0.05859 -0.05274,0.131836 -0.0293,0.07031 -0.06738,0.143554 -0.03516,0.07031 -0.07324,0.137695 -0.03809,0.06738 -0.07031,0.114258 l -1.2041,1.781248 z"
            id="path41134"
            font-family="'Droid Sans'"
            fill="#ffffff"
          />
          <path
            d="M 8.016537,64.468027 H 6.4638049 V 64.169199 L 6.9677104,64.049082 V 60.603774 L 6.4638049,60.483657 V 60.18483 H 8.016537 v 0.298827 l -0.5039055,0.120117 v 3.445308 l 0.5039055,0.120117 z"
            id="path41136"
            font-family="'Droid Sans'"
            fill="#ffffff"
          />
          <path
            d="M 12.053641,64.468027 H 11.423759 L 9.3173165,60.92311 H 9.293879 q 0.017578,0.225585 0.029297,0.448241 0.011719,0.19043 0.017578,0.398437 0.00879,0.208008 0.00879,0.375 v 2.323239 H 8.8456374 V 60.18483 H 9.46966 l 2.097653,3.527338 h 0.02051 q -0.0088,-0.222656 -0.02051,-0.439452 -0.0029,-0.09375 -0.0088,-0.19043 -0.0029,-0.09961 -0.0088,-0.196288 -0.0029,-0.09961 -0.0059,-0.19043 0,-0.09082 0,-0.166992 V 60.18483 h 0.509765 z"
            id="path41138"
            font-family="'Droid Sans'"
            fill="#ffffff"
          />
          <path
            d="m 14.230395,61.840101 q 0.290039,0 0.539062,0.08203 0.251953,0.0791 0.436523,0.237304 0.1875,0.158203 0.292968,0.392578 0.105469,0.234374 0.105469,0.541991 0,0.333984 -0.09961,0.600585 -0.09961,0.266601 -0.295898,0.451171 -0.196289,0.18457 -0.486328,0.28418 -0.287109,0.09668 -0.662108,0.09668 -0.149414,0 -0.295898,-0.01465 -0.143555,-0.01465 -0.27832,-0.04394 -0.131836,-0.02637 -0.251953,-0.07031 -0.120117,-0.04394 -0.216796,-0.102539 V 63.79127 q 0.09668,0.06738 0.225585,0.120117 0.131836,0.05273 0.27539,0.08789 0.143555,0.03516 0.287109,0.05566 0.146485,0.01758 0.269531,0.01758 0.231445,0 0.413086,-0.05273 0.18164,-0.05566 0.307616,-0.169922 0.125977,-0.114257 0.193359,-0.287109 0.06738,-0.172851 0.06738,-0.410155 0,-0.418945 -0.257812,-0.638671 -0.257812,-0.222656 -0.749999,-0.222656 -0.0791,0 -0.172851,0.0088 -0.09082,0.0059 -0.18457,0.01758 -0.09082,0.01172 -0.175781,0.02637 -0.08203,0.01172 -0.143555,0.02344 l -0.263671,-0.166992 0.161132,-2.015622 h 2.021482 v 0.486327 h -1.558592 l -0.114257,1.227537 q 0.09375,-0.01758 0.246093,-0.03809 0.155273,-0.02051 0.36621,-0.02051 z"
            id="path41140"
            font-family="'Droid Sans'"
            fill="#ffffff"
          />
          <path
            d="M 8.016537,74.068013 H 6.4638049 V 73.769185 L 6.9677104,73.649068 V 70.203761 L 6.4638049,70.083644 V 69.784816 H 8.016537 v 0.298828 l -0.5039055,0.120117 v 3.445307 l 0.5039055,0.120117 z"
            id="path41142"
            font-family="'Droid Sans'"
            fill="#ffffff"
          />
          <path
            d="M 12.053641,74.068013 H 11.423759 L 9.3173165,70.523096 H 9.293879 q 0.017578,0.225586 0.029297,0.448242 0.011719,0.190429 0.017578,0.398437 0.00879,0.208007 0.00879,0.374999 v 2.323239 H 8.8456374 V 69.784816 H 9.46966 l 2.097653,3.527339 h 0.02051 q -0.0088,-0.222656 -0.02051,-0.439453 -0.0029,-0.09375 -0.0088,-0.190429 -0.0029,-0.09961 -0.0088,-0.196289 -0.0029,-0.09961 -0.0059,-0.190429 0,-0.09082 0,-0.166992 v -2.343747 h 0.509765 z"
            id="path41144"
            font-family="'Droid Sans'"
            fill="#ffffff"
          />
          <path
            d="m 12.964772,72.236961 q 0,-0.307617 0.0293,-0.612304 0.03223,-0.304687 0.108398,-0.583007 0.0791,-0.28125 0.213867,-0.521484 0.134766,-0.240234 0.342773,-0.416015 0.208008,-0.17871 0.498046,-0.278319 0.290039,-0.102539 0.679687,-0.102539 0.05566,0 0.123047,0.0029 0.06738,0.0029 0.134765,0.01172 0.07031,0.0059 0.131836,0.01758 0.06445,0.0088 0.114257,0.02344 v 0.454101 q -0.102539,-0.03516 -0.231445,-0.05273 -0.128906,-0.01758 -0.254882,-0.01758 -0.263672,0 -0.46582,0.06445 -0.199218,0.06152 -0.345702,0.175781 -0.146484,0.114258 -0.246094,0.272461 -0.09668,0.158203 -0.158203,0.351562 -0.06152,0.190429 -0.09082,0.407226 -0.0293,0.216796 -0.03809,0.451171 h 0.03516 q 0.05859,-0.105469 0.140624,-0.196289 0.08496,-0.09375 0.196289,-0.158203 0.111328,-0.06738 0.249023,-0.105468 0.140625,-0.03809 0.313476,-0.03809 0.27832,0 0.503906,0.08789 0.225585,0.08496 0.383788,0.251953 0.158203,0.166992 0.243164,0.410156 0.08789,0.240234 0.08789,0.55078 0,0.333984 -0.09082,0.600585 -0.09082,0.266601 -0.260741,0.454101 -0.169922,0.18457 -0.410156,0.284179 -0.240234,0.09961 -0.539062,0.09961 -0.292968,0 -0.55078,-0.114258 -0.254883,-0.114258 -0.442382,-0.348632 -0.1875,-0.234375 -0.295898,-0.588867 -0.108399,-0.354491 -0.108399,-0.837889 z m 1.3916,1.441404 q 0.175781,0 0.319335,-0.05859 0.146484,-0.06152 0.251953,-0.18164 0.105469,-0.123047 0.161133,-0.307617 0.05859,-0.187499 0.05859,-0.442382 0,-0.205078 -0.0498,-0.36621 -0.04687,-0.164063 -0.143555,-0.27832 -0.09668,-0.114258 -0.243164,-0.175781 -0.143554,-0.06152 -0.336913,-0.06152 -0.196289,0 -0.360351,0.07031 -0.161133,0.06738 -0.27539,0.178711 -0.114258,0.108398 -0.178711,0.249023 -0.06152,0.140624 -0.06152,0.281249 0,0.196289 0.05273,0.392578 0.05566,0.193359 0.161132,0.348632 0.108399,0.155273 0.269531,0.254883 0.161133,0.09668 0.375,0.09668 z"
            id="path41146"
            font-family="'Droid Sans'"
            fill="#ffffff"
          />
          <path
            d="M 8.016537,83.667999 H 6.4638049 V 83.369172 L 6.9677104,83.249055 V 79.803747 L 6.4638049,79.68363 V 79.384802 H 8.016537 v 0.298828 l -0.5039055,0.120117 v 3.445308 l 0.5039055,0.120117 z"
            id="path41148"
            font-family="'Droid Sans'"
            fill="#ffffff"
          />
          <path
            d="M 12.053641,83.667999 H 11.423759 L 9.3173165,80.123083 H 9.293879 q 0.017578,0.225585 0.029297,0.448241 0.011719,0.19043 0.017578,0.398437 0.00879,0.208008 0.00879,0.374999 v 2.323239 H 8.8456374 V 79.384802 H 9.46966 l 2.097653,3.527339 h 0.02051 q -0.0088,-0.222656 -0.02051,-0.439452 -0.0029,-0.09375 -0.0088,-0.19043 -0.0029,-0.09961 -0.0088,-0.196289 -0.0029,-0.09961 -0.0059,-0.190429 0,-0.09082 0,-0.166992 v -2.343747 h 0.509765 z"
            id="path41150"
            font-family="'Droid Sans'"
            fill="#ffffff"
          />
          <path
            d="M 13.456959,83.667999 15.106371,79.87113 H 12.89739 v -0.486328 h 2.753902 v 0.424804 l -1.625974,3.858393 z"
            id="path41152"
            font-family="'Droid Sans'"
            fill="#ffffff"
          />
        </g>
        <g
          aria-label="5 - 12V"
          transform="matrix(0,104.16681,-104.16681,0,-4e-5,0)"
          id="text21162"
          font-size="5.99999"
          font-family="'Droid Sans'"
          text-align="center"
          text-anchor="middle"
          fill="#ffffff"
          stroke-width="0.959999"
          stroke-linecap="round"
          stop-color="#000000">
          <path
            d="m 93.192212,-24.408462 q 0.290039,0 0.539062,0.08203 0.251953,0.0791 0.436523,0.237304 0.187499,0.158203 0.292968,0.392578 0.105469,0.234375 0.105469,0.541991 0,0.333984 -0.09961,0.600585 -0.09961,0.266601 -0.295898,0.451171 -0.196288,0.18457 -0.486327,0.284179 -0.287109,0.09668 -0.662108,0.09668 -0.149414,0 -0.295898,-0.01465 -0.143555,-0.01465 -0.27832,-0.04395 -0.131836,-0.02637 -0.251953,-0.07031 -0.120117,-0.04395 -0.216796,-0.102539 v -0.503905 q 0.09668,0.06738 0.225585,0.120117 0.131836,0.05273 0.275391,0.08789 0.143554,0.03516 0.287108,0.05566 0.146485,0.01758 0.269531,0.01758 0.231445,0 0.413085,-0.05273 0.181641,-0.05566 0.307617,-0.169922 0.125976,-0.114257 0.193359,-0.287109 0.06738,-0.172851 0.06738,-0.410155 0,-0.418945 -0.257812,-0.638671 -0.257812,-0.222656 -0.749999,-0.222656 -0.0791,0 -0.172851,0.0088 -0.09082,0.0059 -0.18457,0.01758 -0.09082,0.01172 -0.175781,0.02637 -0.08203,0.01172 -0.143555,0.02344 l -0.263671,-0.166992 0.161132,-2.015622 h 2.021481 v 0.486328 h -1.558591 l -0.114257,1.227537 q 0.09375,-0.01758 0.246093,-0.03809 0.155273,-0.02051 0.36621,-0.02051 z"
            id="path22696"
          />
          <path
            d="m 96.699042,-23.142839 v -0.492187 h 1.453123 v 0.492187 z"
            id="path22698"
          />
          <path
            d="m 102.03399,-21.780537 h -0.51562 v -2.6748 q 0,-0.125976 0,-0.269531 0.003,-0.143554 0.006,-0.284179 0.006,-0.143554 0.009,-0.27246 0.006,-0.131836 0.009,-0.231445 -0.0498,0.05273 -0.0879,0.09082 -0.0381,0.03809 -0.0791,0.07324 -0.0381,0.03516 -0.082,0.07617 -0.0439,0.03809 -0.10546,0.09082 l -0.4336,0.354491 -0.28125,-0.360351 1.12207,-0.875975 h 0.43945 z"
            id="path22700"
          />
          <path
            d="m 106.20879,-21.780537 h -2.67187 v -0.45703 l 1.02539,-1.116209 q 0.21973,-0.237305 0.39258,-0.433593 0.17285,-0.196289 0.29297,-0.383789 0.12304,-0.187499 0.1875,-0.374999 0.0644,-0.190429 0.0644,-0.413085 0,-0.172852 -0.0498,-0.304687 -0.0498,-0.131836 -0.14355,-0.222656 -0.0908,-0.09375 -0.2168,-0.140625 -0.12597,-0.04687 -0.28125,-0.04687 -0.27832,0 -0.5039,0.114258 -0.22266,0.111328 -0.42481,0.287109 l -0.29882,-0.348633 q 0.11718,-0.105468 0.25195,-0.196288 0.13477,-0.09375 0.29004,-0.161133 0.15527,-0.06738 0.32812,-0.105468 0.17285,-0.04102 0.36328,-0.04102 0.28125,0 0.50684,0.0791 0.22851,0.0791 0.38672,0.228516 0.1582,0.146484 0.24316,0.360351 0.0879,0.210937 0.0879,0.477538 0,0.249023 -0.0791,0.474609 -0.0762,0.225585 -0.21387,0.445311 -0.13476,0.216797 -0.32519,0.436523 -0.1875,0.219726 -0.40723,0.45703 l -0.82324,0.875976 v 0.02344 h 2.01855 z"
            id="path22702"
          />
          <path
            d="m 109.3875,-26.063733 h 0.58008 l -1.43262,4.283196 h -0.54785 l -1.42676,-4.283196 h 0.57715 l 0.86426,2.715816 q 0.085,0.266601 0.14648,0.515624 0.0615,0.246094 0.11133,0.46289 0.044,-0.216796 0.11133,-0.46289 0.0674,-0.249023 0.1582,-0.533202 z"
            id="path22704"
          />
        </g>
        <g
          id="g1461"
          transform="translate(511.811,157.35415)">
          <path
            id="path8103"
            d="m 12208.384,2400.9134 c -81.758,-332.2967 -379.565,-566.0262 -721.771,-566.4736 -340.103,3.0219 -634.893,236.2045 -716.139,566.4736 m 0.833,360.4831 c 83.037,328.0658 376.935,558.8208 715.335,561.6457 338.399,-2.825 632.299,-233.5795 715.334,-561.6457"
            fill="none"
            stroke="#ffffff"
            stroke-width="58.3909"
            stroke-linecap="round"
            stroke-miterlimit="4"
            stroke-dasharray="none"
            stroke-opacity="1"
          />
          <path
            id="path8542"
            d="m 12208.384,4231.622 c -81.758,-332.2968 -379.565,-566.0262 -721.771,-566.4736 -340.103,3.0219 -634.893,236.2044 -716.139,566.4736 m 0.833,360.483 c 83.037,328.0658 376.935,558.8208 715.335,561.6457 338.399,-2.825 632.299,-233.5795 715.334,-561.6457"
            fill="none"
            stroke="#ffffff"
            stroke-width="58.3909"
            stroke-linecap="round"
            stroke-miterlimit="4"
            stroke-dasharray="none"
            stroke-opacity="1"
          />
          <path
            id="path8544"
            d="m 12208.384,6062.3302 c -81.758,-332.2967 -379.565,-566.0262 -721.771,-566.4736 -340.103,3.0219 -634.893,236.2045 -716.139,566.4736 m 0.833,360.4831 c 83.037,328.0658 376.935,558.8209 715.335,561.6457 338.399,-2.825 632.299,-233.5795 715.334,-561.6457"
            fill="none"
            stroke="#ffffff"
            stroke-width="58.3909"
            stroke-linecap="round"
            stroke-miterlimit="4"
            stroke-dasharray="none"
            stroke-opacity="1"
          />
          <path
            id="path8546"
            d="m 12208.384,7873.3542 c -81.758,-332.2967 -379.565,-566.0262 -721.771,-566.4736 -340.103,3.0219 -634.893,236.2045 -716.139,566.4736 m 0.833,360.483 c 83.037,328.0658 376.935,558.8208 715.335,561.6457 338.399,-2.825 632.299,-233.5795 715.334,-561.6457"
            fill="none"
            stroke="#ffffff"
            stroke-width="58.3909"
            stroke-linecap="round"
            stroke-miterlimit="4"
            stroke-dasharray="none"
            stroke-opacity="1"
          />
          <g
            aria-label="A  B  C  D"
            transform="rotate(90,39.367173,39.367173)"
            id="text23763"
            font-size="833.333"
            font-family="'Droid Sans'"
            letter-spacing="291.667px"
            fill="#ffffff"
            stroke-width="100"
            stroke-linecap="round"
            stop-color="#000000">
            <path
              d="m 2777.2787,-9987.6709 -65.1041,-184.3261 h -221.761 l -65.9179,184.3261 h -76.4974 l 218.5058,-597.3301 h 69.1731 l 218.9127,597.3301 z m -89.1113,-251.4651 -60.2213,-172.526 q -2.4414,-7.324 -6.1035,-17.903 -3.2552,-10.58 -6.9173,-22.787 -3.6621,-12.207 -7.3242,-25.228 -3.6622,-13.427 -6.9174,-26.041 -2.8483,12.614 -6.5104,26.041 -3.6621,13.428 -7.3242,26.042 -3.6621,12.207 -7.3242,22.787 -3.2552,10.172 -5.6966,17.089 l -59.0006,172.526 z"
              id="path32588"
            />
            <path
              d="m 4243.0997,-10582.56 h 162.3535 q 52.0833,0 91.5527,8.138 39.8763,7.731 66.3248,25.635 26.8555,17.497 40.2832,46.386 13.4278,28.484 13.4278,70.394 0,25.228 -8.1381,47.201 -7.7311,21.972 -22.7864,38.655 -15.0553,16.683 -37.4349,28.077 -21.9726,10.986 -50.0488,14.648 v 4.069 q 28.0762,4.883 52.4902,14.242 24.821,8.951 43.1315,25.227 18.3105,15.87 28.89,40.284 10.5794,24.414 10.5794,59.407 0,40.69 -13.4277,72.835 -13.0209,31.739 -38.2487,54.118 -24.821,21.973 -60.6283,33.773 -35.8072,11.8001 -80.9732,11.8001 h -197.347 z m 75.6836,252.279 h 99.2838 q 34.1797,0 57.373,-6.104 23.1934,-6.103 37.4349,-17.904 14.2416,-12.207 20.3451,-30.11 6.5104,-18.311 6.5104,-42.318 0,-48.828 -31.3314,-69.987 -31.3314,-21.159 -98.8769,-21.159 h -90.7389 z m 0,63.476 v 214.844 h 108.2356 q 35.8073,0 59.8145,-8.138 24.414,-8.138 39.0625,-22.787 15.0553,-14.648 21.5657,-34.993 6.5104,-20.752 6.5104,-45.573 0,-22.787 -6.9173,-41.911 -6.5104,-19.124 -21.9726,-32.552 -15.0554,-13.835 -40.2832,-21.159 -25.2279,-7.731 -62.6628,-7.731 z"
              id="path32590"
            />
            <path
              d="m 6310.3203,-10524.373 q -43.5383,0 -78.9387,16.683 -35.4004,16.276 -60.6283,47.2 -24.8209,30.925 -38.6555,75.277 -13.4278,44.352 -13.4278,100.098 0,57.373 11.8002,102.132 12.207,44.352 36.2141,74.869 24.0072,30.518 59.8145,46.387 35.8072,15.869 83.8215,15.869 36.2142,0 68.7663,-6.917 32.5521,-7.324 64.2903,-16.683 v 65.918 q -15.8691,6.1035 -31.7382,10.9863 -15.8692,4.4759 -33.3659,7.3242 -17.0898,2.8483 -37.028,4.069 -19.5312,1.6276 -43.5384,1.6276 -66.7317,0 -115.5598,-21.9731 -48.8281,-21.972 -80.9733,-62.255 -31.7383,-40.284 -47.2005,-96.843 -15.4622,-56.559 -15.4622,-125.325 0,-67.546 17.4967,-123.698 17.9036,-56.152 52.0833,-96.436 34.5866,-40.283 85.4492,-62.662 50.8626,-22.38 116.7805,-22.38 43.9453,0 83.8216,8.952 39.8763,8.952 72.0215,26.042 l -31.7383,63.476 q -25.6347,-13.021 -55.7454,-22.379 -30.1107,-9.359 -68.3594,-9.359 z"
              id="path32592"
            />
            <path
              d="m 8317.7263,-10290.812 q 0,75.277 -19.5313,132.243 -19.5312,56.559 -56.5592,94.808 -37.028,37.841 -91.1458,56.966 -53.7109,19.1241 -122.0702,19.1241 H 7879.494 v -594.8891 h 165.6087 q 62.2558,0 112.7115,18.717 50.4557,18.718 85.8561,55.746 35.4004,36.621 54.5247,91.146 19.5313,54.524 19.5313,126.139 z m -80.1595,2.441 q 0,-59.407 -13.4277,-102.539 -13.4278,-43.538 -39.0625,-71.614 -25.6348,-28.076 -63.0696,-41.504 -37.4349,-13.835 -85.0423,-13.835 h -81.7871 v 465.088 h 65.9179 q 107.4219,0 161.9466,-59.408 54.5247,-59.407 54.5247,-176.188 z"
              id="path32594"
            />
          </g>
        </g>
        <g
          aria-label="-  +"
          id="text10881"
          font-size="833.333"
          font-family="'Droid Sans'"
          text-align="center"
          text-anchor="middle"
          display="inline"
          opacity="1"
          fill="#ffffff"
          stroke-width="100"
          stroke-linecap="round"
          stop-color="#000000">
          <path
            d="m 4188.46,11611.863 v -61.035 h -375.9764 v 61.035 z"
            id="path19729"
          />
          <path
            d="m 4969.9542,11611.863 h -157.4706 v -61.035 h 157.4706 v -158.285 h 61.0352 v 158.285 H 5188.46 v 61.035 h -157.4706 v 156.657 h -61.0352 z"
            id="path19731"
            display="inline"
          />
        </g>
        <g
          aria-label="on/off"
          id="text17831"
          transform="translate(-78.93219)"
          font-size="625"
          font-family="'Droid Sans'"
          text-align="center"
          letter-spacing="-41.6667px"
          text-anchor="middle"
          display="inline"
          opacity="1"
          fill="#ffffff"
          stroke-width="100"
          stroke-linecap="round"
          stop-color="#000000">
          <path
            d="m 6110.05,11569.771 q 0,41.809 -10.3759,74.463 -10.0708,32.349 -29.2969,54.626 -18.9209,21.973 -46.0815,33.57 -27.1607,11.596 -61.0352,11.596 -31.4331,0 -57.9834,-11.596 -26.5503,-11.597 -46.0815,-33.57 -19.2261,-22.277 -30.2124,-54.626 -10.6812,-32.654 -10.6812,-74.463 0,-41.504 10.0708,-73.547 10.376,-32.349 29.2969,-54.322 18.9209,-22.277 46.0815,-33.569 27.4658,-11.597 61.3404,-11.597 31.4331,0 57.9833,11.597 26.5503,11.292 45.7764,33.569 19.5313,21.973 30.2124,54.322 10.9863,32.043 10.9863,73.547 z m -234.375,0 q 0,63.782 20.752,96.13 21.0571,32.044 68.0542,32.044 46.9971,0 67.4438,-32.044 20.752,-32.348 20.752,-96.13 0,-63.782 -21.0571,-95.215 -20.752,-31.738 -67.7491,-31.738 -46.997,0 -67.749,31.738 -20.4468,31.433 -20.4468,95.215 z"
            id="path20081"
          />
          <path
            d="m 6365.9297,11737.923 v -215.759 q 0,-39.673 -16.1743,-59.51 -15.8691,-19.836 -50.0488,-19.836 -24.7192,0 -41.5039,7.934 -16.7847,7.935 -27.1606,23.499 -10.0708,15.564 -14.6485,38.147 -4.2724,22.583 -4.2724,51.88 v 173.645 h -55.542 v -335.083 h 45.166 l 7.9345,45.166 h 3.0518 q 7.6294,-13.123 18.0054,-22.583 10.6811,-9.766 23.1933,-16.174 12.5122,-6.409 26.5503,-9.461 14.0381,-3.052 28.6866,-3.052 55.8471,0 83.9233,29.297 28.3813,28.992 28.3813,93.079 v 218.811 z"
            id="path20083"
          />
          <path
            d="m 6657.2098,11291.756 -166.0156,446.167 h -54.6265 l 166.3208,-446.167 z"
            id="path20085"
          />
          <path
            d="m 6948.1847,11569.771 q 0,41.809 -10.376,74.463 -10.0708,32.349 -29.2969,54.626 -18.9209,21.973 -46.0815,33.57 -27.1606,11.596 -61.0352,11.596 -31.4331,0 -57.9834,-11.596 -26.5503,-11.597 -46.0815,-33.57 -19.2261,-22.277 -30.2124,-54.626 -10.6812,-32.654 -10.6812,-74.463 0,-41.504 10.0708,-73.547 10.376,-32.349 29.2969,-54.322 18.9209,-22.277 46.0816,-33.569 27.4658,-11.597 61.3403,-11.597 31.4331,0 57.9834,11.597 26.5503,11.292 45.7764,33.569 19.5312,21.973 30.2124,54.322 10.9863,32.043 10.9863,73.547 z m -234.375,0 q 0,63.782 20.7519,96.13 21.0572,32.044 68.0542,32.044 46.9971,0 67.4439,-32.044 20.7519,-32.348 20.7519,-96.13 0,-63.782 -21.0571,-95.215 -20.7519,-31.738 -67.749,-31.738 -46.9971,0 -67.749,31.738 -20.4468,31.433 -20.4468,95.215 z"
            id="path20087"
          />
          <path
            d="m 7140.2827,11444.649 h -74.7681 v 293.274 h -55.8471 v -293.274 h -59.2041 v -22.888 l 59.2041,-20.752 v -29.297 q 0,-32.654 6.7138,-54.016 7.0191,-21.668 19.8365,-34.485 13.1225,-12.817 32.0434,-18.005 18.9209,-5.494 42.7246,-5.494 18.0054,0 32.959,3.663 15.2588,3.356 27.1607,7.629 l -14.3433,43.03 q -9.4604,-3.357 -20.7519,-5.799 -10.9864,-2.746 -23.1934,-2.746 -12.207,0 -21.0571,3.052 -8.8501,2.746 -14.6485,10.07 -5.7983,7.325 -8.8501,20.142 -2.7466,12.512 -2.7466,32.349 v 31.738 h 74.7681 z"
            id="path20089"
          />
          <path
            d="m 7304.9148,11444.649 h -74.7681 v 293.274 h -55.8471 v -293.274 h -59.2041 v -22.888 l 59.2041,-20.752 v -29.297 q 0,-32.654 6.7138,-54.016 7.0191,-21.668 19.8365,-34.485 13.1225,-12.817 32.0434,-18.005 18.9209,-5.494 42.7246,-5.494 18.0054,0 32.959,3.663 15.2588,3.356 27.1606,7.629 l -14.3432,43.03 q -9.4605,-3.357 -20.752,-5.799 -10.9863,-2.746 -23.1933,-2.746 -12.2071,0 -21.0572,3.052 -8.8501,2.746 -14.6484,10.07 -5.7983,7.325 -8.8501,20.142 -2.7466,12.512 -2.7466,32.349 v 31.738 h 74.7681 z"
            id="path20091"
          />
        </g>
      </g>
      <g
        id="g4081"
        transform="matrix(139.18941,0,0,139.18941,5075.641,11928.244)"
        display="inline">
        <rect
          id="middle"
          x="-7.8800001"
          y="-81.949997"
          width="21.9"
          height="57.299999"
          fill="#303030"
        />
        <rect
          id="top"
          x="12.02"
          y="-81.949997"
          width="2"
          height="57.299999"
          fill="#3d3d3d"
        />
        <rect
          id="bottom"
          x="-7.8800001"
          y="-81.949997"
          width="2"
          height="57.299999"
        />
        <polygon
          id="left"
          points="48.48,0.9 46.48,1.4 28.58,1.4 26.58,0.9 "
          transform="translate(-34.46,-82.85)"
          fill="#1f1f1f"
        />
        <polygon
          id="left-upper-rect"
          points="37.48,4.5 41.58,4.5 41.58,1.4 39.88,1.3 37.48,1.3 "
          transform="translate(-34.46,-82.85)"
          fill="#1c1c1c"
        />
        <polygon
          id="left-lower-rect"
          points="35.18,1.3 33.38,1.4 33.38,4.5 37.48,4.5 37.48,1.3 "
          transform="translate(-34.46,-82.85)"
          fill="#383838"
        />
        <path
          id="slot"
          d="m 5.42,-81.55 h -4.7 a 2.24,2.24 0 0 0 2.4,1.9 2.37,2.37 0 0 0 2.3,-1.9 z"
          fill="#262626"
        />
        <path
          id="cover"
          d="m 12.02,-81.45 h -4.9 a 4.3,4.3 0 0 1 -8.2,0 v 0 3.6 h 13.1 z"
          fill="#303030"
        />
        <ellipse
          id="circle2957"
          cx="-2.5800009"
          cy="-77.349998"
          rx="1.7"
          ry="1.5"
          fill="#212121"
        />
        <rect
          id="ULNconnector0pin"
          x="-10.38"
          y="-79.449997"
          width="3.5"
          height="2.2"
          fill="#8c8c8c"
        />
        <polygon
          id="polygon2962"
          points="27.68,7 27.68,3.4 25.98,3.4 25.98,5.5 26.78,7 "
          transform="translate(-34.46,-82.85)"
          fill="#8c8c8c"
        />
        <rect
          id="ULNconnector15pin"
          x="12.920001"
          y="-79.449997"
          width="3.5"
          height="2.2"
          fill="#8c8c8c"
        />
        <polygon
          id="polygon2966"
          points="47.38,3.4 47.38,7 48.28,7 48.98,5.5 48.98,3.4 "
          transform="translate(-34.46,-82.85)"
          fill="#8c8c8c"
        />
        <rect
          id="ULNconnector7pin"
          x="-10.38"
          y="-29.250002"
          width="3.5"
          height="2.2"
          fill="#8c8c8c"
        />
        <polygon
          id="polygon2970"
          points="27.68,55.7 27.68,52.1 26.78,52.1 25.98,53.6 25.98,55.7 "
          transform="translate(-34.46,-82.85)"
          fill="#8c8c8c"
        />
        <rect
          id="ULNconnector8pin"
          x="12.920001"
          y="-29.250002"
          width="3.5"
          height="2.2"
          fill="#8c8c8c"
        />
        <polygon
          id="polygon2974"
          points="47.38,52.1 47.38,55.7 48.98,55.7 48.98,53.6 48.28,52.1 "
          transform="translate(-34.46,-82.85)"
          fill="#8c8c8c"
        />
        <rect
          id="ULNconnector1pin"
          x="-10.38"
          y="-72.25"
          width="3.5"
          height="2.2"
          fill="#8c8c8c"
        />
        <polygon
          id="polygon2978"
          points="26.78,14.1 27.68,14.1 27.68,9.1 26.78,9.1 25.98,10.6 25.98,12.7 "
          transform="translate(-34.46,-82.85)"
          fill="#8c8c8c"
        />
        <rect
          id="ULNconnector14pin"
          x="12.920001"
          y="-72.25"
          width="3.5"
          height="2.2"
          fill="#8c8c8c"
        />
        <polygon
          id="polygon2982"
          points="48.28,9.1 47.38,9.1 47.38,14.1 48.28,14.1 48.98,12.7 48.98,10.6 "
          transform="translate(-34.46,-82.85)"
          fill="#8c8c8c"
        />
        <rect
          id="ULNconnector2pin"
          x="-10.38"
          y="-65.150002"
          width="3.5"
          height="2.2"
          fill="#8c8c8c"
        />
        <polygon
          id="polygon2986"
          points="26.78,21.3 27.68,21.3 27.68,16.3 26.78,16.3 25.98,17.7 25.98,19.9 "
          transform="translate(-34.46,-82.85)"
          fill="#8c8c8c"
        />
        <rect
          id="ULNconnector13pin"
          x="12.920001"
          y="-65.150002"
          width="3.5"
          height="2.2"
          fill="#8c8c8c"
        />
        <polygon
          id="polygon2990"
          points="48.28,16.3 47.38,16.3 47.38,21.3 48.28,21.3 48.98,19.9 48.98,17.7 "
          transform="translate(-34.46,-82.85)"
          fill="#8c8c8c"
        />
        <rect
          id="ULNconnector3pin"
          x="-10.38"
          y="-57.950001"
          width="3.5"
          height="2.2"
          fill="#8c8c8c"
        />
        <polygon
          id="polygon2994"
          points="26.78,28.5 27.68,28.5 27.68,23.5 26.78,23.5 25.98,24.9 25.98,27 "
          transform="translate(-34.46,-82.85)"
          fill="#8c8c8c"
        />
        <rect
          id="ULNconnector12pin"
          x="12.920001"
          y="-57.950001"
          width="3.5"
          height="2.2"
          fill="#8c8c8c"
        />
        <polygon
          id="polygon2998"
          points="48.28,23.5 47.38,23.5 47.38,28.5 48.28,28.5 48.98,27 48.98,24.9 "
          transform="translate(-34.46,-82.85)"
          fill="#8c8c8c"
        />
        <rect
          id="ULNconnector4pin"
          x="-10.38"
          y="-50.75"
          width="3.5"
          height="2.2"
          fill="#8c8c8c"
        />
        <polygon
          id="polygon3002"
          points="26.78,35.6 27.68,35.6 27.68,30.6 26.78,30.6 25.98,32.1 25.98,34.2 "
          transform="translate(-34.46,-82.85)"
          fill="#8c8c8c"
        />
        <rect
          id="ULNconnector11pin"
          x="12.920001"
          y="-50.75"
          width="3.5"
          height="2.2"
          fill="#8c8c8c"
        />
        <polygon
          id="polygon3006"
          points="48.28,30.6 47.38,30.6 47.38,35.6 48.28,35.6 48.98,34.2 48.98,32.1 "
          transform="translate(-34.46,-82.85)"
          fill="#8c8c8c"
        />
        <rect
          id="ULNconnector5pin"
          x="-10.38"
          y="-43.649998"
          width="3.5"
          height="2.2"
          fill="#8c8c8c"
        />
        <polygon
          id="polygon3010"
          points="26.78,42.8 27.68,42.8 27.68,37.8 26.78,37.8 25.98,39.2 25.98,41.4 "
          transform="translate(-34.46,-82.85)"
          fill="#8c8c8c"
        />
        <rect
          id="ULNconnector10pin"
          x="12.920001"
          y="-43.649998"
          width="3.5"
          height="2.2"
          fill="#8c8c8c"
        />
        <polygon
          id="polygon3014"
          points="48.28,37.8 47.38,37.8 47.38,42.8 48.28,42.8 48.98,41.4 48.98,39.2 "
          transform="translate(-34.46,-82.85)"
          fill="#8c8c8c"
        />
        <rect
          id="ULNconnector6pin"
          x="-10.38"
          y="-36.449997"
          width="3.5"
          height="2.2"
          fill="#8c8c8c"
        />
        <polygon
          id="polygon3018"
          points="26.78,50 27.68,50 27.68,45 26.78,45 25.98,46.4 25.98,48.6 "
          transform="translate(-34.46,-82.85)"
          fill="#8c8c8c"
        />
        <rect
          id="ULNconnector9pin"
          x="12.920001"
          y="-36.449997"
          width="3.5"
          height="2.2"
          fill="#8c8c8c"
        />
        <polygon
          id="polygon3022"
          points="48.28,45 47.38,45 47.38,50 48.28,50 48.98,48.6 48.98,46.4 "
          transform="translate(-34.46,-82.85)"
          fill="#8c8c8c"
        />
        <g
          id="label"
          transform="translate(-34.46,-82.85)">
          <g
            id="g1021"
            isolation="isolate">
            <path
              d="m 36.51,14.28 a 0.74,0.74 0 0 1 0.26,-0.62 0.76,0.76 0 0 1 0.59,-0.19 h 2.8 a 0.25,0.25 0 0 1 0,0.5 h -2.8 c -0.28,0 -0.35,0.08 -0.35,0.31 v 0.85 c 0,0.23 0.07,0.31 0.35,0.31 h 2.8 a 0.25,0.25 0 0 1 0,0.5 h -2.8 a 0.76,0.76 0 0 1 -0.59,-0.19 0.74,0.74 0 0 1 -0.26,-0.62 z"
              id="path1001"
              fill="#ffffff"
            />
            <path
              d="m 37,19.29 a 0.25,0.25 0 0 1 -0.5,0 v -2.22 h 3.65 a 0.25,0.25 0 0 1 0,0.5 H 37 Z"
              id="path1003"
              fill="#ffffff"
            />
            <path
              d="m 40.16,22.64 a 0.25,0.25 0 0 1 0,0.5 h -3.65 v -0.66 l 3,-1.3 h -2.75 a 0.25,0.25 0 0 1 0,-0.5 h 3.65 v 0.66 l -3,1.31 h 2.79 z"
              id="path1005"
              fill="#ffffff"
            />
            <path
              d="m 37,24.77 v 1.72 a 0.25,0.25 0 1 1 -0.5,0 v -2.22 h 1.64 a 0.5,0.5 0 0 1 0.56,0.57 v 1.4 h 1.2 v -1.72 a 0.25,0.25 0 1 1 0.5,0 v 1.66 a 0.56,0.56 0 0 1 -0.14,0.41 0.53,0.53 0 0 1 -0.45,0.15 h -1 a 0.53,0.53 0 0 1 -0.45,-0.15 0.56,0.56 0 0 1 -0.14,-0.41 v -1.41 z"
              id="path1007"
              fill="#ffffff"
            />
            <path
              d="m 40.41,29.84 a 0.5,0.5 0 0 1 -0.5,0.5 H 37 a 0.49,0.49 0 0 1 -0.5,-0.5 v -1.47 a 0.49,0.49 0 0 1 0.5,-0.5 h 2.9 a 0.51,0.51 0 0 1 0.5,0.5 z m -3.4,0 h 2.9 V 28.37 H 37 Z"
              id="path1009"
              fill="#ffffff"
            />
            <path
              d="m 40.41,33.44 a 0.5,0.5 0 0 1 -0.5,0.5 H 37 a 0.49,0.49 0 0 1 -0.5,-0.5 V 32 A 0.49,0.49 0 0 1 37,31.5 h 2.9 a 0.5,0.5 0 0 1 0.5,0.5 z m -3.4,0 h 2.9 V 32 H 37 Z"
              id="path1011"
              fill="#ffffff"
            />
            <path
              d="m 39.91,35.32 a 0.25,0.25 0 1 1 0.5,0 V 37 a 0.49,0.49 0 0 1 -0.5,0.5 H 39 A 0.6,0.6 0 0 1 38.51,37.31 0.59,0.59 0 0 1 38.02,37.5 H 37 A 0.49,0.49 0 0 1 36.5,37 v -1.68 a 0.25,0.25 0 0 1 0.5,0 V 37 h 0.83 c 0.29,0 0.37,-0.11 0.37,-0.25 v -1 a 0.25,0.25 0 0 1 0.5,0 v 1 c 0,0.14 0.09,0.25 0.37,0.25 h 0.83 z"
              id="path1013"
              fill="#ffffff"
            />
            <path
              d="m 40.15,39.65 c 0.14,0 0.26,0.1 0.26,0.26 0,0.16 -0.13,0.22 -0.26,0.26 l -3.39,1 c -0.12,0 -0.25,-0.1 -0.25,-0.24 0,-0.14 0.13,-0.23 0.25,-0.27 l 0.6,-0.18 v -1.11 l -0.6,-0.19 a 0.29,0.29 0 0 1 -0.25,-0.27 c 0,-0.14 0.13,-0.27 0.25,-0.24 z m -0.93,0.26 v 0 l -1.35,-0.39 v 0.79 z"
              id="path1015"
              fill="#ffffff"
            />
            <path
              d="m 36.76,42.77 a 0.25,0.25 0 0 1 0,-0.5 h 3.65 v 1.66 a 0.76,0.76 0 0 1 -0.86,0.81 h -0.68 a 0.83,0.83 0 0 1 -0.64,-0.2 0.75,0.75 0 0 1 -0.24,-0.67 v -1.1 z m 1.73,0 v 1.11 c 0,0.3 0.07,0.36 0.36,0.36 h 0.7 c 0.28,0 0.36,-0.06 0.36,-0.36 v -1.11 z"
              id="path1017"
              fill="#ffffff"
            />
            <path
              d="m 37.79,47.36 a 0.23,0.23 0 0 1 0.25,-0.25 0.24,0.24 0 0 1 0.25,0.25 v 1 h -1 A 0.74,0.74 0 0 1 36.5,47.56 V 46.7 a 0.74,0.74 0 0 1 0.2,-0.57 0.74,0.74 0 0 1 0.62,-0.24 h 1.25 a 1,1 0 0 1 0.73,0.26 l 0.76,0.59 a 0.78,0.78 0 0 1 0.34,0.7 v 0.67 a 0.25,0.25 0 0 1 -0.5,0 v -0.6 c 0,-0.27 0,-0.25 -0.21,-0.42 L 39,46.53 a 0.94,0.94 0 0 0 -0.65,-0.16 h -1 c -0.28,0 -0.37,0.06 -0.37,0.35 v 0.79 c 0,0.18 0,0.33 0.26,0.33 h 0.52 z"
              id="path1019"
              fill="#ffffff"
            />
          </g>
        </g>
      </g>
      <g
        id="g3427"
        transform="matrix(61.634497,0,0,61.634497,1789.7226,3975.6739)"
        display="inline">
        <path
          id="ellipse35162"
          d="m 48,85.841797 c -1.651732,0.01647 -3.224775,0.404816 -4.375,1.080078 -0.141665,-0.004 -0.283654,-0.0066 -0.425781,-0.0078 -3.988499,1.76e-4 -6.163001,0.573034 -6.163001,2.400391 -9.24e-4,1.885533 2.174502,2.400215 6.163001,2.400391 0.04302,-0.0018 0.08599,-0.0038 0.128906,-0.0059 1.168735,0.779957 2.871533,1.234853 4.671875,1.248074 1.800334,-0.01321 3.503131,-0.4681 4.671875,-1.248047 0.04291,0.0021 0.08588,0.0041 0.128906,0.0059 3.988499,-1.76e-4 5.774246,-0.514885 5.773321,-2.400391 8.41e-4,-1.715191 -1.784822,-2.400215 -5.773321,-2.400391 -0.103191,0.0045 -0.20608,0.0097 -0.308593,0.01563 C 51.315834,86.235167 49.694513,85.84251 48,85.841797 Z"
          transform="matrix(1.6900708,0,0,1.6900708,-29.037677,-64.504037)"
          display="inline"
          opacity="1"
          fill="#f9bd47"
          fill-opacity="1"
          stroke="none"
          stroke-width="1.25684"
          stroke-linecap="round"
          stroke-opacity="1"
        />
        <path
          d="m 44.87015,86.854075 a 5.2513308,5.2513308 0 0 1 1.469839,-3.741406 3.6077846,3.6077846 0 0 0 -0.267244,7.081948 5.9728878,5.9728878 0 0 1 -1.202595,-3.340542 z"
          id="path1028"
          fill="#f9a923"
          stroke-width="1.33622"
        />
        <path
          d="m 59.167667,86.453211 a 5.2513308,5.2513308 0 0 1 -1.469838,3.741406 3.6077846,3.6077846 0 0 0 0.267243,-7.081948 4.6633956,4.6633956 0 0 1 1.202595,3.340542 z"
          id="path1030"
          fill="#f9a923"
          stroke-width="1.33622"
        />
      </g>
      <g
        id="g2594"
        transform="matrix(139.18941,0,0,139.18941,5486.6096,12419.711)"
        display="inline">
        <g
          id="g2072"
          transform="matrix(0.94284311,0,0,0.94284311,2.659732,-6.3529638)"
          display="inline">
          <path
            d="m 46.82,-62.05 a 5,5 0 1 1 5,-5 5,5 0 0 1 -5,5 z"
            id="path842"
            fill="#e9e6e0"
          />
          <path
            d="m 46.82,-61.8 a 5.25,5.25 0 1 1 5.25,-5.25 5.26,5.26 0 0 1 -5.25,5.25 z m 0,-10 a 4.75,4.75 0 0 0 0,9.5 4.75,4.75 0 0 0 4.72,-4.75 4.7,4.7 0 0 0 -4.72,-4.75 z"
            id="path844"
            fill="#c4c5c4"
          />
          <path
            d="m 46.94,-68.22 a 0.48,0.48 0 0 1 -0.42,-0.25 c -0.54,-0.94 -1.1,-1.05 -1.13,-1.05 a 0.51,0.51 0 0 1 -0.41,-0.57 0.48,0.48 0 0 1 0.53,-0.45 2.75,2.75 0 0 1 1.85,1.55 0.53,0.53 0 0 1 -0.17,0.7 0.47,0.47 0 0 1 -0.25,0.07 z"
            id="path1234"
            display="inline"
            fill="#ffffff"
          />
        </g>
        <g
          id="g2560"
          transform="matrix(0.94284311,0,0,0.94284311,2.659732,6.7996788)"
          display="inline">
          <path
            d="m 46.82,-62.05 a 5,5 0 1 1 5,-5 5,5 0 0 1 -5,5 z"
            id="path2554"
            fill="#e9e6e0"
          />
          <path
            d="m 46.82,-61.8 a 5.25,5.25 0 1 1 5.25,-5.25 5.26,5.26 0 0 1 -5.25,5.25 z m 0,-10 a 4.75,4.75 0 0 0 0,9.5 4.75,4.75 0 0 0 4.72,-4.75 4.7,4.7 0 0 0 -4.72,-4.75 z"
            id="path2556"
            fill="#c4c5c4"
          />
          <path
            d="m 46.94,-68.22 a 0.48,0.48 0 0 1 -0.42,-0.25 c -0.54,-0.94 -1.1,-1.05 -1.13,-1.05 a 0.51,0.51 0 0 1 -0.41,-0.57 0.48,0.48 0 0 1 0.53,-0.45 2.75,2.75 0 0 1 1.85,1.55 0.53,0.53 0 0 1 -0.17,0.7 0.47,0.47 0 0 1 -0.25,0.07 z"
            id="path2558"
            display="inline"
            fill="#ffffff"
          />
        </g>
        <g
          id="g2568"
          transform="matrix(0.94284311,0,0,0.94284311,2.659732,19.952322)"
          display="inline">
          <path
            d="m 46.82,-62.05 a 5,5 0 1 1 5,-5 5,5 0 0 1 -5,5 z"
            id="path2562"
            fill="#e9e6e0"
          />
          <path
            d="m 46.82,-61.8 a 5.25,5.25 0 1 1 5.25,-5.25 5.26,5.26 0 0 1 -5.25,5.25 z m 0,-10 a 4.75,4.75 0 0 0 0,9.5 4.75,4.75 0 0 0 4.72,-4.75 4.7,4.7 0 0 0 -4.72,-4.75 z"
            id="path2564"
            fill="#c4c5c4"
          />
          <path
            d="m 46.94,-68.22 a 0.48,0.48 0 0 1 -0.42,-0.25 c -0.54,-0.94 -1.1,-1.05 -1.13,-1.05 a 0.51,0.51 0 0 1 -0.41,-0.57 0.48,0.48 0 0 1 0.53,-0.45 2.75,2.75 0 0 1 1.85,1.55 0.53,0.53 0 0 1 -0.17,0.7 0.47,0.47 0 0 1 -0.25,0.07 z"
            id="path2566"
            display="inline"
            fill="#ffffff"
          />
        </g>
        <g
          id="g2576"
          transform="matrix(0.94284311,0,0,0.94284311,2.659732,32.963538)"
          display="inline">
          <path
            d="m 46.82,-62.05 a 5,5 0 1 1 5,-5 5,5 0 0 1 -5,5 z"
            id="path2570"
            fill="#e9e6e0"
          />
          <path
            d="m 46.82,-61.8 a 5.25,5.25 0 1 1 5.25,-5.25 5.26,5.26 0 0 1 -5.25,5.25 z m 0,-10 a 4.75,4.75 0 0 0 0,9.5 4.75,4.75 0 0 0 4.72,-4.75 4.7,4.7 0 0 0 -4.72,-4.75 z"
            id="path2572"
            fill="#c4c5c4"
          />
          <path
            d="m 46.94,-68.22 a 0.48,0.48 0 0 1 -0.42,-0.25 c -0.54,-0.94 -1.1,-1.05 -1.13,-1.05 a 0.51,0.51 0 0 1 -0.41,-0.57 0.48,0.48 0 0 1 0.53,-0.45 2.75,2.75 0 0 1 1.85,1.55 0.53,0.53 0 0 1 -0.17,0.7 0.47,0.47 0 0 1 -0.25,0.07 z"
            id="path2574"
            display="inline"
            fill="#ffffff"
          />
        </g>
      </g>
      <g
        id="g4694"
        transform="matrix(139.18941,0,0,139.18941,4796.4671,13031.845)"
        display="inline">
        <circle
          cx="-16.354889"
          cy="-32.538132"
          r="1.6971153"
          id="circle920"
          display="inline"
          fill="#a0a0a0"
          fill-opacity="1"
          stroke-width="1.41427"
        />
        <circle
          cx="-16.354889"
          cy="-39.722588"
          r="1.6971153"
          id="circle918"
          display="inline"
          fill="#a0a0a0"
          fill-opacity="1"
          stroke-width="1.41427"
        />
        <circle
          cx="-16.354889"
          cy="-46.907043"
          r="1.6971153"
          id="circle916"
          display="inline"
          fill="#a0a0a0"
          fill-opacity="1"
          stroke-width="1.41427"
        />
      </g>
      <g
        id="g4318"
        transform="translate(-138.53894,194.33248)">
        <g
          id="R1">
          <path
            class="bg-shadow"
            d="m 8218.5389,9321.8212 v 94.3565 h 98.4251 v -94.3565 h -98.4251"
            id="path17001"
            display="inline"
            fill="#ceb28c"
            fill-opacity="1"
            stroke="none"
            stroke-width="1.7808"
          />
          <path
            class="bg-shadow"
            d="m 8456.2002,9995.8046 c 7e-4,70.7564 9.3761,141.5114 28.1264,182.1634 45.4593,98.553 39.3811,119.27 39.3821,184.155 -7e-4,124.084 -116.0929,225.605 -256.3284,225.605 0,0 -6e-4,0 -6e-4,0 -140.2356,0 -254.9705,-101.52 -254.9705,-225.605 -6e-4,-88.537 16.396,-102.924 48.1533,-211.936 12.0021,-41.19 18.0018,-97.787 18.0018,-154.3818 0,-56.5949 -6,-113.1897 -18.0018,-154.3819 -31.7565,-109.0123 -48.1541,-123.399 -48.1533,-211.9363 6e-4,-124.0844 114.7349,-225.6051 254.9705,-225.6051 l 6e-4,6e-4 c 140.2355,0 256.3284,101.5207 256.3284,225.6052 0,64.8808 6.0781,85.6019 -39.3821,184.155 -18.75,40.6477 -28.1255,111.4074 -28.1264,182.1631 h 7e-4"
            id="path17003"
            display="inline"
            fill="#ceb28c"
            fill-opacity="1"
            stroke="none"
            stroke-width="0.857302"
          />
          <path
            class="bg-shadow"
            d="m 8218.8618,10670.304 v -94.356 h 98.4251 v 94.356 h -98.4251"
            id="path17005"
            display="inline"
            fill="#ceb28c"
            fill-opacity="1"
            stroke="none"
            stroke-width="1.7808"
          />
          <path
            class="bg"
            d="M 8268.1896,9403.8894 V 10587.72 c -139.871,-0.417 -255.5173,-101.763 -255.5173,-225.605 8e-4,-64.881 -6.0771,-85.602 39.3822,-184.155 18.7508,-40.648 28.1254,-111.408 28.1264,-182.1634 -8e-4,-70.7565 -9.3761,-141.5114 -28.1256,-182.1632 -45.4591,-98.5531 -39.382,-119.2701 -39.382,-184.1549 9e-4,-123.8426 115.6463,-225.2101 255.5172,-225.6052 v 0"
            id="path17007"
            display="inline"
            fill="#e6c8a2"
            fill-opacity="1"
            stroke="none"
            stroke-width="0.857302"
          />
          <path
            id="path17017"
            d="m 8316.964,9321.8212 h -98.4251 v -71.0041 c -119.8933,-15.6719 -206.3027,-119.1375 -206.7277,-254.7191 -0.02,-141.3597 114.5803,-255.9592 255.9402,-255.9397 141.36,-0.019 255.9598,114.58 255.9403,255.9397 -0.625,139.1545 -110.0258,245.8074 -206.7277,254.7191 z"
            display="inline"
            fill="#a0a0a0"
            stroke-width="39.68"
            stroke-linecap="round"
          />
          <path
            id="path17019"
            d="m 8317.2869,10670.304 h -98.4251 v 71.005 c -119.8933,15.671 -206.3027,119.137 -206.7277,254.719 -0.02,141.359 114.5803,255.958 255.9403,255.94 141.3599,0.02 255.9597,-114.581 255.9402,-255.94 -0.625,-139.155 -110.0258,-245.808 -206.7277,-254.719 z"
            display="inline"
            fill="#a0a0a0"
            stroke-width="39.68"
            stroke-linecap="round"
          />
          <path
            d="m 8015.6089,9710.2389 c -2.8521,-43.1059 -2.4146,-64.4784 -1.1875,-102.4625 l 508.0497,0.1771 c 0.8333,25.0153 1.4468,77.2588 -1.275,102.6476"
            id="path17015"
            display="inline"
            fill="#ffd100"
            fill-opacity="1"
            stroke="none"
            stroke-width="0.728705"
          />
          <path
            d="m 8467.1584,9867.8861 c -5.2719,40.6227 -11.6383,64.5024 -11.2707,114.5731 l -376.9506,-0.198 c 0.4167,-37.2336 -4.6094,-74.7061 -10.6256,-114.9664"
            id="path17013"
            display="inline"
            fill="#800000"
            fill-opacity="1"
            stroke="none"
            stroke-width="1.0202"
          />
          <path
            d="m 8462.0894,10093.507 c 8.2115,56.427 16.1939,71.344 35.1821,114.971 l -458.9711,0.187 c 14.4019,-33.355 28.1035,-63.516 34.7964,-115.048"
            id="path17011"
            display="inline"
            fill="#800000"
            fill-opacity="1"
            stroke="none"
            stroke-width="1.02024"
          />
          <path
            d="m 8523.769,10319.715 c -0.4063,60.535 -0.3542,80.979 -14.4908,115.16 H 8026.524 c -12.458,-28.456 -15.7804,-64.01 -13.8401,-115.064"
            id="path17009"
            display="inline"
            fill="#007500"
            fill-opacity="1"
            stroke="none"
            stroke-width="1.02021"
          />
        </g>
        <g
          id="R2">
          <path
            class="bg-shadow"
            d="m 9218.5385,9321.8211 v 94.3565 h 98.4252 v -94.3565 h -98.4252"
            id="path4841"
            display="inline"
            fill="#ceb28c"
            fill-opacity="1"
            stroke="none"
            stroke-width="1.7808"
          />
          <path
            class="bg-shadow"
            d="m 9456.1998,9995.8045 c 8e-4,70.7565 9.3761,141.5115 28.1264,182.1635 45.4593,98.553 39.3811,119.27 39.3821,184.155 -7e-4,124.084 -116.0929,225.605 -256.3284,225.605 0,0 -6e-4,0 -6e-4,0 -140.2356,0 -254.9704,-101.52 -254.9704,-225.605 -7e-4,-88.537 16.3959,-102.924 48.1533,-211.936 12.0021,-41.19 18.0018,-97.787 18.0018,-154.3819 0,-56.5949 -6,-113.1897 -18.0018,-154.3819 -31.7566,-109.0123 -48.1541,-123.399 -48.1533,-211.9363 5e-4,-124.0844 114.7348,-225.6051 254.9704,-225.6051 l 6e-4,6e-4 c 140.2355,0 256.3284,101.5207 256.3284,225.6052 0,64.8808 6.0782,85.6019 -39.3821,184.155 -18.75,40.6477 -28.1255,111.4074 -28.1264,182.1631 h 8e-4"
            id="path4843"
            display="inline"
            fill="#ceb28c"
            fill-opacity="1"
            stroke="none"
            stroke-width="0.857302"
          />
          <path
            class="bg-shadow"
            d="m 9218.8615,10670.304 v -94.356 h 98.4251 v 94.356 h -98.4251"
            id="path4845"
            display="inline"
            fill="#ceb28c"
            fill-opacity="1"
            stroke="none"
            stroke-width="1.7808"
          />
          <path
            class="bg"
            d="M 9268.1893,9403.8893 V 10587.72 c -139.871,-0.417 -255.5173,-101.763 -255.5173,-225.605 8e-4,-64.881 -6.0771,-85.602 39.3822,-184.155 18.7508,-40.648 28.1253,-111.408 28.1263,-182.1635 -8e-4,-70.7565 -9.376,-141.5114 -28.1255,-182.1632 -45.4591,-98.5531 -39.382,-119.2701 -39.382,-184.1549 8e-4,-123.8426 115.6463,-225.2101 255.5171,-225.6052 v 0"
            id="path4847"
            display="inline"
            fill="#e6c8a2"
            fill-opacity="1"
            stroke="none"
            stroke-width="0.857302"
          />
          <path
            id="path4849"
            d="m 9316.9637,9321.8211 h -98.4252 v -71.0041 c -119.8932,-15.6719 -206.3027,-119.1375 -206.7276,-254.7191 -0.02,-141.3597 114.5803,-255.9592 255.9401,-255.9397 141.3601,-0.019 255.9599,114.58 255.9403,255.9397 -0.625,139.1545 -110.0257,245.8074 -206.7276,254.7191 z"
            display="inline"
            fill="#a0a0a0"
            stroke-width="39.68"
            stroke-linecap="round"
          />
          <path
            id="path4851"
            d="m 9317.2865,10670.304 h -98.4251 v 71.005 c -119.8933,15.671 -206.3027,119.137 -206.7277,254.719 -0.02,141.359 114.5803,255.958 255.9403,255.94 141.3599,0.02 255.9597,-114.581 255.9402,-255.94 -0.625,-139.155 -110.0258,-245.808 -206.7277,-254.719 z"
            display="inline"
            fill="#a0a0a0"
            stroke-width="39.68"
            stroke-linecap="round"
          />
          <path
            d="m 9015.6086,9710.2388 c -2.8521,-43.1059 -2.4146,-64.4784 -1.1875,-102.4625 l 508.0497,0.1771 c 0.8333,25.0153 1.4468,77.2588 -1.275,102.6476"
            id="path4853"
            display="inline"
            fill="#ffd100"
            fill-opacity="1"
            stroke="none"
            stroke-width="0.728705"
          />
          <path
            d="m 9467.1581,9867.886 c -5.2719,40.6227 -11.6383,64.5024 -11.2707,114.5731 l -376.9506,-0.198 c 0.4167,-37.2336 -4.6094,-74.7061 -10.6256,-114.9664"
            id="path4855"
            display="inline"
            fill="#800000"
            fill-opacity="1"
            stroke="none"
            stroke-width="1.0202"
          />
          <path
            d="m 9462.0891,10093.507 c 8.2115,56.427 16.1939,71.344 35.1821,114.971 l -458.9711,0.187 c 14.4019,-33.355 28.1035,-63.516 34.7964,-115.048"
            id="path4857"
            display="inline"
            fill="#800000"
            fill-opacity="1"
            stroke="none"
            stroke-width="1.02024"
          />
          <path
            d="m 9523.7687,10319.715 c -0.4064,60.535 -0.3542,80.979 -14.4908,115.16 h -482.7542 c -12.458,-28.456 -15.7804,-64.01 -13.8401,-115.064"
            id="path4859"
            display="inline"
            fill="#007500"
            fill-opacity="1"
            stroke="none"
            stroke-width="1.02021"
          />
        </g>
        <g
          id="R3">
          <path
            class="bg-shadow"
            d="m 10218.539,9321.8212 v 94.3565 h 98.425 v -94.3565 h -98.425"
            id="path4863"
            display="inline"
            fill="#ceb28c"
            fill-opacity="1"
            stroke="none"
            stroke-width="1.7808"
          />
          <path
            class="bg-shadow"
            d="m 10456.2,9995.8046 c 10e-4,70.7564 9.376,141.5114 28.126,182.1634 45.46,98.553 39.382,119.27 39.383,184.155 0,124.084 -116.093,225.605 -256.329,225.605 0,0 0,0 0,0 -140.236,0 -254.971,-101.52 -254.971,-225.605 0,-88.537 16.396,-102.924 48.153,-211.936 12.002,-41.19 18.002,-97.787 18.002,-154.3818 0,-56.5949 -6,-113.1897 -18.002,-154.3819 -31.756,-109.0123 -48.154,-123.399 -48.153,-211.9363 0,-124.0844 114.735,-225.6051 254.971,-225.6051 v 6e-4 c 140.236,0 256.329,101.5207 256.329,225.6052 0,64.8808 6.078,85.6019 -39.383,184.155 -18.75,40.6477 -28.125,111.4074 -28.126,182.1631 h 10e-4"
            id="path4865"
            display="inline"
            fill="#ceb28c"
            fill-opacity="1"
            stroke="none"
            stroke-width="0.857302"
          />
          <path
            class="bg-shadow"
            d="m 10218.862,10670.304 v -94.356 h 98.425 v 94.356 h -98.425"
            id="path4867"
            display="inline"
            fill="#ceb28c"
            fill-opacity="1"
            stroke="none"
            stroke-width="1.7808"
          />
          <path
            class="bg"
            d="M 10268.19,9403.8894 V 10587.72 c -139.872,-0.417 -255.518,-101.763 -255.518,-225.605 0,-64.881 -6.077,-85.602 39.382,-184.155 18.751,-40.648 28.126,-111.408 28.127,-182.1634 0,-70.7565 -9.376,-141.5114 -28.126,-182.1632 -45.459,-98.5531 -39.382,-119.2701 -39.382,-184.1549 0,-123.8426 115.646,-225.2101 255.517,-225.6052 v 0"
            id="path4869"
            display="inline"
            fill="#e6c8a2"
            fill-opacity="1"
            stroke="none"
            stroke-width="0.857302"
          />
          <path
            id="path4871"
            d="m 10316.964,9321.8212 h -98.425 v -71.0041 c -119.893,-15.6719 -206.303,-119.1375 -206.728,-254.7191 -0.02,-141.3597 114.58,-255.9592 255.94,-255.9397 141.36,-0.019 255.96,114.58 255.941,255.9397 -0.625,139.1545 -110.026,245.8074 -206.728,254.7191 z"
            display="inline"
            fill="#a0a0a0"
            stroke-width="39.68"
            stroke-linecap="round"
          />
          <path
            id="path4873"
            d="m 10317.287,10670.304 h -98.425 v 71.005 c -119.894,15.671 -206.303,119.137 -206.728,254.719 -0.02,141.359 114.58,255.958 255.94,255.94 141.36,0.02 255.96,-114.581 255.94,-255.94 -0.625,-139.155 -110.025,-245.808 -206.727,-254.719 z"
            display="inline"
            fill="#a0a0a0"
            stroke-width="39.68"
            stroke-linecap="round"
          />
          <path
            d="m 10015.609,9710.2389 c -2.852,-43.1059 -2.415,-64.4784 -1.188,-102.4625 l 508.05,0.1771 c 0.833,25.0153 1.447,77.2588 -1.275,102.6476"
            id="path4875"
            display="inline"
            fill="#ffd100"
            fill-opacity="1"
            stroke="none"
            stroke-width="0.728705"
          />
          <path
            d="m 10467.158,9867.8861 c -5.272,40.6227 -11.638,64.5024 -11.27,114.5731 l -376.951,-0.198 c 0.417,-37.2336 -4.609,-74.7061 -10.626,-114.9664"
            id="path4877"
            display="inline"
            fill="#800000"
            fill-opacity="1"
            stroke="none"
            stroke-width="1.0202"
          />
          <path
            d="m 10462.089,10093.507 c 8.212,56.427 16.194,71.344 35.182,114.971 l -458.971,0.187 c 14.402,-33.355 28.104,-63.516 34.797,-115.048"
            id="path4879"
            display="inline"
            fill="#800000"
            fill-opacity="1"
            stroke="none"
            stroke-width="1.02024"
          />
          <path
            d="m 10523.769,10319.715 c -0.406,60.535 -0.354,80.979 -14.491,115.16 h -482.754 c -12.458,-28.456 -15.78,-64.01 -13.84,-115.064"
            id="path4881"
            display="inline"
            fill="#007500"
            fill-opacity="1"
            stroke="none"
            stroke-width="1.02021"
          />
        </g>
        <g
          id="R4">
          <path
            class="bg-shadow"
            d="m 11218.538,9321.8211 v 94.3565 h 98.426 v -94.3565 h -98.426"
            id="path4885"
            display="inline"
            fill="#ceb28c"
            fill-opacity="1"
            stroke="none"
            stroke-width="1.7808"
          />
          <path
            class="bg-shadow"
            d="m 11456.2,9995.8045 c 0,70.7565 9.376,141.5115 28.126,182.1635 45.459,98.553 39.381,119.27 39.382,184.155 0,124.084 -116.093,225.605 -256.328,225.605 0,0 -10e-4,0 -10e-4,0 -140.235,0 -254.97,-101.52 -254.97,-225.605 0,-88.537 16.396,-102.924 48.153,-211.936 12.002,-41.19 18.002,-97.787 18.002,-154.3819 0,-56.5949 -6,-113.1897 -18.002,-154.3819 -31.756,-109.0123 -48.154,-123.399 -48.153,-211.9363 0,-124.0844 114.735,-225.6051 254.97,-225.6051 l 10e-4,6e-4 c 140.235,0 256.328,101.5207 256.328,225.6052 0,64.8808 6.078,85.6019 -39.382,184.155 -18.75,40.6477 -28.125,111.4074 -28.126,182.1631 v 0"
            id="path4887"
            display="inline"
            fill="#ceb28c"
            fill-opacity="1"
            stroke="none"
            stroke-width="0.857302"
          />
          <path
            class="bg-shadow"
            d="m 11218.861,10670.304 v -94.356 h 98.426 v 94.356 h -98.426"
            id="path4889"
            display="inline"
            fill="#ceb28c"
            fill-opacity="1"
            stroke="none"
            stroke-width="1.7808"
          />
          <path
            class="bg"
            d="M 11268.189,9403.8893 V 10587.72 c -139.871,-0.417 -255.517,-101.763 -255.517,-225.605 0,-64.881 -6.077,-85.602 39.382,-184.155 18.751,-40.648 28.125,-111.408 28.126,-182.1635 0,-70.7565 -9.376,-141.5114 -28.125,-182.1632 -45.459,-98.5531 -39.382,-119.2701 -39.382,-184.1549 0,-123.8426 115.646,-225.2101 255.517,-225.6052 v 0"
            id="path4891"
            display="inline"
            fill="#e6c8a2"
            fill-opacity="1"
            stroke="none"
            stroke-width="0.857302"
          />
          <path
            id="path4893"
            d="m 11316.964,9321.8211 h -98.426 v -71.0041 c -119.893,-15.6719 -206.302,-119.1375 -206.727,-254.7191 -0.02,-141.3597 114.58,-255.9592 255.94,-255.9397 141.36,-0.019 255.96,114.58 255.94,255.9397 -0.625,139.1545 -110.026,245.8074 -206.727,254.7191 z"
            display="inline"
            fill="#a0a0a0"
            stroke-width="39.68"
            stroke-linecap="round"
          />
          <path
            id="path4895"
            d="m 11317.286,10670.304 h -98.425 v 71.005 c -119.893,15.671 -206.302,119.137 -206.727,254.719 -0.02,141.359 114.58,255.958 255.94,255.94 141.36,0.02 255.96,-114.581 255.94,-255.94 -0.625,-139.155 -110.026,-245.808 -206.728,-254.719 z"
            display="inline"
            fill="#a0a0a0"
            stroke-width="39.68"
            stroke-linecap="round"
          />
          <path
            d="m 11015.609,9710.2388 c -2.853,-43.1059 -2.415,-64.4784 -1.188,-102.4625 l 508.05,0.1771 c 0.833,25.0153 1.446,77.2588 -1.275,102.6476"
            id="path4897"
            display="inline"
            fill="#ffd100"
            fill-opacity="1"
            stroke="none"
            stroke-width="0.728705"
          />
          <path
            d="m 11467.158,9867.886 c -5.272,40.6227 -11.638,64.5024 -11.271,114.5731 l -376.95,-0.198 c 0.416,-37.2336 -4.61,-74.7061 -10.626,-114.9664"
            id="path4899"
            display="inline"
            fill="#800000"
            fill-opacity="1"
            stroke="none"
            stroke-width="1.0202"
          />
          <path
            d="m 11462.089,10093.507 c 8.212,56.427 16.194,71.344 35.182,114.971 l -458.971,0.187 c 14.402,-33.355 28.104,-63.516 34.796,-115.048"
            id="path4901"
            display="inline"
            fill="#800000"
            fill-opacity="1"
            stroke="none"
            stroke-width="1.02024"
          />
          <path
            d="m 11523.769,10319.715 c -0.407,60.535 -0.355,80.979 -14.491,115.16 h -482.754 c -12.458,-28.456 -15.781,-64.01 -13.841,-115.064"
            id="path4903"
            display="inline"
            fill="#007500"
            fill-opacity="1"
            stroke="none"
            stroke-width="1.02021"
          />
        </g>
      </g>
    </g>
    <g
      id="g33750"
      transform="translate(659.03877,-470.69209)"
      display="inline">
      <g
        id="g2116"
        transform="matrix(0,393.7008,-393.7008,0,9842.5194,1082.6771)"
        display="inline">
        <rect
          id="rect10286"
          width="15"
          height="5.9000001"
          x="0"
          y="0"
          display="inline"
          fill="#e8e8e8"
          fill-opacity="1"
          stroke="none"
          stroke-width="0.100579"
          stroke-linecap="round"
          stroke-miterlimit="4"
          stroke-dasharray="none"
        />
        <path
          id="rect11018"
          d="M 0,0 V 0.90020345 H 1.9998779 V 0 Z M 3.5000448,0 V 0.90020345 H 11.599809 V 0 Z M 13.00024,0 v 0.90020345 h 1.999878 V 0 Z M 0,1.9998779 V 5.0002117 5.8998982 H 15.000118 V 5.0002117 1.9998779 H 14.099914 V 5.0002117 H 0.90020345 V 1.9998779 Z"
          display="inline"
          fill="#ffffff"
          fill-opacity="1"
          stroke="none"
          stroke-width="0.0996"
          stroke-linecap="round"
          stroke-miterlimit="4"
          stroke-dasharray="none"
          stroke-opacity="1"
        />
      </g>
      <g
        id="motor-pins"
        transform="rotate(90,7916.2475,1427.665)"
        display="inline">
        <g
          id="g3277"
          transform="translate(-78.56724)">
          <rect
            height="387.69199"
            x="12306.2"
            y="306.15302"
            id="connector12pin"
            width="387.69199"
            gorn="0.0.109"
            fill="none"
          />
          <rect
            height="314.20999"
            x="12349.8"
            y="342.96399"
            id="connector12terminal"
            width="300.59698"
            gorn="0.0.110"
            fill="none"
          />
          <rect
            height="319.211"
            x="12340.5"
            y="340.46301"
            width="319.211"
            fill="#8d8c8c"
            id="rect1022"
          />
          <rect
            height="164.189"
            x="12418"
            y="417.974"
            width="164.189"
            fill="#8c8663"
            id="rect1024"
          />
          <polygon
            fill="#b8af82"
            points="12418,417.974 12582,417.974 12659.7,340.463 12340.5,340.463 "
            id="polygon1026"
          />
          <polygon
            fill="#80795b"
            points="12582,417.974 12659.7,340.463 12659.7,659.674 12582,582.025 "
            id="polygon1028"
          />
          <polygon
            fill="#5e5b43"
            points="12582,582.025 12659.7,659.674 12340.5,659.674 12418,582.025 "
            id="polygon1030"
          />
          <polygon
            fill="#9a916c"
            points="12418,417.974 12418,582.025 12340.5,659.674 12340.5,340.463 "
            id="polygon1032"
          />
        </g>
        <g
          id="g3287"
          transform="translate(-47.071176)">
          <rect
            height="387.69199"
            x="11306.2"
            y="306.15302"
            id="connector11pin"
            width="387.69199"
            gorn="0.0.100"
            fill="none"
          />
          <rect
            height="314.20999"
            x="11349.8"
            y="342.96399"
            id="connector11terminal"
            width="300.59698"
            gorn="0.0.101"
            fill="none"
          />
          <rect
            height="319.211"
            x="11340.5"
            y="340.46301"
            width="319.211"
            fill="#8d8c8c"
            id="rect1006"
          />
          <rect
            height="164.189"
            x="11418"
            y="417.974"
            width="164.189"
            fill="#8c8663"
            id="rect1008"
          />
          <polygon
            fill="#b8af82"
            points="11418,417.974 11582,417.974 11659.7,340.463 11340.5,340.463 "
            id="polygon1010"
          />
          <polygon
            fill="#80795b"
            points="11582,417.974 11659.7,340.463 11659.7,659.674 11582,582.025 "
            id="polygon1012"
          />
          <polygon
            fill="#5e5b43"
            points="11582,582.025 11659.7,659.674 11340.5,659.674 11418,582.025 "
            id="polygon1014"
          />
          <polygon
            fill="#9a916c"
            points="11418,417.974 11418,582.025 11340.5,659.674 11340.5,340.463 "
            id="polygon1016"
          />
        </g>
        <g
          id="g3297"
          transform="translate(-31.323143)">
          <rect
            height="387.69199"
            x="10306.2"
            y="306.15302"
            id="connector10pin"
            width="387.69199"
            gorn="0.0.91"
            fill="none"
          />
          <rect
            height="314.20999"
            x="10349.8"
            y="342.96399"
            id="connector10terminal"
            width="300.59698"
            gorn="0.0.92"
            fill="none"
          />
          <rect
            height="319.211"
            x="10340.5"
            y="340.46301"
            width="319.211"
            fill="#8d8c8c"
            id="rect990"
          />
          <rect
            height="164.189"
            x="10418"
            y="417.974"
            width="164.189"
            fill="#8c8663"
            id="rect992"
          />
          <polygon
            fill="#b8af82"
            points="10659.7,340.463 10340.5,340.463 10418,417.974 10582,417.974 "
            id="polygon994"
          />
          <polygon
            fill="#80795b"
            points="10659.7,659.674 10582,582.025 10582,417.974 10659.7,340.463 "
            id="polygon996"
          />
          <polygon
            fill="#5e5b43"
            points="10340.5,659.674 10418,582.025 10582,582.025 10659.7,659.674 "
            id="polygon998"
          />
          <polygon
            fill="#9a916c"
            points="10340.5,659.674 10340.5,340.463 10418,417.974 10418,582.025 "
            id="polygon1000"
          />
        </g>
        <g
          id="g3307"
          transform="translate(-1.7457776)">
          <rect
            height="387.69199"
            x="9306.1504"
            y="306.15302"
            id="connector9pin"
            width="387.69199"
            gorn="0.0.82"
            fill="none"
          />
          <rect
            height="314.20999"
            x="9349.7695"
            y="342.96399"
            id="connector9terminal"
            width="300.59698"
            gorn="0.0.83"
            fill="none"
          />
          <rect
            height="319.211"
            x="9340.46"
            y="340.46301"
            width="319.211"
            fill="#8d8c8c"
            id="rect974"
          />
          <rect
            height="164.189"
            x="9417.9697"
            y="417.974"
            width="164.189"
            fill="#8c8663"
            id="rect976"
          />
          <polygon
            fill="#b8af82"
            points="9659.67,340.463 9340.46,340.463 9417.97,417.974 9582.02,417.974 "
            id="polygon978"
          />
          <polygon
            fill="#80795b"
            points="9659.67,659.674 9582.02,582.025 9582.02,417.974 9659.67,340.463 "
            id="polygon980"
          />
          <polygon
            fill="#5e5b43"
            points="9340.46,659.674 9417.97,582.025 9582.02,582.025 9659.67,659.674 "
            id="polygon982"
          />
          <polygon
            fill="#9a916c"
            points="9340.46,659.674 9340.46,340.463 9417.97,417.974 9417.97,582.025 "
            id="polygon984"
          />
        </g>
        <g
          id="g3317">
          <rect
            height="387.69199"
            x="8306.1504"
            y="306.15302"
            id="connector8pin"
            width="387.69199"
            gorn="0.0.73"
            fill="none"
          />
          <rect
            height="314.20999"
            x="8349.7695"
            y="342.96399"
            id="connector8terminal"
            width="300.59698"
            gorn="0.0.74"
            fill="none"
          />
          <rect
            height="319.211"
            x="8340.46"
            y="340.46301"
            width="319.211"
            fill="#8d8c8c"
            id="rect958"
          />
          <rect
            height="164.189"
            x="8417.9697"
            y="417.974"
            width="164.189"
            fill="#8c8663"
            id="rect960"
          />
          <polygon
            fill="#b8af82"
            points="8582.02,417.974 8659.67,340.463 8340.46,340.463 8417.97,417.974 "
            id="polygon962"
          />
          <polygon
            fill="#80795b"
            points="8659.67,340.463 8659.67,659.674 8582.02,582.025 8582.02,417.974 "
            id="polygon964"
          />
          <polygon
            fill="#5e5b43"
            points="8659.67,659.674 8340.46,659.674 8417.97,582.025 8582.02,582.025 "
            id="polygon966"
          />
          <polygon
            fill="#9a916c"
            points="8417.97,582.025 8340.46,659.674 8340.46,340.463 8417.97,417.974 "
            id="polygon968"
          />
        </g>
      </g>
    </g>
    <g
      id="power-pins"
      transform="translate(-499.5968,9999.4852)"
      display="inline">
      <polygon
        fill="#404040"
        points="4782.75,1000 5000,782.747 5000,217.113 4782.75,0 4217.11,0 4000,217.113 4000,782.747 4217.11,1000 "
        id="polygon890"
      />
      <rect
        height="387.69199"
        x="4306.1499"
        y="306.15302"
        id="connector4pin"
        width="387.69199"
        gorn="0.0.37"
        fill="none"
      />
      <rect
        height="314.20999"
        x="4349.77"
        y="342.96399"
        id="connector4terminal"
        width="300.59698"
        gorn="0.0.38"
        fill="none"
      />
      <rect
        height="319.211"
        x="4340.46"
        y="340.46301"
        width="319.211"
        fill="#8d8c8c"
        id="rect894"
      />
      <rect
        height="164.189"
        x="4417.9702"
        y="417.974"
        width="164.189"
        fill="#8c8663"
        id="rect896"
      />
      <polygon
        fill="#b8af82"
        points="4340.46,340.463 4417.97,417.974 4582.02,417.974 4659.67,340.463 "
        id="polygon898"
      />
      <polygon
        fill="#80795b"
        points="4582.02,582.025 4582.02,417.974 4659.67,340.463 4659.67,659.674 "
        id="polygon900"
      />
      <polygon
        fill="#5e5b43"
        points="4417.97,582.025 4582.02,582.025 4659.67,659.674 4340.46,659.674 "
        id="polygon902"
      />
      <polygon
        fill="#9a916c"
        points="4340.46,340.463 4417.97,417.974 4417.97,582.025 4340.46,659.674 "
        id="polygon904"
      />
      <polygon
        fill="#404040"
        points="5782.75,1000 6000,782.747 6000,217.113 5782.75,0 5217.11,0 5000,217.113 5000,782.747 5217.11,1000 "
        id="polygon906"
      />
      <rect
        height="387.69199"
        x="5306.1499"
        y="306.15302"
        id="connector5pin"
        width="387.69199"
        gorn="0.0.46"
        fill="none"
      />
      <rect
        height="314.20999"
        x="5349.77"
        y="342.96399"
        id="connector5terminal"
        width="300.59698"
        gorn="0.0.47"
        fill="none"
      />
      <rect
        height="319.211"
        x="5340.46"
        y="340.46301"
        width="319.211"
        fill="#8d8c8c"
        id="rect910"
      />
      <rect
        height="164.189"
        x="5417.9702"
        y="417.974"
        width="164.189"
        fill="#8c8663"
        id="rect912"
      />
      <polygon
        fill="#b8af82"
        points="5340.46,340.463 5417.97,417.974 5582.02,417.974 5659.67,340.463 "
        id="polygon914"
      />
      <polygon
        fill="#80795b"
        points="5582.02,582.025 5582.02,417.974 5659.67,340.463 5659.67,659.674 "
        id="polygon916"
      />
      <polygon
        fill="#5e5b43"
        points="5417.97,582.025 5582.02,582.025 5659.67,659.674 5340.46,659.674 "
        id="polygon918"
      />
      <polygon
        fill="#9a916c"
        points="5340.46,340.463 5417.97,417.974 5417.97,582.025 5340.46,659.674 "
        id="polygon920"
      />
      <polygon
        fill="#404040"
        points="6782.75,1000 7000,782.747 7000,217.113 6782.75,0 6217.11,0 6000,217.113 6000,782.747 6217.11,1000 "
        id="polygon922"
      />
      <rect
        height="387.69199"
        x="6306.1499"
        y="306.15302"
        id="connector6pin"
        width="387.69199"
        gorn="0.0.55"
        fill="none"
      />
      <rect
        height="314.20999"
        x="6349.77"
        y="342.96399"
        id="connector6terminal"
        width="300.59698"
        gorn="0.0.56"
        fill="none"
      />
      <rect
        height="319.211"
        x="6340.46"
        y="340.46301"
        width="319.211"
        fill="#8d8c8c"
        id="rect926"
      />
      <rect
        height="164.189"
        x="6417.9702"
        y="417.974"
        width="164.189"
        fill="#8c8663"
        id="rect928"
      />
      <polygon
        fill="#b8af82"
        points="6340.46,340.463 6417.97,417.974 6582.02,417.974 6659.67,340.463 "
        id="polygon930"
      />
      <polygon
        fill="#80795b"
        points="6582.02,582.025 6582.02,417.974 6659.67,340.463 6659.67,659.674 "
        id="polygon932"
      />
      <polygon
        fill="#5e5b43"
        points="6417.97,582.025 6582.02,582.025 6659.67,659.674 6340.46,659.674 "
        id="polygon934"
      />
      <polygon
        fill="#9a916c"
        points="6340.46,340.463 6417.97,417.974 6417.97,582.025 6340.46,659.674 "
        id="polygon936"
      />
      <polygon
        fill="#404040"
        points="7782.75,1000 8000,782.747 8000,217.113 7782.75,0 7217.11,0 7000,217.113 7000,782.747 7217.11,1000 "
        id="polygon938"
      />
      <rect
        height="387.69199"
        x="7306.1499"
        y="306.15302"
        id="connector7pin"
        width="387.69199"
        gorn="0.0.64"
        fill="none"
      />
      <rect
        height="314.20999"
        x="7349.77"
        y="342.96399"
        id="connector7terminal"
        width="300.59698"
        gorn="0.0.65"
        fill="none"
      />
      <rect
        height="319.211"
        x="7340.46"
        y="340.46301"
        width="319.211"
        fill="#8d8c8c"
        id="rect942"
      />
      <rect
        height="164.189"
        x="7417.9702"
        y="417.974"
        width="164.189"
        fill="#8c8663"
        id="rect944"
      />
      <polygon
        fill="#b8af82"
        points="7340.46,340.463 7417.97,417.974 7582.02,417.974 7659.67,340.463 "
        id="polygon946"
      />
      <polygon
        fill="#80795b"
        points="7582.02,582.025 7582.02,417.974 7659.67,340.463 7659.67,659.674 "
        id="polygon948"
      />
      <polygon
        fill="#5e5b43"
        points="7417.97,582.025 7582.02,582.025 7659.67,659.674 7340.46,659.674 "
        id="polygon950"
      />
      <polygon
        fill="#9a916c"
        points="7340.46,340.463 7417.97,417.974 7417.97,582.025 7340.46,659.674 "
        id="polygon952"
      />
    </g>
    <g
      id="jumper"
      display="inline">
      <path
        id="polygon1216"
        d="m 6723.6334,10246.786 517.5781,0.614 2.2375,504.761 -517.5781,2.646 -448.4049,0.625 -517.5782,-2.646 2.4417,-504.964 517.3747,-0.615 -0.2083,-14.852 444.1325,-0.406 m 0,-201.823 -445.9636,0.407 -31.1774,-30.518 -692.8705,-0.01 -52.2616,52.597 1.3615,893.174 51.9814,54.229 691.7896,-0.03 44.7892,-44.231 416.1799,-2.719 46.0739,46.95 694.7933,0.03 51.7117,-46.63 1.9719,-907.389 -51.6495,-45.981 -696.8278,0.01 z"
        display="inline"
        fill="#262626"
        fill-opacity="1"
        stroke="none"
        stroke-width="0"
      />
      <path
        d="m 6220.3266,10399.547 v 317.646 h -436.6751 l -0.9583,-432.735 h 1436.3107 l -2.0073,435.037 -435.0364,-2.302 -2.3021,-313.044"
        id="path10059"
        display="inline"
        fill="none"
        stroke="#b59e40"
        stroke-width="78.7402"
        stroke-linecap="butt"
        stroke-linejoin="miter"
        stroke-miterlimit="4"
        stroke-dasharray="none"
        stroke-opacity="1"
      />
    </g>
    <g
      id="contro-pins"
      transform="rotate(90,496.66542,2506.3697)"
      display="inline">
      <polygon
        fill="#404040"
        points="217.113,0 0,217.113 0,782.747 217.113,1000 782.747,1000 1000,782.747 1000,217.113 782.747,0 "
        id="polygon826"
      />
      <rect
        height="387.69199"
        x="306.15302"
        y="306.15302"
        id="connector0pin"
        width="387.69199"
        gorn="0.0.1"
        fill="none"
      />
      <rect
        height="314.20999"
        x="349.76999"
        y="342.96399"
        id="connector0terminal"
        width="300.59698"
        gorn="0.0.2"
        fill="none"
      />
      <rect
        height="319.211"
        x="340.46301"
        y="340.46301"
        width="319.211"
        fill="#8d8c8c"
        id="rect830"
      />
      <rect
        height="164.189"
        x="417.974"
        y="417.974"
        width="164.189"
        fill="#8c8663"
        id="rect832"
      />
      <polygon
        fill="#b8af82"
        points="340.463,340.463 417.974,417.974 582.025,417.974 659.674,340.463 "
        id="polygon834"
      />
      <polygon
        fill="#80795b"
        points="582.025,582.025 582.025,417.974 659.674,340.463 659.674,659.674 "
        id="polygon836"
      />
      <polygon
        fill="#5e5b43"
        points="417.974,582.025 582.025,582.025 659.674,659.674 340.463,659.674 "
        id="polygon838"
      />
      <polygon
        fill="#9a916c"
        points="340.463,340.463 417.974,417.974 417.974,582.025 340.463,659.674 "
        id="polygon840"
      />
      <polygon
        fill="#404040"
        points="1217.11,0 1000,217.113 1000,782.747 1217.11,1000 1782.75,1000 2000,782.747 2000,217.113 1782.75,0 "
        id="polygon842"
      />
      <rect
        height="387.69199"
        x="1306.15"
        y="306.15302"
        id="connector1pin"
        width="387.69199"
        gorn="0.0.10"
        fill="none"
      />
      <rect
        height="314.20999"
        x="1349.77"
        y="342.96399"
        id="connector1terminal"
        width="300.59698"
        gorn="0.0.11"
        fill="none"
      />
      <rect
        height="319.211"
        x="1340.46"
        y="340.46301"
        width="319.211"
        fill="#8d8c8c"
        id="rect846"
      />
      <rect
        height="164.189"
        x="1417.97"
        y="417.974"
        width="164.189"
        fill="#8c8663"
        id="rect848"
      />
      <polygon
        fill="#b8af82"
        points="1340.46,340.463 1417.97,417.974 1582.03,417.974 1659.67,340.463 "
        id="polygon850"
      />
      <polygon
        fill="#80795b"
        points="1582.03,582.025 1582.03,417.974 1659.67,340.463 1659.67,659.674 "
        id="polygon852"
      />
      <polygon
        fill="#5e5b43"
        points="1417.97,582.025 1582.03,582.025 1659.67,659.674 1340.46,659.674 "
        id="polygon854"
      />
      <polygon
        fill="#9a916c"
        points="1340.46,340.463 1417.97,417.974 1417.97,582.025 1340.46,659.674 "
        id="polygon856"
      />
      <polygon
        fill="#404040"
        points="2217.11,0 2000,217.113 2000,782.747 2217.11,1000 2782.75,1000 3000,782.747 3000,217.113 2782.75,0 "
        id="polygon858"
      />
      <rect
        height="387.69199"
        x="2306.1499"
        y="306.15302"
        id="connector2pin"
        width="387.69199"
        gorn="0.0.19"
        fill="none"
      />
      <rect
        height="314.20999"
        x="2349.77"
        y="342.96399"
        id="connector2terminal"
        width="300.59698"
        gorn="0.0.20"
        fill="none"
      />
      <rect
        height="319.211"
        x="2340.46"
        y="340.46301"
        width="319.211"
        fill="#8d8c8c"
        id="rect862"
      />
      <rect
        height="164.189"
        x="2417.97"
        y="417.974"
        width="164.189"
        fill="#8c8663"
        id="rect864"
      />
      <polygon
        fill="#b8af82"
        points="2340.46,340.463 2417.97,417.974 2582.03,417.974 2659.67,340.463 "
        id="polygon866"
      />
      <polygon
        fill="#80795b"
        points="2582.03,582.025 2582.03,417.974 2659.67,340.463 2659.67,659.674 "
        id="polygon868"
      />
      <polygon
        fill="#5e5b43"
        points="2417.97,582.025 2582.03,582.025 2659.67,659.674 2340.46,659.674 "
        id="polygon870"
      />
      <polygon
        fill="#9a916c"
        points="2340.46,340.463 2417.97,417.974 2417.97,582.025 2340.46,659.674 "
        id="polygon872"
      />
      <polygon
        fill="#404040"
        points="3217.11,0 3000,217.113 3000,782.747 3217.11,1000 3782.75,1000 4000,782.747 4000,217.113 3782.75,0 "
        id="polygon874"
      />
      <rect
        height="387.69199"
        x="3306.1499"
        y="306.15302"
        id="connector3pin"
        width="387.69199"
        gorn="0.0.28"
        fill="none"
      />
      <rect
        height="314.20999"
        x="3349.77"
        y="342.96399"
        id="connector3terminal"
        width="300.59698"
        gorn="0.0.29"
        fill="none"
      />
      <rect
        height="319.211"
        x="3340.46"
        y="340.46301"
        width="319.211"
        fill="#8d8c8c"
        id="rect878"
      />
      <rect
        height="164.189"
        x="3417.97"
        y="417.974"
        width="164.189"
        fill="#8c8663"
        id="rect880"
      />
      <polygon
        fill="#b8af82"
        points="3340.46,340.463 3417.97,417.974 3582.03,417.974 3659.67,340.463 "
        id="polygon882"
      />
      <polygon
        fill="#80795b"
        points="3582.03,582.025 3582.03,417.974 3659.67,340.463 3659.67,659.674 "
        id="polygon884"
      />
      <polygon
        fill="#5e5b43"
        points="3417.97,582.025 3582.03,582.025 3659.67,659.674 3340.46,659.674 "
        id="polygon886"
      />
      <polygon
        fill="#9a916c"
        points="3340.46,340.463 3417.97,417.974 3417.97,582.025 3340.46,659.674 "
        id="polygon888"
      />
    </g>
  </g>
</svg>
